M48
;Layer_Color=9474304
;FILE_FORMAT=2:4
INCH,TZ
;TYPE=PLATED
T01F00S00C0.0118
T02F00S00C0.0354
;TYPE=NON_PLATED
T03F00S00C0.0256
%
T01
X5180Y7197
Y8395
Y9603
X5165Y10943
X6527
X6543Y9603
Y8395
Y7215
X7905Y7187
Y8387
Y9587
X9258Y9596
Y8388
Y7207
X10621Y7198
Y8388
Y9596
X10605Y10937
X9243
X7890Y10943
X5550Y13800
X9900Y15100
X10746Y15039
X11750Y14650
X9720Y15700
X2550Y17150
Y17650
T02
X12300Y9000
X13300
X14300
X15300
X14400Y14350
Y15350
X16300Y9000
X17300
X17400Y20500
X18400
X19400
X16400
X15200
X14200
X13200
X12200
X11200
X10200
X8987Y20489
X7987
X6987
X5987
X14400Y16350
T03
X2610Y16362
Y18638
M30
