G04*
G04 #@! TF.GenerationSoftware,Altium Limited,Altium Designer,25.8.1 (18)*
G04*
G04 Layer_Color=16711935*
%FSLAX25Y25*%
%MOIN*%
G70*
G04*
G04 #@! TF.SameCoordinates,879A800C-AAF0-40E7-B308-37E3056083DF*
G04*
G04*
G04 #@! TF.FilePolarity,Positive*
G04*
G01*
G75*
%ADD15C,0.01000*%
D15*
X25000Y133228D02*
X24923Y134206D01*
X24694Y135160D01*
X24319Y136066D01*
X23806Y136902D01*
X23169Y137648D01*
X22424Y138285D01*
X21587Y138797D01*
X20681Y139172D01*
X19728Y139401D01*
X18750Y139478D01*
Y73041D02*
X19728Y73118D01*
X20681Y73347D01*
X21587Y73723D01*
X22424Y74235D01*
X23169Y74872D01*
X23806Y75618D01*
X24319Y76454D01*
X24694Y77360D01*
X24923Y78314D01*
X25000Y79291D01*
X18750Y139478D02*
X17772Y139401D01*
X16819Y139172D01*
X15913Y138797D01*
X15076Y138285D01*
X14331Y137648D01*
X13694Y136902D01*
X13181Y136066D01*
X12806Y135160D01*
X12577Y134206D01*
X12500Y133228D01*
Y79291D02*
X12577Y78314D01*
X12806Y77360D01*
X13181Y76454D01*
X13694Y75618D01*
X14331Y74872D01*
X15076Y74235D01*
X15913Y73723D01*
X16819Y73347D01*
X17772Y73118D01*
X18750Y73041D01*
X25000Y79291D02*
Y133228D01*
X12500Y79291D02*
Y133228D01*
M02*
