G04*
G04 #@! TF.GenerationSoftware,Altium Limited,Altium Designer,25.8.1 (18)*
G04*
G04 Layer_Color=8421504*
%FSLAX25Y25*%
%MOIN*%
G70*
G04*
G04 #@! TF.SameCoordinates,70397301-3752-4A3B-8FF2-FC9E58B5EE46*
G04*
G04*
G04 #@! TF.FilePolarity,Positive*
G04*
G01*
G75*
%ADD15R,0.03543X0.04921*%
%ADD16R,0.02165X0.02165*%
%ADD17R,0.02165X0.02165*%
%ADD18R,0.04000X0.04724*%
%ADD19R,0.04528X0.02362*%
%ADD20R,0.02230X0.02254*%
%ADD21O,0.06299X0.02362*%
%ADD22C,0.00827*%
%ADD23C,0.00827*%
%ADD24R,0.04724X0.02559*%
%ADD25R,0.07717X0.07717*%
G04:AMPARAMS|DCode=26|XSize=7.87mil|YSize=33.07mil|CornerRadius=0.98mil|HoleSize=0mil|Usage=FLASHONLY|Rotation=270.000|XOffset=0mil|YOffset=0mil|HoleType=Round|Shape=RoundedRectangle|*
%AMROUNDEDRECTD26*
21,1,0.00787,0.03110,0,0,270.0*
21,1,0.00591,0.03307,0,0,270.0*
1,1,0.00197,-0.01555,-0.00295*
1,1,0.00197,-0.01555,0.00295*
1,1,0.00197,0.01555,0.00295*
1,1,0.00197,0.01555,-0.00295*
%
%ADD26ROUNDEDRECTD26*%
%ADD27R,0.05512X0.04724*%
G04:AMPARAMS|DCode=28|XSize=71.82mil|YSize=24.33mil|CornerRadius=12.17mil|HoleSize=0mil|Usage=FLASHONLY|Rotation=180.000|XOffset=0mil|YOffset=0mil|HoleType=Round|Shape=RoundedRectangle|*
%AMROUNDEDRECTD28*
21,1,0.07182,0.00000,0,0,180.0*
21,1,0.04749,0.02433,0,0,180.0*
1,1,0.02433,-0.02375,0.00000*
1,1,0.02433,0.02375,0.00000*
1,1,0.02433,0.02375,0.00000*
1,1,0.02433,-0.02375,0.00000*
%
%ADD28ROUNDEDRECTD28*%
%ADD29R,0.07182X0.02433*%
%ADD30R,0.03150X0.03150*%
%ADD31R,0.03543X0.02756*%
G04:AMPARAMS|DCode=32|XSize=33.07mil|YSize=7.87mil|CornerRadius=0.98mil|HoleSize=0mil|Usage=FLASHONLY|Rotation=270.000|XOffset=0mil|YOffset=0mil|HoleType=Round|Shape=RoundedRectangle|*
%AMROUNDEDRECTD32*
21,1,0.03307,0.00591,0,0,270.0*
21,1,0.03110,0.00787,0,0,270.0*
1,1,0.00197,-0.00295,-0.01555*
1,1,0.00197,-0.00295,0.01555*
1,1,0.00197,0.00295,0.01555*
1,1,0.00197,0.00295,-0.01555*
%
%ADD32ROUNDEDRECTD32*%
%ADD33R,0.04528X0.01181*%
D15*
X154330Y165829D02*
D03*
Y150671D02*
D03*
X160630D02*
D03*
Y165829D02*
D03*
X193700D02*
D03*
Y150671D02*
D03*
X200000Y165829D02*
D03*
Y150671D02*
D03*
D16*
X249500Y138700D02*
D03*
X263500Y126200D02*
D03*
X286500Y136200D02*
D03*
X264000Y173800D02*
D03*
X290000Y136200D02*
D03*
X286500Y140800D02*
D03*
X264000Y169200D02*
D03*
X263500Y130800D02*
D03*
X249500Y143300D02*
D03*
X290000Y140800D02*
D03*
D17*
X226416Y153102D02*
D03*
X285800Y129000D02*
D03*
X232417Y172102D02*
D03*
X289300Y110500D02*
D03*
X292270Y149879D02*
D03*
X293300Y154000D02*
D03*
X283300Y133500D02*
D03*
X237200Y148500D02*
D03*
Y145500D02*
D03*
X283300Y169000D02*
D03*
X278700D02*
D03*
X241800Y145500D02*
D03*
Y148500D02*
D03*
X287670Y149879D02*
D03*
X278700Y133500D02*
D03*
X281200Y129000D02*
D03*
X288700Y154000D02*
D03*
X284700Y110500D02*
D03*
X237017Y172102D02*
D03*
X231016Y153102D02*
D03*
D18*
X288240Y124500D02*
D03*
X280760D02*
D03*
X284500Y116154D02*
D03*
D19*
X308398Y93394D02*
D03*
Y118591D02*
D03*
Y96543D02*
D03*
Y115441D02*
D03*
D20*
X298716Y115500D02*
D03*
Y99000D02*
D03*
X302284D02*
D03*
X318783Y145000D02*
D03*
X306933D02*
D03*
X315216D02*
D03*
X310500D02*
D03*
X298716Y110000D02*
D03*
X302284D02*
D03*
Y115500D02*
D03*
X298716Y104500D02*
D03*
X302284D02*
D03*
X237933Y153000D02*
D03*
X241500D02*
D03*
D21*
X327673Y166000D02*
D03*
X299327Y151000D02*
D03*
Y161000D02*
D03*
Y156000D02*
D03*
X327673D02*
D03*
Y161000D02*
D03*
X299327Y166000D02*
D03*
X327673Y151000D02*
D03*
D22*
X334338Y127635D02*
D03*
D23*
Y144366D02*
D03*
D24*
X326661Y129306D02*
D03*
Y142692D02*
D03*
D25*
X268035Y151110D02*
D03*
D26*
X254512Y155047D02*
D03*
Y156622D02*
D03*
X281559Y155047D02*
D03*
Y153472D02*
D03*
Y159772D02*
D03*
Y158197D02*
D03*
Y156622D02*
D03*
X254512Y161346D02*
D03*
Y159772D02*
D03*
Y158197D02*
D03*
Y151898D02*
D03*
Y147173D02*
D03*
Y145598D02*
D03*
X281559Y147173D02*
D03*
X254512Y153472D02*
D03*
X281559Y145598D02*
D03*
Y161346D02*
D03*
X254512Y142449D02*
D03*
Y140874D02*
D03*
Y148748D02*
D03*
X281559Y144024D02*
D03*
Y151898D02*
D03*
X254512Y144024D02*
D03*
Y150323D02*
D03*
X281559Y140874D02*
D03*
Y142449D02*
D03*
Y148748D02*
D03*
Y150323D02*
D03*
D27*
X230886Y165949D02*
D03*
X239547Y159256D02*
D03*
Y165949D02*
D03*
X230886Y159256D02*
D03*
D28*
X216629Y95837D02*
D03*
Y110042D02*
D03*
Y124248D02*
D03*
X216608Y138293D02*
D03*
X216629Y81793D02*
D03*
X209069Y78053D02*
D03*
X209048Y134553D02*
D03*
X209069Y120507D02*
D03*
Y106302D02*
D03*
Y92096D02*
D03*
D29*
X216629Y74313D02*
D03*
X216608Y130813D02*
D03*
X216629Y116767D02*
D03*
Y102562D02*
D03*
Y88356D02*
D03*
D30*
X197324Y130776D02*
D03*
X191419D02*
D03*
Y118539D02*
D03*
X197324D02*
D03*
X184199Y130776D02*
D03*
X178294D02*
D03*
Y118539D02*
D03*
X184199D02*
D03*
X151138Y106368D02*
D03*
X157044D02*
D03*
X178294Y106302D02*
D03*
X184199D02*
D03*
X164763Y106368D02*
D03*
X170669D02*
D03*
X137513D02*
D03*
X143419D02*
D03*
X197324Y81828D02*
D03*
X191419D02*
D03*
X178294D02*
D03*
X184199D02*
D03*
X191419Y106302D02*
D03*
X197324D02*
D03*
Y94065D02*
D03*
X191419D02*
D03*
X184199D02*
D03*
X178294D02*
D03*
X143419Y130842D02*
D03*
X137513D02*
D03*
X170669D02*
D03*
X164763D02*
D03*
X157044D02*
D03*
X151138D02*
D03*
X164763Y118605D02*
D03*
X170669D02*
D03*
X137513D02*
D03*
X143419D02*
D03*
X151138D02*
D03*
X157044D02*
D03*
X164763Y81894D02*
D03*
X170669D02*
D03*
X151138D02*
D03*
X157044D02*
D03*
X137513D02*
D03*
X143419D02*
D03*
X170669Y94131D02*
D03*
X164763D02*
D03*
X143419D02*
D03*
X137513D02*
D03*
X157044D02*
D03*
X151138D02*
D03*
D31*
X178110Y74394D02*
D03*
X183228D02*
D03*
X191610D02*
D03*
X196728D02*
D03*
X151204Y74461D02*
D03*
X156322D02*
D03*
X137704D02*
D03*
X142822D02*
D03*
X164704D02*
D03*
X169822D02*
D03*
D32*
X268823Y164634D02*
D03*
X262524D02*
D03*
X276697D02*
D03*
X275122D02*
D03*
X273547D02*
D03*
X271972D02*
D03*
X270398D02*
D03*
X267248D02*
D03*
X265673D02*
D03*
X260949D02*
D03*
X259374D02*
D03*
X257799D02*
D03*
X271972Y137587D02*
D03*
X276697D02*
D03*
X275122D02*
D03*
X273547D02*
D03*
X259374D02*
D03*
X267248D02*
D03*
X262524D02*
D03*
X257799D02*
D03*
X268823D02*
D03*
X270398D02*
D03*
X260949D02*
D03*
X265673D02*
D03*
X264098D02*
D03*
X278272D02*
D03*
X264098Y164634D02*
D03*
X278272D02*
D03*
D33*
X308398Y106976D02*
D03*
Y103039D02*
D03*
Y108945D02*
D03*
Y105008D02*
D03*
Y101071D02*
D03*
Y99102D02*
D03*
Y110913D02*
D03*
Y112882D02*
D03*
M02*
