G04*
G04 #@! TF.GenerationSoftware,Altium Limited,Altium Designer,25.8.1 (18)*
G04*
G04 Layer_Physical_Order=2*
G04 Layer_Color=16711680*
%FSLAX25Y25*%
%MOIN*%
G70*
G04*
G04 #@! TF.SameCoordinates,24556F7F-BEDA-4819-8607-D1A4BCCC43C2*
G04*
G04*
G04 #@! TF.FilePolarity,Positive*
G04*
G01*
G75*
%ADD10C,0.00984*%
%ADD12C,0.00787*%
%ADD58C,0.01575*%
%ADD60O,0.07284X0.04134*%
%ADD61O,0.08465X0.04134*%
%ADD62O,0.07874X0.05906*%
%ADD63R,0.07874X0.05906*%
%ADD64C,0.05906*%
%ADD65R,0.05906X0.05906*%
%ADD66C,0.02756*%
%ADD67R,0.05906X0.05906*%
%ADD68C,0.01575*%
G36*
X327271Y211134D02*
X328614Y210774D01*
X329898Y210242D01*
X331102Y209547D01*
X332205Y208700D01*
X333189Y207717D01*
X334035Y206614D01*
X334730Y205410D01*
X335017Y204718D01*
X334593Y204435D01*
X334512Y204515D01*
X334000Y204728D01*
Y203000D01*
Y201272D01*
X334512Y201485D01*
X335015Y201988D01*
X335173Y202367D01*
X335686Y202300D01*
X335804Y201404D01*
Y200709D01*
Y174431D01*
X335304Y174224D01*
X335013Y174515D01*
X334500Y174728D01*
Y173000D01*
Y171272D01*
X335013Y171485D01*
X335304Y171776D01*
X335804Y171569D01*
Y11811D01*
Y11116D01*
X335622Y9737D01*
X335262Y8394D01*
X334730Y7110D01*
X334035Y5906D01*
X333189Y4803D01*
X332205Y3819D01*
X331102Y2973D01*
X329898Y2278D01*
X328614Y1746D01*
X327271Y1386D01*
X325892Y1204D01*
X11116D01*
X9737Y1386D01*
X8394Y1746D01*
X7110Y2278D01*
X5906Y2973D01*
X4803Y3819D01*
X3819Y4803D01*
X2973Y5906D01*
X2278Y7110D01*
X1746Y8394D01*
X1386Y9737D01*
X1204Y11116D01*
Y11811D01*
Y200709D01*
Y201404D01*
X1386Y202782D01*
X1746Y204125D01*
X2278Y205410D01*
X2973Y206614D01*
X3819Y207717D01*
X4803Y208700D01*
X5906Y209547D01*
X7110Y210242D01*
X8394Y210774D01*
X9737Y211134D01*
X11116Y211315D01*
X325892D01*
X327271Y211134D01*
D02*
G37*
%LPC*%
G36*
X23500Y210728D02*
Y209500D01*
X24728D01*
X24515Y210013D01*
X24013Y210515D01*
X23500Y210728D01*
D02*
G37*
G36*
X22500D02*
X21987Y210515D01*
X21485Y210013D01*
X21272Y209500D01*
X22500D01*
Y210728D01*
D02*
G37*
G36*
X297000D02*
X296487Y210515D01*
X295985Y210013D01*
X295780Y209518D01*
X295334Y209367D01*
X295219Y209371D01*
X294927Y209663D01*
X294026Y210183D01*
X293020Y210453D01*
X291980D01*
X290974Y210183D01*
X290073Y209663D01*
X289781Y209371D01*
X289666Y209367D01*
X289220Y209518D01*
X289015Y210013D01*
X288512Y210515D01*
X288000Y210728D01*
Y209000D01*
Y207272D01*
X288109Y207318D01*
X288388Y207128D01*
X288547Y206958D01*
Y205980D01*
X288817Y204974D01*
X289337Y204073D01*
X290073Y203337D01*
X290974Y202817D01*
X291980Y202547D01*
X293020D01*
X294026Y202817D01*
X294927Y203337D01*
X295663Y204073D01*
X296183Y204974D01*
X296453Y205980D01*
Y206958D01*
X296612Y207128D01*
X296891Y207318D01*
X297000Y207272D01*
Y209000D01*
Y210728D01*
D02*
G37*
G36*
X287000D02*
X286488Y210515D01*
X285985Y210013D01*
X285780Y209518D01*
X285334Y209367D01*
X285219Y209371D01*
X284927Y209663D01*
X284026Y210183D01*
X283020Y210453D01*
X281980D01*
X280974Y210183D01*
X280073Y209663D01*
X279781Y209371D01*
X279666Y209367D01*
X279220Y209518D01*
X279015Y210013D01*
X278513Y210515D01*
X278000Y210728D01*
Y209000D01*
Y207272D01*
X278109Y207318D01*
X278388Y207128D01*
X278547Y206958D01*
Y205980D01*
X278817Y204974D01*
X279337Y204073D01*
X280073Y203337D01*
X280974Y202817D01*
X281980Y202547D01*
X283020D01*
X284026Y202817D01*
X284927Y203337D01*
X285663Y204073D01*
X286183Y204974D01*
X286453Y205980D01*
Y206958D01*
X286612Y207128D01*
X286891Y207318D01*
X287000Y207272D01*
Y209000D01*
Y210728D01*
D02*
G37*
G36*
X277000D02*
X276487Y210515D01*
X275985Y210013D01*
X275780Y209518D01*
X275334Y209367D01*
X275219Y209371D01*
X274927Y209663D01*
X274026Y210183D01*
X273020Y210453D01*
X271980D01*
X270974Y210183D01*
X270073Y209663D01*
X269781Y209371D01*
X269666Y209367D01*
X269220Y209518D01*
X269015Y210013D01*
X268513Y210515D01*
X268000Y210728D01*
Y209000D01*
Y207272D01*
X268109Y207318D01*
X268388Y207128D01*
X268547Y206958D01*
Y205980D01*
X268817Y204974D01*
X269337Y204073D01*
X270073Y203337D01*
X270974Y202817D01*
X271980Y202547D01*
X273020D01*
X274026Y202817D01*
X274927Y203337D01*
X275663Y204073D01*
X276183Y204974D01*
X276453Y205980D01*
Y206958D01*
X276612Y207128D01*
X276891Y207318D01*
X277000Y207272D01*
Y209000D01*
Y210728D01*
D02*
G37*
G36*
X267000D02*
X266488Y210515D01*
X265985Y210013D01*
X265780Y209518D01*
X265334Y209367D01*
X265219Y209371D01*
X264927Y209663D01*
X264026Y210183D01*
X263020Y210453D01*
X261980D01*
X260974Y210183D01*
X260073Y209663D01*
X259781Y209371D01*
X259666Y209367D01*
X259220Y209518D01*
X259015Y210013D01*
X258512Y210515D01*
X258000Y210728D01*
Y209000D01*
Y207272D01*
X258109Y207318D01*
X258388Y207128D01*
X258547Y206958D01*
Y205980D01*
X258817Y204974D01*
X259337Y204073D01*
X260073Y203337D01*
X260974Y202817D01*
X261980Y202547D01*
X263020D01*
X264026Y202817D01*
X264927Y203337D01*
X265663Y204073D01*
X266183Y204974D01*
X266453Y205980D01*
Y206958D01*
X266612Y207128D01*
X266891Y207318D01*
X267000Y207272D01*
Y209000D01*
Y210728D01*
D02*
G37*
G36*
X257000D02*
X256487Y210515D01*
X255985Y210013D01*
X255780Y209518D01*
X255334Y209367D01*
X255219Y209371D01*
X254927Y209663D01*
X254026Y210183D01*
X253020Y210453D01*
X251980D01*
X250974Y210183D01*
X250073Y209663D01*
X249781Y209371D01*
X249666Y209367D01*
X249220Y209518D01*
X249015Y210013D01*
X248513Y210515D01*
X248000Y210728D01*
Y209000D01*
Y207272D01*
X248109Y207318D01*
X248388Y207128D01*
X248547Y206958D01*
Y205980D01*
X248817Y204974D01*
X249337Y204073D01*
X250073Y203337D01*
X250974Y202817D01*
X251980Y202547D01*
X253020D01*
X254026Y202817D01*
X254927Y203337D01*
X255663Y204073D01*
X256183Y204974D01*
X256453Y205980D01*
Y206958D01*
X256612Y207128D01*
X256891Y207318D01*
X257000Y207272D01*
Y209000D01*
Y210728D01*
D02*
G37*
G36*
X247000D02*
X246487Y210515D01*
X245985Y210013D01*
X245780Y209518D01*
X245334Y209367D01*
X245219Y209371D01*
X244927Y209663D01*
X244026Y210183D01*
X243020Y210453D01*
X241980D01*
X240974Y210183D01*
X240073Y209663D01*
X239781Y209371D01*
X239666Y209367D01*
X239220Y209518D01*
X239015Y210013D01*
X238512Y210515D01*
X238000Y210728D01*
Y209000D01*
Y207272D01*
X238109Y207318D01*
X238388Y207128D01*
X238547Y206958D01*
Y205980D01*
X238817Y204974D01*
X239337Y204073D01*
X240073Y203337D01*
X240974Y202817D01*
X241980Y202547D01*
X243020D01*
X244026Y202817D01*
X244927Y203337D01*
X245663Y204073D01*
X246183Y204974D01*
X246453Y205980D01*
Y206958D01*
X246612Y207128D01*
X246891Y207318D01*
X247000Y207272D01*
Y209000D01*
Y210728D01*
D02*
G37*
G36*
X237000D02*
X236488Y210515D01*
X235985Y210013D01*
X235780Y209518D01*
X235334Y209367D01*
X235219Y209371D01*
X234927Y209663D01*
X234026Y210183D01*
X233020Y210453D01*
X231980D01*
X230974Y210183D01*
X230073Y209663D01*
X229337Y208927D01*
X228817Y208026D01*
X228547Y207020D01*
Y205980D01*
X228817Y204974D01*
X229337Y204073D01*
X230073Y203337D01*
X230974Y202817D01*
X231980Y202547D01*
X233020D01*
X234026Y202817D01*
X234927Y203337D01*
X235663Y204073D01*
X236183Y204974D01*
X236453Y205980D01*
Y206958D01*
X236612Y207128D01*
X236891Y207318D01*
X237000Y207272D01*
Y209000D01*
Y210728D01*
D02*
G37*
G36*
X24728Y208500D02*
X23500D01*
Y207272D01*
X24013Y207485D01*
X24515Y207987D01*
X24728Y208500D01*
D02*
G37*
G36*
X22500D02*
X21272D01*
X21485Y207987D01*
X21987Y207485D01*
X22500Y207272D01*
Y208500D01*
D02*
G37*
G36*
X210984Y210487D02*
X210500D01*
Y207000D01*
X214905D01*
X214835Y207532D01*
X214437Y208493D01*
X213803Y209319D01*
X212978Y209953D01*
X212016Y210351D01*
X210984Y210487D01*
D02*
G37*
G36*
X209500D02*
X209016D01*
X207984Y210351D01*
X207022Y209953D01*
X206197Y209319D01*
X205563Y208493D01*
X205165Y207532D01*
X205095Y207000D01*
X209500D01*
Y210487D01*
D02*
G37*
G36*
X333000Y204728D02*
X332488Y204515D01*
X331985Y204012D01*
X331772Y203500D01*
X333000D01*
Y204728D01*
D02*
G37*
G36*
X298000Y210728D02*
Y209000D01*
Y207272D01*
X298047Y207292D01*
X298547Y206958D01*
Y202547D01*
X306453D01*
Y210453D01*
X298575D01*
X298513Y210515D01*
X298000Y210728D01*
D02*
G37*
G36*
X321484Y210487D02*
X319516D01*
X318484Y210351D01*
X317522Y209953D01*
X316697Y209319D01*
X316063Y208493D01*
X315665Y207532D01*
X315529Y206500D01*
X315665Y205468D01*
X316063Y204507D01*
X316697Y203681D01*
X317522Y203047D01*
X318484Y202649D01*
X319516Y202513D01*
X321484D01*
X322516Y202649D01*
X323478Y203047D01*
X324303Y203681D01*
X324937Y204507D01*
X325335Y205468D01*
X325471Y206500D01*
X325335Y207532D01*
X324937Y208493D01*
X324303Y209319D01*
X323478Y209953D01*
X322516Y210351D01*
X321484Y210487D01*
D02*
G37*
G36*
X214905Y206000D02*
X210500D01*
Y202513D01*
X210984D01*
X212016Y202649D01*
X212978Y203047D01*
X213803Y203681D01*
X214437Y204507D01*
X214835Y205468D01*
X214905Y206000D01*
D02*
G37*
G36*
X209500D02*
X205095D01*
X205165Y205468D01*
X205563Y204507D01*
X206197Y203681D01*
X207022Y203047D01*
X207984Y202649D01*
X209016Y202513D01*
X209500D01*
Y206000D01*
D02*
G37*
G36*
X312000Y203228D02*
Y202000D01*
X313228D01*
X313015Y202513D01*
X312512Y203015D01*
X312000Y203228D01*
D02*
G37*
G36*
X311000D02*
X310488Y203015D01*
X309985Y202513D01*
X309772Y202000D01*
X311000D01*
Y203228D01*
D02*
G37*
G36*
X333000Y202500D02*
X331772D01*
X331985Y201988D01*
X332488Y201485D01*
X333000Y201272D01*
Y202500D01*
D02*
G37*
G36*
X313228Y201000D02*
X312000D01*
Y199772D01*
X312512Y199985D01*
X313015Y200487D01*
X313228Y201000D01*
D02*
G37*
G36*
X311000D02*
X309772D01*
X309985Y200487D01*
X310488Y199985D01*
X311000Y199772D01*
Y201000D01*
D02*
G37*
G36*
X214937Y200453D02*
X210500D01*
Y197000D01*
X214937D01*
Y200453D01*
D02*
G37*
G36*
X209500D02*
X205063D01*
Y197000D01*
X209500D01*
Y200453D01*
D02*
G37*
G36*
X325437D02*
X315563D01*
Y192547D01*
X325437D01*
Y200453D01*
D02*
G37*
G36*
X303020D02*
X301980D01*
X300974Y200183D01*
X300073Y199663D01*
X299337Y198927D01*
X298817Y198026D01*
X298547Y197020D01*
Y195980D01*
X298817Y194974D01*
X299337Y194073D01*
X300073Y193337D01*
X300974Y192817D01*
X301980Y192547D01*
X303020D01*
X304026Y192817D01*
X304927Y193337D01*
X305663Y194073D01*
X306183Y194974D01*
X306453Y195980D01*
Y197020D01*
X306183Y198026D01*
X305663Y198927D01*
X304927Y199663D01*
X304026Y200183D01*
X303020Y200453D01*
D02*
G37*
G36*
X293020D02*
X291980D01*
X290974Y200183D01*
X290073Y199663D01*
X289337Y198927D01*
X288817Y198026D01*
X288547Y197020D01*
Y195980D01*
X288817Y194974D01*
X289337Y194073D01*
X290073Y193337D01*
X290974Y192817D01*
X291980Y192547D01*
X293020D01*
X294026Y192817D01*
X294927Y193337D01*
X295663Y194073D01*
X296183Y194974D01*
X296453Y195980D01*
Y197020D01*
X296183Y198026D01*
X295663Y198927D01*
X294927Y199663D01*
X294026Y200183D01*
X293020Y200453D01*
D02*
G37*
G36*
X283020D02*
X281980D01*
X280974Y200183D01*
X280073Y199663D01*
X279337Y198927D01*
X278817Y198026D01*
X278547Y197020D01*
Y195980D01*
X278817Y194974D01*
X279337Y194073D01*
X280073Y193337D01*
X280974Y192817D01*
X281980Y192547D01*
X283020D01*
X284026Y192817D01*
X284927Y193337D01*
X285663Y194073D01*
X286183Y194974D01*
X286453Y195980D01*
Y197020D01*
X286183Y198026D01*
X285663Y198927D01*
X284927Y199663D01*
X284026Y200183D01*
X283020Y200453D01*
D02*
G37*
G36*
X273020D02*
X271980D01*
X270974Y200183D01*
X270073Y199663D01*
X269337Y198927D01*
X268817Y198026D01*
X268547Y197020D01*
Y195980D01*
X268817Y194974D01*
X269337Y194073D01*
X270073Y193337D01*
X270974Y192817D01*
X271980Y192547D01*
X273020D01*
X274026Y192817D01*
X274927Y193337D01*
X275663Y194073D01*
X276183Y194974D01*
X276453Y195980D01*
Y197020D01*
X276183Y198026D01*
X275663Y198927D01*
X274927Y199663D01*
X274026Y200183D01*
X273020Y200453D01*
D02*
G37*
G36*
X263020D02*
X261980D01*
X260974Y200183D01*
X260073Y199663D01*
X259337Y198927D01*
X258817Y198026D01*
X258547Y197020D01*
Y195980D01*
X258817Y194974D01*
X259337Y194073D01*
X260073Y193337D01*
X260974Y192817D01*
X261980Y192547D01*
X263020D01*
X264026Y192817D01*
X264927Y193337D01*
X265663Y194073D01*
X266183Y194974D01*
X266453Y195980D01*
Y197020D01*
X266183Y198026D01*
X265663Y198927D01*
X264927Y199663D01*
X264026Y200183D01*
X263020Y200453D01*
D02*
G37*
G36*
X253020D02*
X251980D01*
X250974Y200183D01*
X250073Y199663D01*
X249337Y198927D01*
X248817Y198026D01*
X248547Y197020D01*
Y195980D01*
X248817Y194974D01*
X249337Y194073D01*
X250073Y193337D01*
X250974Y192817D01*
X251980Y192547D01*
X253020D01*
X254026Y192817D01*
X254927Y193337D01*
X255663Y194073D01*
X256183Y194974D01*
X256453Y195980D01*
Y197020D01*
X256183Y198026D01*
X255663Y198927D01*
X254927Y199663D01*
X254026Y200183D01*
X253020Y200453D01*
D02*
G37*
G36*
X243020D02*
X241980D01*
X240974Y200183D01*
X240073Y199663D01*
X239337Y198927D01*
X238817Y198026D01*
X238547Y197020D01*
Y195980D01*
X238817Y194974D01*
X239337Y194073D01*
X240073Y193337D01*
X240974Y192817D01*
X241980Y192547D01*
X243020D01*
X244026Y192817D01*
X244927Y193337D01*
X245663Y194073D01*
X246183Y194974D01*
X246453Y195980D01*
Y197020D01*
X246183Y198026D01*
X245663Y198927D01*
X244927Y199663D01*
X244026Y200183D01*
X243020Y200453D01*
D02*
G37*
G36*
X233020D02*
X231980D01*
X230974Y200183D01*
X230073Y199663D01*
X229337Y198927D01*
X228817Y198026D01*
X228547Y197020D01*
Y195980D01*
X228817Y194974D01*
X229337Y194073D01*
X230073Y193337D01*
X230974Y192817D01*
X231980Y192547D01*
X233020D01*
X234026Y192817D01*
X234927Y193337D01*
X235663Y194073D01*
X236183Y194974D01*
X236453Y195980D01*
Y197020D01*
X236183Y198026D01*
X235663Y198927D01*
X234927Y199663D01*
X234026Y200183D01*
X233020Y200453D01*
D02*
G37*
G36*
X214937Y196000D02*
X210500D01*
Y192547D01*
X214937D01*
Y196000D01*
D02*
G37*
G36*
X209500D02*
X205063D01*
Y192547D01*
X209500D01*
Y196000D01*
D02*
G37*
G36*
X291500Y187228D02*
Y186000D01*
X292728D01*
X292515Y186512D01*
X292013Y187015D01*
X291500Y187228D01*
D02*
G37*
G36*
X290500D02*
X289987Y187015D01*
X289485Y186512D01*
X289272Y186000D01*
X290500D01*
Y187228D01*
D02*
G37*
G36*
X264500Y186228D02*
Y185000D01*
X265728D01*
X265515Y185512D01*
X265013Y186015D01*
X264500Y186228D01*
D02*
G37*
G36*
X263500D02*
X262987Y186015D01*
X262485Y185512D01*
X262272Y185000D01*
X263500D01*
Y186228D01*
D02*
G37*
G36*
X292728Y185000D02*
X291500D01*
Y183772D01*
X292013Y183985D01*
X292515Y184487D01*
X292728Y185000D01*
D02*
G37*
G36*
X290500D02*
X289272D01*
X289485Y184487D01*
X289987Y183985D01*
X290500Y183772D01*
Y185000D01*
D02*
G37*
G36*
X265728Y184000D02*
X264500D01*
Y182772D01*
X265013Y182985D01*
X265515Y183487D01*
X265728Y184000D01*
D02*
G37*
G36*
X263500D02*
X262272D01*
X262485Y183487D01*
X262987Y182985D01*
X263500Y182772D01*
Y184000D01*
D02*
G37*
G36*
X250000Y181728D02*
Y180500D01*
X251228D01*
X251015Y181012D01*
X250513Y181515D01*
X250000Y181728D01*
D02*
G37*
G36*
X249000D02*
X248487Y181515D01*
X247985Y181012D01*
X247772Y180500D01*
X249000D01*
Y181728D01*
D02*
G37*
G36*
X251228Y179500D02*
X250000D01*
Y178272D01*
X250513Y178485D01*
X251015Y178988D01*
X251228Y179500D01*
D02*
G37*
G36*
X249000D02*
X247772D01*
X247985Y178988D01*
X248487Y178485D01*
X249000Y178272D01*
Y179500D01*
D02*
G37*
G36*
X333500Y174728D02*
X332987Y174515D01*
X332485Y174012D01*
X332272Y173500D01*
X333500D01*
Y174728D01*
D02*
G37*
G36*
Y172500D02*
X332272D01*
X332485Y171987D01*
X332987Y171485D01*
X333500Y171272D01*
Y172500D01*
D02*
G37*
G36*
X286500Y170728D02*
Y169500D01*
X287728D01*
X287515Y170012D01*
X287013Y170515D01*
X286500Y170728D01*
D02*
G37*
G36*
X285500D02*
X284987Y170515D01*
X284485Y170012D01*
X284272Y169500D01*
X285500D01*
Y170728D01*
D02*
G37*
G36*
X287728Y168500D02*
X286500D01*
Y167272D01*
X287013Y167485D01*
X287515Y167988D01*
X287728Y168500D01*
D02*
G37*
G36*
X285500D02*
X284272D01*
X284485Y167988D01*
X284987Y167485D01*
X285500Y167272D01*
Y168500D01*
D02*
G37*
G36*
X322500Y167728D02*
Y166500D01*
X323728D01*
X323515Y167013D01*
X323012Y167515D01*
X322500Y167728D01*
D02*
G37*
G36*
X321500D02*
X320988Y167515D01*
X320485Y167013D01*
X320272Y166500D01*
X321500D01*
Y167728D01*
D02*
G37*
G36*
X281500Y166228D02*
Y165000D01*
X282728D01*
X282515Y165513D01*
X282013Y166015D01*
X281500Y166228D01*
D02*
G37*
G36*
X280500D02*
X279988Y166015D01*
X279485Y165513D01*
X279272Y165000D01*
X280500D01*
Y166228D01*
D02*
G37*
G36*
X323728Y165500D02*
X322500D01*
Y164272D01*
X323012Y164485D01*
X323515Y164988D01*
X323728Y165500D01*
D02*
G37*
G36*
X321500D02*
X320272D01*
X320485Y164988D01*
X320988Y164485D01*
X321500Y164272D01*
Y165500D01*
D02*
G37*
G36*
X282728Y164000D02*
X281500D01*
Y162772D01*
X282013Y162985D01*
X282515Y163488D01*
X282728Y164000D01*
D02*
G37*
G36*
X280500D02*
X279272D01*
X279485Y163488D01*
X279988Y162985D01*
X280500Y162772D01*
Y164000D01*
D02*
G37*
G36*
X237000Y163728D02*
Y162500D01*
X238228D01*
X238015Y163013D01*
X237512Y163515D01*
X237000Y163728D01*
D02*
G37*
G36*
X236000D02*
X235488Y163515D01*
X234985Y163013D01*
X234772Y162500D01*
X236000D01*
Y163728D01*
D02*
G37*
G36*
X238228Y161500D02*
X237000D01*
Y160272D01*
X237512Y160485D01*
X238015Y160987D01*
X238228Y161500D01*
D02*
G37*
G36*
X236000D02*
X234772D01*
X234985Y160987D01*
X235488Y160485D01*
X236000Y160272D01*
Y161500D01*
D02*
G37*
G36*
X275500Y161228D02*
Y160000D01*
X276728D01*
X276515Y160512D01*
X276012Y161015D01*
X275500Y161228D01*
D02*
G37*
G36*
X274500D02*
X273988Y161015D01*
X273485Y160512D01*
X273272Y160000D01*
X274500D01*
Y161228D01*
D02*
G37*
G36*
X276728Y159000D02*
X275500D01*
Y157772D01*
X276012Y157985D01*
X276515Y158487D01*
X276728Y159000D01*
D02*
G37*
G36*
X274500D02*
X273272D01*
X273485Y158487D01*
X273988Y157985D01*
X274500Y157772D01*
Y159000D01*
D02*
G37*
G36*
X258500Y156728D02*
Y155500D01*
X259728D01*
X259515Y156012D01*
X259013Y156515D01*
X258500Y156728D01*
D02*
G37*
G36*
X257500D02*
X256988Y156515D01*
X256485Y156012D01*
X256272Y155500D01*
X257500D01*
Y156728D01*
D02*
G37*
G36*
X278627Y155716D02*
X277916D01*
X277259Y155444D01*
X276925Y155110D01*
X276563Y155472D01*
X276050Y155684D01*
Y153956D01*
Y152229D01*
X276351Y152353D01*
X276851Y152076D01*
Y149855D01*
X276756Y149760D01*
X276484Y149104D01*
Y148392D01*
X276756Y147736D01*
X276851Y147641D01*
Y141981D01*
X276756Y141886D01*
X276484Y141230D01*
Y140518D01*
X276756Y139862D01*
X277259Y139359D01*
X277916Y139087D01*
X278627D01*
X279284Y139359D01*
X279787Y139862D01*
X280059Y140518D01*
Y141230D01*
X279787Y141886D01*
X279693Y141981D01*
Y147641D01*
X279787Y147736D01*
X280059Y148392D01*
Y149104D01*
X279787Y149760D01*
X279693Y149855D01*
Y152822D01*
X279787Y152916D01*
X280059Y153573D01*
Y154284D01*
X279787Y154941D01*
X279284Y155444D01*
X278627Y155716D01*
D02*
G37*
G36*
X275050Y155684D02*
X274538Y155472D01*
X274035Y154969D01*
X273823Y154456D01*
X275050D01*
Y155684D01*
D02*
G37*
G36*
X259728Y154500D02*
X258500D01*
Y153272D01*
X259013Y153485D01*
X259515Y153988D01*
X259728Y154500D01*
D02*
G37*
G36*
X257500D02*
X256272D01*
X256485Y153988D01*
X256988Y153485D01*
X257500Y153272D01*
Y154500D01*
D02*
G37*
G36*
X275050Y153456D02*
X273823D01*
X274035Y152944D01*
X274538Y152441D01*
X275050Y152229D01*
Y153456D01*
D02*
G37*
G36*
X268535Y152838D02*
Y151610D01*
X269763D01*
X269551Y152123D01*
X269048Y152626D01*
X268535Y152838D01*
D02*
G37*
G36*
X267535D02*
X267023Y152626D01*
X266520Y152123D01*
X266308Y151610D01*
X267535D01*
Y152838D01*
D02*
G37*
G36*
X294970Y151712D02*
Y150484D01*
X296198D01*
X295986Y150997D01*
X295483Y151499D01*
X294970Y151712D01*
D02*
G37*
G36*
X293970D02*
X293458Y151499D01*
X292955Y150997D01*
X292743Y150484D01*
X293970D01*
Y151712D01*
D02*
G37*
G36*
X269763Y150610D02*
X268535D01*
Y149383D01*
X269048Y149595D01*
X269551Y150098D01*
X269763Y150610D01*
D02*
G37*
G36*
X267535D02*
X266308D01*
X266520Y150098D01*
X267023Y149595D01*
X267535Y149383D01*
Y150610D01*
D02*
G37*
G36*
X296198Y149484D02*
X294970D01*
Y148257D01*
X295483Y148469D01*
X295986Y148972D01*
X296198Y149484D01*
D02*
G37*
G36*
X293970D02*
X292743D01*
X292955Y148972D01*
X293458Y148469D01*
X293970Y148257D01*
Y149484D01*
D02*
G37*
G36*
X235500Y148728D02*
Y147500D01*
X236728D01*
X236515Y148012D01*
X236013Y148515D01*
X235500Y148728D01*
D02*
G37*
G36*
X234500D02*
X233987Y148515D01*
X233485Y148012D01*
X233272Y147500D01*
X234500D01*
Y148728D01*
D02*
G37*
G36*
X236728Y146500D02*
X235500D01*
Y145272D01*
X236013Y145485D01*
X236515Y145987D01*
X236728Y146500D01*
D02*
G37*
G36*
X234500D02*
X233272D01*
X233485Y145987D01*
X233987Y145485D01*
X234500Y145272D01*
Y146500D01*
D02*
G37*
G36*
X332073Y142026D02*
X331486D01*
X331025Y141935D01*
X330482Y141710D01*
X330092Y141449D01*
X329676Y141033D01*
X329415Y140643D01*
X329190Y140100D01*
X329099Y139639D01*
Y139052D01*
X329190Y138591D01*
X329415Y138048D01*
X329676Y137658D01*
X330092Y137242D01*
X330482Y136981D01*
X331025Y136757D01*
X331486Y136665D01*
X332073D01*
X332534Y136757D01*
X333077Y136981D01*
X333467Y137242D01*
X333883Y137658D01*
X334144Y138048D01*
X334368Y138591D01*
X334460Y139052D01*
Y139639D01*
X334368Y140100D01*
X334144Y140643D01*
X333883Y141033D01*
X333467Y141449D01*
X333077Y141710D01*
X332534Y141935D01*
X332226Y141996D01*
X332073Y142026D01*
D02*
G37*
G36*
X250000Y137728D02*
Y136500D01*
X251228D01*
X251015Y137013D01*
X250513Y137515D01*
X250000Y137728D01*
D02*
G37*
G36*
X249000D02*
X248487Y137515D01*
X247985Y137013D01*
X247772Y136500D01*
X249000D01*
Y137728D01*
D02*
G37*
G36*
X289500Y135228D02*
X288987Y135015D01*
X288535Y134563D01*
X288250Y134535D01*
X287965Y134563D01*
X287512Y135015D01*
X287000Y135228D01*
Y133500D01*
Y131772D01*
X287512Y131985D01*
X287965Y132437D01*
X288250Y132465D01*
X288535Y132437D01*
X288987Y131985D01*
X289500Y131772D01*
Y133500D01*
Y135228D01*
D02*
G37*
G36*
X251228Y135500D02*
X250000D01*
Y134272D01*
X250513Y134485D01*
X251015Y134987D01*
X251228Y135500D01*
D02*
G37*
G36*
X249000D02*
X247772D01*
X247985Y134987D01*
X248487Y134485D01*
X249000Y134272D01*
Y135500D01*
D02*
G37*
G36*
X290500Y135228D02*
Y134000D01*
X291728D01*
X291515Y134512D01*
X291013Y135015D01*
X290500Y135228D01*
D02*
G37*
G36*
X286000D02*
X285488Y135015D01*
X284985Y134512D01*
X284772Y134000D01*
X286000D01*
Y135228D01*
D02*
G37*
G36*
X243453Y141453D02*
X235547D01*
Y133547D01*
X243453D01*
Y141453D01*
D02*
G37*
G36*
X291728Y133000D02*
X290500D01*
Y131772D01*
X291013Y131985D01*
X291515Y132487D01*
X291728Y133000D01*
D02*
G37*
G36*
X286000D02*
X284772D01*
X284985Y132487D01*
X285488Y131985D01*
X286000Y131772D01*
Y133000D01*
D02*
G37*
G36*
X332073Y135334D02*
X331486D01*
X331025Y135242D01*
X330482Y135018D01*
X330092Y134757D01*
X329676Y134341D01*
X329415Y133951D01*
X329190Y133408D01*
X329099Y132947D01*
Y132360D01*
X329190Y131899D01*
X329415Y131356D01*
X329676Y130966D01*
X330092Y130550D01*
X330482Y130289D01*
X331025Y130064D01*
X331486Y129973D01*
X332073D01*
X332534Y130064D01*
X333077Y130289D01*
X333467Y130550D01*
X333883Y130966D01*
X334144Y131356D01*
X334368Y131899D01*
X334460Y132360D01*
Y132947D01*
X334368Y133408D01*
X334144Y133951D01*
X333883Y134341D01*
X333467Y134757D01*
X333077Y135018D01*
X332534Y135242D01*
X332226Y135304D01*
X332073Y135334D01*
D02*
G37*
G36*
X240020Y131453D02*
X240000D01*
Y128000D01*
X243453D01*
Y128020D01*
X243183Y129026D01*
X242663Y129927D01*
X241927Y130663D01*
X241026Y131183D01*
X240020Y131453D01*
D02*
G37*
G36*
X239000D02*
X238980D01*
X237974Y131183D01*
X237073Y130663D01*
X236337Y129927D01*
X235817Y129026D01*
X235547Y128020D01*
Y128000D01*
X239000D01*
Y131453D01*
D02*
G37*
G36*
X264189Y125834D02*
Y124606D01*
X265417D01*
X265204Y125119D01*
X264702Y125622D01*
X264189Y125834D01*
D02*
G37*
G36*
X263189D02*
X262677Y125622D01*
X262174Y125119D01*
X261961Y124606D01*
X263189D01*
Y125834D01*
D02*
G37*
G36*
X243453Y127000D02*
X240000D01*
Y123547D01*
X240020D01*
X241026Y123817D01*
X241927Y124337D01*
X242663Y125073D01*
X243183Y125974D01*
X243453Y126980D01*
Y127000D01*
D02*
G37*
G36*
X239000D02*
X235547D01*
Y126980D01*
X235817Y125974D01*
X236337Y125073D01*
X237073Y124337D01*
X237974Y123817D01*
X238980Y123547D01*
X239000D01*
Y127000D01*
D02*
G37*
G36*
X328575Y126093D02*
X327500D01*
Y123500D01*
X331602D01*
X331563Y123801D01*
X331254Y124547D01*
X330762Y125187D01*
X330121Y125679D01*
X329375Y125988D01*
X328575Y126093D01*
D02*
G37*
G36*
X312827D02*
X311161D01*
Y123500D01*
X315854D01*
X315815Y123801D01*
X315506Y124547D01*
X315014Y125187D01*
X314373Y125679D01*
X313627Y125988D01*
X312827Y126093D01*
D02*
G37*
G36*
X326500D02*
X325425D01*
X324625Y125988D01*
X323879Y125679D01*
X323238Y125187D01*
X322746Y124547D01*
X322437Y123801D01*
X322398Y123500D01*
X326500D01*
Y126093D01*
D02*
G37*
G36*
X310161D02*
X308496D01*
X307695Y125988D01*
X306949Y125679D01*
X306309Y125187D01*
X305817Y124547D01*
X305508Y123801D01*
X305469Y123500D01*
X310161D01*
Y126093D01*
D02*
G37*
G36*
X265417Y123606D02*
X264189D01*
Y122379D01*
X264702Y122591D01*
X265204Y123094D01*
X265417Y123606D01*
D02*
G37*
G36*
X263189D02*
X261961D01*
X262174Y123094D01*
X262677Y122591D01*
X263189Y122379D01*
Y123606D01*
D02*
G37*
G36*
X285000Y122228D02*
Y121000D01*
X286228D01*
X286015Y121512D01*
X285512Y122015D01*
X285000Y122228D01*
D02*
G37*
G36*
X284000D02*
X283488Y122015D01*
X282985Y121512D01*
X282772Y121000D01*
X284000D01*
Y122228D01*
D02*
G37*
G36*
X331602Y122500D02*
X327500D01*
Y119907D01*
X328575D01*
X329375Y120012D01*
X330121Y120321D01*
X330762Y120813D01*
X331254Y121453D01*
X331563Y122199D01*
X331602Y122500D01*
D02*
G37*
G36*
X326500D02*
X322398D01*
X322437Y122199D01*
X322746Y121453D01*
X323238Y120813D01*
X323879Y120321D01*
X324625Y120012D01*
X325425Y119907D01*
X326500D01*
Y122500D01*
D02*
G37*
G36*
X310161D02*
X305469D01*
X305508Y122199D01*
X305817Y121453D01*
X306309Y120813D01*
X306949Y120321D01*
X307695Y120012D01*
X308496Y119907D01*
X310161D01*
Y122500D01*
D02*
G37*
G36*
X286228Y120000D02*
X285000D01*
Y118772D01*
X285512Y118985D01*
X286015Y119488D01*
X286228Y120000D01*
D02*
G37*
G36*
X284000D02*
X282772D01*
X282985Y119488D01*
X283488Y118985D01*
X284000Y118772D01*
Y120000D01*
D02*
G37*
G36*
X297000Y116228D02*
Y115000D01*
X298228D01*
X298015Y115513D01*
X297513Y116015D01*
X297000Y116228D01*
D02*
G37*
G36*
X296000D02*
X295487Y116015D01*
X294985Y115513D01*
X294772Y115000D01*
X296000D01*
Y116228D01*
D02*
G37*
G36*
X315854Y122500D02*
X311161D01*
Y119907D01*
X311233D01*
X311333Y119407D01*
X311283Y119386D01*
X310614Y118717D01*
X310252Y117843D01*
Y116897D01*
X310614Y116023D01*
X311283Y115354D01*
X312157Y114992D01*
X313103D01*
X313977Y115354D01*
X314646Y116023D01*
X315008Y116897D01*
Y117843D01*
X314646Y118717D01*
X313977Y119386D01*
X313670Y119513D01*
X313644Y119813D01*
X313700Y120042D01*
X314373Y120321D01*
X315014Y120813D01*
X315506Y121453D01*
X315815Y122199D01*
X315854Y122500D01*
D02*
G37*
G36*
X289500Y115228D02*
Y114000D01*
X290728D01*
X290515Y114513D01*
X290013Y115015D01*
X289500Y115228D01*
D02*
G37*
G36*
X288500D02*
X287987Y115015D01*
X287485Y114513D01*
X287272Y114000D01*
X288500D01*
Y115228D01*
D02*
G37*
G36*
X240020Y121453D02*
X238980D01*
X237974Y121183D01*
X237073Y120663D01*
X236337Y119927D01*
X235817Y119026D01*
X235547Y118020D01*
Y116980D01*
X235817Y115974D01*
X236337Y115073D01*
X237073Y114337D01*
X237974Y113817D01*
X238980Y113547D01*
X240020D01*
X241026Y113817D01*
X241927Y114337D01*
X242663Y115073D01*
X243183Y115974D01*
X243453Y116980D01*
Y118020D01*
X243183Y119026D01*
X242663Y119927D01*
X241927Y120663D01*
X241026Y121183D01*
X240020Y121453D01*
D02*
G37*
G36*
X298228Y114000D02*
X297000D01*
Y112772D01*
X297513Y112985D01*
X298015Y113488D01*
X298228Y114000D01*
D02*
G37*
G36*
X296000D02*
X294772D01*
X294985Y113488D01*
X295487Y112985D01*
X296000Y112772D01*
Y114000D01*
D02*
G37*
G36*
X290728Y113000D02*
X289500D01*
Y111772D01*
X290013Y111985D01*
X290515Y112487D01*
X290728Y113000D01*
D02*
G37*
G36*
X288500D02*
X287272D01*
X287485Y112487D01*
X287987Y111985D01*
X288500Y111772D01*
Y113000D01*
D02*
G37*
G36*
X312856Y110953D02*
X312144D01*
X311488Y110681D01*
X310985Y110178D01*
X310713Y109521D01*
Y108810D01*
X310979Y108168D01*
Y105998D01*
X310713Y105356D01*
Y104645D01*
X310985Y103988D01*
X311488Y103485D01*
X312144Y103213D01*
X312856D01*
X313512Y103485D01*
X314015Y103988D01*
X314287Y104645D01*
Y105356D01*
X314021Y105998D01*
Y108168D01*
X314287Y108810D01*
Y109521D01*
X314015Y110178D01*
X313512Y110681D01*
X312856Y110953D01*
D02*
G37*
G36*
X296935Y100671D02*
Y99444D01*
X298162D01*
X297950Y99956D01*
X297447Y100459D01*
X296935Y100671D01*
D02*
G37*
G36*
X295935D02*
X295422Y100459D01*
X294919Y99956D01*
X294707Y99444D01*
X295935D01*
Y100671D01*
D02*
G37*
G36*
X298162Y98444D02*
X296935D01*
Y97216D01*
X297447Y97428D01*
X297950Y97931D01*
X298162Y98444D01*
D02*
G37*
G36*
X295935D02*
X294707D01*
X294919Y97931D01*
X295422Y97428D01*
X295935Y97216D01*
Y98444D01*
D02*
G37*
G36*
X328575Y92078D02*
X327500D01*
Y89484D01*
X331602D01*
X331563Y89785D01*
X331254Y90531D01*
X330762Y91172D01*
X330121Y91663D01*
X329375Y91972D01*
X328575Y92078D01*
D02*
G37*
G36*
X313103Y96992D02*
X312157D01*
X311283Y96630D01*
X310614Y95961D01*
X310252Y95087D01*
Y94141D01*
X310614Y93267D01*
X311283Y92598D01*
X311333Y92578D01*
X311233Y92078D01*
X311161D01*
Y89484D01*
X315854D01*
X315815Y89785D01*
X315506Y90531D01*
X315014Y91172D01*
X314373Y91663D01*
X313700Y91942D01*
X313644Y92172D01*
X313670Y92471D01*
X313977Y92598D01*
X314646Y93267D01*
X315008Y94141D01*
Y95087D01*
X314646Y95961D01*
X313977Y96630D01*
X313103Y96992D01*
D02*
G37*
G36*
X326500Y92078D02*
X325425D01*
X324625Y91972D01*
X323879Y91663D01*
X323238Y91172D01*
X322746Y90531D01*
X322437Y89785D01*
X322398Y89484D01*
X326500D01*
Y92078D01*
D02*
G37*
G36*
X310161D02*
X308496D01*
X307695Y91972D01*
X306949Y91663D01*
X306309Y91172D01*
X305817Y90531D01*
X305508Y89785D01*
X305469Y89484D01*
X310161D01*
Y92078D01*
D02*
G37*
G36*
X331602Y88484D02*
X327500D01*
Y85891D01*
X328575D01*
X329375Y85996D01*
X330121Y86305D01*
X330762Y86797D01*
X331254Y87438D01*
X331563Y88184D01*
X331602Y88484D01*
D02*
G37*
G36*
X326500D02*
X322398D01*
X322437Y88184D01*
X322746Y87438D01*
X323238Y86797D01*
X323879Y86305D01*
X324625Y85996D01*
X325425Y85891D01*
X326500D01*
Y88484D01*
D02*
G37*
G36*
X315854D02*
X311161D01*
Y85891D01*
X312827D01*
X313627Y85996D01*
X314373Y86305D01*
X315014Y86797D01*
X315506Y87438D01*
X315815Y88184D01*
X315854Y88484D01*
D02*
G37*
G36*
X310161D02*
X305469D01*
X305508Y88184D01*
X305817Y87438D01*
X306309Y86797D01*
X306949Y86305D01*
X307695Y85996D01*
X308496Y85891D01*
X310161D01*
Y88484D01*
D02*
G37*
G36*
X279500Y84228D02*
Y83000D01*
X280728D01*
X280515Y83513D01*
X280012Y84015D01*
X279500Y84228D01*
D02*
G37*
G36*
X278500D02*
X277988Y84015D01*
X277485Y83513D01*
X277272Y83000D01*
X278500D01*
Y84228D01*
D02*
G37*
G36*
X280728Y82000D02*
X279500D01*
Y80772D01*
X280012Y80985D01*
X280515Y81488D01*
X280728Y82000D01*
D02*
G37*
G36*
X278500D02*
X277272D01*
X277485Y81488D01*
X277988Y80985D01*
X278500Y80772D01*
Y82000D01*
D02*
G37*
G36*
X320520Y81453D02*
X319480D01*
X318474Y81183D01*
X317573Y80663D01*
X316837Y79927D01*
X316317Y79026D01*
X316047Y78020D01*
Y76980D01*
X316317Y75974D01*
X316837Y75073D01*
X317573Y74337D01*
X318474Y73817D01*
X319480Y73547D01*
X320520D01*
X321526Y73817D01*
X322427Y74337D01*
X323163Y75073D01*
X323683Y75974D01*
X323953Y76980D01*
Y78020D01*
X323683Y79026D01*
X323163Y79927D01*
X322427Y80663D01*
X321526Y81183D01*
X320520Y81453D01*
D02*
G37*
G36*
X254500Y73728D02*
Y72500D01*
X255728D01*
X255515Y73013D01*
X255012Y73515D01*
X254500Y73728D01*
D02*
G37*
G36*
X253500D02*
X252988Y73515D01*
X252485Y73013D01*
X252272Y72500D01*
X253500D01*
Y73728D01*
D02*
G37*
G36*
X18750Y141016D02*
X17231Y140866D01*
X15770Y140423D01*
X14424Y139703D01*
X13243Y138735D01*
X12275Y137555D01*
X11555Y136208D01*
X11112Y134748D01*
X10962Y133228D01*
X10971D01*
Y79291D01*
X10962D01*
X11112Y77772D01*
X11555Y76311D01*
X12275Y74965D01*
X13243Y73785D01*
X14424Y72816D01*
X15770Y72097D01*
X17231Y71653D01*
X18750Y71504D01*
X20269Y71653D01*
X21730Y72097D01*
X23076Y72816D01*
X24257Y73785D01*
X25225Y74965D01*
X25945Y76311D01*
X26388Y77772D01*
X26537Y79291D01*
X26529D01*
Y133228D01*
X26537D01*
X26388Y134748D01*
X25945Y136208D01*
X25225Y137555D01*
X24257Y138735D01*
X23076Y139703D01*
X21730Y140423D01*
X20269Y140866D01*
X18750Y141016D01*
D02*
G37*
G36*
X255728Y71500D02*
X254500D01*
Y70272D01*
X255012Y70485D01*
X255515Y70987D01*
X255728Y71500D01*
D02*
G37*
G36*
X253500D02*
X252272D01*
X252485Y70987D01*
X252988Y70485D01*
X253500Y70272D01*
Y71500D01*
D02*
G37*
G36*
X320520Y71453D02*
X319480D01*
X318474Y71183D01*
X317573Y70663D01*
X316837Y69927D01*
X316317Y69026D01*
X316047Y68020D01*
Y66980D01*
X316317Y65974D01*
X316837Y65073D01*
X317573Y64337D01*
X318474Y63817D01*
X319480Y63547D01*
X320520D01*
X321526Y63817D01*
X322427Y64337D01*
X323163Y65073D01*
X323683Y65974D01*
X323953Y66980D01*
Y68020D01*
X323683Y69026D01*
X323163Y69927D01*
X322427Y70663D01*
X321526Y71183D01*
X320520Y71453D01*
D02*
G37*
G36*
X289849Y60107D02*
X235987D01*
X235811Y60072D01*
X235631D01*
X235466Y60003D01*
X235290Y59968D01*
X235140Y59868D01*
X234975Y59799D01*
X234848Y59673D01*
X234698Y59573D01*
X234599Y59424D01*
X234472Y59297D01*
X234403Y59131D01*
X234303Y58982D01*
X234268Y58806D01*
X234200Y58640D01*
Y58460D01*
X234165Y58284D01*
X234200Y58108D01*
Y57929D01*
X234268Y57763D01*
X234303Y57587D01*
X234403Y57437D01*
X234472Y57272D01*
X234599Y57145D01*
X234698Y56996D01*
X234848Y56896D01*
X234975Y56769D01*
X235140Y56700D01*
X235290Y56600D01*
X235466Y56565D01*
X235631Y56497D01*
X235811D01*
X235987Y56462D01*
X289849D01*
X290025Y56497D01*
X290204D01*
X290370Y56565D01*
X290546Y56600D01*
X290696Y56700D01*
X290861Y56769D01*
X290988Y56896D01*
X291138Y56996D01*
X291237Y57145D01*
X291364Y57272D01*
X291433Y57437D01*
X291532Y57587D01*
X291568Y57763D01*
X291636Y57929D01*
Y58108D01*
X291671Y58284D01*
X291636Y58460D01*
Y58640D01*
X291568Y58806D01*
X291532Y58982D01*
X291433Y59131D01*
X291364Y59297D01*
X291237Y59424D01*
X291138Y59573D01*
X290988Y59673D01*
X290861Y59799D01*
X290696Y59868D01*
X290546Y59968D01*
X290370Y60003D01*
X290204Y60072D01*
X290025D01*
X289849Y60107D01*
D02*
G37*
G36*
X320520Y61453D02*
X319480D01*
X318474Y61183D01*
X317573Y60663D01*
X316837Y59927D01*
X316317Y59026D01*
X316047Y58020D01*
Y56980D01*
X316317Y55974D01*
X316837Y55073D01*
X317573Y54337D01*
X318474Y53817D01*
X319480Y53547D01*
X320520D01*
X321526Y53817D01*
X322427Y54337D01*
X323163Y55073D01*
X323683Y55974D01*
X323953Y56980D01*
Y58020D01*
X323683Y59026D01*
X323163Y59927D01*
X322427Y60663D01*
X321526Y61183D01*
X320520Y61453D01*
D02*
G37*
G36*
X289849Y47870D02*
X235987D01*
X235811Y47835D01*
X235631D01*
X235466Y47766D01*
X235290Y47731D01*
X235140Y47631D01*
X234975Y47563D01*
X234848Y47436D01*
X234698Y47336D01*
X234599Y47187D01*
X234472Y47060D01*
X234403Y46894D01*
X234303Y46745D01*
X234268Y46569D01*
X234200Y46403D01*
Y46223D01*
X234165Y46047D01*
X234200Y45871D01*
Y45692D01*
X234268Y45526D01*
X234303Y45350D01*
X234403Y45200D01*
X234472Y45035D01*
X234599Y44908D01*
X234698Y44759D01*
X234848Y44659D01*
X234975Y44532D01*
X235140Y44463D01*
X235290Y44363D01*
X235466Y44328D01*
X235631Y44260D01*
X235811D01*
X235987Y44225D01*
X289849D01*
X290025Y44260D01*
X290204D01*
X290370Y44328D01*
X290546Y44363D01*
X290696Y44463D01*
X290861Y44532D01*
X290988Y44659D01*
X291138Y44759D01*
X291237Y44908D01*
X291364Y45035D01*
X291433Y45200D01*
X291532Y45350D01*
X291568Y45526D01*
X291636Y45692D01*
Y45871D01*
X291671Y46047D01*
X291636Y46223D01*
Y46403D01*
X291568Y46569D01*
X291532Y46745D01*
X291433Y46894D01*
X291364Y47060D01*
X291237Y47187D01*
X291138Y47336D01*
X290988Y47436D01*
X290861Y47563D01*
X290696Y47631D01*
X290546Y47731D01*
X290370Y47766D01*
X290204Y47835D01*
X290025D01*
X289849Y47870D01*
D02*
G37*
G36*
X323953Y51453D02*
X316047D01*
Y43547D01*
X323953D01*
Y51453D01*
D02*
G37*
G36*
X289849Y35633D02*
X235987D01*
X235811Y35598D01*
X235631D01*
X235466Y35529D01*
X235290Y35494D01*
X235140Y35394D01*
X234975Y35326D01*
X234848Y35199D01*
X234698Y35099D01*
X234599Y34950D01*
X234472Y34823D01*
X234403Y34657D01*
X234303Y34508D01*
X234268Y34332D01*
X234200Y34166D01*
Y33986D01*
X234165Y33810D01*
X234200Y33634D01*
Y33455D01*
X234268Y33289D01*
X234303Y33113D01*
X234403Y32963D01*
X234472Y32798D01*
X234599Y32671D01*
X234698Y32522D01*
X234848Y32422D01*
X234975Y32295D01*
X235140Y32226D01*
X235290Y32127D01*
X235466Y32092D01*
X235631Y32023D01*
X235811D01*
X235987Y31988D01*
X289849D01*
X290025Y32023D01*
X290204D01*
X290370Y32092D01*
X290546Y32127D01*
X290696Y32226D01*
X290861Y32295D01*
X290988Y32422D01*
X291138Y32522D01*
X291237Y32671D01*
X291364Y32798D01*
X291433Y32963D01*
X291532Y33113D01*
X291568Y33289D01*
X291636Y33455D01*
Y33634D01*
X291671Y33810D01*
X291636Y33986D01*
Y34166D01*
X291568Y34332D01*
X291532Y34508D01*
X291433Y34657D01*
X291364Y34823D01*
X291237Y34950D01*
X291138Y35099D01*
X290988Y35199D01*
X290861Y35326D01*
X290696Y35394D01*
X290546Y35494D01*
X290370Y35529D01*
X290204Y35598D01*
X290025D01*
X289849Y35633D01*
D02*
G37*
G36*
Y23396D02*
X235987D01*
X235811Y23361D01*
X235631D01*
X235466Y23292D01*
X235290Y23257D01*
X235140Y23157D01*
X234975Y23088D01*
X234848Y22962D01*
X234698Y22862D01*
X234599Y22713D01*
X234472Y22586D01*
X234403Y22420D01*
X234303Y22271D01*
X234268Y22095D01*
X234200Y21929D01*
Y21749D01*
X234165Y21573D01*
X234200Y21397D01*
Y21218D01*
X234268Y21052D01*
X234303Y20876D01*
X234403Y20727D01*
X234472Y20561D01*
X234599Y20434D01*
X234698Y20285D01*
X234848Y20185D01*
X234975Y20058D01*
X235140Y19989D01*
X235290Y19890D01*
X235466Y19854D01*
X235631Y19786D01*
X235811D01*
X235987Y19751D01*
X289849D01*
X290025Y19786D01*
X290204D01*
X290370Y19854D01*
X290546Y19890D01*
X290696Y19989D01*
X290861Y20058D01*
X290988Y20185D01*
X291138Y20285D01*
X291237Y20434D01*
X291364Y20561D01*
X291433Y20727D01*
X291532Y20876D01*
X291568Y21052D01*
X291636Y21218D01*
Y21397D01*
X291671Y21573D01*
X291636Y21749D01*
Y21929D01*
X291568Y22095D01*
X291532Y22271D01*
X291433Y22420D01*
X291364Y22586D01*
X291237Y22713D01*
X291138Y22862D01*
X290988Y22962D01*
X290861Y23088D01*
X290696Y23157D01*
X290546Y23257D01*
X290370Y23292D01*
X290204Y23361D01*
X290025D01*
X289849Y23396D01*
D02*
G37*
G36*
Y11159D02*
X235987D01*
X235811Y11124D01*
X235631D01*
X235466Y11055D01*
X235290Y11020D01*
X235140Y10920D01*
X234975Y10852D01*
X234848Y10725D01*
X234698Y10625D01*
X234599Y10476D01*
X234472Y10349D01*
X234403Y10183D01*
X234303Y10034D01*
X234268Y9858D01*
X234200Y9692D01*
Y9512D01*
X234165Y9336D01*
X234200Y9160D01*
Y8981D01*
X234268Y8815D01*
X234303Y8639D01*
X234403Y8489D01*
X234472Y8324D01*
X234599Y8197D01*
X234698Y8048D01*
X234848Y7948D01*
X234975Y7821D01*
X235140Y7752D01*
X235290Y7653D01*
X235466Y7617D01*
X235631Y7549D01*
X235811D01*
X235987Y7514D01*
X289849D01*
X290025Y7549D01*
X290204D01*
X290370Y7617D01*
X290546Y7653D01*
X290696Y7752D01*
X290861Y7821D01*
X290988Y7948D01*
X291138Y8048D01*
X291237Y8197D01*
X291364Y8324D01*
X291433Y8489D01*
X291532Y8639D01*
X291568Y8815D01*
X291636Y8981D01*
Y9160D01*
X291671Y9336D01*
X291636Y9512D01*
Y9692D01*
X291568Y9858D01*
X291532Y10034D01*
X291433Y10183D01*
X291364Y10349D01*
X291237Y10476D01*
X291138Y10625D01*
X290988Y10725D01*
X290861Y10852D01*
X290696Y10920D01*
X290546Y11020D01*
X290370Y11055D01*
X290204Y11124D01*
X290025D01*
X289849Y11159D01*
D02*
G37*
G36*
X19000Y6228D02*
Y5000D01*
X20228D01*
X20015Y5513D01*
X19512Y6015D01*
X19000Y6228D01*
D02*
G37*
G36*
X18000D02*
X17488Y6015D01*
X16985Y5513D01*
X16772Y5000D01*
X18000D01*
Y6228D01*
D02*
G37*
G36*
X20228Y4000D02*
X19000D01*
Y2772D01*
X19512Y2985D01*
X20015Y3488D01*
X20228Y4000D01*
D02*
G37*
G36*
X18000D02*
X16772D01*
X16985Y3488D01*
X17488Y2985D01*
X18000Y2772D01*
Y4000D01*
D02*
G37*
%LPD*%
D10*
X312500Y105000D02*
Y109165D01*
D12*
X278272Y148748D02*
Y153929D01*
Y140874D02*
Y148748D01*
D58*
X263213Y46047D02*
X289849D01*
X249631Y9336D02*
X263213D01*
X289849D01*
X235987D02*
X249631D01*
X263213Y21573D02*
X289849D01*
X249631D02*
X263213D01*
X235987D02*
X249631D01*
Y33810D02*
X289849D01*
X235987D02*
X249631D01*
Y46047D02*
X263213D01*
X235987D02*
X249631D01*
X235987Y58284D02*
X276679D01*
X289849D01*
D60*
X327000Y123000D02*
D03*
Y88984D02*
D03*
D61*
X310661Y123000D02*
D03*
Y88984D02*
D03*
D62*
X210000Y206500D02*
D03*
X320500D02*
D03*
D63*
X210000Y196500D02*
D03*
X320500D02*
D03*
D64*
X239500Y127500D02*
D03*
X320000Y77500D02*
D03*
Y67500D02*
D03*
Y57500D02*
D03*
X239500Y117500D02*
D03*
X302500Y196500D02*
D03*
X292500Y206500D02*
D03*
Y196500D02*
D03*
X282500Y206500D02*
D03*
Y196500D02*
D03*
X272500Y206500D02*
D03*
Y196500D02*
D03*
X262500Y206500D02*
D03*
Y196500D02*
D03*
X252500Y206500D02*
D03*
Y196500D02*
D03*
X242500Y206500D02*
D03*
Y196500D02*
D03*
X232500Y206500D02*
D03*
Y196500D02*
D03*
D65*
X320000Y47500D02*
D03*
X239500Y137500D02*
D03*
D66*
X312630Y94614D02*
D03*
Y117370D02*
D03*
D67*
X302500Y206500D02*
D03*
D68*
X289849Y46047D02*
D03*
Y9336D02*
D03*
X276679D02*
D03*
X263213D02*
D03*
X249631D02*
D03*
X235987D02*
D03*
X289849Y21573D02*
D03*
X276679D02*
D03*
X263213D02*
D03*
X249631D02*
D03*
X235987D02*
D03*
Y33810D02*
D03*
X249631D02*
D03*
X263213D02*
D03*
X276679D02*
D03*
X289849D02*
D03*
X276679Y46047D02*
D03*
X263213D02*
D03*
X249631D02*
D03*
X235987D02*
D03*
Y58284D02*
D03*
X249631D02*
D03*
X263213D02*
D03*
X276679D02*
D03*
X289849D02*
D03*
X263689Y124106D02*
D03*
X235000Y147000D02*
D03*
X258000Y155000D02*
D03*
X334000Y173000D02*
D03*
X333500Y203000D02*
D03*
X311500Y201500D02*
D03*
X297500Y209000D02*
D03*
X322000Y166000D02*
D03*
X294470Y149984D02*
D03*
X291000Y185500D02*
D03*
X287500Y209000D02*
D03*
X290000Y133500D02*
D03*
X279000Y82500D02*
D03*
X296500Y114500D02*
D03*
X289000Y113500D02*
D03*
X296435Y98944D02*
D03*
X277500Y209000D02*
D03*
X267500D02*
D03*
X264000Y184500D02*
D03*
X257500Y209000D02*
D03*
X286000Y169000D02*
D03*
X281000Y164500D02*
D03*
X275000Y159500D02*
D03*
X247500Y209000D02*
D03*
X237500D02*
D03*
X249500Y180000D02*
D03*
X23000Y209000D02*
D03*
X236500Y162000D02*
D03*
X286500Y133500D02*
D03*
X275550Y153956D02*
D03*
X268035Y151110D02*
D03*
X284500Y120500D02*
D03*
X249500Y136000D02*
D03*
X254000Y72000D02*
D03*
X18500Y4500D02*
D03*
X278272Y153929D02*
D03*
Y148748D02*
D03*
Y140874D02*
D03*
X312500Y109165D02*
D03*
Y105000D02*
D03*
M02*
