G04*
G04 #@! TF.GenerationSoftware,Altium Limited,Altium Designer,25.8.1 (18)*
G04*
G04 Layer_Physical_Order=1*
G04 Layer_Color=1587153*
%FSLAX25Y25*%
%MOIN*%
G70*
G04*
G04 #@! TF.SameCoordinates,70397301-3752-4A3B-8FF2-FC9E58B5EE46*
G04*
G04*
G04 #@! TF.FilePolarity,Positive*
G04*
G01*
G75*
%ADD10C,0.01000*%
%ADD11C,0.00984*%
%ADD12C,0.00787*%
%ADD15R,0.03543X0.04921*%
%ADD16R,0.02165X0.02165*%
%ADD17R,0.02165X0.02165*%
%ADD18R,0.04000X0.04724*%
%ADD19R,0.04528X0.02362*%
%ADD20R,0.02230X0.02254*%
%ADD21O,0.06299X0.02362*%
%ADD22C,0.00827*%
%ADD23C,0.00827*%
%ADD24R,0.04724X0.02559*%
G04:AMPARAMS|DCode=26|XSize=7.87mil|YSize=33.07mil|CornerRadius=0.98mil|HoleSize=0mil|Usage=FLASHONLY|Rotation=270.000|XOffset=0mil|YOffset=0mil|HoleType=Round|Shape=RoundedRectangle|*
%AMROUNDEDRECTD26*
21,1,0.00787,0.03110,0,0,270.0*
21,1,0.00591,0.03307,0,0,270.0*
1,1,0.00197,-0.01555,-0.00295*
1,1,0.00197,-0.01555,0.00295*
1,1,0.00197,0.01555,0.00295*
1,1,0.00197,0.01555,-0.00295*
%
%ADD26ROUNDEDRECTD26*%
%ADD27R,0.05512X0.04724*%
G04:AMPARAMS|DCode=28|XSize=71.82mil|YSize=24.33mil|CornerRadius=12.17mil|HoleSize=0mil|Usage=FLASHONLY|Rotation=180.000|XOffset=0mil|YOffset=0mil|HoleType=Round|Shape=RoundedRectangle|*
%AMROUNDEDRECTD28*
21,1,0.07182,0.00000,0,0,180.0*
21,1,0.04749,0.02433,0,0,180.0*
1,1,0.02433,-0.02375,0.00000*
1,1,0.02433,0.02375,0.00000*
1,1,0.02433,0.02375,0.00000*
1,1,0.02433,-0.02375,0.00000*
%
%ADD28ROUNDEDRECTD28*%
%ADD29R,0.07182X0.02433*%
%ADD30R,0.03150X0.03150*%
%ADD31R,0.03543X0.02756*%
G04:AMPARAMS|DCode=32|XSize=33.07mil|YSize=7.87mil|CornerRadius=0.98mil|HoleSize=0mil|Usage=FLASHONLY|Rotation=270.000|XOffset=0mil|YOffset=0mil|HoleType=Round|Shape=RoundedRectangle|*
%AMROUNDEDRECTD32*
21,1,0.03307,0.00591,0,0,270.0*
21,1,0.03110,0.00787,0,0,270.0*
1,1,0.00197,-0.00295,-0.01555*
1,1,0.00197,-0.00295,0.01555*
1,1,0.00197,0.00295,0.01555*
1,1,0.00197,0.00295,-0.01555*
%
%ADD32ROUNDEDRECTD32*%
%ADD33R,0.04528X0.01181*%
%ADD56R,0.12205X0.12205*%
%ADD57C,0.01575*%
%ADD58C,0.01181*%
%ADD59C,0.05906*%
%ADD60O,0.07284X0.04134*%
%ADD61O,0.08465X0.04134*%
%ADD62R,0.05906X0.05906*%
%ADD63R,0.05906X0.05906*%
%ADD64C,0.02756*%
%ADD65C,0.01575*%
G36*
X327208Y210821D02*
X329143Y210234D01*
X330925Y209282D01*
X332488Y207999D01*
X333770Y206437D01*
X334506Y205059D01*
X334150Y204665D01*
X334000Y204728D01*
Y203000D01*
Y201272D01*
X334512Y201485D01*
X334891Y201864D01*
X335406Y201727D01*
X335407Y201726D01*
X335498Y200806D01*
X335478Y200709D01*
Y174703D01*
X335016Y174511D01*
X335013Y174515D01*
X334500Y174728D01*
Y173000D01*
X334000D01*
Y172500D01*
X331923D01*
X331764Y172421D01*
X293648D01*
X293105Y172313D01*
X292644Y172005D01*
X283406Y162768D01*
X281559D01*
X281530Y162762D01*
X280004D01*
X279693Y163017D01*
Y166917D01*
X280717D01*
X280783Y166917D01*
Y166917D01*
X281217D01*
Y166917D01*
X282800D01*
Y169000D01*
Y171102D01*
X282705Y171203D01*
X282491Y171583D01*
X282501Y171632D01*
X282570Y171798D01*
Y171978D01*
X282605Y172154D01*
Y179028D01*
X288755Y185178D01*
X302000D01*
X302000Y185178D01*
X302697Y185316D01*
X303289Y185711D01*
X308805Y191228D01*
X309480Y191047D01*
X310520D01*
X311526Y191317D01*
X312427Y191837D01*
X313163Y192573D01*
X313512Y193178D01*
X316047D01*
Y191047D01*
X323953D01*
Y198953D01*
X321822D01*
Y201488D01*
X322427Y201837D01*
X323163Y202573D01*
X323683Y203474D01*
X323953Y204480D01*
Y205520D01*
X323683Y206526D01*
X323163Y207427D01*
X322427Y208163D01*
X321526Y208683D01*
X320520Y208953D01*
X319480D01*
X318474Y208683D01*
X317573Y208163D01*
X316837Y207427D01*
X316317Y206526D01*
X316047Y205520D01*
Y204480D01*
X316317Y203474D01*
X316837Y202573D01*
X317573Y201837D01*
X318178Y201488D01*
Y198953D01*
X316047D01*
Y196822D01*
X313512D01*
X313163Y197427D01*
X312427Y198163D01*
X311822Y198512D01*
Y201488D01*
X312427Y201837D01*
X313163Y202573D01*
X313683Y203474D01*
X313953Y204480D01*
Y205520D01*
X313683Y206526D01*
X313163Y207427D01*
X312427Y208163D01*
X311526Y208683D01*
X310520Y208953D01*
X309480D01*
X308474Y208683D01*
X307573Y208163D01*
X306837Y207427D01*
X306317Y206526D01*
X306047Y205520D01*
Y204480D01*
X306317Y203474D01*
X306837Y202573D01*
X307573Y201837D01*
X308178Y201488D01*
Y198512D01*
X307573Y198163D01*
X306837Y197427D01*
X306317Y196526D01*
X306047Y195520D01*
Y194480D01*
X306228Y193805D01*
X302287Y189865D01*
X301787Y190072D01*
Y190356D01*
X301515Y191013D01*
X301012Y191515D01*
X300500Y191728D01*
Y190000D01*
X300000D01*
Y189500D01*
X298272D01*
X298346Y189322D01*
X298012Y188822D01*
X290156D01*
X289964Y189284D01*
X290541Y189861D01*
X290849Y190322D01*
X290957Y190866D01*
Y191164D01*
X291526Y191317D01*
X292427Y191837D01*
X293163Y192573D01*
X293683Y193474D01*
X293953Y194480D01*
Y195520D01*
X293683Y196526D01*
X293163Y197427D01*
X292427Y198163D01*
X291526Y198683D01*
X291421Y198711D01*
Y201047D01*
X293953D01*
Y208953D01*
X286047D01*
Y201047D01*
X288579D01*
Y198711D01*
X288474Y198683D01*
X287573Y198163D01*
X286837Y197427D01*
X286317Y196526D01*
X286047Y195520D01*
Y194480D01*
X286317Y193474D01*
X286837Y192573D01*
X287573Y191837D01*
X287711Y191757D01*
X287793Y191132D01*
X281883Y185222D01*
X281421Y185414D01*
Y191289D01*
X281526Y191317D01*
X282427Y191837D01*
X283163Y192573D01*
X283683Y193474D01*
X283953Y194480D01*
Y195520D01*
X283683Y196526D01*
X283163Y197427D01*
X282427Y198163D01*
X281526Y198683D01*
X281421Y198711D01*
Y201289D01*
X281526Y201317D01*
X282427Y201837D01*
X283163Y202573D01*
X283683Y203474D01*
X283953Y204480D01*
Y205520D01*
X283683Y206526D01*
X283163Y207427D01*
X282427Y208163D01*
X281526Y208683D01*
X280520Y208953D01*
X279480D01*
X278474Y208683D01*
X277573Y208163D01*
X276837Y207427D01*
X276317Y206526D01*
X276047Y205520D01*
Y204480D01*
X276317Y203474D01*
X276837Y202573D01*
X277573Y201837D01*
X278474Y201317D01*
X278579Y201289D01*
Y198711D01*
X278474Y198683D01*
X277573Y198163D01*
X276837Y197427D01*
X276317Y196526D01*
X276047Y195520D01*
Y194480D01*
X276317Y193474D01*
X276837Y192573D01*
X277573Y191837D01*
X278474Y191317D01*
X278579Y191289D01*
Y183589D01*
X274250Y179260D01*
X271421Y182089D01*
Y191289D01*
X271526Y191317D01*
X272427Y191837D01*
X273163Y192573D01*
X273683Y193474D01*
X273953Y194480D01*
Y195520D01*
X273683Y196526D01*
X273163Y197427D01*
X272427Y198163D01*
X271526Y198683D01*
X271421Y198711D01*
Y201289D01*
X271526Y201317D01*
X272427Y201837D01*
X273163Y202573D01*
X273683Y203474D01*
X273953Y204480D01*
Y205520D01*
X273683Y206526D01*
X273163Y207427D01*
X272427Y208163D01*
X271526Y208683D01*
X270520Y208953D01*
X269480D01*
X268474Y208683D01*
X267573Y208163D01*
X266837Y207427D01*
X266317Y206526D01*
X266047Y205520D01*
Y204480D01*
X266317Y203474D01*
X266837Y202573D01*
X267573Y201837D01*
X268474Y201317D01*
X268579Y201289D01*
Y198711D01*
X268474Y198683D01*
X267573Y198163D01*
X266837Y197427D01*
X266317Y196526D01*
X266047Y195520D01*
Y194480D01*
X266317Y193474D01*
X266837Y192573D01*
X267573Y191837D01*
X268474Y191317D01*
X268579Y191289D01*
Y183914D01*
X268117Y183722D01*
X261421Y190418D01*
Y191289D01*
X261526Y191317D01*
X262427Y191837D01*
X263163Y192573D01*
X263683Y193474D01*
X263953Y194480D01*
Y195520D01*
X263683Y196526D01*
X263163Y197427D01*
X262427Y198163D01*
X261526Y198683D01*
X261421Y198711D01*
Y201289D01*
X261526Y201317D01*
X262427Y201837D01*
X263163Y202573D01*
X263683Y203474D01*
X263953Y204480D01*
Y205520D01*
X263683Y206526D01*
X263163Y207427D01*
X262427Y208163D01*
X261526Y208683D01*
X260520Y208953D01*
X259480D01*
X258474Y208683D01*
X257573Y208163D01*
X256837Y207427D01*
X256317Y206526D01*
X256047Y205520D01*
Y204480D01*
X256317Y203474D01*
X256837Y202573D01*
X257573Y201837D01*
X258474Y201317D01*
X258579Y201289D01*
Y198711D01*
X258474Y198683D01*
X257573Y198163D01*
X256837Y197427D01*
X256317Y196526D01*
X256047Y195520D01*
Y194480D01*
X256317Y193474D01*
X256636Y192921D01*
X256347Y192421D01*
X254589D01*
X253629Y193380D01*
X253683Y193474D01*
X253953Y194480D01*
Y195520D01*
X253683Y196526D01*
X253163Y197427D01*
X252427Y198163D01*
X251526Y198683D01*
X251421Y198711D01*
Y201289D01*
X251526Y201317D01*
X252427Y201837D01*
X253163Y202573D01*
X253683Y203474D01*
X253953Y204480D01*
Y205520D01*
X253683Y206526D01*
X253163Y207427D01*
X252427Y208163D01*
X251526Y208683D01*
X250520Y208953D01*
X249480D01*
X248474Y208683D01*
X247573Y208163D01*
X246837Y207427D01*
X246317Y206526D01*
X246047Y205520D01*
Y204480D01*
X246317Y203474D01*
X246837Y202573D01*
X247573Y201837D01*
X248474Y201317D01*
X248579Y201289D01*
Y198711D01*
X248474Y198683D01*
X247573Y198163D01*
X246837Y197427D01*
X246317Y196526D01*
X246047Y195520D01*
Y194480D01*
X246317Y193474D01*
X246837Y192573D01*
X247573Y191837D01*
X248474Y191317D01*
X248599Y191283D01*
X248533Y190783D01*
X246226D01*
X243629Y193380D01*
X243683Y193474D01*
X243953Y194480D01*
Y195520D01*
X243683Y196526D01*
X243163Y197427D01*
X242427Y198163D01*
X241526Y198683D01*
X241421Y198711D01*
Y201289D01*
X241526Y201317D01*
X242427Y201837D01*
X243163Y202573D01*
X243683Y203474D01*
X243953Y204480D01*
Y205520D01*
X243683Y206526D01*
X243163Y207427D01*
X242427Y208163D01*
X241526Y208683D01*
X240520Y208953D01*
X239480D01*
X238474Y208683D01*
X237573Y208163D01*
X236837Y207427D01*
X236317Y206526D01*
X236047Y205520D01*
Y204480D01*
X236317Y203474D01*
X236837Y202573D01*
X237573Y201837D01*
X238474Y201317D01*
X238579Y201289D01*
Y198711D01*
X238474Y198683D01*
X237573Y198163D01*
X236837Y197427D01*
X236317Y196526D01*
X236047Y195520D01*
Y194480D01*
X236317Y193474D01*
X236837Y192573D01*
X237573Y191837D01*
X238474Y191317D01*
X239480Y191047D01*
X240520D01*
X241526Y191317D01*
X241620Y191371D01*
X242926Y190064D01*
X242735Y189602D01*
X237407D01*
X233629Y193380D01*
X233683Y193474D01*
X233953Y194480D01*
Y195520D01*
X233683Y196526D01*
X233163Y197427D01*
X232427Y198163D01*
X231526Y198683D01*
X231421Y198711D01*
Y201289D01*
X231526Y201317D01*
X232427Y201837D01*
X233163Y202573D01*
X233683Y203474D01*
X233953Y204480D01*
Y205520D01*
X233683Y206526D01*
X233163Y207427D01*
X232427Y208163D01*
X231526Y208683D01*
X230520Y208953D01*
X229480D01*
X228474Y208683D01*
X227573Y208163D01*
X226837Y207427D01*
X226317Y206526D01*
X226047Y205520D01*
Y204480D01*
X226317Y203474D01*
X226837Y202573D01*
X227573Y201837D01*
X228474Y201317D01*
X228579Y201289D01*
Y198711D01*
X228474Y198683D01*
X227573Y198163D01*
X226837Y197427D01*
X226317Y196526D01*
X226047Y195520D01*
Y194480D01*
X226317Y193474D01*
X226837Y192573D01*
X227573Y191837D01*
X228474Y191317D01*
X229480Y191047D01*
X230520D01*
X231526Y191317D01*
X231620Y191371D01*
X234426Y188564D01*
X234235Y188102D01*
X228907D01*
X223629Y193380D01*
X223683Y193474D01*
X223953Y194480D01*
Y195520D01*
X223683Y196526D01*
X223163Y197427D01*
X222427Y198163D01*
X221526Y198683D01*
X221421Y198711D01*
Y201289D01*
X221526Y201317D01*
X222427Y201837D01*
X223163Y202573D01*
X223683Y203474D01*
X223953Y204480D01*
Y205520D01*
X223683Y206526D01*
X223163Y207427D01*
X222427Y208163D01*
X221526Y208683D01*
X220520Y208953D01*
X219480D01*
X218474Y208683D01*
X217573Y208163D01*
X216837Y207427D01*
X216317Y206526D01*
X216047Y205520D01*
Y204480D01*
X216317Y203474D01*
X216837Y202573D01*
X217573Y201837D01*
X218474Y201317D01*
X218579Y201289D01*
Y198711D01*
X218474Y198683D01*
X217573Y198163D01*
X216837Y197427D01*
X216317Y196526D01*
X216047Y195520D01*
Y194480D01*
X216317Y193474D01*
X216837Y192573D01*
X217573Y191837D01*
X218474Y191317D01*
X219480Y191047D01*
X220520D01*
X221526Y191317D01*
X221620Y191371D01*
X225607Y187383D01*
X225416Y186921D01*
X220089D01*
X213629Y193380D01*
X213683Y193474D01*
X213953Y194480D01*
Y195520D01*
X213683Y196526D01*
X213163Y197427D01*
X212427Y198163D01*
X211526Y198683D01*
X211421Y198711D01*
Y201289D01*
X211526Y201317D01*
X212427Y201837D01*
X213163Y202573D01*
X213683Y203474D01*
X213953Y204480D01*
Y205520D01*
X213683Y206526D01*
X213163Y207427D01*
X212427Y208163D01*
X211526Y208683D01*
X210520Y208953D01*
X209480D01*
X208474Y208683D01*
X207573Y208163D01*
X206837Y207427D01*
X206317Y206526D01*
X206047Y205520D01*
Y204480D01*
X206317Y203474D01*
X206837Y202573D01*
X207573Y201837D01*
X208474Y201317D01*
X208579Y201289D01*
Y198711D01*
X208474Y198683D01*
X207573Y198163D01*
X206837Y197427D01*
X206317Y196526D01*
X206047Y195520D01*
Y194480D01*
X206317Y193474D01*
X206837Y192573D01*
X207573Y191837D01*
X208474Y191317D01*
X209480Y191047D01*
X210520D01*
X211526Y191317D01*
X211620Y191371D01*
X216937Y186053D01*
X216746Y185591D01*
X211418D01*
X203629Y193380D01*
X203683Y193474D01*
X203953Y194480D01*
Y195520D01*
X203683Y196526D01*
X203163Y197427D01*
X202427Y198163D01*
X201526Y198683D01*
X201421Y198711D01*
Y201289D01*
X201526Y201317D01*
X202427Y201837D01*
X203163Y202573D01*
X203683Y203474D01*
X203953Y204480D01*
Y205520D01*
X203683Y206526D01*
X203163Y207427D01*
X202427Y208163D01*
X201526Y208683D01*
X200520Y208953D01*
X199480D01*
X198474Y208683D01*
X197573Y208163D01*
X196837Y207427D01*
X196317Y206526D01*
X196047Y205520D01*
Y204480D01*
X196317Y203474D01*
X196837Y202573D01*
X197573Y201837D01*
X198474Y201317D01*
X198579Y201289D01*
Y198711D01*
X198474Y198683D01*
X197573Y198163D01*
X196837Y197427D01*
X196317Y196526D01*
X196047Y195520D01*
Y194480D01*
X196317Y193474D01*
X196837Y192573D01*
X197573Y191837D01*
X198474Y191317D01*
X199480Y191047D01*
X200520D01*
X201526Y191317D01*
X201620Y191371D01*
X208118Y184872D01*
X207927Y184410D01*
X202599D01*
X193629Y193380D01*
X193683Y193474D01*
X193953Y194480D01*
Y195520D01*
X193683Y196526D01*
X193163Y197427D01*
X192427Y198163D01*
X191526Y198683D01*
X191421Y198711D01*
Y201289D01*
X191526Y201317D01*
X192427Y201837D01*
X193163Y202573D01*
X193683Y203474D01*
X193953Y204480D01*
Y205520D01*
X193683Y206526D01*
X193163Y207427D01*
X192427Y208163D01*
X191526Y208683D01*
X190520Y208953D01*
X189480D01*
X188474Y208683D01*
X187573Y208163D01*
X186837Y207427D01*
X186317Y206526D01*
X186047Y205520D01*
Y204480D01*
X186317Y203474D01*
X186837Y202573D01*
X187573Y201837D01*
X188474Y201317D01*
X188579Y201289D01*
Y198711D01*
X188474Y198683D01*
X187573Y198163D01*
X186837Y197427D01*
X186317Y196526D01*
X186047Y195520D01*
Y194480D01*
X186317Y193474D01*
X186837Y192573D01*
X187573Y191837D01*
X188474Y191317D01*
X189480Y191047D01*
X190520D01*
X191526Y191317D01*
X191620Y191371D01*
X199299Y183691D01*
X199108Y183229D01*
X193781D01*
X183629Y193380D01*
X183683Y193474D01*
X183953Y194480D01*
Y195520D01*
X183683Y196526D01*
X183163Y197427D01*
X182427Y198163D01*
X181526Y198683D01*
X181421Y198711D01*
Y201289D01*
X181526Y201317D01*
X182427Y201837D01*
X183163Y202573D01*
X183683Y203474D01*
X183953Y204480D01*
Y205520D01*
X183683Y206526D01*
X183163Y207427D01*
X182427Y208163D01*
X181526Y208683D01*
X180520Y208953D01*
X179480D01*
X178474Y208683D01*
X177573Y208163D01*
X176837Y207427D01*
X176317Y206526D01*
X176047Y205520D01*
Y204480D01*
X176317Y203474D01*
X176837Y202573D01*
X177573Y201837D01*
X178474Y201317D01*
X178579Y201289D01*
Y198711D01*
X178474Y198683D01*
X177573Y198163D01*
X176837Y197427D01*
X176317Y196526D01*
X176047Y195520D01*
Y194480D01*
X176317Y193474D01*
X176837Y192573D01*
X177573Y191837D01*
X178474Y191317D01*
X179480Y191047D01*
X180520D01*
X181526Y191317D01*
X181620Y191371D01*
X190480Y182510D01*
X190289Y182048D01*
X184962D01*
X173629Y193380D01*
X173683Y193474D01*
X173953Y194480D01*
Y195520D01*
X173683Y196526D01*
X173163Y197427D01*
X172427Y198163D01*
X171526Y198683D01*
X171421Y198711D01*
Y201289D01*
X171526Y201317D01*
X172427Y201837D01*
X173163Y202573D01*
X173683Y203474D01*
X173953Y204480D01*
Y205520D01*
X173683Y206526D01*
X173163Y207427D01*
X172427Y208163D01*
X171526Y208683D01*
X170520Y208953D01*
X169480D01*
X168474Y208683D01*
X167573Y208163D01*
X166837Y207427D01*
X166317Y206526D01*
X166047Y205520D01*
Y204480D01*
X166317Y203474D01*
X166837Y202573D01*
X167573Y201837D01*
X168474Y201317D01*
X168579Y201289D01*
Y198711D01*
X168474Y198683D01*
X167573Y198163D01*
X166837Y197427D01*
X166317Y196526D01*
X166047Y195520D01*
Y194480D01*
X166317Y193474D01*
X166837Y192573D01*
X167573Y191837D01*
X168474Y191317D01*
X169480Y191047D01*
X170520D01*
X171526Y191317D01*
X171620Y191371D01*
X181661Y181329D01*
X181470Y180867D01*
X176143D01*
X163629Y193380D01*
X163683Y193474D01*
X163953Y194480D01*
Y195520D01*
X163683Y196526D01*
X163163Y197427D01*
X162427Y198163D01*
X161526Y198683D01*
X161421Y198711D01*
Y201289D01*
X161526Y201317D01*
X162427Y201837D01*
X163163Y202573D01*
X163683Y203474D01*
X163953Y204480D01*
Y205520D01*
X163683Y206526D01*
X163163Y207427D01*
X162427Y208163D01*
X161526Y208683D01*
X160520Y208953D01*
X159480D01*
X158474Y208683D01*
X157573Y208163D01*
X156837Y207427D01*
X156317Y206526D01*
X156047Y205520D01*
Y204480D01*
X156317Y203474D01*
X156837Y202573D01*
X157573Y201837D01*
X158474Y201317D01*
X158579Y201289D01*
Y198711D01*
X158474Y198683D01*
X157573Y198163D01*
X156837Y197427D01*
X156317Y196526D01*
X156047Y195520D01*
Y194480D01*
X156317Y193474D01*
X156837Y192573D01*
X157573Y191837D01*
X158474Y191317D01*
X159480Y191047D01*
X160520D01*
X161526Y191317D01*
X161620Y191371D01*
X173646Y179345D01*
X173454Y178883D01*
X168127D01*
X153629Y193380D01*
X153683Y193474D01*
X153953Y194480D01*
Y195520D01*
X153683Y196526D01*
X153163Y197427D01*
X152427Y198163D01*
X151526Y198683D01*
X151421Y198711D01*
Y201289D01*
X151526Y201317D01*
X152427Y201837D01*
X153163Y202573D01*
X153683Y203474D01*
X153953Y204480D01*
Y205520D01*
X153683Y206526D01*
X153163Y207427D01*
X152427Y208163D01*
X151526Y208683D01*
X150520Y208953D01*
X149480D01*
X148474Y208683D01*
X147573Y208163D01*
X146837Y207427D01*
X146317Y206526D01*
X146047Y205520D01*
Y204480D01*
X146317Y203474D01*
X146837Y202573D01*
X147573Y201837D01*
X148474Y201317D01*
X148579Y201289D01*
Y198711D01*
X148474Y198683D01*
X147573Y198163D01*
X146837Y197427D01*
X146317Y196526D01*
X146047Y195520D01*
Y194480D01*
X146317Y193474D01*
X146837Y192573D01*
X147573Y191837D01*
X148474Y191317D01*
X149480Y191047D01*
X150520D01*
X151526Y191317D01*
X151620Y191371D01*
X165630Y177360D01*
X165439Y176898D01*
X160111D01*
X143629Y193380D01*
X143683Y193474D01*
X143953Y194480D01*
Y195520D01*
X143683Y196526D01*
X143163Y197427D01*
X142427Y198163D01*
X141526Y198683D01*
X141421Y198711D01*
Y201289D01*
X141526Y201317D01*
X142427Y201837D01*
X143163Y202573D01*
X143683Y203474D01*
X143953Y204480D01*
Y205520D01*
X143683Y206526D01*
X143163Y207427D01*
X142427Y208163D01*
X141526Y208683D01*
X140520Y208953D01*
X139480D01*
X138474Y208683D01*
X137573Y208163D01*
X136837Y207427D01*
X136317Y206526D01*
X136047Y205520D01*
Y204480D01*
X136317Y203474D01*
X136837Y202573D01*
X137573Y201837D01*
X138474Y201317D01*
X138579Y201289D01*
Y198711D01*
X138474Y198683D01*
X137573Y198163D01*
X136837Y197427D01*
X136317Y196526D01*
X136047Y195520D01*
Y194480D01*
X136317Y193474D01*
X136837Y192573D01*
X137573Y191837D01*
X138474Y191317D01*
X139480Y191047D01*
X140520D01*
X141526Y191317D01*
X141620Y191371D01*
X158518Y174473D01*
X158979Y174165D01*
X159523Y174056D01*
X159894D01*
X160085Y173594D01*
X159625Y173135D01*
X159318Y172674D01*
X159209Y172130D01*
Y169290D01*
X157859D01*
Y162368D01*
X158808D01*
Y154132D01*
X157859D01*
Y147210D01*
X163402D01*
Y154132D01*
X162453D01*
Y162368D01*
X163402D01*
Y169290D01*
X162051D01*
Y171542D01*
X164566Y174056D01*
X227827D01*
X227926Y173556D01*
X227905Y173547D01*
X227402Y173045D01*
X227190Y172532D01*
X228917D01*
Y172032D01*
X229417D01*
Y170305D01*
X229834Y170477D01*
X230334Y170268D01*
Y170020D01*
X231916D01*
Y172102D01*
X232916D01*
Y170020D01*
X234499D01*
Y170020D01*
X234934D01*
Y170020D01*
X235785D01*
Y167524D01*
X235785Y167524D01*
X235791Y167490D01*
Y163641D01*
X235488Y163515D01*
X235142Y163170D01*
X234642Y163377D01*
Y165449D01*
X230886D01*
X227130D01*
Y162587D01*
Y155894D01*
X229883D01*
Y155185D01*
X228999D01*
X228934Y155185D01*
X228499D01*
X228434Y155185D01*
X226917D01*
Y153102D01*
Y151020D01*
X228434D01*
X228499Y151020D01*
X228934D01*
X228999Y151020D01*
X233099D01*
Y151583D01*
X235464D01*
X235722Y151326D01*
X235696Y150780D01*
X235438Y150583D01*
X235117D01*
Y148787D01*
X234645D01*
X233987Y148515D01*
X233485Y148012D01*
X233272Y147500D01*
X235000D01*
Y146500D01*
X233272D01*
X233485Y145987D01*
X233987Y145485D01*
X234645Y145213D01*
X235117D01*
Y143417D01*
X236700D01*
Y145500D01*
X237700D01*
Y143417D01*
X239217D01*
X239283Y143417D01*
X239717D01*
X239783Y143417D01*
X241884D01*
X242075Y142955D01*
X239415Y140295D01*
X238953Y140486D01*
Y141453D01*
X231047D01*
Y133547D01*
X238953D01*
Y136178D01*
X239216Y136230D01*
X239677Y136538D01*
X245633Y142493D01*
X246095Y142302D01*
Y130604D01*
X236620Y121129D01*
X236526Y121183D01*
X235520Y121453D01*
X234480D01*
X233474Y121183D01*
X232573Y120663D01*
X231837Y119927D01*
X231317Y119026D01*
X231047Y118020D01*
Y116980D01*
X231317Y115974D01*
X231837Y115073D01*
X231919Y114991D01*
X231727Y114530D01*
X230150D01*
X224955Y119725D01*
Y130310D01*
X224847Y130854D01*
X224539Y131315D01*
X224036Y131818D01*
X223575Y132126D01*
X223031Y132234D01*
X221199D01*
Y133029D01*
X213600D01*
X213364Y133470D01*
X213510Y133688D01*
X213682Y134553D01*
X213510Y135418D01*
X213318Y135706D01*
X213618Y136156D01*
X214233Y136033D01*
X216108D01*
Y137793D01*
X212073D01*
X212146Y137428D01*
X212338Y137141D01*
X212037Y136691D01*
X211422Y136813D01*
X206673D01*
X205808Y136641D01*
X205075Y136151D01*
X204957Y135974D01*
X203392D01*
X202849Y135866D01*
X202387Y135558D01*
X200346Y133516D01*
X199899Y133351D01*
Y133351D01*
X199899Y133351D01*
X194749D01*
Y128201D01*
X199899D01*
Y128988D01*
X199970D01*
X200627Y129261D01*
X201130Y129763D01*
X201402Y130420D01*
Y130554D01*
X203981Y133132D01*
X204957D01*
X205075Y132955D01*
X205808Y132465D01*
X206673Y132293D01*
X211422D01*
X211631Y132335D01*
X212017Y132018D01*
Y128596D01*
X221199D01*
Y129392D01*
X222113D01*
Y125154D01*
X221613Y125051D01*
X221584Y125094D01*
X221515Y125260D01*
X221388Y125387D01*
X221289Y125536D01*
X220870Y125954D01*
X220279Y126349D01*
X219582Y126488D01*
X219582Y126488D01*
X219100D01*
X219004Y126507D01*
X217129D01*
Y124248D01*
Y121988D01*
X219004D01*
X219868Y122160D01*
X220318Y122460D01*
X220356D01*
X220521Y122529D01*
X220697Y122564D01*
X220847Y122663D01*
X221012Y122732D01*
X221139Y122859D01*
X221289Y122959D01*
X221388Y123108D01*
X221515Y123235D01*
X221584Y123401D01*
X221613Y123444D01*
X222113Y123341D01*
Y119136D01*
X222202Y118688D01*
X221936Y118188D01*
X221220D01*
Y118984D01*
X213621D01*
X213386Y119425D01*
X213531Y119642D01*
X213703Y120507D01*
X213531Y121372D01*
X213339Y121660D01*
X213639Y122110D01*
X214255Y121988D01*
X216129D01*
Y123748D01*
X212094D01*
X212167Y123383D01*
X212359Y123095D01*
X212058Y122645D01*
X211443Y122767D01*
X206694D01*
X205829Y122595D01*
X205096Y122105D01*
X204978Y121928D01*
X201584D01*
X201040Y121820D01*
X200579Y121512D01*
X200346Y121279D01*
X199899Y121114D01*
Y121114D01*
X199899Y121114D01*
X194749D01*
Y115964D01*
X199899D01*
Y116751D01*
X199970D01*
X200627Y117024D01*
X201130Y117526D01*
X201402Y118183D01*
Y118317D01*
X202172Y119086D01*
X204978D01*
X205096Y118909D01*
X205829Y118420D01*
X206694Y118247D01*
X211443D01*
X211652Y118289D01*
X212038Y117972D01*
Y114551D01*
X221220D01*
Y115346D01*
X223644D01*
X227644Y111346D01*
X221076Y104778D01*
X213621D01*
X213386Y105219D01*
X213531Y105437D01*
X213703Y106302D01*
X213531Y107167D01*
X213339Y107455D01*
X213639Y107905D01*
X214255Y107782D01*
X216129D01*
Y109542D01*
X212094D01*
X212167Y109177D01*
X212359Y108889D01*
X212058Y108439D01*
X211443Y108562D01*
X206694D01*
X205829Y108390D01*
X205096Y107900D01*
X204978Y107723D01*
X200722D01*
X200627Y107817D01*
X199970Y108089D01*
X199899D01*
Y108877D01*
X194749D01*
Y103727D01*
X199899D01*
Y104515D01*
X199970D01*
X200627Y104787D01*
X200722Y104881D01*
X204978D01*
X205096Y104704D01*
X205829Y104214D01*
X206694Y104042D01*
X211443D01*
X211652Y104083D01*
X212038Y103766D01*
Y100345D01*
X221220D01*
X221525Y99971D01*
Y97596D01*
X221025Y97389D01*
X220870Y97543D01*
X220279Y97939D01*
X219582Y98077D01*
X219582Y98077D01*
X219100D01*
X219004Y98096D01*
X217129D01*
Y95837D01*
X216629D01*
Y95337D01*
X212094D01*
X212167Y94972D01*
X212359Y94684D01*
X212058Y94234D01*
X211443Y94356D01*
X206694D01*
X205829Y94184D01*
X205096Y93694D01*
X204978Y93517D01*
X202172D01*
X201402Y94287D01*
Y94420D01*
X201130Y95077D01*
X200627Y95580D01*
X199970Y95852D01*
X199899D01*
Y96640D01*
X194749D01*
Y91490D01*
X199899D01*
X199899Y91490D01*
Y91490D01*
X200342Y91328D01*
X200579Y91092D01*
X201040Y90784D01*
X201584Y90675D01*
X204978D01*
X205096Y90498D01*
X205829Y90008D01*
X206694Y89836D01*
X211443D01*
X211652Y89878D01*
X212038Y89561D01*
Y86140D01*
X221220D01*
Y86935D01*
X221766D01*
X222206Y87023D01*
X222706Y86753D01*
Y77263D01*
X221682Y76239D01*
X221220Y76430D01*
Y76530D01*
X213621D01*
X213386Y76970D01*
X213531Y77188D01*
X213703Y78053D01*
X213531Y78918D01*
X213339Y79206D01*
X213639Y79656D01*
X214255Y79533D01*
X216129D01*
Y81293D01*
X212094D01*
X212167Y80928D01*
X212359Y80641D01*
X212058Y80191D01*
X211443Y80313D01*
X206694D01*
X205829Y80141D01*
X205096Y79651D01*
X204978Y79474D01*
X203978D01*
X201402Y82050D01*
Y82183D01*
X201130Y82840D01*
X200627Y83343D01*
X199970Y83615D01*
X199899D01*
Y84403D01*
X194749D01*
Y79253D01*
X199899D01*
X199899Y79253D01*
Y79253D01*
X200342Y79091D01*
X202385Y77048D01*
X202846Y76740D01*
X203390Y76632D01*
X204978D01*
X205096Y76455D01*
X205829Y75965D01*
X206694Y75793D01*
X211443D01*
X211652Y75835D01*
X212038Y75517D01*
Y72097D01*
X211547Y72076D01*
X199500D01*
Y76772D01*
X193337D01*
Y79253D01*
X193994D01*
Y84403D01*
X193337D01*
Y91490D01*
X193994D01*
Y96640D01*
X193337D01*
Y103727D01*
X193994D01*
Y108877D01*
X193337D01*
Y115964D01*
X193994D01*
Y121114D01*
X193337D01*
Y128201D01*
X193994D01*
Y133351D01*
X188844D01*
Y128201D01*
X189692D01*
Y121114D01*
X188844D01*
Y115964D01*
X189692D01*
Y108877D01*
X188844D01*
Y103727D01*
X189692D01*
Y96640D01*
X188844D01*
Y91490D01*
X189692D01*
Y84403D01*
X188844D01*
Y79253D01*
X189692D01*
Y76772D01*
X188838D01*
Y72016D01*
X195406D01*
X195487Y71607D01*
X195629Y71395D01*
X195362Y70895D01*
X185969D01*
X185310Y71554D01*
X185501Y72016D01*
X186000D01*
Y76772D01*
X180024D01*
Y79253D01*
X180869D01*
Y84403D01*
X180024D01*
Y91490D01*
X180869D01*
Y96640D01*
X180024D01*
Y103727D01*
X180869D01*
Y108877D01*
X180024D01*
Y115964D01*
X180869D01*
Y121114D01*
X180024D01*
Y128201D01*
X180869D01*
Y133351D01*
X175719D01*
Y128201D01*
X176379D01*
Y121114D01*
X175719D01*
Y115964D01*
X176379D01*
Y108877D01*
X175719D01*
Y103727D01*
X176379D01*
Y96640D01*
X175719D01*
Y91490D01*
X176379D01*
Y84403D01*
X175719D01*
Y79253D01*
X176379D01*
Y76772D01*
X175338D01*
Y72016D01*
X181807D01*
Y71627D01*
X181915Y71083D01*
X182223Y70622D01*
X182669Y70176D01*
X182478Y69714D01*
X172570D01*
X171243Y71040D01*
Y72083D01*
X172594D01*
Y76839D01*
X166556D01*
Y77325D01*
X167056Y77641D01*
X167397Y77574D01*
X173076D01*
X173619Y77682D01*
X174081Y77990D01*
X174389Y78451D01*
X174497Y78995D01*
X174389Y79539D01*
X174181Y79850D01*
X174094Y80060D01*
X174200Y80521D01*
X174494Y80815D01*
X174766Y81472D01*
Y82183D01*
X174494Y82840D01*
X173991Y83343D01*
X173334Y83615D01*
X173244D01*
Y84469D01*
X168094D01*
Y80416D01*
X167397D01*
X167338Y80464D01*
Y84469D01*
X166556D01*
Y91557D01*
X167338D01*
Y96706D01*
X166556D01*
Y103794D01*
X167338D01*
Y108943D01*
X166556D01*
Y116031D01*
X167338D01*
Y121180D01*
X166556D01*
Y128268D01*
X167338D01*
Y133417D01*
X162189D01*
Y128268D01*
X162911D01*
Y121180D01*
X162189D01*
Y116031D01*
X162911D01*
Y108943D01*
X162189D01*
Y103794D01*
X162911D01*
Y96706D01*
X162189D01*
Y91557D01*
X162911D01*
Y84469D01*
X162189D01*
Y79320D01*
X162911D01*
Y76839D01*
X161933D01*
Y72083D01*
X168401D01*
Y70451D01*
X168510Y69908D01*
X168818Y69447D01*
X169269Y68995D01*
X169078Y68533D01*
X158814D01*
X157743Y69603D01*
Y72083D01*
X159094D01*
Y76839D01*
X152994D01*
Y79320D01*
X153713D01*
Y84469D01*
X152994D01*
Y91557D01*
X153713D01*
Y96706D01*
X152994D01*
Y103794D01*
X153713D01*
Y108943D01*
X152994D01*
Y116031D01*
X153713D01*
Y121180D01*
X152994D01*
Y128268D01*
X153713D01*
Y133417D01*
X148564D01*
Y128268D01*
X149349D01*
Y121180D01*
X148564D01*
Y116031D01*
X149349D01*
Y108943D01*
X148564D01*
Y103794D01*
X149349D01*
Y96706D01*
X148564D01*
Y91557D01*
X149349D01*
Y84469D01*
X148564D01*
Y79320D01*
X149349D01*
Y76839D01*
X148433D01*
Y72083D01*
X154901D01*
Y69014D01*
X155010Y68471D01*
X155318Y68010D01*
X155514Y67814D01*
X155322Y67352D01*
X145158D01*
X144243Y68266D01*
Y72083D01*
X145594D01*
Y76839D01*
X139431D01*
Y79320D01*
X140088D01*
Y84469D01*
X139431D01*
Y91557D01*
X140088D01*
Y96706D01*
X139431D01*
Y103794D01*
X140088D01*
Y108943D01*
X139431D01*
Y116031D01*
X140088D01*
Y121180D01*
X139431D01*
Y128268D01*
X140088D01*
Y133417D01*
X134939D01*
Y128268D01*
X135786D01*
Y121180D01*
X134939D01*
Y116031D01*
X135786D01*
Y108943D01*
X134939D01*
Y103794D01*
X135786D01*
Y96706D01*
X134939D01*
Y91557D01*
X135786D01*
Y84469D01*
X134939D01*
Y79320D01*
X135786D01*
Y76839D01*
X134933D01*
Y72083D01*
X141401D01*
Y67678D01*
X141510Y67134D01*
X141818Y66673D01*
X143564Y64926D01*
X144026Y64618D01*
X144569Y64510D01*
X226828D01*
X227372Y64618D01*
X227833Y64926D01*
X231037Y68131D01*
X231345Y68592D01*
X231453Y69136D01*
Y99444D01*
X233067Y101058D01*
X250759D01*
X251303Y101166D01*
X251764Y101474D01*
X270090Y119800D01*
X270551Y119608D01*
Y111242D01*
X257065Y97756D01*
X251169D01*
Y89850D01*
X259075D01*
Y95746D01*
X271664Y108336D01*
X272126Y108144D01*
Y103050D01*
X266581Y97505D01*
X265642Y97756D01*
X264602D01*
X263596Y97487D01*
X262695Y96966D01*
X261959Y96230D01*
X261439Y95329D01*
X261169Y94324D01*
Y93283D01*
X261439Y92277D01*
X261959Y91376D01*
X262695Y90640D01*
X263596Y90120D01*
X264602Y89850D01*
X265642D01*
X266648Y90120D01*
X267549Y90640D01*
X268285Y91376D01*
X268805Y92277D01*
X269075Y93283D01*
Y94324D01*
X268805Y95329D01*
X268666Y95570D01*
X273239Y100144D01*
X273701Y99952D01*
Y97515D01*
X273596Y97487D01*
X272695Y96966D01*
X271959Y96230D01*
X271439Y95329D01*
X271169Y94324D01*
Y93283D01*
X271439Y92277D01*
X271959Y91376D01*
X272695Y90640D01*
X273596Y90120D01*
X274602Y89850D01*
X275642D01*
X276648Y90120D01*
X277549Y90640D01*
X278285Y91376D01*
X278805Y92277D01*
X279075Y93283D01*
Y94324D01*
X278805Y95329D01*
X278285Y96230D01*
X277549Y96966D01*
X276648Y97487D01*
X276543Y97515D01*
Y99719D01*
X277005Y99911D01*
X281493Y95423D01*
X281439Y95329D01*
X281169Y94324D01*
Y93283D01*
X281439Y92277D01*
X281959Y91376D01*
X282695Y90640D01*
X283596Y90120D01*
X284602Y89850D01*
X285642D01*
X286648Y90120D01*
X287549Y90640D01*
X288285Y91376D01*
X288805Y92277D01*
X289075Y93283D01*
Y94324D01*
X288805Y95329D01*
X288285Y96230D01*
X287549Y96966D01*
X286648Y97487D01*
X285642Y97756D01*
X284602D01*
X283596Y97487D01*
X283502Y97432D01*
X278118Y102817D01*
Y121138D01*
X278937D01*
Y120327D01*
X278972Y120151D01*
Y119971D01*
X279041Y119806D01*
X279076Y119630D01*
X279176Y119480D01*
X279244Y119315D01*
X279372Y119188D01*
X279471Y119038D01*
X279620Y118939D01*
X279747Y118812D01*
X279913Y118743D01*
X280062Y118643D01*
X280239Y118608D01*
X280404Y118540D01*
X280584D01*
X280760Y118505D01*
X280936Y118540D01*
X281115D01*
X281473Y118199D01*
X281500Y118142D01*
Y112791D01*
X282204D01*
X282617Y112583D01*
Y108417D01*
X283078D01*
Y106800D01*
X283202Y106179D01*
X283553Y105653D01*
X293810Y95397D01*
X294336Y95045D01*
X294957Y94922D01*
X305134D01*
Y93894D01*
X308398D01*
Y92894D01*
X305134D01*
Y91213D01*
X305710D01*
X305957Y90713D01*
X305817Y90531D01*
X305508Y89785D01*
X305469Y89484D01*
X310661D01*
X315854D01*
X315815Y89785D01*
X315506Y90531D01*
X315014Y91172D01*
X314373Y91663D01*
X313700Y91942D01*
X313644Y92172D01*
X313670Y92471D01*
X313977Y92598D01*
X314646Y93267D01*
X315008Y94141D01*
Y95087D01*
X314646Y95961D01*
X313977Y96630D01*
X313408Y96866D01*
X313289Y97454D01*
X314613Y98778D01*
X314965Y99304D01*
X315088Y99925D01*
Y112190D01*
X314965Y112811D01*
X314613Y113337D01*
X313384Y114567D01*
X313501Y115157D01*
X313977Y115354D01*
X314646Y116023D01*
X315008Y116897D01*
Y117843D01*
X314646Y118717D01*
X313977Y119386D01*
X313670Y119513D01*
X313644Y119813D01*
X313700Y120042D01*
X314373Y120321D01*
X315014Y120813D01*
X315506Y121453D01*
X315815Y122199D01*
X315854Y122500D01*
X310661D01*
Y123000D01*
D01*
Y122500D01*
X305469D01*
X305508Y122199D01*
X305817Y121453D01*
X305957Y121272D01*
X305710Y120772D01*
X305134D01*
Y119091D01*
X308398D01*
Y118091D01*
X305134D01*
Y116905D01*
X304639Y116602D01*
X304399Y116727D01*
Y117627D01*
X299217D01*
Y115500D01*
X298217D01*
Y117627D01*
X296920D01*
Y115441D01*
X295920D01*
Y117168D01*
X295408Y116956D01*
X295102Y116650D01*
X294602Y116858D01*
Y143489D01*
X294494Y144033D01*
X294186Y144494D01*
X291346Y147334D01*
X291537Y147796D01*
X291770D01*
Y149879D01*
X292770D01*
Y147796D01*
X294353D01*
Y148162D01*
X294470D01*
X294646Y148197D01*
X294826D01*
X294991Y148266D01*
X295168Y148301D01*
X295317Y148400D01*
X295483Y148469D01*
X295610Y148596D01*
X295759Y148696D01*
X295859Y148845D01*
X295985Y148972D01*
X296507Y148945D01*
X297358Y148776D01*
X301159D01*
X304818Y145117D01*
Y142873D01*
X312615D01*
Y142873D01*
X313101D01*
Y142873D01*
X320899D01*
X320899Y142873D01*
Y142873D01*
X321318Y142673D01*
X321995Y141995D01*
X322456Y141687D01*
X323000Y141579D01*
X323299D01*
Y140413D01*
X328844D01*
X329153Y139913D01*
X329099Y139639D01*
Y139052D01*
X329190Y138591D01*
X329415Y138048D01*
X329676Y137658D01*
X330092Y137242D01*
X330482Y136981D01*
X331025Y136757D01*
X331486Y136665D01*
X332073D01*
X332534Y136757D01*
X333077Y136981D01*
X333467Y137242D01*
X333883Y137658D01*
X334144Y138048D01*
X334368Y138591D01*
X334401Y138752D01*
X334910Y139161D01*
X335039Y139135D01*
X335092Y139145D01*
X335478Y138828D01*
Y130721D01*
X334339D01*
X334318Y130717D01*
X334017Y131167D01*
X334144Y131356D01*
X334368Y131899D01*
X334460Y132360D01*
Y132947D01*
X334368Y133408D01*
X334144Y133951D01*
X333883Y134341D01*
X333467Y134757D01*
X333077Y135018D01*
X332534Y135242D01*
X332073Y135334D01*
X331486D01*
X331025Y135242D01*
X330482Y135018D01*
X330092Y134757D01*
X329676Y134341D01*
X329415Y133951D01*
X329190Y133408D01*
X329099Y132947D01*
Y132360D01*
X329153Y132086D01*
X328844Y131586D01*
X327162D01*
Y129806D01*
X330024D01*
Y129994D01*
X330372Y130218D01*
X330524Y130272D01*
X331025Y130064D01*
X331486Y129973D01*
X332073D01*
X332534Y130064D01*
X332933Y130230D01*
X333282Y129980D01*
X333353Y129873D01*
X333319Y129702D01*
Y129146D01*
X331780D01*
X331390Y129069D01*
X331059Y128848D01*
X330838Y128517D01*
X330760Y128127D01*
Y125819D01*
X330260Y125573D01*
X330121Y125679D01*
X329375Y125988D01*
X328575Y126093D01*
X327500D01*
Y123000D01*
Y119907D01*
X328575D01*
X329375Y120012D01*
X330121Y120321D01*
X330762Y120813D01*
X331042Y121178D01*
X334132D01*
X334132Y121178D01*
X334830Y121316D01*
X334979Y121416D01*
X335478Y121148D01*
Y11811D01*
X335498Y11713D01*
X335309Y9799D01*
X334723Y7865D01*
X333770Y6083D01*
X332488Y4520D01*
X330925Y3238D01*
X329143Y2285D01*
X327208Y1698D01*
X325294Y1510D01*
X325197Y1529D01*
X11811D01*
X11713Y1510D01*
X11203Y1560D01*
X11016Y2081D01*
X11161Y2225D01*
X11373Y2738D01*
X7751D01*
X7479Y2492D01*
X6083Y3238D01*
X4520Y4520D01*
X3238Y6083D01*
X2285Y7865D01*
X1698Y9799D01*
X1510Y11713D01*
X1529Y11811D01*
Y200709D01*
X1510Y200806D01*
X1698Y202720D01*
X2285Y204654D01*
X3238Y206437D01*
X4520Y207999D01*
X6083Y209282D01*
X7479Y210028D01*
X7751Y209782D01*
X11373D01*
X11161Y210294D01*
X11016Y210439D01*
X11203Y210959D01*
X11713Y211010D01*
X11811Y210990D01*
X325197D01*
X325294Y211010D01*
X327208Y210821D01*
D02*
G37*
G36*
X320305Y166579D02*
X320272Y166500D01*
X322000D01*
Y166000D01*
X322500D01*
Y164272D01*
X323012Y164485D01*
X323107Y164579D01*
X324031D01*
X324132Y164427D01*
X324854Y163945D01*
X325705Y163776D01*
X327173D01*
Y166000D01*
X328173D01*
Y163776D01*
X329348D01*
X329379Y163751D01*
X329590Y163276D01*
X329542Y163224D01*
X325705D01*
X324854Y163055D01*
X324132Y162573D01*
X323650Y161851D01*
X323481Y161000D01*
X323650Y160149D01*
X324132Y159427D01*
X324854Y158946D01*
X325705Y158776D01*
X329241D01*
X329491Y158276D01*
X329452Y158224D01*
X325705D01*
X324854Y158054D01*
X324132Y157572D01*
X323650Y156851D01*
X323481Y156000D01*
X323650Y155149D01*
X324132Y154428D01*
X324854Y153946D01*
X325705Y153776D01*
X329241D01*
X329491Y153276D01*
X329452Y153224D01*
X325705D01*
X324854Y153054D01*
X324132Y152573D01*
X324031Y152421D01*
X321205D01*
X320661Y152313D01*
X320200Y152005D01*
X315322Y147127D01*
X313101D01*
Y147127D01*
X312615D01*
Y147127D01*
X306827D01*
X303425Y150529D01*
X303519Y151000D01*
X303350Y151851D01*
X302868Y152573D01*
X302146Y153054D01*
X301295Y153224D01*
X297736D01*
X297460Y153481D01*
X297390Y153724D01*
X297436Y153776D01*
X301295D01*
X302146Y153946D01*
X302868Y154428D01*
X303350Y155149D01*
X303519Y156000D01*
X303350Y156851D01*
X302868Y157572D01*
X302146Y158054D01*
X301295Y158224D01*
X297358D01*
X296507Y158054D01*
X295786Y157572D01*
X295685Y157421D01*
X289414D01*
X289222Y157883D01*
X290918Y159579D01*
X295685D01*
X295786Y159427D01*
X296507Y158946D01*
X297358Y158776D01*
X301295D01*
X302146Y158946D01*
X302868Y159427D01*
X303350Y160149D01*
X303519Y161000D01*
X303350Y161851D01*
X302868Y162573D01*
X302146Y163055D01*
X301295Y163224D01*
X297358D01*
X296507Y163055D01*
X295786Y162573D01*
X295685Y162421D01*
X292743D01*
X292552Y162883D01*
X294248Y164579D01*
X295685D01*
X295786Y164427D01*
X296507Y163945D01*
X297358Y163776D01*
X301295D01*
X302146Y163945D01*
X302868Y164427D01*
X303350Y165149D01*
X303519Y166000D01*
X303404Y166579D01*
X303753Y167079D01*
X319971D01*
X320305Y166579D01*
D02*
G37*
G36*
X336898Y142299D02*
X334339D01*
Y143874D01*
X331780D01*
Y146433D01*
X336898D01*
Y142299D01*
D02*
G37*
G36*
X336898Y125568D02*
X331780D01*
Y128127D01*
X334339D01*
Y129702D01*
X336898D01*
Y125568D01*
D02*
G37*
G36*
X289800Y108417D02*
X290849D01*
X290995Y108199D01*
X295699Y103495D01*
X296160Y103187D01*
X296601Y103099D01*
Y102373D01*
X304054D01*
X304279Y102148D01*
X304373Y101535D01*
X303964Y101127D01*
X299217D01*
Y99000D01*
X298217D01*
Y101127D01*
X296935D01*
Y98944D01*
X295935D01*
Y100671D01*
X295422Y100459D01*
X294919Y99956D01*
X294810Y99691D01*
X294220Y99574D01*
X286322Y107472D01*
Y108323D01*
X286783Y108417D01*
X287217D01*
Y108417D01*
X287283Y108417D01*
X288800D01*
Y110500D01*
X289800D01*
Y108417D01*
D02*
G37*
%LPC*%
G36*
X11373Y208782D02*
X10146D01*
Y207554D01*
X10658Y207766D01*
X11161Y208269D01*
X11373Y208782D01*
D02*
G37*
G36*
X9146D02*
X7918D01*
X8130Y208269D01*
X8633Y207766D01*
X9146Y207554D01*
Y208782D01*
D02*
G37*
G36*
X120520Y208953D02*
X120500D01*
Y205500D01*
X123953D01*
Y205520D01*
X123683Y206526D01*
X123163Y207427D01*
X122427Y208163D01*
X121526Y208683D01*
X120520Y208953D01*
D02*
G37*
G36*
X110520D02*
X110500D01*
Y205500D01*
X113953D01*
Y205520D01*
X113683Y206526D01*
X113163Y207427D01*
X112427Y208163D01*
X111526Y208683D01*
X110520Y208953D01*
D02*
G37*
G36*
X119500D02*
X119480D01*
X118474Y208683D01*
X117573Y208163D01*
X116837Y207427D01*
X116317Y206526D01*
X116047Y205520D01*
Y205500D01*
X119500D01*
Y208953D01*
D02*
G37*
G36*
X109500D02*
X109480D01*
X108474Y208683D01*
X107573Y208163D01*
X106837Y207427D01*
X106317Y206526D01*
X106047Y205520D01*
Y205500D01*
X109500D01*
Y208953D01*
D02*
G37*
G36*
X333000Y204728D02*
X332488Y204515D01*
X331985Y204012D01*
X331772Y203500D01*
X333000D01*
Y204728D01*
D02*
G37*
G36*
Y202500D02*
X331772D01*
X331985Y201988D01*
X332488Y201485D01*
X333000Y201272D01*
Y202500D01*
D02*
G37*
G36*
X123953Y204500D02*
X120500D01*
Y201047D01*
X120520D01*
X121526Y201317D01*
X122427Y201837D01*
X123163Y202573D01*
X123683Y203474D01*
X123953Y204480D01*
Y204500D01*
D02*
G37*
G36*
X119500D02*
X116047D01*
Y204480D01*
X116317Y203474D01*
X116837Y202573D01*
X117573Y201837D01*
X118474Y201317D01*
X119480Y201047D01*
X119500D01*
Y204500D01*
D02*
G37*
G36*
X113953D02*
X110500D01*
Y201047D01*
X110520D01*
X111526Y201317D01*
X112427Y201837D01*
X113163Y202573D01*
X113683Y203474D01*
X113953Y204480D01*
Y204500D01*
D02*
G37*
G36*
X109500D02*
X106047D01*
Y204480D01*
X106317Y203474D01*
X106837Y202573D01*
X107573Y201837D01*
X108474Y201317D01*
X109480Y201047D01*
X109500D01*
Y204500D01*
D02*
G37*
G36*
X123953Y198953D02*
X120500D01*
Y195500D01*
X123953D01*
Y198953D01*
D02*
G37*
G36*
X110520D02*
X110500D01*
Y195500D01*
X113953D01*
Y195520D01*
X113683Y196526D01*
X113163Y197427D01*
X112427Y198163D01*
X111526Y198683D01*
X110520Y198953D01*
D02*
G37*
G36*
X119500D02*
X116047D01*
Y195500D01*
X119500D01*
Y198953D01*
D02*
G37*
G36*
X109500D02*
X109480D01*
X108474Y198683D01*
X107573Y198163D01*
X106837Y197427D01*
X106317Y196526D01*
X106047Y195520D01*
Y195500D01*
X109500D01*
Y198953D01*
D02*
G37*
G36*
X123953Y194500D02*
X120500D01*
Y191047D01*
X123953D01*
Y194500D01*
D02*
G37*
G36*
X119500D02*
X116047D01*
Y191047D01*
X119500D01*
Y194500D01*
D02*
G37*
G36*
X113953D02*
X110500D01*
Y191047D01*
X110520D01*
X111526Y191317D01*
X112427Y191837D01*
X113163Y192573D01*
X113683Y193474D01*
X113953Y194480D01*
Y194500D01*
D02*
G37*
G36*
X109500D02*
X106047D01*
Y194480D01*
X106317Y193474D01*
X106837Y192573D01*
X107573Y191837D01*
X108474Y191317D01*
X109480Y191047D01*
X109500D01*
Y194500D01*
D02*
G37*
G36*
X299500Y191728D02*
X298988Y191515D01*
X298485Y191013D01*
X298272Y190500D01*
X299500D01*
Y191728D01*
D02*
G37*
G36*
X333500Y174728D02*
X332987Y174515D01*
X332485Y174012D01*
X332272Y173500D01*
X333500D01*
Y174728D01*
D02*
G37*
G36*
X286500Y173728D02*
Y172500D01*
X287728D01*
X287515Y173012D01*
X287013Y173515D01*
X286500Y173728D01*
D02*
G37*
G36*
X285500D02*
X284987Y173515D01*
X284485Y173012D01*
X284272Y172500D01*
X285500D01*
Y173728D01*
D02*
G37*
G36*
X228417Y171532D02*
X227190D01*
X227402Y171020D01*
X227905Y170517D01*
X228417Y170305D01*
Y171532D01*
D02*
G37*
G36*
X287728Y171500D02*
X284272D01*
X284273Y171498D01*
X283995Y171083D01*
X283800D01*
Y169000D01*
Y166917D01*
X285383D01*
Y167178D01*
X286000D01*
X286176Y167213D01*
X286355D01*
X286521Y167281D01*
X286697Y167316D01*
X286847Y167416D01*
X287013Y167485D01*
X287139Y167612D01*
X287289Y167711D01*
X287388Y167861D01*
X287515Y167988D01*
X287584Y168153D01*
X287684Y168303D01*
X287719Y168479D01*
X287787Y168644D01*
Y168824D01*
X287822Y169000D01*
X287787Y169176D01*
Y169355D01*
X287719Y169521D01*
X287684Y169697D01*
X287584Y169847D01*
X287515Y170012D01*
X287388Y170139D01*
X287289Y170289D01*
X287346Y170818D01*
X287515Y170987D01*
X287728Y171500D01*
D02*
G37*
G36*
X234642Y169311D02*
X231386D01*
Y166449D01*
X234642D01*
Y169311D01*
D02*
G37*
G36*
X230386D02*
X227130D01*
Y166449D01*
X230386D01*
Y169311D01*
D02*
G37*
G36*
X196472Y169290D02*
X194200D01*
Y166329D01*
X196472D01*
Y169290D01*
D02*
G37*
G36*
X193200D02*
X190929D01*
Y166329D01*
X193200D01*
Y169290D01*
D02*
G37*
G36*
X157102D02*
X154830D01*
Y166329D01*
X157102D01*
Y169290D01*
D02*
G37*
G36*
X153830D02*
X151559D01*
Y166329D01*
X153830D01*
Y169290D01*
D02*
G37*
G36*
X225917Y155185D02*
X224334D01*
Y153602D01*
X225917D01*
Y155185D01*
D02*
G37*
G36*
X196472Y165329D02*
X190929D01*
Y162368D01*
X191928D01*
Y158641D01*
X191913Y158606D01*
Y158426D01*
X191878Y158250D01*
Y154132D01*
X190929D01*
Y151171D01*
X196472D01*
Y154132D01*
X195523D01*
Y158001D01*
X195572Y158250D01*
Y162368D01*
X196472D01*
Y165329D01*
D02*
G37*
G36*
X157102D02*
X151559D01*
Y162368D01*
X152508D01*
Y154132D01*
X151559D01*
Y151171D01*
X157102D01*
Y154132D01*
X156153D01*
Y162368D01*
X157102D01*
Y165329D01*
D02*
G37*
G36*
X225917Y152602D02*
X224334D01*
Y151020D01*
X225917D01*
Y152602D01*
D02*
G37*
G36*
X226917Y148728D02*
Y147500D01*
X228144D01*
X227932Y148012D01*
X227429Y148515D01*
X226917Y148728D01*
D02*
G37*
G36*
X225917D02*
X225404Y148515D01*
X224901Y148012D01*
X224689Y147500D01*
X225917D01*
Y148728D01*
D02*
G37*
G36*
X202772Y169290D02*
X197229D01*
Y162368D01*
X198178D01*
Y158270D01*
Y154132D01*
X197229D01*
Y147210D01*
X202772D01*
Y154132D01*
X201823D01*
Y158270D01*
Y162368D01*
X202772D01*
Y169290D01*
D02*
G37*
G36*
X196472Y150171D02*
X194200D01*
Y147210D01*
X196472D01*
Y150171D01*
D02*
G37*
G36*
X193200D02*
X190929D01*
Y147210D01*
X193200D01*
Y150171D01*
D02*
G37*
G36*
X157102D02*
X154830D01*
Y147210D01*
X157102D01*
Y150171D01*
D02*
G37*
G36*
X153830D02*
X151559D01*
Y147210D01*
X153830D01*
Y150171D01*
D02*
G37*
G36*
X228144Y146500D02*
X226917D01*
Y145272D01*
X227429Y145485D01*
X227932Y145987D01*
X228144Y146500D01*
D02*
G37*
G36*
X225917D02*
X224689D01*
X224901Y145987D01*
X225404Y145485D01*
X225917Y145272D01*
Y146500D01*
D02*
G37*
G36*
X216108Y140553D02*
X214233D01*
X213369Y140381D01*
X212635Y139891D01*
X212146Y139158D01*
X212073Y138793D01*
X216108D01*
Y140553D01*
D02*
G37*
G36*
X7732Y138529D02*
X7464D01*
X7074Y138451D01*
X6959Y138375D01*
X6895Y138362D01*
X6671Y138213D01*
X6288Y138162D01*
X6075Y138178D01*
X5800Y138362D01*
X5736Y138375D01*
X5621Y138451D01*
X5231Y138529D01*
X4874D01*
X4484Y138451D01*
X4153Y138230D01*
X4117Y138177D01*
X4064Y138141D01*
X4028Y138088D01*
X3974Y138052D01*
X3939Y137998D01*
X3885Y137962D01*
X3706Y137695D01*
X3438Y137516D01*
X3403Y137462D01*
X3349Y137427D01*
X3128Y137096D01*
X3115Y137032D01*
X3039Y136917D01*
X2961Y136527D01*
Y136348D01*
X3039Y135958D01*
X3115Y135844D01*
X3128Y135780D01*
X3349Y135449D01*
X3403Y135413D01*
X3438Y135360D01*
X3492Y135324D01*
X3528Y135270D01*
X3728Y135137D01*
X3664Y135042D01*
X3586Y134652D01*
Y132508D01*
X3664Y132118D01*
X3741Y132004D01*
X3753Y131940D01*
X3883Y131745D01*
X3968Y131520D01*
X3942Y131187D01*
X3895Y131057D01*
X3753Y130845D01*
X3741Y130781D01*
X3664Y130666D01*
X3586Y130276D01*
Y128758D01*
X3233Y128360D01*
X2903Y128139D01*
X2867Y128085D01*
X2813Y128050D01*
X2778Y127996D01*
X2724Y127960D01*
X2688Y127907D01*
X2635Y127871D01*
X2414Y127540D01*
X2336Y127150D01*
Y126882D01*
X2414Y126492D01*
X2490Y126377D01*
X2503Y126313D01*
X2724Y125983D01*
X2755Y125833D01*
Y125740D01*
X2724Y125460D01*
X2503Y125129D01*
X2490Y125065D01*
X2414Y124951D01*
X2336Y124560D01*
Y124292D01*
X2414Y123902D01*
X2635Y123572D01*
X2688Y123536D01*
X2724Y123482D01*
X2778Y123446D01*
X2813Y123393D01*
X2867Y123357D01*
X2903Y123304D01*
X3233Y123082D01*
X3624Y123005D01*
X7821D01*
X8211Y123082D01*
X8542Y123304D01*
X8578Y123357D01*
X8631Y123393D01*
X8667Y123446D01*
X8721Y123482D01*
X8941Y123813D01*
X9019Y124203D01*
Y124739D01*
X8941Y125129D01*
X8747Y125420D01*
X8631Y125893D01*
X8852Y126224D01*
X8865Y126288D01*
X8941Y126403D01*
X9019Y126793D01*
Y127240D01*
X8941Y127630D01*
X8755Y127909D01*
X8941Y128189D01*
X9019Y128579D01*
Y130365D01*
X8941Y130755D01*
X8725Y131079D01*
X8941Y131404D01*
X9019Y131794D01*
Y134205D01*
X8941Y134595D01*
X8721Y134926D01*
X8667Y134962D01*
X8631Y135015D01*
X8465Y135126D01*
X8398Y135224D01*
X8341Y135519D01*
X8353Y135622D01*
X8453Y135806D01*
X8488Y135860D01*
X8542Y135896D01*
X8578Y135949D01*
X8631Y135985D01*
X8852Y136316D01*
X8865Y136380D01*
X8941Y136494D01*
X9019Y136884D01*
Y137241D01*
X8941Y137632D01*
X8865Y137746D01*
X8852Y137810D01*
X8631Y138141D01*
X8300Y138362D01*
X8236Y138375D01*
X8122Y138451D01*
X7732Y138529D01*
D02*
G37*
G36*
X218983Y140553D02*
X217108D01*
Y138293D01*
Y136033D01*
X218983D01*
X219847Y136205D01*
X220297Y136506D01*
X220356D01*
X221012Y136778D01*
X221515Y137281D01*
X221728Y137793D01*
X220000D01*
Y138793D01*
X221728D01*
X221515Y139306D01*
X221012Y139809D01*
X220356Y140081D01*
X220297D01*
X219847Y140381D01*
X218983Y140553D01*
D02*
G37*
G36*
X326162Y131586D02*
X323299D01*
Y129806D01*
X326162D01*
Y131586D01*
D02*
G37*
G36*
X173244Y133417D02*
X168094D01*
Y128268D01*
X173244D01*
Y128988D01*
X173334D01*
X173991Y129261D01*
X174494Y129763D01*
X174766Y130420D01*
Y131131D01*
X174494Y131788D01*
X173991Y132291D01*
X173334Y132563D01*
X173244D01*
Y133417D01*
D02*
G37*
G36*
X159619D02*
X154469D01*
Y128268D01*
X159619D01*
Y128988D01*
X159752D01*
X160409Y129261D01*
X160912Y129763D01*
X161184Y130420D01*
Y131131D01*
X160912Y131788D01*
X160409Y132291D01*
X159752Y132563D01*
X159619D01*
Y133417D01*
D02*
G37*
G36*
X145994D02*
X140844D01*
Y128268D01*
X145994D01*
Y128988D01*
X146109D01*
X146766Y129261D01*
X147268Y129763D01*
X147540Y130420D01*
Y131131D01*
X147268Y131788D01*
X146766Y132291D01*
X146109Y132563D01*
X145994D01*
Y133417D01*
D02*
G37*
G36*
X186774Y133351D02*
X181624D01*
Y128201D01*
X186774D01*
Y128988D01*
X186800D01*
X187457Y129261D01*
X187960Y129763D01*
X188232Y130420D01*
Y131131D01*
X187960Y131788D01*
X187457Y132291D01*
X186800Y132563D01*
X186774D01*
Y133351D01*
D02*
G37*
G36*
X235520Y131453D02*
X235500D01*
Y128000D01*
X238953D01*
Y128020D01*
X238683Y129026D01*
X238163Y129927D01*
X237427Y130663D01*
X236526Y131183D01*
X235520Y131453D01*
D02*
G37*
G36*
X234500D02*
X234480D01*
X233474Y131183D01*
X232573Y130663D01*
X231837Y129927D01*
X231317Y129026D01*
X231047Y128020D01*
Y128000D01*
X234500D01*
Y131453D01*
D02*
G37*
G36*
X330024Y128806D02*
X327162D01*
Y127027D01*
X330024D01*
Y128806D01*
D02*
G37*
G36*
X326162D02*
X323299D01*
Y127027D01*
X326162D01*
Y128806D01*
D02*
G37*
G36*
X216129Y126507D02*
X214255D01*
X213390Y126335D01*
X212657Y125846D01*
X212167Y125112D01*
X212094Y124748D01*
X216129D01*
Y126507D01*
D02*
G37*
G36*
X238953Y127000D02*
X235500D01*
Y123547D01*
X235520D01*
X236526Y123817D01*
X237427Y124337D01*
X238163Y125073D01*
X238683Y125974D01*
X238953Y126980D01*
Y127000D01*
D02*
G37*
G36*
X234500D02*
X231047D01*
Y126980D01*
X231317Y125974D01*
X231837Y125073D01*
X232573Y124337D01*
X233474Y123817D01*
X234480Y123547D01*
X234500D01*
Y127000D01*
D02*
G37*
G36*
X312827Y126093D02*
X311161D01*
Y123500D01*
X315854D01*
X315815Y123801D01*
X315506Y124547D01*
X315014Y125187D01*
X314373Y125679D01*
X313627Y125988D01*
X312827Y126093D01*
D02*
G37*
G36*
X326500D02*
X325425D01*
X324625Y125988D01*
X323879Y125679D01*
X323238Y125187D01*
X322746Y124547D01*
X322437Y123801D01*
X322398Y123500D01*
X326500D01*
Y126093D01*
D02*
G37*
G36*
X310161D02*
X308496D01*
X307695Y125988D01*
X306949Y125679D01*
X306309Y125187D01*
X305817Y124547D01*
X305508Y123801D01*
X305469Y123500D01*
X310161D01*
Y126093D01*
D02*
G37*
G36*
X326500Y122500D02*
X322398D01*
X322437Y122199D01*
X322746Y121453D01*
X323238Y120813D01*
X323879Y120321D01*
X324625Y120012D01*
X325425Y119907D01*
X326500D01*
Y122500D01*
D02*
G37*
G36*
X173244Y121180D02*
X168094D01*
Y116031D01*
X173244D01*
Y116751D01*
X173334D01*
X173991Y117024D01*
X174494Y117526D01*
X174766Y118183D01*
Y118894D01*
X174494Y119551D01*
X173991Y120054D01*
X173334Y120326D01*
X173244D01*
Y121180D01*
D02*
G37*
G36*
X159619D02*
X154469D01*
Y116031D01*
X159619D01*
Y116751D01*
X159752D01*
X160409Y117024D01*
X160912Y117526D01*
X161184Y118183D01*
Y118894D01*
X160912Y119551D01*
X160409Y120054D01*
X159752Y120326D01*
X159619D01*
Y121180D01*
D02*
G37*
G36*
X145994D02*
X140844D01*
Y116031D01*
X145994D01*
Y116751D01*
X146109D01*
X146766Y117024D01*
X147268Y117526D01*
X147540Y118183D01*
Y118894D01*
X147268Y119551D01*
X146766Y120054D01*
X146109Y120326D01*
X145994D01*
Y121180D01*
D02*
G37*
G36*
X186774Y121114D02*
X181624D01*
Y115964D01*
X186774D01*
Y116751D01*
X186800D01*
X187457Y117024D01*
X187960Y117526D01*
X188232Y118183D01*
Y118894D01*
X187960Y119551D01*
X187457Y120054D01*
X186800Y120326D01*
X186774D01*
Y121114D01*
D02*
G37*
G36*
X3981Y120847D02*
X3624D01*
X3233Y120769D01*
X3119Y120693D01*
X3055Y120680D01*
X2724Y120459D01*
X2503Y120128D01*
X2490Y120064D01*
X2414Y119949D01*
X2336Y119559D01*
Y117952D01*
X2414Y117562D01*
X2635Y117231D01*
X2688Y117195D01*
X2724Y117142D01*
X2778Y117106D01*
X2813Y117052D01*
X2867Y117016D01*
X2903Y116963D01*
X3233Y116742D01*
X3624Y116664D01*
X3981D01*
X4371Y116742D01*
X4702Y116963D01*
X4738Y117016D01*
X4791Y117052D01*
X4827Y117106D01*
X4880Y117142D01*
X4916Y117195D01*
X4970Y117231D01*
X4970Y117231D01*
X5087Y117235D01*
X5551Y116775D01*
Y116612D01*
X5629Y116222D01*
X5850Y115891D01*
X5903Y115856D01*
X5939Y115802D01*
X6270Y115581D01*
X6334Y115568D01*
X6448Y115492D01*
X6839Y115414D01*
X7107D01*
X7497Y115492D01*
X7611Y115568D01*
X7675Y115581D01*
X8006Y115802D01*
X8042Y115856D01*
X8095Y115891D01*
X8131Y115945D01*
X8185Y115981D01*
X8220Y116034D01*
X8274Y116070D01*
X8310Y116123D01*
X8363Y116159D01*
X8399Y116213D01*
X8453Y116249D01*
X8488Y116302D01*
X8542Y116338D01*
X8578Y116391D01*
X8631Y116427D01*
X8667Y116481D01*
X8721Y116516D01*
X8941Y116847D01*
X9019Y117237D01*
Y118398D01*
X8941Y118789D01*
X8721Y119119D01*
X8667Y119155D01*
X8631Y119209D01*
X8578Y119244D01*
X8542Y119298D01*
X8488Y119334D01*
X8453Y119387D01*
X8399Y119423D01*
X8363Y119476D01*
X8310Y119512D01*
X8274Y119566D01*
X8220Y119602D01*
X8185Y119655D01*
X8131Y119691D01*
X8095Y119745D01*
X8042Y119780D01*
X8006Y119834D01*
X7953Y119869D01*
X7917Y119923D01*
X7586Y120144D01*
X7196Y120222D01*
X5039D01*
X4880Y120459D01*
X4550Y120680D01*
X4486Y120693D01*
X4371Y120769D01*
X3981Y120847D01*
D02*
G37*
G36*
X216129Y112302D02*
X214255D01*
X213390Y112130D01*
X212657Y111640D01*
X212167Y110907D01*
X212094Y110542D01*
X216129D01*
Y112302D01*
D02*
G37*
G36*
X7821Y112631D02*
X3534D01*
X3144Y112553D01*
X2813Y112332D01*
X2778Y112279D01*
X2724Y112243D01*
X2503Y111912D01*
X2490Y111848D01*
X2414Y111733D01*
X2336Y111343D01*
Y111075D01*
X2414Y110685D01*
X2490Y110571D01*
X2503Y110507D01*
X2724Y110176D01*
X2778Y110140D01*
X2813Y110087D01*
X3144Y109865D01*
X3534Y109788D01*
X7821D01*
X8211Y109865D01*
X8542Y110087D01*
X8578Y110140D01*
X8631Y110176D01*
X8667Y110229D01*
X8721Y110265D01*
X8941Y110596D01*
X9019Y110986D01*
Y111433D01*
X8941Y111823D01*
X8721Y112154D01*
X8667Y112189D01*
X8631Y112243D01*
X8578Y112279D01*
X8542Y112332D01*
X8211Y112553D01*
X7821Y112631D01*
D02*
G37*
G36*
X219004Y112302D02*
X217129D01*
Y110042D01*
Y107782D01*
X219004D01*
X219868Y107954D01*
X220318Y108255D01*
X220356D01*
X220521Y108323D01*
X220697Y108358D01*
X220847Y108458D01*
X221012Y108527D01*
X221139Y108654D01*
X221289Y108753D01*
X221388Y108903D01*
X221515Y109029D01*
X221584Y109195D01*
X221684Y109345D01*
X221719Y109521D01*
X221787Y109687D01*
Y109866D01*
X221822Y110042D01*
X221787Y110218D01*
Y110398D01*
X221719Y110563D01*
X221684Y110739D01*
X221584Y110889D01*
X221515Y111055D01*
X221388Y111181D01*
X221289Y111331D01*
X220870Y111749D01*
X220279Y112144D01*
X219582Y112283D01*
X219582Y112283D01*
X219100D01*
X219004Y112302D01*
D02*
G37*
G36*
X7732Y107005D02*
X7464D01*
X7074Y106927D01*
X6959Y106851D01*
X6895Y106838D01*
X6564Y106617D01*
X6415Y106586D01*
X6321D01*
X6166Y106603D01*
X6078Y106624D01*
X5958Y106698D01*
X5952Y106706D01*
X5621Y106927D01*
X5231Y107005D01*
X4874D01*
X4484Y106927D01*
X4153Y106706D01*
X4117Y106652D01*
X4064Y106617D01*
X4028Y106563D01*
X3974Y106527D01*
X3939Y106474D01*
X3885Y106438D01*
X3706Y106170D01*
X3438Y105992D01*
X3403Y105938D01*
X3349Y105902D01*
X3128Y105571D01*
X3115Y105508D01*
X3039Y105393D01*
X2961Y105003D01*
Y104824D01*
X3039Y104434D01*
X3115Y104319D01*
X3128Y104255D01*
X3349Y103925D01*
X3403Y103889D01*
X3438Y103835D01*
X3492Y103799D01*
X3528Y103746D01*
X3591Y103704D01*
X3885Y103313D01*
X3664Y102982D01*
X3586Y102592D01*
Y101914D01*
X3534D01*
X3144Y101837D01*
X2813Y101616D01*
X2778Y101562D01*
X2724Y101526D01*
X2503Y101196D01*
X2490Y101132D01*
X2414Y101017D01*
X2336Y100627D01*
Y100359D01*
X2414Y99969D01*
X2490Y99854D01*
X2503Y99790D01*
X2724Y99459D01*
X2778Y99424D01*
X2813Y99370D01*
X3144Y99149D01*
X3534Y99071D01*
X3586D01*
Y97144D01*
X3664Y96754D01*
X3885Y96423D01*
X3939Y96387D01*
X3974Y96334D01*
X4028Y96298D01*
X4064Y96244D01*
X4117Y96209D01*
X4153Y96155D01*
X4206Y96119D01*
X4214Y96109D01*
X4163Y95945D01*
X3968Y95648D01*
X3892Y95663D01*
X3713D01*
X3323Y95586D01*
X3208Y95509D01*
X3144Y95496D01*
X2813Y95275D01*
X2778Y95222D01*
X2724Y95186D01*
X2503Y94855D01*
X2490Y94791D01*
X2414Y94676D01*
X2336Y94286D01*
Y94018D01*
X2414Y93628D01*
X2635Y93297D01*
X2688Y93262D01*
X2724Y93208D01*
X2778Y93172D01*
X2813Y93119D01*
X2867Y93083D01*
X2903Y93029D01*
X3233Y92809D01*
X3429Y92769D01*
X3565Y92595D01*
X3674Y92407D01*
X3701Y92231D01*
X3664Y92176D01*
X3586Y91786D01*
Y90982D01*
X3664Y90592D01*
X3741Y90477D01*
X3747Y90446D01*
X3741Y90415D01*
X3664Y90301D01*
X3593Y89941D01*
X3233Y89870D01*
X3119Y89793D01*
X3055Y89781D01*
X2724Y89560D01*
X2503Y89229D01*
X2490Y89165D01*
X2414Y89050D01*
X2336Y88660D01*
Y88392D01*
X2414Y88002D01*
X2490Y87887D01*
X2503Y87823D01*
X2660Y87588D01*
X2731Y87460D01*
X2755Y87343D01*
Y87249D01*
X2724Y86970D01*
X2688Y86916D01*
X2635Y86880D01*
X2414Y86550D01*
X2336Y86160D01*
Y85892D01*
X2414Y85501D01*
X2490Y85387D01*
X2503Y85323D01*
X2724Y84992D01*
X2778Y84956D01*
X2813Y84903D01*
X3144Y84682D01*
X3208Y84669D01*
X3323Y84592D01*
X3713Y84515D01*
X7732D01*
X8122Y84592D01*
X8236Y84669D01*
X8300Y84682D01*
X8631Y84903D01*
X8667Y84956D01*
X8721Y84992D01*
X8941Y85323D01*
X9019Y85713D01*
Y86249D01*
X8941Y86639D01*
X8737Y86946D01*
X8658Y87131D01*
X8645Y87305D01*
X8657Y87429D01*
X8721Y87582D01*
X8941Y87913D01*
X9019Y88303D01*
Y88749D01*
X8941Y89140D01*
X8934Y89151D01*
X8941Y89163D01*
X9019Y89553D01*
Y90000D01*
X8941Y90390D01*
X8721Y90721D01*
X8667Y90756D01*
X8631Y90810D01*
X8578Y90846D01*
X8542Y90899D01*
X8211Y91120D01*
X8147Y91133D01*
X8032Y91210D01*
X7642Y91287D01*
X6888D01*
X6881Y91292D01*
X6845Y91346D01*
X6792Y91382D01*
X6756Y91435D01*
X6712Y91464D01*
X6697Y91538D01*
X6680Y91766D01*
X6682Y91807D01*
X6984Y92183D01*
X7374Y92106D01*
X7732D01*
X8122Y92183D01*
X8236Y92260D01*
X8300Y92273D01*
X8631Y92494D01*
X8667Y92547D01*
X8721Y92583D01*
X8941Y92914D01*
X9019Y93304D01*
Y95001D01*
X8941Y95391D01*
X8865Y95505D01*
X8852Y95569D01*
X8631Y95900D01*
X8640Y96017D01*
X8803Y96482D01*
X8893D01*
X9283Y96559D01*
X9397Y96636D01*
X9461Y96649D01*
X9792Y96869D01*
X9828Y96923D01*
X9882Y96959D01*
X9917Y97012D01*
X9971Y97048D01*
X10192Y97379D01*
X10269Y97769D01*
Y98841D01*
X10192Y99231D01*
X9971Y99562D01*
X9917Y99598D01*
X9882Y99651D01*
X9828Y99687D01*
X9792Y99740D01*
X9739Y99776D01*
X9703Y99830D01*
X9649Y99865D01*
X9614Y99919D01*
X9560Y99955D01*
X9524Y100008D01*
X9471Y100044D01*
X9435Y100098D01*
X9381Y100133D01*
X9346Y100187D01*
X9292Y100223D01*
X9256Y100276D01*
X9203Y100312D01*
X9167Y100365D01*
X9019Y100464D01*
Y100716D01*
X8941Y101106D01*
X8721Y101437D01*
X8657Y101591D01*
X8642Y101743D01*
X8657Y101896D01*
X8721Y102049D01*
X8941Y102380D01*
X9019Y102770D01*
Y103217D01*
X8941Y103607D01*
X8721Y103938D01*
X8659Y104088D01*
X8647Y104241D01*
X8662Y104436D01*
X8722Y104597D01*
X8852Y104791D01*
X8865Y104855D01*
X8941Y104970D01*
X9019Y105360D01*
Y105807D01*
X8941Y106197D01*
X8721Y106527D01*
X8667Y106563D01*
X8631Y106617D01*
X8300Y106838D01*
X8236Y106851D01*
X8122Y106927D01*
X7732Y107005D01*
D02*
G37*
G36*
X173244Y108943D02*
X168094D01*
Y103794D01*
X173244D01*
Y104515D01*
X173334D01*
X173991Y104787D01*
X174494Y105289D01*
X174766Y105946D01*
Y106657D01*
X174494Y107314D01*
X173991Y107817D01*
X173334Y108089D01*
X173244D01*
Y108943D01*
D02*
G37*
G36*
X159619D02*
X154469D01*
Y103794D01*
X159619D01*
Y104515D01*
X159752D01*
X160409Y104787D01*
X160912Y105289D01*
X161184Y105946D01*
Y106657D01*
X160912Y107314D01*
X160409Y107817D01*
X159752Y108089D01*
X159619D01*
Y108943D01*
D02*
G37*
G36*
X145994D02*
X140844D01*
Y103794D01*
X145994D01*
Y104515D01*
X146109D01*
X146766Y104787D01*
X147268Y105289D01*
X147540Y105946D01*
Y106657D01*
X147268Y107314D01*
X146766Y107817D01*
X146109Y108089D01*
X145994D01*
Y108943D01*
D02*
G37*
G36*
X186774Y108877D02*
X181624D01*
Y103727D01*
X186774D01*
Y104515D01*
X186800D01*
X187457Y104787D01*
X187960Y105289D01*
X188232Y105946D01*
Y106657D01*
X187960Y107314D01*
X187457Y107817D01*
X186800Y108089D01*
X186774D01*
Y108877D01*
D02*
G37*
G36*
X239500Y99484D02*
Y98256D01*
X240728D01*
X240515Y98768D01*
X240013Y99271D01*
X239500Y99484D01*
D02*
G37*
G36*
X238500D02*
X237987Y99271D01*
X237485Y98768D01*
X237272Y98256D01*
X238500D01*
Y99484D01*
D02*
G37*
G36*
X216129Y98096D02*
X214255D01*
X213390Y97924D01*
X212657Y97435D01*
X212167Y96701D01*
X212094Y96337D01*
X216129D01*
Y98096D01*
D02*
G37*
G36*
X240728Y97256D02*
X239500D01*
Y96028D01*
X240013Y96241D01*
X240515Y96743D01*
X240728Y97256D01*
D02*
G37*
G36*
X238500D02*
X237272D01*
X237485Y96743D01*
X237987Y96241D01*
X238500Y96028D01*
Y97256D01*
D02*
G37*
G36*
X173244Y96706D02*
X168094D01*
Y91557D01*
X173244D01*
Y92277D01*
X173334D01*
X173991Y92550D01*
X174494Y93052D01*
X174766Y93709D01*
Y94420D01*
X174494Y95077D01*
X173991Y95580D01*
X173334Y95852D01*
X173244D01*
Y96706D01*
D02*
G37*
G36*
X159619D02*
X154469D01*
Y91557D01*
X159619D01*
Y92277D01*
X159752D01*
X160409Y92550D01*
X160912Y93052D01*
X161184Y93709D01*
Y94420D01*
X160912Y95077D01*
X160409Y95580D01*
X159752Y95852D01*
X159619D01*
Y96706D01*
D02*
G37*
G36*
X145994D02*
X140844D01*
Y91557D01*
X145994D01*
Y92277D01*
X146109D01*
X146766Y92550D01*
X147268Y93052D01*
X147540Y93709D01*
Y94420D01*
X147268Y95077D01*
X146766Y95580D01*
X146109Y95852D01*
X145994D01*
Y96706D01*
D02*
G37*
G36*
X186774Y96640D02*
X181624D01*
Y91490D01*
X186774D01*
Y92277D01*
X186800D01*
X187457Y92550D01*
X187960Y93052D01*
X188232Y93709D01*
Y94420D01*
X187960Y95077D01*
X187457Y95580D01*
X186800Y95852D01*
X186774D01*
Y96640D01*
D02*
G37*
G36*
X328575Y92078D02*
X327500D01*
Y89484D01*
X331602D01*
X331563Y89785D01*
X331254Y90531D01*
X330762Y91172D01*
X330121Y91663D01*
X329375Y91972D01*
X328575Y92078D01*
D02*
G37*
G36*
X326500D02*
X325425D01*
X324625Y91972D01*
X323879Y91663D01*
X323238Y91172D01*
X322746Y90531D01*
X322437Y89785D01*
X322398Y89484D01*
X326500D01*
Y92078D01*
D02*
G37*
G36*
X331602Y88484D02*
X327500D01*
Y85891D01*
X328575D01*
X329375Y85996D01*
X330121Y86305D01*
X330762Y86797D01*
X331254Y87438D01*
X331563Y88184D01*
X331602Y88484D01*
D02*
G37*
G36*
X326500D02*
X322398D01*
X322437Y88184D01*
X322746Y87438D01*
X323238Y86797D01*
X323879Y86305D01*
X324625Y85996D01*
X325425Y85891D01*
X326500D01*
Y88484D01*
D02*
G37*
G36*
X315854D02*
X311161D01*
Y85891D01*
X312827D01*
X313627Y85996D01*
X314373Y86305D01*
X315014Y86797D01*
X315506Y87438D01*
X315815Y88184D01*
X315854Y88484D01*
D02*
G37*
G36*
X310161D02*
X305469D01*
X305508Y88184D01*
X305817Y87438D01*
X306309Y86797D01*
X306949Y86305D01*
X307695Y85996D01*
X308496Y85891D01*
X310161D01*
Y88484D01*
D02*
G37*
G36*
X216129Y84053D02*
X214255D01*
X213390Y83881D01*
X212657Y83391D01*
X212167Y82658D01*
X212094Y82293D01*
X216129D01*
Y84053D01*
D02*
G37*
G36*
X7196Y82357D02*
X6660D01*
X6270Y82279D01*
X5939Y82058D01*
X5790Y82027D01*
X5696D01*
X5596Y82038D01*
X5341Y82108D01*
X5085Y82279D01*
X4695Y82357D01*
X4160D01*
X3769Y82279D01*
X3438Y82058D01*
X3403Y82005D01*
X3349Y81969D01*
X3313Y81915D01*
X3260Y81880D01*
X3224Y81826D01*
X3171Y81790D01*
X3135Y81737D01*
X3081Y81701D01*
X3046Y81647D01*
X2992Y81612D01*
X2956Y81558D01*
X2903Y81522D01*
X2867Y81469D01*
X2813Y81433D01*
X2778Y81379D01*
X2724Y81344D01*
X2688Y81290D01*
X2635Y81254D01*
X2414Y80924D01*
X2336Y80533D01*
Y78926D01*
X2414Y78536D01*
X2490Y78421D01*
X2503Y78357D01*
X2724Y78026D01*
X2778Y77991D01*
X2813Y77937D01*
X2867Y77901D01*
X2903Y77848D01*
X2956Y77812D01*
X2992Y77759D01*
X3046Y77723D01*
X3081Y77669D01*
X3135Y77633D01*
X3171Y77580D01*
X3224Y77544D01*
X3260Y77491D01*
X3313Y77455D01*
X3349Y77401D01*
X3403Y77365D01*
X3438Y77312D01*
X3769Y77091D01*
X3960Y77053D01*
X4037Y77002D01*
X4427Y76924D01*
X4517D01*
X4907Y77002D01*
X4924Y77013D01*
X6520D01*
X6538Y77002D01*
X6928Y76924D01*
X7017D01*
X7407Y77002D01*
X7522Y77078D01*
X7586Y77091D01*
X7917Y77312D01*
X7953Y77365D01*
X8006Y77401D01*
X8042Y77455D01*
X8095Y77491D01*
X8131Y77544D01*
X8185Y77580D01*
X8220Y77633D01*
X8274Y77669D01*
X8310Y77723D01*
X8363Y77759D01*
X8399Y77812D01*
X8453Y77848D01*
X8488Y77901D01*
X8542Y77937D01*
X8578Y77991D01*
X8631Y78026D01*
X8667Y78080D01*
X8721Y78116D01*
X8941Y78447D01*
X9019Y78837D01*
Y80533D01*
X8941Y80924D01*
X8865Y81038D01*
X8852Y81102D01*
X8631Y81433D01*
X8309Y81648D01*
X8274Y81701D01*
X8220Y81737D01*
X8185Y81790D01*
X8131Y81826D01*
X8095Y81880D01*
X8042Y81915D01*
X8006Y81969D01*
X7953Y82005D01*
X7917Y82058D01*
X7586Y82279D01*
X7196Y82357D01*
D02*
G37*
G36*
X219004Y84053D02*
X217129D01*
Y81793D01*
Y79533D01*
X219004D01*
X219868Y79705D01*
X220318Y80006D01*
X220356D01*
X220521Y80075D01*
X220697Y80110D01*
X220847Y80209D01*
X221012Y80278D01*
X221139Y80405D01*
X221289Y80505D01*
X221388Y80654D01*
X221515Y80781D01*
X221584Y80947D01*
X221684Y81096D01*
X221719Y81272D01*
X221787Y81438D01*
Y81617D01*
X221822Y81793D01*
X221787Y81969D01*
Y82149D01*
X221719Y82315D01*
X221684Y82491D01*
X221584Y82640D01*
X221515Y82806D01*
X221388Y82933D01*
X221289Y83082D01*
X220870Y83500D01*
X220279Y83895D01*
X219582Y84034D01*
X219582Y84034D01*
X219100D01*
X219004Y84053D01*
D02*
G37*
G36*
X159619Y84469D02*
X154469D01*
Y79320D01*
X159619D01*
Y80040D01*
X159752D01*
X160409Y80313D01*
X160912Y80815D01*
X161184Y81472D01*
Y82183D01*
X160912Y82840D01*
X160409Y83343D01*
X159752Y83615D01*
X159619D01*
Y84469D01*
D02*
G37*
G36*
X145994D02*
X140844D01*
Y79320D01*
X145994D01*
Y80040D01*
X146109D01*
X146766Y80313D01*
X147268Y80815D01*
X147540Y81472D01*
Y82183D01*
X147268Y82840D01*
X146766Y83343D01*
X146109Y83615D01*
X145994D01*
Y84469D01*
D02*
G37*
G36*
X186774Y84403D02*
X181624D01*
Y79253D01*
X186774D01*
Y80040D01*
X186800D01*
X187457Y80313D01*
X187960Y80815D01*
X188232Y81472D01*
Y82183D01*
X187960Y82840D01*
X187457Y83343D01*
X186800Y83615D01*
X186774D01*
Y84403D01*
D02*
G37*
G36*
X18750Y141016D02*
X17231Y140866D01*
X15770Y140423D01*
X14424Y139703D01*
X13243Y138735D01*
X12275Y137555D01*
X11555Y136208D01*
X11112Y134748D01*
X10962Y133228D01*
X10971D01*
Y79291D01*
X10962D01*
X11112Y77772D01*
X11555Y76311D01*
X12275Y74965D01*
X13243Y73785D01*
X14424Y72816D01*
X15770Y72097D01*
X17231Y71653D01*
X18750Y71504D01*
X20269Y71653D01*
X21730Y72097D01*
X23076Y72816D01*
X24257Y73785D01*
X25225Y74965D01*
X25945Y76311D01*
X26388Y77772D01*
X26537Y79291D01*
X26529D01*
Y133228D01*
X26537D01*
X26388Y134748D01*
X25945Y136208D01*
X25225Y137555D01*
X24257Y138735D01*
X23076Y139703D01*
X21730Y140423D01*
X20269Y140866D01*
X18750Y141016D01*
D02*
G37*
G36*
X10146Y4966D02*
Y3738D01*
X11373D01*
X11161Y4250D01*
X10658Y4753D01*
X10146Y4966D01*
D02*
G37*
G36*
X9146D02*
X8633Y4753D01*
X8130Y4250D01*
X7918Y3738D01*
X9146D01*
Y4966D01*
D02*
G37*
%LPD*%
G36*
X7732Y137420D02*
X7910D01*
Y137241D01*
X8000D01*
Y136884D01*
X7910D01*
Y136706D01*
X7821D01*
Y136616D01*
X7732D01*
Y136527D01*
X7642D01*
Y136438D01*
X7553D01*
Y136348D01*
X7464D01*
Y136259D01*
X7374D01*
Y136170D01*
X7285D01*
Y136081D01*
X7196D01*
Y135991D01*
X5499D01*
Y135545D01*
X5410D01*
Y135455D01*
X5320D01*
Y135366D01*
X4874D01*
Y135455D01*
X4695D01*
Y135634D01*
X4606D01*
Y135991D01*
X4249D01*
Y136081D01*
X4160D01*
Y136170D01*
X4070D01*
Y136348D01*
X3981D01*
Y136527D01*
X4070D01*
Y136706D01*
X4160D01*
Y136795D01*
X4338D01*
Y136884D01*
X4606D01*
Y137241D01*
X4695D01*
Y137331D01*
X4785D01*
Y137420D01*
X4874D01*
Y137509D01*
X5231D01*
Y137420D01*
X5410D01*
Y137241D01*
X5499D01*
Y136884D01*
X6839D01*
Y136974D01*
X6928D01*
Y137063D01*
X7017D01*
Y137152D01*
X7107D01*
Y137241D01*
X7196D01*
Y137331D01*
X7285D01*
Y137420D01*
X7464D01*
Y137509D01*
X7732D01*
Y137420D01*
D02*
G37*
G36*
X7107Y134920D02*
X7285D01*
Y134741D01*
X7374D01*
Y134652D01*
X7464D01*
Y134562D01*
X7553D01*
Y134473D01*
X7642D01*
Y134384D01*
X7732D01*
Y134294D01*
X7910D01*
Y134205D01*
X8000D01*
Y131794D01*
X7910D01*
Y131705D01*
X7821D01*
Y131615D01*
X7374D01*
Y131705D01*
X7285D01*
Y131794D01*
X7196D01*
Y131883D01*
Y131973D01*
Y133759D01*
X7107D01*
Y133848D01*
X7017D01*
Y133937D01*
X6928D01*
Y133848D01*
X6839D01*
Y133759D01*
X6749D01*
Y132419D01*
X6660D01*
Y132330D01*
X6571D01*
Y132240D01*
X6481D01*
Y132151D01*
X6392D01*
Y132062D01*
X6303D01*
Y131973D01*
X6213D01*
Y131883D01*
X6124D01*
Y131794D01*
X6035D01*
Y131705D01*
X5946D01*
Y131615D01*
X5499D01*
Y131705D01*
X5320D01*
Y131794D01*
X5231D01*
Y131883D01*
X5142D01*
Y131973D01*
X5052D01*
Y132062D01*
X4963D01*
Y132151D01*
X4874D01*
Y132240D01*
X4785D01*
Y132330D01*
X4695D01*
Y132508D01*
X4606D01*
Y134652D01*
X4695D01*
Y134830D01*
X4785D01*
Y134920D01*
X4963D01*
Y135009D01*
X5142D01*
Y134920D01*
X5320D01*
Y134830D01*
X5410D01*
Y134741D01*
X5499D01*
Y132776D01*
X5588D01*
Y132687D01*
X5767D01*
Y132776D01*
X5856D01*
Y133937D01*
X5946D01*
Y134205D01*
X6035D01*
Y134294D01*
X6124D01*
Y134384D01*
X6213D01*
Y134473D01*
X6303D01*
Y134562D01*
X6392D01*
Y134652D01*
X6481D01*
Y134741D01*
X6571D01*
Y134830D01*
X6660D01*
Y134920D01*
X6928D01*
Y135009D01*
X7107D01*
Y134920D01*
D02*
G37*
G36*
X6571Y131079D02*
X6660D01*
Y130990D01*
X6749D01*
Y128668D01*
X6839D01*
Y128758D01*
X6928D01*
Y128847D01*
X7017D01*
Y128936D01*
X7107D01*
Y129025D01*
X7196D01*
Y130365D01*
X7285D01*
Y130454D01*
X7374D01*
Y130544D01*
X7821D01*
Y130454D01*
X7910D01*
Y130365D01*
X8000D01*
Y128579D01*
X7910D01*
Y128490D01*
X7821D01*
Y128400D01*
X7642D01*
Y128311D01*
X7553D01*
Y128222D01*
X7464D01*
Y128132D01*
X7374D01*
Y128043D01*
X7285D01*
Y127865D01*
X7107D01*
Y127775D01*
X5588D01*
Y127865D01*
X5410D01*
Y127954D01*
X5320D01*
Y128043D01*
X5231D01*
Y128132D01*
X5142D01*
Y128222D01*
X5052D01*
Y128311D01*
X4963D01*
Y128400D01*
X4874D01*
Y128490D01*
X4785D01*
Y128579D01*
X4695D01*
Y128758D01*
X4606D01*
Y130276D01*
X4695D01*
Y130454D01*
X4785D01*
Y130544D01*
X4963D01*
Y130633D01*
X5052D01*
Y130722D01*
X5142D01*
Y130812D01*
X5231D01*
Y130901D01*
X5320D01*
Y130990D01*
X5410D01*
Y131169D01*
X6571D01*
Y131079D01*
D02*
G37*
G36*
X7821Y127329D02*
X7910D01*
Y127240D01*
X8000D01*
Y126793D01*
X7910D01*
Y126614D01*
X7821D01*
Y126525D01*
X7732D01*
Y126436D01*
X7642D01*
Y126346D01*
X7553D01*
Y126257D01*
X7464D01*
Y126168D01*
X7374D01*
Y126078D01*
X7285D01*
Y125989D01*
X7196D01*
Y125900D01*
X7107D01*
Y125811D01*
X7017D01*
Y125721D01*
X6928D01*
Y125632D01*
X7017D01*
Y125543D01*
X7107D01*
Y125453D01*
X7196D01*
Y125364D01*
X7285D01*
Y125275D01*
X7374D01*
Y125186D01*
X7464D01*
Y125096D01*
X7553D01*
Y125007D01*
X7642D01*
Y124918D01*
X7821D01*
Y124828D01*
X7910D01*
Y124739D01*
X8000D01*
Y124382D01*
Y124292D01*
Y124203D01*
X7910D01*
Y124114D01*
X7821D01*
Y124024D01*
X3624D01*
Y124114D01*
X3534D01*
Y124203D01*
X3445D01*
Y124292D01*
X3356D01*
Y124560D01*
X3445D01*
Y124739D01*
X3534D01*
Y124828D01*
X3713D01*
Y124918D01*
X6481D01*
Y125007D01*
X6392D01*
Y125096D01*
X6303D01*
Y125186D01*
X6213D01*
Y125275D01*
X6124D01*
Y125364D01*
X6035D01*
Y125453D01*
X5946D01*
Y125721D01*
X5856D01*
Y125811D01*
X5946D01*
Y125989D01*
X6035D01*
Y126078D01*
X6124D01*
Y126168D01*
X6213D01*
Y126257D01*
X6303D01*
Y126346D01*
X6392D01*
Y126436D01*
X6481D01*
Y126525D01*
X3713D01*
Y126614D01*
X3534D01*
Y126704D01*
X3445D01*
Y126882D01*
X3356D01*
Y127150D01*
X3445D01*
Y127240D01*
X3534D01*
Y127329D01*
X3624D01*
Y127418D01*
X7821D01*
Y127329D01*
D02*
G37*
%LPC*%
G36*
X5856Y130276D02*
X5767D01*
Y130186D01*
X5678D01*
Y130097D01*
X5588D01*
Y130008D01*
X5499D01*
Y129383D01*
Y129294D01*
Y129025D01*
X5588D01*
Y128936D01*
X5678D01*
Y128847D01*
X5767D01*
Y128758D01*
X5856D01*
Y130276D01*
D02*
G37*
%LPD*%
G36*
X3981Y119738D02*
X4160D01*
Y119559D01*
X4249D01*
Y119202D01*
X7196D01*
Y119113D01*
X7285D01*
Y119024D01*
X7374D01*
Y118934D01*
X7464D01*
Y118845D01*
X7553D01*
Y118756D01*
X7642D01*
Y118666D01*
X7732D01*
Y118577D01*
X7821D01*
Y118488D01*
X7910D01*
Y118398D01*
X8000D01*
Y117237D01*
X7910D01*
Y117148D01*
X7821D01*
Y117059D01*
X7732D01*
Y116970D01*
X7642D01*
Y116880D01*
X7553D01*
Y116791D01*
X7464D01*
Y116702D01*
X7374D01*
Y116612D01*
X7285D01*
Y116523D01*
X7107D01*
Y116434D01*
X6839D01*
Y116523D01*
X6660D01*
Y116612D01*
X6571D01*
Y117148D01*
X6660D01*
Y117237D01*
X6749D01*
Y117327D01*
X6839D01*
Y117416D01*
X6928D01*
Y117505D01*
X7017D01*
Y117595D01*
X7107D01*
Y117684D01*
X7196D01*
Y117952D01*
X7107D01*
Y118041D01*
X7017D01*
Y118130D01*
X6928D01*
Y118220D01*
X6839D01*
Y118309D01*
X4249D01*
Y117952D01*
X4160D01*
Y117862D01*
X4070D01*
Y117773D01*
X3981D01*
Y117684D01*
X3624D01*
Y117773D01*
X3534D01*
Y117862D01*
X3445D01*
Y117952D01*
X3356D01*
Y119559D01*
X3445D01*
Y119738D01*
X3624D01*
Y119827D01*
X3981D01*
Y119738D01*
D02*
G37*
G36*
X7821Y111522D02*
X7910D01*
Y111433D01*
X8000D01*
Y110986D01*
X7910D01*
Y110897D01*
X7821D01*
Y110808D01*
X3534D01*
Y110897D01*
X3445D01*
Y111075D01*
X3356D01*
Y111343D01*
X3445D01*
Y111522D01*
X3534D01*
Y111611D01*
X7821D01*
Y111522D01*
D02*
G37*
G36*
X7732Y105896D02*
X7910D01*
Y105807D01*
X8000D01*
Y105360D01*
X7910D01*
Y105181D01*
X7821D01*
Y105092D01*
X7732D01*
Y105003D01*
X7642D01*
Y104913D01*
X7553D01*
Y104824D01*
X7464D01*
Y104735D01*
X7374D01*
Y104646D01*
X7285D01*
Y104556D01*
X7196D01*
Y104467D01*
X5499D01*
Y104020D01*
X5410D01*
Y103931D01*
X5320D01*
Y103842D01*
X4874D01*
Y103931D01*
X4695D01*
Y104110D01*
X4606D01*
Y104467D01*
X4249D01*
Y104556D01*
X4160D01*
Y104646D01*
X4070D01*
Y104824D01*
X3981D01*
Y105003D01*
X4070D01*
Y105181D01*
X4160D01*
Y105271D01*
X4338D01*
Y105360D01*
X4606D01*
Y105717D01*
X4695D01*
Y105807D01*
X4785D01*
Y105896D01*
X4874D01*
Y105985D01*
X5231D01*
Y105896D01*
X5320D01*
Y105807D01*
X5410D01*
Y105717D01*
X5499D01*
Y105360D01*
X6839D01*
Y105449D01*
X6928D01*
Y105539D01*
X7017D01*
Y105628D01*
X7107D01*
Y105717D01*
X7196D01*
Y105807D01*
X7285D01*
Y105896D01*
X7464D01*
Y105985D01*
X7732D01*
Y105896D01*
D02*
G37*
G36*
X7642Y103395D02*
X7821D01*
Y103306D01*
X7910D01*
Y103217D01*
X8000D01*
Y102770D01*
X7910D01*
Y102681D01*
X7821D01*
Y102592D01*
X5856D01*
Y102502D01*
X5767D01*
Y102413D01*
X5678D01*
Y102324D01*
X5588D01*
Y102234D01*
X5499D01*
Y101252D01*
X5588D01*
Y101163D01*
X5678D01*
Y101073D01*
X5767D01*
Y100984D01*
X7642D01*
Y100895D01*
X7821D01*
Y100805D01*
X7910D01*
Y100716D01*
X8000D01*
Y100270D01*
X7910D01*
Y100180D01*
X7821D01*
Y100091D01*
X3534D01*
Y100180D01*
X3445D01*
Y100359D01*
X3356D01*
Y100627D01*
X3445D01*
Y100805D01*
X3534D01*
Y100895D01*
X4695D01*
Y100984D01*
X4606D01*
Y102056D01*
Y102145D01*
Y102592D01*
X4695D01*
Y102681D01*
X4785D01*
Y102770D01*
X4874D01*
Y102859D01*
X4963D01*
Y102949D01*
X5052D01*
Y103038D01*
X5142D01*
Y103127D01*
X5231D01*
Y103217D01*
X5320D01*
Y103306D01*
X5410D01*
Y103395D01*
X5588D01*
Y103485D01*
X7642D01*
Y103395D01*
D02*
G37*
G36*
X8446Y99555D02*
X8535D01*
Y99466D01*
X8625D01*
Y99377D01*
X8714D01*
Y99287D01*
X8803D01*
Y99198D01*
X8893D01*
Y99109D01*
X8982D01*
Y99019D01*
X9071D01*
Y98930D01*
X9161D01*
Y98841D01*
X9250D01*
Y97769D01*
X9161D01*
Y97680D01*
X9071D01*
Y97591D01*
X8893D01*
Y97501D01*
X8803D01*
Y97591D01*
X8625D01*
Y97680D01*
X8535D01*
Y97769D01*
X8446D01*
Y98394D01*
X8357D01*
Y98573D01*
X8268D01*
Y98662D01*
X8178D01*
Y98751D01*
X8089D01*
Y98841D01*
X8000D01*
Y97144D01*
X7910D01*
Y97055D01*
X7821D01*
Y96965D01*
X7732D01*
Y96876D01*
X7642D01*
Y96787D01*
X7553D01*
Y96697D01*
X7464D01*
Y96608D01*
X7374D01*
Y96430D01*
X7285D01*
Y96340D01*
X7107D01*
Y96251D01*
X5588D01*
Y96340D01*
X5410D01*
Y96430D01*
X5320D01*
Y96519D01*
X5231D01*
Y96608D01*
X5142D01*
Y96697D01*
X5052D01*
Y96787D01*
X4963D01*
Y96876D01*
X4874D01*
Y96965D01*
X4785D01*
Y97055D01*
X4695D01*
Y97144D01*
X4606D01*
Y99377D01*
X4695D01*
Y99555D01*
X4785D01*
Y99645D01*
X8446D01*
Y99555D01*
D02*
G37*
G36*
X3892Y94554D02*
X4070D01*
Y94465D01*
X4160D01*
Y94375D01*
X4249D01*
Y94197D01*
Y94108D01*
Y94018D01*
X4160D01*
Y93929D01*
X4070D01*
Y93840D01*
X3981D01*
Y93750D01*
X3624D01*
Y93840D01*
X3534D01*
Y93929D01*
X3445D01*
Y94018D01*
X3356D01*
Y94286D01*
X3445D01*
Y94465D01*
X3534D01*
Y94554D01*
X3713D01*
Y94643D01*
X3892D01*
Y94554D01*
D02*
G37*
G36*
X7821Y95179D02*
X7910D01*
Y95001D01*
X8000D01*
Y93304D01*
X7910D01*
Y93215D01*
X7732D01*
Y93125D01*
X7374D01*
Y93215D01*
X7285D01*
Y93304D01*
X7196D01*
Y93750D01*
X5499D01*
Y93393D01*
X5410D01*
Y93215D01*
X5231D01*
Y93125D01*
X4874D01*
Y93215D01*
X4785D01*
Y93304D01*
X4695D01*
Y93483D01*
X4606D01*
Y94375D01*
X4695D01*
Y94465D01*
X4785D01*
Y94554D01*
X4874D01*
Y94643D01*
X7107D01*
Y94822D01*
X7196D01*
Y95090D01*
X7285D01*
Y95179D01*
X7464D01*
Y95269D01*
X7821D01*
Y95179D01*
D02*
G37*
G36*
X5320Y91964D02*
X5410D01*
Y91875D01*
X5499D01*
Y91161D01*
X5588D01*
Y91071D01*
X5678D01*
Y90982D01*
X5767D01*
Y90893D01*
X5856D01*
Y90803D01*
X5946D01*
Y90714D01*
X6035D01*
Y90625D01*
X6124D01*
Y90535D01*
X6213D01*
Y90446D01*
X6303D01*
Y90357D01*
X6392D01*
Y90268D01*
X7642D01*
Y90178D01*
X7821D01*
Y90089D01*
X7910D01*
Y90000D01*
X8000D01*
Y89553D01*
X7910D01*
Y89464D01*
X7821D01*
Y89375D01*
X4874D01*
Y89464D01*
X4695D01*
Y89642D01*
X4606D01*
Y89910D01*
X4695D01*
Y90089D01*
X4785D01*
Y90178D01*
X5231D01*
Y90357D01*
X5142D01*
Y90446D01*
X5052D01*
Y90535D01*
X4963D01*
Y90625D01*
X4874D01*
Y90714D01*
X4785D01*
Y90803D01*
X4695D01*
Y90982D01*
X4606D01*
Y91786D01*
X4695D01*
Y91964D01*
X4785D01*
Y92054D01*
X5320D01*
Y91964D01*
D02*
G37*
G36*
X7821Y88839D02*
X7910D01*
Y88749D01*
X8000D01*
Y88303D01*
X7910D01*
Y88214D01*
X7821D01*
Y88124D01*
X7732D01*
Y88035D01*
X7642D01*
Y87946D01*
X7553D01*
Y87856D01*
X7464D01*
Y87767D01*
X7374D01*
Y87678D01*
X7285D01*
Y87588D01*
X7196D01*
Y87499D01*
X7107D01*
Y87410D01*
X7017D01*
Y87321D01*
X6928D01*
Y87231D01*
X7017D01*
Y87142D01*
X7107D01*
Y87053D01*
X7196D01*
Y86963D01*
X7285D01*
Y86874D01*
X7374D01*
Y86785D01*
X7464D01*
Y86695D01*
X7553D01*
Y86606D01*
X7642D01*
Y86517D01*
X7732D01*
Y86427D01*
X7821D01*
Y86338D01*
X7910D01*
Y86249D01*
X8000D01*
Y85713D01*
X7910D01*
Y85624D01*
X7732D01*
Y85535D01*
X3713D01*
Y85624D01*
X3534D01*
Y85713D01*
X3445D01*
Y85892D01*
X3356D01*
Y86160D01*
X3445D01*
Y86249D01*
X3534D01*
Y86338D01*
X3624D01*
Y86427D01*
X6481D01*
Y86517D01*
X6392D01*
Y86606D01*
X6303D01*
Y86695D01*
X6213D01*
Y86785D01*
X6124D01*
Y86874D01*
X6035D01*
Y86963D01*
X5946D01*
Y87231D01*
X5856D01*
Y87410D01*
X5946D01*
Y87588D01*
X6124D01*
Y87678D01*
X6213D01*
Y87767D01*
X6303D01*
Y87856D01*
X6392D01*
Y87946D01*
X6481D01*
Y88124D01*
X3534D01*
Y88214D01*
X3445D01*
Y88392D01*
X3356D01*
Y88660D01*
X3445D01*
Y88839D01*
X3624D01*
Y88928D01*
X7821D01*
Y88839D01*
D02*
G37*
%LPC*%
G36*
X7107Y98841D02*
X5499D01*
Y97501D01*
X5588D01*
Y97412D01*
X5678D01*
Y97323D01*
X5767D01*
Y97233D01*
X5856D01*
Y97144D01*
X6839D01*
Y97233D01*
X6928D01*
Y97323D01*
X7017D01*
Y97412D01*
X7107D01*
Y97591D01*
X7196D01*
Y98751D01*
X7107D01*
Y98841D01*
D02*
G37*
%LPD*%
G36*
X7196Y81248D02*
X7285D01*
Y81159D01*
X7374D01*
Y81069D01*
X7464D01*
Y80980D01*
X7553D01*
Y80891D01*
X7642D01*
Y80801D01*
X7732D01*
Y80712D01*
X7910D01*
Y80533D01*
X8000D01*
Y78837D01*
X7910D01*
Y78747D01*
X7821D01*
Y78658D01*
X7732D01*
Y78569D01*
X7642D01*
Y78479D01*
X7553D01*
Y78390D01*
X7464D01*
Y78301D01*
X7374D01*
Y78211D01*
X7285D01*
Y78122D01*
X7196D01*
Y78033D01*
X7017D01*
Y77944D01*
X6928D01*
Y78033D01*
X4517D01*
Y77944D01*
X4427D01*
Y78033D01*
X4160D01*
Y78122D01*
X4070D01*
Y78211D01*
X3981D01*
Y78301D01*
X3892D01*
Y78390D01*
X3802D01*
Y78479D01*
X3713D01*
Y78569D01*
X3624D01*
Y78658D01*
X3534D01*
Y78747D01*
X3445D01*
Y78926D01*
X3356D01*
Y80533D01*
X3445D01*
Y80623D01*
X3534D01*
Y80712D01*
X3624D01*
Y80801D01*
X3713D01*
Y80891D01*
X3802D01*
Y80980D01*
X3892D01*
Y81069D01*
X3981D01*
Y81159D01*
X4070D01*
Y81248D01*
X4160D01*
Y81337D01*
X4695D01*
Y81248D01*
X4785D01*
Y81159D01*
X4874D01*
Y80801D01*
X4785D01*
Y80623D01*
X4695D01*
Y80533D01*
X4606D01*
Y80444D01*
X4517D01*
Y80355D01*
X4427D01*
Y80265D01*
X4338D01*
Y80176D01*
X4249D01*
Y79194D01*
X4338D01*
Y79105D01*
X4427D01*
Y79015D01*
X4517D01*
Y78926D01*
X4606D01*
Y78837D01*
X6749D01*
Y78926D01*
X6928D01*
Y79015D01*
X7017D01*
Y79105D01*
X7107D01*
Y79194D01*
X7196D01*
Y80176D01*
X7107D01*
Y80265D01*
X7017D01*
Y80355D01*
X6928D01*
Y80444D01*
X6839D01*
Y80533D01*
X6749D01*
Y80623D01*
X6660D01*
Y80712D01*
X6571D01*
Y81248D01*
X6660D01*
Y81337D01*
X7196D01*
Y81248D01*
D02*
G37*
%LPC*%
G36*
X321500Y165500D02*
X320272D01*
X320485Y164988D01*
X320988Y164485D01*
X321500Y164272D01*
Y165500D01*
D02*
G37*
%LPD*%
D10*
X337008Y200709D02*
X336967Y201684D01*
X336847Y202653D01*
X336647Y203608D01*
X336368Y204544D01*
X336013Y205453D01*
X335584Y206330D01*
X335085Y207169D01*
X334517Y207963D01*
X333887Y208708D01*
X333196Y209398D01*
X332451Y210029D01*
X331657Y210596D01*
X330818Y211096D01*
X329941Y211525D01*
X329032Y211880D01*
X328096Y212158D01*
X327141Y212359D01*
X326172Y212479D01*
X325197Y212520D01*
Y0D02*
X326172Y40D01*
X327141Y161D01*
X328096Y361D01*
X329032Y640D01*
X329941Y995D01*
X330818Y1424D01*
X331657Y1923D01*
X332451Y2490D01*
X333196Y3121D01*
X333887Y3812D01*
X334517Y4557D01*
X335085Y5351D01*
X335584Y6190D01*
X336013Y7067D01*
X336368Y7976D01*
X336647Y8912D01*
X336847Y9867D01*
X336967Y10836D01*
X337008Y11811D01*
X11811Y212520D02*
X10836Y212479D01*
X9867Y212359D01*
X8912Y212158D01*
X7976Y211880D01*
X7067Y211525D01*
X6190Y211096D01*
X5351Y210596D01*
X4557Y210029D01*
X3812Y209398D01*
X3121Y208708D01*
X2490Y207963D01*
X1923Y207169D01*
X1424Y206330D01*
X995Y205453D01*
X640Y204544D01*
X361Y203608D01*
X161Y202653D01*
X40Y201684D01*
X0Y200709D01*
Y11811D02*
X40Y10836D01*
X161Y9867D01*
X361Y8912D01*
X640Y7976D01*
X995Y7067D01*
X1424Y6190D01*
X1923Y5351D01*
X2490Y4557D01*
X3121Y3812D01*
X3812Y3121D01*
X4557Y2490D01*
X5351Y1923D01*
X6190Y1424D01*
X7067Y995D01*
X7976Y640D01*
X8912Y361D01*
X9867Y161D01*
X10836Y40D01*
X11811Y0D01*
X325197D01*
X11811Y212520D02*
X325197D01*
X337008Y11811D02*
Y200709D01*
X0Y11811D02*
Y200709D01*
X264000Y173800D02*
Y176000D01*
D11*
X296435Y98944D02*
X296463Y98972D01*
X307709Y94083D02*
X308398Y93394D01*
X299123Y98972D02*
X299151Y99000D01*
X296420Y115441D02*
X298131D01*
X296463Y98972D02*
X299123D01*
X305962Y100972D02*
X308299D01*
X304585Y99596D02*
X305962Y100972D01*
X302868Y99596D02*
X304585D01*
X302718Y99447D02*
X302868Y99596D01*
X308299Y100972D02*
X308398Y101071D01*
X311053Y106878D02*
X311629Y106301D01*
Y103714D02*
Y106301D01*
X308398Y106976D02*
X308496Y106878D01*
X311053D01*
X309972Y103138D02*
X311053D01*
X311629Y103714D01*
X305055Y105683D02*
Y108945D01*
Y105683D02*
X305632Y105106D01*
X308299D01*
X308398Y105008D01*
X305482Y103097D02*
X308340D01*
X302284Y104500D02*
X302503Y104280D01*
X304298D01*
X308340Y103097D02*
X308398Y103039D01*
X304298Y104280D02*
X305482Y103097D01*
X302856Y114928D02*
X304072D01*
X306020Y112980D02*
X308299D01*
X302284Y115500D02*
X302856Y114928D01*
X304072D02*
X306020Y112980D01*
X305055Y108945D02*
X308398D01*
X302284Y110000D02*
X302582Y109702D01*
X304298D01*
X305055Y108945D01*
X308299Y112980D02*
X308398Y112882D01*
D12*
X199981Y165809D02*
X200000Y165829D01*
X199981Y158289D02*
X200000Y158270D01*
X199981Y158289D02*
Y165809D01*
Y158250D02*
X200000Y158270D01*
X200000Y177462D02*
X243038D01*
X199981Y177481D02*
X200000Y177462D01*
X243038D02*
X246500Y174000D01*
X167538Y177462D02*
X200000D01*
X150000Y195000D02*
X167538Y177462D01*
X163977Y175477D02*
X243023D01*
X245000Y173500D01*
X160630Y165829D02*
Y172130D01*
X322000Y166000D02*
X327673D01*
X254512Y155047D02*
X257953D01*
X258000Y155000D01*
X216629Y124248D02*
X217048Y124666D01*
X216629Y110042D02*
X217048Y110460D01*
X216629Y81793D02*
X217048Y82212D01*
X216629Y95837D02*
X217048Y96255D01*
X293300Y154000D02*
X293351Y153949D01*
X216608Y138293D02*
X220000D01*
X246378Y156622D02*
X254512D01*
X245000Y158000D02*
X246378Y156622D01*
X245000Y158000D02*
Y173500D01*
X140000Y195000D02*
Y205000D01*
Y195000D02*
X159523Y175477D01*
X163977D01*
X160630Y172130D02*
X163977Y175477D01*
X190000Y195000D02*
X202011Y182989D01*
X243633Y180627D02*
X249631Y174629D01*
X180000Y195000D02*
X193192Y181808D01*
X170000Y195000D02*
X184373Y180627D01*
X160000Y195000D02*
X175554Y179446D01*
X202011Y182989D02*
X255148D01*
X210830Y184170D02*
X255637D01*
X254659Y181808D02*
X257799Y178668D01*
X200000Y195000D02*
X210830Y184170D01*
X255148Y182989D02*
X259374Y178763D01*
X256467Y186681D02*
X265984Y177164D01*
X193192Y181808D02*
X254659D01*
X255637Y184170D02*
X260835Y178973D01*
X184373Y180627D02*
X243633D01*
X175554Y179446D02*
X243054D01*
X255978Y185500D02*
X262016Y179462D01*
X210000Y195000D02*
X219500Y185500D01*
X228319Y186681D02*
X256467D01*
X243054Y179446D02*
X248000Y174500D01*
X219500Y185500D02*
X255978D01*
X220000Y195000D02*
X228319Y186681D01*
X150000Y195000D02*
Y205000D01*
X236819Y188181D02*
X256638D01*
X230000Y195000D02*
X236819Y188181D01*
X240000Y195000D02*
X245638Y189362D01*
X257160D01*
X248728Y159772D02*
X254512D01*
X248000Y160500D02*
X248728Y159772D01*
X249631Y161808D02*
Y174629D01*
Y161808D02*
X250092Y161346D01*
X247303Y158197D02*
X254512D01*
X246500Y159000D02*
Y174000D01*
X248000Y160500D02*
Y174500D01*
X246500Y159000D02*
X247303Y158197D01*
X250092Y161346D02*
X254512D01*
X276697Y102228D02*
Y137587D01*
X289536Y190866D02*
Y194536D01*
X290000Y195000D02*
Y205000D01*
X289536Y194536D02*
X290000Y195000D01*
X276697Y178026D02*
X289536Y190866D01*
X276697Y164634D02*
Y178026D01*
X235043Y137543D02*
X238673D01*
X235000Y137500D02*
X235043Y137543D01*
X238673D02*
X248303Y147173D01*
X247516Y130016D02*
Y144595D01*
X235000Y117500D02*
X247516Y130016D01*
X223534Y119136D02*
Y130310D01*
Y119136D02*
X229562Y113109D01*
X223031Y130813D02*
X223534Y130310D01*
X216608Y130813D02*
X223031D01*
X253252Y145598D02*
X254512D01*
X252858Y145205D02*
X253252Y145598D01*
X247516Y144595D02*
X248126Y145205D01*
X252858D01*
X330494Y168500D02*
X331610Y167384D01*
X329707Y161000D02*
X331610Y162903D01*
Y167384D01*
X294489Y168500D02*
X330494D01*
X327673Y161000D02*
X329707D01*
X329642Y156000D02*
X332791Y159150D01*
X293648Y171000D02*
X332000D01*
X330000Y151358D02*
X333972Y155331D01*
X332791Y159150D02*
Y168538D01*
X333972Y155331D02*
Y169028D01*
X331330Y170000D02*
X332791Y168538D01*
X332000Y171000D02*
X333972Y169028D01*
X265006Y93920D02*
X273547Y102461D01*
Y137587D01*
X255122Y93803D02*
X271972Y110654D01*
Y137587D01*
X275122Y93803D02*
Y137587D01*
X276697Y102228D02*
X285122Y93803D01*
X231011Y106022D02*
X248522D01*
X221478Y103171D02*
X229054Y110746D01*
X229562Y113109D02*
X241400D01*
X230032Y108384D02*
X243884D01*
X230522Y107203D02*
X245203D01*
X227670Y101011D02*
X231500Y104841D01*
X224233Y116767D02*
X229073Y111927D01*
X243884Y108384D02*
X260287Y124787D01*
X222946Y102968D02*
X229543Y109565D01*
X241400Y113109D02*
X254527Y126236D01*
X248522Y106022D02*
X265673Y123173D01*
X229543Y109565D02*
X243395D01*
X228851Y100522D02*
X231989Y103660D01*
X230032Y100032D02*
X232479Y102479D01*
X224127D02*
X230032Y108384D01*
X250006Y103660D02*
X268823Y122476D01*
X229054Y110746D02*
X242746D01*
X241889Y111927D02*
X255709Y125747D01*
X250759Y102479D02*
X270398Y122117D01*
X226489Y101500D02*
X231011Y106022D01*
X232479Y102479D02*
X250759D01*
X229073Y111927D02*
X241889D01*
X245203Y107203D02*
X261630Y123630D01*
X231989Y103660D02*
X250006D01*
X242746Y110746D02*
X257799Y125799D01*
X249517Y104841D02*
X267248Y122572D01*
X231500Y104841D02*
X249517D01*
X225308Y101989D02*
X230522Y107203D01*
X243395Y109565D02*
X259043Y125214D01*
X226489Y70603D02*
Y101500D01*
X222946Y89536D02*
Y102968D01*
X225308Y71116D02*
Y101989D01*
X228851Y97830D02*
Y100522D01*
X217238Y103171D02*
X221478D01*
X230032Y69136D02*
Y100032D01*
X224127Y76674D02*
Y102479D01*
X227670Y70114D02*
Y101011D01*
X216629Y102562D02*
X217238Y103171D01*
X224847Y70655D02*
X225308Y71116D01*
X221766Y74313D02*
X224127Y76674D01*
X225360Y69474D02*
X226489Y70603D01*
X221766Y88356D02*
X222946Y89536D01*
X226828Y65931D02*
X230032Y69136D01*
X228851Y69625D02*
Y97830D01*
X226339Y67112D02*
X228851Y69625D01*
X225849Y68293D02*
X227670Y70114D01*
X198296Y70655D02*
X224847D01*
X270398Y122117D02*
Y137587D01*
X267248Y122572D02*
Y137587D01*
X268823Y122476D02*
Y137587D01*
X265673Y123173D02*
Y137587D01*
X261630Y123630D02*
Y132209D01*
X262524Y133103D01*
X296704Y104500D02*
X298716D01*
X292000Y109204D02*
X296704Y104500D01*
X292000Y109204D02*
Y143000D01*
X293181Y113239D02*
Y143489D01*
X289497Y147173D02*
X293181Y143489D01*
X289402Y145598D02*
X292000Y143000D01*
X293181Y113239D02*
X296420Y110000D01*
X295959Y151301D02*
X299026D01*
X299327Y151000D01*
X288302Y151507D02*
X288763Y151969D01*
X288302Y150511D02*
Y151507D01*
X295292Y151969D02*
X295959Y151301D01*
X288763Y151969D02*
X295292D01*
X287670Y149879D02*
X288302Y150511D01*
X144569Y65931D02*
X226828D01*
X142822Y67678D02*
Y74461D01*
Y67678D02*
X144569Y65931D01*
X169822Y70451D02*
Y74461D01*
X171981Y68293D02*
X225849D01*
X169822Y70451D02*
X171981Y68293D01*
X196800Y72151D02*
Y74322D01*
Y72151D02*
X198296Y70655D01*
X185380Y69474D02*
X225360D01*
X183228Y71627D02*
Y74394D01*
Y71627D02*
X185380Y69474D01*
X156322Y69014D02*
X158225Y67112D01*
X226339D01*
X156322Y69014D02*
Y74461D01*
X196728Y74394D02*
X196800Y74322D01*
X216629Y74313D02*
X221766D01*
X216629Y116767D02*
X224233D01*
X254512Y140874D02*
X255709D01*
Y125747D02*
Y140874D01*
X259043Y125214D02*
Y132963D01*
X260287Y124787D02*
Y132537D01*
X257799Y136041D02*
Y137587D01*
Y125799D02*
Y136041D01*
X259043Y132963D02*
X259374Y133294D01*
X254527Y126236D02*
Y135972D01*
X251500Y139000D02*
X254527Y135972D01*
X216629Y88356D02*
X221766D01*
X260287Y132537D02*
X260949Y133198D01*
X251500Y139000D02*
Y141500D01*
X203390Y78053D02*
X209069D01*
X167397Y78995D02*
X173076D01*
X203392Y134553D02*
X209048D01*
X201584Y120507D02*
X209069D01*
X199615Y130776D02*
X203392Y134553D01*
X199615Y106302D02*
X209069D01*
X199615Y81828D02*
X203390Y78053D01*
X201584Y92096D02*
X209069D01*
X199615Y94065D02*
X201584Y92096D01*
X199615Y118539D02*
X201584Y120507D01*
X278272Y162233D02*
Y164634D01*
Y169000D02*
X278486Y169214D01*
X278272Y164634D02*
Y169000D01*
X278500Y169200D02*
X278700Y169000D01*
X262524Y133103D02*
Y137587D01*
X260949Y133198D02*
Y137587D01*
X259374Y133294D02*
Y137587D01*
X280000Y195000D02*
Y205000D01*
Y183000D02*
Y195000D01*
X275122Y164634D02*
Y178122D01*
X280000Y183000D01*
X160000Y195000D02*
Y205000D01*
X170000Y195000D02*
Y205000D01*
X180000Y195000D02*
Y205000D01*
X190000Y195000D02*
Y205000D01*
X200000Y195000D02*
Y205000D01*
X210000Y195000D02*
Y205000D01*
X220000Y195000D02*
Y205000D01*
X230000Y195000D02*
Y205000D01*
X240000Y195000D02*
Y205000D01*
X250000Y195000D02*
Y205000D01*
X260000Y195000D02*
Y205000D01*
X270000Y195000D02*
Y205000D01*
X257192Y191000D02*
X258819Y189373D01*
X254000Y191000D02*
X257192D01*
X250000Y195000D02*
X254000Y191000D01*
X257638Y188851D02*
X268823Y177666D01*
X257160Y189362D02*
X257638Y188884D01*
Y188851D02*
Y188884D01*
X256638Y188181D02*
X267248Y177571D01*
X262016Y167905D02*
X262524Y167397D01*
X262016Y167905D02*
Y179462D01*
X260835Y166181D02*
X260949Y166067D01*
Y164634D02*
Y166067D01*
X260835Y166181D02*
Y178973D01*
X260000Y189830D02*
X271972Y177857D01*
X258819Y189340D02*
X270398Y177762D01*
X265984Y167905D02*
Y177164D01*
X265673Y167594D02*
X265984Y167905D01*
X258819Y189340D02*
Y189373D01*
X270398Y164634D02*
Y177762D01*
X271972Y164634D02*
Y177857D01*
X267248Y164634D02*
Y177571D01*
X270000Y181500D02*
Y195000D01*
X268823Y164634D02*
Y177666D01*
X273547Y164634D02*
Y177953D01*
X270000Y181500D02*
X273547Y177953D01*
X260000Y189830D02*
Y195000D01*
X257799Y164634D02*
Y178668D01*
X259374Y164634D02*
Y178763D01*
X262524Y164634D02*
Y167397D01*
X264560Y161500D02*
X277539D01*
X265673Y164634D02*
Y167594D01*
X243051Y165697D02*
X243745Y165004D01*
X239729Y165697D02*
X243051D01*
X243745Y156004D02*
Y165004D01*
X239547Y165879D02*
X239729Y165697D01*
X264098Y164634D02*
Y169102D01*
Y161961D02*
X264560Y161500D01*
X264000Y169200D02*
X264098Y169102D01*
X278272Y137587D02*
Y140728D01*
Y135228D02*
Y137587D01*
Y135228D02*
X278974Y134526D01*
Y133500D02*
Y134526D01*
X278700Y131500D02*
Y133500D01*
Y131500D02*
X281200Y129000D01*
X241276Y148602D02*
X243602D01*
X263000Y130800D02*
X264098Y131898D01*
X281200Y124940D02*
Y129000D01*
X281559Y142449D02*
X284851D01*
X278949D02*
X281559D01*
Y150323D02*
X287226D01*
X281559Y148748D02*
Y150323D01*
X278272Y148748D02*
X281559D01*
X278272D02*
X279846Y150323D01*
X281559D01*
X326354Y143000D02*
X326661Y142692D01*
X323000Y143000D02*
X326354D01*
X321000Y145000D02*
X323000Y143000D01*
X318783Y145000D02*
X321000D01*
X243602Y148602D02*
X245323Y150323D01*
X254512D01*
X278272Y140874D02*
X281559D01*
X278272D02*
Y141772D01*
X278949Y142449D01*
X278272Y154076D02*
Y162233D01*
X306933Y145000D02*
Y145012D01*
X300945Y151000D02*
X306933Y145012D01*
X284851Y142449D02*
X286500Y140800D01*
X280760Y124500D02*
X281200Y124940D01*
X277539Y161500D02*
X278272Y162233D01*
X264098Y161961D02*
Y164634D01*
X260500Y158363D02*
X264098Y161961D01*
X260500Y153500D02*
Y158363D01*
X257323Y150323D02*
X260500Y153500D01*
X254512Y150323D02*
X257323D01*
X278000Y141000D02*
X278126Y140874D01*
X265000Y141000D02*
X278000D01*
X264098Y140098D02*
X265000Y141000D01*
X254512Y144024D02*
X257566D01*
X260590Y141000D01*
X252353Y144024D02*
X254512D01*
X251630Y143300D02*
X252353Y144024D01*
X264098Y137587D02*
Y140098D01*
X263197Y141000D02*
X264098Y140098D01*
Y131898D02*
Y137587D01*
X260590Y141000D02*
X263197D01*
X249500Y143300D02*
X251630D01*
X244000Y145500D02*
X247248Y148748D01*
X254512D01*
X241800Y145500D02*
X244000D01*
X288597Y153898D02*
X288700Y154000D01*
X286897Y153898D02*
X288597D01*
X284898Y151898D02*
X286897Y153898D01*
X277591Y151898D02*
X281559D01*
X284898D01*
X289897Y141489D02*
Y142603D01*
X290146Y141240D02*
X290260D01*
X289897Y141489D02*
X290146Y141240D01*
X281559Y144024D02*
X288476D01*
X289897Y142603D01*
X276000Y150306D02*
X277591Y151898D01*
X254527Y148748D02*
X256213D01*
X276000Y144024D02*
Y150306D01*
X275287Y143500D02*
X275811Y144024D01*
X276000D02*
X281559D01*
X275811D02*
X276000D01*
X256213Y148748D02*
X261461Y143500D01*
X275287D01*
X248303Y147173D02*
X254512D01*
X243745Y156004D02*
X246276Y153472D01*
X254512D01*
X241500Y152988D02*
X242221Y152267D01*
X242683Y151898D02*
X254512D01*
X241500Y152988D02*
Y153000D01*
X242221Y152267D02*
X242314D01*
X242683Y151898D01*
X230886Y159186D02*
X231304Y158767D01*
Y153131D02*
Y158767D01*
X231276Y153102D02*
X231374Y153004D01*
X237929D01*
X252449Y142449D02*
X254512D01*
X251500Y141500D02*
X252449Y142449D01*
X282778Y147173D02*
X289497D01*
X284472Y153472D02*
X287000Y156000D01*
X296500D01*
X299327D01*
X281559Y145598D02*
X289402D01*
X296420Y110000D02*
X298716D01*
X321205Y151000D02*
X327673D01*
X330000D01*
Y151358D01*
X315205Y145000D02*
X321205Y151000D01*
X283995Y161346D02*
X293648Y171000D01*
X281559Y161346D02*
X283995D01*
X310500Y145000D02*
X315205D01*
X284090Y159772D02*
X294319Y170000D01*
X331330D01*
X284186Y158197D02*
X294489Y168500D01*
X284281Y156622D02*
X293659Y166000D01*
X299327D01*
X290330Y161000D02*
X299327D01*
X284377Y155047D02*
X290330Y161000D01*
X281559Y156622D02*
X284281D01*
X281559Y153472D02*
X284472D01*
X281559Y158197D02*
X284186D01*
X281559Y159772D02*
X284090D01*
X281559Y155047D02*
X284377D01*
X327673Y156000D02*
X329642D01*
D15*
X154330Y165829D02*
D03*
Y150671D02*
D03*
X160630D02*
D03*
Y165829D02*
D03*
X193700D02*
D03*
Y150671D02*
D03*
X200000Y165829D02*
D03*
Y150671D02*
D03*
D16*
X249500Y138700D02*
D03*
X263500Y126200D02*
D03*
X286500Y136200D02*
D03*
X264000Y173800D02*
D03*
X290000Y136200D02*
D03*
X286500Y140800D02*
D03*
X264000Y169200D02*
D03*
X263500Y130800D02*
D03*
X249500Y143300D02*
D03*
X290000Y140800D02*
D03*
D17*
X226416Y153102D02*
D03*
X285800Y129000D02*
D03*
X232417Y172102D02*
D03*
X289300Y110500D02*
D03*
X292270Y149879D02*
D03*
X293300Y154000D02*
D03*
X283300Y133500D02*
D03*
X237200Y148500D02*
D03*
Y145500D02*
D03*
X283300Y169000D02*
D03*
X278700D02*
D03*
X241800Y145500D02*
D03*
Y148500D02*
D03*
X287670Y149879D02*
D03*
X278700Y133500D02*
D03*
X281200Y129000D02*
D03*
X288700Y154000D02*
D03*
X284700Y110500D02*
D03*
X237017Y172102D02*
D03*
X231016Y153102D02*
D03*
D18*
X288240Y124500D02*
D03*
X280760D02*
D03*
X284500Y116154D02*
D03*
D19*
X308398Y93394D02*
D03*
Y118591D02*
D03*
Y96543D02*
D03*
Y115441D02*
D03*
D20*
X298716Y115500D02*
D03*
Y99000D02*
D03*
X302284D02*
D03*
X318783Y145000D02*
D03*
X306933D02*
D03*
X315216D02*
D03*
X310500D02*
D03*
X298716Y110000D02*
D03*
X302284D02*
D03*
Y115500D02*
D03*
X298716Y104500D02*
D03*
X302284D02*
D03*
X237933Y153000D02*
D03*
X241500D02*
D03*
D21*
X327673Y166000D02*
D03*
X299327Y151000D02*
D03*
Y161000D02*
D03*
Y156000D02*
D03*
X327673D02*
D03*
Y161000D02*
D03*
X299327Y166000D02*
D03*
X327673Y151000D02*
D03*
D22*
X334338Y127635D02*
D03*
D23*
Y144366D02*
D03*
D24*
X326661Y129306D02*
D03*
Y142692D02*
D03*
D26*
X254512Y155047D02*
D03*
Y156622D02*
D03*
X281559Y155047D02*
D03*
Y153472D02*
D03*
Y159772D02*
D03*
Y158197D02*
D03*
Y156622D02*
D03*
X254512Y161346D02*
D03*
Y159772D02*
D03*
Y158197D02*
D03*
Y151898D02*
D03*
Y147173D02*
D03*
Y145598D02*
D03*
X281559Y147173D02*
D03*
X254512Y153472D02*
D03*
X281559Y145598D02*
D03*
Y161346D02*
D03*
X254512Y142449D02*
D03*
Y140874D02*
D03*
Y148748D02*
D03*
X281559Y144024D02*
D03*
Y151898D02*
D03*
X254512Y144024D02*
D03*
Y150323D02*
D03*
X281559Y140874D02*
D03*
Y142449D02*
D03*
Y148748D02*
D03*
Y150323D02*
D03*
D27*
X230886Y165949D02*
D03*
X239547Y159256D02*
D03*
Y165949D02*
D03*
X230886Y159256D02*
D03*
D28*
X216629Y95837D02*
D03*
Y110042D02*
D03*
Y124248D02*
D03*
X216608Y138293D02*
D03*
X216629Y81793D02*
D03*
X209069Y78053D02*
D03*
X209048Y134553D02*
D03*
X209069Y120507D02*
D03*
Y106302D02*
D03*
Y92096D02*
D03*
D29*
X216629Y74313D02*
D03*
X216608Y130813D02*
D03*
X216629Y116767D02*
D03*
Y102562D02*
D03*
Y88356D02*
D03*
D30*
X197324Y130776D02*
D03*
X191419D02*
D03*
Y118539D02*
D03*
X197324D02*
D03*
X184199Y130776D02*
D03*
X178294D02*
D03*
Y118539D02*
D03*
X184199D02*
D03*
X151138Y106368D02*
D03*
X157044D02*
D03*
X178294Y106302D02*
D03*
X184199D02*
D03*
X164763Y106368D02*
D03*
X170669D02*
D03*
X137513D02*
D03*
X143419D02*
D03*
X197324Y81828D02*
D03*
X191419D02*
D03*
X178294D02*
D03*
X184199D02*
D03*
X191419Y106302D02*
D03*
X197324D02*
D03*
Y94065D02*
D03*
X191419D02*
D03*
X184199D02*
D03*
X178294D02*
D03*
X143419Y130842D02*
D03*
X137513D02*
D03*
X170669D02*
D03*
X164763D02*
D03*
X157044D02*
D03*
X151138D02*
D03*
X164763Y118605D02*
D03*
X170669D02*
D03*
X137513D02*
D03*
X143419D02*
D03*
X151138D02*
D03*
X157044D02*
D03*
X164763Y81894D02*
D03*
X170669D02*
D03*
X151138D02*
D03*
X157044D02*
D03*
X137513D02*
D03*
X143419D02*
D03*
X170669Y94131D02*
D03*
X164763D02*
D03*
X143419D02*
D03*
X137513D02*
D03*
X157044D02*
D03*
X151138D02*
D03*
D31*
X178110Y74394D02*
D03*
X183228D02*
D03*
X191610D02*
D03*
X196728D02*
D03*
X151204Y74461D02*
D03*
X156322D02*
D03*
X137704D02*
D03*
X142822D02*
D03*
X164704D02*
D03*
X169822D02*
D03*
D32*
X268823Y164634D02*
D03*
X262524D02*
D03*
X276697D02*
D03*
X275122D02*
D03*
X273547D02*
D03*
X271972D02*
D03*
X270398D02*
D03*
X267248D02*
D03*
X265673D02*
D03*
X260949D02*
D03*
X259374D02*
D03*
X257799D02*
D03*
X271972Y137587D02*
D03*
X276697D02*
D03*
X275122D02*
D03*
X273547D02*
D03*
X259374D02*
D03*
X267248D02*
D03*
X262524D02*
D03*
X257799D02*
D03*
X268823D02*
D03*
X270398D02*
D03*
X260949D02*
D03*
X265673D02*
D03*
X264098D02*
D03*
X278272D02*
D03*
X264098Y164634D02*
D03*
X278272D02*
D03*
D33*
X308398Y106976D02*
D03*
Y103039D02*
D03*
Y108945D02*
D03*
Y105008D02*
D03*
Y101071D02*
D03*
Y99102D02*
D03*
Y110913D02*
D03*
Y112882D02*
D03*
D56*
X268035Y151110D02*
D03*
D57*
X200000Y158270D02*
Y165829D01*
Y150671D02*
Y158270D01*
X193750Y158250D02*
Y165948D01*
X193700Y150721D02*
Y158250D01*
X154330Y150671D02*
Y165829D01*
X160630Y150671D02*
Y165829D01*
X249500Y136000D02*
Y138700D01*
X285800Y129000D02*
X289077D01*
X286500Y133650D02*
Y136200D01*
X289000Y113500D02*
X289005Y113495D01*
Y110795D02*
Y113495D01*
Y110795D02*
X289300Y110500D01*
X288240Y124500D02*
X289000Y123740D01*
Y113500D02*
Y123740D01*
X288240Y124500D02*
X289077Y125337D01*
Y129000D01*
X290000Y133500D02*
Y136200D01*
X283300Y169000D02*
X286000D01*
X292376Y149984D02*
X294470D01*
X292270Y149879D02*
X292376Y149984D01*
X293418Y154016D02*
X295142D01*
X219582Y124666D02*
X220000Y124248D01*
X217048Y124666D02*
X219582D01*
X217048Y110460D02*
X219582D01*
X220000Y110042D01*
X219582Y96255D02*
X220000Y95837D01*
X217048Y96255D02*
X219582D01*
Y82212D02*
X220000Y81793D01*
X217048Y82212D02*
X219582D01*
X263689Y124106D02*
Y125511D01*
X263500Y125700D02*
X263689Y125511D01*
X334338Y123206D02*
Y127635D01*
X334132Y123000D02*
X334338Y123206D01*
X327000Y123000D02*
X334132D01*
X334338Y141658D02*
Y144366D01*
Y141658D02*
X335039Y140957D01*
X283300Y133500D02*
X286500D01*
Y136200D02*
Y136350D01*
X293351Y153949D02*
X293418Y154016D01*
X280783Y172154D02*
Y179783D01*
X288000Y187000D01*
X302000D01*
X310000Y195000D01*
X280760Y120327D02*
Y124500D01*
X191419Y81828D02*
X191514Y81732D01*
Y74490D02*
Y81732D01*
Y74490D02*
X191610Y74394D01*
X191514Y81923D02*
Y130776D01*
X178202Y81736D02*
X178294Y81828D01*
X178202Y74486D02*
Y81736D01*
X178110Y74394D02*
X178202Y74486D01*
Y81920D02*
Y130776D01*
X164734Y81865D02*
X164763Y81894D01*
X164734Y74490D02*
Y81865D01*
X164704Y74461D02*
X164734Y74490D01*
X164734Y81924D02*
Y130842D01*
X151171Y74494D02*
X151204Y74461D01*
X151171Y74494D02*
Y81861D01*
X151138Y81894D02*
X151171Y81861D01*
X151171Y81927D02*
Y130842D01*
X137609Y74556D02*
X137704Y74461D01*
X137609Y74556D02*
Y81799D01*
X137513Y81894D02*
X137609Y81799D01*
X137609Y81990D02*
Y130842D01*
X191514Y74299D02*
X191610Y74394D01*
X164704Y74461D02*
X164734Y74431D01*
X151171Y74428D02*
X151204Y74461D01*
X178110Y74394D02*
X178202Y74302D01*
X137609Y74365D02*
X137704Y74461D01*
X191419Y81828D02*
X191514Y81923D01*
X178202Y81920D02*
X178294Y81828D01*
X164734Y81924D02*
X164763Y81894D01*
X151138D02*
X151171Y81927D01*
X137513Y81894D02*
X137609Y81990D01*
X320000Y195000D02*
Y205000D01*
X310000Y195000D02*
Y205000D01*
Y195000D02*
X320000D01*
X237276Y172032D02*
X237607Y171701D01*
Y167524D02*
X239182Y165949D01*
X237607Y167524D02*
Y171701D01*
X239182Y165949D02*
X239547D01*
D58*
X313467Y99925D02*
Y112190D01*
X310675Y97134D02*
X313467Y99925D01*
X310807Y114850D02*
X313467Y112190D01*
X308988Y114850D02*
X310807D01*
X284700Y110500D02*
Y115954D01*
X284500Y116154D02*
X284700Y115954D01*
Y106800D02*
Y110500D01*
X294957Y96543D02*
X308398D01*
X284700Y106800D02*
X294957Y96543D01*
X308988Y97134D02*
X310675D01*
X308398Y115441D02*
X308988Y114850D01*
X308398Y96543D02*
X308988Y97134D01*
D59*
X235000Y127500D02*
D03*
X110000Y195000D02*
D03*
X120000Y205000D02*
D03*
X110000D02*
D03*
X140000D02*
D03*
Y195000D02*
D03*
X310000D02*
D03*
X320000Y205000D02*
D03*
X310000D02*
D03*
X265122Y93803D02*
D03*
X275122D02*
D03*
X285122D02*
D03*
X150000Y195000D02*
D03*
Y205000D02*
D03*
X160000Y195000D02*
D03*
Y205000D02*
D03*
X170000Y195000D02*
D03*
Y205000D02*
D03*
X180000Y195000D02*
D03*
Y205000D02*
D03*
X190000Y195000D02*
D03*
Y205000D02*
D03*
X200000Y195000D02*
D03*
Y205000D02*
D03*
X210000Y195000D02*
D03*
Y205000D02*
D03*
X220000Y195000D02*
D03*
Y205000D02*
D03*
X230000Y195000D02*
D03*
Y205000D02*
D03*
X240000Y195000D02*
D03*
Y205000D02*
D03*
X250000Y195000D02*
D03*
Y205000D02*
D03*
X260000Y195000D02*
D03*
Y205000D02*
D03*
X270000Y195000D02*
D03*
Y205000D02*
D03*
X280000Y195000D02*
D03*
Y205000D02*
D03*
X290000Y195000D02*
D03*
X235000Y117500D02*
D03*
D60*
X327000Y88984D02*
D03*
Y123000D02*
D03*
D61*
X310661Y88984D02*
D03*
Y123000D02*
D03*
D62*
X120000Y195000D02*
D03*
X320000D02*
D03*
X235000Y137500D02*
D03*
D63*
X255122Y93803D02*
D03*
X290000Y205000D02*
D03*
D64*
X312630Y94614D02*
D03*
Y117370D02*
D03*
D65*
X199981Y158250D02*
D03*
X193700D02*
D03*
X154330D02*
D03*
X200000Y177462D02*
D03*
X9646Y3238D02*
D03*
X249500Y136000D02*
D03*
X268035Y151110D02*
D03*
X275550Y153956D02*
D03*
X9646Y209282D02*
D03*
X275000Y159500D02*
D03*
X286000Y172000D02*
D03*
X296435Y98944D02*
D03*
X289000Y113500D02*
D03*
X290000Y133500D02*
D03*
X322000Y166000D02*
D03*
X333500Y203000D02*
D03*
X334000Y173000D02*
D03*
X258000Y155000D02*
D03*
X264000Y176000D02*
D03*
X286000Y169000D02*
D03*
X239000Y97756D02*
D03*
X294470Y149984D02*
D03*
X295142Y154016D02*
D03*
X296420Y115441D02*
D03*
X220000Y138293D02*
D03*
Y124248D02*
D03*
Y110042D02*
D03*
Y95837D02*
D03*
Y81793D02*
D03*
X263689Y124106D02*
D03*
X332159Y145240D02*
D03*
X284500Y120500D02*
D03*
X286500Y133500D02*
D03*
X289077Y129000D02*
D03*
X300000Y190000D02*
D03*
X236500Y162000D02*
D03*
X235000Y147000D02*
D03*
X226416D02*
D03*
X228917Y172032D02*
D03*
X280783Y172154D02*
D03*
X280760Y120327D02*
D03*
X199615Y94065D02*
D03*
Y81828D02*
D03*
X172979Y94065D02*
D03*
Y81828D02*
D03*
X159397D02*
D03*
X186445Y94065D02*
D03*
Y81828D02*
D03*
X159397Y94065D02*
D03*
X145753Y106302D02*
D03*
X186445Y118539D02*
D03*
X159397D02*
D03*
X199615Y106302D02*
D03*
X186445D02*
D03*
X172979Y118539D02*
D03*
Y130776D02*
D03*
Y106302D02*
D03*
X159397D02*
D03*
X199615Y130776D02*
D03*
Y118539D02*
D03*
X186445Y130776D02*
D03*
X159397D02*
D03*
X145753Y94065D02*
D03*
Y81828D02*
D03*
Y130776D02*
D03*
Y118539D02*
D03*
X278272Y153929D02*
D03*
Y148748D02*
D03*
Y140874D02*
D03*
M02*
