G04*
G04 #@! TF.GenerationSoftware,Altium Limited,Altium Designer,25.8.1 (18)*
G04*
G04 Layer_Color=255*
%FSLAX25Y25*%
%MOIN*%
G70*
G04*
G04 #@! TF.SameCoordinates,879A800C-AAF0-40E7-B308-37E3056083DF*
G04*
G04*
G04 #@! TF.FilePolarity,Positive*
G04*
G01*
G75*
%ADD16R,0.02230X0.02254*%
%ADD17R,0.05906X0.09843*%
%ADD18O,0.06299X0.02362*%
G04:AMPARAMS|DCode=19|XSize=7.87mil|YSize=33.07mil|CornerRadius=0.98mil|HoleSize=0mil|Usage=FLASHONLY|Rotation=90.000|XOffset=0mil|YOffset=0mil|HoleType=Round|Shape=RoundedRectangle|*
%AMROUNDEDRECTD19*
21,1,0.00787,0.03110,0,0,90.0*
21,1,0.00591,0.03307,0,0,90.0*
1,1,0.00197,0.01555,0.00295*
1,1,0.00197,0.01555,-0.00295*
1,1,0.00197,-0.01555,-0.00295*
1,1,0.00197,-0.01555,0.00295*
%
%ADD19ROUNDEDRECTD19*%
%ADD20R,0.03150X0.03150*%
G04:AMPARAMS|DCode=21|XSize=33.07mil|YSize=7.87mil|CornerRadius=0.98mil|HoleSize=0mil|Usage=FLASHONLY|Rotation=90.000|XOffset=0mil|YOffset=0mil|HoleType=Round|Shape=RoundedRectangle|*
%AMROUNDEDRECTD21*
21,1,0.03307,0.00591,0,0,90.0*
21,1,0.03110,0.00787,0,0,90.0*
1,1,0.00197,0.00295,0.01555*
1,1,0.00197,0.00295,-0.01555*
1,1,0.00197,-0.00295,-0.01555*
1,1,0.00197,-0.00295,0.01555*
%
%ADD21ROUNDEDRECTD21*%
%ADD23R,0.04528X0.02362*%
%ADD24R,0.07874X0.08583*%
%ADD25R,0.03543X0.02756*%
%ADD26R,0.04528X0.01181*%
%ADD35C,0.02559*%
%ADD38R,0.12205X0.12205*%
%ADD39R,0.05906X0.05906*%
%ADD40C,0.05906*%
%ADD41R,0.05906X0.05906*%
D16*
X43784Y174000D02*
D03*
X40216D02*
D03*
X30933Y125000D02*
D03*
X34500D02*
D03*
X36783Y117000D02*
D03*
X33217D02*
D03*
X43784Y168000D02*
D03*
X40216D02*
D03*
D17*
X69000Y251323D02*
D03*
Y284000D02*
D03*
X86323Y284197D02*
D03*
Y251323D02*
D03*
D18*
X49827Y153000D02*
D03*
X78173Y143000D02*
D03*
Y148000D02*
D03*
X49827D02*
D03*
Y143000D02*
D03*
Y138000D02*
D03*
X78173D02*
D03*
Y153000D02*
D03*
D19*
X93941Y140154D02*
D03*
Y146453D02*
D03*
Y148028D02*
D03*
Y155902D02*
D03*
X120988Y146453D02*
D03*
X93941Y141728D02*
D03*
Y143303D02*
D03*
Y144878D02*
D03*
X120988Y151177D02*
D03*
X93941Y160626D02*
D03*
Y159051D02*
D03*
Y151177D02*
D03*
Y152752D02*
D03*
X120988Y140154D02*
D03*
Y141728D02*
D03*
Y143303D02*
D03*
Y144878D02*
D03*
Y148028D02*
D03*
Y149602D02*
D03*
Y152752D02*
D03*
Y154327D02*
D03*
Y155902D02*
D03*
Y157476D02*
D03*
Y159051D02*
D03*
Y160626D02*
D03*
X93941Y157476D02*
D03*
Y154327D02*
D03*
Y149602D02*
D03*
D20*
X105707Y113248D02*
D03*
X92582D02*
D03*
X79051Y113314D02*
D03*
X65426D02*
D03*
X51801D02*
D03*
X105707Y76537D02*
D03*
X79051Y76603D02*
D03*
X92582Y76537D02*
D03*
X65426Y76603D02*
D03*
X51801D02*
D03*
X73146Y64366D02*
D03*
X79051D02*
D03*
X86676Y64300D02*
D03*
X92582D02*
D03*
X59521Y64366D02*
D03*
X65426D02*
D03*
X86676Y76537D02*
D03*
X59521Y76603D02*
D03*
X73146D02*
D03*
X45896Y64366D02*
D03*
X51801D02*
D03*
X45896Y76603D02*
D03*
Y88840D02*
D03*
X51801D02*
D03*
X45896Y101077D02*
D03*
X51801D02*
D03*
X73146D02*
D03*
X79051D02*
D03*
X59521D02*
D03*
X65426D02*
D03*
X59521Y88840D02*
D03*
X65426D02*
D03*
X73146D02*
D03*
X79051D02*
D03*
X59521Y113314D02*
D03*
X86676Y88774D02*
D03*
X92582D02*
D03*
X86676Y113248D02*
D03*
Y101011D02*
D03*
X92582D02*
D03*
X73146Y113314D02*
D03*
X45896D02*
D03*
X105707Y64300D02*
D03*
X99801D02*
D03*
Y76537D02*
D03*
Y88774D02*
D03*
X105707D02*
D03*
X99801Y101011D02*
D03*
X105707D02*
D03*
X99801Y113248D02*
D03*
D21*
X106677Y136866D02*
D03*
X112976D02*
D03*
X111402Y163913D02*
D03*
X97228D02*
D03*
X111402Y136866D02*
D03*
X97228D02*
D03*
X98803D02*
D03*
X100378D02*
D03*
X101953D02*
D03*
X103528D02*
D03*
X105102D02*
D03*
X108252D02*
D03*
X109827D02*
D03*
X114551D02*
D03*
X116126D02*
D03*
X117701D02*
D03*
Y163913D02*
D03*
X116126D02*
D03*
X114551D02*
D03*
X112976D02*
D03*
X109827D02*
D03*
X108252D02*
D03*
X106677D02*
D03*
X105102D02*
D03*
X103528D02*
D03*
X101953D02*
D03*
X100378D02*
D03*
X98803D02*
D03*
D23*
X30335Y162402D02*
D03*
Y187598D02*
D03*
Y165551D02*
D03*
Y184449D02*
D03*
D24*
X12598Y154882D02*
D03*
Y195118D02*
D03*
X28071Y154882D02*
D03*
Y195118D02*
D03*
D25*
X91610Y119866D02*
D03*
X86492D02*
D03*
X78205Y119933D02*
D03*
X73087D02*
D03*
X64705D02*
D03*
X59587D02*
D03*
X51205D02*
D03*
X46087D02*
D03*
X105110Y119866D02*
D03*
X99992D02*
D03*
D26*
X30335Y168110D02*
D03*
Y170079D02*
D03*
Y172047D02*
D03*
Y174016D02*
D03*
Y175984D02*
D03*
Y177953D02*
D03*
Y179921D02*
D03*
Y181890D02*
D03*
D35*
X26102Y163622D02*
D03*
Y186378D02*
D03*
D38*
X107465Y150390D02*
D03*
D39*
X173000Y90000D02*
D03*
X164000Y205000D02*
D03*
X102000D02*
D03*
X89865Y204894D02*
D03*
D40*
X163000Y90000D02*
D03*
X153000D02*
D03*
X143000D02*
D03*
X133000D02*
D03*
X123000D02*
D03*
X194000Y205000D02*
D03*
X184000D02*
D03*
X174000D02*
D03*
X144000Y153500D02*
D03*
X112000Y205000D02*
D03*
X122000D02*
D03*
X132000D02*
D03*
X142000D02*
D03*
X152000D02*
D03*
X59865Y204894D02*
D03*
X69866D02*
D03*
X79865D02*
D03*
X144000Y163500D02*
D03*
D41*
Y143500D02*
D03*
M02*
