M48
;Layer_Color=9474304
;FILE_FORMAT=2:4
INCH,TZ
;TYPE=PLATED
T01F00S00C0.0118
T03F00S00C0.0354
;TYPE=NON_PLATED
T04F00S00C0.0276
%
T01
X1850Y450
X23599Y934
Y2157
Y3381
Y4605
Y5828
X24963
Y4605
Y3381
Y2157
Y934
X26321
Y2157
Y3381
Y4605
Y5828
X27668
Y4605
Y3381
Y2157
Y934
X28985
Y2157
Y3381
Y4605
Y5828
X27900Y8250
X29643Y9894
X29650Y11450
X28900Y11350
X28450Y12050
X28650Y13350
X29000
X27827Y14087
Y14875
Y15393
X27555Y15396
X26804Y15111
X25800Y15500
X24950Y13600
X23500Y14700
X26369Y12411
X29447Y14998
X25400Y7200
X31250Y10500
Y10917
X32200Y16600
X33400Y17300
X33350Y20300
X31150Y20150
X29750Y20900
X28750
X27750
X26750
X25750
X24750
X23750
X24950Y18000
X26400Y18450
X29100Y18550
X28600Y16900
X28100Y16450
X27500Y15950
X23650Y16200
X2300Y20900
T03
X23950Y11750
Y12750
Y13750
X32000Y7750
Y6750
Y5750
Y4750
X32050Y19650
Y20650
X30250
Y19650
X29250
Y20650
X28250
Y19650
X27250
Y20650
X26250
Y19650
X25250
Y20650
X24250
Y19650
X23250
Y20650
X21000
Y19650
T04
X31263Y9461
Y11737
M30
