G04*
G04 #@! TF.GenerationSoftware,Altium Limited,Altium Designer,25.8.1 (18)*
G04*
G04 Layer_Color=16711935*
%FSLAX25Y25*%
%MOIN*%
G70*
G04*
G04 #@! TF.SameCoordinates,879A800C-AAF0-40E7-B308-37E3056083DF*
G04*
G04*
G04 #@! TF.FilePolarity,Negative*
G04*
G01*
G75*
%ADD33R,0.06706X0.06706*%
%ADD34C,0.06706*%
%ADD35C,0.02559*%
%ADD36R,0.06706X0.06706*%
%ADD37C,0.02375*%
D33*
X173000Y90000D02*
D03*
X164000Y205000D02*
D03*
X102000D02*
D03*
X89865Y204894D02*
D03*
D34*
X163000Y90000D02*
D03*
X153000D02*
D03*
X143000D02*
D03*
X133000D02*
D03*
X123000D02*
D03*
X194000Y205000D02*
D03*
X184000D02*
D03*
X174000D02*
D03*
X144000Y153500D02*
D03*
X112000Y205000D02*
D03*
X122000D02*
D03*
X132000D02*
D03*
X142000D02*
D03*
X152000D02*
D03*
X59865Y204894D02*
D03*
X69866D02*
D03*
X79865D02*
D03*
X144000Y163500D02*
D03*
D35*
X26102Y163622D02*
D03*
Y186378D02*
D03*
D36*
X144000Y143500D02*
D03*
D37*
X99000Y151000D02*
D03*
X97204Y156997D02*
D03*
X25500Y171500D02*
D03*
Y176500D02*
D03*
X106051Y109366D02*
D03*
X78896Y109434D02*
D03*
X92426Y109366D02*
D03*
X65271Y109433D02*
D03*
X51646D02*
D03*
X106207Y71983D02*
D03*
X92582Y72066D02*
D03*
X79051Y71866D02*
D03*
X65426Y72152D02*
D03*
X51801Y71969D02*
D03*
X55500Y138000D02*
D03*
X117500Y146500D02*
D03*
X107465Y150390D02*
D03*
X79051Y95866D02*
D03*
Y83866D02*
D03*
X92582Y95963D02*
D03*
X65426Y96030D02*
D03*
X51801D02*
D03*
X92582Y83885D02*
D03*
X65426Y83951D02*
D03*
X51801D02*
D03*
X106207Y83885D02*
D03*
Y95963D02*
D03*
M02*
