G04*
G04 #@! TF.GenerationSoftware,Altium Limited,Altium Designer,25.8.1 (18)*
G04*
G04 Layer_Physical_Order=2*
G04 Layer_Color=16711680*
%FSLAX25Y25*%
%MOIN*%
G70*
G04*
G04 #@! TF.SameCoordinates,70397301-3752-4A3B-8FF2-FC9E58B5EE46*
G04*
G04*
G04 #@! TF.FilePolarity,Positive*
G04*
G01*
G75*
%ADD12C,0.00787*%
%ADD57C,0.01575*%
%ADD59C,0.05906*%
%ADD60O,0.07284X0.04134*%
%ADD61O,0.08465X0.04134*%
%ADD62R,0.05906X0.05906*%
%ADD63R,0.05906X0.05906*%
%ADD64C,0.02756*%
%ADD65C,0.01575*%
G36*
X327208Y210821D02*
X329143Y210234D01*
X330925Y209282D01*
X332488Y207999D01*
X333770Y206437D01*
X334506Y205059D01*
X334150Y204665D01*
X334000Y204728D01*
Y203000D01*
Y201272D01*
X334512Y201485D01*
X334891Y201864D01*
X335406Y201727D01*
X335407Y201726D01*
X335498Y200806D01*
X335478Y200709D01*
Y174703D01*
X335016Y174511D01*
X335013Y174515D01*
X334500Y174728D01*
Y173000D01*
Y171272D01*
X335013Y171485D01*
X335016Y171489D01*
X335478Y171297D01*
Y11811D01*
X335498Y11713D01*
X335309Y9799D01*
X334723Y7865D01*
X333770Y6083D01*
X332488Y4520D01*
X330925Y3238D01*
X329143Y2285D01*
X327208Y1698D01*
X325294Y1510D01*
X325197Y1529D01*
X11811D01*
X11713Y1510D01*
X11203Y1560D01*
X11016Y2081D01*
X11161Y2225D01*
X11373Y2738D01*
X7751D01*
X7479Y2492D01*
X6083Y3238D01*
X4520Y4520D01*
X3238Y6083D01*
X2285Y7865D01*
X1698Y9799D01*
X1510Y11713D01*
X1529Y11811D01*
Y200709D01*
X1510Y200806D01*
X1698Y202720D01*
X2285Y204654D01*
X3238Y206437D01*
X4520Y207999D01*
X6083Y209282D01*
X7479Y210028D01*
X7751Y209782D01*
X11373D01*
X11161Y210294D01*
X11016Y210439D01*
X11203Y210959D01*
X11713Y211010D01*
X11811Y210990D01*
X325197D01*
X325294Y211010D01*
X327208Y210821D01*
D02*
G37*
%LPC*%
G36*
X11373Y208782D02*
X10146D01*
Y207554D01*
X10658Y207766D01*
X11161Y208269D01*
X11373Y208782D01*
D02*
G37*
G36*
X9146D02*
X7918D01*
X8130Y208269D01*
X8633Y207766D01*
X9146Y207554D01*
Y208782D01*
D02*
G37*
G36*
X120520Y208953D02*
X120500D01*
Y205500D01*
X123953D01*
Y205520D01*
X123683Y206526D01*
X123163Y207427D01*
X122427Y208163D01*
X121526Y208683D01*
X120520Y208953D01*
D02*
G37*
G36*
X110520D02*
X110500D01*
Y205500D01*
X113953D01*
Y205520D01*
X113683Y206526D01*
X113163Y207427D01*
X112427Y208163D01*
X111526Y208683D01*
X110520Y208953D01*
D02*
G37*
G36*
X119500D02*
X119480D01*
X118474Y208683D01*
X117573Y208163D01*
X116837Y207427D01*
X116317Y206526D01*
X116047Y205520D01*
Y205500D01*
X119500D01*
Y208953D01*
D02*
G37*
G36*
X109500D02*
X109480D01*
X108474Y208683D01*
X107573Y208163D01*
X106837Y207427D01*
X106317Y206526D01*
X106047Y205520D01*
Y205500D01*
X109500D01*
Y208953D01*
D02*
G37*
G36*
X333000Y204728D02*
X332488Y204515D01*
X331985Y204012D01*
X331772Y203500D01*
X333000D01*
Y204728D01*
D02*
G37*
G36*
Y202500D02*
X331772D01*
X331985Y201988D01*
X332488Y201485D01*
X333000Y201272D01*
Y202500D01*
D02*
G37*
G36*
X320520Y208953D02*
X319480D01*
X318474Y208683D01*
X317573Y208163D01*
X316837Y207427D01*
X316317Y206526D01*
X316047Y205520D01*
Y204480D01*
X316317Y203474D01*
X316837Y202573D01*
X317573Y201837D01*
X318474Y201317D01*
X319480Y201047D01*
X320520D01*
X321526Y201317D01*
X322427Y201837D01*
X323163Y202573D01*
X323683Y203474D01*
X323953Y204480D01*
Y205520D01*
X323683Y206526D01*
X323163Y207427D01*
X322427Y208163D01*
X321526Y208683D01*
X320520Y208953D01*
D02*
G37*
G36*
X310520D02*
X309480D01*
X308474Y208683D01*
X307573Y208163D01*
X306837Y207427D01*
X306317Y206526D01*
X306047Y205520D01*
Y204480D01*
X306317Y203474D01*
X306837Y202573D01*
X307573Y201837D01*
X308474Y201317D01*
X309480Y201047D01*
X310520D01*
X311526Y201317D01*
X312427Y201837D01*
X313163Y202573D01*
X313683Y203474D01*
X313953Y204480D01*
Y205520D01*
X313683Y206526D01*
X313163Y207427D01*
X312427Y208163D01*
X311526Y208683D01*
X310520Y208953D01*
D02*
G37*
G36*
X293953D02*
X286047D01*
Y201047D01*
X293953D01*
Y208953D01*
D02*
G37*
G36*
X280520D02*
X279480D01*
X278474Y208683D01*
X277573Y208163D01*
X276837Y207427D01*
X276317Y206526D01*
X276047Y205520D01*
Y204480D01*
X276317Y203474D01*
X276837Y202573D01*
X277573Y201837D01*
X278474Y201317D01*
X279480Y201047D01*
X280520D01*
X281526Y201317D01*
X282427Y201837D01*
X283163Y202573D01*
X283683Y203474D01*
X283953Y204480D01*
Y205520D01*
X283683Y206526D01*
X283163Y207427D01*
X282427Y208163D01*
X281526Y208683D01*
X280520Y208953D01*
D02*
G37*
G36*
X270520D02*
X269480D01*
X268474Y208683D01*
X267573Y208163D01*
X266837Y207427D01*
X266317Y206526D01*
X266047Y205520D01*
Y204480D01*
X266317Y203474D01*
X266837Y202573D01*
X267573Y201837D01*
X268474Y201317D01*
X269480Y201047D01*
X270520D01*
X271526Y201317D01*
X272427Y201837D01*
X273163Y202573D01*
X273683Y203474D01*
X273953Y204480D01*
Y205520D01*
X273683Y206526D01*
X273163Y207427D01*
X272427Y208163D01*
X271526Y208683D01*
X270520Y208953D01*
D02*
G37*
G36*
X260520D02*
X259480D01*
X258474Y208683D01*
X257573Y208163D01*
X256837Y207427D01*
X256317Y206526D01*
X256047Y205520D01*
Y204480D01*
X256317Y203474D01*
X256837Y202573D01*
X257573Y201837D01*
X258474Y201317D01*
X259480Y201047D01*
X260520D01*
X261526Y201317D01*
X262427Y201837D01*
X263163Y202573D01*
X263683Y203474D01*
X263953Y204480D01*
Y205520D01*
X263683Y206526D01*
X263163Y207427D01*
X262427Y208163D01*
X261526Y208683D01*
X260520Y208953D01*
D02*
G37*
G36*
X250520D02*
X249480D01*
X248474Y208683D01*
X247573Y208163D01*
X246837Y207427D01*
X246317Y206526D01*
X246047Y205520D01*
Y204480D01*
X246317Y203474D01*
X246837Y202573D01*
X247573Y201837D01*
X248474Y201317D01*
X249480Y201047D01*
X250520D01*
X251526Y201317D01*
X252427Y201837D01*
X253163Y202573D01*
X253683Y203474D01*
X253953Y204480D01*
Y205520D01*
X253683Y206526D01*
X253163Y207427D01*
X252427Y208163D01*
X251526Y208683D01*
X250520Y208953D01*
D02*
G37*
G36*
X240520D02*
X239480D01*
X238474Y208683D01*
X237573Y208163D01*
X236837Y207427D01*
X236317Y206526D01*
X236047Y205520D01*
Y204480D01*
X236317Y203474D01*
X236837Y202573D01*
X237573Y201837D01*
X238474Y201317D01*
X239480Y201047D01*
X240520D01*
X241526Y201317D01*
X242427Y201837D01*
X243163Y202573D01*
X243683Y203474D01*
X243953Y204480D01*
Y205520D01*
X243683Y206526D01*
X243163Y207427D01*
X242427Y208163D01*
X241526Y208683D01*
X240520Y208953D01*
D02*
G37*
G36*
X230520D02*
X229480D01*
X228474Y208683D01*
X227573Y208163D01*
X226837Y207427D01*
X226317Y206526D01*
X226047Y205520D01*
Y204480D01*
X226317Y203474D01*
X226837Y202573D01*
X227573Y201837D01*
X228474Y201317D01*
X229480Y201047D01*
X230520D01*
X231526Y201317D01*
X232427Y201837D01*
X233163Y202573D01*
X233683Y203474D01*
X233953Y204480D01*
Y205520D01*
X233683Y206526D01*
X233163Y207427D01*
X232427Y208163D01*
X231526Y208683D01*
X230520Y208953D01*
D02*
G37*
G36*
X220520D02*
X219480D01*
X218474Y208683D01*
X217573Y208163D01*
X216837Y207427D01*
X216317Y206526D01*
X216047Y205520D01*
Y204480D01*
X216317Y203474D01*
X216837Y202573D01*
X217573Y201837D01*
X218474Y201317D01*
X219480Y201047D01*
X220520D01*
X221526Y201317D01*
X222427Y201837D01*
X223163Y202573D01*
X223683Y203474D01*
X223953Y204480D01*
Y205520D01*
X223683Y206526D01*
X223163Y207427D01*
X222427Y208163D01*
X221526Y208683D01*
X220520Y208953D01*
D02*
G37*
G36*
X210520D02*
X209480D01*
X208474Y208683D01*
X207573Y208163D01*
X206837Y207427D01*
X206317Y206526D01*
X206047Y205520D01*
Y204480D01*
X206317Y203474D01*
X206837Y202573D01*
X207573Y201837D01*
X208474Y201317D01*
X209480Y201047D01*
X210520D01*
X211526Y201317D01*
X212427Y201837D01*
X213163Y202573D01*
X213683Y203474D01*
X213953Y204480D01*
Y205520D01*
X213683Y206526D01*
X213163Y207427D01*
X212427Y208163D01*
X211526Y208683D01*
X210520Y208953D01*
D02*
G37*
G36*
X200520D02*
X199480D01*
X198474Y208683D01*
X197573Y208163D01*
X196837Y207427D01*
X196317Y206526D01*
X196047Y205520D01*
Y204480D01*
X196317Y203474D01*
X196837Y202573D01*
X197573Y201837D01*
X198474Y201317D01*
X199480Y201047D01*
X200520D01*
X201526Y201317D01*
X202427Y201837D01*
X203163Y202573D01*
X203683Y203474D01*
X203953Y204480D01*
Y205520D01*
X203683Y206526D01*
X203163Y207427D01*
X202427Y208163D01*
X201526Y208683D01*
X200520Y208953D01*
D02*
G37*
G36*
X190520D02*
X189480D01*
X188474Y208683D01*
X187573Y208163D01*
X186837Y207427D01*
X186317Y206526D01*
X186047Y205520D01*
Y204480D01*
X186317Y203474D01*
X186837Y202573D01*
X187573Y201837D01*
X188474Y201317D01*
X189480Y201047D01*
X190520D01*
X191526Y201317D01*
X192427Y201837D01*
X193163Y202573D01*
X193683Y203474D01*
X193953Y204480D01*
Y205520D01*
X193683Y206526D01*
X193163Y207427D01*
X192427Y208163D01*
X191526Y208683D01*
X190520Y208953D01*
D02*
G37*
G36*
X180520D02*
X179480D01*
X178474Y208683D01*
X177573Y208163D01*
X176837Y207427D01*
X176317Y206526D01*
X176047Y205520D01*
Y204480D01*
X176317Y203474D01*
X176837Y202573D01*
X177573Y201837D01*
X178474Y201317D01*
X179480Y201047D01*
X180520D01*
X181526Y201317D01*
X182427Y201837D01*
X183163Y202573D01*
X183683Y203474D01*
X183953Y204480D01*
Y205520D01*
X183683Y206526D01*
X183163Y207427D01*
X182427Y208163D01*
X181526Y208683D01*
X180520Y208953D01*
D02*
G37*
G36*
X170520D02*
X169480D01*
X168474Y208683D01*
X167573Y208163D01*
X166837Y207427D01*
X166317Y206526D01*
X166047Y205520D01*
Y204480D01*
X166317Y203474D01*
X166837Y202573D01*
X167573Y201837D01*
X168474Y201317D01*
X169480Y201047D01*
X170520D01*
X171526Y201317D01*
X172427Y201837D01*
X173163Y202573D01*
X173683Y203474D01*
X173953Y204480D01*
Y205520D01*
X173683Y206526D01*
X173163Y207427D01*
X172427Y208163D01*
X171526Y208683D01*
X170520Y208953D01*
D02*
G37*
G36*
X160520D02*
X159480D01*
X158474Y208683D01*
X157573Y208163D01*
X156837Y207427D01*
X156317Y206526D01*
X156047Y205520D01*
Y204480D01*
X156317Y203474D01*
X156837Y202573D01*
X157573Y201837D01*
X158474Y201317D01*
X159480Y201047D01*
X160520D01*
X161526Y201317D01*
X162427Y201837D01*
X163163Y202573D01*
X163683Y203474D01*
X163953Y204480D01*
Y205520D01*
X163683Y206526D01*
X163163Y207427D01*
X162427Y208163D01*
X161526Y208683D01*
X160520Y208953D01*
D02*
G37*
G36*
X150520D02*
X149480D01*
X148474Y208683D01*
X147573Y208163D01*
X146837Y207427D01*
X146317Y206526D01*
X146047Y205520D01*
Y204480D01*
X146317Y203474D01*
X146837Y202573D01*
X147573Y201837D01*
X148474Y201317D01*
X149480Y201047D01*
X150520D01*
X151526Y201317D01*
X152427Y201837D01*
X153163Y202573D01*
X153683Y203474D01*
X153953Y204480D01*
Y205520D01*
X153683Y206526D01*
X153163Y207427D01*
X152427Y208163D01*
X151526Y208683D01*
X150520Y208953D01*
D02*
G37*
G36*
X140520D02*
X139480D01*
X138474Y208683D01*
X137573Y208163D01*
X136837Y207427D01*
X136317Y206526D01*
X136047Y205520D01*
Y204480D01*
X136317Y203474D01*
X136837Y202573D01*
X137573Y201837D01*
X138474Y201317D01*
X139480Y201047D01*
X140520D01*
X141526Y201317D01*
X142427Y201837D01*
X143163Y202573D01*
X143683Y203474D01*
X143953Y204480D01*
Y205520D01*
X143683Y206526D01*
X143163Y207427D01*
X142427Y208163D01*
X141526Y208683D01*
X140520Y208953D01*
D02*
G37*
G36*
X123953Y204500D02*
X120500D01*
Y201047D01*
X120520D01*
X121526Y201317D01*
X122427Y201837D01*
X123163Y202573D01*
X123683Y203474D01*
X123953Y204480D01*
Y204500D01*
D02*
G37*
G36*
X119500D02*
X116047D01*
Y204480D01*
X116317Y203474D01*
X116837Y202573D01*
X117573Y201837D01*
X118474Y201317D01*
X119480Y201047D01*
X119500D01*
Y204500D01*
D02*
G37*
G36*
X113953D02*
X110500D01*
Y201047D01*
X110520D01*
X111526Y201317D01*
X112427Y201837D01*
X113163Y202573D01*
X113683Y203474D01*
X113953Y204480D01*
Y204500D01*
D02*
G37*
G36*
X109500D02*
X106047D01*
Y204480D01*
X106317Y203474D01*
X106837Y202573D01*
X107573Y201837D01*
X108474Y201317D01*
X109480Y201047D01*
X109500D01*
Y204500D01*
D02*
G37*
G36*
X123953Y198953D02*
X120500D01*
Y195500D01*
X123953D01*
Y198953D01*
D02*
G37*
G36*
X110520D02*
X110500D01*
Y195500D01*
X113953D01*
Y195520D01*
X113683Y196526D01*
X113163Y197427D01*
X112427Y198163D01*
X111526Y198683D01*
X110520Y198953D01*
D02*
G37*
G36*
X119500D02*
X116047D01*
Y195500D01*
X119500D01*
Y198953D01*
D02*
G37*
G36*
X109500D02*
X109480D01*
X108474Y198683D01*
X107573Y198163D01*
X106837Y197427D01*
X106317Y196526D01*
X106047Y195520D01*
Y195500D01*
X109500D01*
Y198953D01*
D02*
G37*
G36*
X323953D02*
X316047D01*
Y191047D01*
X323953D01*
Y198953D01*
D02*
G37*
G36*
X310520D02*
X309480D01*
X308474Y198683D01*
X307573Y198163D01*
X306837Y197427D01*
X306317Y196526D01*
X306047Y195520D01*
Y194480D01*
X306317Y193474D01*
X306837Y192573D01*
X307573Y191837D01*
X308474Y191317D01*
X309480Y191047D01*
X310520D01*
X311526Y191317D01*
X312427Y191837D01*
X313163Y192573D01*
X313683Y193474D01*
X313953Y194480D01*
Y195520D01*
X313683Y196526D01*
X313163Y197427D01*
X312427Y198163D01*
X311526Y198683D01*
X310520Y198953D01*
D02*
G37*
G36*
X290520D02*
X289480D01*
X288474Y198683D01*
X287573Y198163D01*
X286837Y197427D01*
X286317Y196526D01*
X286047Y195520D01*
Y194480D01*
X286317Y193474D01*
X286837Y192573D01*
X287573Y191837D01*
X288474Y191317D01*
X289480Y191047D01*
X290520D01*
X291526Y191317D01*
X292427Y191837D01*
X293163Y192573D01*
X293683Y193474D01*
X293953Y194480D01*
Y195520D01*
X293683Y196526D01*
X293163Y197427D01*
X292427Y198163D01*
X291526Y198683D01*
X290520Y198953D01*
D02*
G37*
G36*
X280520D02*
X279480D01*
X278474Y198683D01*
X277573Y198163D01*
X276837Y197427D01*
X276317Y196526D01*
X276047Y195520D01*
Y194480D01*
X276317Y193474D01*
X276837Y192573D01*
X277573Y191837D01*
X278474Y191317D01*
X279480Y191047D01*
X280520D01*
X281526Y191317D01*
X282427Y191837D01*
X283163Y192573D01*
X283683Y193474D01*
X283953Y194480D01*
Y195520D01*
X283683Y196526D01*
X283163Y197427D01*
X282427Y198163D01*
X281526Y198683D01*
X280520Y198953D01*
D02*
G37*
G36*
X270520D02*
X269480D01*
X268474Y198683D01*
X267573Y198163D01*
X266837Y197427D01*
X266317Y196526D01*
X266047Y195520D01*
Y194480D01*
X266317Y193474D01*
X266837Y192573D01*
X267573Y191837D01*
X268474Y191317D01*
X269480Y191047D01*
X270520D01*
X271526Y191317D01*
X272427Y191837D01*
X273163Y192573D01*
X273683Y193474D01*
X273953Y194480D01*
Y195520D01*
X273683Y196526D01*
X273163Y197427D01*
X272427Y198163D01*
X271526Y198683D01*
X270520Y198953D01*
D02*
G37*
G36*
X260520D02*
X259480D01*
X258474Y198683D01*
X257573Y198163D01*
X256837Y197427D01*
X256317Y196526D01*
X256047Y195520D01*
Y194480D01*
X256317Y193474D01*
X256837Y192573D01*
X257573Y191837D01*
X258474Y191317D01*
X259480Y191047D01*
X260520D01*
X261526Y191317D01*
X262427Y191837D01*
X263163Y192573D01*
X263683Y193474D01*
X263953Y194480D01*
Y195520D01*
X263683Y196526D01*
X263163Y197427D01*
X262427Y198163D01*
X261526Y198683D01*
X260520Y198953D01*
D02*
G37*
G36*
X250520D02*
X249480D01*
X248474Y198683D01*
X247573Y198163D01*
X246837Y197427D01*
X246317Y196526D01*
X246047Y195520D01*
Y194480D01*
X246317Y193474D01*
X246837Y192573D01*
X247573Y191837D01*
X248474Y191317D01*
X249480Y191047D01*
X250520D01*
X251526Y191317D01*
X252427Y191837D01*
X253163Y192573D01*
X253683Y193474D01*
X253953Y194480D01*
Y195520D01*
X253683Y196526D01*
X253163Y197427D01*
X252427Y198163D01*
X251526Y198683D01*
X250520Y198953D01*
D02*
G37*
G36*
X240520D02*
X239480D01*
X238474Y198683D01*
X237573Y198163D01*
X236837Y197427D01*
X236317Y196526D01*
X236047Y195520D01*
Y194480D01*
X236317Y193474D01*
X236837Y192573D01*
X237573Y191837D01*
X238474Y191317D01*
X239480Y191047D01*
X240520D01*
X241526Y191317D01*
X242427Y191837D01*
X243163Y192573D01*
X243683Y193474D01*
X243953Y194480D01*
Y195520D01*
X243683Y196526D01*
X243163Y197427D01*
X242427Y198163D01*
X241526Y198683D01*
X240520Y198953D01*
D02*
G37*
G36*
X230520D02*
X229480D01*
X228474Y198683D01*
X227573Y198163D01*
X226837Y197427D01*
X226317Y196526D01*
X226047Y195520D01*
Y194480D01*
X226317Y193474D01*
X226837Y192573D01*
X227573Y191837D01*
X228474Y191317D01*
X229480Y191047D01*
X230520D01*
X231526Y191317D01*
X232427Y191837D01*
X233163Y192573D01*
X233683Y193474D01*
X233953Y194480D01*
Y195520D01*
X233683Y196526D01*
X233163Y197427D01*
X232427Y198163D01*
X231526Y198683D01*
X230520Y198953D01*
D02*
G37*
G36*
X220520D02*
X219480D01*
X218474Y198683D01*
X217573Y198163D01*
X216837Y197427D01*
X216317Y196526D01*
X216047Y195520D01*
Y194480D01*
X216317Y193474D01*
X216837Y192573D01*
X217573Y191837D01*
X218474Y191317D01*
X219480Y191047D01*
X220520D01*
X221526Y191317D01*
X222427Y191837D01*
X223163Y192573D01*
X223683Y193474D01*
X223953Y194480D01*
Y195520D01*
X223683Y196526D01*
X223163Y197427D01*
X222427Y198163D01*
X221526Y198683D01*
X220520Y198953D01*
D02*
G37*
G36*
X210520D02*
X209480D01*
X208474Y198683D01*
X207573Y198163D01*
X206837Y197427D01*
X206317Y196526D01*
X206047Y195520D01*
Y194480D01*
X206317Y193474D01*
X206837Y192573D01*
X207573Y191837D01*
X208474Y191317D01*
X209480Y191047D01*
X210520D01*
X211526Y191317D01*
X212427Y191837D01*
X213163Y192573D01*
X213683Y193474D01*
X213953Y194480D01*
Y195520D01*
X213683Y196526D01*
X213163Y197427D01*
X212427Y198163D01*
X211526Y198683D01*
X210520Y198953D01*
D02*
G37*
G36*
X200520D02*
X199480D01*
X198474Y198683D01*
X197573Y198163D01*
X196837Y197427D01*
X196317Y196526D01*
X196047Y195520D01*
Y194480D01*
X196317Y193474D01*
X196837Y192573D01*
X197573Y191837D01*
X198474Y191317D01*
X199480Y191047D01*
X200520D01*
X201526Y191317D01*
X202427Y191837D01*
X203163Y192573D01*
X203683Y193474D01*
X203953Y194480D01*
Y195520D01*
X203683Y196526D01*
X203163Y197427D01*
X202427Y198163D01*
X201526Y198683D01*
X200520Y198953D01*
D02*
G37*
G36*
X190520D02*
X189480D01*
X188474Y198683D01*
X187573Y198163D01*
X186837Y197427D01*
X186317Y196526D01*
X186047Y195520D01*
Y194480D01*
X186317Y193474D01*
X186837Y192573D01*
X187573Y191837D01*
X188474Y191317D01*
X189480Y191047D01*
X190520D01*
X191526Y191317D01*
X192427Y191837D01*
X193163Y192573D01*
X193683Y193474D01*
X193953Y194480D01*
Y195520D01*
X193683Y196526D01*
X193163Y197427D01*
X192427Y198163D01*
X191526Y198683D01*
X190520Y198953D01*
D02*
G37*
G36*
X180520D02*
X179480D01*
X178474Y198683D01*
X177573Y198163D01*
X176837Y197427D01*
X176317Y196526D01*
X176047Y195520D01*
Y194480D01*
X176317Y193474D01*
X176837Y192573D01*
X177573Y191837D01*
X178474Y191317D01*
X179480Y191047D01*
X180520D01*
X181526Y191317D01*
X182427Y191837D01*
X183163Y192573D01*
X183683Y193474D01*
X183953Y194480D01*
Y195520D01*
X183683Y196526D01*
X183163Y197427D01*
X182427Y198163D01*
X181526Y198683D01*
X180520Y198953D01*
D02*
G37*
G36*
X170520D02*
X169480D01*
X168474Y198683D01*
X167573Y198163D01*
X166837Y197427D01*
X166317Y196526D01*
X166047Y195520D01*
Y194480D01*
X166317Y193474D01*
X166837Y192573D01*
X167573Y191837D01*
X168474Y191317D01*
X169480Y191047D01*
X170520D01*
X171526Y191317D01*
X172427Y191837D01*
X173163Y192573D01*
X173683Y193474D01*
X173953Y194480D01*
Y195520D01*
X173683Y196526D01*
X173163Y197427D01*
X172427Y198163D01*
X171526Y198683D01*
X170520Y198953D01*
D02*
G37*
G36*
X160520D02*
X159480D01*
X158474Y198683D01*
X157573Y198163D01*
X156837Y197427D01*
X156317Y196526D01*
X156047Y195520D01*
Y194480D01*
X156317Y193474D01*
X156837Y192573D01*
X157573Y191837D01*
X158474Y191317D01*
X159480Y191047D01*
X160520D01*
X161526Y191317D01*
X162427Y191837D01*
X163163Y192573D01*
X163683Y193474D01*
X163953Y194480D01*
Y195520D01*
X163683Y196526D01*
X163163Y197427D01*
X162427Y198163D01*
X161526Y198683D01*
X160520Y198953D01*
D02*
G37*
G36*
X150520D02*
X149480D01*
X148474Y198683D01*
X147573Y198163D01*
X146837Y197427D01*
X146317Y196526D01*
X146047Y195520D01*
Y194480D01*
X146317Y193474D01*
X146837Y192573D01*
X147573Y191837D01*
X148474Y191317D01*
X149480Y191047D01*
X150520D01*
X151526Y191317D01*
X152427Y191837D01*
X153163Y192573D01*
X153683Y193474D01*
X153953Y194480D01*
Y195520D01*
X153683Y196526D01*
X153163Y197427D01*
X152427Y198163D01*
X151526Y198683D01*
X150520Y198953D01*
D02*
G37*
G36*
X140520D02*
X139480D01*
X138474Y198683D01*
X137573Y198163D01*
X136837Y197427D01*
X136317Y196526D01*
X136047Y195520D01*
Y194480D01*
X136317Y193474D01*
X136837Y192573D01*
X137573Y191837D01*
X138474Y191317D01*
X139480Y191047D01*
X140520D01*
X141526Y191317D01*
X142427Y191837D01*
X143163Y192573D01*
X143683Y193474D01*
X143953Y194480D01*
Y195520D01*
X143683Y196526D01*
X143163Y197427D01*
X142427Y198163D01*
X141526Y198683D01*
X140520Y198953D01*
D02*
G37*
G36*
X123953Y194500D02*
X120500D01*
Y191047D01*
X123953D01*
Y194500D01*
D02*
G37*
G36*
X119500D02*
X116047D01*
Y191047D01*
X119500D01*
Y194500D01*
D02*
G37*
G36*
X113953D02*
X110500D01*
Y191047D01*
X110520D01*
X111526Y191317D01*
X112427Y191837D01*
X113163Y192573D01*
X113683Y193474D01*
X113953Y194480D01*
Y194500D01*
D02*
G37*
G36*
X109500D02*
X106047D01*
Y194480D01*
X106317Y193474D01*
X106837Y192573D01*
X107573Y191837D01*
X108474Y191317D01*
X109480Y191047D01*
X109500D01*
Y194500D01*
D02*
G37*
G36*
X300500Y191728D02*
Y190500D01*
X301728D01*
X301515Y191013D01*
X301012Y191515D01*
X300500Y191728D01*
D02*
G37*
G36*
X299500D02*
X298988Y191515D01*
X298485Y191013D01*
X298272Y190500D01*
X299500D01*
Y191728D01*
D02*
G37*
G36*
X301728Y189500D02*
X300500D01*
Y188272D01*
X301012Y188485D01*
X301515Y188988D01*
X301728Y189500D01*
D02*
G37*
G36*
X299500D02*
X298272D01*
X298485Y188988D01*
X298988Y188485D01*
X299500Y188272D01*
Y189500D01*
D02*
G37*
G36*
X264500Y177728D02*
Y176500D01*
X265728D01*
X265515Y177013D01*
X265013Y177515D01*
X264500Y177728D01*
D02*
G37*
G36*
X263500D02*
X262987Y177515D01*
X262485Y177013D01*
X262272Y176500D01*
X263500D01*
Y177728D01*
D02*
G37*
G36*
X265728Y175500D02*
X264500D01*
Y174272D01*
X265013Y174485D01*
X265515Y174987D01*
X265728Y175500D01*
D02*
G37*
G36*
X263500D02*
X262272D01*
X262485Y174987D01*
X262987Y174485D01*
X263500Y174272D01*
Y175500D01*
D02*
G37*
G36*
X333500Y174728D02*
X332987Y174515D01*
X332485Y174012D01*
X332272Y173500D01*
X333500D01*
Y174728D01*
D02*
G37*
G36*
X229417Y173760D02*
Y172532D01*
X230645D01*
X230433Y173045D01*
X229930Y173547D01*
X229417Y173760D01*
D02*
G37*
G36*
X228417D02*
X227905Y173547D01*
X227402Y173045D01*
X227190Y172532D01*
X228417D01*
Y173760D01*
D02*
G37*
G36*
X286500Y173728D02*
Y172500D01*
X287728D01*
X287515Y173012D01*
X287013Y173515D01*
X286500Y173728D01*
D02*
G37*
G36*
X285500D02*
X284987Y173515D01*
X284485Y173012D01*
X284272Y172500D01*
X285500D01*
Y173728D01*
D02*
G37*
G36*
X333500Y172500D02*
X332272D01*
X332485Y171987D01*
X332987Y171485D01*
X333500Y171272D01*
Y172500D01*
D02*
G37*
G36*
X230645Y171532D02*
X229417D01*
Y170305D01*
X229930Y170517D01*
X230433Y171020D01*
X230645Y171532D01*
D02*
G37*
G36*
X228417D02*
X227190D01*
X227402Y171020D01*
X227905Y170517D01*
X228417Y170305D01*
Y171532D01*
D02*
G37*
G36*
X287728Y171500D02*
X284272D01*
X284485Y170987D01*
X284972Y170500D01*
X284485Y170012D01*
X284272Y169500D01*
X287728D01*
X287515Y170012D01*
X287028Y170500D01*
X287515Y170987D01*
X287728Y171500D01*
D02*
G37*
G36*
Y168500D02*
X286500D01*
Y167272D01*
X287013Y167485D01*
X287515Y167988D01*
X287728Y168500D01*
D02*
G37*
G36*
X285500D02*
X284272D01*
X284485Y167988D01*
X284987Y167485D01*
X285500Y167272D01*
Y168500D01*
D02*
G37*
G36*
X322500Y167728D02*
Y166500D01*
X323728D01*
X323515Y167013D01*
X323012Y167515D01*
X322500Y167728D01*
D02*
G37*
G36*
X321500D02*
X320988Y167515D01*
X320485Y167013D01*
X320272Y166500D01*
X321500D01*
Y167728D01*
D02*
G37*
G36*
X323728Y165500D02*
X322500D01*
Y164272D01*
X323012Y164485D01*
X323515Y164988D01*
X323728Y165500D01*
D02*
G37*
G36*
X321500D02*
X320272D01*
X320485Y164988D01*
X320988Y164485D01*
X321500Y164272D01*
Y165500D01*
D02*
G37*
G36*
X237000Y163728D02*
Y162500D01*
X238228D01*
X238015Y163013D01*
X237512Y163515D01*
X237000Y163728D01*
D02*
G37*
G36*
X236000D02*
X235488Y163515D01*
X234985Y163013D01*
X234772Y162500D01*
X236000D01*
Y163728D01*
D02*
G37*
G36*
X238228Y161500D02*
X237000D01*
Y160272D01*
X237512Y160485D01*
X238015Y160987D01*
X238228Y161500D01*
D02*
G37*
G36*
X236000D02*
X234772D01*
X234985Y160987D01*
X235488Y160485D01*
X236000Y160272D01*
Y161500D01*
D02*
G37*
G36*
X275500Y161228D02*
Y160000D01*
X276728D01*
X276515Y160512D01*
X276012Y161015D01*
X275500Y161228D01*
D02*
G37*
G36*
X274500D02*
X273988Y161015D01*
X273485Y160512D01*
X273272Y160000D01*
X274500D01*
Y161228D01*
D02*
G37*
G36*
X194200Y159978D02*
Y158750D01*
X195428D01*
X195216Y159263D01*
X194713Y159765D01*
X194200Y159978D01*
D02*
G37*
G36*
X193200D02*
X192688Y159765D01*
X192185Y159263D01*
X191973Y158750D01*
X193200D01*
Y159978D01*
D02*
G37*
G36*
X154830D02*
Y158750D01*
X156058D01*
X155846Y159263D01*
X155343Y159765D01*
X154830Y159978D01*
D02*
G37*
G36*
X153830D02*
X153318Y159765D01*
X152815Y159263D01*
X152603Y158750D01*
X153830D01*
Y159978D01*
D02*
G37*
G36*
X276728Y159000D02*
X275500D01*
Y157772D01*
X276012Y157985D01*
X276515Y158487D01*
X276728Y159000D01*
D02*
G37*
G36*
X274500D02*
X273272D01*
X273485Y158487D01*
X273988Y157985D01*
X274500Y157772D01*
Y159000D01*
D02*
G37*
G36*
X156058Y157750D02*
X154830D01*
Y156522D01*
X155343Y156735D01*
X155846Y157238D01*
X156058Y157750D01*
D02*
G37*
G36*
X153830D02*
X152603D01*
X152815Y157238D01*
X153318Y156735D01*
X153830Y156522D01*
Y157750D01*
D02*
G37*
G36*
X195428D02*
X194200D01*
Y156522D01*
X194713Y156735D01*
X195216Y157238D01*
X195428Y157750D01*
D02*
G37*
G36*
X193200D02*
X191973D01*
X192185Y157238D01*
X192688Y156735D01*
X193200Y156522D01*
Y157750D01*
D02*
G37*
G36*
X200356Y179249D02*
X199644D01*
X198987Y178977D01*
X198485Y178474D01*
X198213Y177817D01*
Y177106D01*
X198485Y176449D01*
X198569Y176365D01*
Y159366D01*
X198466Y159263D01*
X198193Y158606D01*
Y157895D01*
X198466Y157238D01*
X198968Y156735D01*
X199625Y156463D01*
X200336D01*
X200993Y156735D01*
X201496Y157238D01*
X201768Y157895D01*
Y158606D01*
X201496Y159263D01*
X201411Y159347D01*
Y176345D01*
X201515Y176449D01*
X201787Y177106D01*
Y177817D01*
X201515Y178474D01*
X201012Y178977D01*
X200356Y179249D01*
D02*
G37*
G36*
X258500Y156728D02*
Y155500D01*
X259728D01*
X259515Y156012D01*
X259013Y156515D01*
X258500Y156728D01*
D02*
G37*
G36*
X257500D02*
X256988Y156515D01*
X256485Y156012D01*
X256272Y155500D01*
X257500D01*
Y156728D01*
D02*
G37*
G36*
X280783Y173976D02*
X280607Y173941D01*
X280427D01*
X280261Y173872D01*
X280085Y173837D01*
X279936Y173738D01*
X279770Y173669D01*
X279643Y173542D01*
X279494Y173442D01*
X279394Y173293D01*
X279267Y173166D01*
X279199Y173000D01*
X279099Y172851D01*
X279064Y172675D01*
X278995Y172509D01*
Y172330D01*
X278960Y172154D01*
Y155939D01*
X278627Y155716D01*
X277916D01*
X277259Y155444D01*
X276925Y155110D01*
X276563Y155472D01*
X276050Y155684D01*
Y153956D01*
Y152229D01*
X276351Y152353D01*
X276851Y152076D01*
Y149855D01*
X276756Y149760D01*
X276484Y149104D01*
Y148392D01*
X276756Y147736D01*
X276851Y147641D01*
Y141981D01*
X276756Y141886D01*
X276484Y141230D01*
Y140518D01*
X276756Y139862D01*
X277259Y139359D01*
X277916Y139087D01*
X278463D01*
X278692Y139000D01*
X278937Y138674D01*
Y120327D01*
X278972Y120151D01*
Y119971D01*
X279041Y119806D01*
X279076Y119630D01*
X279176Y119480D01*
X279244Y119315D01*
X279372Y119188D01*
X279471Y119038D01*
X279620Y118939D01*
X279747Y118812D01*
X279913Y118743D01*
X280062Y118643D01*
X280239Y118608D01*
X280404Y118540D01*
X280584D01*
X280760Y118505D01*
X280936Y118540D01*
X281115D01*
X281281Y118608D01*
X281457Y118643D01*
X281607Y118743D01*
X281772Y118812D01*
X281899Y118939D01*
X282049Y119038D01*
X282148Y119188D01*
X282275Y119315D01*
X282344Y119480D01*
X282407Y119575D01*
X282656Y119611D01*
X282944Y119585D01*
X282985Y119488D01*
X283488Y118985D01*
X284000Y118772D01*
Y120500D01*
Y122228D01*
X283488Y122015D01*
X283082Y121610D01*
X282626Y121736D01*
X282582Y121763D01*
Y138816D01*
X282605Y138931D01*
X282605Y138931D01*
Y172154D01*
X282570Y172330D01*
Y172509D01*
X282501Y172675D01*
X282466Y172851D01*
X282367Y173000D01*
X282298Y173166D01*
X282171Y173293D01*
X282071Y173442D01*
X281922Y173542D01*
X281795Y173669D01*
X281629Y173738D01*
X281480Y173837D01*
X281304Y173872D01*
X281138Y173941D01*
X280959D01*
X280783Y173976D01*
D02*
G37*
G36*
X295642Y155743D02*
Y154516D01*
X296870D01*
X296657Y155028D01*
X296155Y155531D01*
X295642Y155743D01*
D02*
G37*
G36*
X294642D02*
X294130Y155531D01*
X293627Y155028D01*
X293415Y154516D01*
X294642D01*
Y155743D01*
D02*
G37*
G36*
X275050Y155684D02*
X274538Y155472D01*
X274035Y154969D01*
X273823Y154456D01*
X275050D01*
Y155684D01*
D02*
G37*
G36*
X259728Y154500D02*
X258500D01*
Y153272D01*
X259013Y153485D01*
X259515Y153988D01*
X259728Y154500D01*
D02*
G37*
G36*
X257500D02*
X256272D01*
X256485Y153988D01*
X256988Y153485D01*
X257500Y153272D01*
Y154500D01*
D02*
G37*
G36*
X296870Y153516D02*
X295642D01*
Y152288D01*
X296155Y152500D01*
X296657Y153003D01*
X296870Y153516D01*
D02*
G37*
G36*
X294642D02*
X293415D01*
X293627Y153003D01*
X294130Y152500D01*
X294542Y152330D01*
X294642Y152288D01*
Y153516D01*
D02*
G37*
G36*
X275050Y153456D02*
X273823D01*
X274035Y152944D01*
X274538Y152441D01*
X275050Y152229D01*
Y153456D01*
D02*
G37*
G36*
X294682Y152271D02*
X294583Y151772D01*
X294826D01*
X294930Y151728D01*
X295030Y152228D01*
X294787D01*
X294682Y152271D01*
D02*
G37*
G36*
X268535Y152838D02*
Y151610D01*
X269763D01*
X269551Y152123D01*
X269048Y152626D01*
X268535Y152838D01*
D02*
G37*
G36*
X267535D02*
X267023Y152626D01*
X266520Y152123D01*
X266308Y151610D01*
X267535D01*
Y152838D01*
D02*
G37*
G36*
X294970Y151712D02*
Y150484D01*
X296198D01*
X295986Y150997D01*
X295483Y151499D01*
X295071Y151670D01*
X294970Y151712D01*
D02*
G37*
G36*
X293970Y151712D02*
X293458Y151499D01*
X292955Y150997D01*
X292743Y150484D01*
X293970D01*
Y151712D01*
D02*
G37*
G36*
X269763Y150610D02*
X268535D01*
Y149383D01*
X269048Y149595D01*
X269551Y150098D01*
X269763Y150610D01*
D02*
G37*
G36*
X267535D02*
X266308D01*
X266520Y150098D01*
X267023Y149595D01*
X267535Y149383D01*
Y150610D01*
D02*
G37*
G36*
X296198Y149484D02*
X294970D01*
Y148257D01*
X295483Y148469D01*
X295986Y148972D01*
X296198Y149484D01*
D02*
G37*
G36*
X293970D02*
X292743D01*
X292955Y148972D01*
X293458Y148469D01*
X293970Y148257D01*
Y149484D01*
D02*
G37*
G36*
X235500Y148728D02*
Y147500D01*
X236728D01*
X236515Y148012D01*
X236013Y148515D01*
X235500Y148728D01*
D02*
G37*
G36*
X234500D02*
X233987Y148515D01*
X233485Y148012D01*
X233272Y147500D01*
X234500D01*
Y148728D01*
D02*
G37*
G36*
X226917D02*
Y147500D01*
X228144D01*
X227932Y148012D01*
X227429Y148515D01*
X226917Y148728D01*
D02*
G37*
G36*
X225917D02*
X225404Y148515D01*
X224901Y148012D01*
X224689Y147500D01*
X225917D01*
Y148728D01*
D02*
G37*
G36*
X332659Y146967D02*
Y145740D01*
X333887D01*
X333675Y146252D01*
X333172Y146755D01*
X332659Y146967D01*
D02*
G37*
G36*
X331659D02*
X331147Y146755D01*
X330644Y146252D01*
X330432Y145740D01*
X331659D01*
Y146967D01*
D02*
G37*
G36*
X236728Y146500D02*
X235500D01*
Y145272D01*
X236013Y145485D01*
X236515Y145987D01*
X236728Y146500D01*
D02*
G37*
G36*
X234500D02*
X233272D01*
X233485Y145987D01*
X233987Y145485D01*
X234500Y145272D01*
Y146500D01*
D02*
G37*
G36*
X228144D02*
X226917D01*
Y145272D01*
X227429Y145485D01*
X227932Y145987D01*
X228144Y146500D01*
D02*
G37*
G36*
X225917D02*
X224689D01*
X224901Y145987D01*
X225404Y145485D01*
X225917Y145272D01*
Y146500D01*
D02*
G37*
G36*
X333887Y144740D02*
X332659D01*
Y143512D01*
X333172Y143724D01*
X333675Y144227D01*
X333887Y144740D01*
D02*
G37*
G36*
X331659D02*
X330432D01*
X330644Y144227D01*
X331147Y143724D01*
X331659Y143512D01*
Y144740D01*
D02*
G37*
G36*
X220500Y140021D02*
Y138793D01*
X221728D01*
X221515Y139306D01*
X221012Y139809D01*
X220500Y140021D01*
D02*
G37*
G36*
X219500D02*
X218987Y139809D01*
X218485Y139306D01*
X218272Y138793D01*
X219500D01*
Y140021D01*
D02*
G37*
G36*
X332073Y142026D02*
X331486D01*
X331025Y141935D01*
X330482Y141710D01*
X330092Y141449D01*
X329676Y141033D01*
X329415Y140643D01*
X329190Y140100D01*
X329099Y139639D01*
Y139052D01*
X329190Y138591D01*
X329415Y138048D01*
X329676Y137658D01*
X330092Y137242D01*
X330482Y136981D01*
X331025Y136757D01*
X331486Y136665D01*
X332073D01*
X332534Y136757D01*
X333077Y136981D01*
X333467Y137242D01*
X333883Y137658D01*
X334144Y138048D01*
X334368Y138591D01*
X334460Y139052D01*
Y139639D01*
X334368Y140100D01*
X334144Y140643D01*
X333883Y141033D01*
X333467Y141449D01*
X333077Y141710D01*
X332534Y141935D01*
X332226Y141996D01*
X332073Y142026D01*
D02*
G37*
G36*
X221728Y137793D02*
X220500D01*
Y136566D01*
X221012Y136778D01*
X221515Y137281D01*
X221728Y137793D01*
D02*
G37*
G36*
X219500D02*
X218272D01*
X218485Y137281D01*
X218987Y136778D01*
X219500Y136566D01*
Y137793D01*
D02*
G37*
G36*
X250000Y137728D02*
Y136500D01*
X251228D01*
X251015Y137013D01*
X250513Y137515D01*
X250000Y137728D01*
D02*
G37*
G36*
X249000D02*
X248487Y137515D01*
X247985Y137013D01*
X247772Y136500D01*
X249000D01*
Y137728D01*
D02*
G37*
G36*
X289500Y135228D02*
X288987Y135015D01*
X288535Y134563D01*
X288250Y134535D01*
X287965Y134563D01*
X287512Y135015D01*
X287000Y135228D01*
Y133500D01*
Y131772D01*
X287512Y131985D01*
X287965Y132437D01*
X288250Y132465D01*
X288535Y132437D01*
X288987Y131985D01*
X289500Y131772D01*
Y133500D01*
Y135228D01*
D02*
G37*
G36*
X251228Y135500D02*
X250000D01*
Y134272D01*
X250513Y134485D01*
X251015Y134987D01*
X251228Y135500D01*
D02*
G37*
G36*
X249000D02*
X247772D01*
X247985Y134987D01*
X248487Y134485D01*
X249000Y134272D01*
Y135500D01*
D02*
G37*
G36*
X290500Y135228D02*
Y134000D01*
X291728D01*
X291515Y134512D01*
X291013Y135015D01*
X290500Y135228D01*
D02*
G37*
G36*
X286000D02*
X285488Y135015D01*
X284985Y134512D01*
X284772Y134000D01*
X286000D01*
Y135228D01*
D02*
G37*
G36*
X238953Y141453D02*
X231047D01*
Y133547D01*
X238953D01*
Y141453D01*
D02*
G37*
G36*
X291728Y133000D02*
X290500D01*
Y131772D01*
X291013Y131985D01*
X291515Y132487D01*
X291728Y133000D01*
D02*
G37*
G36*
X286000D02*
X284772D01*
X284985Y132487D01*
X285488Y131985D01*
X286000Y131772D01*
Y133000D01*
D02*
G37*
G36*
X332073Y135334D02*
X331486D01*
X331025Y135242D01*
X330482Y135018D01*
X330092Y134757D01*
X329676Y134341D01*
X329415Y133951D01*
X329190Y133408D01*
X329099Y132947D01*
Y132360D01*
X329190Y131899D01*
X329415Y131356D01*
X329676Y130966D01*
X330092Y130550D01*
X330482Y130289D01*
X331025Y130064D01*
X331486Y129973D01*
X332073D01*
X332534Y130064D01*
X333077Y130289D01*
X333467Y130550D01*
X333883Y130966D01*
X334144Y131356D01*
X334368Y131899D01*
X334460Y132360D01*
Y132947D01*
X334368Y133408D01*
X334144Y133951D01*
X333883Y134341D01*
X333467Y134757D01*
X333077Y135018D01*
X332534Y135242D01*
X332226Y135304D01*
X332073Y135334D01*
D02*
G37*
G36*
X289578Y130728D02*
Y129500D01*
X290805D01*
X290593Y130013D01*
X290090Y130515D01*
X289578Y130728D01*
D02*
G37*
G36*
X288578D02*
X288065Y130515D01*
X287562Y130013D01*
X287350Y129500D01*
X288578D01*
Y130728D01*
D02*
G37*
G36*
X199615Y132598D02*
X145753D01*
X145577Y132563D01*
X145398D01*
X145232Y132495D01*
X145056Y132459D01*
X144906Y132360D01*
X144741Y132291D01*
X144614Y132164D01*
X144465Y132064D01*
X144365Y131915D01*
X144238Y131788D01*
X144169Y131623D01*
X144069Y131473D01*
X144034Y131297D01*
X143966Y131131D01*
Y130952D01*
X143931Y130776D01*
X143966Y130600D01*
Y130420D01*
X144034Y130254D01*
X144069Y130078D01*
X144169Y129929D01*
X144238Y129763D01*
X144365Y129637D01*
X144465Y129487D01*
X144614Y129387D01*
X144741Y129261D01*
X144906Y129192D01*
X145056Y129092D01*
X145232Y129057D01*
X145398Y128988D01*
X145577D01*
X145753Y128953D01*
X199615D01*
X199791Y128988D01*
X199970D01*
X200136Y129057D01*
X200312Y129092D01*
X200462Y129192D01*
X200627Y129261D01*
X200754Y129387D01*
X200904Y129487D01*
X201003Y129637D01*
X201130Y129763D01*
X201199Y129929D01*
X201299Y130078D01*
X201334Y130254D01*
X201402Y130420D01*
Y130600D01*
X201437Y130776D01*
X201402Y130952D01*
Y131131D01*
X201334Y131297D01*
X201299Y131473D01*
X201199Y131623D01*
X201130Y131788D01*
X201003Y131915D01*
X200904Y132064D01*
X200754Y132164D01*
X200627Y132291D01*
X200462Y132360D01*
X200312Y132459D01*
X200136Y132495D01*
X199970Y132563D01*
X199791D01*
X199615Y132598D01*
D02*
G37*
G36*
X235520Y131453D02*
X235500D01*
Y128000D01*
X238953D01*
Y128020D01*
X238683Y129026D01*
X238163Y129927D01*
X237427Y130663D01*
X236526Y131183D01*
X235520Y131453D01*
D02*
G37*
G36*
X234500D02*
X234480D01*
X233474Y131183D01*
X232573Y130663D01*
X231837Y129927D01*
X231317Y129026D01*
X231047Y128020D01*
Y128000D01*
X234500D01*
Y131453D01*
D02*
G37*
G36*
X290805Y128500D02*
X289578D01*
Y127272D01*
X290090Y127485D01*
X290593Y127988D01*
X290805Y128500D01*
D02*
G37*
G36*
X288578D02*
X287350D01*
X287562Y127988D01*
X288065Y127485D01*
X288578Y127272D01*
Y128500D01*
D02*
G37*
G36*
X220500Y125975D02*
Y124748D01*
X221728D01*
X221515Y125260D01*
X221012Y125763D01*
X220500Y125975D01*
D02*
G37*
G36*
X219500D02*
X218987Y125763D01*
X218485Y125260D01*
X218272Y124748D01*
X219500D01*
Y125975D01*
D02*
G37*
G36*
X264189Y125834D02*
Y124606D01*
X265417D01*
X265204Y125119D01*
X264702Y125622D01*
X264189Y125834D01*
D02*
G37*
G36*
X263189D02*
X262677Y125622D01*
X262174Y125119D01*
X261961Y124606D01*
X263189D01*
Y125834D01*
D02*
G37*
G36*
X238953Y127000D02*
X235500D01*
Y123547D01*
X235520D01*
X236526Y123817D01*
X237427Y124337D01*
X238163Y125073D01*
X238683Y125974D01*
X238953Y126980D01*
Y127000D01*
D02*
G37*
G36*
X234500D02*
X231047D01*
Y126980D01*
X231317Y125974D01*
X231837Y125073D01*
X232573Y124337D01*
X233474Y123817D01*
X234480Y123547D01*
X234500D01*
Y127000D01*
D02*
G37*
G36*
X328575Y126093D02*
X327500D01*
Y123500D01*
X331602D01*
X331563Y123801D01*
X331254Y124547D01*
X330762Y125187D01*
X330121Y125679D01*
X329375Y125988D01*
X328575Y126093D01*
D02*
G37*
G36*
X312827D02*
X311161D01*
Y123500D01*
X315854D01*
X315815Y123801D01*
X315506Y124547D01*
X315014Y125187D01*
X314373Y125679D01*
X313627Y125988D01*
X312827Y126093D01*
D02*
G37*
G36*
X326500D02*
X325425D01*
X324625Y125988D01*
X323879Y125679D01*
X323238Y125187D01*
X322746Y124547D01*
X322437Y123801D01*
X322398Y123500D01*
X326500D01*
Y126093D01*
D02*
G37*
G36*
X310161D02*
X308496D01*
X307695Y125988D01*
X306949Y125679D01*
X306309Y125187D01*
X305817Y124547D01*
X305508Y123801D01*
X305469Y123500D01*
X310161D01*
Y126093D01*
D02*
G37*
G36*
X221728Y123748D02*
X220500D01*
Y122520D01*
X221012Y122732D01*
X221515Y123235D01*
X221728Y123748D01*
D02*
G37*
G36*
X219500D02*
X218272D01*
X218485Y123235D01*
X218987Y122732D01*
X219500Y122520D01*
Y123748D01*
D02*
G37*
G36*
X265417Y123606D02*
X264189D01*
Y122379D01*
X264702Y122591D01*
X265204Y123094D01*
X265417Y123606D01*
D02*
G37*
G36*
X263189D02*
X261961D01*
X262174Y123094D01*
X262677Y122591D01*
X263189Y122379D01*
Y123606D01*
D02*
G37*
G36*
X285000Y122228D02*
Y121000D01*
X286228D01*
X286015Y121512D01*
X285512Y122015D01*
X285000Y122228D01*
D02*
G37*
G36*
X331602Y122500D02*
X327500D01*
Y119907D01*
X328575D01*
X329375Y120012D01*
X330121Y120321D01*
X330762Y120813D01*
X331254Y121453D01*
X331563Y122199D01*
X331602Y122500D01*
D02*
G37*
G36*
X326500D02*
X322398D01*
X322437Y122199D01*
X322746Y121453D01*
X323238Y120813D01*
X323879Y120321D01*
X324625Y120012D01*
X325425Y119907D01*
X326500D01*
Y122500D01*
D02*
G37*
G36*
X310161D02*
X305469D01*
X305508Y122199D01*
X305817Y121453D01*
X306309Y120813D01*
X306949Y120321D01*
X307695Y120012D01*
X308496Y119907D01*
X310161D01*
Y122500D01*
D02*
G37*
G36*
X286228Y120000D02*
X285000D01*
Y118772D01*
X285512Y118985D01*
X286015Y119488D01*
X286228Y120000D01*
D02*
G37*
G36*
X199615Y120361D02*
X145753D01*
X145577Y120326D01*
X145398D01*
X145232Y120258D01*
X145056Y120223D01*
X144906Y120123D01*
X144741Y120054D01*
X144614Y119927D01*
X144465Y119827D01*
X144365Y119678D01*
X144238Y119551D01*
X144169Y119386D01*
X144069Y119236D01*
X144034Y119060D01*
X143966Y118894D01*
Y118715D01*
X143931Y118539D01*
X143966Y118363D01*
Y118183D01*
X144034Y118017D01*
X144069Y117841D01*
X144169Y117692D01*
X144238Y117526D01*
X144365Y117400D01*
X144465Y117250D01*
X144614Y117150D01*
X144741Y117024D01*
X144906Y116955D01*
X145056Y116855D01*
X145232Y116820D01*
X145398Y116751D01*
X145577D01*
X145753Y116716D01*
X199615D01*
X199791Y116751D01*
X199970D01*
X200136Y116820D01*
X200312Y116855D01*
X200462Y116955D01*
X200627Y117024D01*
X200754Y117150D01*
X200904Y117250D01*
X201003Y117400D01*
X201130Y117526D01*
X201199Y117692D01*
X201299Y117841D01*
X201334Y118017D01*
X201402Y118183D01*
Y118363D01*
X201437Y118539D01*
X201402Y118715D01*
Y118894D01*
X201334Y119060D01*
X201299Y119236D01*
X201199Y119386D01*
X201130Y119551D01*
X201003Y119678D01*
X200904Y119827D01*
X200754Y119927D01*
X200627Y120054D01*
X200462Y120123D01*
X200312Y120223D01*
X200136Y120258D01*
X199970Y120326D01*
X199791D01*
X199615Y120361D01*
D02*
G37*
G36*
X296920Y117168D02*
Y115941D01*
X298148D01*
X297936Y116453D01*
X297433Y116956D01*
X296920Y117168D01*
D02*
G37*
G36*
X295920D02*
X295408Y116956D01*
X294905Y116453D01*
X294693Y115941D01*
X295920D01*
Y117168D01*
D02*
G37*
G36*
X315854Y122500D02*
X311161D01*
Y119907D01*
X311233D01*
X311333Y119407D01*
X311283Y119386D01*
X310614Y118717D01*
X310252Y117843D01*
Y116897D01*
X310614Y116023D01*
X311283Y115354D01*
X312157Y114992D01*
X313103D01*
X313977Y115354D01*
X314646Y116023D01*
X315008Y116897D01*
Y117843D01*
X314646Y118717D01*
X313977Y119386D01*
X313670Y119513D01*
X313644Y119813D01*
X313700Y120042D01*
X314373Y120321D01*
X315014Y120813D01*
X315506Y121453D01*
X315815Y122199D01*
X315854Y122500D01*
D02*
G37*
G36*
X289500Y115228D02*
Y114000D01*
X290728D01*
X290515Y114513D01*
X290013Y115015D01*
X289500Y115228D01*
D02*
G37*
G36*
X288500D02*
X287987Y115015D01*
X287485Y114513D01*
X287272Y114000D01*
X288500D01*
Y115228D01*
D02*
G37*
G36*
X298148Y114941D02*
X296920D01*
Y113713D01*
X297433Y113926D01*
X297936Y114428D01*
X298148Y114941D01*
D02*
G37*
G36*
X295920D02*
X294693D01*
X294905Y114428D01*
X295408Y113926D01*
X295920Y113713D01*
Y114941D01*
D02*
G37*
G36*
X235520Y121453D02*
X234480D01*
X233474Y121183D01*
X232573Y120663D01*
X231837Y119927D01*
X231317Y119026D01*
X231047Y118020D01*
Y116980D01*
X231317Y115974D01*
X231837Y115073D01*
X232573Y114337D01*
X233474Y113817D01*
X234480Y113547D01*
X235520D01*
X236526Y113817D01*
X237427Y114337D01*
X238163Y115073D01*
X238683Y115974D01*
X238953Y116980D01*
Y118020D01*
X238683Y119026D01*
X238163Y119927D01*
X237427Y120663D01*
X236526Y121183D01*
X235520Y121453D01*
D02*
G37*
G36*
X290728Y113000D02*
X289500D01*
Y111772D01*
X290013Y111985D01*
X290515Y112487D01*
X290728Y113000D01*
D02*
G37*
G36*
X288500D02*
X287272D01*
X287485Y112487D01*
X287987Y111985D01*
X288500Y111772D01*
Y113000D01*
D02*
G37*
G36*
X220500Y111770D02*
Y110542D01*
X221728D01*
X221515Y111055D01*
X221012Y111557D01*
X220500Y111770D01*
D02*
G37*
G36*
X219500D02*
X218987Y111557D01*
X218485Y111055D01*
X218272Y110542D01*
X219500D01*
Y111770D01*
D02*
G37*
G36*
X221728Y109542D02*
X220500D01*
Y108315D01*
X221012Y108527D01*
X221515Y109029D01*
X221728Y109542D01*
D02*
G37*
G36*
X219500D02*
X218272D01*
X218485Y109029D01*
X218987Y108527D01*
X219500Y108315D01*
Y109542D01*
D02*
G37*
G36*
X199615Y108124D02*
X145753D01*
X145577Y108089D01*
X145398D01*
X145232Y108021D01*
X145056Y107985D01*
X144906Y107886D01*
X144741Y107817D01*
X144614Y107690D01*
X144465Y107590D01*
X144365Y107441D01*
X144238Y107314D01*
X144169Y107149D01*
X144069Y106999D01*
X144034Y106823D01*
X143966Y106657D01*
Y106478D01*
X143931Y106302D01*
X143966Y106126D01*
Y105946D01*
X144034Y105780D01*
X144069Y105604D01*
X144169Y105455D01*
X144238Y105289D01*
X144365Y105163D01*
X144465Y105013D01*
X144614Y104913D01*
X144741Y104787D01*
X144906Y104718D01*
X145056Y104618D01*
X145232Y104583D01*
X145398Y104515D01*
X145577D01*
X145753Y104479D01*
X199615D01*
X199791Y104515D01*
X199970D01*
X200136Y104583D01*
X200312Y104618D01*
X200462Y104718D01*
X200627Y104787D01*
X200754Y104913D01*
X200904Y105013D01*
X201003Y105163D01*
X201130Y105289D01*
X201199Y105455D01*
X201299Y105604D01*
X201334Y105780D01*
X201402Y105946D01*
Y106126D01*
X201437Y106302D01*
X201402Y106478D01*
Y106657D01*
X201334Y106823D01*
X201299Y106999D01*
X201199Y107149D01*
X201130Y107314D01*
X201003Y107441D01*
X200904Y107590D01*
X200754Y107690D01*
X200627Y107817D01*
X200462Y107886D01*
X200312Y107985D01*
X200136Y108021D01*
X199970Y108089D01*
X199791D01*
X199615Y108124D01*
D02*
G37*
G36*
X296935Y100671D02*
Y99444D01*
X298162D01*
X297950Y99956D01*
X297447Y100459D01*
X296935Y100671D01*
D02*
G37*
G36*
X295935D02*
X295422Y100459D01*
X294919Y99956D01*
X294707Y99444D01*
X295935D01*
Y100671D01*
D02*
G37*
G36*
X239500Y99484D02*
Y98256D01*
X240728D01*
X240515Y98768D01*
X240013Y99271D01*
X239500Y99484D01*
D02*
G37*
G36*
X238500D02*
X237987Y99271D01*
X237485Y98768D01*
X237272Y98256D01*
X238500D01*
Y99484D01*
D02*
G37*
G36*
X298162Y98444D02*
X296935D01*
Y97216D01*
X297447Y97428D01*
X297950Y97931D01*
X298162Y98444D01*
D02*
G37*
G36*
X295935D02*
X294707D01*
X294919Y97931D01*
X295422Y97428D01*
X295935Y97216D01*
Y98444D01*
D02*
G37*
G36*
X220500Y97564D02*
Y96337D01*
X221728D01*
X221515Y96849D01*
X221012Y97352D01*
X220500Y97564D01*
D02*
G37*
G36*
X219500D02*
X218987Y97352D01*
X218485Y96849D01*
X218272Y96337D01*
X219500D01*
Y97564D01*
D02*
G37*
G36*
X240728Y97256D02*
X239500D01*
Y96028D01*
X240013Y96241D01*
X240515Y96743D01*
X240728Y97256D01*
D02*
G37*
G36*
X238500D02*
X237272D01*
X237485Y96743D01*
X237987Y96241D01*
X238500Y96028D01*
Y97256D01*
D02*
G37*
G36*
X221728Y95337D02*
X220500D01*
Y94109D01*
X221012Y94321D01*
X221515Y94824D01*
X221728Y95337D01*
D02*
G37*
G36*
X219500D02*
X218272D01*
X218485Y94824D01*
X218987Y94321D01*
X219500Y94109D01*
Y95337D01*
D02*
G37*
G36*
X199615Y95887D02*
X145753D01*
X145577Y95852D01*
X145398D01*
X145232Y95784D01*
X145056Y95749D01*
X144906Y95649D01*
X144741Y95580D01*
X144614Y95453D01*
X144465Y95354D01*
X144365Y95204D01*
X144238Y95077D01*
X144169Y94911D01*
X144069Y94762D01*
X144034Y94586D01*
X143966Y94420D01*
Y94241D01*
X143931Y94065D01*
X143966Y93889D01*
Y93709D01*
X144034Y93543D01*
X144069Y93367D01*
X144169Y93218D01*
X144238Y93052D01*
X144365Y92926D01*
X144465Y92776D01*
X144614Y92677D01*
X144741Y92550D01*
X144906Y92481D01*
X145056Y92381D01*
X145232Y92346D01*
X145398Y92277D01*
X145577D01*
X145753Y92242D01*
X199615D01*
X199791Y92277D01*
X199970D01*
X200136Y92346D01*
X200312Y92381D01*
X200462Y92481D01*
X200627Y92550D01*
X200754Y92677D01*
X200904Y92776D01*
X201003Y92926D01*
X201130Y93052D01*
X201199Y93218D01*
X201299Y93367D01*
X201334Y93543D01*
X201402Y93709D01*
Y93889D01*
X201437Y94065D01*
X201402Y94241D01*
Y94420D01*
X201334Y94586D01*
X201299Y94762D01*
X201199Y94911D01*
X201130Y95077D01*
X201003Y95204D01*
X200904Y95354D01*
X200754Y95453D01*
X200627Y95580D01*
X200462Y95649D01*
X200312Y95749D01*
X200136Y95784D01*
X199970Y95852D01*
X199791D01*
X199615Y95887D01*
D02*
G37*
G36*
X285642Y97756D02*
X284602D01*
X283596Y97487D01*
X282695Y96966D01*
X281959Y96230D01*
X281439Y95329D01*
X281169Y94324D01*
Y93283D01*
X281439Y92277D01*
X281959Y91376D01*
X282695Y90640D01*
X283596Y90120D01*
X284602Y89850D01*
X285642D01*
X286648Y90120D01*
X287549Y90640D01*
X288285Y91376D01*
X288805Y92277D01*
X289075Y93283D01*
Y94324D01*
X288805Y95329D01*
X288285Y96230D01*
X287549Y96966D01*
X286648Y97487D01*
X285642Y97756D01*
D02*
G37*
G36*
X275642D02*
X274602D01*
X273596Y97487D01*
X272695Y96966D01*
X271959Y96230D01*
X271439Y95329D01*
X271169Y94324D01*
Y93283D01*
X271439Y92277D01*
X271959Y91376D01*
X272695Y90640D01*
X273596Y90120D01*
X274602Y89850D01*
X275642D01*
X276648Y90120D01*
X277549Y90640D01*
X278285Y91376D01*
X278805Y92277D01*
X279075Y93283D01*
Y94324D01*
X278805Y95329D01*
X278285Y96230D01*
X277549Y96966D01*
X276648Y97487D01*
X275642Y97756D01*
D02*
G37*
G36*
X265642D02*
X264602D01*
X263596Y97487D01*
X262695Y96966D01*
X261959Y96230D01*
X261439Y95329D01*
X261169Y94324D01*
Y93283D01*
X261439Y92277D01*
X261959Y91376D01*
X262695Y90640D01*
X263596Y90120D01*
X264602Y89850D01*
X265642D01*
X266648Y90120D01*
X267549Y90640D01*
X268285Y91376D01*
X268805Y92277D01*
X269075Y93283D01*
Y94324D01*
X268805Y95329D01*
X268285Y96230D01*
X267549Y96966D01*
X266648Y97487D01*
X265642Y97756D01*
D02*
G37*
G36*
X259075D02*
X251169D01*
Y89850D01*
X259075D01*
Y97756D01*
D02*
G37*
G36*
X328575Y92078D02*
X327500D01*
Y89484D01*
X331602D01*
X331563Y89785D01*
X331254Y90531D01*
X330762Y91172D01*
X330121Y91663D01*
X329375Y91972D01*
X328575Y92078D01*
D02*
G37*
G36*
X313103Y96992D02*
X312157D01*
X311283Y96630D01*
X310614Y95961D01*
X310252Y95087D01*
Y94141D01*
X310614Y93267D01*
X311283Y92598D01*
X311333Y92578D01*
X311233Y92078D01*
X311161D01*
Y89484D01*
X315854D01*
X315815Y89785D01*
X315506Y90531D01*
X315014Y91172D01*
X314373Y91663D01*
X313700Y91942D01*
X313644Y92172D01*
X313670Y92471D01*
X313977Y92598D01*
X314646Y93267D01*
X315008Y94141D01*
Y95087D01*
X314646Y95961D01*
X313977Y96630D01*
X313103Y96992D01*
D02*
G37*
G36*
X326500Y92078D02*
X325425D01*
X324625Y91972D01*
X323879Y91663D01*
X323238Y91172D01*
X322746Y90531D01*
X322437Y89785D01*
X322398Y89484D01*
X326500D01*
Y92078D01*
D02*
G37*
G36*
X310161D02*
X308496D01*
X307695Y91972D01*
X306949Y91663D01*
X306309Y91172D01*
X305817Y90531D01*
X305508Y89785D01*
X305469Y89484D01*
X310161D01*
Y92078D01*
D02*
G37*
G36*
X331602Y88484D02*
X327500D01*
Y85891D01*
X328575D01*
X329375Y85996D01*
X330121Y86305D01*
X330762Y86797D01*
X331254Y87438D01*
X331563Y88184D01*
X331602Y88484D01*
D02*
G37*
G36*
X326500D02*
X322398D01*
X322437Y88184D01*
X322746Y87438D01*
X323238Y86797D01*
X323879Y86305D01*
X324625Y85996D01*
X325425Y85891D01*
X326500D01*
Y88484D01*
D02*
G37*
G36*
X315854D02*
X311161D01*
Y85891D01*
X312827D01*
X313627Y85996D01*
X314373Y86305D01*
X315014Y86797D01*
X315506Y87438D01*
X315815Y88184D01*
X315854Y88484D01*
D02*
G37*
G36*
X310161D02*
X305469D01*
X305508Y88184D01*
X305817Y87438D01*
X306309Y86797D01*
X306949Y86305D01*
X307695Y85996D01*
X308496Y85891D01*
X310161D01*
Y88484D01*
D02*
G37*
G36*
X220500Y83521D02*
Y82293D01*
X221728D01*
X221515Y82806D01*
X221012Y83309D01*
X220500Y83521D01*
D02*
G37*
G36*
X219500D02*
X218987Y83309D01*
X218485Y82806D01*
X218272Y82293D01*
X219500D01*
Y83521D01*
D02*
G37*
G36*
X221728Y81293D02*
X220500D01*
Y80066D01*
X221012Y80278D01*
X221515Y80781D01*
X221728Y81293D01*
D02*
G37*
G36*
X219500D02*
X218272D01*
X218485Y80781D01*
X218987Y80278D01*
X219500Y80066D01*
Y81293D01*
D02*
G37*
G36*
X199615Y83650D02*
X145753D01*
X145577Y83615D01*
X145398D01*
X145232Y83547D01*
X145056Y83512D01*
X144906Y83412D01*
X144741Y83343D01*
X144614Y83216D01*
X144465Y83117D01*
X144365Y82967D01*
X144238Y82840D01*
X144169Y82674D01*
X144069Y82525D01*
X144034Y82349D01*
X143966Y82183D01*
Y82004D01*
X143931Y81828D01*
X143966Y81652D01*
Y81472D01*
X144034Y81306D01*
X144069Y81130D01*
X144169Y80981D01*
X144238Y80815D01*
X144365Y80689D01*
X144465Y80539D01*
X144614Y80440D01*
X144741Y80313D01*
X144906Y80244D01*
X145056Y80144D01*
X145232Y80109D01*
X145398Y80040D01*
X145577D01*
X145753Y80005D01*
X199615D01*
X199791Y80040D01*
X199970D01*
X200136Y80109D01*
X200312Y80144D01*
X200462Y80244D01*
X200627Y80313D01*
X200754Y80440D01*
X200904Y80539D01*
X201003Y80689D01*
X201130Y80815D01*
X201199Y80981D01*
X201299Y81130D01*
X201334Y81306D01*
X201402Y81472D01*
Y81652D01*
X201437Y81828D01*
X201402Y82004D01*
Y82183D01*
X201334Y82349D01*
X201299Y82525D01*
X201199Y82674D01*
X201130Y82840D01*
X201003Y82967D01*
X200904Y83117D01*
X200754Y83216D01*
X200627Y83343D01*
X200462Y83412D01*
X200312Y83512D01*
X200136Y83547D01*
X199970Y83615D01*
X199791D01*
X199615Y83650D01*
D02*
G37*
G36*
X18750Y141016D02*
X17231Y140866D01*
X15770Y140423D01*
X14424Y139703D01*
X13243Y138735D01*
X12275Y137555D01*
X11555Y136208D01*
X11112Y134748D01*
X10962Y133228D01*
X10971D01*
Y79291D01*
X10962D01*
X11112Y77772D01*
X11555Y76311D01*
X12275Y74965D01*
X13243Y73785D01*
X14424Y72816D01*
X15770Y72097D01*
X17231Y71653D01*
X18750Y71504D01*
X20269Y71653D01*
X21730Y72097D01*
X23076Y72816D01*
X24257Y73785D01*
X25225Y74965D01*
X25945Y76311D01*
X26388Y77772D01*
X26537Y79291D01*
X26529D01*
Y133228D01*
X26537D01*
X26388Y134748D01*
X25945Y136208D01*
X25225Y137555D01*
X24257Y138735D01*
X23076Y139703D01*
X21730Y140423D01*
X20269Y140866D01*
X18750Y141016D01*
D02*
G37*
G36*
X10146Y4966D02*
Y3738D01*
X11373D01*
X11161Y4250D01*
X10658Y4753D01*
X10146Y4966D01*
D02*
G37*
G36*
X9146D02*
X8633Y4753D01*
X8130Y4250D01*
X7918Y3738D01*
X9146D01*
Y4966D01*
D02*
G37*
%LPD*%
D12*
X199990Y158260D02*
Y177452D01*
X199981Y158250D02*
X199990Y158260D01*
Y177452D02*
X200000Y177462D01*
X278272Y148748D02*
Y153929D01*
Y140874D02*
Y148748D01*
D57*
X280783Y138931D02*
Y172154D01*
X280760Y120327D02*
Y138908D01*
X280783Y138931D01*
X186445Y81828D02*
X199615D01*
X159397D02*
X172979D01*
X186445D01*
X145753D02*
X159397D01*
X145753Y118539D02*
X199615D01*
X145753Y130776D02*
X199615D01*
X145753Y106302D02*
X199615D01*
X145753Y94065D02*
X199615D01*
D59*
X235000Y127500D02*
D03*
X110000Y195000D02*
D03*
X120000Y205000D02*
D03*
X110000D02*
D03*
X140000D02*
D03*
Y195000D02*
D03*
X310000D02*
D03*
X320000Y205000D02*
D03*
X310000D02*
D03*
X265122Y93803D02*
D03*
X275122D02*
D03*
X285122D02*
D03*
X150000Y195000D02*
D03*
Y205000D02*
D03*
X160000Y195000D02*
D03*
Y205000D02*
D03*
X170000Y195000D02*
D03*
Y205000D02*
D03*
X180000Y195000D02*
D03*
Y205000D02*
D03*
X190000Y195000D02*
D03*
Y205000D02*
D03*
X200000Y195000D02*
D03*
Y205000D02*
D03*
X210000Y195000D02*
D03*
Y205000D02*
D03*
X220000Y195000D02*
D03*
Y205000D02*
D03*
X230000Y195000D02*
D03*
Y205000D02*
D03*
X240000Y195000D02*
D03*
Y205000D02*
D03*
X250000Y195000D02*
D03*
Y205000D02*
D03*
X260000Y195000D02*
D03*
Y205000D02*
D03*
X270000Y195000D02*
D03*
Y205000D02*
D03*
X280000Y195000D02*
D03*
Y205000D02*
D03*
X290000Y195000D02*
D03*
X235000Y117500D02*
D03*
D60*
X327000Y88984D02*
D03*
Y123000D02*
D03*
D61*
X310661Y88984D02*
D03*
Y123000D02*
D03*
D62*
X120000Y195000D02*
D03*
X320000D02*
D03*
X235000Y137500D02*
D03*
D63*
X255122Y93803D02*
D03*
X290000Y205000D02*
D03*
D64*
X312630Y94614D02*
D03*
Y117370D02*
D03*
D65*
X199981Y158250D02*
D03*
X193700D02*
D03*
X154330D02*
D03*
X200000Y177462D02*
D03*
X9646Y3238D02*
D03*
X249500Y136000D02*
D03*
X268035Y151110D02*
D03*
X275550Y153956D02*
D03*
X9646Y209282D02*
D03*
X275000Y159500D02*
D03*
X286000Y172000D02*
D03*
X296435Y98944D02*
D03*
X289000Y113500D02*
D03*
X290000Y133500D02*
D03*
X322000Y166000D02*
D03*
X333500Y203000D02*
D03*
X334000Y173000D02*
D03*
X258000Y155000D02*
D03*
X264000Y176000D02*
D03*
X286000Y169000D02*
D03*
X239000Y97756D02*
D03*
X294470Y149984D02*
D03*
X295142Y154016D02*
D03*
X296420Y115441D02*
D03*
X220000Y138293D02*
D03*
Y124248D02*
D03*
Y110042D02*
D03*
Y95837D02*
D03*
Y81793D02*
D03*
X263689Y124106D02*
D03*
X332159Y145240D02*
D03*
X284500Y120500D02*
D03*
X286500Y133500D02*
D03*
X289077Y129000D02*
D03*
X300000Y190000D02*
D03*
X236500Y162000D02*
D03*
X235000Y147000D02*
D03*
X226416D02*
D03*
X228917Y172032D02*
D03*
X280783Y172154D02*
D03*
X280760Y120327D02*
D03*
X199615Y94065D02*
D03*
Y81828D02*
D03*
X172979Y94065D02*
D03*
Y81828D02*
D03*
X159397D02*
D03*
X186445Y94065D02*
D03*
Y81828D02*
D03*
X159397Y94065D02*
D03*
X145753Y106302D02*
D03*
X186445Y118539D02*
D03*
X159397D02*
D03*
X199615Y106302D02*
D03*
X186445D02*
D03*
X172979Y118539D02*
D03*
Y130776D02*
D03*
Y106302D02*
D03*
X159397D02*
D03*
X199615Y130776D02*
D03*
Y118539D02*
D03*
X186445Y130776D02*
D03*
X159397D02*
D03*
X145753Y94065D02*
D03*
Y81828D02*
D03*
Y130776D02*
D03*
Y118539D02*
D03*
X278272Y153929D02*
D03*
Y148748D02*
D03*
Y140874D02*
D03*
M02*
