G04*
G04 #@! TF.GenerationSoftware,Altium Limited,Altium Designer,25.8.1 (18)*
G04*
G04 Layer_Physical_Order=1*
G04 Layer_Color=255*
%FSLAX25Y25*%
%MOIN*%
G70*
G04*
G04 #@! TF.SameCoordinates,879A800C-AAF0-40E7-B308-37E3056083DF*
G04*
G04*
G04 #@! TF.FilePolarity,Positive*
G04*
G01*
G75*
%ADD11C,0.00787*%
%ADD12C,0.00984*%
%ADD14C,0.01575*%
%ADD15C,0.01000*%
%ADD16R,0.02230X0.02254*%
%ADD17R,0.05906X0.09843*%
%ADD18O,0.06299X0.02362*%
G04:AMPARAMS|DCode=19|XSize=7.87mil|YSize=33.07mil|CornerRadius=0.98mil|HoleSize=0mil|Usage=FLASHONLY|Rotation=90.000|XOffset=0mil|YOffset=0mil|HoleType=Round|Shape=RoundedRectangle|*
%AMROUNDEDRECTD19*
21,1,0.00787,0.03110,0,0,90.0*
21,1,0.00591,0.03307,0,0,90.0*
1,1,0.00197,0.01555,0.00295*
1,1,0.00197,0.01555,-0.00295*
1,1,0.00197,-0.01555,-0.00295*
1,1,0.00197,-0.01555,0.00295*
%
%ADD19ROUNDEDRECTD19*%
%ADD20R,0.03150X0.03150*%
G04:AMPARAMS|DCode=21|XSize=33.07mil|YSize=7.87mil|CornerRadius=0.98mil|HoleSize=0mil|Usage=FLASHONLY|Rotation=90.000|XOffset=0mil|YOffset=0mil|HoleType=Round|Shape=RoundedRectangle|*
%AMROUNDEDRECTD21*
21,1,0.03307,0.00591,0,0,90.0*
21,1,0.03110,0.00787,0,0,90.0*
1,1,0.00197,0.00295,0.01555*
1,1,0.00197,0.00295,-0.01555*
1,1,0.00197,-0.00295,-0.01555*
1,1,0.00197,-0.00295,0.01555*
%
%ADD21ROUNDEDRECTD21*%
%ADD23R,0.04528X0.02362*%
%ADD24R,0.07874X0.08583*%
%ADD25R,0.03543X0.02756*%
%ADD26R,0.04528X0.01181*%
%ADD35C,0.02559*%
%ADD38R,0.12205X0.12205*%
%ADD39R,0.05906X0.05906*%
%ADD40C,0.05906*%
%ADD41R,0.05906X0.05906*%
%ADD42C,0.01575*%
G36*
X327208Y210821D02*
X329143Y210234D01*
X330925Y209282D01*
X332488Y207999D01*
X333770Y206437D01*
X334723Y204654D01*
X335309Y202720D01*
X335498Y200806D01*
X335478Y200709D01*
Y11811D01*
X335498Y11713D01*
X335309Y9799D01*
X334723Y7865D01*
X333770Y6083D01*
X332488Y4520D01*
X330925Y3238D01*
X329143Y2285D01*
X327208Y1698D01*
X325294Y1510D01*
X325197Y1529D01*
X11811D01*
X11713Y1510D01*
X9799Y1698D01*
X7865Y2285D01*
X6083Y3238D01*
X4520Y4520D01*
X3238Y6083D01*
X2285Y7865D01*
X1698Y9799D01*
X1510Y11713D01*
X1529Y11811D01*
Y200709D01*
X1510Y200806D01*
X1698Y202720D01*
X2285Y204654D01*
X3238Y206437D01*
X4520Y207999D01*
X6083Y209282D01*
X7865Y210234D01*
X9799Y210821D01*
X11713Y211010D01*
X11811Y210990D01*
X325197D01*
X325294Y211010D01*
X327208Y210821D01*
D02*
G37*
%LPC*%
G36*
X194520Y208953D02*
X193480D01*
X192474Y208683D01*
X191573Y208163D01*
X190837Y207427D01*
X190317Y206526D01*
X190047Y205520D01*
Y204480D01*
X190317Y203474D01*
X190371Y203380D01*
X180411Y193421D01*
X174431D01*
X182380Y201371D01*
X182474Y201317D01*
X183480Y201047D01*
X184520D01*
X185526Y201317D01*
X186427Y201837D01*
X187163Y202573D01*
X187683Y203474D01*
X187953Y204480D01*
Y205520D01*
X187683Y206526D01*
X187163Y207427D01*
X186427Y208163D01*
X185526Y208683D01*
X184520Y208953D01*
X183480D01*
X182474Y208683D01*
X181573Y208163D01*
X180837Y207427D01*
X180317Y206526D01*
X180047Y205520D01*
Y204480D01*
X180317Y203474D01*
X180371Y203380D01*
X171592Y194602D01*
X165612D01*
X172380Y201371D01*
X172474Y201317D01*
X173480Y201047D01*
X174520D01*
X175526Y201317D01*
X176427Y201837D01*
X177163Y202573D01*
X177683Y203474D01*
X177953Y204480D01*
Y205520D01*
X177683Y206526D01*
X177163Y207427D01*
X176427Y208163D01*
X175526Y208683D01*
X174520Y208953D01*
X173480D01*
X172474Y208683D01*
X171573Y208163D01*
X170837Y207427D01*
X170317Y206526D01*
X170047Y205520D01*
Y204480D01*
X170317Y203474D01*
X170371Y203380D01*
X163057Y196067D01*
X157076D01*
X162057Y201047D01*
X167953D01*
Y208953D01*
X160047D01*
Y203057D01*
X154238Y197248D01*
X146257D01*
X150380Y201371D01*
X150474Y201317D01*
X151480Y201047D01*
X152520D01*
X153526Y201317D01*
X154427Y201837D01*
X155163Y202573D01*
X155683Y203474D01*
X155953Y204480D01*
Y205520D01*
X155683Y206526D01*
X155163Y207427D01*
X154427Y208163D01*
X153526Y208683D01*
X152520Y208953D01*
X151480D01*
X150474Y208683D01*
X149573Y208163D01*
X148837Y207427D01*
X148317Y206526D01*
X148047Y205520D01*
Y204480D01*
X148317Y203474D01*
X148371Y203380D01*
X143419Y198429D01*
X137438D01*
X140380Y201371D01*
X140474Y201317D01*
X141480Y201047D01*
X142520D01*
X143526Y201317D01*
X144427Y201837D01*
X145163Y202573D01*
X145683Y203474D01*
X145953Y204480D01*
Y205520D01*
X145683Y206526D01*
X145163Y207427D01*
X144427Y208163D01*
X143526Y208683D01*
X142520Y208953D01*
X141480D01*
X140474Y208683D01*
X139573Y208163D01*
X138837Y207427D01*
X138317Y206526D01*
X138047Y205520D01*
Y204480D01*
X138317Y203474D01*
X138371Y203380D01*
X134600Y199610D01*
X128620D01*
X130380Y201371D01*
X130474Y201317D01*
X131480Y201047D01*
X132520D01*
X133526Y201317D01*
X134427Y201837D01*
X135163Y202573D01*
X135683Y203474D01*
X135953Y204480D01*
Y205520D01*
X135683Y206526D01*
X135163Y207427D01*
X134427Y208163D01*
X133526Y208683D01*
X132520Y208953D01*
X131480D01*
X130474Y208683D01*
X129573Y208163D01*
X128837Y207427D01*
X128317Y206526D01*
X128047Y205520D01*
Y204480D01*
X128317Y203474D01*
X128371Y203380D01*
X125782Y200791D01*
X119801D01*
X120380Y201371D01*
X120474Y201317D01*
X121480Y201047D01*
X122520D01*
X123526Y201317D01*
X124427Y201837D01*
X125163Y202573D01*
X125683Y203474D01*
X125953Y204480D01*
Y205520D01*
X125683Y206526D01*
X125163Y207427D01*
X124427Y208163D01*
X123526Y208683D01*
X122520Y208953D01*
X121480D01*
X120474Y208683D01*
X119573Y208163D01*
X118837Y207427D01*
X118317Y206526D01*
X118047Y205520D01*
Y204480D01*
X118317Y203474D01*
X118371Y203380D01*
X116963Y201972D01*
X114562D01*
X115163Y202573D01*
X115683Y203474D01*
X115953Y204480D01*
Y205520D01*
X115683Y206526D01*
X115163Y207427D01*
X114427Y208163D01*
X113526Y208683D01*
X112520Y208953D01*
X111480D01*
X110474Y208683D01*
X109573Y208163D01*
X108837Y207427D01*
X108317Y206526D01*
X108047Y205520D01*
Y204480D01*
X108317Y203474D01*
X108371Y203380D01*
X106523Y201533D01*
Y201898D01*
X106415Y202441D01*
X106107Y202902D01*
X105953Y203057D01*
Y208953D01*
X98047D01*
Y201047D01*
X103681D01*
Y198681D01*
X101858Y200505D01*
X101397Y200813D01*
X100853Y200921D01*
X95848D01*
X93818Y202951D01*
Y208847D01*
X85913D01*
Y200942D01*
X91809D01*
X93340Y199411D01*
X89052D01*
X89000Y199421D01*
X87348D01*
X83495Y203275D01*
X83549Y203369D01*
X83818Y204374D01*
Y205415D01*
X83549Y206420D01*
X83029Y207321D01*
X82292Y208057D01*
X81391Y208578D01*
X80386Y208847D01*
X79345D01*
X78340Y208578D01*
X77438Y208057D01*
X76702Y207321D01*
X76182Y206420D01*
X75913Y205415D01*
Y204374D01*
X76182Y203369D01*
X76702Y202467D01*
X77438Y201731D01*
X78340Y201211D01*
X79345Y200942D01*
X80386D01*
X81391Y201211D01*
X81485Y201265D01*
X84521Y198230D01*
X78540D01*
X73495Y203275D01*
X73549Y203369D01*
X73818Y204374D01*
Y205415D01*
X73549Y206420D01*
X73028Y207321D01*
X72293Y208057D01*
X71391Y208578D01*
X70386Y208847D01*
X69345D01*
X68340Y208578D01*
X67438Y208057D01*
X66703Y207321D01*
X66182Y206420D01*
X65913Y205415D01*
Y204374D01*
X66182Y203369D01*
X66703Y202467D01*
X67438Y201731D01*
X68340Y201211D01*
X69345Y200942D01*
X70386D01*
X71391Y201211D01*
X71485Y201265D01*
X75829Y196921D01*
X69848D01*
X63495Y203275D01*
X63549Y203369D01*
X63818Y204374D01*
Y205415D01*
X63549Y206420D01*
X63029Y207321D01*
X62292Y208057D01*
X61391Y208578D01*
X60386Y208847D01*
X59345D01*
X58340Y208578D01*
X57438Y208057D01*
X56703Y207321D01*
X56182Y206420D01*
X55913Y205415D01*
Y204374D01*
X56182Y203369D01*
X56703Y202467D01*
X57438Y201731D01*
X58340Y201211D01*
X59345Y200942D01*
X60386D01*
X61391Y201211D01*
X61485Y201265D01*
X68255Y194495D01*
X68716Y194187D01*
X69260Y194079D01*
X97382D01*
Y166588D01*
X96933D01*
X96504Y166503D01*
X96141Y166260D01*
X95898Y165897D01*
X95813Y165469D01*
Y163942D01*
X95807Y163913D01*
Y161979D01*
X95496Y162041D01*
X93970D01*
X93941Y162047D01*
X93912Y162041D01*
X92386D01*
X91957Y161956D01*
X91594Y161713D01*
X91351Y161350D01*
X91266Y160921D01*
Y160331D01*
X91351Y159902D01*
X91394Y159839D01*
X91351Y159775D01*
X91266Y159346D01*
Y158756D01*
X91351Y158327D01*
X91394Y158264D01*
X91351Y158200D01*
X91266Y157772D01*
Y157423D01*
X88076D01*
X70423Y175076D01*
X69929Y175406D01*
X69347Y175521D01*
X45899D01*
Y176127D01*
X38101D01*
Y175537D01*
X33598D01*
Y176362D01*
Y178331D01*
Y180299D01*
Y182268D01*
Y185417D01*
Y189779D01*
X31335D01*
Y187598D01*
X29335D01*
Y189779D01*
X27071D01*
Y188444D01*
X26556Y188657D01*
X25649D01*
X24811Y188310D01*
X24170Y187669D01*
X23823Y186831D01*
Y185924D01*
X24170Y185087D01*
X24811Y184446D01*
X25649Y184098D01*
X26556D01*
X27071Y184312D01*
Y182268D01*
Y180507D01*
X27000Y180521D01*
X22529D01*
X21947Y180405D01*
X21454Y180076D01*
X21454Y180076D01*
X20877Y179499D01*
X20547Y179006D01*
X20431Y178423D01*
Y174592D01*
X20547Y174010D01*
X20877Y173517D01*
X21454Y172940D01*
X21454Y172940D01*
X21947Y172610D01*
X22529Y172494D01*
X23977D01*
X23713Y171855D01*
Y171144D01*
X23985Y170487D01*
X24487Y169985D01*
X25144Y169713D01*
X25855D01*
X26513Y169985D01*
X27015Y170487D01*
X27031Y170526D01*
X27071D01*
Y170457D01*
Y168488D01*
Y166520D01*
Y165688D01*
X26556Y165902D01*
X25649D01*
X24811Y165554D01*
X24170Y164913D01*
X23823Y164076D01*
Y163169D01*
X24170Y162331D01*
X24811Y161690D01*
X25649Y161343D01*
X26556D01*
X27071Y161556D01*
Y160221D01*
X29335D01*
Y162402D01*
X31335D01*
Y160221D01*
X33598D01*
Y163370D01*
Y166520D01*
Y168488D01*
Y169750D01*
X36424Y166924D01*
X36424Y166924D01*
X36918Y166595D01*
X37500Y166479D01*
X38101D01*
Y165873D01*
X45899D01*
Y166479D01*
X72370D01*
X84676Y154173D01*
X81981D01*
X81714Y154572D01*
X80993Y155054D01*
X80142Y155224D01*
X76205D01*
X75354Y155054D01*
X74632Y154572D01*
X74150Y153851D01*
X73981Y153000D01*
X74150Y152149D01*
X74632Y151427D01*
X75354Y150945D01*
X76205Y150776D01*
X80142D01*
X80993Y150945D01*
X81570Y151331D01*
X91266D01*
Y150882D01*
X91351Y150453D01*
X91394Y150390D01*
X91351Y150326D01*
X91266Y149898D01*
Y149449D01*
X81797D01*
X81714Y149573D01*
X80993Y150055D01*
X80142Y150224D01*
X76205D01*
X75354Y150055D01*
X74632Y149573D01*
X74150Y148851D01*
X73981Y148000D01*
X74150Y147149D01*
X74632Y146428D01*
X75354Y145946D01*
X76205Y145776D01*
X80142D01*
X80993Y145946D01*
X81714Y146428D01*
X81834Y146607D01*
X85871D01*
X83685Y144421D01*
X81815D01*
X81714Y144572D01*
X80993Y145054D01*
X80142Y145224D01*
X76205D01*
X75354Y145054D01*
X74632Y144572D01*
X74150Y143851D01*
X73981Y143000D01*
X74150Y142149D01*
X74632Y141428D01*
X75354Y140945D01*
X76205Y140776D01*
X80142D01*
X80993Y140945D01*
X81714Y141428D01*
X81815Y141579D01*
X84069D01*
X81911Y139421D01*
X81815D01*
X81714Y139573D01*
X80993Y140055D01*
X80142Y140224D01*
X76205D01*
X75354Y140055D01*
X74632Y139573D01*
X74150Y138851D01*
X73981Y138000D01*
X74124Y137283D01*
X56697D01*
X56813Y137456D01*
X56921Y138000D01*
X56813Y138544D01*
X56505Y139005D01*
X56044Y139313D01*
X55500Y139421D01*
X53469D01*
X53368Y139573D01*
X52646Y140055D01*
X51795Y140224D01*
X50827D01*
Y138000D01*
X48827D01*
Y140224D01*
X47858D01*
X47078Y140069D01*
X47798Y140788D01*
X47858Y140776D01*
X51795D01*
X52646Y140945D01*
X53368Y141428D01*
X53850Y142149D01*
X54019Y143000D01*
X53850Y143851D01*
X53368Y144572D01*
X52646Y145054D01*
X51795Y145224D01*
X47858D01*
X47007Y145054D01*
X46752Y144884D01*
X47680Y145812D01*
X47858Y145776D01*
X51795D01*
X52646Y145946D01*
X53368Y146428D01*
X53850Y147149D01*
X54019Y148000D01*
X53850Y148851D01*
X53368Y149573D01*
X52646Y150055D01*
X51795Y150224D01*
X47858D01*
X47007Y150055D01*
X46752Y149884D01*
X47680Y150812D01*
X47858Y150776D01*
X51795D01*
X52646Y150945D01*
X53368Y151427D01*
X53850Y152149D01*
X54019Y153000D01*
X53850Y153851D01*
X53368Y154572D01*
X52646Y155054D01*
X51795Y155224D01*
X47858D01*
X47007Y155054D01*
X46286Y154572D01*
X45804Y153851D01*
X45634Y153000D01*
X45670Y152821D01*
X41995Y149146D01*
X41687Y148686D01*
X41579Y148142D01*
Y135500D01*
X41687Y134956D01*
X41995Y134495D01*
X43995Y132495D01*
X44456Y132187D01*
X45000Y132079D01*
X83341D01*
X83884Y132187D01*
X84345Y132495D01*
X90583Y138733D01*
X93941D01*
X93970Y138738D01*
X95496D01*
X95892Y138817D01*
X95813Y138421D01*
Y135311D01*
X95898Y134882D01*
X96141Y134519D01*
X96504Y134276D01*
X96933Y134191D01*
X97382D01*
Y127787D01*
X54051D01*
X53507Y127679D01*
X53046Y127371D01*
X50200Y124524D01*
X49892Y124064D01*
X49784Y123520D01*
Y122311D01*
X43315D01*
Y117555D01*
X44073D01*
Y115889D01*
X43321D01*
Y110739D01*
X44073D01*
Y103652D01*
X43321D01*
Y98502D01*
X44073D01*
Y91415D01*
X43321D01*
Y86265D01*
X44073D01*
Y79178D01*
X43321D01*
Y74028D01*
X44073D01*
Y66941D01*
X43321D01*
Y61791D01*
X48471D01*
Y66941D01*
X47718D01*
Y74028D01*
X48471D01*
Y79178D01*
X47718D01*
Y86265D01*
X48471D01*
Y91415D01*
X47718D01*
Y98502D01*
X48471D01*
Y103652D01*
X47718D01*
Y110739D01*
X48471D01*
Y115889D01*
X47718D01*
Y117555D01*
X53976D01*
Y122311D01*
X52626D01*
Y122931D01*
X54640Y124945D01*
X65149D01*
X63700Y123496D01*
X63392Y123036D01*
X63284Y122492D01*
Y122311D01*
X56815D01*
Y117555D01*
X57698D01*
Y115889D01*
X56946D01*
Y110739D01*
X57698D01*
Y103652D01*
X56946D01*
Y98502D01*
X57698D01*
Y91415D01*
X56946D01*
Y86265D01*
X57698D01*
Y79178D01*
X56946D01*
Y74028D01*
X57698D01*
Y66941D01*
X56946D01*
Y63433D01*
X55312D01*
X54376Y64369D01*
Y66941D01*
X49226D01*
Y61791D01*
X51799D01*
X53268Y60322D01*
X53268Y60322D01*
X53860Y59926D01*
X54557Y59788D01*
X54557Y59788D01*
X62670D01*
X62670Y59788D01*
X63368Y59926D01*
X63959Y60322D01*
X65426Y61789D01*
X66893Y60322D01*
X66893Y60322D01*
X67485Y59926D01*
X68182Y59788D01*
X68182Y59788D01*
X76295D01*
X76295Y59788D01*
X76993Y59926D01*
X77584Y60322D01*
X79051Y61789D01*
X80585Y60255D01*
X81176Y59860D01*
X81874Y59721D01*
X81874Y59721D01*
X89826D01*
X89826Y59721D01*
X90523Y59860D01*
X91114Y60255D01*
X92582Y61722D01*
X94226Y60078D01*
X94226Y60078D01*
X94818Y59682D01*
X95515Y59544D01*
X95515Y59544D01*
X102773D01*
X102773Y59544D01*
X103471Y59682D01*
X104062Y60078D01*
X105709Y61725D01*
X108282D01*
Y62879D01*
X108985D01*
X109529Y62987D01*
X109990Y63295D01*
X115556Y68861D01*
X115864Y69322D01*
X115972Y69866D01*
Y95018D01*
X119371Y91620D01*
X119317Y91526D01*
X119047Y90520D01*
Y89480D01*
X119317Y88474D01*
X119837Y87573D01*
X120573Y86837D01*
X121474Y86317D01*
X122480Y86047D01*
X123520D01*
X124526Y86317D01*
X125427Y86837D01*
X126163Y87573D01*
X126683Y88474D01*
X126953Y89480D01*
Y90520D01*
X126683Y91526D01*
X126163Y92427D01*
X125427Y93163D01*
X124526Y93683D01*
X123520Y93953D01*
X122480D01*
X121474Y93683D01*
X121380Y93629D01*
X117547Y97463D01*
Y103443D01*
X129371Y91620D01*
X129317Y91526D01*
X129047Y90520D01*
Y89480D01*
X129317Y88474D01*
X129837Y87573D01*
X130573Y86837D01*
X131474Y86317D01*
X132480Y86047D01*
X133520D01*
X134526Y86317D01*
X135427Y86837D01*
X136163Y87573D01*
X136683Y88474D01*
X136953Y89480D01*
Y90520D01*
X136683Y91526D01*
X136163Y92427D01*
X135427Y93163D01*
X134526Y93683D01*
X133520Y93953D01*
X132480D01*
X131474Y93683D01*
X131380Y93629D01*
X130974Y94036D01*
X136955D01*
X139371Y91620D01*
X139317Y91526D01*
X139047Y90520D01*
Y89480D01*
X139317Y88474D01*
X139837Y87573D01*
X140573Y86837D01*
X141474Y86317D01*
X142480Y86047D01*
X143520D01*
X144526Y86317D01*
X145427Y86837D01*
X146163Y87573D01*
X146683Y88474D01*
X146953Y89480D01*
Y90520D01*
X146683Y91526D01*
X146163Y92427D01*
X145427Y93163D01*
X144526Y93683D01*
X143520Y93953D01*
X142480D01*
X141474Y93683D01*
X141380Y93629D01*
X139793Y95217D01*
X145774D01*
X149371Y91620D01*
X149317Y91526D01*
X149047Y90520D01*
Y89480D01*
X149317Y88474D01*
X149837Y87573D01*
X150573Y86837D01*
X151474Y86317D01*
X152480Y86047D01*
X153520D01*
X154526Y86317D01*
X155427Y86837D01*
X156163Y87573D01*
X156683Y88474D01*
X156953Y89480D01*
Y90520D01*
X156683Y91526D01*
X156163Y92427D01*
X155427Y93163D01*
X154526Y93683D01*
X153520Y93953D01*
X152480D01*
X151474Y93683D01*
X151380Y93629D01*
X148612Y96398D01*
X154593D01*
X159371Y91620D01*
X159317Y91526D01*
X159047Y90520D01*
Y89480D01*
X159317Y88474D01*
X159837Y87573D01*
X160573Y86837D01*
X161474Y86317D01*
X162480Y86047D01*
X163520D01*
X164526Y86317D01*
X165427Y86837D01*
X166163Y87573D01*
X166683Y88474D01*
X166953Y89480D01*
Y90520D01*
X166683Y91526D01*
X166163Y92427D01*
X165427Y93163D01*
X164526Y93683D01*
X163520Y93953D01*
X162480D01*
X161474Y93683D01*
X161380Y93629D01*
X157431Y97579D01*
X163411D01*
X169047Y91943D01*
Y86047D01*
X176953D01*
Y93953D01*
X171057D01*
X165005Y100005D01*
X164544Y100313D01*
X164000Y100421D01*
X131270D01*
X129600Y102091D01*
Y140821D01*
X129492Y141365D01*
X129184Y141826D01*
X125127Y145883D01*
X124666Y146191D01*
X124122Y146299D01*
X123663D01*
Y146748D01*
X123578Y147177D01*
X123536Y147240D01*
X123578Y147304D01*
X123663Y147732D01*
Y148323D01*
X123578Y148751D01*
X123536Y148815D01*
X123578Y148879D01*
X123663Y149307D01*
Y149898D01*
X123578Y150326D01*
X123536Y150390D01*
X123578Y150453D01*
X123663Y150882D01*
Y151472D01*
X123578Y151901D01*
X123536Y151965D01*
X123578Y152028D01*
X123663Y152457D01*
Y152906D01*
X132585D01*
X140047Y145443D01*
Y139547D01*
X147953D01*
Y147453D01*
X142057D01*
X135029Y154481D01*
X136402D01*
X136945Y154589D01*
X137406Y154897D01*
X142380Y159871D01*
X142474Y159817D01*
X143480Y159547D01*
X144520D01*
X145526Y159817D01*
X146427Y160337D01*
X147163Y161073D01*
X147683Y161974D01*
X147953Y162980D01*
Y164020D01*
X147683Y165026D01*
X147163Y165927D01*
X146427Y166663D01*
X145526Y167183D01*
X144520Y167453D01*
X143480D01*
X142474Y167183D01*
X141573Y166663D01*
X140837Y165927D01*
X140317Y165026D01*
X140047Y164020D01*
Y162980D01*
X140317Y161974D01*
X140371Y161880D01*
X135813Y157323D01*
X123663D01*
Y157718D01*
X123765Y157738D01*
X124226Y158046D01*
X126186Y160006D01*
X126494Y160467D01*
X126602Y161011D01*
Y189593D01*
X127589Y190579D01*
X181000D01*
X181544Y190687D01*
X182005Y190995D01*
X192380Y201371D01*
X192474Y201317D01*
X193480Y201047D01*
X194520D01*
X195526Y201317D01*
X196427Y201837D01*
X197163Y202573D01*
X197683Y203474D01*
X197953Y204480D01*
Y205520D01*
X197683Y206526D01*
X197163Y207427D01*
X196427Y208163D01*
X195526Y208683D01*
X194520Y208953D01*
D02*
G37*
G36*
X33008Y200409D02*
X29071D01*
Y196118D01*
X33008D01*
Y200409D01*
D02*
G37*
G36*
X17535D02*
X13598D01*
Y196118D01*
X17535D01*
Y200409D01*
D02*
G37*
G36*
X27071D02*
X23134D01*
Y196118D01*
X27071D01*
Y200409D01*
D02*
G37*
G36*
X11598D02*
X7661D01*
Y196118D01*
X11598D01*
Y200409D01*
D02*
G37*
G36*
X33008Y194118D02*
X29071D01*
Y189827D01*
X33008D01*
Y194118D01*
D02*
G37*
G36*
X27071D02*
X23134D01*
Y189827D01*
X27071D01*
Y194118D01*
D02*
G37*
G36*
X17535D02*
X13598D01*
Y189827D01*
X17535D01*
Y194118D01*
D02*
G37*
G36*
X11598D02*
X7661D01*
Y189827D01*
X11598D01*
Y194118D01*
D02*
G37*
G36*
X33008Y160173D02*
X29071D01*
Y155882D01*
X33008D01*
Y160173D01*
D02*
G37*
G36*
X17535D02*
X13598D01*
Y155882D01*
X17535D01*
Y160173D01*
D02*
G37*
G36*
X27071D02*
X23134D01*
Y155882D01*
X27071D01*
Y160173D01*
D02*
G37*
G36*
X11598D02*
X7661D01*
Y155882D01*
X11598D01*
Y160173D01*
D02*
G37*
G36*
X145000Y157324D02*
Y154500D01*
X147824D01*
X147683Y155026D01*
X147163Y155927D01*
X146427Y156663D01*
X145526Y157183D01*
X145000Y157324D01*
D02*
G37*
G36*
X143000D02*
X142474Y157183D01*
X141573Y156663D01*
X140837Y155927D01*
X140317Y155026D01*
X140176Y154500D01*
X143000D01*
Y157324D01*
D02*
G37*
G36*
X147824Y152500D02*
X145000D01*
Y149676D01*
X145526Y149817D01*
X146427Y150337D01*
X147163Y151073D01*
X147683Y151974D01*
X147824Y152500D01*
D02*
G37*
G36*
X143000D02*
X140176D01*
X140317Y151974D01*
X140837Y151073D01*
X141573Y150337D01*
X142474Y149817D01*
X143000Y149676D01*
Y152500D01*
D02*
G37*
G36*
X33008Y153882D02*
X29071D01*
Y149591D01*
X33008D01*
Y153882D01*
D02*
G37*
G36*
X27071D02*
X23134D01*
Y149591D01*
X27071D01*
Y153882D01*
D02*
G37*
G36*
X17535D02*
X13598D01*
Y149591D01*
X17535D01*
Y153882D01*
D02*
G37*
G36*
X11598D02*
X7661D01*
Y149591D01*
X11598D01*
Y153882D01*
D02*
G37*
G36*
X8236Y137552D02*
X8096D01*
X7920Y137517D01*
X5188D01*
X5012Y137552D01*
X4907D01*
X4517Y137474D01*
X4486Y137454D01*
X4411Y137439D01*
X4081Y137218D01*
X4067Y137197D01*
X4046Y137183D01*
X4032Y137162D01*
X4011Y137148D01*
X3997Y137127D01*
X3976Y137113D01*
X3962Y137092D01*
X3940Y137078D01*
X3719Y136747D01*
X3714Y136722D01*
X3684Y136677D01*
X3679Y136652D01*
X3649Y136607D01*
X3572Y136217D01*
Y136077D01*
X3607Y135900D01*
Y134430D01*
X3684Y134039D01*
X3714Y133994D01*
X3718Y133974D01*
X3719Y133969D01*
X3940Y133639D01*
X3962Y133625D01*
X3976Y133604D01*
X3997Y133589D01*
X4011Y133569D01*
X4032Y133554D01*
X4046Y133534D01*
X4067Y133519D01*
X4067Y133518D01*
X4046Y133503D01*
X4032Y133483D01*
X4011Y133468D01*
X3790Y133138D01*
X3790Y133137D01*
X3719Y133033D01*
X3719Y133032D01*
X3649Y132927D01*
X3572Y132537D01*
Y132467D01*
X3607Y132291D01*
Y131311D01*
X3684Y130921D01*
X3714Y130876D01*
X3719Y130850D01*
X3749Y130806D01*
X3754Y130780D01*
X3868Y130610D01*
X3754Y130439D01*
X3749Y130414D01*
X3719Y130369D01*
X3714Y130344D01*
X3684Y130299D01*
X3607Y129909D01*
Y128403D01*
X3572Y128227D01*
Y128157D01*
X3649Y127767D01*
X3679Y127722D01*
X3684Y127697D01*
X3754Y127592D01*
X3754Y127591D01*
X3863Y127429D01*
X3719Y127215D01*
X3704Y127140D01*
X3684Y127110D01*
X3607Y126720D01*
Y126300D01*
X3572Y126124D01*
Y125564D01*
X3649Y125173D01*
X3709Y125083D01*
X3719Y125033D01*
X3749Y124988D01*
X3754Y124963D01*
X3976Y124632D01*
X3997Y124618D01*
X4011Y124597D01*
X4032Y124583D01*
X4046Y124562D01*
X4086Y124536D01*
X4081Y124532D01*
X4067Y124511D01*
X4046Y124497D01*
X4032Y124476D01*
X4011Y124462D01*
X3997Y124441D01*
X3976Y124427D01*
X3894Y124305D01*
X3750D01*
X3360Y124228D01*
X3029Y124007D01*
X3015Y123986D01*
X2994Y123971D01*
X2980Y123951D01*
X2959Y123936D01*
X2945Y123916D01*
X2924Y123901D01*
X2910Y123880D01*
X2889Y123866D01*
X2668Y123536D01*
X2663Y123511D01*
X2633Y123466D01*
X2555Y123075D01*
Y122304D01*
X2633Y121914D01*
X2663Y121869D01*
X2668Y121844D01*
X2738Y121739D01*
X2738Y121739D01*
X2959Y121408D01*
X2980Y121394D01*
X2994Y121373D01*
X3121Y121289D01*
X3134Y121268D01*
X3156Y121254D01*
X3170Y121233D01*
X3190Y121219D01*
X3204Y121198D01*
X3226Y121184D01*
X3240Y121163D01*
X3261Y121149D01*
X3275Y121128D01*
X3296Y121114D01*
X3310Y121093D01*
X3331Y121079D01*
X3345Y121058D01*
X3365Y121044D01*
X3450Y120918D01*
X3471Y120904D01*
X3485Y120882D01*
X3607Y120801D01*
Y120762D01*
X3684Y120372D01*
X3704Y120342D01*
X3719Y120267D01*
X3940Y119936D01*
X3962Y119922D01*
X3976Y119901D01*
X3997Y119887D01*
X4011Y119866D01*
X4032Y119852D01*
X4046Y119831D01*
X4067Y119817D01*
X4081Y119796D01*
X4103Y119781D01*
X4081Y119766D01*
X4067Y119745D01*
X4046Y119731D01*
X4032Y119710D01*
X4011Y119696D01*
X3997Y119675D01*
X3976Y119661D01*
X3962Y119640D01*
X3940Y119626D01*
X3719Y119295D01*
X3704Y119220D01*
X3684Y119190D01*
X3607Y118800D01*
Y118660D01*
X3684Y118270D01*
X3704Y118239D01*
X3719Y118165D01*
X3749Y118120D01*
X3754Y118094D01*
X3857Y117941D01*
X3754Y117788D01*
X3749Y117763D01*
X3719Y117718D01*
X3719Y117718D01*
X3649Y117613D01*
X3572Y117223D01*
Y117188D01*
X3607Y117012D01*
Y115996D01*
X3684Y115606D01*
X3704Y115576D01*
X3719Y115501D01*
X3940Y115170D01*
X3962Y115156D01*
X3976Y115135D01*
X3997Y115121D01*
X4011Y115100D01*
X4032Y115086D01*
X4046Y115065D01*
X4086Y115039D01*
X4081Y115035D01*
X4067Y115014D01*
X4046Y115000D01*
X4032Y114979D01*
X4011Y114965D01*
X3997Y114944D01*
X3976Y114930D01*
X3754Y114599D01*
X3754Y114599D01*
X3684Y114494D01*
X3679Y114469D01*
X3649Y114424D01*
X3572Y114034D01*
Y113964D01*
X3607Y113788D01*
Y112633D01*
X3572Y112457D01*
Y112317D01*
X3649Y111927D01*
X3719Y111822D01*
X3719Y111821D01*
X3790Y111717D01*
X3790Y111716D01*
X4011Y111386D01*
X4032Y111372D01*
X4046Y111351D01*
X4376Y111129D01*
X4451Y111115D01*
X4482Y111094D01*
X4872Y111017D01*
X8271D01*
X8661Y111094D01*
X8706Y111125D01*
X8731Y111129D01*
X9062Y111351D01*
X9076Y111372D01*
X9097Y111386D01*
X9111Y111407D01*
X9132Y111421D01*
X9146Y111442D01*
X9167Y111456D01*
X9388Y111786D01*
X9393Y111811D01*
X9423Y111856D01*
X9428Y111882D01*
X9458Y111927D01*
X9536Y112317D01*
Y112457D01*
X9458Y112847D01*
X9428Y112892D01*
X9423Y112917D01*
X9393Y112962D01*
X9388Y112987D01*
X9167Y113318D01*
X9146Y113332D01*
X9132Y113353D01*
X9111Y113367D01*
X9097Y113388D01*
X9076Y113402D01*
X9062Y113423D01*
X8731Y113644D01*
X8706Y113649D01*
X8661Y113679D01*
X8485Y113714D01*
Y113999D01*
X8407Y114389D01*
X8407Y114390D01*
X8372Y114564D01*
X8151Y114895D01*
X8130Y114909D01*
X8116Y114930D01*
X7989Y115015D01*
X7989Y115015D01*
X7990Y115016D01*
X8011Y115030D01*
X8025Y115051D01*
X8046Y115065D01*
X8060Y115086D01*
X8081Y115100D01*
X8095Y115121D01*
X8116Y115135D01*
X8130Y115156D01*
X8151Y115170D01*
X8372Y115501D01*
X8387Y115576D01*
X8407Y115606D01*
X8485Y115996D01*
Y117153D01*
X8407Y117543D01*
X8397Y117558D01*
X8372Y117683D01*
X8342Y117728D01*
X8337Y117753D01*
X8116Y118084D01*
X8095Y118098D01*
X8081Y118119D01*
X8060Y118133D01*
X8046Y118154D01*
X8025Y118168D01*
X8012Y118187D01*
X8025Y118205D01*
X8046Y118219D01*
X8060Y118240D01*
X8081Y118254D01*
X8095Y118275D01*
X8116Y118289D01*
X8337Y118620D01*
X8342Y118645D01*
X8372Y118690D01*
X8377Y118715D01*
X8407Y118760D01*
X8485Y119150D01*
Y120938D01*
X8407Y121328D01*
X8387Y121358D01*
X8383Y121376D01*
X8387Y121393D01*
X8407Y121424D01*
X8485Y121814D01*
Y123566D01*
X8407Y123956D01*
X8387Y123986D01*
X8372Y124061D01*
X8151Y124392D01*
X8130Y124406D01*
X8116Y124427D01*
X8095Y124441D01*
X8081Y124462D01*
X8060Y124476D01*
X8046Y124497D01*
X8025Y124511D01*
X8011Y124532D01*
X7990Y124546D01*
X7976Y124567D01*
X7955Y124581D01*
X7941Y124602D01*
X7920Y124616D01*
X7906Y124637D01*
X7885Y124651D01*
X7870Y124672D01*
X7850Y124686D01*
X7835Y124707D01*
X7814Y124722D01*
X7800Y124742D01*
X7779Y124757D01*
X7765Y124777D01*
X7744Y124792D01*
X7730Y124813D01*
X7730Y124813D01*
X8026Y124754D01*
X8271D01*
X8661Y124832D01*
X8706Y124862D01*
X8731Y124867D01*
X9062Y125088D01*
X9076Y125109D01*
X9097Y125123D01*
X9111Y125144D01*
X9132Y125158D01*
X9146Y125179D01*
X9167Y125193D01*
X9388Y125524D01*
X9393Y125549D01*
X9423Y125594D01*
X9428Y125619D01*
X9458Y125664D01*
X9536Y126054D01*
Y126159D01*
X9458Y126549D01*
X9438Y126579D01*
X9423Y126655D01*
X9393Y126699D01*
X9388Y126725D01*
X9167Y127055D01*
X9146Y127069D01*
X9132Y127090D01*
X9111Y127104D01*
X9097Y127126D01*
X9076Y127139D01*
X9062Y127161D01*
X8731Y127382D01*
X8706Y127386D01*
X8661Y127417D01*
X8444Y127460D01*
X8485Y127666D01*
Y129313D01*
X8407Y129703D01*
X8397Y129719D01*
X8372Y129844D01*
X8302Y129948D01*
X8302Y129949D01*
X8081Y130280D01*
X8018Y130322D01*
X8005Y130341D01*
X8011Y130344D01*
X8025Y130365D01*
X8046Y130379D01*
X8060Y130401D01*
X8081Y130414D01*
X8095Y130436D01*
X8116Y130450D01*
X8130Y130471D01*
X8151Y130485D01*
X8372Y130815D01*
X8387Y130890D01*
X8407Y130921D01*
X8485Y131311D01*
Y132502D01*
X8407Y132892D01*
X8404Y132896D01*
X8571Y133008D01*
X8585Y133029D01*
X8606Y133043D01*
X8620Y133064D01*
X8642Y133078D01*
X8655Y133099D01*
X8676Y133113D01*
X8761Y133239D01*
X8782Y133253D01*
X8796Y133274D01*
X8817Y133288D01*
X8831Y133309D01*
X8852Y133323D01*
X8866Y133344D01*
X8887Y133358D01*
X8901Y133379D01*
X8922Y133393D01*
X8936Y133414D01*
X8957Y133428D01*
X8971Y133449D01*
X8992Y133463D01*
X9006Y133484D01*
X9132Y133569D01*
X9146Y133589D01*
X9167Y133604D01*
X9388Y133934D01*
X9393Y133959D01*
X9423Y134004D01*
X9428Y134029D01*
X9458Y134074D01*
X9536Y134465D01*
Y136217D01*
X9458Y136607D01*
X9438Y136637D01*
X9423Y136712D01*
X9393Y136757D01*
X9388Y136782D01*
X9167Y137113D01*
X9146Y137127D01*
X9132Y137148D01*
X9111Y137162D01*
X9097Y137183D01*
X9076Y137197D01*
X9062Y137218D01*
X8731Y137439D01*
X8656Y137454D01*
X8626Y137474D01*
X8236Y137552D01*
D02*
G37*
G36*
X36615Y127127D02*
X28818D01*
Y122873D01*
X36615D01*
Y127127D01*
D02*
G37*
G36*
X38899Y119127D02*
X31101D01*
Y114873D01*
X38899D01*
Y119127D01*
D02*
G37*
G36*
X8131Y109552D02*
X8096D01*
X7920Y109517D01*
X5153D01*
X4977Y109552D01*
X4872D01*
X4482Y109474D01*
X4436Y109444D01*
X4411Y109439D01*
X4081Y109218D01*
X4067Y109197D01*
X4046Y109183D01*
X4032Y109162D01*
X4011Y109148D01*
X3997Y109127D01*
X3976Y109113D01*
X3962Y109092D01*
X3940Y109078D01*
X3719Y108747D01*
X3714Y108722D01*
X3684Y108677D01*
X3679Y108652D01*
X3649Y108607D01*
X3572Y108217D01*
Y108076D01*
X3607Y107900D01*
Y106781D01*
X3572Y106605D01*
Y106500D01*
X3649Y106109D01*
X3719Y106005D01*
X3719Y106004D01*
X3749Y105959D01*
X3754Y105934D01*
X3976Y105603D01*
X3997Y105589D01*
X4011Y105568D01*
X4032Y105554D01*
X4046Y105533D01*
X4067Y105519D01*
X4067Y105518D01*
X4046Y105503D01*
X3961Y105377D01*
X3940Y105363D01*
X3906Y105311D01*
X3855D01*
X3465Y105234D01*
X3435Y105213D01*
X3360Y105199D01*
X3029Y104978D01*
X3015Y104957D01*
X2994Y104943D01*
X2980Y104921D01*
X2959Y104908D01*
X2945Y104886D01*
X2924Y104873D01*
X2910Y104851D01*
X2889Y104837D01*
X2668Y104507D01*
X2663Y104481D01*
X2633Y104437D01*
X2555Y104046D01*
Y103240D01*
X2633Y102850D01*
X2854Y102519D01*
X2875Y102505D01*
X2889Y102484D01*
X2910Y102470D01*
X2924Y102449D01*
X2945Y102435D01*
X2959Y102414D01*
X2980Y102400D01*
X2994Y102379D01*
X3015Y102365D01*
X3029Y102344D01*
X3050Y102330D01*
X3064Y102309D01*
X3085Y102295D01*
X3099Y102274D01*
X3120Y102260D01*
X3134Y102239D01*
X3156Y102225D01*
X3170Y102204D01*
X3190Y102190D01*
X3204Y102169D01*
X3226Y102155D01*
X3240Y102134D01*
X3261Y102120D01*
X3275Y102099D01*
X3296Y102085D01*
X3310Y102064D01*
X3331Y102050D01*
X3345Y102029D01*
X3365Y102015D01*
X3450Y101889D01*
X3576Y101804D01*
X3590Y101784D01*
X3921Y101562D01*
X4311Y101485D01*
X7150D01*
X7540Y101562D01*
X7585Y101593D01*
X7610Y101597D01*
X7655Y101628D01*
X7680Y101632D01*
X8011Y101854D01*
X8025Y101875D01*
X8046Y101889D01*
X8060Y101910D01*
X8081Y101924D01*
X8095Y101945D01*
X8116Y101959D01*
X8130Y101980D01*
X8151Y101994D01*
X8372Y102324D01*
X8397Y102449D01*
X8407Y102465D01*
X8485Y102855D01*
Y102925D01*
X8407Y103315D01*
X8387Y103345D01*
X8372Y103420D01*
X8302Y103525D01*
X8302Y103525D01*
X8081Y103856D01*
X8060Y103870D01*
X8046Y103891D01*
X7980Y103935D01*
X8011Y103956D01*
X8025Y103977D01*
X8046Y103991D01*
X8060Y104012D01*
X8081Y104026D01*
X8085Y104033D01*
X8095Y104047D01*
X8116Y104061D01*
X8130Y104082D01*
X8151Y104096D01*
X8372Y104427D01*
X8397Y104552D01*
X8407Y104567D01*
X8485Y104957D01*
Y105028D01*
X8407Y105418D01*
X8397Y105433D01*
X8372Y105558D01*
X8211Y105798D01*
X8302Y105934D01*
X8302Y105934D01*
X8372Y106039D01*
X8387Y106114D01*
X8407Y106144D01*
X8485Y106535D01*
Y106826D01*
X8626Y106854D01*
X8650Y106870D01*
X8671Y106884D01*
X8696Y106889D01*
X8741Y106919D01*
X8766Y106924D01*
X9097Y107145D01*
X9111Y107166D01*
X9132Y107180D01*
X9146Y107201D01*
X9167Y107215D01*
X9388Y107546D01*
X9393Y107571D01*
X9423Y107616D01*
X9438Y107691D01*
X9458Y107721D01*
X9536Y108112D01*
Y108217D01*
X9458Y108607D01*
X9438Y108637D01*
X9423Y108712D01*
X9393Y108757D01*
X9388Y108782D01*
X9167Y109113D01*
X9146Y109127D01*
X9132Y109148D01*
X9111Y109162D01*
X9097Y109183D01*
X8766Y109404D01*
X8741Y109409D01*
X8696Y109439D01*
X8521Y109474D01*
X8521Y109474D01*
X8131Y109552D01*
D02*
G37*
G36*
X54376Y115889D02*
X49226D01*
Y110739D01*
X49979D01*
Y110155D01*
X49962Y110130D01*
X49927Y109954D01*
X49858Y109788D01*
Y109609D01*
X49823Y109433D01*
X49858Y109256D01*
Y109077D01*
X49927Y108911D01*
X49962Y108735D01*
X50062Y108586D01*
X50130Y108420D01*
X50257Y108293D01*
X50357Y108144D01*
X50506Y108044D01*
X50633Y107917D01*
X50799Y107849D01*
X50948Y107749D01*
X51124Y107714D01*
X51290Y107645D01*
X51470D01*
X51646Y107610D01*
X51822Y107645D01*
X52001D01*
X52167Y107714D01*
X52343Y107749D01*
X52492Y107849D01*
X52658Y107917D01*
X52785Y108044D01*
X52934Y108144D01*
X53090Y108300D01*
X53485Y108891D01*
X53624Y109588D01*
X53624Y109588D01*
Y110739D01*
X54376D01*
Y115889D01*
D02*
G37*
G36*
X7640Y100055D02*
X7500D01*
X7324Y100020D01*
X5714D01*
X5537Y100055D01*
X5432D01*
X5042Y99977D01*
X4997Y99947D01*
X4972Y99942D01*
X4927Y99912D01*
X4902Y99907D01*
X4571Y99686D01*
X4557Y99665D01*
X4536Y99651D01*
X4522Y99630D01*
X4501Y99616D01*
X4487Y99595D01*
X4466Y99581D01*
X4452Y99560D01*
X4431Y99546D01*
X4417Y99525D01*
X4396Y99511D01*
X4382Y99490D01*
X4361Y99476D01*
X4347Y99455D01*
X4326Y99441D01*
X4312Y99420D01*
X4291Y99406D01*
X4263Y99364D01*
X4221Y99335D01*
X4193Y99294D01*
X4151Y99265D01*
X4109Y99202D01*
X4046Y99160D01*
X4017Y99118D01*
X3976Y99090D01*
X3754Y98759D01*
X3749Y98734D01*
X3719Y98689D01*
X3704Y98614D01*
X3684Y98584D01*
X3679Y98559D01*
X3649Y98514D01*
X3572Y98124D01*
Y98019D01*
X3607Y97843D01*
Y96967D01*
X3684Y96577D01*
X3714Y96532D01*
X3719Y96507D01*
X3749Y96462D01*
X3754Y96437D01*
X3976Y96106D01*
X3997Y96092D01*
X4011Y96071D01*
X4032Y96057D01*
X4046Y96036D01*
X4067Y96022D01*
X4081Y96001D01*
X4102Y95987D01*
X4116Y95966D01*
X4137Y95952D01*
X4151Y95931D01*
X4172Y95917D01*
X4186Y95896D01*
X4207Y95882D01*
X4221Y95861D01*
X4242Y95847D01*
X4256Y95826D01*
X4277Y95812D01*
X4291Y95791D01*
X4312Y95777D01*
X4326Y95756D01*
X4347Y95742D01*
X4361Y95721D01*
X4382Y95707D01*
X4396Y95686D01*
X4417Y95672D01*
X4431Y95651D01*
X4452Y95637D01*
X4466Y95616D01*
X4487Y95602D01*
X4501Y95581D01*
X4522Y95567D01*
X4536Y95546D01*
X4867Y95325D01*
X4867Y95324D01*
X4972Y95254D01*
X5362Y95177D01*
X5643D01*
X6033Y95254D01*
X6078Y95284D01*
X6103Y95289D01*
X6434Y95511D01*
X6448Y95532D01*
X6469Y95546D01*
X6483Y95567D01*
X6504Y95581D01*
X6518Y95602D01*
X6539Y95616D01*
X6553Y95637D01*
X6571Y95649D01*
X6590Y95637D01*
X6604Y95616D01*
X6625Y95602D01*
X6639Y95581D01*
X6660Y95567D01*
X6674Y95546D01*
X6695Y95532D01*
X6709Y95511D01*
X6730Y95496D01*
X6744Y95476D01*
X7075Y95254D01*
X7465Y95177D01*
X7780D01*
X8170Y95254D01*
X8501Y95476D01*
X8515Y95496D01*
X8536Y95511D01*
X8550Y95532D01*
X8571Y95546D01*
X8585Y95567D01*
X8606Y95581D01*
X8620Y95602D01*
X8642Y95616D01*
X8655Y95637D01*
X8676Y95651D01*
X8691Y95672D01*
X8712Y95686D01*
X8726Y95707D01*
X8747Y95721D01*
X8761Y95742D01*
X8782Y95756D01*
X8796Y95777D01*
X8817Y95791D01*
X8831Y95812D01*
X8852Y95826D01*
X8866Y95847D01*
X8887Y95861D01*
X8901Y95882D01*
X8922Y95896D01*
X8936Y95917D01*
X8957Y95931D01*
X8971Y95952D01*
X9097Y96036D01*
X9111Y96057D01*
X9132Y96071D01*
X9146Y96092D01*
X9167Y96106D01*
X9388Y96437D01*
X9393Y96462D01*
X9423Y96507D01*
X9428Y96532D01*
X9458Y96577D01*
X9536Y96967D01*
Y98194D01*
X9458Y98584D01*
X9428Y98629D01*
X9423Y98654D01*
X9393Y98699D01*
X9388Y98724D01*
X9318Y98829D01*
X9318Y98830D01*
X9097Y99160D01*
X9076Y99174D01*
X9062Y99195D01*
X8936Y99280D01*
X8922Y99300D01*
X8901Y99314D01*
X8887Y99335D01*
X8866Y99349D01*
X8852Y99370D01*
X8831Y99385D01*
X8817Y99406D01*
X8796Y99420D01*
X8782Y99441D01*
X8761Y99455D01*
X8747Y99476D01*
X8726Y99490D01*
X8712Y99511D01*
X8691Y99525D01*
X8676Y99546D01*
X8655Y99560D01*
X8642Y99581D01*
X8620Y99595D01*
X8606Y99616D01*
X8585Y99630D01*
X8571Y99651D01*
X8550Y99665D01*
X8536Y99686D01*
X8206Y99907D01*
X8180Y99912D01*
X8135Y99942D01*
X8061Y99957D01*
X8030Y99977D01*
X7640Y100055D01*
D02*
G37*
G36*
X54376Y103652D02*
X49226D01*
Y98502D01*
X49979D01*
Y96030D01*
X50014Y95854D01*
Y95674D01*
X50082Y95509D01*
X50117Y95332D01*
X50217Y95183D01*
X50286Y95017D01*
X50413Y94890D01*
X50512Y94741D01*
X50662Y94642D01*
X50789Y94515D01*
X50955Y94446D01*
X51104Y94346D01*
X51280Y94311D01*
X51446Y94243D01*
X51625D01*
X51801Y94208D01*
X51977Y94243D01*
X52157D01*
X52323Y94311D01*
X52499Y94346D01*
X52648Y94446D01*
X52814Y94515D01*
X52941Y94642D01*
X53090Y94741D01*
X53190Y94890D01*
X53316Y95017D01*
X53385Y95183D01*
X53485Y95332D01*
X53520Y95509D01*
X53589Y95674D01*
Y95854D01*
X53624Y96030D01*
Y98502D01*
X54376D01*
Y103652D01*
D02*
G37*
G36*
X8306Y93677D02*
X4802D01*
X4411Y93599D01*
X4081Y93378D01*
X4067Y93357D01*
X4046Y93343D01*
X4032Y93322D01*
X4011Y93308D01*
X3997Y93287D01*
X3976Y93273D01*
X3962Y93252D01*
X3940Y93238D01*
X3719Y92907D01*
X3714Y92882D01*
X3684Y92837D01*
X3679Y92812D01*
X3649Y92767D01*
X3572Y92377D01*
Y92272D01*
X3649Y91881D01*
X3679Y91836D01*
X3684Y91811D01*
X3714Y91766D01*
X3719Y91741D01*
X3749Y91696D01*
X3754Y91671D01*
X3976Y91340D01*
X3997Y91326D01*
X4011Y91305D01*
X4032Y91291D01*
X4046Y91270D01*
X4086Y91243D01*
X4081Y91240D01*
X4067Y91219D01*
X4046Y91205D01*
X4032Y91184D01*
X4011Y91170D01*
X3997Y91149D01*
X3976Y91135D01*
X3962Y91114D01*
X3940Y91100D01*
X3719Y90769D01*
X3704Y90694D01*
X3684Y90664D01*
X3607Y90274D01*
Y90134D01*
X3684Y89744D01*
X3704Y89714D01*
X3705Y89713D01*
X3684Y89683D01*
X3607Y89293D01*
Y89082D01*
X3684Y88692D01*
X3704Y88662D01*
X3719Y88587D01*
X3749Y88542D01*
X3754Y88517D01*
X3976Y88186D01*
X3997Y88172D01*
X4011Y88151D01*
X4341Y87930D01*
X4342Y87930D01*
X4447Y87860D01*
X4837Y87783D01*
X5436D01*
X5447Y87766D01*
X5468Y87752D01*
X5482Y87731D01*
X5503Y87717D01*
X5517Y87696D01*
X5539Y87682D01*
X5553Y87661D01*
X5573Y87647D01*
X5587Y87626D01*
X5609Y87612D01*
X5623Y87591D01*
X5644Y87577D01*
X5658Y87555D01*
X5679Y87542D01*
X5693Y87520D01*
X5714Y87506D01*
X5717Y87501D01*
X5737Y87400D01*
X5787Y87150D01*
X5797Y87135D01*
X5811Y87065D01*
X5577Y87221D01*
X5552Y87226D01*
X5507Y87256D01*
X5482Y87261D01*
X5437Y87291D01*
X5047Y87369D01*
X4907D01*
X4517Y87291D01*
X4472Y87261D01*
X4447Y87256D01*
X4402Y87226D01*
X4376Y87221D01*
X4046Y87000D01*
X4032Y86979D01*
X4011Y86965D01*
X3997Y86944D01*
X3976Y86930D01*
X3754Y86599D01*
X3749Y86574D01*
X3719Y86529D01*
X3714Y86504D01*
X3684Y86459D01*
X3607Y86069D01*
Y85579D01*
X3572Y85403D01*
Y84877D01*
X3649Y84487D01*
X3669Y84457D01*
X3684Y84382D01*
X3754Y84277D01*
X3754Y84277D01*
X3976Y83946D01*
X4017Y83918D01*
X4046Y83876D01*
X4086Y83849D01*
X4081Y83846D01*
X4067Y83825D01*
X4046Y83811D01*
X4032Y83790D01*
X4011Y83776D01*
X3997Y83755D01*
X3976Y83741D01*
X3962Y83720D01*
X3940Y83706D01*
X3906Y83654D01*
X3820D01*
X3430Y83576D01*
X3385Y83546D01*
X3360Y83541D01*
X3029Y83320D01*
X3015Y83299D01*
X2994Y83285D01*
X2980Y83264D01*
X2959Y83250D01*
X2945Y83229D01*
X2924Y83215D01*
X2910Y83194D01*
X2889Y83180D01*
X2668Y82849D01*
X2663Y82824D01*
X2633Y82779D01*
X2555Y82389D01*
Y81653D01*
X2633Y81263D01*
X2663Y81218D01*
X2668Y81193D01*
X2698Y81148D01*
X2703Y81123D01*
X2924Y80792D01*
X2945Y80778D01*
X2959Y80757D01*
X2980Y80743D01*
X2994Y80722D01*
X3015Y80708D01*
X3029Y80687D01*
X3050Y80673D01*
X3064Y80652D01*
X3085Y80638D01*
X3099Y80617D01*
X3120Y80603D01*
X3134Y80582D01*
X3156Y80568D01*
X3170Y80547D01*
X3190Y80533D01*
X3204Y80512D01*
X3226Y80498D01*
X3240Y80477D01*
X3261Y80463D01*
X3275Y80442D01*
X3296Y80427D01*
X3310Y80406D01*
X3331Y80392D01*
X3345Y80371D01*
X3366Y80357D01*
X3380Y80336D01*
X3401Y80322D01*
X3415Y80301D01*
X3436Y80287D01*
X3450Y80266D01*
X3471Y80252D01*
X3485Y80231D01*
X3506Y80217D01*
X3520Y80196D01*
X3541Y80182D01*
X3555Y80161D01*
X3572Y80150D01*
Y80146D01*
X3649Y79756D01*
X3679Y79711D01*
X3683Y79691D01*
X3684Y79686D01*
X3704Y79656D01*
X3719Y79581D01*
X3940Y79250D01*
X3962Y79236D01*
X3976Y79215D01*
X3997Y79201D01*
X4011Y79180D01*
X4032Y79166D01*
X4046Y79145D01*
X4067Y79131D01*
X4081Y79110D01*
X4086Y79107D01*
X4046Y79080D01*
X4032Y79059D01*
X4011Y79045D01*
X3997Y79024D01*
X3976Y79010D01*
X3754Y78679D01*
X3749Y78654D01*
X3719Y78609D01*
X3714Y78584D01*
X3684Y78539D01*
X3607Y78149D01*
Y77974D01*
X3684Y77583D01*
X3704Y77553D01*
X3719Y77478D01*
X3940Y77147D01*
X3962Y77133D01*
X3976Y77112D01*
X3997Y77098D01*
X4011Y77077D01*
X4032Y77063D01*
X4046Y77042D01*
X4067Y77028D01*
X4081Y77007D01*
X4086Y77004D01*
X4046Y76977D01*
X3961Y76851D01*
X3940Y76837D01*
X3719Y76506D01*
X3704Y76431D01*
X3684Y76401D01*
X3607Y76011D01*
Y75871D01*
X3684Y75481D01*
X3704Y75450D01*
X3719Y75375D01*
X3940Y75045D01*
X3962Y75031D01*
X3976Y75010D01*
X3997Y74996D01*
X4011Y74975D01*
X4032Y74961D01*
X4046Y74940D01*
X4067Y74926D01*
X4081Y74905D01*
X4102Y74891D01*
X4116Y74870D01*
X4447Y74648D01*
X4837Y74571D01*
X5117D01*
X5507Y74648D01*
X5612Y74719D01*
X5612Y74719D01*
X5943Y74940D01*
X5957Y74961D01*
X5978Y74975D01*
X5992Y74996D01*
X6013Y75010D01*
X6027Y75031D01*
X6027Y75031D01*
X6028Y75032D01*
X6043Y75010D01*
X6064Y74996D01*
X6078Y74975D01*
X6099Y74961D01*
X6113Y74940D01*
X6134Y74926D01*
X6148Y74905D01*
X6169Y74891D01*
X6183Y74870D01*
X6514Y74648D01*
X6904Y74571D01*
X7255D01*
X7645Y74648D01*
X7750Y74719D01*
X7750Y74719D01*
X8081Y74940D01*
X8302Y75270D01*
X8302Y75271D01*
X8319Y75297D01*
X8571Y75465D01*
X8585Y75486D01*
X8606Y75500D01*
X8620Y75521D01*
X8642Y75535D01*
X8655Y75556D01*
X8676Y75570D01*
X8898Y75901D01*
X8975Y76291D01*
Y76642D01*
X8898Y77032D01*
X8676Y77363D01*
X8655Y77377D01*
X8642Y77398D01*
X8620Y77412D01*
X8606Y77433D01*
X8585Y77447D01*
X8571Y77468D01*
X8550Y77482D01*
X8536Y77503D01*
X8327Y77643D01*
X8229Y77789D01*
X8302Y77899D01*
X8307Y77924D01*
X8337Y77969D01*
X8342Y77994D01*
X8372Y78039D01*
X8377Y78064D01*
X8407Y78109D01*
X8485Y78499D01*
Y78826D01*
X8626Y78854D01*
X8671Y78884D01*
X8696Y78889D01*
X8741Y78919D01*
X8766Y78924D01*
X9097Y79145D01*
X9111Y79166D01*
X9132Y79180D01*
X9146Y79201D01*
X9167Y79215D01*
X9388Y79546D01*
X9393Y79571D01*
X9423Y79616D01*
X9438Y79691D01*
X9458Y79721D01*
X9536Y80111D01*
Y80216D01*
X9458Y80607D01*
X9438Y80637D01*
X9423Y80712D01*
X9393Y80757D01*
X9388Y80782D01*
X9167Y81112D01*
X9146Y81127D01*
X9132Y81148D01*
X9111Y81162D01*
X9097Y81183D01*
X8766Y81404D01*
X8741Y81409D01*
X8696Y81439D01*
X8671Y81444D01*
X8626Y81474D01*
X8485Y81502D01*
Y82915D01*
X8407Y83305D01*
X8377Y83350D01*
X8372Y83375D01*
X8302Y83480D01*
X8302Y83480D01*
X8081Y83811D01*
X8039Y83839D01*
X8011Y83881D01*
X7884Y83965D01*
X7870Y83986D01*
X7850Y84000D01*
X7835Y84021D01*
X7814Y84035D01*
X7800Y84056D01*
X7779Y84070D01*
X7765Y84091D01*
X7744Y84105D01*
X7730Y84126D01*
X7715Y84137D01*
X8061Y84068D01*
X8236D01*
X8626Y84145D01*
X8671Y84175D01*
X8696Y84180D01*
X8741Y84211D01*
X8766Y84216D01*
X9097Y84437D01*
X9111Y84458D01*
X9132Y84472D01*
X9146Y84493D01*
X9167Y84507D01*
X9388Y84838D01*
X9393Y84863D01*
X9423Y84908D01*
X9438Y84983D01*
X9458Y85013D01*
X9536Y85403D01*
Y85508D01*
X9458Y85898D01*
X9438Y85928D01*
X9423Y86003D01*
X9393Y86048D01*
X9388Y86073D01*
X9167Y86404D01*
X8836Y86625D01*
X8836Y86625D01*
X8731Y86695D01*
X8706Y86700D01*
X8661Y86730D01*
X8271Y86808D01*
X8237D01*
X8302Y86905D01*
X8302Y86905D01*
X8372Y87010D01*
X8397Y87135D01*
X8407Y87150D01*
X8485Y87541D01*
Y88101D01*
X8407Y88491D01*
X8397Y88507D01*
X8376Y88609D01*
X8397Y88712D01*
X8407Y88727D01*
X8435Y88866D01*
X8661Y88911D01*
X8706Y88942D01*
X8731Y88946D01*
X9062Y89168D01*
X9076Y89189D01*
X9097Y89203D01*
X9111Y89224D01*
X9132Y89238D01*
X9146Y89259D01*
X9167Y89273D01*
X9388Y89604D01*
X9393Y89629D01*
X9423Y89674D01*
X9428Y89699D01*
X9458Y89744D01*
X9536Y90134D01*
Y90274D01*
X9458Y90664D01*
X9428Y90709D01*
X9423Y90734D01*
X9393Y90779D01*
X9388Y90804D01*
X9167Y91135D01*
X9146Y91149D01*
X9132Y91170D01*
X9111Y91184D01*
X9097Y91205D01*
X9076Y91219D01*
X9062Y91240D01*
X9040Y91255D01*
X9062Y91270D01*
X9076Y91291D01*
X9097Y91305D01*
X9111Y91326D01*
X9132Y91340D01*
X9146Y91361D01*
X9167Y91375D01*
X9388Y91706D01*
X9393Y91731D01*
X9423Y91776D01*
X9438Y91851D01*
X9458Y91881D01*
X9536Y92272D01*
Y92377D01*
X9458Y92767D01*
X9438Y92797D01*
X9423Y92872D01*
X9202Y93203D01*
X9181Y93217D01*
X9167Y93238D01*
X9146Y93252D01*
X9132Y93273D01*
X9111Y93287D01*
X9097Y93308D01*
X9076Y93322D01*
X9062Y93343D01*
X9041Y93357D01*
X9027Y93378D01*
X8696Y93599D01*
X8306Y93677D01*
D02*
G37*
G36*
X54376Y91415D02*
X49226D01*
Y86265D01*
X49979D01*
Y83951D01*
X50014Y83775D01*
Y83596D01*
X50082Y83430D01*
X50117Y83254D01*
X50217Y83105D01*
X50286Y82939D01*
X50413Y82812D01*
X50512Y82663D01*
X50662Y82563D01*
X50789Y82436D01*
X50955Y82367D01*
X51104Y82268D01*
X51280Y82233D01*
X51446Y82164D01*
X51625D01*
X51801Y82129D01*
X51977Y82164D01*
X52157D01*
X52323Y82233D01*
X52499Y82268D01*
X52648Y82367D01*
X52814Y82436D01*
X52941Y82563D01*
X53090Y82663D01*
X53190Y82812D01*
X53316Y82939D01*
X53385Y83105D01*
X53485Y83254D01*
X53520Y83430D01*
X53589Y83596D01*
Y83775D01*
X53624Y83951D01*
Y86265D01*
X54376D01*
Y91415D01*
D02*
G37*
G36*
X18750Y141016D02*
X17231Y140866D01*
X15770Y140423D01*
X14424Y139703D01*
X13243Y138735D01*
X12275Y137555D01*
X11555Y136208D01*
X11112Y134748D01*
X10962Y133228D01*
X10971D01*
Y79291D01*
X10962D01*
X11112Y77772D01*
X11555Y76311D01*
X12275Y74965D01*
X13243Y73785D01*
X14424Y72816D01*
X15770Y72097D01*
X17231Y71653D01*
X18750Y71504D01*
X20269Y71653D01*
X21730Y72097D01*
X23076Y72816D01*
X24257Y73785D01*
X25225Y74965D01*
X25945Y76311D01*
X26388Y77772D01*
X26537Y79291D01*
X26529D01*
Y133228D01*
X26537D01*
X26388Y134748D01*
X25945Y136208D01*
X25225Y137555D01*
X24257Y138735D01*
X23076Y139703D01*
X21730Y140423D01*
X20269Y140866D01*
X18750Y141016D01*
D02*
G37*
G36*
X54376Y79178D02*
X49226D01*
Y74028D01*
X49979D01*
Y71969D01*
X50014Y71793D01*
Y71613D01*
X50082Y71447D01*
X50117Y71271D01*
X50217Y71122D01*
X50286Y70956D01*
X50413Y70829D01*
X50512Y70680D01*
X50662Y70580D01*
X50789Y70453D01*
X50955Y70385D01*
X51104Y70285D01*
X51280Y70250D01*
X51446Y70181D01*
X51625D01*
X51801Y70146D01*
X51977Y70181D01*
X52157D01*
X52323Y70250D01*
X52499Y70285D01*
X52648Y70385D01*
X52814Y70453D01*
X52941Y70580D01*
X53090Y70680D01*
X53190Y70829D01*
X53316Y70956D01*
X53385Y71122D01*
X53485Y71271D01*
X53520Y71447D01*
X53589Y71613D01*
Y71793D01*
X53624Y71969D01*
Y74028D01*
X54376D01*
Y79178D01*
D02*
G37*
G36*
X8144Y73657D02*
X7281D01*
X7187Y73638D01*
X7094D01*
X7000Y73620D01*
X6962D01*
X6868Y73601D01*
X6850D01*
X6460Y73523D01*
X6460Y73523D01*
X6366Y73505D01*
X6366Y73504D01*
X6272Y73486D01*
X6272Y73486D01*
X6179Y73467D01*
X6170Y73462D01*
X6104Y73448D01*
X6095Y73443D01*
X6029Y73430D01*
X6013Y73419D01*
X5972Y73411D01*
X5964Y73405D01*
X5897Y73392D01*
X5881Y73381D01*
X5841Y73373D01*
X5825Y73362D01*
X5785Y73355D01*
X5769Y73344D01*
X5729Y73336D01*
X5712Y73325D01*
X5672Y73317D01*
X5656Y73306D01*
X5616Y73298D01*
X5592Y73282D01*
X5579Y73280D01*
X5562Y73269D01*
X5522Y73261D01*
X5498Y73245D01*
X5485Y73242D01*
X5469Y73231D01*
X5429Y73223D01*
X5404Y73207D01*
X5391Y73204D01*
X5375Y73194D01*
X5335Y73186D01*
X5311Y73170D01*
X5297Y73167D01*
X5273Y73151D01*
X5260Y73148D01*
X5236Y73132D01*
X5222Y73129D01*
X5198Y73113D01*
X5185Y73111D01*
X5161Y73095D01*
X5147Y73092D01*
X5123Y73076D01*
X5110Y73073D01*
X5086Y73057D01*
X5072Y73054D01*
X5048Y73038D01*
X5035Y73036D01*
X5011Y73020D01*
X5000Y73017D01*
X4997Y73017D01*
X4973Y73001D01*
X4960Y72998D01*
X4936Y72982D01*
X4922Y72979D01*
X4866Y72942D01*
X4866Y72942D01*
X4842Y72926D01*
X4829Y72923D01*
X4804Y72907D01*
X4791Y72904D01*
X4735Y72867D01*
X4735Y72867D01*
X4679Y72830D01*
X4679Y72830D01*
X4654Y72813D01*
X4641Y72811D01*
X4585Y72773D01*
X4585Y72773D01*
X4529Y72736D01*
X4529Y72736D01*
X4198Y72515D01*
X4191Y72504D01*
X4067Y72421D01*
X4059Y72410D01*
X3991Y72365D01*
X3984Y72354D01*
X3973Y72346D01*
X3965Y72335D01*
X3898Y72290D01*
X3890Y72278D01*
X3879Y72271D01*
X3872Y72260D01*
X3804Y72215D01*
X3796Y72203D01*
X3785Y72196D01*
X3778Y72185D01*
X3766Y72177D01*
X3759Y72166D01*
X3748Y72158D01*
X3740Y72147D01*
X3729Y72140D01*
X3721Y72128D01*
X3710Y72121D01*
X3703Y72110D01*
X3635Y72065D01*
X3628Y72053D01*
X3616Y72046D01*
X3609Y72035D01*
X3598Y72027D01*
X3590Y72016D01*
X3579Y72009D01*
X3571Y71997D01*
X3560Y71990D01*
X3553Y71978D01*
X3542Y71971D01*
X3534Y71960D01*
X3523Y71952D01*
X3515Y71941D01*
X3504Y71934D01*
X3497Y71922D01*
X3485Y71915D01*
X3478Y71904D01*
X3466Y71896D01*
X3459Y71885D01*
X3448Y71877D01*
X3440Y71866D01*
X3429Y71859D01*
X3421Y71847D01*
X3410Y71840D01*
X3403Y71829D01*
X3391Y71821D01*
X3346Y71753D01*
X3335Y71746D01*
X3328Y71735D01*
X3317Y71727D01*
X3309Y71716D01*
X3298Y71709D01*
X3290Y71697D01*
X3279Y71690D01*
X3272Y71679D01*
X3260Y71671D01*
X3253Y71660D01*
X3241Y71652D01*
X3196Y71585D01*
X3185Y71577D01*
X3178Y71566D01*
X3167Y71558D01*
X3159Y71547D01*
X3148Y71540D01*
X3103Y71472D01*
X3091Y71465D01*
X3046Y71397D01*
X3035Y71390D01*
X2990Y71322D01*
X2979Y71315D01*
X2758Y70984D01*
X2758Y70984D01*
X2720Y70928D01*
X2720Y70928D01*
X2683Y70871D01*
X2683Y70871D01*
X2650Y70821D01*
X2646Y70815D01*
X2646Y70815D01*
X2608Y70759D01*
X2608Y70759D01*
X2571Y70703D01*
X2568Y70689D01*
X2552Y70665D01*
X2549Y70652D01*
X2533Y70628D01*
X2533Y70627D01*
X2496Y70571D01*
X2493Y70558D01*
X2477Y70534D01*
X2474Y70521D01*
X2458Y70496D01*
X2455Y70483D01*
X2439Y70459D01*
X2439Y70459D01*
X2402Y70403D01*
X2399Y70389D01*
X2383Y70365D01*
X2380Y70352D01*
X2364Y70328D01*
X2362Y70314D01*
X2345Y70290D01*
X2338Y70250D01*
X2327Y70234D01*
X2324Y70221D01*
X2308Y70196D01*
X2305Y70183D01*
X2289Y70159D01*
X2287Y70145D01*
X2270Y70121D01*
X2268Y70108D01*
X2252Y70084D01*
X2244Y70044D01*
X2233Y70028D01*
X2230Y70014D01*
X2214Y69990D01*
X2206Y69950D01*
X2196Y69934D01*
X2193Y69920D01*
X2177Y69896D01*
X2169Y69856D01*
X2158Y69840D01*
X2150Y69800D01*
X2139Y69784D01*
X2137Y69770D01*
X2121Y69746D01*
X2112Y69706D01*
X2102Y69690D01*
X2089Y69623D01*
X2083Y69615D01*
X2075Y69575D01*
X2066Y69561D01*
X2064Y69559D01*
X2056Y69519D01*
X2049Y69507D01*
X2046Y69503D01*
X2032Y69436D01*
X2027Y69428D01*
X2014Y69361D01*
X2008Y69353D01*
X1995Y69286D01*
X1989Y69278D01*
X1976Y69211D01*
X1970Y69203D01*
X1952Y69109D01*
X1952Y69109D01*
X1933Y69015D01*
X1933Y69015D01*
X1855Y68625D01*
Y68607D01*
X1837Y68512D01*
Y68476D01*
X1818Y68381D01*
Y68288D01*
X1799Y68194D01*
Y67331D01*
X1818Y67237D01*
Y67144D01*
X1837Y67049D01*
Y67013D01*
X1855Y66918D01*
Y66900D01*
X1933Y66510D01*
X1933Y66510D01*
X1952Y66416D01*
X1952Y66416D01*
X1970Y66322D01*
X1976Y66314D01*
X1989Y66247D01*
X1995Y66239D01*
X2008Y66172D01*
X2014Y66164D01*
X2027Y66097D01*
X2032Y66089D01*
X2046Y66022D01*
X2056Y66006D01*
X2062Y65978D01*
X2064Y65966D01*
X2075Y65950D01*
X2083Y65910D01*
X2089Y65902D01*
X2100Y65846D01*
X2102Y65835D01*
X2112Y65819D01*
X2121Y65779D01*
X2137Y65754D01*
X2139Y65741D01*
X2150Y65725D01*
X2158Y65685D01*
X2169Y65669D01*
X2177Y65629D01*
X2193Y65605D01*
X2196Y65591D01*
X2206Y65575D01*
X2214Y65535D01*
X2230Y65511D01*
X2232Y65501D01*
X2233Y65497D01*
X2244Y65481D01*
X2252Y65441D01*
X2268Y65417D01*
X2270Y65404D01*
X2287Y65380D01*
X2289Y65366D01*
X2305Y65342D01*
X2308Y65329D01*
X2319Y65312D01*
X2323Y65291D01*
X2327Y65272D01*
X2343Y65248D01*
X2345Y65235D01*
X2362Y65211D01*
X2364Y65197D01*
X2380Y65173D01*
X2383Y65160D01*
X2399Y65136D01*
X2402Y65122D01*
X2439Y65066D01*
X2439Y65066D01*
X2455Y65042D01*
X2458Y65029D01*
X2474Y65004D01*
X2477Y64991D01*
X2493Y64967D01*
X2496Y64954D01*
X2533Y64898D01*
X2533Y64897D01*
X2549Y64873D01*
X2551Y64861D01*
X2552Y64860D01*
X2568Y64836D01*
X2571Y64822D01*
X2608Y64766D01*
X2608Y64766D01*
X2646Y64710D01*
X2646Y64710D01*
X2683Y64654D01*
X2683Y64654D01*
X2720Y64597D01*
X2720Y64597D01*
X2758Y64541D01*
X2758Y64541D01*
X2979Y64210D01*
X2990Y64203D01*
X3035Y64135D01*
X3046Y64128D01*
X3091Y64060D01*
X3103Y64053D01*
X3148Y63985D01*
X3159Y63978D01*
X3167Y63967D01*
X3178Y63959D01*
X3185Y63948D01*
X3196Y63940D01*
X3241Y63873D01*
X3253Y63865D01*
X3260Y63854D01*
X3272Y63846D01*
X3279Y63835D01*
X3290Y63828D01*
X3298Y63816D01*
X3309Y63809D01*
X3317Y63798D01*
X3328Y63790D01*
X3373Y63723D01*
X3384Y63715D01*
X3391Y63704D01*
X3403Y63696D01*
X3410Y63685D01*
X3421Y63678D01*
X3429Y63666D01*
X3440Y63659D01*
X3448Y63648D01*
X3459Y63640D01*
X3466Y63629D01*
X3478Y63621D01*
X3485Y63610D01*
X3497Y63603D01*
X3504Y63591D01*
X3515Y63584D01*
X3523Y63573D01*
X3534Y63565D01*
X3538Y63559D01*
X3542Y63554D01*
X3553Y63547D01*
X3560Y63535D01*
X3571Y63528D01*
X3579Y63516D01*
X3590Y63509D01*
X3598Y63498D01*
X3609Y63490D01*
X3616Y63479D01*
X3628Y63472D01*
X3635Y63460D01*
X3703Y63415D01*
X3710Y63404D01*
X3721Y63397D01*
X3729Y63385D01*
X3740Y63378D01*
X3748Y63367D01*
X3759Y63359D01*
X3766Y63348D01*
X3778Y63340D01*
X3785Y63329D01*
X3796Y63322D01*
X3804Y63310D01*
X3872Y63265D01*
X3879Y63254D01*
X3890Y63247D01*
X3898Y63235D01*
X3965Y63190D01*
X3973Y63179D01*
X3984Y63171D01*
X3991Y63160D01*
X4059Y63115D01*
X4067Y63104D01*
X4191Y63021D01*
X4198Y63010D01*
X4529Y62789D01*
X4529Y62789D01*
X4585Y62752D01*
X4585Y62752D01*
X4641Y62714D01*
X4641Y62714D01*
X4697Y62677D01*
X4711Y62674D01*
X4735Y62658D01*
X4735Y62658D01*
X4791Y62621D01*
X4804Y62618D01*
X4829Y62602D01*
X4842Y62599D01*
X4866Y62583D01*
X4866Y62583D01*
X4922Y62546D01*
X4936Y62543D01*
X4960Y62527D01*
X4973Y62524D01*
X4997Y62508D01*
X5011Y62505D01*
X5035Y62489D01*
X5048Y62487D01*
X5072Y62471D01*
X5086Y62468D01*
X5110Y62452D01*
X5123Y62449D01*
X5147Y62433D01*
X5161Y62430D01*
X5185Y62414D01*
X5198Y62412D01*
X5222Y62396D01*
X5236Y62393D01*
X5260Y62377D01*
X5273Y62374D01*
X5297Y62358D01*
X5311Y62355D01*
X5335Y62339D01*
X5375Y62331D01*
X5391Y62321D01*
X5404Y62318D01*
X5429Y62302D01*
X5469Y62294D01*
X5485Y62283D01*
X5498Y62280D01*
X5522Y62264D01*
X5562Y62256D01*
X5579Y62246D01*
X5592Y62243D01*
X5616Y62227D01*
X5656Y62219D01*
X5672Y62208D01*
X5712Y62200D01*
X5729Y62189D01*
X5769Y62181D01*
X5785Y62170D01*
X5825Y62163D01*
X5841Y62152D01*
X5881Y62144D01*
X5897Y62133D01*
X5964Y62120D01*
X5972Y62114D01*
X6013Y62106D01*
X6029Y62095D01*
X6095Y62082D01*
X6104Y62077D01*
X6170Y62063D01*
X6179Y62058D01*
X6272Y62039D01*
X6272Y62039D01*
X6366Y62021D01*
X6366Y62020D01*
X6460Y62002D01*
X6460Y62002D01*
X6850Y61924D01*
X6868D01*
X6962Y61905D01*
X7000D01*
X7094Y61887D01*
X7187D01*
X7281Y61868D01*
X8144D01*
X8238Y61887D01*
X8331D01*
X8426Y61905D01*
X8462D01*
X8557Y61924D01*
X8575D01*
X8965Y62002D01*
X8965Y62002D01*
X9059Y62020D01*
X9059Y62021D01*
X9153Y62039D01*
X9153Y62039D01*
X9246Y62058D01*
X9255Y62063D01*
X9321Y62077D01*
X9330Y62082D01*
X9396Y62095D01*
X9413Y62106D01*
X9453Y62114D01*
X9461Y62120D01*
X9528Y62133D01*
X9544Y62144D01*
X9584Y62152D01*
X9600Y62163D01*
X9640Y62170D01*
X9656Y62181D01*
X9696Y62189D01*
X9713Y62200D01*
X9753Y62208D01*
X9769Y62219D01*
X9809Y62227D01*
X9833Y62243D01*
X9846Y62246D01*
X9862Y62256D01*
X9903Y62264D01*
X9927Y62280D01*
X9940Y62283D01*
X9956Y62294D01*
X9996Y62302D01*
X10020Y62318D01*
X10034Y62321D01*
X10050Y62331D01*
X10090Y62339D01*
X10114Y62355D01*
X10128Y62358D01*
X10152Y62374D01*
X10165Y62377D01*
X10189Y62393D01*
X10203Y62396D01*
X10227Y62412D01*
X10240Y62414D01*
X10264Y62430D01*
X10278Y62433D01*
X10302Y62449D01*
X10315Y62452D01*
X10339Y62468D01*
X10353Y62471D01*
X10377Y62487D01*
X10390Y62489D01*
X10414Y62505D01*
X10428Y62508D01*
X10452Y62524D01*
X10465Y62527D01*
X10489Y62543D01*
X10503Y62546D01*
X10559Y62583D01*
X10559Y62583D01*
X10583Y62599D01*
X10596Y62602D01*
X10621Y62618D01*
X10634Y62621D01*
X10690Y62658D01*
X10690Y62658D01*
X10746Y62695D01*
X10746Y62695D01*
X10770Y62712D01*
X10784Y62714D01*
X10840Y62752D01*
X10840Y62752D01*
X10896Y62789D01*
X10896Y62789D01*
X11227Y63010D01*
X11235Y63021D01*
X11359Y63104D01*
X11366Y63115D01*
X11434Y63160D01*
X11441Y63171D01*
X11452Y63179D01*
X11460Y63190D01*
X11527Y63235D01*
X11535Y63247D01*
X11546Y63254D01*
X11553Y63265D01*
X11621Y63310D01*
X11629Y63322D01*
X11640Y63329D01*
X11647Y63340D01*
X11659Y63348D01*
X11666Y63359D01*
X11677Y63367D01*
X11685Y63378D01*
X11696Y63385D01*
X11704Y63397D01*
X11715Y63404D01*
X11722Y63415D01*
X11790Y63460D01*
X11797Y63472D01*
X11808Y63479D01*
X11816Y63490D01*
X11827Y63498D01*
X11835Y63509D01*
X11846Y63516D01*
X11853Y63528D01*
X11865Y63535D01*
X11872Y63547D01*
X11884Y63554D01*
X11887Y63559D01*
X11891Y63565D01*
X11902Y63573D01*
X11910Y63584D01*
X11921Y63591D01*
X11929Y63603D01*
X11940Y63610D01*
X11947Y63621D01*
X11958Y63629D01*
X11966Y63640D01*
X11977Y63648D01*
X11985Y63659D01*
X11996Y63666D01*
X12004Y63678D01*
X12015Y63685D01*
X12022Y63696D01*
X12033Y63704D01*
X12046Y63723D01*
X12079Y63772D01*
X12090Y63779D01*
X12097Y63790D01*
X12109Y63798D01*
X12116Y63809D01*
X12127Y63816D01*
X12135Y63828D01*
X12146Y63835D01*
X12154Y63846D01*
X12165Y63854D01*
X12172Y63865D01*
X12184Y63873D01*
X12229Y63940D01*
X12240Y63948D01*
X12247Y63959D01*
X12258Y63967D01*
X12266Y63978D01*
X12277Y63985D01*
X12291Y64006D01*
X12322Y64053D01*
X12333Y64060D01*
X12347Y64081D01*
X12379Y64128D01*
X12390Y64135D01*
X12404Y64156D01*
X12435Y64203D01*
X12446Y64210D01*
X12667Y64541D01*
X12667Y64541D01*
X12705Y64597D01*
X12705Y64597D01*
X12742Y64654D01*
X12742Y64654D01*
X12779Y64710D01*
X12779Y64710D01*
X12817Y64766D01*
X12820Y64780D01*
X12836Y64804D01*
X12836Y64804D01*
X12873Y64860D01*
X12876Y64873D01*
X12892Y64897D01*
X12892Y64898D01*
X12930Y64954D01*
X12932Y64967D01*
X12948Y64991D01*
X12948Y64992D01*
X12951Y65004D01*
X12967Y65029D01*
X12970Y65042D01*
X12986Y65066D01*
X12986Y65066D01*
X13023Y65122D01*
X13026Y65136D01*
X13042Y65160D01*
X13045Y65173D01*
X13061Y65197D01*
X13063Y65211D01*
X13080Y65235D01*
X13088Y65275D01*
X13098Y65291D01*
X13101Y65304D01*
X13117Y65329D01*
X13120Y65342D01*
X13136Y65366D01*
X13136Y65367D01*
X13138Y65380D01*
X13155Y65404D01*
X13157Y65417D01*
X13173Y65441D01*
X13178Y65465D01*
X13181Y65481D01*
X13192Y65497D01*
X13195Y65511D01*
X13211Y65535D01*
X13219Y65575D01*
X13229Y65591D01*
X13232Y65605D01*
X13248Y65629D01*
X13256Y65669D01*
X13267Y65685D01*
X13275Y65725D01*
X13286Y65741D01*
X13294Y65781D01*
X13305Y65797D01*
X13313Y65838D01*
X13323Y65854D01*
X13331Y65894D01*
X13342Y65910D01*
X13350Y65950D01*
X13361Y65966D01*
X13369Y66006D01*
X13379Y66022D01*
X13393Y66089D01*
X13398Y66097D01*
X13411Y66164D01*
X13417Y66172D01*
X13430Y66239D01*
X13436Y66247D01*
X13449Y66314D01*
X13454Y66322D01*
X13473Y66416D01*
X13473Y66416D01*
X13492Y66510D01*
X13492Y66510D01*
X13570Y66900D01*
Y66918D01*
X13588Y67013D01*
Y67068D01*
X13602Y67135D01*
X13607Y67163D01*
Y67237D01*
X13626Y67331D01*
Y68194D01*
X13607Y68288D01*
Y68362D01*
X13588Y68457D01*
Y68512D01*
X13570Y68607D01*
Y68625D01*
X13492Y69015D01*
X13492Y69015D01*
X13473Y69109D01*
X13473Y69109D01*
X13454Y69203D01*
X13449Y69211D01*
X13436Y69278D01*
X13430Y69286D01*
X13417Y69353D01*
X13411Y69361D01*
X13398Y69428D01*
X13393Y69436D01*
X13379Y69503D01*
X13369Y69519D01*
X13361Y69559D01*
X13350Y69575D01*
X13342Y69615D01*
X13331Y69631D01*
X13323Y69671D01*
X13313Y69687D01*
X13305Y69728D01*
X13294Y69744D01*
X13286Y69784D01*
X13275Y69800D01*
X13267Y69840D01*
X13256Y69856D01*
X13248Y69896D01*
X13232Y69920D01*
X13229Y69934D01*
X13219Y69950D01*
X13211Y69990D01*
X13195Y70014D01*
X13192Y70028D01*
X13181Y70044D01*
X13173Y70084D01*
X13157Y70108D01*
X13155Y70121D01*
X13138Y70145D01*
X13136Y70159D01*
X13120Y70183D01*
X13117Y70196D01*
X13101Y70221D01*
X13098Y70234D01*
X13088Y70250D01*
X13086Y70259D01*
X13080Y70290D01*
X13063Y70314D01*
X13061Y70328D01*
X13045Y70352D01*
X13042Y70365D01*
X13026Y70389D01*
X13023Y70403D01*
X12986Y70459D01*
X12986Y70459D01*
X12970Y70483D01*
X12967Y70496D01*
X12951Y70521D01*
X12948Y70534D01*
X12932Y70558D01*
X12930Y70571D01*
X12892Y70627D01*
X12892Y70628D01*
X12876Y70652D01*
X12873Y70665D01*
X12836Y70721D01*
X12836Y70721D01*
X12832Y70728D01*
X12820Y70745D01*
X12817Y70759D01*
X12779Y70815D01*
X12779Y70815D01*
X12769Y70830D01*
X12742Y70871D01*
X12742Y70871D01*
X12705Y70928D01*
X12705Y70928D01*
X12693Y70945D01*
X12667Y70984D01*
X12667Y70984D01*
X12446Y71315D01*
X12435Y71322D01*
X12390Y71390D01*
X12379Y71397D01*
X12333Y71465D01*
X12322Y71472D01*
X12277Y71540D01*
X12266Y71547D01*
X12258Y71558D01*
X12247Y71566D01*
X12240Y71577D01*
X12235Y71580D01*
X12229Y71585D01*
X12184Y71652D01*
X12172Y71660D01*
X12165Y71671D01*
X12154Y71679D01*
X12146Y71690D01*
X12135Y71697D01*
X12127Y71709D01*
X12116Y71716D01*
X12109Y71727D01*
X12097Y71735D01*
X12090Y71746D01*
X12079Y71753D01*
X12033Y71821D01*
X12022Y71829D01*
X12015Y71840D01*
X12004Y71847D01*
X11996Y71859D01*
X11985Y71866D01*
X11977Y71877D01*
X11966Y71885D01*
X11958Y71896D01*
X11947Y71904D01*
X11940Y71915D01*
X11929Y71922D01*
X11921Y71934D01*
X11910Y71941D01*
X11902Y71952D01*
X11891Y71960D01*
X11884Y71971D01*
X11872Y71978D01*
X11865Y71990D01*
X11853Y71997D01*
X11846Y72009D01*
X11835Y72016D01*
X11827Y72027D01*
X11816Y72035D01*
X11808Y72046D01*
X11797Y72053D01*
X11790Y72065D01*
X11722Y72110D01*
X11715Y72121D01*
X11704Y72128D01*
X11696Y72140D01*
X11685Y72147D01*
X11677Y72158D01*
X11666Y72166D01*
X11659Y72177D01*
X11647Y72185D01*
X11640Y72196D01*
X11629Y72203D01*
X11621Y72215D01*
X11553Y72260D01*
X11546Y72271D01*
X11535Y72278D01*
X11527Y72290D01*
X11460Y72335D01*
X11452Y72346D01*
X11441Y72354D01*
X11434Y72365D01*
X11366Y72410D01*
X11359Y72421D01*
X11235Y72504D01*
X11227Y72515D01*
X10896Y72736D01*
X10896Y72736D01*
X10840Y72773D01*
X10840Y72773D01*
X10784Y72811D01*
X10770Y72813D01*
X10746Y72830D01*
X10746Y72830D01*
X10690Y72867D01*
X10690Y72867D01*
X10634Y72904D01*
X10621Y72907D01*
X10596Y72923D01*
X10583Y72926D01*
X10559Y72942D01*
X10559Y72942D01*
X10503Y72979D01*
X10489Y72982D01*
D01*
X10465Y72998D01*
X10452Y73001D01*
X10428Y73017D01*
X10425Y73017D01*
X10414Y73020D01*
X10390Y73036D01*
X10377Y73038D01*
X10353Y73054D01*
X10339Y73057D01*
X10315Y73073D01*
X10302Y73076D01*
X10278Y73092D01*
X10264Y73095D01*
X10240Y73111D01*
X10227Y73113D01*
X10203Y73129D01*
X10189Y73132D01*
X10165Y73148D01*
X10152Y73151D01*
X10128Y73167D01*
X10087Y73175D01*
X10071Y73186D01*
X10058Y73188D01*
X10034Y73204D01*
X10020Y73207D01*
X9996Y73223D01*
X9956Y73231D01*
X9940Y73242D01*
X9927Y73245D01*
X9903Y73261D01*
X9862Y73269D01*
X9846Y73280D01*
X9833Y73282D01*
X9809Y73298D01*
X9769Y73306D01*
X9753Y73317D01*
X9713Y73325D01*
X9696Y73336D01*
X9656Y73344D01*
X9640Y73355D01*
X9600Y73362D01*
X9584Y73373D01*
X9544Y73381D01*
X9528Y73392D01*
X9461Y73405D01*
X9453Y73411D01*
X9413Y73419D01*
X9396Y73430D01*
X9330Y73443D01*
X9321Y73448D01*
X9255Y73462D01*
X9246Y73467D01*
X9153Y73486D01*
X9153Y73486D01*
X9059Y73504D01*
X9059Y73505D01*
X8965Y73523D01*
X8965Y73523D01*
X8575Y73601D01*
X8557D01*
X8462Y73620D01*
X8426D01*
X8331Y73638D01*
X8238D01*
X8144Y73657D01*
D02*
G37*
%LPD*%
G36*
X118282Y151747D02*
X118358Y151697D01*
X118313Y151472D01*
Y150882D01*
X118398Y150453D01*
X118441Y150390D01*
X118398Y150326D01*
X118313Y149898D01*
Y149307D01*
X118398Y148879D01*
X118441Y148815D01*
X118398Y148751D01*
X118313Y148323D01*
Y147874D01*
X117737D01*
X117500Y147921D01*
X116956Y147813D01*
X116495Y147505D01*
X116187Y147044D01*
X116079Y146500D01*
X116187Y145956D01*
X116495Y145495D01*
X116542Y145448D01*
X117004Y145140D01*
X117547Y145032D01*
X118313D01*
Y144583D01*
X118398Y144154D01*
X118441Y144091D01*
X118398Y144027D01*
X118313Y143598D01*
Y143008D01*
X118398Y142579D01*
X118441Y142516D01*
X118398Y142452D01*
X118313Y142024D01*
Y141433D01*
X118398Y141005D01*
X118441Y140941D01*
X118398Y140877D01*
X118313Y140449D01*
Y139858D01*
X118392Y139462D01*
X117996Y139541D01*
X117405D01*
X116977Y139456D01*
X116913Y139413D01*
X116850Y139456D01*
X116421Y139541D01*
X115831D01*
X115402Y139456D01*
X115339Y139413D01*
X115275Y139456D01*
X114847Y139541D01*
X114256D01*
X113827Y139456D01*
X113764Y139413D01*
X113700Y139456D01*
X113272Y139541D01*
X112681D01*
X112252Y139456D01*
X112189Y139413D01*
X112126Y139456D01*
X111697Y139541D01*
X111106D01*
X110678Y139456D01*
X110614Y139413D01*
X110551Y139456D01*
X110122Y139541D01*
X109531D01*
X109103Y139456D01*
X109039Y139413D01*
X108976Y139456D01*
X108547Y139541D01*
X107957D01*
X107528Y139456D01*
X107465Y139413D01*
X107401Y139456D01*
X106973Y139541D01*
X106382D01*
X105953Y139456D01*
X105890Y139413D01*
X105826Y139456D01*
X105398Y139541D01*
X104807D01*
X104378Y139456D01*
X104315Y139413D01*
X104251Y139456D01*
X103823Y139541D01*
X103232D01*
X102804Y139456D01*
X102740Y139413D01*
X102677Y139456D01*
X102248Y139541D01*
X101657D01*
X101229Y139456D01*
X101165Y139413D01*
X101102Y139456D01*
X100673Y139541D01*
X100083D01*
X99654Y139456D01*
X99591Y139413D01*
X99527Y139456D01*
X99098Y139541D01*
X98508D01*
X98079Y139456D01*
X98016Y139413D01*
X97952Y139456D01*
X97524Y139541D01*
X96933D01*
X96537Y139462D01*
X96616Y139858D01*
Y140449D01*
X96531Y140877D01*
X96488Y140941D01*
X96531Y141005D01*
X96616Y141433D01*
Y142024D01*
X96531Y142452D01*
X96488Y142516D01*
X96531Y142579D01*
X96616Y143008D01*
Y143598D01*
X96531Y144027D01*
X96488Y144091D01*
X96531Y144154D01*
X96616Y144583D01*
Y145173D01*
X96531Y145602D01*
X96488Y145665D01*
X96531Y145729D01*
X96616Y146158D01*
Y146748D01*
X96531Y147177D01*
X96488Y147240D01*
X96531Y147304D01*
X96616Y147732D01*
Y148181D01*
X97602D01*
X98146Y148290D01*
X98607Y148598D01*
X99222Y149213D01*
X99356D01*
X100013Y149485D01*
X100362Y149834D01*
Y143287D01*
X106465D01*
Y150390D01*
X107465D01*
Y151390D01*
X114567D01*
Y155462D01*
X118282Y151747D01*
D02*
G37*
%LPC*%
G36*
X114567Y149390D02*
X108465D01*
Y143287D01*
X114567D01*
Y149390D01*
D02*
G37*
%LPD*%
G36*
X8236Y136497D02*
X8341D01*
Y136462D01*
X8376D01*
Y136427D01*
X8411D01*
Y136392D01*
X8446D01*
Y136322D01*
X8481D01*
Y136217D01*
X8516D01*
Y134465D01*
X8481D01*
Y134395D01*
X8446D01*
Y134325D01*
X8411D01*
Y134290D01*
X8341D01*
Y134254D01*
X8306D01*
Y134219D01*
X8271D01*
Y134184D01*
X8236D01*
Y134149D01*
X8201D01*
Y134114D01*
X8166D01*
Y134079D01*
X8131D01*
Y134044D01*
X8096D01*
Y134009D01*
X8061D01*
Y133974D01*
X8026D01*
Y133939D01*
X7991D01*
Y133904D01*
X7956D01*
Y133834D01*
X7920D01*
Y133799D01*
X7886D01*
Y133764D01*
X7850D01*
Y133729D01*
X7780D01*
Y133694D01*
X5397D01*
Y133729D01*
X5327D01*
Y133764D01*
X5292D01*
Y133799D01*
X5257D01*
Y133834D01*
X5222D01*
Y133869D01*
X5187D01*
Y133904D01*
X5152D01*
Y133939D01*
X5117D01*
Y133974D01*
X5082D01*
Y134009D01*
X5047D01*
Y134044D01*
X5012D01*
Y134079D01*
X4977D01*
Y134114D01*
X4942D01*
Y134149D01*
X4907D01*
Y134184D01*
X4837D01*
Y134219D01*
X4802D01*
Y134254D01*
X4767D01*
Y134290D01*
X4732D01*
Y134325D01*
X4696D01*
Y134360D01*
X4661D01*
Y134430D01*
X4626D01*
Y136077D01*
X4591D01*
Y136217D01*
X4626D01*
Y136287D01*
X4661D01*
Y136357D01*
X4696D01*
Y136392D01*
X4732D01*
Y136427D01*
X4767D01*
Y136462D01*
X4802D01*
Y136497D01*
X4907D01*
Y136532D01*
X5012D01*
Y136497D01*
X8096D01*
Y136532D01*
X8236D01*
Y136497D01*
D02*
G37*
G36*
X6659Y133343D02*
X6694D01*
Y133308D01*
X6764D01*
Y133273D01*
X6799D01*
Y133238D01*
X6834D01*
Y133203D01*
X6869D01*
Y133168D01*
X6904D01*
Y133133D01*
X6939D01*
Y133098D01*
X6974D01*
Y133063D01*
X7009D01*
Y133028D01*
X7044D01*
Y132993D01*
X7079D01*
Y132958D01*
X7114D01*
Y132923D01*
X7150D01*
Y132888D01*
X7185D01*
Y132853D01*
X7220D01*
Y132818D01*
X7255D01*
Y132783D01*
X7290D01*
Y132747D01*
X7325D01*
Y132712D01*
X7360D01*
Y132677D01*
X7395D01*
Y132607D01*
X7430D01*
Y132502D01*
X7465D01*
Y131311D01*
X7430D01*
Y131206D01*
X7395D01*
Y131170D01*
X7360D01*
Y131135D01*
X7325D01*
Y131100D01*
X7290D01*
Y131065D01*
X7255D01*
Y131030D01*
X7220D01*
Y130995D01*
X7185D01*
Y130960D01*
X7150D01*
Y130925D01*
X7114D01*
Y130890D01*
X7079D01*
Y130855D01*
X7044D01*
Y130820D01*
X7009D01*
Y130785D01*
X6974D01*
Y130750D01*
X6939D01*
Y130715D01*
X6904D01*
Y130680D01*
X6869D01*
Y130645D01*
X6834D01*
Y130610D01*
X6799D01*
Y130575D01*
X6764D01*
Y130540D01*
X6694D01*
Y130505D01*
X5958D01*
Y130540D01*
X5888D01*
Y130575D01*
X5853D01*
Y130610D01*
X5783D01*
Y130645D01*
X5748D01*
Y130715D01*
X5713D01*
Y130785D01*
X5678D01*
Y132607D01*
X5608D01*
Y132572D01*
X5573D01*
Y132537D01*
X5537D01*
Y132502D01*
X5503D01*
Y132467D01*
X5467D01*
Y132432D01*
X5432D01*
Y132397D01*
X5397D01*
Y132362D01*
X5362D01*
Y132292D01*
X5327D01*
Y131276D01*
X5292D01*
Y131206D01*
X5257D01*
Y131170D01*
X5222D01*
Y131135D01*
X5187D01*
Y131100D01*
X5117D01*
Y131065D01*
X5047D01*
Y131030D01*
X4942D01*
Y131065D01*
X4837D01*
Y131100D01*
X4767D01*
Y131135D01*
X4732D01*
Y131170D01*
X4696D01*
Y131241D01*
X4661D01*
Y131311D01*
X4626D01*
Y132467D01*
X4591D01*
Y132537D01*
X4626D01*
Y132572D01*
X4661D01*
Y132642D01*
X4696D01*
Y132677D01*
X4732D01*
Y132747D01*
X4767D01*
Y132783D01*
X4837D01*
Y132818D01*
X4872D01*
Y132853D01*
X4907D01*
Y132888D01*
X4942D01*
Y132923D01*
X4977D01*
Y132958D01*
X5012D01*
Y132993D01*
X5047D01*
Y133028D01*
X5082D01*
Y133063D01*
X5117D01*
Y133098D01*
X5152D01*
Y133133D01*
X5187D01*
Y133168D01*
X5222D01*
Y133203D01*
X5257D01*
Y133238D01*
X5292D01*
Y133273D01*
X5327D01*
Y133308D01*
X5432D01*
Y133343D01*
X5537D01*
Y133378D01*
X5643D01*
Y133343D01*
X6554D01*
Y133378D01*
X6659D01*
Y133343D01*
D02*
G37*
G36*
X6624Y130154D02*
X6729D01*
Y130119D01*
X6764D01*
Y130084D01*
X6834D01*
Y130049D01*
X6869D01*
Y130014D01*
X6904D01*
Y129979D01*
X6939D01*
Y129944D01*
X6974D01*
Y129909D01*
X7009D01*
Y129839D01*
X7079D01*
Y129804D01*
X7114D01*
Y129734D01*
X7185D01*
Y129664D01*
X7255D01*
Y129594D01*
X7290D01*
Y129559D01*
X7360D01*
Y129488D01*
X7395D01*
Y129453D01*
X7430D01*
Y129313D01*
X7465D01*
Y127666D01*
X7430D01*
Y127561D01*
X7395D01*
Y127491D01*
X7360D01*
Y127456D01*
X7325D01*
Y127421D01*
X7290D01*
Y127386D01*
X7185D01*
Y127351D01*
X7009D01*
Y127386D01*
X6904D01*
Y127421D01*
X6869D01*
Y127456D01*
X6834D01*
Y127491D01*
X6799D01*
Y127526D01*
X6764D01*
Y127666D01*
X6729D01*
Y129138D01*
X6694D01*
Y129208D01*
X6659D01*
Y129243D01*
X6624D01*
Y129278D01*
X6589D01*
Y129313D01*
X6519D01*
Y129243D01*
X6484D01*
Y129208D01*
X6449D01*
Y129173D01*
X6414D01*
Y129138D01*
X6379D01*
Y128402D01*
X6414D01*
Y128122D01*
X6379D01*
Y128052D01*
X6344D01*
Y128017D01*
X6308D01*
Y127981D01*
X6273D01*
Y127946D01*
X6238D01*
Y127911D01*
X6203D01*
Y127876D01*
X6168D01*
Y127841D01*
X6133D01*
Y127806D01*
X6098D01*
Y127771D01*
X6063D01*
Y127736D01*
X6028D01*
Y127701D01*
X5993D01*
Y127666D01*
X5958D01*
Y127631D01*
X5923D01*
Y127596D01*
X5888D01*
Y127561D01*
X5853D01*
Y127526D01*
X5818D01*
Y127491D01*
X5783D01*
Y127456D01*
X5748D01*
Y127421D01*
X5713D01*
Y127386D01*
X5643D01*
Y127351D01*
X5608D01*
Y127316D01*
X5503D01*
Y127351D01*
X5432D01*
Y127386D01*
X5327D01*
Y127421D01*
X5292D01*
Y127456D01*
X5257D01*
Y127491D01*
X5222D01*
Y127526D01*
X5187D01*
Y127561D01*
X5152D01*
Y127596D01*
X5117D01*
Y127631D01*
X5082D01*
Y127666D01*
X5047D01*
Y127701D01*
X5012D01*
Y127736D01*
X4977D01*
Y127771D01*
X4942D01*
Y127806D01*
X4907D01*
Y127841D01*
X4872D01*
Y127876D01*
X4837D01*
Y127911D01*
X4767D01*
Y127946D01*
X4732D01*
Y127981D01*
X4696D01*
Y128052D01*
X4661D01*
Y128087D01*
X4626D01*
Y128157D01*
X4591D01*
Y128227D01*
X4626D01*
Y129909D01*
X4661D01*
Y129979D01*
X4696D01*
Y130049D01*
X4732D01*
Y130084D01*
X4767D01*
Y130119D01*
X4837D01*
Y130154D01*
X4942D01*
Y130189D01*
X5047D01*
Y130154D01*
X5152D01*
Y130119D01*
X5187D01*
Y130084D01*
X5222D01*
Y130049D01*
X5257D01*
Y130014D01*
X5292D01*
Y129944D01*
X5327D01*
Y129453D01*
Y129418D01*
Y128437D01*
X5362D01*
Y128332D01*
X5397D01*
Y128297D01*
X5432D01*
Y128262D01*
X5467D01*
Y128227D01*
X5537D01*
Y128262D01*
X5573D01*
Y128297D01*
X5608D01*
Y128332D01*
X5643D01*
Y128367D01*
X5678D01*
Y129383D01*
X5713D01*
Y129453D01*
X5748D01*
Y129524D01*
X5783D01*
Y129559D01*
X5818D01*
Y129594D01*
X5853D01*
Y129629D01*
X5888D01*
Y129664D01*
X5923D01*
Y129699D01*
X5958D01*
Y129734D01*
X5993D01*
Y129769D01*
X6028D01*
Y129804D01*
X6063D01*
Y129839D01*
X6098D01*
Y129874D01*
X6133D01*
Y129909D01*
X6168D01*
Y129944D01*
X6203D01*
Y129979D01*
X6238D01*
Y130014D01*
X6273D01*
Y130049D01*
X6308D01*
Y130084D01*
X6379D01*
Y130119D01*
X6414D01*
Y130154D01*
X6519D01*
Y130189D01*
X6624D01*
Y130154D01*
D02*
G37*
G36*
X7185Y126965D02*
X7290D01*
Y126930D01*
X7325D01*
Y126895D01*
X7360D01*
Y126860D01*
X7395D01*
Y126790D01*
X7430D01*
Y126685D01*
X7465D01*
Y126019D01*
X7430D01*
Y125914D01*
X7395D01*
Y125879D01*
X7360D01*
Y125844D01*
X7325D01*
Y125809D01*
X7220D01*
Y125774D01*
X7185D01*
Y125739D01*
X7114D01*
Y125774D01*
X5362D01*
Y125564D01*
X5327D01*
Y125458D01*
X5292D01*
Y125388D01*
X5257D01*
Y125353D01*
X5222D01*
Y125318D01*
X5187D01*
Y125283D01*
X5117D01*
Y125248D01*
X4872D01*
Y125283D01*
X4767D01*
Y125318D01*
X4732D01*
Y125353D01*
X4696D01*
Y125423D01*
X4661D01*
Y125528D01*
X4626D01*
Y125564D01*
X4591D01*
Y126124D01*
X4626D01*
Y126720D01*
X4661D01*
Y126825D01*
X4696D01*
Y126860D01*
X4732D01*
Y126895D01*
X4767D01*
Y126930D01*
X4802D01*
Y126965D01*
X4872D01*
Y127000D01*
X5082D01*
Y126965D01*
X5187D01*
Y126930D01*
X5222D01*
Y126895D01*
X5257D01*
Y126860D01*
X5292D01*
Y126790D01*
X5327D01*
Y126650D01*
X5362D01*
Y126615D01*
X5327D01*
Y126510D01*
X5362D01*
Y126475D01*
X6729D01*
Y126510D01*
X6764D01*
Y126580D01*
X6729D01*
Y126685D01*
X6764D01*
Y126825D01*
X6799D01*
Y126860D01*
X6834D01*
Y126895D01*
X6869D01*
Y126930D01*
X6904D01*
Y126965D01*
X6974D01*
Y127000D01*
X7185D01*
Y126965D01*
D02*
G37*
G36*
X8271Y126440D02*
X8341D01*
Y126405D01*
X8376D01*
Y126370D01*
X8411D01*
Y126334D01*
X8446D01*
Y126264D01*
X8481D01*
Y126159D01*
X8516D01*
Y126054D01*
X8481D01*
Y125984D01*
X8446D01*
Y125914D01*
X8411D01*
Y125879D01*
X8376D01*
Y125844D01*
X8341D01*
Y125809D01*
X8271D01*
Y125774D01*
X8026D01*
Y125809D01*
X7956D01*
Y125844D01*
X7920D01*
Y125879D01*
X7886D01*
Y125914D01*
X7850D01*
Y125984D01*
X7815D01*
Y126054D01*
X7780D01*
Y126194D01*
X7815D01*
Y126264D01*
X7850D01*
Y126334D01*
X7886D01*
Y126370D01*
X7920D01*
Y126405D01*
X7956D01*
Y126440D01*
X8026D01*
Y126475D01*
X8271D01*
Y126440D01*
D02*
G37*
G36*
X6729Y124337D02*
X6764D01*
Y124302D01*
X6799D01*
Y124267D01*
X6834D01*
Y124232D01*
X6869D01*
Y124197D01*
X6904D01*
Y124162D01*
X6939D01*
Y124127D01*
X6974D01*
Y124092D01*
X7009D01*
Y124057D01*
X7044D01*
Y124021D01*
X7079D01*
Y123986D01*
X7114D01*
Y123951D01*
X7150D01*
Y123916D01*
X7185D01*
Y123881D01*
X7220D01*
Y123846D01*
X7255D01*
Y123811D01*
X7290D01*
Y123776D01*
X7325D01*
Y123741D01*
X7360D01*
Y123706D01*
X7395D01*
Y123671D01*
X7430D01*
Y123566D01*
X7465D01*
Y121814D01*
X7430D01*
Y121709D01*
X7395D01*
Y121674D01*
X7360D01*
Y121604D01*
X7290D01*
Y121568D01*
X7255D01*
Y121533D01*
X4311D01*
Y121568D01*
X4276D01*
Y121604D01*
X4206D01*
Y121639D01*
X4171D01*
Y121709D01*
X4136D01*
Y121744D01*
X4101D01*
Y121779D01*
X4066D01*
Y121814D01*
X4031D01*
Y121849D01*
X3996D01*
Y121884D01*
X3960D01*
Y121919D01*
X3926D01*
Y121954D01*
X3890D01*
Y121989D01*
X3855D01*
Y122024D01*
X3820D01*
Y122059D01*
X3785D01*
Y122094D01*
X3715D01*
Y122129D01*
X3680D01*
Y122199D01*
X3645D01*
Y122234D01*
X3610D01*
Y122304D01*
X3575D01*
Y123075D01*
X3610D01*
Y123145D01*
X3645D01*
Y123180D01*
X3680D01*
Y123215D01*
X3715D01*
Y123250D01*
X3750D01*
Y123286D01*
X4101D01*
Y123250D01*
X4136D01*
Y123215D01*
X4171D01*
Y123180D01*
X4206D01*
Y123145D01*
X4241D01*
Y123075D01*
X4276D01*
Y122585D01*
X4311D01*
Y122550D01*
X4346D01*
Y122480D01*
X4381D01*
Y122444D01*
X4416D01*
Y122409D01*
X4451D01*
Y122374D01*
X4486D01*
Y122339D01*
X4521D01*
Y122304D01*
X4626D01*
Y123566D01*
X4661D01*
Y123636D01*
X4696D01*
Y123706D01*
X4732D01*
Y123741D01*
X4767D01*
Y123776D01*
X4802D01*
Y123811D01*
X4837D01*
Y123846D01*
X4872D01*
Y123881D01*
X4907D01*
Y123916D01*
X4942D01*
Y123951D01*
X4977D01*
Y123986D01*
X5012D01*
Y124021D01*
X5047D01*
Y124057D01*
X5082D01*
Y124092D01*
X5117D01*
Y124127D01*
X5152D01*
Y124162D01*
X5187D01*
Y124232D01*
X5222D01*
Y124267D01*
X5292D01*
Y124302D01*
X5362D01*
Y124337D01*
X5432D01*
Y124372D01*
X6729D01*
Y124337D01*
D02*
G37*
G36*
X7255Y121148D02*
X7325D01*
Y121113D01*
X7360D01*
Y121078D01*
X7395D01*
Y121043D01*
X7430D01*
Y120938D01*
X7465D01*
Y119150D01*
X7430D01*
Y119080D01*
X7395D01*
Y119010D01*
X7360D01*
Y118975D01*
X7325D01*
Y118940D01*
X7290D01*
Y118905D01*
X7220D01*
Y118870D01*
X7185D01*
Y118835D01*
X7150D01*
Y118800D01*
X7114D01*
Y118765D01*
X7079D01*
Y118730D01*
X7044D01*
Y118695D01*
X7009D01*
Y118660D01*
X6974D01*
Y118625D01*
X6939D01*
Y118590D01*
X6904D01*
Y118555D01*
X6869D01*
Y118484D01*
X6834D01*
Y118449D01*
X6799D01*
Y118414D01*
X6694D01*
Y118379D01*
X6519D01*
Y118344D01*
X6449D01*
Y118379D01*
X4872D01*
Y118414D01*
X4802D01*
Y118449D01*
X4767D01*
Y118484D01*
X4696D01*
Y118555D01*
X4661D01*
Y118660D01*
X4626D01*
Y118800D01*
X4661D01*
Y118905D01*
X4696D01*
Y118940D01*
X4732D01*
Y118975D01*
X4767D01*
Y119010D01*
X4802D01*
Y119045D01*
X4872D01*
Y119080D01*
X6449D01*
Y119115D01*
X6484D01*
Y119150D01*
X6519D01*
Y119185D01*
X6554D01*
Y119220D01*
X6589D01*
Y119255D01*
X6624D01*
Y119291D01*
X6659D01*
Y119326D01*
X6694D01*
Y119396D01*
X6729D01*
Y119466D01*
X6764D01*
Y119536D01*
X6729D01*
Y119571D01*
Y119606D01*
Y120482D01*
X4907D01*
Y120517D01*
X4802D01*
Y120552D01*
X4767D01*
Y120587D01*
X4732D01*
Y120622D01*
X4696D01*
Y120657D01*
X4661D01*
Y120762D01*
X4626D01*
Y120903D01*
X4661D01*
Y121008D01*
X4696D01*
Y121078D01*
X4767D01*
Y121113D01*
X4802D01*
Y121148D01*
X4837D01*
Y121183D01*
X7255D01*
Y121148D01*
D02*
G37*
G36*
X5573Y118029D02*
X6659D01*
Y117994D01*
X6729D01*
Y117959D01*
X6799D01*
Y117924D01*
X6834D01*
Y117889D01*
X6869D01*
Y117854D01*
X6904D01*
Y117819D01*
X6939D01*
Y117784D01*
X6974D01*
Y117749D01*
X7009D01*
Y117714D01*
X7044D01*
Y117678D01*
X7079D01*
Y117643D01*
X7114D01*
Y117608D01*
X7150D01*
Y117573D01*
X7185D01*
Y117538D01*
X7220D01*
Y117503D01*
X7255D01*
Y117468D01*
X7290D01*
Y117433D01*
X7325D01*
Y117398D01*
X7360D01*
Y117363D01*
X7395D01*
Y117293D01*
X7430D01*
Y117153D01*
X7465D01*
Y115996D01*
X7430D01*
Y115891D01*
X7395D01*
Y115856D01*
X7360D01*
Y115821D01*
X7325D01*
Y115786D01*
X7290D01*
Y115751D01*
X7255D01*
Y115716D01*
X7220D01*
Y115681D01*
X7185D01*
Y115646D01*
X7150D01*
Y115611D01*
X7114D01*
Y115576D01*
X7079D01*
Y115541D01*
X7044D01*
Y115506D01*
X7009D01*
Y115471D01*
X6974D01*
Y115436D01*
X6939D01*
Y115401D01*
X6904D01*
Y115366D01*
X6869D01*
Y115331D01*
X6834D01*
Y115296D01*
X6799D01*
Y115261D01*
X6764D01*
Y115225D01*
X6694D01*
Y115190D01*
X5923D01*
Y115225D01*
X5853D01*
Y115261D01*
X5818D01*
Y115296D01*
X5783D01*
Y115331D01*
X5748D01*
Y115366D01*
X5713D01*
Y115401D01*
X5678D01*
Y117293D01*
X5608D01*
Y117258D01*
X5573D01*
Y117223D01*
X5537D01*
Y117153D01*
X5467D01*
Y117118D01*
X5432D01*
Y117048D01*
X5362D01*
Y116943D01*
X5327D01*
Y115926D01*
X5292D01*
Y115891D01*
X5257D01*
Y115821D01*
X5187D01*
Y115786D01*
X5152D01*
Y115751D01*
X5047D01*
Y115716D01*
X4907D01*
Y115751D01*
X4837D01*
Y115786D01*
X4767D01*
Y115821D01*
X4732D01*
Y115856D01*
X4696D01*
Y115891D01*
X4661D01*
Y115996D01*
X4626D01*
Y117188D01*
X4591D01*
Y117223D01*
X4626D01*
Y117258D01*
X4661D01*
Y117328D01*
X4696D01*
Y117398D01*
X4767D01*
Y117468D01*
X4837D01*
Y117503D01*
X4872D01*
Y117538D01*
X4907D01*
Y117573D01*
X4942D01*
Y117608D01*
X4977D01*
Y117643D01*
X5012D01*
Y117678D01*
X5047D01*
Y117714D01*
X5082D01*
Y117749D01*
X5117D01*
Y117784D01*
X5152D01*
Y117819D01*
X5187D01*
Y117854D01*
X5222D01*
Y117889D01*
X5257D01*
Y117959D01*
X5327D01*
Y117994D01*
X5397D01*
Y118029D01*
X5467D01*
Y118064D01*
X5573D01*
Y118029D01*
D02*
G37*
G36*
X6659Y114840D02*
X6729D01*
Y114805D01*
X6764D01*
Y114770D01*
X6799D01*
Y114735D01*
X6834D01*
Y114700D01*
X6904D01*
Y114665D01*
X6939D01*
Y114630D01*
X6974D01*
Y114560D01*
X7009D01*
Y114525D01*
X7044D01*
Y114489D01*
X7079D01*
Y114454D01*
X7114D01*
Y114419D01*
X7150D01*
Y114384D01*
X7185D01*
Y114349D01*
X7220D01*
Y114314D01*
X7255D01*
Y114279D01*
X7290D01*
Y114244D01*
X7325D01*
Y114209D01*
X7395D01*
Y114174D01*
X7430D01*
Y113999D01*
X7465D01*
Y112878D01*
X7430D01*
Y112807D01*
X7465D01*
Y112737D01*
X8271D01*
Y112702D01*
X8341D01*
Y112667D01*
X8376D01*
Y112632D01*
X8411D01*
Y112597D01*
X8446D01*
Y112527D01*
X8481D01*
Y112457D01*
X8516D01*
Y112317D01*
X8481D01*
Y112247D01*
X8446D01*
Y112177D01*
X8411D01*
Y112142D01*
X8376D01*
Y112107D01*
X8341D01*
Y112072D01*
X8271D01*
Y112036D01*
X4872D01*
Y112072D01*
X4767D01*
Y112107D01*
X4732D01*
Y112177D01*
X4696D01*
Y112212D01*
X4661D01*
Y112282D01*
X4626D01*
Y112317D01*
X4591D01*
Y112457D01*
X4626D01*
Y113964D01*
X4591D01*
Y114034D01*
X4626D01*
Y114104D01*
X4661D01*
Y114139D01*
X4696D01*
Y114209D01*
X4732D01*
Y114244D01*
X4767D01*
Y114279D01*
X4802D01*
Y114314D01*
X4837D01*
Y114349D01*
X4872D01*
Y114384D01*
X4907D01*
Y114419D01*
X4942D01*
Y114454D01*
X4977D01*
Y114489D01*
X5012D01*
Y114525D01*
X5047D01*
Y114560D01*
X5082D01*
Y114595D01*
X5117D01*
Y114630D01*
X5152D01*
Y114665D01*
X5187D01*
Y114700D01*
X5222D01*
Y114735D01*
X5257D01*
Y114770D01*
X5292D01*
Y114805D01*
X5362D01*
Y114840D01*
X5467D01*
Y114875D01*
X6659D01*
Y114840D01*
D02*
G37*
%LPC*%
G36*
X7780Y135796D02*
X5362D01*
Y135761D01*
X5327D01*
Y134745D01*
X5362D01*
Y134675D01*
X5397D01*
Y134640D01*
X5432D01*
Y134605D01*
X5467D01*
Y134570D01*
X5503D01*
Y134535D01*
X5537D01*
Y134500D01*
X5573D01*
Y134465D01*
X5608D01*
Y134430D01*
X5643D01*
Y134395D01*
X7465D01*
Y134430D01*
X7500D01*
Y134465D01*
X7570D01*
Y134500D01*
X7605D01*
Y134535D01*
X7640D01*
Y134570D01*
X7675D01*
Y134605D01*
X7710D01*
Y134640D01*
X7745D01*
Y134675D01*
X7780D01*
Y135796D01*
D02*
G37*
G36*
X6449Y132607D02*
X6379D01*
Y131276D01*
X6484D01*
Y131311D01*
X6519D01*
Y131346D01*
X6554D01*
Y131381D01*
X6589D01*
Y131416D01*
X6624D01*
Y131451D01*
X6659D01*
Y131486D01*
X6694D01*
Y131521D01*
X6729D01*
Y131556D01*
X6764D01*
Y131626D01*
X6729D01*
Y132362D01*
X6659D01*
Y132397D01*
X6624D01*
Y132432D01*
X6589D01*
Y132467D01*
X6554D01*
Y132537D01*
X6519D01*
Y132572D01*
X6449D01*
Y132607D01*
D02*
G37*
G36*
X5783Y123671D02*
X5748D01*
Y123636D01*
X5643D01*
Y123601D01*
X5573D01*
Y123566D01*
X5537D01*
Y123531D01*
X5503D01*
Y123461D01*
X5432D01*
Y123426D01*
X5397D01*
Y123391D01*
X5362D01*
Y123321D01*
X5327D01*
Y122304D01*
X5362D01*
Y122269D01*
X5397D01*
Y122234D01*
X5432D01*
Y122269D01*
X6729D01*
Y122304D01*
X6764D01*
Y122374D01*
X6729D01*
Y123250D01*
X6764D01*
Y123321D01*
X6729D01*
Y123356D01*
X6694D01*
Y123391D01*
X6659D01*
Y123426D01*
X6624D01*
Y123461D01*
X6589D01*
Y123496D01*
X6554D01*
Y123531D01*
X6519D01*
Y123566D01*
X6484D01*
Y123601D01*
X6449D01*
Y123636D01*
X5783D01*
Y123671D01*
D02*
G37*
G36*
X6449Y117293D02*
X6379D01*
Y115996D01*
X6414D01*
Y115961D01*
X6484D01*
Y115996D01*
X6519D01*
Y116032D01*
X6554D01*
Y116067D01*
X6589D01*
Y116102D01*
X6624D01*
Y116137D01*
X6659D01*
Y116172D01*
X6694D01*
Y116207D01*
X6729D01*
Y116242D01*
X6764D01*
Y116277D01*
Y116347D01*
X6729D01*
Y117013D01*
X6694D01*
Y117048D01*
X6659D01*
Y117083D01*
X6624D01*
Y117118D01*
X6589D01*
Y117153D01*
X6554D01*
Y117223D01*
X6484D01*
Y117258D01*
X6449D01*
Y117293D01*
D02*
G37*
G36*
Y114139D02*
X5643D01*
Y114104D01*
X5608D01*
Y114069D01*
X5573D01*
Y114034D01*
X5537D01*
Y113999D01*
X5503D01*
Y113964D01*
X5467D01*
Y113929D01*
X5432D01*
Y113894D01*
X5397D01*
Y113859D01*
X5362D01*
Y113824D01*
X5327D01*
Y112948D01*
Y112912D01*
Y112807D01*
X5362D01*
Y112737D01*
X6729D01*
Y112807D01*
X6764D01*
Y112878D01*
X6729D01*
Y113683D01*
X6764D01*
Y113718D01*
X6729D01*
Y113824D01*
X6694D01*
Y113894D01*
X6659D01*
Y113929D01*
X6624D01*
Y113964D01*
X6589D01*
Y113999D01*
X6554D01*
Y114034D01*
X6519D01*
Y114069D01*
X6484D01*
Y114104D01*
X6449D01*
Y114139D01*
D02*
G37*
%LPD*%
G36*
X8131Y108497D02*
X8306D01*
Y108462D01*
X8376D01*
Y108427D01*
X8411D01*
Y108392D01*
X8446D01*
Y108322D01*
X8481D01*
Y108217D01*
X8516D01*
Y108112D01*
X8481D01*
Y108006D01*
X8446D01*
Y107936D01*
X8411D01*
Y107901D01*
X8376D01*
Y107866D01*
X8306D01*
Y107831D01*
X8236D01*
Y107796D01*
X7465D01*
Y107761D01*
X7430D01*
Y107691D01*
X7465D01*
Y106535D01*
X7430D01*
Y106429D01*
X7395D01*
Y106394D01*
X7360D01*
Y106324D01*
X7325D01*
Y106289D01*
X7290D01*
Y106254D01*
X7255D01*
Y106219D01*
X7220D01*
Y106184D01*
X7185D01*
Y106149D01*
X7150D01*
Y106114D01*
X7114D01*
Y106079D01*
X7079D01*
Y106044D01*
X7044D01*
Y106009D01*
X7009D01*
Y105974D01*
X6974D01*
Y105939D01*
X6939D01*
Y105904D01*
X6904D01*
Y105869D01*
X6869D01*
Y105834D01*
X6834D01*
Y105799D01*
X6799D01*
Y105763D01*
X6729D01*
Y105728D01*
X6694D01*
Y105693D01*
X5362D01*
Y105728D01*
X5292D01*
Y105763D01*
X5257D01*
Y105834D01*
X5222D01*
Y105869D01*
X5187D01*
Y105904D01*
X5152D01*
Y105939D01*
X5117D01*
Y105974D01*
X5082D01*
Y106009D01*
X5047D01*
Y106044D01*
X5012D01*
Y106079D01*
X4977D01*
Y106114D01*
X4942D01*
Y106149D01*
X4907D01*
Y106184D01*
X4837D01*
Y106219D01*
X4802D01*
Y106254D01*
X4767D01*
Y106289D01*
X4732D01*
Y106324D01*
X4696D01*
Y106394D01*
X4661D01*
Y106464D01*
X4626D01*
Y106500D01*
X4591D01*
Y106605D01*
X4626D01*
Y108076D01*
X4591D01*
Y108217D01*
X4626D01*
Y108287D01*
X4661D01*
Y108357D01*
X4696D01*
Y108392D01*
X4732D01*
Y108427D01*
X4767D01*
Y108462D01*
X4802D01*
Y108497D01*
X4872D01*
Y108532D01*
X4977D01*
Y108497D01*
X8096D01*
Y108532D01*
X8131D01*
Y108497D01*
D02*
G37*
G36*
X5503Y105343D02*
X7220D01*
Y105308D01*
X7290D01*
Y105273D01*
X7325D01*
Y105238D01*
X7360D01*
Y105203D01*
X7395D01*
Y105168D01*
X7430D01*
Y105028D01*
X7465D01*
Y104957D01*
X7430D01*
Y104817D01*
X7395D01*
Y104782D01*
X7360D01*
Y104747D01*
X7325D01*
Y104712D01*
X7290D01*
Y104677D01*
X7220D01*
Y104642D01*
X5678D01*
Y104607D01*
X5608D01*
Y104572D01*
X5573D01*
Y104537D01*
X5537D01*
Y104502D01*
X5503D01*
Y104467D01*
X5467D01*
Y104432D01*
X5432D01*
Y104397D01*
X5397D01*
Y104362D01*
X5362D01*
Y104292D01*
X5327D01*
Y103310D01*
X5362D01*
Y103240D01*
X7185D01*
Y103205D01*
X7255D01*
Y103170D01*
X7325D01*
Y103135D01*
X7360D01*
Y103065D01*
X7395D01*
Y103030D01*
X7430D01*
Y102925D01*
X7465D01*
Y102855D01*
X7430D01*
Y102715D01*
X7395D01*
Y102680D01*
X7360D01*
Y102645D01*
X7325D01*
Y102610D01*
X7290D01*
Y102575D01*
X7220D01*
Y102540D01*
X7150D01*
Y102504D01*
X4311D01*
Y102540D01*
X4276D01*
Y102575D01*
X4241D01*
Y102610D01*
X4171D01*
Y102680D01*
X4136D01*
Y102715D01*
X4101D01*
Y102750D01*
X4066D01*
Y102785D01*
X4031D01*
Y102820D01*
X3996D01*
Y102855D01*
X3960D01*
Y102890D01*
X3926D01*
Y102925D01*
X3890D01*
Y102960D01*
X3855D01*
Y102995D01*
X3820D01*
Y103030D01*
X3785D01*
Y103065D01*
X3750D01*
Y103100D01*
X3715D01*
Y103135D01*
X3680D01*
Y103170D01*
X3645D01*
Y103205D01*
X3610D01*
Y103240D01*
X3575D01*
Y104046D01*
X3610D01*
Y104116D01*
X3645D01*
Y104151D01*
X3680D01*
Y104186D01*
X3715D01*
Y104222D01*
X3750D01*
Y104257D01*
X3855D01*
Y104292D01*
X4031D01*
Y104257D01*
X4101D01*
Y104222D01*
X4171D01*
Y104186D01*
X4206D01*
Y104151D01*
X4241D01*
Y104081D01*
X4276D01*
Y103556D01*
X4311D01*
Y103521D01*
X4346D01*
Y103486D01*
X4381D01*
Y103451D01*
X4416D01*
Y103416D01*
X4451D01*
Y103381D01*
X4486D01*
Y103346D01*
X4521D01*
Y103310D01*
X4556D01*
Y103275D01*
X4626D01*
Y104362D01*
X4591D01*
Y104397D01*
X4626D01*
Y104537D01*
X4661D01*
Y104642D01*
X4696D01*
Y104677D01*
X4732D01*
Y104712D01*
X4767D01*
Y104782D01*
X4837D01*
Y104852D01*
X4907D01*
Y104887D01*
X4942D01*
Y104957D01*
X5012D01*
Y105028D01*
X5082D01*
Y105098D01*
X5117D01*
Y105133D01*
X5152D01*
Y105168D01*
X5187D01*
Y105203D01*
X5222D01*
Y105238D01*
X5257D01*
Y105273D01*
X5327D01*
Y105308D01*
X5362D01*
Y105343D01*
X5432D01*
Y105378D01*
X5503D01*
Y105343D01*
D02*
G37*
%LPC*%
G36*
X6729Y107796D02*
X5362D01*
Y107761D01*
X5327D01*
Y106745D01*
X5362D01*
Y106675D01*
X5397D01*
Y106640D01*
X5432D01*
Y106605D01*
X5467D01*
Y106570D01*
X5503D01*
Y106535D01*
X5537D01*
Y106500D01*
X5573D01*
Y106464D01*
X5608D01*
Y106429D01*
X5643D01*
Y106394D01*
X6028D01*
Y106429D01*
X6133D01*
Y106394D01*
X6414D01*
Y106429D01*
X6449D01*
Y106464D01*
X6519D01*
Y106535D01*
X6554D01*
Y106570D01*
X6589D01*
Y106605D01*
X6624D01*
Y106640D01*
X6694D01*
Y106710D01*
X6729D01*
Y107691D01*
X6764D01*
Y107761D01*
X6729D01*
Y107796D01*
D02*
G37*
%LPD*%
G36*
X7640Y99000D02*
X7745D01*
Y98965D01*
X7815D01*
Y98930D01*
X7850D01*
Y98895D01*
X7886D01*
Y98860D01*
X7920D01*
Y98825D01*
X7956D01*
Y98790D01*
X7991D01*
Y98755D01*
X8026D01*
Y98720D01*
X8061D01*
Y98685D01*
X8096D01*
Y98650D01*
X8131D01*
Y98615D01*
X8166D01*
Y98580D01*
X8201D01*
Y98544D01*
X8236D01*
Y98509D01*
X8271D01*
Y98474D01*
X8341D01*
Y98439D01*
X8376D01*
Y98369D01*
X8411D01*
Y98334D01*
X8446D01*
Y98264D01*
X8481D01*
Y98194D01*
X8516D01*
Y96967D01*
X8481D01*
Y96897D01*
X8446D01*
Y96827D01*
X8411D01*
Y96792D01*
X8376D01*
Y96757D01*
X8306D01*
Y96722D01*
X8271D01*
Y96687D01*
X8236D01*
Y96652D01*
X8201D01*
Y96617D01*
X8166D01*
Y96582D01*
X8131D01*
Y96547D01*
X8096D01*
Y96512D01*
X8061D01*
Y96477D01*
X8026D01*
Y96442D01*
X7991D01*
Y96407D01*
X7956D01*
Y96372D01*
X7920D01*
Y96337D01*
X7886D01*
Y96302D01*
X7850D01*
Y96267D01*
X7815D01*
Y96232D01*
X7780D01*
Y96197D01*
X7465D01*
Y96232D01*
X7430D01*
Y96267D01*
X7395D01*
Y96302D01*
X7360D01*
Y96337D01*
X7325D01*
Y96372D01*
X7290D01*
Y96722D01*
X7325D01*
Y96757D01*
X7360D01*
Y96792D01*
X7395D01*
Y96827D01*
X7430D01*
Y96862D01*
X7465D01*
Y96897D01*
X7500D01*
Y96932D01*
X7535D01*
Y96967D01*
X7570D01*
Y97003D01*
X7605D01*
Y97038D01*
X7640D01*
Y97073D01*
X7675D01*
Y97108D01*
X7710D01*
Y97143D01*
X7745D01*
Y97178D01*
X7780D01*
Y98019D01*
X7745D01*
Y98054D01*
X7710D01*
Y98089D01*
X7675D01*
Y98124D01*
X7640D01*
Y98159D01*
X7605D01*
Y98194D01*
X7570D01*
Y98229D01*
X7535D01*
Y98264D01*
X7500D01*
Y98299D01*
X5643D01*
Y98264D01*
X5608D01*
Y98229D01*
X5573D01*
Y98194D01*
X5537D01*
Y98159D01*
X5503D01*
Y98124D01*
X5467D01*
Y98089D01*
X5432D01*
Y98054D01*
X5397D01*
Y98019D01*
X5362D01*
Y97914D01*
X5327D01*
Y97248D01*
X5362D01*
Y97178D01*
X5397D01*
Y97143D01*
X5432D01*
Y97108D01*
X5467D01*
Y97073D01*
X5503D01*
Y97038D01*
X5537D01*
Y97003D01*
X5573D01*
Y96967D01*
X5608D01*
Y96932D01*
X5643D01*
Y96897D01*
X5678D01*
Y96862D01*
X5713D01*
Y96827D01*
X5748D01*
Y96792D01*
X5783D01*
Y96757D01*
X5818D01*
Y96687D01*
X5853D01*
Y96372D01*
X5818D01*
Y96337D01*
X5783D01*
Y96302D01*
X5748D01*
Y96267D01*
X5713D01*
Y96232D01*
X5643D01*
Y96197D01*
X5362D01*
Y96232D01*
X5327D01*
Y96267D01*
X5257D01*
Y96302D01*
X5222D01*
Y96337D01*
X5187D01*
Y96372D01*
X5152D01*
Y96407D01*
X5117D01*
Y96442D01*
X5082D01*
Y96477D01*
X5047D01*
Y96512D01*
X5012D01*
Y96547D01*
X4977D01*
Y96582D01*
X4942D01*
Y96617D01*
X4907D01*
Y96652D01*
X4872D01*
Y96687D01*
X4837D01*
Y96722D01*
X4802D01*
Y96757D01*
X4767D01*
Y96792D01*
X4732D01*
Y96827D01*
X4696D01*
Y96897D01*
X4661D01*
Y96967D01*
X4626D01*
Y98019D01*
X4591D01*
Y98124D01*
X4626D01*
Y98194D01*
X4661D01*
Y98299D01*
X4696D01*
Y98369D01*
X4767D01*
Y98439D01*
X4837D01*
Y98474D01*
X4872D01*
Y98544D01*
X4942D01*
Y98615D01*
X5012D01*
Y98685D01*
X5047D01*
Y98720D01*
X5082D01*
Y98755D01*
X5117D01*
Y98790D01*
X5152D01*
Y98825D01*
X5187D01*
Y98860D01*
X5222D01*
Y98895D01*
X5257D01*
Y98930D01*
X5292D01*
Y98965D01*
X5362D01*
Y99000D01*
X5432D01*
Y99035D01*
X5537D01*
Y99000D01*
X7500D01*
Y99035D01*
X7640D01*
Y99000D01*
D02*
G37*
G36*
X8306Y92622D02*
X8341D01*
Y92587D01*
X8376D01*
Y92552D01*
X8411D01*
Y92517D01*
X8446D01*
Y92482D01*
X8481D01*
Y92377D01*
X8516D01*
Y92272D01*
X8481D01*
Y92166D01*
X8446D01*
Y92096D01*
X8411D01*
Y92061D01*
X8376D01*
Y92026D01*
X8341D01*
Y91991D01*
X8201D01*
Y91956D01*
X5958D01*
Y91991D01*
X5888D01*
Y91956D01*
X5853D01*
Y91921D01*
X5888D01*
Y91886D01*
X5923D01*
Y91851D01*
X5958D01*
Y91816D01*
X5993D01*
Y91781D01*
X6028D01*
Y91746D01*
X6063D01*
Y91711D01*
X6098D01*
Y91676D01*
X6133D01*
Y91641D01*
X6168D01*
Y91606D01*
X6203D01*
Y91571D01*
X6238D01*
Y91536D01*
X6273D01*
Y91501D01*
X6308D01*
Y91466D01*
X6344D01*
Y91395D01*
X6379D01*
Y91255D01*
X6414D01*
Y91150D01*
X6379D01*
Y91115D01*
X6344D01*
Y91010D01*
X6308D01*
Y90975D01*
X6273D01*
Y90940D01*
X6238D01*
Y90905D01*
X6168D01*
Y90870D01*
X6133D01*
Y90835D01*
X6098D01*
Y90800D01*
X6063D01*
Y90765D01*
X6028D01*
Y90730D01*
X5993D01*
Y90694D01*
X5958D01*
Y90659D01*
X5923D01*
Y90624D01*
X5888D01*
Y90554D01*
X8271D01*
Y90519D01*
X8341D01*
Y90484D01*
X8376D01*
Y90449D01*
X8411D01*
Y90414D01*
X8446D01*
Y90344D01*
X8481D01*
Y90274D01*
X8516D01*
Y90134D01*
X8481D01*
Y90064D01*
X8446D01*
Y89994D01*
X8411D01*
Y89959D01*
X8376D01*
Y89924D01*
X8341D01*
Y89889D01*
X8271D01*
Y89854D01*
X5117D01*
Y89818D01*
X5012D01*
Y89854D01*
X4872D01*
Y89889D01*
X4802D01*
Y89924D01*
X4767D01*
Y89959D01*
X4732D01*
Y89994D01*
X4696D01*
Y90029D01*
X4661D01*
Y90134D01*
X4626D01*
Y90274D01*
X4661D01*
Y90379D01*
X4696D01*
Y90414D01*
X4732D01*
Y90449D01*
X4767D01*
Y90484D01*
X4802D01*
Y90519D01*
X4837D01*
Y90554D01*
X4872D01*
Y90589D01*
X4907D01*
Y90624D01*
X4942D01*
Y90659D01*
X4977D01*
Y90694D01*
X5012D01*
Y90730D01*
X5047D01*
Y90800D01*
X5117D01*
Y90870D01*
X5187D01*
Y90940D01*
X5257D01*
Y90975D01*
X5292D01*
Y91045D01*
X5362D01*
Y91115D01*
X5397D01*
Y91150D01*
X5432D01*
Y91185D01*
X5503D01*
Y91255D01*
X5537D01*
Y91290D01*
X5503D01*
Y91325D01*
X5467D01*
Y91360D01*
X5432D01*
Y91395D01*
X5397D01*
Y91430D01*
X5362D01*
Y91466D01*
X5327D01*
Y91501D01*
X5292D01*
Y91536D01*
X5257D01*
Y91571D01*
X5222D01*
Y91606D01*
X5187D01*
Y91641D01*
X5152D01*
Y91676D01*
X5117D01*
Y91711D01*
X5082D01*
Y91746D01*
X5047D01*
Y91781D01*
X5012D01*
Y91816D01*
X4977D01*
Y91851D01*
X4942D01*
Y91886D01*
X4907D01*
Y91921D01*
X4872D01*
Y91956D01*
X4837D01*
Y91991D01*
X4767D01*
Y92026D01*
X4732D01*
Y92061D01*
X4696D01*
Y92131D01*
X4661D01*
Y92201D01*
X4626D01*
Y92272D01*
X4591D01*
Y92377D01*
X4626D01*
Y92447D01*
X4661D01*
Y92517D01*
X4696D01*
Y92552D01*
X4732D01*
Y92587D01*
X4767D01*
Y92622D01*
X4802D01*
Y92657D01*
X8306D01*
Y92622D01*
D02*
G37*
G36*
X5993Y89503D02*
X7185D01*
Y89468D01*
X7290D01*
Y89433D01*
X7325D01*
Y89398D01*
X7360D01*
Y89363D01*
X7395D01*
Y89293D01*
X7430D01*
Y89188D01*
X7465D01*
Y89118D01*
X7430D01*
Y88977D01*
X7395D01*
Y88942D01*
X7360D01*
Y88907D01*
X7325D01*
Y88872D01*
X7290D01*
Y88837D01*
X7255D01*
Y88802D01*
X6939D01*
Y88732D01*
X6974D01*
Y88697D01*
X7009D01*
Y88662D01*
X7044D01*
Y88627D01*
X7079D01*
Y88592D01*
X7114D01*
Y88557D01*
X7150D01*
Y88522D01*
X7185D01*
Y88487D01*
X7220D01*
Y88452D01*
X7255D01*
Y88417D01*
X7290D01*
Y88382D01*
X7325D01*
Y88347D01*
X7360D01*
Y88276D01*
X7395D01*
Y88241D01*
X7430D01*
Y88101D01*
X7465D01*
Y87541D01*
X7430D01*
Y87400D01*
X7395D01*
Y87365D01*
X7360D01*
Y87295D01*
X7290D01*
Y87260D01*
X7255D01*
Y87225D01*
X7150D01*
Y87190D01*
X7044D01*
Y87225D01*
X6939D01*
Y87260D01*
X6869D01*
Y87295D01*
X6834D01*
Y87330D01*
X6799D01*
Y87400D01*
X6764D01*
Y87541D01*
X6729D01*
Y87961D01*
X6694D01*
Y87996D01*
X6659D01*
Y88031D01*
X6624D01*
Y88066D01*
X6589D01*
Y88101D01*
X6554D01*
Y88136D01*
X6519D01*
Y88171D01*
X6484D01*
Y88206D01*
X6449D01*
Y88241D01*
X6414D01*
Y88276D01*
X6379D01*
Y88311D01*
X6344D01*
Y88347D01*
X6308D01*
Y88382D01*
X6273D01*
Y88417D01*
X6238D01*
Y88452D01*
X6203D01*
Y88487D01*
X6168D01*
Y88522D01*
X6133D01*
Y88557D01*
X6098D01*
Y88592D01*
X6063D01*
Y88627D01*
X6028D01*
Y88662D01*
X5993D01*
Y88697D01*
X5958D01*
Y88732D01*
X5923D01*
Y88767D01*
X5888D01*
Y88802D01*
X4837D01*
Y88837D01*
X4802D01*
Y88872D01*
X4732D01*
Y88907D01*
X4696D01*
Y88977D01*
X4661D01*
Y89082D01*
X4626D01*
Y89293D01*
X4661D01*
Y89328D01*
X4696D01*
Y89363D01*
X4732D01*
Y89398D01*
X4767D01*
Y89433D01*
X4802D01*
Y89468D01*
X4872D01*
Y89503D01*
X4942D01*
Y89538D01*
X5993D01*
Y89503D01*
D02*
G37*
G36*
X7150Y86314D02*
X7220D01*
Y86279D01*
X7290D01*
Y86244D01*
X7360D01*
Y86174D01*
X7395D01*
Y86139D01*
X7430D01*
Y85999D01*
X7465D01*
Y85333D01*
X7430D01*
Y85263D01*
X7395D01*
Y85228D01*
X7360D01*
Y85193D01*
X7325D01*
Y85158D01*
X7290D01*
Y85123D01*
X7255D01*
Y85088D01*
X5362D01*
Y84807D01*
X5327D01*
Y84737D01*
X5292D01*
Y84702D01*
X5257D01*
Y84667D01*
X5222D01*
Y84632D01*
X5187D01*
Y84597D01*
X5082D01*
Y84562D01*
X4872D01*
Y84597D01*
X4767D01*
Y84667D01*
X4696D01*
Y84737D01*
X4661D01*
Y84772D01*
X4626D01*
Y84877D01*
X4591D01*
Y85403D01*
X4626D01*
Y86069D01*
X4661D01*
Y86139D01*
X4696D01*
Y86209D01*
X4732D01*
Y86244D01*
X4767D01*
Y86279D01*
X4837D01*
Y86314D01*
X4907D01*
Y86349D01*
X5047D01*
Y86314D01*
X5117D01*
Y86279D01*
X5187D01*
Y86244D01*
X5222D01*
Y86209D01*
X5257D01*
Y86174D01*
X5292D01*
Y86104D01*
X5327D01*
Y85859D01*
X5362D01*
Y85788D01*
X6694D01*
Y85823D01*
X6729D01*
Y85859D01*
Y85893D01*
Y85999D01*
X6764D01*
Y86139D01*
X6799D01*
Y86209D01*
X6834D01*
Y86244D01*
X6869D01*
Y86279D01*
X6974D01*
Y86314D01*
X7044D01*
Y86349D01*
X7150D01*
Y86314D01*
D02*
G37*
G36*
X8271Y85753D02*
X8341D01*
Y85718D01*
X8376D01*
Y85683D01*
X8446D01*
Y85613D01*
X8481D01*
Y85508D01*
X8516D01*
Y85403D01*
X8481D01*
Y85298D01*
X8446D01*
Y85228D01*
X8411D01*
Y85193D01*
X8376D01*
Y85158D01*
X8306D01*
Y85123D01*
X8236D01*
Y85088D01*
X8061D01*
Y85123D01*
X7991D01*
Y85158D01*
X7920D01*
Y85193D01*
X7886D01*
Y85228D01*
X7850D01*
Y85298D01*
X7815D01*
Y85368D01*
X7780D01*
Y85543D01*
X7815D01*
Y85613D01*
X7850D01*
Y85648D01*
X7886D01*
Y85718D01*
X7956D01*
Y85753D01*
X8026D01*
Y85788D01*
X8271D01*
Y85753D01*
D02*
G37*
G36*
X6624Y83686D02*
X6729D01*
Y83651D01*
X6799D01*
Y83616D01*
X6834D01*
Y83546D01*
X6869D01*
Y83511D01*
X6904D01*
Y83475D01*
X6939D01*
Y83440D01*
X6974D01*
Y83405D01*
X7009D01*
Y83370D01*
X7044D01*
Y83335D01*
X7079D01*
Y83300D01*
X7114D01*
Y83265D01*
X7150D01*
Y83230D01*
X7185D01*
Y83195D01*
X7220D01*
Y83160D01*
X7290D01*
Y83090D01*
X7360D01*
Y83020D01*
X7395D01*
Y82985D01*
X7430D01*
Y82915D01*
X7465D01*
Y81128D01*
X7430D01*
Y81022D01*
X7395D01*
Y80987D01*
X7360D01*
Y80952D01*
X7325D01*
Y80917D01*
X7290D01*
Y80882D01*
X4521D01*
Y80847D01*
X4416D01*
Y80882D01*
X4276D01*
Y80917D01*
X4241D01*
Y80952D01*
X4206D01*
Y80987D01*
X4171D01*
Y81022D01*
X4136D01*
Y81057D01*
X4101D01*
Y81092D01*
X4066D01*
Y81128D01*
X4031D01*
Y81163D01*
X3996D01*
Y81198D01*
X3960D01*
Y81233D01*
X3926D01*
Y81268D01*
X3890D01*
Y81303D01*
X3855D01*
Y81338D01*
X3820D01*
Y81373D01*
X3785D01*
Y81408D01*
X3750D01*
Y81443D01*
X3715D01*
Y81478D01*
X3680D01*
Y81513D01*
X3645D01*
Y81583D01*
X3610D01*
Y81653D01*
X3575D01*
Y82389D01*
X3610D01*
Y82459D01*
X3645D01*
Y82494D01*
X3680D01*
Y82529D01*
X3715D01*
Y82564D01*
X3750D01*
Y82599D01*
X3820D01*
Y82634D01*
X4031D01*
Y82599D01*
X4101D01*
Y82564D01*
X4171D01*
Y82529D01*
X4206D01*
Y82494D01*
X4241D01*
Y82424D01*
X4276D01*
Y81898D01*
X4311D01*
Y81863D01*
X4346D01*
Y81828D01*
X4381D01*
Y81793D01*
X4416D01*
Y81758D01*
X4451D01*
Y81723D01*
X4486D01*
Y81653D01*
X4521D01*
Y81618D01*
X4626D01*
Y81758D01*
Y81793D01*
Y82705D01*
X4591D01*
Y82810D01*
X4626D01*
Y82880D01*
X4661D01*
Y82985D01*
X4696D01*
Y83020D01*
X4732D01*
Y83055D01*
X4767D01*
Y83090D01*
X4802D01*
Y83125D01*
X4837D01*
Y83160D01*
X4872D01*
Y83195D01*
X4907D01*
Y83230D01*
X4942D01*
Y83265D01*
X4977D01*
Y83300D01*
X5012D01*
Y83335D01*
X5047D01*
Y83370D01*
X5082D01*
Y83405D01*
X5117D01*
Y83475D01*
X5152D01*
Y83511D01*
X5187D01*
Y83546D01*
X5222D01*
Y83581D01*
X5292D01*
Y83616D01*
X5327D01*
Y83651D01*
X5397D01*
Y83686D01*
X6519D01*
Y83721D01*
X6624D01*
Y83686D01*
D02*
G37*
G36*
X6589Y80532D02*
X8236D01*
Y80497D01*
X8306D01*
Y80462D01*
X8376D01*
Y80427D01*
X8411D01*
Y80392D01*
X8446D01*
Y80322D01*
X8481D01*
Y80216D01*
X8516D01*
Y80111D01*
X8481D01*
Y80006D01*
X8446D01*
Y79936D01*
X8411D01*
Y79901D01*
X8376D01*
Y79866D01*
X8306D01*
Y79831D01*
X8236D01*
Y79796D01*
X7430D01*
Y79656D01*
X7465D01*
Y78499D01*
X7430D01*
Y78429D01*
X7395D01*
Y78359D01*
X7360D01*
Y78289D01*
X7290D01*
Y78254D01*
X7255D01*
Y78219D01*
X7220D01*
Y78184D01*
X7185D01*
Y78149D01*
X7150D01*
Y78114D01*
X7114D01*
Y78079D01*
X7079D01*
Y78044D01*
X7044D01*
Y78009D01*
X7009D01*
Y77974D01*
X6974D01*
Y77938D01*
X6939D01*
Y77903D01*
X6904D01*
Y77868D01*
X6869D01*
Y77833D01*
X6834D01*
Y77798D01*
X6799D01*
Y77763D01*
X6764D01*
Y77728D01*
X6729D01*
Y77693D01*
X4872D01*
Y77728D01*
X4802D01*
Y77763D01*
X4767D01*
Y77798D01*
X4732D01*
Y77833D01*
X4696D01*
Y77868D01*
X4661D01*
Y77974D01*
X4626D01*
Y78149D01*
X4661D01*
Y78219D01*
X4696D01*
Y78289D01*
X4732D01*
Y78324D01*
X4767D01*
Y78359D01*
X4872D01*
Y78394D01*
X6344D01*
Y78429D01*
X6449D01*
Y78464D01*
X6484D01*
Y78499D01*
X6519D01*
Y78534D01*
X6554D01*
Y78569D01*
X6589D01*
Y78604D01*
X6624D01*
Y78639D01*
X6659D01*
Y78674D01*
X6694D01*
Y78709D01*
X6729D01*
Y78745D01*
X6764D01*
Y78815D01*
X6729D01*
Y79515D01*
X6694D01*
Y79550D01*
X6659D01*
Y79585D01*
X6624D01*
Y79621D01*
X6589D01*
Y79656D01*
X6554D01*
Y79691D01*
X6519D01*
Y79726D01*
X6484D01*
Y79761D01*
X6449D01*
Y79796D01*
X4872D01*
Y79831D01*
X4802D01*
Y79866D01*
X4767D01*
Y79901D01*
X4732D01*
Y79936D01*
X4696D01*
Y79971D01*
X4661D01*
Y80076D01*
X4626D01*
Y80146D01*
X4591D01*
Y80181D01*
X4626D01*
Y80251D01*
X4661D01*
Y80357D01*
X4696D01*
Y80392D01*
X4732D01*
Y80427D01*
X4767D01*
Y80462D01*
X4837D01*
Y80497D01*
X4907D01*
Y80532D01*
X6519D01*
Y80567D01*
X6589D01*
Y80532D01*
D02*
G37*
G36*
X7255Y77308D02*
X7290D01*
Y77273D01*
X7360D01*
Y77238D01*
X7395D01*
Y77167D01*
X7430D01*
Y77097D01*
X7465D01*
Y76957D01*
X7430D01*
Y76887D01*
X7465D01*
Y76817D01*
X7745D01*
Y76782D01*
X7815D01*
Y76747D01*
X7850D01*
Y76712D01*
X7886D01*
Y76677D01*
X7920D01*
Y76642D01*
X7956D01*
Y76291D01*
X7920D01*
Y76256D01*
X7886D01*
Y76221D01*
X7850D01*
Y76186D01*
X7780D01*
Y76151D01*
X7745D01*
Y76116D01*
X7465D01*
Y76046D01*
X7430D01*
Y75976D01*
X7465D01*
Y75836D01*
X7430D01*
Y75766D01*
X7395D01*
Y75731D01*
X7360D01*
Y75661D01*
X7290D01*
Y75625D01*
X7255D01*
Y75590D01*
X6904D01*
Y75625D01*
X6869D01*
Y75661D01*
X6834D01*
Y75696D01*
X6799D01*
Y75731D01*
X6764D01*
Y75836D01*
X6729D01*
Y76081D01*
X6694D01*
Y76116D01*
X5678D01*
Y76081D01*
X5608D01*
Y76046D01*
X5573D01*
Y76011D01*
X5537D01*
Y75976D01*
X5503D01*
Y75941D01*
X5467D01*
Y75906D01*
X5432D01*
Y75871D01*
X5397D01*
Y75836D01*
X5362D01*
Y75801D01*
X5327D01*
Y75766D01*
X5292D01*
Y75731D01*
X5257D01*
Y75696D01*
X5222D01*
Y75661D01*
X5152D01*
Y75625D01*
X5117D01*
Y75590D01*
X4837D01*
Y75625D01*
X4802D01*
Y75661D01*
X4767D01*
Y75696D01*
X4732D01*
Y75731D01*
X4696D01*
Y75766D01*
X4661D01*
Y75871D01*
X4626D01*
Y76011D01*
X4661D01*
Y76116D01*
X4696D01*
Y76151D01*
X4732D01*
Y76186D01*
X4767D01*
Y76256D01*
X4837D01*
Y76326D01*
X4872D01*
Y76362D01*
X4942D01*
Y76432D01*
X5012D01*
Y76502D01*
X5082D01*
Y76572D01*
X5117D01*
Y76607D01*
X5152D01*
Y76642D01*
X5187D01*
Y76677D01*
X5222D01*
Y76712D01*
X5257D01*
Y76747D01*
X5327D01*
Y76782D01*
X5397D01*
Y76817D01*
X6659D01*
Y76852D01*
X6694D01*
Y76887D01*
X6729D01*
Y77097D01*
X6764D01*
Y77202D01*
X6799D01*
Y77238D01*
X6834D01*
Y77273D01*
X6869D01*
Y77308D01*
X6904D01*
Y77343D01*
X7255D01*
Y77308D01*
D02*
G37*
%LPC*%
G36*
X6449Y82985D02*
X5643D01*
Y82950D01*
X5608D01*
Y82915D01*
X5573D01*
Y82880D01*
X5537D01*
Y82845D01*
X5503D01*
Y82810D01*
X5467D01*
Y82775D01*
X5432D01*
Y82740D01*
X5397D01*
Y82705D01*
X5362D01*
Y82599D01*
X5327D01*
Y81618D01*
X5362D01*
Y81583D01*
X6729D01*
Y82214D01*
Y82249D01*
Y82529D01*
X6764D01*
Y82599D01*
X6729D01*
Y82669D01*
X6694D01*
Y82740D01*
X6659D01*
Y82775D01*
X6624D01*
Y82810D01*
X6589D01*
Y82845D01*
X6554D01*
Y82880D01*
X6519D01*
Y82915D01*
X6484D01*
Y82950D01*
X6449D01*
Y82985D01*
D02*
G37*
%LPD*%
G36*
X8144Y72619D02*
X8331D01*
Y72600D01*
X8462D01*
Y72581D01*
X8575D01*
Y72562D01*
X8669D01*
Y72544D01*
X8762D01*
Y72525D01*
X8856D01*
Y72506D01*
X8931D01*
Y72487D01*
X9006D01*
Y72469D01*
X9063D01*
Y72450D01*
X9138D01*
Y72431D01*
X9194D01*
Y72413D01*
X9250D01*
Y72394D01*
X9306D01*
Y72375D01*
X9363D01*
Y72356D01*
X9419D01*
Y72338D01*
X9456D01*
Y72319D01*
X9512D01*
Y72300D01*
X9550D01*
Y72281D01*
X9606D01*
Y72263D01*
X9644D01*
Y72244D01*
X9681D01*
Y72225D01*
X9737D01*
Y72206D01*
X9775D01*
Y72188D01*
X9813D01*
Y72169D01*
X9850D01*
Y72150D01*
X9888D01*
Y72131D01*
X9925D01*
Y72113D01*
X9962D01*
Y72094D01*
X10000D01*
Y72075D01*
X10037D01*
Y72056D01*
X10075D01*
Y72038D01*
X10113D01*
Y72019D01*
X10131D01*
Y72000D01*
X10169D01*
Y71981D01*
X10206D01*
Y71962D01*
X10244D01*
Y71944D01*
X10262D01*
Y71925D01*
X10300D01*
Y71906D01*
X10319D01*
Y71887D01*
X10356D01*
Y71869D01*
X10394D01*
Y71850D01*
X10413D01*
Y71831D01*
X10450D01*
Y71812D01*
X10469D01*
Y71794D01*
X10506D01*
Y71775D01*
X10525D01*
Y71756D01*
X10544D01*
Y71737D01*
X10581D01*
Y71719D01*
X10600D01*
Y71700D01*
X10638D01*
Y71681D01*
X10656D01*
Y71662D01*
X10675D01*
Y71644D01*
X10712D01*
Y71625D01*
X10731D01*
Y71606D01*
X10750D01*
Y71588D01*
X10769D01*
Y71569D01*
X10806D01*
Y71550D01*
X10825D01*
Y71531D01*
X10844D01*
Y71513D01*
X10863D01*
Y71494D01*
X10900D01*
Y71475D01*
X10919D01*
Y71456D01*
X10938D01*
Y71438D01*
X10956D01*
Y71419D01*
X10975D01*
Y71400D01*
X10994D01*
Y71381D01*
X11012D01*
Y71363D01*
X11031D01*
Y71344D01*
X11069D01*
Y71325D01*
X11088D01*
Y71306D01*
X11106D01*
Y71288D01*
X11125D01*
Y71269D01*
X11144D01*
Y71250D01*
X11163D01*
Y71231D01*
X11181D01*
Y71213D01*
X11200D01*
Y71194D01*
X11219D01*
Y71175D01*
X11237D01*
Y71156D01*
X11256D01*
Y71137D01*
X11275D01*
Y71119D01*
X11294D01*
Y71100D01*
X11312D01*
Y71062D01*
X11331D01*
Y71044D01*
X11350D01*
Y71025D01*
X11369D01*
Y71006D01*
X11388D01*
Y70987D01*
X11406D01*
Y70969D01*
X11425D01*
Y70950D01*
X11444D01*
Y70931D01*
X11462D01*
Y70894D01*
X11481D01*
Y70875D01*
X11500D01*
Y70856D01*
X11519D01*
Y70837D01*
X11537D01*
Y70819D01*
X11556D01*
Y70781D01*
X11575D01*
Y70762D01*
X11594D01*
Y70744D01*
X11613D01*
Y70706D01*
X11631D01*
Y70688D01*
X11650D01*
Y70669D01*
X11669D01*
Y70631D01*
X11688D01*
Y70613D01*
X11706D01*
Y70594D01*
X11725D01*
Y70556D01*
X11744D01*
Y70538D01*
X11762D01*
Y70500D01*
X11781D01*
Y70481D01*
X11800D01*
Y70444D01*
X11819D01*
Y70425D01*
X11838D01*
Y70388D01*
X11856D01*
Y70369D01*
X11875D01*
Y70331D01*
X11894D01*
Y70294D01*
X11913D01*
Y70275D01*
X11931D01*
Y70237D01*
X11950D01*
Y70200D01*
X11969D01*
Y70181D01*
X11987D01*
Y70144D01*
X12006D01*
Y70106D01*
X12025D01*
Y70069D01*
X12044D01*
Y70031D01*
X12062D01*
Y70012D01*
X12081D01*
Y69975D01*
X12100D01*
Y69937D01*
X12119D01*
Y69900D01*
X12138D01*
Y69844D01*
X12156D01*
Y69806D01*
X12175D01*
Y69769D01*
X12194D01*
Y69731D01*
X12212D01*
Y69694D01*
X12231D01*
Y69638D01*
X12250D01*
Y69600D01*
X12269D01*
Y69544D01*
X12287D01*
Y69506D01*
X12306D01*
Y69450D01*
X12325D01*
Y69394D01*
X12344D01*
Y69337D01*
X12363D01*
Y69281D01*
X12381D01*
Y69225D01*
X12400D01*
Y69169D01*
X12419D01*
Y69112D01*
X12438D01*
Y69037D01*
X12456D01*
Y68963D01*
X12475D01*
Y68888D01*
X12494D01*
Y68813D01*
X12513D01*
Y68719D01*
X12531D01*
Y68625D01*
X12550D01*
Y68512D01*
X12569D01*
Y68362D01*
X12587D01*
Y68194D01*
X12606D01*
Y67331D01*
X12587D01*
Y67163D01*
X12569D01*
Y67013D01*
X12550D01*
Y66900D01*
X12531D01*
Y66806D01*
X12513D01*
Y66712D01*
X12494D01*
Y66637D01*
X12475D01*
Y66562D01*
X12456D01*
Y66487D01*
X12438D01*
Y66413D01*
X12419D01*
Y66356D01*
X12400D01*
Y66300D01*
X12381D01*
Y66244D01*
X12363D01*
Y66188D01*
X12344D01*
Y66131D01*
X12325D01*
Y66075D01*
X12306D01*
Y66019D01*
X12287D01*
Y65981D01*
X12269D01*
Y65925D01*
X12250D01*
Y65887D01*
X12231D01*
Y65831D01*
X12212D01*
Y65794D01*
X12194D01*
Y65756D01*
X12175D01*
Y65719D01*
X12156D01*
Y65681D01*
X12138D01*
Y65625D01*
X12119D01*
Y65588D01*
X12100D01*
Y65550D01*
X12081D01*
Y65513D01*
X12062D01*
Y65494D01*
X12044D01*
Y65456D01*
X12025D01*
Y65419D01*
X12006D01*
Y65381D01*
X11987D01*
Y65344D01*
X11969D01*
Y65325D01*
X11950D01*
Y65288D01*
X11931D01*
Y65250D01*
X11913D01*
Y65231D01*
X11894D01*
Y65194D01*
X11875D01*
Y65156D01*
X11856D01*
Y65137D01*
X11838D01*
Y65100D01*
X11819D01*
Y65081D01*
X11800D01*
Y65044D01*
X11781D01*
Y65025D01*
X11762D01*
Y64987D01*
X11744D01*
Y64969D01*
X11725D01*
Y64931D01*
X11706D01*
Y64912D01*
X11688D01*
Y64894D01*
X11669D01*
Y64856D01*
X11650D01*
Y64837D01*
X11631D01*
Y64819D01*
X11613D01*
Y64781D01*
X11594D01*
Y64763D01*
X11575D01*
Y64744D01*
X11556D01*
Y64706D01*
X11537D01*
Y64688D01*
X11519D01*
Y64669D01*
X11500D01*
Y64650D01*
X11481D01*
Y64631D01*
X11462D01*
Y64594D01*
X11444D01*
Y64575D01*
X11425D01*
Y64556D01*
X11406D01*
Y64538D01*
X11388D01*
Y64519D01*
X11369D01*
Y64500D01*
X11350D01*
Y64481D01*
X11331D01*
Y64463D01*
X11312D01*
Y64425D01*
X11294D01*
Y64406D01*
X11275D01*
Y64388D01*
X11256D01*
Y64369D01*
X11237D01*
Y64350D01*
X11219D01*
Y64331D01*
X11200D01*
Y64312D01*
X11181D01*
Y64294D01*
X11163D01*
Y64275D01*
X11144D01*
Y64256D01*
X11125D01*
Y64237D01*
X11106D01*
Y64219D01*
X11088D01*
Y64200D01*
X11069D01*
Y64181D01*
X11031D01*
Y64162D01*
X11012D01*
Y64144D01*
X10994D01*
Y64125D01*
X10975D01*
Y64106D01*
X10956D01*
Y64087D01*
X10938D01*
Y64069D01*
X10919D01*
Y64050D01*
X10900D01*
Y64031D01*
X10863D01*
Y64012D01*
X10844D01*
Y63994D01*
X10825D01*
Y63975D01*
X10806D01*
Y63956D01*
X10769D01*
Y63937D01*
X10750D01*
Y63919D01*
X10731D01*
Y63900D01*
X10712D01*
Y63881D01*
X10675D01*
Y63863D01*
X10656D01*
Y63844D01*
X10638D01*
Y63825D01*
X10600D01*
Y63806D01*
X10581D01*
Y63788D01*
X10544D01*
Y63769D01*
X10525D01*
Y63750D01*
X10506D01*
Y63731D01*
X10469D01*
Y63713D01*
X10450D01*
Y63694D01*
X10413D01*
Y63675D01*
X10394D01*
Y63656D01*
X10356D01*
Y63638D01*
X10319D01*
Y63619D01*
X10300D01*
Y63600D01*
X10262D01*
Y63581D01*
X10244D01*
Y63563D01*
X10206D01*
Y63544D01*
X10169D01*
Y63525D01*
X10131D01*
Y63506D01*
X10113D01*
Y63487D01*
X10075D01*
Y63469D01*
X10037D01*
Y63450D01*
X10000D01*
Y63431D01*
X9962D01*
Y63412D01*
X9925D01*
Y63394D01*
X9888D01*
Y63375D01*
X9850D01*
Y63356D01*
X9813D01*
Y63337D01*
X9775D01*
Y63319D01*
X9737D01*
Y63300D01*
X9700D01*
Y63281D01*
X9644D01*
Y63262D01*
X9606D01*
Y63244D01*
X9550D01*
Y63225D01*
X9512D01*
Y63206D01*
X9456D01*
Y63187D01*
X9419D01*
Y63169D01*
X9363D01*
Y63150D01*
X9306D01*
Y63131D01*
X9250D01*
Y63112D01*
X9194D01*
Y63094D01*
X9138D01*
Y63075D01*
X9063D01*
Y63056D01*
X9006D01*
Y63038D01*
X8931D01*
Y63019D01*
X8856D01*
Y63000D01*
X8762D01*
Y62981D01*
X8669D01*
Y62963D01*
X8575D01*
Y62944D01*
X8462D01*
Y62925D01*
X8331D01*
Y62906D01*
X8144D01*
Y62888D01*
X7281D01*
Y62906D01*
X7094D01*
Y62925D01*
X6962D01*
Y62944D01*
X6850D01*
Y62963D01*
X6756D01*
Y62981D01*
X6662D01*
Y63000D01*
X6569D01*
Y63019D01*
X6494D01*
Y63038D01*
X6419D01*
Y63056D01*
X6363D01*
Y63075D01*
X6288D01*
Y63094D01*
X6231D01*
Y63112D01*
X6175D01*
Y63131D01*
X6119D01*
Y63150D01*
X6063D01*
Y63169D01*
X6006D01*
Y63187D01*
X5969D01*
Y63206D01*
X5912D01*
Y63225D01*
X5875D01*
Y63244D01*
X5819D01*
Y63262D01*
X5781D01*
Y63281D01*
X5725D01*
Y63300D01*
X5688D01*
Y63319D01*
X5650D01*
Y63337D01*
X5613D01*
Y63356D01*
X5575D01*
Y63375D01*
X5537D01*
Y63394D01*
X5500D01*
Y63412D01*
X5463D01*
Y63431D01*
X5425D01*
Y63450D01*
X5387D01*
Y63469D01*
X5350D01*
Y63487D01*
X5313D01*
Y63506D01*
X5294D01*
Y63525D01*
X5256D01*
Y63544D01*
X5219D01*
Y63563D01*
X5181D01*
Y63581D01*
X5162D01*
Y63600D01*
X5125D01*
Y63619D01*
X5088D01*
Y63638D01*
X5069D01*
Y63656D01*
X5031D01*
Y63675D01*
X5012D01*
Y63694D01*
X4975D01*
Y63713D01*
X4956D01*
Y63731D01*
X4919D01*
Y63750D01*
X4900D01*
Y63769D01*
X4881D01*
Y63788D01*
X4844D01*
Y63806D01*
X4825D01*
Y63825D01*
X4787D01*
Y63844D01*
X4769D01*
Y63863D01*
X4750D01*
Y63881D01*
X4713D01*
Y63900D01*
X4694D01*
Y63919D01*
X4675D01*
Y63937D01*
X4656D01*
Y63956D01*
X4619D01*
Y63975D01*
X4600D01*
Y63994D01*
X4581D01*
Y64012D01*
X4563D01*
Y64031D01*
X4525D01*
Y64050D01*
X4506D01*
Y64069D01*
X4487D01*
Y64087D01*
X4469D01*
Y64106D01*
X4450D01*
Y64125D01*
X4431D01*
Y64144D01*
X4412D01*
Y64162D01*
X4394D01*
Y64181D01*
X4356D01*
Y64200D01*
X4338D01*
Y64219D01*
X4319D01*
Y64237D01*
X4300D01*
Y64256D01*
X4281D01*
Y64275D01*
X4262D01*
Y64294D01*
X4244D01*
Y64312D01*
X4225D01*
Y64331D01*
X4206D01*
Y64350D01*
X4188D01*
Y64369D01*
X4169D01*
Y64388D01*
X4150D01*
Y64406D01*
X4131D01*
Y64425D01*
X4112D01*
Y64444D01*
X4094D01*
Y64481D01*
X4075D01*
Y64500D01*
X4056D01*
Y64519D01*
X4038D01*
Y64538D01*
X4019D01*
Y64556D01*
X4000D01*
Y64575D01*
X3981D01*
Y64594D01*
X3963D01*
Y64631D01*
X3944D01*
Y64650D01*
X3925D01*
Y64669D01*
X3906D01*
Y64688D01*
X3887D01*
Y64706D01*
X3869D01*
Y64744D01*
X3850D01*
Y64763D01*
X3831D01*
Y64781D01*
X3813D01*
Y64819D01*
X3794D01*
Y64837D01*
X3775D01*
Y64856D01*
X3756D01*
Y64894D01*
X3737D01*
Y64912D01*
X3719D01*
Y64931D01*
X3700D01*
Y64969D01*
X3681D01*
Y64987D01*
X3663D01*
Y65025D01*
X3644D01*
Y65044D01*
X3625D01*
Y65081D01*
X3606D01*
Y65100D01*
X3588D01*
Y65137D01*
X3569D01*
Y65156D01*
X3550D01*
Y65194D01*
X3531D01*
Y65213D01*
X3512D01*
Y65250D01*
X3494D01*
Y65288D01*
X3475D01*
Y65325D01*
X3456D01*
Y65344D01*
X3438D01*
Y65381D01*
X3419D01*
Y65419D01*
X3400D01*
Y65456D01*
X3381D01*
Y65494D01*
X3362D01*
Y65513D01*
X3344D01*
Y65550D01*
X3325D01*
Y65588D01*
X3306D01*
Y65625D01*
X3288D01*
Y65662D01*
X3269D01*
Y65719D01*
X3250D01*
Y65756D01*
X3231D01*
Y65794D01*
X3212D01*
Y65831D01*
X3194D01*
Y65887D01*
X3175D01*
Y65925D01*
X3156D01*
Y65981D01*
X3137D01*
Y66019D01*
X3119D01*
Y66075D01*
X3100D01*
Y66131D01*
X3081D01*
Y66169D01*
X3063D01*
Y66225D01*
X3044D01*
Y66300D01*
X3025D01*
Y66356D01*
X3006D01*
Y66413D01*
X2987D01*
Y66487D01*
X2969D01*
Y66562D01*
X2950D01*
Y66637D01*
X2931D01*
Y66712D01*
X2912D01*
Y66806D01*
X2894D01*
Y66900D01*
X2875D01*
Y67013D01*
X2856D01*
Y67144D01*
X2837D01*
Y67331D01*
X2819D01*
Y68194D01*
X2837D01*
Y68381D01*
X2856D01*
Y68512D01*
X2875D01*
Y68625D01*
X2894D01*
Y68719D01*
X2912D01*
Y68813D01*
X2931D01*
Y68888D01*
X2950D01*
Y68963D01*
X2969D01*
Y69037D01*
X2987D01*
Y69112D01*
X3006D01*
Y69169D01*
X3025D01*
Y69225D01*
X3044D01*
Y69300D01*
X3063D01*
Y69356D01*
X3081D01*
Y69394D01*
X3100D01*
Y69450D01*
X3119D01*
Y69506D01*
X3137D01*
Y69544D01*
X3156D01*
Y69600D01*
X3175D01*
Y69638D01*
X3194D01*
Y69694D01*
X3212D01*
Y69731D01*
X3231D01*
Y69769D01*
X3250D01*
Y69806D01*
X3269D01*
Y69844D01*
X3288D01*
Y69900D01*
X3306D01*
Y69937D01*
X3325D01*
Y69975D01*
X3344D01*
Y70012D01*
X3362D01*
Y70031D01*
X3381D01*
Y70069D01*
X3400D01*
Y70106D01*
X3419D01*
Y70144D01*
X3438D01*
Y70181D01*
X3456D01*
Y70200D01*
X3475D01*
Y70237D01*
X3494D01*
Y70275D01*
X3512D01*
Y70312D01*
X3531D01*
Y70331D01*
X3550D01*
Y70369D01*
X3569D01*
Y70388D01*
X3588D01*
Y70425D01*
X3606D01*
Y70444D01*
X3625D01*
Y70481D01*
X3644D01*
Y70500D01*
X3663D01*
Y70538D01*
X3681D01*
Y70556D01*
X3700D01*
Y70594D01*
X3719D01*
Y70613D01*
X3737D01*
Y70631D01*
X3756D01*
Y70669D01*
X3775D01*
Y70688D01*
X3794D01*
Y70706D01*
X3813D01*
Y70744D01*
X3831D01*
Y70762D01*
X3850D01*
Y70781D01*
X3869D01*
Y70819D01*
X3887D01*
Y70837D01*
X3906D01*
Y70856D01*
X3925D01*
Y70875D01*
X3944D01*
Y70894D01*
X3963D01*
Y70931D01*
X3981D01*
Y70950D01*
X4000D01*
Y70969D01*
X4019D01*
Y70987D01*
X4038D01*
Y71006D01*
X4056D01*
Y71025D01*
X4075D01*
Y71044D01*
X4094D01*
Y71062D01*
X4112D01*
Y71100D01*
X4131D01*
Y71119D01*
X4150D01*
Y71137D01*
X4169D01*
Y71156D01*
X4188D01*
Y71175D01*
X4206D01*
Y71194D01*
X4225D01*
Y71213D01*
X4244D01*
Y71231D01*
X4262D01*
Y71250D01*
X4281D01*
Y71269D01*
X4300D01*
Y71288D01*
X4319D01*
Y71306D01*
X4338D01*
Y71325D01*
X4356D01*
Y71344D01*
X4394D01*
Y71363D01*
X4412D01*
Y71381D01*
X4431D01*
Y71400D01*
X4450D01*
Y71419D01*
X4469D01*
Y71438D01*
X4487D01*
Y71456D01*
X4506D01*
Y71475D01*
X4525D01*
Y71494D01*
X4563D01*
Y71513D01*
X4581D01*
Y71531D01*
X4600D01*
Y71550D01*
X4619D01*
Y71569D01*
X4656D01*
Y71588D01*
X4675D01*
Y71606D01*
X4694D01*
Y71625D01*
X4713D01*
Y71644D01*
X4750D01*
Y71662D01*
X4769D01*
Y71681D01*
X4787D01*
Y71700D01*
X4825D01*
Y71719D01*
X4844D01*
Y71737D01*
X4881D01*
Y71756D01*
X4900D01*
Y71775D01*
X4919D01*
Y71794D01*
X4956D01*
Y71812D01*
X4975D01*
Y71831D01*
X5012D01*
Y71850D01*
X5031D01*
Y71869D01*
X5069D01*
Y71887D01*
X5106D01*
Y71906D01*
X5125D01*
Y71925D01*
X5162D01*
Y71944D01*
X5181D01*
Y71962D01*
X5219D01*
Y71981D01*
X5256D01*
Y72000D01*
X5294D01*
Y72019D01*
X5313D01*
Y72038D01*
X5350D01*
Y72056D01*
X5387D01*
Y72075D01*
X5425D01*
Y72094D01*
X5463D01*
Y72113D01*
X5500D01*
Y72131D01*
X5537D01*
Y72150D01*
X5575D01*
Y72169D01*
X5613D01*
Y72188D01*
X5650D01*
Y72206D01*
X5688D01*
Y72225D01*
X5725D01*
Y72244D01*
X5781D01*
Y72263D01*
X5819D01*
Y72281D01*
X5875D01*
Y72300D01*
X5912D01*
Y72319D01*
X5969D01*
Y72338D01*
X6006D01*
Y72356D01*
X6063D01*
Y72375D01*
X6119D01*
Y72394D01*
X6175D01*
Y72413D01*
X6231D01*
Y72431D01*
X6288D01*
Y72450D01*
X6363D01*
Y72469D01*
X6419D01*
Y72487D01*
X6494D01*
Y72506D01*
X6569D01*
Y72525D01*
X6662D01*
Y72544D01*
X6756D01*
Y72562D01*
X6850D01*
Y72581D01*
X6962D01*
Y72600D01*
X7094D01*
Y72619D01*
X7281D01*
Y72637D01*
X8144D01*
Y72619D01*
D02*
G37*
%LPC*%
G36*
X9194Y72131D02*
X9156D01*
Y72113D01*
X9138D01*
Y72094D01*
X9100D01*
Y72075D01*
X9063D01*
Y72056D01*
X9044D01*
Y72038D01*
X9006D01*
Y72019D01*
X8987D01*
Y72000D01*
X8950D01*
Y71981D01*
X8931D01*
Y71962D01*
X8894D01*
Y71944D01*
X8856D01*
Y71925D01*
X8838D01*
Y71906D01*
X8800D01*
Y71887D01*
X8781D01*
Y71869D01*
X8744D01*
Y71850D01*
X8706D01*
Y71831D01*
X8687D01*
Y71812D01*
X8650D01*
Y71794D01*
X8631D01*
Y71775D01*
X8594D01*
Y71756D01*
X8575D01*
Y71737D01*
X8538D01*
Y71719D01*
X8500D01*
Y71700D01*
X8481D01*
Y71681D01*
X8444D01*
Y71662D01*
X8425D01*
Y71644D01*
X8388D01*
Y71625D01*
X8350D01*
Y71606D01*
X8331D01*
Y71588D01*
X8294D01*
Y71569D01*
X8275D01*
Y71550D01*
X8237D01*
Y71531D01*
X8200D01*
Y71513D01*
X8181D01*
Y71494D01*
X8144D01*
Y71475D01*
X8125D01*
Y71456D01*
X8088D01*
Y71438D01*
X8069D01*
Y71419D01*
X8031D01*
Y71400D01*
X7994D01*
Y71381D01*
X7975D01*
Y71363D01*
X7937D01*
Y71344D01*
X7919D01*
Y71325D01*
X7881D01*
Y71306D01*
X7844D01*
Y71288D01*
X7825D01*
Y71269D01*
X7788D01*
Y71250D01*
X7769D01*
Y71231D01*
X7731D01*
Y71213D01*
X7712D01*
Y71194D01*
X7675D01*
Y71175D01*
X7638D01*
Y71156D01*
X7619D01*
Y71137D01*
X7581D01*
Y71119D01*
X7563D01*
Y71100D01*
X7525D01*
Y71081D01*
X7487D01*
Y71062D01*
X7469D01*
Y71044D01*
X7431D01*
Y71025D01*
X7412D01*
Y71006D01*
X7375D01*
Y70987D01*
X7356D01*
Y70969D01*
X7319D01*
Y70950D01*
X7281D01*
Y70931D01*
X7262D01*
Y70912D01*
X7225D01*
Y70894D01*
X7206D01*
Y70875D01*
X7169D01*
Y70856D01*
X7131D01*
Y70837D01*
X7113D01*
Y70819D01*
X7075D01*
Y70800D01*
X7056D01*
Y70781D01*
X7019D01*
Y70762D01*
X7000D01*
Y70744D01*
X6962D01*
Y70725D01*
X6925D01*
Y70706D01*
X6906D01*
Y70688D01*
X6869D01*
Y70669D01*
X6850D01*
Y70650D01*
X6813D01*
Y70631D01*
X6775D01*
Y70613D01*
X6756D01*
Y70594D01*
X6719D01*
Y70575D01*
X6700D01*
Y70556D01*
X6662D01*
Y70538D01*
X6644D01*
Y70519D01*
X6606D01*
Y70500D01*
X6569D01*
Y70481D01*
X6550D01*
Y70463D01*
X6513D01*
Y70444D01*
X6494D01*
Y70425D01*
X6456D01*
Y70406D01*
X6419D01*
Y70388D01*
X6400D01*
Y70369D01*
X6363D01*
Y70350D01*
X6344D01*
Y70331D01*
X6306D01*
Y70312D01*
X6288D01*
Y70294D01*
X6250D01*
Y70275D01*
X6213D01*
Y70256D01*
X6194D01*
Y70237D01*
X6156D01*
Y70219D01*
X6137D01*
Y70200D01*
X6100D01*
Y70181D01*
X6063D01*
Y70162D01*
X6044D01*
Y70144D01*
X6006D01*
Y70125D01*
X5988D01*
Y70106D01*
X5950D01*
Y70087D01*
X5931D01*
Y70069D01*
X5894D01*
Y70050D01*
X5856D01*
Y70031D01*
X5838D01*
Y70012D01*
X5800D01*
Y69994D01*
X5781D01*
Y69975D01*
X5744D01*
Y69956D01*
X5706D01*
Y69937D01*
X5688D01*
Y69919D01*
X5650D01*
Y69900D01*
X5631D01*
Y69881D01*
X5594D01*
Y69863D01*
X5575D01*
Y69844D01*
X5537D01*
Y69825D01*
X5500D01*
Y69806D01*
X5481D01*
Y69788D01*
X5444D01*
Y69769D01*
X5425D01*
Y69750D01*
X5387D01*
Y69731D01*
X5350D01*
Y69713D01*
X5331D01*
Y69694D01*
X5294D01*
Y69675D01*
X5275D01*
Y69656D01*
X5237D01*
Y69638D01*
X5219D01*
Y69619D01*
X5181D01*
Y69600D01*
X5144D01*
Y69581D01*
X5125D01*
Y69563D01*
X5088D01*
Y69544D01*
X5069D01*
Y69525D01*
X5031D01*
Y69506D01*
X4994D01*
Y69488D01*
X4975D01*
Y69469D01*
X4938D01*
Y69450D01*
X4919D01*
Y69431D01*
X4881D01*
Y69412D01*
X4862D01*
Y69394D01*
X4825D01*
Y69375D01*
X4787D01*
Y69356D01*
X4769D01*
Y69337D01*
X4731D01*
Y69319D01*
X4713D01*
Y69300D01*
X4675D01*
Y69281D01*
X4637D01*
Y69262D01*
X4619D01*
Y69244D01*
X4581D01*
Y69225D01*
X4563D01*
Y69206D01*
X4525D01*
Y69187D01*
X4506D01*
Y69169D01*
X4487D01*
Y69150D01*
X4506D01*
Y69112D01*
X4525D01*
Y69094D01*
X4544D01*
Y69075D01*
X4563D01*
Y69056D01*
X4581D01*
Y69037D01*
X4600D01*
Y69019D01*
X4619D01*
Y69000D01*
X4637D01*
Y68981D01*
X4656D01*
Y68963D01*
X4675D01*
Y68944D01*
X4694D01*
Y68925D01*
X4713D01*
Y68888D01*
X4731D01*
Y68869D01*
X4750D01*
Y68850D01*
X4769D01*
Y68831D01*
X4787D01*
Y68813D01*
X4806D01*
Y68794D01*
X4825D01*
Y68775D01*
X4844D01*
Y68756D01*
X4862D01*
Y68738D01*
X4881D01*
Y68719D01*
X4900D01*
Y68700D01*
X4919D01*
Y68663D01*
X4938D01*
Y68644D01*
X4956D01*
Y68625D01*
X4975D01*
Y68606D01*
X4994D01*
Y68587D01*
X5012D01*
Y68569D01*
X5031D01*
Y68550D01*
X5050D01*
Y68531D01*
X5069D01*
Y68512D01*
X5088D01*
Y68494D01*
X5106D01*
Y68475D01*
X5125D01*
Y68437D01*
X5144D01*
Y68419D01*
X5162D01*
Y68400D01*
X5181D01*
Y68381D01*
X5200D01*
Y68362D01*
X5219D01*
Y68344D01*
X5237D01*
Y68325D01*
X5256D01*
Y68306D01*
X5275D01*
Y68287D01*
X5294D01*
Y68269D01*
X5313D01*
Y68231D01*
X5331D01*
Y68212D01*
X5350D01*
Y68194D01*
X5369D01*
Y68175D01*
X5387D01*
Y68156D01*
X5406D01*
Y68138D01*
X5425D01*
Y68119D01*
X5444D01*
Y68100D01*
X5463D01*
Y68081D01*
X5481D01*
Y68063D01*
X5500D01*
Y68044D01*
X5519D01*
Y68006D01*
X5537D01*
Y67988D01*
X5556D01*
Y67969D01*
X5575D01*
Y67950D01*
X5594D01*
Y67931D01*
X5613D01*
Y67913D01*
X5631D01*
Y67894D01*
X5650D01*
Y67875D01*
X5669D01*
Y67856D01*
X5688D01*
Y67838D01*
X5706D01*
Y67819D01*
X5725D01*
Y67781D01*
X5744D01*
Y67763D01*
X5762D01*
Y67744D01*
X5781D01*
Y67725D01*
X5800D01*
Y67706D01*
X5819D01*
Y67687D01*
X5838D01*
Y67669D01*
X5856D01*
Y67650D01*
X5875D01*
Y67631D01*
X5894D01*
Y67612D01*
X5912D01*
Y67594D01*
X5931D01*
Y67556D01*
X5950D01*
Y67537D01*
X5969D01*
Y67519D01*
X5988D01*
Y67500D01*
X6006D01*
Y67481D01*
X6025D01*
Y67462D01*
X6044D01*
Y67444D01*
X6063D01*
Y67462D01*
X6100D01*
Y67481D01*
X6119D01*
Y67500D01*
X6156D01*
Y67519D01*
X6175D01*
Y67537D01*
X6213D01*
Y67556D01*
X6231D01*
Y67575D01*
X6269D01*
Y67594D01*
X6306D01*
Y67612D01*
X6325D01*
Y67631D01*
X6363D01*
Y67650D01*
X6381D01*
Y67669D01*
X6419D01*
Y67687D01*
X6437D01*
Y67706D01*
X6475D01*
Y67725D01*
X6494D01*
Y67744D01*
X6531D01*
Y67763D01*
X6550D01*
Y67781D01*
X6588D01*
Y67800D01*
X6606D01*
Y67819D01*
X6644D01*
Y67838D01*
X6681D01*
Y67856D01*
X6662D01*
Y67875D01*
X6644D01*
Y67894D01*
X6625D01*
Y67913D01*
X6606D01*
Y67950D01*
X6588D01*
Y67969D01*
X6569D01*
Y67988D01*
X6550D01*
Y68006D01*
X6531D01*
Y68025D01*
X6513D01*
Y68044D01*
X6494D01*
Y68063D01*
X6475D01*
Y68081D01*
X6456D01*
Y68100D01*
X6437D01*
Y68119D01*
X6419D01*
Y68138D01*
X6400D01*
Y68156D01*
X6381D01*
Y68175D01*
X6363D01*
Y68194D01*
X6344D01*
Y68212D01*
X6325D01*
Y68231D01*
X6306D01*
Y68250D01*
X6288D01*
Y68269D01*
X6269D01*
Y68306D01*
X6250D01*
Y68325D01*
X6231D01*
Y68344D01*
X6213D01*
Y68362D01*
X6194D01*
Y68381D01*
X6175D01*
Y68400D01*
X6156D01*
Y68419D01*
X6137D01*
Y68437D01*
X6119D01*
Y68456D01*
X6100D01*
Y68475D01*
X6081D01*
Y68494D01*
X6063D01*
Y68512D01*
X6044D01*
Y68531D01*
X6025D01*
Y68550D01*
X6006D01*
Y68569D01*
X5988D01*
Y68587D01*
X5969D01*
Y68606D01*
X5950D01*
Y68644D01*
X5931D01*
Y68663D01*
X5912D01*
Y68681D01*
X5894D01*
Y68700D01*
X5875D01*
Y68719D01*
X5856D01*
Y68738D01*
X5838D01*
Y68756D01*
X5819D01*
Y68775D01*
X5800D01*
Y68794D01*
X5781D01*
Y68813D01*
X5762D01*
Y68831D01*
X5744D01*
Y68850D01*
X5725D01*
Y68869D01*
X5706D01*
Y68925D01*
X5744D01*
Y68944D01*
X5762D01*
Y68963D01*
X5800D01*
Y68981D01*
X5819D01*
Y69000D01*
X5856D01*
Y69019D01*
X5894D01*
Y69037D01*
X5912D01*
Y69056D01*
X5950D01*
Y69075D01*
X5969D01*
Y69094D01*
X6006D01*
Y69112D01*
X6025D01*
Y69131D01*
X6063D01*
Y69150D01*
X6100D01*
Y69169D01*
X6119D01*
Y69187D01*
X6156D01*
Y69206D01*
X6175D01*
Y69225D01*
X6213D01*
Y69244D01*
X6231D01*
Y69262D01*
X6269D01*
Y69281D01*
X6306D01*
Y69300D01*
X6325D01*
Y69319D01*
X6363D01*
Y69337D01*
X6381D01*
Y69356D01*
X6419D01*
Y69375D01*
X6437D01*
Y69394D01*
X6475D01*
Y69412D01*
X6513D01*
Y69431D01*
X6531D01*
Y69450D01*
X6569D01*
Y69469D01*
X6588D01*
Y69488D01*
X6625D01*
Y69506D01*
X6644D01*
Y69525D01*
X6681D01*
Y69544D01*
X6719D01*
Y69563D01*
X6737D01*
Y69581D01*
X6775D01*
Y69600D01*
X6794D01*
Y69619D01*
X6831D01*
Y69638D01*
X6869D01*
Y69656D01*
X6887D01*
Y69675D01*
X6925D01*
Y69694D01*
X6944D01*
Y69713D01*
X6981D01*
Y69731D01*
X7000D01*
Y69750D01*
X7038D01*
Y69769D01*
X7075D01*
Y69788D01*
X7094D01*
Y69806D01*
X7131D01*
Y69825D01*
X7150D01*
Y69844D01*
X7187D01*
Y69863D01*
X7206D01*
Y69881D01*
X7244D01*
Y69900D01*
X7281D01*
Y69919D01*
X7300D01*
Y69937D01*
X7338D01*
Y69956D01*
X7356D01*
Y69975D01*
X7394D01*
Y69994D01*
X7412D01*
Y70012D01*
X7450D01*
Y70031D01*
X7487D01*
Y70050D01*
X7506D01*
Y70069D01*
X7544D01*
Y70087D01*
X7563D01*
Y70106D01*
X7600D01*
Y70125D01*
X7619D01*
Y70144D01*
X7656D01*
Y70162D01*
X7694D01*
Y70181D01*
X7712D01*
Y70200D01*
X7750D01*
Y70219D01*
X7769D01*
Y70237D01*
X7806D01*
Y70256D01*
X7825D01*
Y70275D01*
X7863D01*
Y70294D01*
X7900D01*
Y70312D01*
X7919D01*
Y70331D01*
X7956D01*
Y70350D01*
X7975D01*
Y70369D01*
X8012D01*
Y70388D01*
X8031D01*
Y70406D01*
X8069D01*
Y70425D01*
X8106D01*
Y70444D01*
X8125D01*
Y70463D01*
X8162D01*
Y70481D01*
X8181D01*
Y70500D01*
X8219D01*
Y70519D01*
X8256D01*
Y70538D01*
X8275D01*
Y70556D01*
X8313D01*
Y70538D01*
X8350D01*
Y68906D01*
X8369D01*
Y68925D01*
X8388D01*
Y68944D01*
X8425D01*
Y68963D01*
X8444D01*
Y68981D01*
X8481D01*
Y69000D01*
X8519D01*
Y69019D01*
X8538D01*
Y69037D01*
X8575D01*
Y69056D01*
X8613D01*
Y69075D01*
X8631D01*
Y69094D01*
X8669D01*
Y69112D01*
X8706D01*
Y69131D01*
X8725D01*
Y69150D01*
X8762D01*
Y69169D01*
X8800D01*
Y69187D01*
X8819D01*
Y69206D01*
X8856D01*
Y69225D01*
X8894D01*
Y69244D01*
X8912D01*
Y69262D01*
X8950D01*
Y69281D01*
X8969D01*
Y69300D01*
X9006D01*
Y69319D01*
X9044D01*
Y69337D01*
X9063D01*
Y69356D01*
X9100D01*
Y69375D01*
X9138D01*
Y69394D01*
X9156D01*
Y69412D01*
X9194D01*
Y72131D01*
D02*
G37*
G36*
X9212Y68981D02*
X9194D01*
Y68963D01*
X9156D01*
Y68944D01*
X9138D01*
Y68925D01*
X9100D01*
Y68906D01*
X9063D01*
Y68888D01*
X9044D01*
Y68869D01*
X9006D01*
Y68850D01*
X8987D01*
Y68831D01*
X8950D01*
Y68813D01*
X8931D01*
Y68794D01*
X8894D01*
Y68775D01*
X8856D01*
Y68756D01*
X8838D01*
Y68738D01*
X8800D01*
Y68719D01*
X8781D01*
Y68700D01*
X8744D01*
Y68681D01*
X8725D01*
Y68663D01*
X8687D01*
Y68644D01*
X8650D01*
Y68625D01*
X8631D01*
Y68606D01*
X8594D01*
Y68587D01*
X8575D01*
Y68569D01*
X8538D01*
Y68550D01*
X8519D01*
Y68531D01*
X8481D01*
Y68512D01*
X8444D01*
Y68494D01*
X8425D01*
Y68475D01*
X8388D01*
Y68456D01*
X8369D01*
Y68437D01*
X8331D01*
Y68419D01*
X8313D01*
Y68400D01*
X8275D01*
Y68381D01*
X8237D01*
Y68362D01*
X8219D01*
Y68344D01*
X8181D01*
Y68325D01*
X8162D01*
Y68306D01*
X8125D01*
Y68287D01*
X8106D01*
Y68269D01*
X8069D01*
Y68250D01*
X8031D01*
Y68231D01*
X8012D01*
Y68212D01*
X7975D01*
Y68194D01*
X7956D01*
Y68175D01*
X7919D01*
Y68156D01*
X7900D01*
Y68138D01*
X7863D01*
Y68119D01*
X7825D01*
Y68100D01*
X7806D01*
Y68081D01*
X7769D01*
Y68063D01*
X7750D01*
Y68044D01*
X7712D01*
Y68025D01*
X7675D01*
Y68006D01*
X7656D01*
Y67988D01*
X7619D01*
Y67969D01*
X7600D01*
Y67950D01*
X7563D01*
Y67931D01*
X7544D01*
Y67913D01*
X7506D01*
Y67894D01*
X7469D01*
Y67875D01*
X7450D01*
Y67856D01*
X7412D01*
Y67838D01*
X7394D01*
Y67819D01*
X7356D01*
Y67800D01*
X7338D01*
Y67781D01*
X7300D01*
Y67763D01*
X7262D01*
Y67744D01*
X7244D01*
Y67725D01*
X7206D01*
Y67706D01*
X7187D01*
Y67687D01*
X7150D01*
Y67669D01*
X7131D01*
Y67650D01*
X7094D01*
Y67631D01*
X7056D01*
Y67612D01*
X7038D01*
Y67594D01*
X7000D01*
Y67575D01*
X6981D01*
Y67556D01*
X6944D01*
Y67537D01*
X6925D01*
Y67519D01*
X6887D01*
Y67500D01*
X6850D01*
Y67481D01*
X6831D01*
Y67462D01*
X6794D01*
Y67444D01*
X6775D01*
Y67425D01*
X6737D01*
Y67406D01*
X6719D01*
Y67387D01*
X6681D01*
Y67369D01*
X6644D01*
Y67350D01*
X6625D01*
Y67331D01*
X6588D01*
Y67313D01*
X6569D01*
Y67294D01*
X6531D01*
Y67275D01*
X6513D01*
Y67256D01*
X6475D01*
Y67238D01*
X6437D01*
Y67219D01*
X6419D01*
Y67200D01*
X6381D01*
Y67181D01*
X6363D01*
Y67163D01*
X6325D01*
Y67144D01*
X6306D01*
Y67125D01*
X6269D01*
Y67106D01*
X6231D01*
Y67088D01*
X6213D01*
Y67069D01*
X6175D01*
Y67050D01*
X6156D01*
Y67031D01*
X6119D01*
Y67013D01*
X6081D01*
Y66994D01*
X6063D01*
Y66975D01*
X6025D01*
Y66956D01*
X6006D01*
Y66938D01*
X5969D01*
Y66919D01*
X5950D01*
Y66900D01*
X5912D01*
Y66881D01*
X5875D01*
Y66862D01*
X5856D01*
Y66844D01*
X5819D01*
Y66825D01*
X5800D01*
Y66806D01*
X5762D01*
Y66787D01*
X5744D01*
Y66769D01*
X5706D01*
Y66750D01*
X5669D01*
Y66731D01*
X5650D01*
Y66712D01*
X5613D01*
Y66694D01*
X5594D01*
Y66675D01*
X5556D01*
Y66656D01*
X5537D01*
Y66637D01*
X5500D01*
Y66619D01*
X5463D01*
Y66600D01*
X5444D01*
Y66581D01*
X5406D01*
Y66562D01*
X5387D01*
Y66544D01*
X5350D01*
Y66525D01*
X5331D01*
Y66506D01*
X5294D01*
Y66487D01*
X5256D01*
Y66469D01*
X5237D01*
Y66450D01*
X5200D01*
Y66431D01*
X5181D01*
Y66413D01*
X5144D01*
Y66394D01*
X5125D01*
Y66375D01*
X5088D01*
Y66356D01*
X5050D01*
Y66338D01*
X5031D01*
Y66319D01*
X4994D01*
Y66300D01*
X4975D01*
Y66281D01*
X4938D01*
Y66263D01*
X4919D01*
Y66244D01*
X4881D01*
Y66225D01*
X4844D01*
Y66206D01*
X4825D01*
Y66188D01*
X4787D01*
Y66169D01*
X4769D01*
Y66150D01*
X4731D01*
Y66131D01*
X4713D01*
Y66113D01*
X4675D01*
Y66094D01*
X4637D01*
Y66075D01*
X4619D01*
Y66056D01*
X4581D01*
Y66037D01*
X4563D01*
Y66019D01*
X4525D01*
Y66000D01*
X4487D01*
Y65981D01*
X4506D01*
Y65944D01*
X4525D01*
Y65925D01*
X4544D01*
Y65906D01*
X4563D01*
Y65887D01*
X4581D01*
Y65869D01*
X4600D01*
Y65850D01*
X4619D01*
Y65831D01*
X4637D01*
Y65812D01*
X4656D01*
Y65794D01*
X4675D01*
Y65756D01*
X4694D01*
Y65737D01*
X4713D01*
Y65719D01*
X4731D01*
Y65700D01*
X4750D01*
Y65681D01*
X4769D01*
Y65662D01*
X4787D01*
Y65644D01*
X4806D01*
Y65625D01*
X4825D01*
Y65588D01*
X4844D01*
Y65569D01*
X4862D01*
Y65550D01*
X4881D01*
Y65531D01*
X4900D01*
Y65513D01*
X4919D01*
Y65494D01*
X4938D01*
Y65475D01*
X4956D01*
Y65456D01*
X4975D01*
Y65438D01*
X4994D01*
Y65400D01*
X5012D01*
Y65381D01*
X5031D01*
Y65363D01*
X5050D01*
Y65344D01*
X5069D01*
Y65325D01*
X5088D01*
Y65306D01*
X5106D01*
Y65288D01*
X5125D01*
Y65269D01*
X5144D01*
Y65250D01*
X5162D01*
Y65213D01*
X5181D01*
Y65194D01*
X5200D01*
Y65175D01*
X5219D01*
Y65156D01*
X5237D01*
Y65137D01*
X5256D01*
Y65119D01*
X5275D01*
Y65100D01*
X5294D01*
Y65081D01*
X5313D01*
Y65062D01*
X5331D01*
Y65025D01*
X5350D01*
Y65006D01*
X5369D01*
Y64987D01*
X5387D01*
Y64969D01*
X5406D01*
Y64950D01*
X5425D01*
Y64931D01*
X5444D01*
Y64912D01*
X5463D01*
Y64894D01*
X5481D01*
Y64856D01*
X5500D01*
Y64837D01*
X5519D01*
Y64819D01*
X5537D01*
Y64800D01*
X5556D01*
Y64781D01*
X5575D01*
Y64763D01*
X5594D01*
Y64744D01*
X5613D01*
Y64725D01*
X5631D01*
Y64706D01*
X5650D01*
Y64669D01*
X5669D01*
Y64650D01*
X5688D01*
Y64631D01*
X5706D01*
Y64613D01*
X5725D01*
Y64594D01*
X5744D01*
Y64575D01*
X5762D01*
Y64556D01*
X5781D01*
Y64538D01*
X5800D01*
Y64519D01*
X5819D01*
Y64481D01*
X5838D01*
Y64463D01*
X5856D01*
Y64444D01*
X5875D01*
Y64425D01*
X5894D01*
Y64406D01*
X5912D01*
Y64388D01*
X5931D01*
Y64369D01*
X5950D01*
Y64350D01*
X5969D01*
Y64331D01*
X5988D01*
Y64294D01*
X6006D01*
Y64275D01*
X6025D01*
Y64256D01*
X6044D01*
Y64237D01*
X6063D01*
Y64219D01*
X6081D01*
Y64200D01*
X6100D01*
Y64181D01*
X6119D01*
Y64162D01*
X6137D01*
Y64125D01*
X6156D01*
Y64106D01*
X6175D01*
Y64087D01*
X6194D01*
Y64069D01*
X6213D01*
Y64050D01*
X6231D01*
Y64031D01*
X6250D01*
Y64012D01*
X6269D01*
Y63994D01*
X6288D01*
Y63975D01*
X6306D01*
Y63937D01*
X6325D01*
Y63919D01*
X6344D01*
Y63900D01*
X6363D01*
Y63881D01*
X6381D01*
Y63863D01*
X6400D01*
Y63844D01*
X6419D01*
Y63825D01*
X6437D01*
Y63806D01*
X6456D01*
Y63788D01*
X6475D01*
Y63750D01*
X6494D01*
Y63731D01*
X6513D01*
Y63713D01*
X6531D01*
Y63694D01*
X6550D01*
Y63675D01*
X6569D01*
Y63656D01*
X6588D01*
Y63638D01*
X6606D01*
Y63619D01*
X6625D01*
Y63600D01*
X6644D01*
Y63563D01*
X6662D01*
Y63544D01*
X6681D01*
Y63525D01*
X6700D01*
Y63506D01*
X6719D01*
Y63487D01*
X6737D01*
Y63469D01*
X6756D01*
Y63450D01*
X6775D01*
Y63431D01*
X6794D01*
Y63394D01*
X6813D01*
Y63375D01*
X6831D01*
Y63356D01*
X6850D01*
Y63337D01*
X6869D01*
Y63319D01*
X6887D01*
Y63300D01*
X6925D01*
Y63319D01*
X6962D01*
Y63337D01*
X6981D01*
Y63356D01*
X7000D01*
Y63375D01*
X7038D01*
Y63394D01*
X7056D01*
Y63412D01*
X7094D01*
Y63431D01*
X7113D01*
Y63450D01*
X7150D01*
Y63469D01*
X7169D01*
Y63487D01*
X7206D01*
Y63506D01*
X7225D01*
Y63525D01*
X7262D01*
Y63544D01*
X7281D01*
Y63563D01*
X7319D01*
Y63581D01*
X7338D01*
Y63600D01*
X7356D01*
Y63619D01*
X7394D01*
Y63638D01*
X7412D01*
Y63656D01*
X7450D01*
Y63675D01*
X7469D01*
Y63694D01*
X7506D01*
Y63713D01*
X7525D01*
Y63731D01*
X7544D01*
Y63750D01*
X7525D01*
Y63769D01*
X7506D01*
Y63806D01*
X7487D01*
Y63825D01*
X7469D01*
Y63844D01*
X7450D01*
Y63863D01*
X7431D01*
Y63881D01*
X7412D01*
Y63900D01*
X7394D01*
Y63919D01*
X7375D01*
Y63937D01*
X7356D01*
Y63956D01*
X7338D01*
Y63975D01*
X7319D01*
Y63994D01*
X7300D01*
Y64031D01*
X7281D01*
Y64050D01*
X7262D01*
Y64069D01*
X7244D01*
Y64087D01*
X7225D01*
Y64106D01*
X7206D01*
Y64125D01*
X7187D01*
Y64144D01*
X7169D01*
Y64162D01*
X7150D01*
Y64181D01*
X7131D01*
Y64200D01*
X7113D01*
Y64237D01*
X7094D01*
Y64256D01*
X7075D01*
Y64275D01*
X7056D01*
Y64294D01*
X7038D01*
Y64312D01*
X7019D01*
Y64331D01*
X7000D01*
Y64350D01*
X6981D01*
Y64369D01*
X6962D01*
Y64388D01*
X6944D01*
Y64406D01*
X6925D01*
Y64425D01*
X6906D01*
Y64463D01*
X6887D01*
Y64481D01*
X6869D01*
Y64500D01*
X6850D01*
Y64519D01*
X6831D01*
Y64538D01*
X6813D01*
Y64556D01*
X6794D01*
Y64575D01*
X6775D01*
Y64594D01*
X6756D01*
Y64613D01*
X6737D01*
Y64631D01*
X6719D01*
Y64650D01*
X6700D01*
Y64688D01*
X6681D01*
Y64706D01*
X6662D01*
Y64725D01*
X6644D01*
Y64744D01*
X6625D01*
Y64763D01*
X6606D01*
Y64781D01*
X6588D01*
Y64800D01*
X6569D01*
Y64819D01*
X6550D01*
Y64837D01*
X6531D01*
Y64856D01*
X6513D01*
Y64875D01*
X6494D01*
Y64912D01*
X6475D01*
Y64931D01*
X6456D01*
Y64950D01*
X6437D01*
Y64969D01*
X6419D01*
Y64987D01*
X6400D01*
Y65006D01*
X6381D01*
Y65025D01*
X6363D01*
Y65044D01*
X6344D01*
Y65062D01*
X6325D01*
Y65081D01*
X6306D01*
Y65119D01*
X6288D01*
Y65137D01*
X6269D01*
Y65156D01*
X6250D01*
Y65175D01*
X6231D01*
Y65194D01*
X6213D01*
Y65213D01*
X6194D01*
Y65231D01*
X6175D01*
Y65250D01*
X6156D01*
Y65269D01*
X6137D01*
Y65288D01*
X6119D01*
Y65306D01*
X6100D01*
Y65344D01*
X6081D01*
Y65363D01*
X6063D01*
Y65381D01*
X6044D01*
Y65400D01*
X6025D01*
Y65419D01*
X6006D01*
Y65438D01*
X5988D01*
Y65456D01*
X5969D01*
Y65475D01*
X5950D01*
Y65494D01*
X5931D01*
Y65513D01*
X5912D01*
Y65531D01*
X5894D01*
Y65569D01*
X5875D01*
Y65588D01*
X5856D01*
Y65606D01*
X5838D01*
Y65625D01*
X5819D01*
Y65644D01*
X5800D01*
Y65662D01*
X5781D01*
Y65681D01*
X5762D01*
Y65700D01*
X5744D01*
Y65756D01*
X5781D01*
Y65775D01*
X5800D01*
Y65794D01*
X5838D01*
Y65812D01*
X5856D01*
Y65831D01*
X5894D01*
Y65850D01*
X5912D01*
Y65869D01*
X5950D01*
Y65887D01*
X5988D01*
Y65906D01*
X6006D01*
Y65925D01*
X6044D01*
Y65944D01*
X6063D01*
Y65962D01*
X6100D01*
Y65981D01*
X6119D01*
Y66000D01*
X6156D01*
Y66019D01*
X6175D01*
Y66037D01*
X6213D01*
Y66056D01*
X6250D01*
Y66075D01*
X6269D01*
Y66094D01*
X6306D01*
Y66113D01*
X6325D01*
Y66131D01*
X6363D01*
Y66150D01*
X6381D01*
Y66169D01*
X6419D01*
Y66188D01*
X6456D01*
Y66206D01*
X6475D01*
Y66225D01*
X6513D01*
Y66244D01*
X6531D01*
Y66263D01*
X6569D01*
Y66281D01*
X6588D01*
Y66300D01*
X6625D01*
Y66319D01*
X6644D01*
Y66338D01*
X6681D01*
Y66356D01*
X6719D01*
Y66375D01*
X6737D01*
Y66394D01*
X6775D01*
Y66413D01*
X6794D01*
Y66431D01*
X6831D01*
Y66450D01*
X6850D01*
Y66469D01*
X6887D01*
Y66487D01*
X6906D01*
Y66506D01*
X6944D01*
Y66525D01*
X6981D01*
Y66544D01*
X7000D01*
Y66562D01*
X7038D01*
Y66581D01*
X7056D01*
Y66600D01*
X7094D01*
Y66619D01*
X7113D01*
Y66637D01*
X7150D01*
Y66656D01*
X7187D01*
Y66675D01*
X7206D01*
Y66694D01*
X7244D01*
Y66712D01*
X7262D01*
Y66731D01*
X7300D01*
Y66750D01*
X7319D01*
Y66769D01*
X7356D01*
Y66787D01*
X7375D01*
Y66806D01*
X7412D01*
Y66825D01*
X7450D01*
Y66844D01*
X7469D01*
Y66862D01*
X7506D01*
Y66881D01*
X7525D01*
Y66900D01*
X7563D01*
Y66919D01*
X7581D01*
Y66938D01*
X7619D01*
Y66956D01*
X7638D01*
Y66975D01*
X7675D01*
Y66994D01*
X7712D01*
Y67013D01*
X7731D01*
Y67031D01*
X7769D01*
Y67050D01*
X7788D01*
Y67069D01*
X7825D01*
Y67088D01*
X7844D01*
Y67106D01*
X7881D01*
Y67125D01*
X7900D01*
Y67144D01*
X7937D01*
Y67163D01*
X7975D01*
Y67181D01*
X7994D01*
Y67200D01*
X8031D01*
Y67219D01*
X8050D01*
Y67238D01*
X8088D01*
Y67256D01*
X8106D01*
Y67275D01*
X8144D01*
Y67294D01*
X8181D01*
Y67313D01*
X8200D01*
Y67331D01*
X8237D01*
Y67350D01*
X8256D01*
Y67369D01*
X8294D01*
Y67387D01*
X8313D01*
Y67406D01*
X8350D01*
Y67425D01*
X8369D01*
Y67444D01*
X8406D01*
Y67462D01*
X8444D01*
Y67481D01*
X8462D01*
Y67500D01*
X8500D01*
Y67519D01*
X8519D01*
Y67537D01*
X8556D01*
Y67556D01*
X8575D01*
Y67575D01*
X8613D01*
Y67594D01*
X8631D01*
Y67612D01*
X8669D01*
Y67631D01*
X8706D01*
Y67650D01*
X8725D01*
Y67669D01*
X8762D01*
Y67687D01*
X8781D01*
Y67706D01*
X8819D01*
Y67725D01*
X8838D01*
Y67744D01*
X8875D01*
Y67763D01*
X8912D01*
Y67781D01*
X8931D01*
Y67800D01*
X8969D01*
Y67819D01*
X8987D01*
Y67838D01*
X9025D01*
Y67856D01*
X9044D01*
Y67875D01*
X9081D01*
Y67894D01*
X9100D01*
Y67913D01*
X9138D01*
Y67931D01*
X9175D01*
Y67950D01*
X9194D01*
Y67969D01*
X9212D01*
Y68981D01*
D02*
G37*
%LPD*%
D11*
X130681Y99000D02*
X164000D01*
X126998Y101013D02*
X130192Y97819D01*
X129214Y95457D02*
X137543D01*
X155181Y97819D02*
X163000Y90000D01*
X130192Y97819D02*
X155181D01*
X125817Y100524D02*
X129703Y96638D01*
X146362D02*
X153000Y90000D01*
X128179Y101503D02*
X130681Y99000D01*
X137543Y95457D02*
X143000Y90000D01*
X124480Y100190D02*
X129214Y95457D01*
X164000Y99000D02*
X173000Y90000D01*
X129703Y96638D02*
X146362D01*
X125817Y100524D02*
Y139830D01*
X117701Y105299D02*
X133000Y90000D01*
X117701Y105299D02*
Y136866D01*
X128179Y101503D02*
Y140821D01*
X124480Y100190D02*
Y139496D01*
X126998Y101013D02*
Y140319D01*
X124122Y144878D02*
X128179Y140821D01*
X120988Y144878D02*
X124122D01*
X123823Y140154D02*
X124480Y139496D01*
X120988Y140154D02*
X123823D01*
X120988Y143303D02*
X124014D01*
X126998Y140319D01*
X120988Y141728D02*
X123918D01*
X125817Y139830D01*
X136402Y155902D02*
X144000Y163500D01*
X120988Y155902D02*
X136402D01*
X133173Y154327D02*
X144000Y143500D01*
X120988Y154327D02*
X133173D01*
X116126Y96874D02*
Y136866D01*
Y96874D02*
X123000Y90000D01*
X163646Y194646D02*
X174000Y205000D01*
X119308Y194646D02*
X163646D01*
X172181Y193181D02*
X184000Y205000D01*
X125681Y193181D02*
X172181D01*
X127000Y192000D02*
X181000D01*
X194000Y205000D01*
X124000Y191500D02*
X125681Y193181D01*
X144008Y197008D02*
X152000Y205000D01*
X116126Y194126D02*
X117827Y195827D01*
X154827D02*
X164000Y205000D01*
X117701Y193039D02*
X119308Y194646D01*
X115520Y197008D02*
X144008D01*
X114551Y196039D02*
X115520Y197008D01*
X117827Y195827D02*
X154827D01*
X125181Y190181D02*
X127000Y192000D01*
X114689Y198189D02*
X135189D01*
X142000Y205000D01*
X112370Y199370D02*
X126370D01*
X132000Y205000D01*
X125181Y161011D02*
Y190181D01*
X120988Y159051D02*
X123222D01*
X125181Y161011D01*
X124000Y161500D02*
Y191500D01*
X123126Y160626D02*
X124000Y161500D01*
X120988Y160626D02*
X123126D01*
X117701Y163913D02*
Y193039D01*
X116126Y163913D02*
Y194126D01*
X110551Y200551D02*
X117551D01*
X112976Y196476D02*
X114689Y198189D01*
X114551Y163913D02*
Y196039D01*
X108252Y198252D02*
X110551Y200551D01*
X117551D02*
X122000Y205000D01*
X109827Y196827D02*
X112370Y199370D01*
X109827Y163913D02*
Y196827D01*
X108252Y163913D02*
Y198252D01*
X112976Y163913D02*
Y196476D01*
X59865Y204894D02*
X69260Y195500D01*
X98342D01*
X98803Y163913D02*
Y195039D01*
X98342Y195500D02*
X98803Y195039D01*
X69866Y204894D02*
X77951Y196809D01*
X89010Y197990D02*
X100693D01*
X86760Y198000D02*
X89000D01*
X89010Y197990D01*
X77951Y196809D02*
X99917D01*
X79865Y204894D02*
X86760Y198000D01*
X100853Y199500D02*
X103528Y196825D01*
X95260Y199500D02*
X100853D01*
X89865Y204894D02*
X95260Y199500D01*
X100378Y163913D02*
Y196347D01*
X100693Y197990D02*
X101953Y196730D01*
X99917Y196809D02*
X100378Y196347D01*
X101953Y163913D02*
Y196730D01*
X103528Y163913D02*
Y196825D01*
X106677Y199677D02*
X112000Y205000D01*
X106677Y163913D02*
Y199677D01*
X102000Y205000D02*
X105102Y201898D01*
Y163913D02*
Y201898D01*
X119287Y152752D02*
X120973D01*
X114539Y157500D02*
X119287Y152752D01*
X100500Y152500D02*
Y156744D01*
X93941Y149602D02*
X97602D01*
X100500Y152500D01*
X93941Y152752D02*
X96940D01*
X99188Y155000D01*
X100500Y156744D02*
X101257Y157500D01*
X99188Y155000D02*
Y159051D01*
X101257Y157500D02*
X114539D01*
X115972Y159439D02*
X117934Y157476D01*
X111402Y161402D02*
X113364Y159439D01*
X115972D01*
X117934Y157476D02*
X120988D01*
X96511D02*
X96991Y156997D01*
X97204D01*
X93941Y157476D02*
X96511D01*
X99188Y159051D02*
X100000D01*
X93941D02*
X95500D01*
X99188D01*
X78421Y152752D02*
X93941D01*
Y151177D02*
Y152752D01*
X78173Y153000D02*
X78421Y152752D01*
X97228Y161823D02*
X100000Y159051D01*
X97228Y161823D02*
Y163913D01*
X43000Y135500D02*
X45000Y133500D01*
X83341D02*
X89994Y140154D01*
X45000Y133500D02*
X83341D01*
X89994Y140154D02*
X93941D01*
X47500Y153000D02*
X49827D01*
X47500Y152642D02*
Y153000D01*
X43000Y135500D02*
Y148142D01*
X47500Y152642D01*
X87726Y146453D02*
X93941D01*
X84274Y143000D02*
X87726Y146453D01*
X78173Y143000D02*
X84274D01*
X106677Y124823D02*
Y136866D01*
X109433Y114248D02*
Y122067D01*
X106677Y124823D02*
X109433Y122067D01*
X106275Y113316D02*
X108501D01*
X109433Y114248D01*
X106207Y113248D02*
X106275Y113316D01*
X79158Y148000D02*
X79185Y148028D01*
X93941D01*
X112515Y78817D02*
X112976Y79278D01*
Y136866D01*
X112502Y78817D02*
X112515D01*
X106207Y76537D02*
X110222D01*
X112502Y78817D01*
X82851Y134681D02*
X89899Y141728D01*
X44181Y135989D02*
X45489Y134681D01*
X82851D01*
X82362Y135862D02*
X89803Y143303D01*
X45978Y135862D02*
X82362D01*
X45362Y136478D02*
X45978Y135862D01*
X89899Y141728D02*
X93941D01*
X89803Y143303D02*
X93941D01*
X82500Y138000D02*
X89378Y144878D01*
X78173Y138000D02*
X82500D01*
X89378Y144878D02*
X93941D01*
X44181Y135989D02*
Y144323D01*
X45362Y136478D02*
Y140362D01*
X48000Y143000D01*
X47858Y148000D02*
X49827D01*
X48000Y143000D02*
X49827D01*
X44181Y144323D02*
X47858Y148000D01*
X49827Y138000D02*
X55500D01*
X117500Y146500D02*
X117547Y146453D01*
X120988D01*
X111402Y161402D02*
Y163913D01*
X109051Y159051D02*
X111402Y161402D01*
X100000Y159051D02*
X109051D01*
X93941D02*
Y160626D01*
X109827Y125173D02*
Y136866D01*
X110614Y102535D02*
Y122715D01*
X108252Y125078D02*
X110614Y122715D01*
X109827Y125173D02*
X111795Y123205D01*
Y91610D02*
Y123205D01*
X108252Y125078D02*
Y136866D01*
X109090Y101011D02*
X110614Y102535D01*
X106207Y101011D02*
X109090D01*
X103528Y126541D02*
Y136866D01*
X98831Y125185D02*
X100378Y126732D01*
Y136866D01*
X78205Y122492D02*
X79717Y124004D01*
X101953Y126636D02*
Y136866D01*
X67398Y125185D02*
X98831D01*
X64705Y122492D02*
X67398Y125185D01*
X98342Y126366D02*
X98803Y126827D01*
X79717Y124004D02*
X99320D01*
X51205Y123520D02*
X54051Y126366D01*
X98803Y126827D02*
Y136866D01*
X99810Y122823D02*
X103528Y126541D01*
X78205Y119933D02*
Y122492D01*
X54051Y126366D02*
X98342D01*
X64705Y119933D02*
Y122492D01*
X91649Y121964D02*
X92508Y122823D01*
X99810D01*
X99320Y124004D02*
X101953Y126636D01*
X105110Y119866D02*
Y135598D01*
X105102Y135606D02*
X105110Y135598D01*
X105102Y135606D02*
Y136858D01*
X51205Y119933D02*
Y123520D01*
X108985Y64300D02*
X114551Y69866D01*
Y136866D01*
X106207Y64300D02*
X108985D01*
X108959Y88774D02*
X111795Y91610D01*
X106207Y88774D02*
X108959D01*
X91649Y119905D02*
Y121964D01*
X91610Y119866D02*
X91649Y119905D01*
D12*
X43784Y168000D02*
X73000D01*
X86673Y154327D02*
X93941D01*
X69347Y174000D02*
X87446Y155902D01*
X93941D01*
X43784Y174000D02*
X69347D01*
X73000Y168000D02*
X86673Y154327D01*
X33551Y171949D02*
X37500Y168000D01*
X30433Y171949D02*
X33551D01*
X37500Y168000D02*
X40216D01*
X30335Y174016D02*
X40216D01*
X30335Y172047D02*
X30433Y171949D01*
X26207Y172047D02*
X30335D01*
X22529Y174016D02*
X30335D01*
X25500Y171500D02*
X25660D01*
X26207Y172047D01*
X25500Y176500D02*
X25660D01*
X26175Y175984D01*
X30335D01*
X21953Y174592D02*
X22529Y174016D01*
X21953Y174592D02*
Y178423D01*
X30236Y178051D02*
X30335Y177953D01*
X27000Y179000D02*
X27949Y178051D01*
X22529Y179000D02*
X27000D01*
X27949Y178051D02*
X30236D01*
X21953Y178423D02*
X22529Y179000D01*
D14*
X106051Y113092D02*
X106207Y113248D01*
X106051Y109366D02*
Y113092D01*
X79051Y109590D02*
Y113314D01*
X65426Y109588D02*
Y113314D01*
X51801Y109588D02*
Y113314D01*
X51646Y109433D02*
X51801Y109588D01*
X92426Y109366D02*
X92582Y109522D01*
Y113248D01*
X78896Y109434D02*
X79051Y109590D01*
X65271Y109433D02*
X65426Y109588D01*
X106207Y71983D02*
Y76537D01*
X92582Y72066D02*
Y76537D01*
X65426Y72152D02*
Y76603D01*
X79051Y71866D02*
Y76603D01*
X51801Y71969D02*
Y76603D01*
X106207Y83885D02*
Y88774D01*
X79051Y95866D02*
Y101077D01*
Y83866D02*
Y88840D01*
X54557Y61610D02*
X62670D01*
X51801Y64366D02*
X54557Y61610D01*
X62670D02*
X65426Y64366D01*
X68182Y61610D02*
X76295D01*
X65426Y64366D02*
X68182Y61610D01*
X76295D02*
X79051Y64366D01*
X81874Y61544D01*
X89826D01*
X92582Y64300D02*
X95515Y61366D01*
X102773D01*
X105707Y64300D01*
X86676D02*
Y120307D01*
X73146Y64366D02*
Y120374D01*
X59521Y64366D02*
Y76603D01*
X45896Y64366D02*
Y76603D01*
X59521D02*
Y88840D01*
X45896Y76603D02*
Y88840D01*
X92582Y83885D02*
Y88774D01*
X45896Y88840D02*
Y101077D01*
Y113314D01*
X51801Y96030D02*
Y101077D01*
Y83951D02*
Y88840D01*
X65426Y96030D02*
Y101077D01*
Y83951D02*
Y88840D01*
X59521D02*
Y101077D01*
Y113314D01*
Y120374D01*
X45896Y113314D02*
Y120374D01*
X92582Y95963D02*
Y101011D01*
X89826Y61544D02*
X92582Y64300D01*
X106207Y95963D02*
Y101011D01*
X99801Y64300D02*
Y120307D01*
D15*
X337008Y200709D02*
X336967Y201684D01*
X336847Y202653D01*
X336647Y203608D01*
X336368Y204544D01*
X336013Y205453D01*
X335584Y206330D01*
X335085Y207169D01*
X334517Y207963D01*
X333887Y208708D01*
X333196Y209398D01*
X332451Y210029D01*
X331657Y210596D01*
X330818Y211096D01*
X329941Y211525D01*
X329032Y211880D01*
X328096Y212158D01*
X327141Y212359D01*
X326172Y212479D01*
X325197Y212520D01*
Y0D02*
X326172Y40D01*
X327141Y161D01*
X328096Y361D01*
X329032Y640D01*
X329941Y995D01*
X330818Y1424D01*
X331657Y1923D01*
X332451Y2490D01*
X333196Y3121D01*
X333887Y3812D01*
X334517Y4557D01*
X335085Y5351D01*
X335584Y6190D01*
X336013Y7067D01*
X336368Y7976D01*
X336647Y8912D01*
X336847Y9867D01*
X336967Y10836D01*
X337008Y11811D01*
X11811Y212520D02*
X10836Y212479D01*
X9867Y212359D01*
X8912Y212158D01*
X7976Y211880D01*
X7067Y211525D01*
X6190Y211096D01*
X5351Y210596D01*
X4557Y210029D01*
X3812Y209398D01*
X3121Y208708D01*
X2490Y207963D01*
X1923Y207169D01*
X1424Y206330D01*
X995Y205453D01*
X640Y204544D01*
X361Y203608D01*
X161Y202653D01*
X40Y201684D01*
X0Y200709D01*
Y11811D02*
X40Y10836D01*
X161Y9867D01*
X361Y8912D01*
X640Y7976D01*
X995Y7067D01*
X1424Y6190D01*
X1923Y5351D01*
X2490Y4557D01*
X3121Y3812D01*
X3812Y3121D01*
X4557Y2490D01*
X5351Y1923D01*
X6190Y1424D01*
X7067Y995D01*
X7976Y640D01*
X8912Y361D01*
X9867Y161D01*
X10836Y40D01*
X11811Y0D01*
X325197D01*
X11811Y212520D02*
X325197D01*
X337008Y11811D02*
Y200709D01*
X0Y11811D02*
Y200709D01*
D16*
X43784Y174000D02*
D03*
X40216D02*
D03*
X30933Y125000D02*
D03*
X34500D02*
D03*
X36783Y117000D02*
D03*
X33217D02*
D03*
X43784Y168000D02*
D03*
X40216D02*
D03*
D17*
X69000Y251323D02*
D03*
Y284000D02*
D03*
X86323Y284197D02*
D03*
Y251323D02*
D03*
D18*
X49827Y153000D02*
D03*
X78173Y143000D02*
D03*
Y148000D02*
D03*
X49827D02*
D03*
Y143000D02*
D03*
Y138000D02*
D03*
X78173D02*
D03*
Y153000D02*
D03*
D19*
X93941Y140154D02*
D03*
Y146453D02*
D03*
Y148028D02*
D03*
Y155902D02*
D03*
X120988Y146453D02*
D03*
X93941Y141728D02*
D03*
Y143303D02*
D03*
Y144878D02*
D03*
X120988Y151177D02*
D03*
X93941Y160626D02*
D03*
Y159051D02*
D03*
Y151177D02*
D03*
Y152752D02*
D03*
X120988Y140154D02*
D03*
Y141728D02*
D03*
Y143303D02*
D03*
Y144878D02*
D03*
Y148028D02*
D03*
Y149602D02*
D03*
Y152752D02*
D03*
Y154327D02*
D03*
Y155902D02*
D03*
Y157476D02*
D03*
Y159051D02*
D03*
Y160626D02*
D03*
X93941Y157476D02*
D03*
Y154327D02*
D03*
Y149602D02*
D03*
D20*
X105707Y113248D02*
D03*
X92582D02*
D03*
X79051Y113314D02*
D03*
X65426D02*
D03*
X51801D02*
D03*
X105707Y76537D02*
D03*
X79051Y76603D02*
D03*
X92582Y76537D02*
D03*
X65426Y76603D02*
D03*
X51801D02*
D03*
X73146Y64366D02*
D03*
X79051D02*
D03*
X86676Y64300D02*
D03*
X92582D02*
D03*
X59521Y64366D02*
D03*
X65426D02*
D03*
X86676Y76537D02*
D03*
X59521Y76603D02*
D03*
X73146D02*
D03*
X45896Y64366D02*
D03*
X51801D02*
D03*
X45896Y76603D02*
D03*
Y88840D02*
D03*
X51801D02*
D03*
X45896Y101077D02*
D03*
X51801D02*
D03*
X73146D02*
D03*
X79051D02*
D03*
X59521D02*
D03*
X65426D02*
D03*
X59521Y88840D02*
D03*
X65426D02*
D03*
X73146D02*
D03*
X79051D02*
D03*
X59521Y113314D02*
D03*
X86676Y88774D02*
D03*
X92582D02*
D03*
X86676Y113248D02*
D03*
Y101011D02*
D03*
X92582D02*
D03*
X73146Y113314D02*
D03*
X45896D02*
D03*
X105707Y64300D02*
D03*
X99801D02*
D03*
Y76537D02*
D03*
Y88774D02*
D03*
X105707D02*
D03*
X99801Y101011D02*
D03*
X105707D02*
D03*
X99801Y113248D02*
D03*
D21*
X106677Y136866D02*
D03*
X112976D02*
D03*
X111402Y163913D02*
D03*
X97228D02*
D03*
X111402Y136866D02*
D03*
X97228D02*
D03*
X98803D02*
D03*
X100378D02*
D03*
X101953D02*
D03*
X103528D02*
D03*
X105102D02*
D03*
X108252D02*
D03*
X109827D02*
D03*
X114551D02*
D03*
X116126D02*
D03*
X117701D02*
D03*
Y163913D02*
D03*
X116126D02*
D03*
X114551D02*
D03*
X112976D02*
D03*
X109827D02*
D03*
X108252D02*
D03*
X106677D02*
D03*
X105102D02*
D03*
X103528D02*
D03*
X101953D02*
D03*
X100378D02*
D03*
X98803D02*
D03*
D23*
X30335Y162402D02*
D03*
Y187598D02*
D03*
Y165551D02*
D03*
Y184449D02*
D03*
D24*
X12598Y154882D02*
D03*
Y195118D02*
D03*
X28071Y154882D02*
D03*
Y195118D02*
D03*
D25*
X91610Y119866D02*
D03*
X86492D02*
D03*
X78205Y119933D02*
D03*
X73087D02*
D03*
X64705D02*
D03*
X59587D02*
D03*
X51205D02*
D03*
X46087D02*
D03*
X105110Y119866D02*
D03*
X99992D02*
D03*
D26*
X30335Y168110D02*
D03*
Y170079D02*
D03*
Y172047D02*
D03*
Y174016D02*
D03*
Y175984D02*
D03*
Y177953D02*
D03*
Y179921D02*
D03*
Y181890D02*
D03*
D35*
X26102Y163622D02*
D03*
Y186378D02*
D03*
D38*
X107465Y150390D02*
D03*
D39*
X173000Y90000D02*
D03*
X164000Y205000D02*
D03*
X102000D02*
D03*
X89865Y204894D02*
D03*
D40*
X163000Y90000D02*
D03*
X153000D02*
D03*
X143000D02*
D03*
X133000D02*
D03*
X123000D02*
D03*
X194000Y205000D02*
D03*
X184000D02*
D03*
X174000D02*
D03*
X144000Y153500D02*
D03*
X112000Y205000D02*
D03*
X122000D02*
D03*
X132000D02*
D03*
X142000D02*
D03*
X152000D02*
D03*
X59865Y204894D02*
D03*
X69866D02*
D03*
X79865D02*
D03*
X144000Y163500D02*
D03*
D41*
Y143500D02*
D03*
D42*
X99000Y151000D02*
D03*
X97204Y156997D02*
D03*
X25500Y171500D02*
D03*
Y176500D02*
D03*
X106051Y109366D02*
D03*
X78896Y109434D02*
D03*
X92426Y109366D02*
D03*
X65271Y109433D02*
D03*
X51646D02*
D03*
X106207Y71983D02*
D03*
X92582Y72066D02*
D03*
X79051Y71866D02*
D03*
X65426Y72152D02*
D03*
X51801Y71969D02*
D03*
X55500Y138000D02*
D03*
X117500Y146500D02*
D03*
X107465Y150390D02*
D03*
X79051Y95866D02*
D03*
Y83866D02*
D03*
X92582Y95963D02*
D03*
X65426Y96030D02*
D03*
X51801D02*
D03*
X92582Y83885D02*
D03*
X65426Y83951D02*
D03*
X51801D02*
D03*
X106207Y83885D02*
D03*
Y95963D02*
D03*
M02*
