G04*
G04 #@! TF.GenerationSoftware,Altium Limited,Altium Designer,25.8.1 (18)*
G04*
G04 Layer_Color=255*
%FSLAX25Y25*%
%MOIN*%
G70*
G04*
G04 #@! TF.SameCoordinates,70397301-3752-4A3B-8FF2-FC9E58B5EE46*
G04*
G04*
G04 #@! TF.FilePolarity,Positive*
G04*
G01*
G75*
%ADD59C,0.05906*%
%ADD60O,0.07284X0.04134*%
%ADD61O,0.08465X0.04134*%
%ADD62R,0.05906X0.05906*%
%ADD63R,0.05906X0.05906*%
%ADD64C,0.02756*%
D59*
X235000Y127500D02*
D03*
X110000Y195000D02*
D03*
X120000Y205000D02*
D03*
X110000D02*
D03*
X140000D02*
D03*
Y195000D02*
D03*
X310000D02*
D03*
X320000Y205000D02*
D03*
X310000D02*
D03*
X265122Y93803D02*
D03*
X275122D02*
D03*
X285122D02*
D03*
X150000Y195000D02*
D03*
Y205000D02*
D03*
X160000Y195000D02*
D03*
Y205000D02*
D03*
X170000Y195000D02*
D03*
Y205000D02*
D03*
X180000Y195000D02*
D03*
Y205000D02*
D03*
X190000Y195000D02*
D03*
Y205000D02*
D03*
X200000Y195000D02*
D03*
Y205000D02*
D03*
X210000Y195000D02*
D03*
Y205000D02*
D03*
X220000Y195000D02*
D03*
Y205000D02*
D03*
X230000Y195000D02*
D03*
Y205000D02*
D03*
X240000Y195000D02*
D03*
Y205000D02*
D03*
X250000Y195000D02*
D03*
Y205000D02*
D03*
X260000Y195000D02*
D03*
Y205000D02*
D03*
X270000Y195000D02*
D03*
Y205000D02*
D03*
X280000Y195000D02*
D03*
Y205000D02*
D03*
X290000Y195000D02*
D03*
X235000Y117500D02*
D03*
D60*
X327000Y88984D02*
D03*
Y123000D02*
D03*
D61*
X310661Y88984D02*
D03*
Y123000D02*
D03*
D62*
X120000Y195000D02*
D03*
X320000D02*
D03*
X235000Y137500D02*
D03*
D63*
X255122Y93803D02*
D03*
X290000Y205000D02*
D03*
D64*
X312630Y94614D02*
D03*
Y117370D02*
D03*
M02*
