G04*
G04 #@! TF.GenerationSoftware,Altium Limited,Altium Designer,25.8.1 (18)*
G04*
G04 Layer_Color=32896*
%FSLAX25Y25*%
%MOIN*%
G70*
G04*
G04 #@! TF.SameCoordinates,24556F7F-BEDA-4819-8607-D1A4BCCC43C2*
G04*
G04*
G04 #@! TF.FilePolarity,Positive*
G04*
G01*
G75*
%ADD12C,0.00787*%
%ADD58C,0.01575*%
D12*
X167561Y38465D02*
X164937D01*
X166249D01*
Y34529D01*
X163625Y38465D02*
Y34529D01*
Y36497D01*
X162969Y37153D01*
X161657D01*
X161001Y36497D01*
Y34529D01*
X159689D02*
X158378D01*
X159034D01*
Y37153D01*
X159689D01*
X156410Y34529D02*
X154442D01*
X153786Y35185D01*
X154442Y35841D01*
X155754D01*
X156410Y36497D01*
X155754Y37153D01*
X153786D01*
X147882Y37809D02*
Y37153D01*
X148538D01*
X147226D01*
X147882D01*
Y35185D01*
X147226Y34529D01*
X145258D02*
X143947D01*
X144603D01*
Y37153D01*
X145258D01*
X139355D02*
X141323D01*
X141979Y36497D01*
Y35185D01*
X141323Y34529D01*
X139355D01*
X138043D02*
Y38465D01*
Y35841D02*
X136075Y37153D01*
X138043Y35841D02*
X136075Y34529D01*
X132139D02*
X133451D01*
X134107Y35185D01*
Y36497D01*
X133451Y37153D01*
X132139D01*
X131483Y36497D01*
Y35841D01*
X134107D01*
X129516Y37809D02*
Y37153D01*
X130172D01*
X128860D01*
X129516D01*
Y35185D01*
X128860Y34529D01*
X120988D02*
X122300D01*
X122956Y35185D01*
Y36497D01*
X122300Y37153D01*
X120988D01*
X120332Y36497D01*
Y35841D01*
X122956D01*
X119020Y34529D02*
Y37153D01*
X117052D01*
X116396Y36497D01*
Y34529D01*
X114428Y37809D02*
Y37153D01*
X115085D01*
X113773D01*
X114428D01*
Y35185D01*
X113773Y34529D01*
X111805D02*
X110493D01*
X111149D01*
Y37153D01*
X111805D01*
X108525Y34529D02*
X107213D01*
X107869D01*
Y38465D01*
X108525D01*
X103277Y34529D02*
X104589D01*
X105245Y35185D01*
Y36497D01*
X104589Y37153D01*
X103277D01*
X102621Y36497D01*
Y35841D01*
X105245D01*
X101309Y34529D02*
X99341D01*
X98686Y35185D01*
X99341Y35841D01*
X100653D01*
X101309Y36497D01*
X100653Y37153D01*
X98686D01*
X92782Y37809D02*
Y37153D01*
X93438D01*
X92126D01*
X92782D01*
Y35185D01*
X92126Y34529D01*
X90158Y38465D02*
Y34529D01*
Y36497D01*
X89502Y37153D01*
X88190D01*
X87534Y36497D01*
Y34529D01*
X84254D02*
X85566D01*
X86222Y35185D01*
Y36497D01*
X85566Y37153D01*
X84254D01*
X83599Y36497D01*
Y35841D01*
X86222D01*
X78351Y38465D02*
Y34529D01*
X76383D01*
X75727Y35185D01*
Y35841D01*
Y36497D01*
X76383Y37153D01*
X78351D01*
X72447Y34529D02*
X73759D01*
X74415Y35185D01*
Y36497D01*
X73759Y37153D01*
X72447D01*
X71791Y36497D01*
Y35841D01*
X74415D01*
X69823Y37153D02*
X68512D01*
X67856Y36497D01*
Y34529D01*
X69823D01*
X70479Y35185D01*
X69823Y35841D01*
X67856D01*
X66544Y37153D02*
Y34529D01*
Y35841D01*
X65888Y36497D01*
X65232Y37153D01*
X64576D01*
X60640Y34529D02*
X61952D01*
X62608Y35185D01*
Y36497D01*
X61952Y37153D01*
X60640D01*
X59984Y36497D01*
Y35841D01*
X62608D01*
X58672Y37153D02*
Y34529D01*
Y35841D01*
X58016Y36497D01*
X57360Y37153D01*
X56704D01*
X50145Y37809D02*
Y37153D01*
X50801D01*
X49489D01*
X50145D01*
Y35185D01*
X49489Y34529D01*
X46865D02*
X45553D01*
X44897Y35185D01*
Y36497D01*
X45553Y37153D01*
X46865D01*
X47521Y36497D01*
Y35185D01*
X46865Y34529D01*
X37682D02*
X38993D01*
X39650Y35185D01*
Y36497D01*
X38993Y37153D01*
X37682D01*
X37026Y36497D01*
Y35841D01*
X39650D01*
X35714Y34529D02*
Y37153D01*
X33746D01*
X33090Y36497D01*
Y34529D01*
X31122Y37809D02*
Y37153D01*
X31778D01*
X30466D01*
X31122D01*
Y35185D01*
X30466Y34529D01*
X28498Y37153D02*
Y34529D01*
Y35841D01*
X27842Y36497D01*
X27186Y37153D01*
X26530D01*
X24563D02*
Y35185D01*
X23907Y34529D01*
X21939D01*
Y33873D01*
X22595Y33217D01*
X23251D01*
X21939Y34529D02*
Y37153D01*
X16035Y37809D02*
Y37153D01*
X16691D01*
X15379D01*
X16035D01*
Y35185D01*
X15379Y34529D01*
X12755D02*
X11443D01*
X10787Y35185D01*
Y36497D01*
X11443Y37153D01*
X12755D01*
X13411Y36497D01*
Y35185D01*
X12755Y34529D01*
X159689Y29884D02*
Y29228D01*
X160345D01*
X159034D01*
X159689D01*
Y27260D01*
X159034Y26604D01*
X157066Y30540D02*
Y26604D01*
Y28572D01*
X156410Y29228D01*
X155098D01*
X154442Y28572D01*
Y26604D01*
X151162D02*
X152474D01*
X153130Y27260D01*
Y28572D01*
X152474Y29228D01*
X151162D01*
X150506Y28572D01*
Y27916D01*
X153130D01*
X145258Y30540D02*
Y27260D01*
X144603Y26604D01*
X143291D01*
X142635Y27260D01*
Y30540D01*
X141323Y26604D02*
Y29228D01*
X139355D01*
X138699Y28572D01*
Y26604D01*
X137387D02*
X136075D01*
X136731D01*
Y29228D01*
X137387D01*
X134107D02*
X132795Y26604D01*
X131483Y29228D01*
X128204Y26604D02*
X129516D01*
X130172Y27260D01*
Y28572D01*
X129516Y29228D01*
X128204D01*
X127548Y28572D01*
Y27916D01*
X130172D01*
X126236Y29228D02*
Y26604D01*
Y27916D01*
X125580Y28572D01*
X124924Y29228D01*
X124268D01*
X122300Y26604D02*
X120332D01*
X119676Y27260D01*
X120332Y27916D01*
X121644D01*
X122300Y28572D01*
X121644Y29228D01*
X119676D01*
X118364Y26604D02*
X117052D01*
X117708D01*
Y29228D01*
X118364D01*
X114428Y29884D02*
Y29228D01*
X115085D01*
X113773D01*
X114428D01*
Y27260D01*
X113773Y26604D01*
X111805Y29228D02*
Y27260D01*
X111149Y26604D01*
X109181D01*
Y25948D01*
X109837Y25293D01*
X110493D01*
X109181Y26604D02*
Y29228D01*
X103277Y26604D02*
X101965D01*
X101309Y27260D01*
Y28572D01*
X101965Y29228D01*
X103277D01*
X103933Y28572D01*
Y27260D01*
X103277Y26604D01*
X99341D02*
Y29884D01*
Y28572D01*
X99998D01*
X98686D01*
X99341D01*
Y29884D01*
X98686Y30540D01*
X92782Y26604D02*
Y29228D01*
X91470Y30540D01*
X90158Y29228D01*
Y26604D01*
Y28572D01*
X92782D01*
X88846Y29228D02*
Y27260D01*
X88190Y26604D01*
X86222D01*
Y29228D01*
X82287D02*
X84254D01*
X84911Y28572D01*
Y27260D01*
X84254Y26604D01*
X82287D01*
X80975D02*
Y30540D01*
Y27916D02*
X79007Y29228D01*
X80975Y27916D02*
X79007Y26604D01*
X77039D02*
X75727D01*
X76383D01*
Y30540D01*
X77039D01*
X73103Y29228D02*
X71791D01*
X71135Y28572D01*
Y26604D01*
X73103D01*
X73759Y27260D01*
X73103Y27916D01*
X71135D01*
X69823Y26604D02*
Y29228D01*
X67856D01*
X67200Y28572D01*
Y26604D01*
X63264Y30540D02*
Y26604D01*
X65232D01*
X65888Y27260D01*
Y28572D01*
X65232Y29228D01*
X63264D01*
X58016Y30540D02*
Y26604D01*
X56048D01*
X55392Y27260D01*
Y29884D01*
X56048Y30540D01*
X58016D01*
X52113Y26604D02*
X53425D01*
X54080Y27260D01*
Y28572D01*
X53425Y29228D01*
X52113D01*
X51457Y28572D01*
Y27916D01*
X54080D01*
X50145Y25293D02*
Y29228D01*
X48177D01*
X47521Y28572D01*
Y27260D01*
X48177Y26604D01*
X50145D01*
X45553Y29228D02*
X44241D01*
X43585Y28572D01*
Y26604D01*
X45553D01*
X46209Y27260D01*
X45553Y27916D01*
X43585D01*
X42273Y29228D02*
Y26604D01*
Y27916D01*
X41617Y28572D01*
X40961Y29228D01*
X40305D01*
X37682Y29884D02*
Y29228D01*
X38338D01*
X37026D01*
X37682D01*
Y27260D01*
X37026Y26604D01*
X35058D02*
Y29228D01*
X34402D01*
X33746Y28572D01*
Y26604D01*
Y28572D01*
X33090Y29228D01*
X32434Y28572D01*
Y26604D01*
X29154D02*
X30466D01*
X31122Y27260D01*
Y28572D01*
X30466Y29228D01*
X29154D01*
X28498Y28572D01*
Y27916D01*
X31122D01*
X27186Y26604D02*
Y29228D01*
X25218D01*
X24563Y28572D01*
Y26604D01*
X22595Y29884D02*
Y29228D01*
X23251D01*
X21939D01*
X22595D01*
Y27260D01*
X21939Y26604D01*
X15379D02*
X14067D01*
X13411Y27260D01*
Y28572D01*
X14067Y29228D01*
X15379D01*
X16035Y28572D01*
Y27260D01*
X15379Y26604D01*
X11443D02*
Y29884D01*
Y28572D01*
X12099D01*
X10787D01*
X11443D01*
Y29884D01*
X10787Y30540D01*
X136075Y22616D02*
X138699D01*
Y18680D01*
X136075D01*
X138699Y20648D02*
X137387D01*
X134763Y18680D02*
X133451D01*
X134107D01*
Y22616D01*
X134763D01*
X129516Y18680D02*
X130827D01*
X131483Y19336D01*
Y20648D01*
X130827Y21304D01*
X129516D01*
X128860Y20648D01*
Y19992D01*
X131483D01*
X124924Y21304D02*
X126892D01*
X127548Y20648D01*
Y19336D01*
X126892Y18680D01*
X124924D01*
X122956Y21960D02*
Y21304D01*
X123612D01*
X122300D01*
X122956D01*
Y19336D01*
X122300Y18680D01*
X120332Y21304D02*
Y18680D01*
Y19992D01*
X119676Y20648D01*
X119020Y21304D01*
X118364D01*
X116396Y18680D02*
X115085D01*
X115740D01*
Y21304D01*
X116396D01*
X110493D02*
X112461D01*
X113117Y20648D01*
Y19336D01*
X112461Y18680D01*
X110493D01*
X108525Y21304D02*
X107213D01*
X106557Y20648D01*
Y18680D01*
X108525D01*
X109181Y19336D01*
X108525Y19992D01*
X106557D01*
X105245Y18680D02*
X103933D01*
X104589D01*
Y22616D01*
X105245D01*
X101309Y18024D02*
X100653Y18680D01*
Y19336D01*
X101309D01*
Y18680D01*
X100653D01*
X101309Y18024D01*
X101965Y17368D01*
X91470Y21960D02*
X92126Y22616D01*
X93438D01*
X94094Y21960D01*
Y19336D01*
X93438Y18680D01*
X92126D01*
X91470Y19336D01*
X89502Y18680D02*
X88190D01*
X87534Y19336D01*
Y20648D01*
X88190Y21304D01*
X89502D01*
X90158Y20648D01*
Y19336D01*
X89502Y18680D01*
X86222D02*
Y21304D01*
X85566D01*
X84911Y20648D01*
Y18680D01*
Y20648D01*
X84254Y21304D01*
X83599Y20648D01*
Y18680D01*
X82287Y17368D02*
Y21304D01*
X80319D01*
X79663Y20648D01*
Y19336D01*
X80319Y18680D01*
X82287D01*
X78351Y21304D02*
Y19336D01*
X77695Y18680D01*
X75727D01*
Y21304D01*
X73759Y21960D02*
Y21304D01*
X74415D01*
X73103D01*
X73759D01*
Y19336D01*
X73103Y18680D01*
X69168D02*
X70479D01*
X71135Y19336D01*
Y20648D01*
X70479Y21304D01*
X69168D01*
X68512Y20648D01*
Y19992D01*
X71135D01*
X67200Y21304D02*
Y18680D01*
Y19992D01*
X66544Y20648D01*
X65888Y21304D01*
X65232D01*
X62608Y18024D02*
X61952Y18680D01*
Y19336D01*
X62608D01*
Y18680D01*
X61952D01*
X62608Y18024D01*
X63264Y17368D01*
X54737Y21304D02*
X53425D01*
X52769Y20648D01*
Y18680D01*
X54737D01*
X55392Y19336D01*
X54737Y19992D01*
X52769D01*
X51457Y18680D02*
Y21304D01*
X49489D01*
X48833Y20648D01*
Y18680D01*
X44897Y22616D02*
Y18680D01*
X46865D01*
X47521Y19336D01*
Y20648D01*
X46865Y21304D01*
X44897D01*
X37026Y21960D02*
X37682Y22616D01*
X38993D01*
X39650Y21960D01*
Y21304D01*
X38993Y20648D01*
X37682D01*
X37026Y19992D01*
Y19336D01*
X37682Y18680D01*
X38993D01*
X39650Y19336D01*
X35058Y18680D02*
X33746D01*
X33090Y19336D01*
Y20648D01*
X33746Y21304D01*
X35058D01*
X35714Y20648D01*
Y19336D01*
X35058Y18680D01*
X31122D02*
Y21960D01*
Y20648D01*
X31778D01*
X30466D01*
X31122D01*
Y21960D01*
X30466Y22616D01*
X27842Y21960D02*
Y21304D01*
X28498D01*
X27186D01*
X27842D01*
Y19336D01*
X27186Y18680D01*
X25218Y21304D02*
Y19336D01*
X24563Y18680D01*
X23907Y19336D01*
X23251Y18680D01*
X22595Y19336D01*
Y21304D01*
X20627D02*
X19315D01*
X18659Y20648D01*
Y18680D01*
X20627D01*
X21283Y19336D01*
X20627Y19992D01*
X18659D01*
X17347Y21304D02*
Y18680D01*
Y19992D01*
X16691Y20648D01*
X16035Y21304D01*
X15379D01*
X11443Y18680D02*
X12755D01*
X13411Y19336D01*
Y20648D01*
X12755Y21304D01*
X11443D01*
X10787Y20648D01*
Y19992D01*
X13411D01*
X163625Y14035D02*
X166249D01*
Y10099D01*
X163625D01*
X166249Y12067D02*
X164937D01*
X162313Y10099D02*
Y12723D01*
X160345D01*
X159689Y12067D01*
Y10099D01*
X157066Y8787D02*
X156410D01*
X155754Y9443D01*
Y12723D01*
X157722D01*
X158378Y12067D01*
Y10755D01*
X157722Y10099D01*
X155754D01*
X154442D02*
X153130D01*
X153786D01*
Y12723D01*
X154442D01*
X151162Y10099D02*
Y12723D01*
X149194D01*
X148538Y12067D01*
Y10099D01*
X145258D02*
X146570D01*
X147226Y10755D01*
Y12067D01*
X146570Y12723D01*
X145258D01*
X144603Y12067D01*
Y11411D01*
X147226D01*
X141323Y10099D02*
X142635D01*
X143291Y10755D01*
Y12067D01*
X142635Y12723D01*
X141323D01*
X140667Y12067D01*
Y11411D01*
X143291D01*
X139355Y12723D02*
Y10099D01*
Y11411D01*
X138699Y12067D01*
X138043Y12723D01*
X137387D01*
X135419Y10099D02*
X134107D01*
X134763D01*
Y12723D01*
X135419D01*
X132139Y10099D02*
Y12723D01*
X130172D01*
X129516Y12067D01*
Y10099D01*
X126892Y8787D02*
X126236D01*
X125580Y9443D01*
Y12723D01*
X127548D01*
X128204Y12067D01*
Y10755D01*
X127548Y10099D01*
X125580D01*
X123612Y14691D02*
Y13379D01*
X124268Y12723D01*
X121644Y10099D02*
X119676D01*
X119020Y10755D01*
X119676Y11411D01*
X120988D01*
X121644Y12067D01*
X120988Y12723D01*
X119020D01*
X113773Y10099D02*
Y14035D01*
X111805D01*
X111149Y13379D01*
Y12067D01*
X111805Y11411D01*
X113773D01*
X109181Y12723D02*
X107869D01*
X107213Y12067D01*
Y10099D01*
X109181D01*
X109837Y10755D01*
X109181Y11411D01*
X107213D01*
X105901Y12723D02*
Y10099D01*
Y11411D01*
X105245Y12067D01*
X104589Y12723D01*
X103933D01*
X101309Y13379D02*
Y12723D01*
X101965D01*
X100653D01*
X101309D01*
Y10755D01*
X100653Y10099D01*
X94750Y14035D02*
X93438D01*
X94094D01*
Y10099D01*
X94750D01*
X93438D01*
X91470Y14035D02*
Y11411D01*
X90158Y10099D01*
X88846Y11411D01*
Y14035D01*
X83599D02*
Y10099D01*
X80975D01*
X77695D02*
X79007D01*
X79663Y10755D01*
Y12067D01*
X79007Y12723D01*
X77695D01*
X77039Y12067D01*
Y11411D01*
X79663D01*
X75071Y12723D02*
X73759D01*
X73103Y12067D01*
Y10099D01*
X75071D01*
X75727Y10755D01*
X75071Y11411D01*
X73103D01*
X71791Y12723D02*
X70479Y10099D01*
X69168Y12723D01*
X65888Y10099D02*
X67200D01*
X67856Y10755D01*
Y12067D01*
X67200Y12723D01*
X65888D01*
X65232Y12067D01*
Y11411D01*
X67856D01*
X63920Y12723D02*
Y10099D01*
Y11411D01*
X63264Y12067D01*
X62608Y12723D01*
X61952D01*
X59984Y10099D02*
X58016D01*
X57360Y10755D01*
X58016Y11411D01*
X59328D01*
X59984Y12067D01*
X59328Y12723D01*
X57360D01*
X52113Y14035D02*
Y10099D01*
X50145D01*
X49489Y10755D01*
Y13379D01*
X50145Y14035D01*
X52113D01*
X48177Y10099D02*
X46865D01*
X47521D01*
Y12723D01*
X48177D01*
X44897Y10099D02*
Y12723D01*
X42929D01*
X42273Y12067D01*
Y10099D01*
X40961D02*
Y12723D01*
X38993D01*
X38338Y12067D01*
Y10099D01*
X35058D02*
X36370D01*
X37026Y10755D01*
Y12067D01*
X36370Y12723D01*
X35058D01*
X34402Y12067D01*
Y11411D01*
X37026D01*
X33090Y12723D02*
Y10099D01*
Y11411D01*
X32434Y12067D01*
X31778Y12723D01*
X31122D01*
X22595Y10099D02*
X25218D01*
X22595Y12723D01*
Y13379D01*
X23251Y14035D01*
X24563D01*
X25218Y13379D01*
X21283D02*
X20627Y14035D01*
X19315D01*
X18659Y13379D01*
Y10755D01*
X19315Y10099D01*
X20627D01*
X21283Y10755D01*
Y13379D01*
X14723Y10099D02*
X17347D01*
X14723Y12723D01*
Y13379D01*
X15379Y14035D01*
X16691D01*
X17347Y13379D01*
X10787Y14035D02*
X13411D01*
Y12067D01*
X12099Y12723D01*
X11443D01*
X10787Y12067D01*
Y10755D01*
X11443Y10099D01*
X12755D01*
X13411Y10755D01*
D58*
X136035Y198526D02*
Y192528D01*
X134036Y194527D01*
X132036Y192528D01*
Y198526D01*
X127038Y192528D02*
X129037D01*
X130037Y193528D01*
Y195527D01*
X129037Y196527D01*
X127038D01*
X126038Y195527D01*
Y194527D01*
X130037D01*
X120040Y198526D02*
Y192528D01*
X123039D01*
X124039Y193528D01*
Y195527D01*
X123039Y196527D01*
X120040D01*
X118041Y192528D02*
Y196527D01*
X115042D01*
X114042Y195527D01*
Y192528D01*
X109044D02*
X111043D01*
X112043Y193528D01*
Y195527D01*
X111043Y196527D01*
X109044D01*
X108044Y195527D01*
Y194527D01*
X112043D01*
X106045Y192528D02*
X103046D01*
X102046Y193528D01*
X103046Y194527D01*
X105045D01*
X106045Y195527D01*
X105045Y196527D01*
X102046D01*
X96048Y198526D02*
Y192528D01*
X99047D01*
X100047Y193528D01*
Y195527D01*
X99047Y196527D01*
X96048D01*
X93049D02*
X91050D01*
X90050Y195527D01*
Y192528D01*
X93049D01*
X94049Y193528D01*
X93049Y194527D01*
X90050D01*
X88051Y196527D02*
Y193528D01*
X87051Y192528D01*
X84052D01*
Y191528D01*
X85052Y190529D01*
X86051D01*
X84052Y192528D02*
Y196527D01*
X81053Y191528D02*
X80053Y192528D01*
Y193528D01*
X81053D01*
Y192528D01*
X80053D01*
X81053Y191528D01*
X82052Y190529D01*
X67057Y198526D02*
X69057D01*
X70056Y197526D01*
Y193528D01*
X69057Y192528D01*
X67057D01*
X66058Y193528D01*
Y197526D01*
X67057Y198526D01*
X60060Y196527D02*
X63059D01*
X64058Y195527D01*
Y193528D01*
X63059Y192528D01*
X60060D01*
X57061Y197526D02*
Y196527D01*
X58060D01*
X56061D01*
X57061D01*
Y193528D01*
X56061Y192528D01*
X52062D02*
X50063D01*
X49063Y193528D01*
Y195527D01*
X50063Y196527D01*
X52062D01*
X53062Y195527D01*
Y193528D01*
X52062Y192528D01*
X47064Y198526D02*
Y192528D01*
X44065D01*
X43065Y193528D01*
Y194527D01*
Y195527D01*
X44065Y196527D01*
X47064D01*
X38067Y192528D02*
X40066D01*
X41066Y193528D01*
Y195527D01*
X40066Y196527D01*
X38067D01*
X37067Y195527D01*
Y194527D01*
X41066D01*
X35068Y196527D02*
Y192528D01*
Y194527D01*
X34068Y195527D01*
X33068Y196527D01*
X32069D01*
X19073Y192528D02*
X23072D01*
X19073Y196527D01*
Y197526D01*
X20073Y198526D01*
X22072D01*
X23072Y197526D01*
X17074Y193528D02*
X16074Y192528D01*
X14074D01*
X13075Y193528D01*
Y197526D01*
X14074Y198526D01*
X16074D01*
X17074Y197526D01*
Y196527D01*
X16074Y195527D01*
X13075D01*
X70056Y185549D02*
X66058D01*
Y184550D01*
X70056Y180551D01*
Y179551D01*
X64058Y183550D02*
X63059D01*
Y182550D01*
X64058D01*
Y183550D01*
Y180551D02*
X63059D01*
Y179551D01*
X64058D01*
Y180551D01*
X59060Y184550D02*
X58060Y185549D01*
X56061D01*
X55061Y184550D01*
Y180551D01*
X56061Y179551D01*
X58060D01*
X59060Y180551D01*
Y184550D01*
X53062D02*
X52062Y185549D01*
X50063D01*
X49063Y184550D01*
Y180551D01*
X50063Y179551D01*
X52062D01*
X53062Y180551D01*
Y184550D01*
X47064Y179551D02*
Y185549D01*
X44065D01*
X43065Y184550D01*
Y182550D01*
X44065Y181551D01*
X47064D01*
X41066Y179551D02*
Y185549D01*
X39066Y183550D01*
X37067Y185549D01*
Y179551D01*
X29070Y184550D02*
X28070Y185549D01*
X26071D01*
X25071Y184550D01*
Y183550D01*
X27070Y181551D01*
Y180551D02*
Y179551D01*
X23072Y184550D02*
X22072Y185549D01*
X20073D01*
X19073Y184550D01*
Y183550D01*
X21072Y181551D01*
Y180551D02*
Y179551D01*
X17074Y184550D02*
X16074Y185549D01*
X14074D01*
X13075Y184550D01*
Y183550D01*
X15074Y181551D01*
Y180551D02*
Y179551D01*
X142033Y173573D02*
X143033Y174572D01*
X145032D01*
X146032Y173573D01*
Y172573D01*
X145032Y171573D01*
X143033D01*
X142033Y170573D01*
Y169574D01*
X143033Y168574D01*
X145032D01*
X146032Y169574D01*
X140034Y172573D02*
Y169574D01*
X139034Y168574D01*
X138034Y169574D01*
X137035Y168574D01*
X136035Y169574D01*
Y172573D01*
X131037Y168574D02*
X133036D01*
X134036Y169574D01*
Y171573D01*
X133036Y172573D01*
X131037D01*
X130037Y171573D01*
Y170573D01*
X134036D01*
X127038Y172573D02*
X125039D01*
X124039Y171573D01*
Y168574D01*
X127038D01*
X128038Y169574D01*
X127038Y170573D01*
X124039D01*
X121040Y173573D02*
Y172573D01*
X122040D01*
X120040D01*
X121040D01*
Y169574D01*
X120040Y168574D01*
X107044Y173573D02*
X108044Y174572D01*
X110043D01*
X111043Y173573D01*
Y172573D01*
X110043Y171573D01*
X108044D01*
X107044Y170573D01*
Y169574D01*
X108044Y168574D01*
X110043D01*
X111043Y169574D01*
X105045Y174572D02*
Y168574D01*
Y171573D01*
X104045Y172573D01*
X102046D01*
X101046Y171573D01*
Y168574D01*
X98047D02*
X96048D01*
X95048Y169574D01*
Y171573D01*
X96048Y172573D01*
X98047D01*
X99047Y171573D01*
Y169574D01*
X98047Y168574D01*
X93049Y166575D02*
Y172573D01*
X90050D01*
X89050Y171573D01*
Y169574D01*
X90050Y168574D01*
X93049D01*
X81053Y174572D02*
Y168574D01*
X78054D01*
X77054Y169574D01*
Y170573D01*
X78054Y171573D01*
X81053D01*
X78054D01*
X77054Y172573D01*
Y173573D01*
X78054Y174572D01*
X81053D01*
X75055Y172573D02*
Y168574D01*
Y170573D01*
X74055Y171573D01*
X73055Y172573D01*
X72056D01*
X66058Y168574D02*
X68057D01*
X69057Y169574D01*
Y171573D01*
X68057Y172573D01*
X66058D01*
X65058Y171573D01*
Y170573D01*
X69057D01*
X63059Y172573D02*
Y169574D01*
X62059Y168574D01*
X61059Y169574D01*
X60060Y168574D01*
X59060Y169574D01*
Y172573D01*
X51063Y174572D02*
Y168574D01*
Y170573D01*
X47064Y174572D01*
X50063Y171573D01*
X47064Y168574D01*
X45064D02*
X43065D01*
X44065D01*
Y172573D01*
X45064D01*
X39066Y173573D02*
Y172573D01*
X40066D01*
X38067D01*
X39066D01*
Y169574D01*
X38067Y168574D01*
X31069Y172573D02*
X34068D01*
X35068Y171573D01*
Y169574D01*
X34068Y168574D01*
X31069D01*
X29070Y174572D02*
Y168574D01*
Y171573D01*
X28070Y172573D01*
X26071D01*
X25071Y171573D01*
Y168574D01*
X20073D02*
X22072D01*
X23072Y169574D01*
Y171573D01*
X22072Y172573D01*
X20073D01*
X19073Y171573D01*
Y170573D01*
X23072D01*
X17074Y168574D02*
Y172573D01*
X14074D01*
X13075Y171573D01*
Y168574D01*
M02*
