G04*
G04 #@! TF.GenerationSoftware,Altium Limited,Altium Designer,25.8.1 (18)*
G04*
G04 Layer_Color=65535*
%FSLAX25Y25*%
%MOIN*%
G70*
G04*
G04 #@! TF.SameCoordinates,70397301-3752-4A3B-8FF2-FC9E58B5EE46*
G04*
G04*
G04 #@! TF.FilePolarity,Positive*
G04*
G01*
G75*
%ADD10C,0.01000*%
%ADD11C,0.00984*%
%ADD12C,0.00787*%
%ADD13C,0.00500*%
%ADD14C,0.00591*%
D10*
X161385Y158250D02*
X161263Y159221D01*
X160902Y160131D01*
X160327Y160923D01*
X159573Y161547D01*
X158687Y161964D01*
X157726Y162147D01*
X156749Y162086D01*
X155818Y161783D01*
X154991Y161259D01*
X154321Y160545D01*
X153849Y159687D01*
X153606Y158739D01*
Y157761D01*
X153849Y156813D01*
X154321Y155955D01*
X154991Y155241D01*
X155818Y154717D01*
X156749Y154414D01*
X157726Y154353D01*
X158687Y154536D01*
X159573Y154953D01*
X160327Y155577D01*
X160902Y156369D01*
X161263Y157279D01*
X161385Y158250D01*
X200755Y158250D02*
X200633Y159221D01*
X200272Y160131D01*
X199697Y160923D01*
X198943Y161547D01*
X198057Y161964D01*
X197096Y162147D01*
X196119Y162086D01*
X195188Y161783D01*
X194361Y161259D01*
X193691Y160545D01*
X193220Y159687D01*
X192976Y158739D01*
Y157761D01*
X193220Y156813D01*
X193691Y155955D01*
X194361Y155241D01*
X195188Y154717D01*
X196119Y154414D01*
X197096Y154353D01*
X198057Y154536D01*
X198943Y154953D01*
X199697Y155577D01*
X200272Y156369D01*
X200633Y157279D01*
X200755Y158250D01*
X151575Y151163D02*
X151846D01*
X156816D02*
X158145D01*
X163115D02*
X163386D01*
X156816Y165337D02*
X158145D01*
X163115D02*
X163386D01*
X151575Y151163D02*
Y165337D01*
X163386Y151163D02*
Y165337D01*
X151575D02*
X151846D01*
X190945D02*
X191216D01*
X202756Y151163D02*
Y165337D01*
X190945Y151163D02*
Y165337D01*
X202485D02*
X202756D01*
X196186D02*
X197515D01*
X202485Y151163D02*
X202756D01*
X196186D02*
X197515D01*
X190945D02*
X191216D01*
X281001Y168000D02*
Y170000D01*
X329928Y127929D02*
X330870D01*
X329928Y144070D02*
X330870D01*
X326267Y131496D02*
Y140503D01*
X335520Y130612D02*
Y141389D01*
Y132062D02*
X337000D01*
X335520Y139937D02*
X337000D01*
Y132062D02*
Y139937D01*
X239499Y144500D02*
Y146500D01*
Y147500D02*
Y149500D01*
X262500Y128499D02*
X264500D01*
X283501Y128000D02*
Y130000D01*
X287001Y109500D02*
Y111500D01*
X228717Y152102D02*
Y154102D01*
X234717Y171102D02*
Y173102D01*
X291001Y153000D02*
Y155000D01*
X289000Y138499D02*
X291000D01*
X285500D02*
X287500D01*
X281001Y132500D02*
Y134500D01*
X248500Y140999D02*
X250500D01*
X289971Y148879D02*
Y150879D01*
X263000Y171501D02*
X265000D01*
X128002Y193499D02*
X127002Y192499D01*
Y190500D01*
X128002Y189500D01*
X132000D01*
X133000Y190500D01*
Y192499D01*
X132000Y193499D01*
X130001D01*
Y191499D01*
X133000Y195498D02*
X127002D01*
Y198497D01*
X128002Y199497D01*
X130001D01*
X131001Y198497D01*
Y195498D01*
X127002Y201496D02*
Y203496D01*
Y202496D01*
X133000D01*
Y201496D01*
Y203496D01*
X127002Y209493D02*
Y207494D01*
X128002Y206494D01*
X132000D01*
X133000Y207494D01*
Y209493D01*
X132000Y210493D01*
X128002D01*
X127002Y209493D01*
X252624Y82804D02*
X251624Y83803D01*
Y85803D01*
X252624Y86803D01*
X256622D01*
X257622Y85803D01*
Y83803D01*
X256622Y82804D01*
X252624D01*
X268122Y84303D02*
Y86303D01*
Y85303D01*
X262124D01*
X263124Y84303D01*
X283123Y82304D02*
X282123Y83304D01*
Y85303D01*
X283123Y86303D01*
X284122D01*
X285122Y85303D01*
Y84304D01*
Y85303D01*
X286122Y86303D01*
X287121D01*
X288121Y85303D01*
Y83304D01*
X287121Y82304D01*
X278121Y86303D02*
Y82304D01*
X274122Y86303D01*
X273123D01*
X272123Y85303D01*
Y83304D01*
X273123Y82304D01*
X97501Y196501D02*
X96501Y195502D01*
Y193502D01*
X97501Y192503D01*
X101499D01*
X102499Y193502D01*
Y195502D01*
X101499Y196501D01*
X99500D01*
Y194502D01*
X102499Y198501D02*
X96501D01*
X102499Y202499D01*
X96501D01*
Y204499D02*
X102499D01*
Y207498D01*
X101499Y208497D01*
X97501D01*
X96501Y207498D01*
Y204499D01*
X298001Y192503D02*
X297001Y193502D01*
Y195502D01*
X298001Y196501D01*
X299000D01*
X300000Y195502D01*
Y194502D01*
Y195502D01*
X301000Y196501D01*
X301999D01*
X302999Y195502D01*
Y193502D01*
X301999Y192503D01*
X297001Y198501D02*
X301000D01*
X302999Y200500D01*
X301000Y202499D01*
X297001D01*
X298001Y204499D02*
X297001Y205498D01*
Y207498D01*
X298001Y208497D01*
X299000D01*
X300000Y207498D01*
Y206498D01*
Y207498D01*
X301000Y208497D01*
X301999D01*
X302999Y207498D01*
Y205498D01*
X301999Y204499D01*
X247499Y85806D02*
X243500D01*
X241501Y87805D01*
X243500Y89804D01*
X247499D01*
X244500D01*
Y85806D01*
X241501Y91804D02*
X247499D01*
Y94803D01*
X246499Y95802D01*
X242501D01*
X241501Y94803D01*
Y91804D01*
X242501Y101801D02*
X241501Y100801D01*
Y98801D01*
X242501Y97802D01*
X246499D01*
X247499Y98801D01*
Y100801D01*
X246499Y101801D01*
D11*
X201655Y130776D02*
X200917Y131202D01*
Y130350D01*
X201655Y130776D01*
Y118539D02*
X200917Y118965D01*
Y118113D01*
X201655Y118539D01*
X188530Y130776D02*
X187792Y131202D01*
Y130350D01*
X188530Y130776D01*
Y118539D02*
X187792Y118965D01*
Y118113D01*
X188530Y118539D01*
X161375Y106368D02*
X160636Y106795D01*
Y105942D01*
X161375Y106368D01*
X188530Y106302D02*
X187792Y106728D01*
Y105876D01*
X188530Y106302D01*
X175000Y106368D02*
X174261Y106795D01*
Y105942D01*
X175000Y106368D01*
X147750D02*
X147011Y106795D01*
Y105942D01*
X147750Y106368D01*
X201655Y81828D02*
X200917Y82254D01*
Y81402D01*
X201655Y81828D01*
X188530D02*
X187792Y82254D01*
Y81402D01*
X188530Y81828D01*
X201655Y106302D02*
X200917Y106728D01*
Y105876D01*
X201655Y106302D01*
Y94065D02*
X200917Y94491D01*
Y93639D01*
X201655Y94065D01*
X188530D02*
X187792Y94491D01*
Y93639D01*
X188530Y94065D01*
X147750Y130842D02*
X147011Y131269D01*
Y130416D01*
X147750Y130842D01*
X175000D02*
X174261Y131269D01*
Y130416D01*
X175000Y130842D01*
X161375D02*
X160636Y131269D01*
Y130416D01*
X161375Y130842D01*
X175000Y118605D02*
X174261Y119032D01*
Y118179D01*
X175000Y118605D01*
X147750D02*
X147011Y119032D01*
Y118179D01*
X147750Y118605D01*
X161375D02*
X160636Y119032D01*
Y118179D01*
X161375Y118605D01*
X175000Y81894D02*
X174261Y82321D01*
Y81468D01*
X175000Y81894D01*
X161375D02*
X160636Y82321D01*
Y81468D01*
X161375Y81894D01*
X147750D02*
X147011Y82321D01*
Y81468D01*
X147750Y81894D01*
X175000Y94131D02*
X174261Y94558D01*
Y93705D01*
X175000Y94131D01*
X147750D02*
X147011Y94558D01*
Y93705D01*
X147750Y94131D01*
X161375D02*
X160636Y94558D01*
Y93705D01*
X161375Y94131D01*
D12*
X241610Y170602D02*
X240823D01*
X241610D01*
X283394Y166000D02*
X282606D01*
X283394D01*
X303772Y93394D02*
X302984D01*
X303772D01*
X297601Y96298D02*
X303399D01*
X297601Y101702D02*
X303399D01*
X325000Y190000D02*
Y210000D01*
X305000D02*
X325000D01*
X305000Y190000D02*
X325000D01*
X305000D02*
Y210000D01*
X210290Y72344D02*
X211562D01*
X210290Y80746D02*
Y83762D01*
Y72344D02*
Y75360D01*
Y83762D02*
X211562D01*
X215408Y77006D02*
Y79100D01*
X290122Y88803D02*
Y98803D01*
X250122Y88803D02*
X290122D01*
X250122Y98803D02*
X290122D01*
X250122Y88803D02*
Y98803D01*
X190828Y133827D02*
X197915D01*
X190828Y127725D02*
X197915D01*
X210269Y128844D02*
X211541D01*
X210269Y137246D02*
Y140262D01*
Y128844D02*
Y131860D01*
Y140262D02*
X211541D01*
X215387Y133506D02*
Y135600D01*
X210290Y114799D02*
X211562D01*
X210290Y123200D02*
Y126216D01*
Y114799D02*
Y117815D01*
Y126216D02*
X211562D01*
X215408Y119460D02*
Y121555D01*
X210290Y100593D02*
X211562D01*
X210290Y108995D02*
Y112011D01*
Y100593D02*
Y103609D01*
Y112011D02*
X211562D01*
X215408Y105255D02*
Y107349D01*
X210290Y86388D02*
X211562D01*
X210290Y94789D02*
Y97805D01*
Y86388D02*
Y89403D01*
Y97805D02*
X211562D01*
X215408Y91049D02*
Y93144D01*
X190828Y121590D02*
X197915D01*
X190828Y115488D02*
X197915D01*
X177703Y133827D02*
X184790D01*
X177703Y127725D02*
X184790D01*
X177703Y121590D02*
X184790D01*
X177703Y115488D02*
X184790D01*
X150548Y109420D02*
X157634D01*
X150548Y103317D02*
X157634D01*
X177703Y109353D02*
X184790D01*
X177703Y103251D02*
X184790D01*
X164173Y109420D02*
X171259D01*
X164173Y103317D02*
X171259D01*
X136923Y109420D02*
X144009D01*
X136923Y103317D02*
X144009D01*
X190828Y84879D02*
X197915D01*
X190828Y78777D02*
X197915D01*
X177703Y84879D02*
X184790D01*
X177703Y78777D02*
X184790D01*
X190828Y109353D02*
X197915D01*
X190828Y103251D02*
X197915D01*
X190828Y97116D02*
X197915D01*
X190828Y91014D02*
X197915D01*
X177703Y97116D02*
X184790D01*
X177703Y91014D02*
X184790D01*
X136923Y133894D02*
X144009D01*
X136923Y127791D02*
X144009D01*
X164173Y133894D02*
X171259D01*
X164173Y127791D02*
X171259D01*
X150548Y133894D02*
X157634D01*
X150548Y127791D02*
X157634D01*
X164173Y121657D02*
X171259D01*
X164173Y115554D02*
X171259D01*
X136923Y121657D02*
X144009D01*
X136923Y115554D02*
X144009D01*
X150548Y121657D02*
X157634D01*
X150548Y115554D02*
X157634D01*
X164173Y84945D02*
X171259D01*
X164173Y78843D02*
X171259D01*
X150548Y84945D02*
X157634D01*
X150548Y78843D02*
X157634D01*
X136923Y84945D02*
X144009D01*
X136923Y78843D02*
X144009D01*
X164173Y97183D02*
X171259D01*
X164173Y91080D02*
X171259D01*
X136923Y97183D02*
X144009D01*
X136923Y91080D02*
X144009D01*
X150548Y97183D02*
X157634D01*
X150548Y91080D02*
X157634D01*
X135000Y210000D02*
X295000D01*
X135000Y190000D02*
X295000D01*
Y210000D01*
X135000Y190000D02*
Y210000D01*
X105000Y190000D02*
Y210000D01*
Y190000D02*
X125000D01*
X105000Y210000D02*
X125000D01*
Y190000D02*
Y210000D01*
X303756Y148067D02*
X323244D01*
X303756D02*
Y168933D01*
X323244D01*
Y148067D02*
Y168933D01*
X297601Y107298D02*
X303399D01*
X297601Y112702D02*
X303399D01*
X314101Y147702D02*
X319899D01*
X314101Y142298D02*
X319899D01*
X297601Y112798D02*
X303399D01*
X297601Y118202D02*
X303399D01*
X297601Y101798D02*
X303399D01*
X297601Y107202D02*
X303399D01*
X230000Y112500D02*
Y142500D01*
Y112500D02*
X240000D01*
Y142500D01*
X230000D02*
X240000D01*
X236818Y150298D02*
X242615D01*
X236818Y155702D02*
X242615D01*
X305818Y142298D02*
X311615D01*
X305818Y147702D02*
X311615D01*
X312164Y126787D02*
X315444D01*
X316100Y127443D01*
Y128755D01*
X315444Y129411D01*
X312164D01*
X312820Y133347D02*
X312164Y132691D01*
Y131379D01*
X312820Y130723D01*
X313476D01*
X314132Y131379D01*
Y132691D01*
X314788Y133347D01*
X315444D01*
X316100Y132691D01*
Y131379D01*
X315444Y130723D01*
X312164Y134659D02*
X316100D01*
Y136627D01*
X315444Y137283D01*
X314788D01*
X314132Y136627D01*
Y134659D01*
Y136627D01*
X313476Y137283D01*
X312820D01*
X312164Y136627D01*
Y134659D01*
X322713Y126787D02*
X318777D01*
Y128755D01*
X319433Y129411D01*
X320745D01*
X321401Y128755D01*
Y126787D01*
X322713Y130723D02*
X318777D01*
Y132691D01*
X319433Y133347D01*
X320745D01*
X321401Y132691D01*
Y130723D01*
Y132035D02*
X322713Y133347D01*
X318777Y136627D02*
Y135315D01*
X319433Y134659D01*
X322057D01*
X322713Y135315D01*
Y136627D01*
X322057Y137283D01*
X319433D01*
X318777Y136627D01*
X319433Y141218D02*
X318777Y140562D01*
Y139251D01*
X319433Y138595D01*
X322057D01*
X322713Y139251D01*
Y140562D01*
X322057Y141218D01*
X320745D01*
Y139907D01*
X166195Y153986D02*
X165539Y153330D01*
Y152018D01*
X166195Y151363D01*
X168819D01*
X169475Y152018D01*
Y153330D01*
X168819Y153986D01*
X167507D01*
Y152674D01*
X169475Y155298D02*
X165539D01*
Y157266D01*
X166195Y157922D01*
X167507D01*
X168163Y157266D01*
Y155298D01*
X169475Y159234D02*
Y160546D01*
Y159890D01*
X165539D01*
X166195Y159234D01*
X165539Y165138D02*
Y162514D01*
X167507D01*
X166851Y163826D01*
Y164482D01*
X167507Y165138D01*
X168819D01*
X169475Y164482D01*
Y163170D01*
X168819Y162514D01*
X205433Y153986D02*
X204777Y153330D01*
Y152018D01*
X205433Y151363D01*
X208057D01*
X208713Y152018D01*
Y153330D01*
X208057Y153986D01*
X206745D01*
Y152674D01*
X208713Y155298D02*
X204777D01*
Y157266D01*
X205433Y157922D01*
X206745D01*
X207401Y157266D01*
Y155298D01*
X208713Y159234D02*
Y160546D01*
Y159890D01*
X204777D01*
X205433Y159234D01*
X208713Y164482D02*
X204777D01*
X206745Y162514D01*
Y165138D01*
X142000Y180806D02*
Y182118D01*
Y181462D01*
X138065D01*
X138721Y180806D01*
X138065Y186710D02*
Y184086D01*
X140032D01*
X139377Y185398D01*
Y186054D01*
X140032Y186710D01*
X141344D01*
X142000Y186054D01*
Y184742D01*
X141344Y184086D01*
X152000Y180806D02*
Y182118D01*
Y181462D01*
X148065D01*
X148721Y180806D01*
X152000Y186054D02*
X148065D01*
X150032Y184086D01*
Y186710D01*
X162000Y180806D02*
Y182118D01*
Y181462D01*
X158065D01*
X158721Y180806D01*
Y184086D02*
X158065Y184742D01*
Y186054D01*
X158721Y186710D01*
X159377D01*
X160032Y186054D01*
Y185398D01*
Y186054D01*
X160688Y186710D01*
X161344D01*
X162000Y186054D01*
Y184742D01*
X161344Y184086D01*
X172000Y180806D02*
Y182118D01*
Y181462D01*
X168065D01*
X168721Y180806D01*
X172000Y186710D02*
Y184086D01*
X169377Y186710D01*
X168721D01*
X168065Y186054D01*
Y184742D01*
X168721Y184086D01*
X182012Y181621D02*
Y182933D01*
Y182277D01*
X178077D01*
X178733Y181621D01*
X182012Y184901D02*
Y186213D01*
Y185557D01*
X178077D01*
X178733Y184901D01*
X192000Y180806D02*
Y182118D01*
Y181462D01*
X188065D01*
X188721Y180806D01*
Y184086D02*
X188065Y184742D01*
Y186054D01*
X188721Y186710D01*
X191344D01*
X192000Y186054D01*
Y184742D01*
X191344Y184086D01*
X188721D01*
X201028Y184088D02*
X201684Y184743D01*
Y186055D01*
X201028Y186711D01*
X198404D01*
X197748Y186055D01*
Y184743D01*
X198404Y184088D01*
X199060D01*
X199716Y184743D01*
Y186711D01*
X208404Y184088D02*
X207748Y184743D01*
Y186055D01*
X208404Y186711D01*
X209060D01*
X209716Y186055D01*
X210372Y186711D01*
X211028D01*
X211684Y186055D01*
Y184743D01*
X211028Y184088D01*
X210372D01*
X209716Y184743D01*
X209060Y184088D01*
X208404D01*
X209716Y184743D02*
Y186055D01*
X217748Y184088D02*
Y186711D01*
X218404D01*
X221028Y184088D01*
X221684D01*
X227748Y186711D02*
X228404Y185399D01*
X229716Y184088D01*
X231028D01*
X231684Y184743D01*
Y186055D01*
X231028Y186711D01*
X230372D01*
X229716Y186055D01*
Y184088D01*
X237748Y186711D02*
Y184088D01*
X239716D01*
X239060Y185399D01*
Y186055D01*
X239716Y186711D01*
X241028D01*
X241684Y186055D01*
Y184743D01*
X241028Y184088D01*
X251684Y186055D02*
X247748D01*
X249716Y184088D01*
Y186711D01*
X258404Y184088D02*
X257748Y184743D01*
Y186055D01*
X258404Y186711D01*
X259060D01*
X259716Y186055D01*
Y185399D01*
Y186055D01*
X260372Y186711D01*
X261028D01*
X261684Y186055D01*
Y184743D01*
X261028Y184088D01*
X271684Y186711D02*
Y184088D01*
X269060Y186711D01*
X268404D01*
X267748Y186055D01*
Y184743D01*
X268404Y184088D01*
X281931Y184901D02*
Y186213D01*
Y185557D01*
X277995D01*
X278651Y184901D01*
X288404Y184088D02*
X287748Y184743D01*
Y186055D01*
X288404Y186711D01*
X291028D01*
X291684Y186055D01*
Y184743D01*
X291028Y184088D01*
X288404D01*
X185938Y155376D02*
X185282Y154720D01*
Y153408D01*
X185938Y152752D01*
X186594D01*
X187250Y153408D01*
Y154720D01*
X187906Y155376D01*
X188562D01*
X189218Y154720D01*
Y153408D01*
X188562Y152752D01*
X185282Y156688D02*
X189218D01*
X187906Y158000D01*
X189218Y159312D01*
X185282D01*
X189218Y163248D02*
Y160624D01*
X186594Y163248D01*
X185938D01*
X185282Y162592D01*
Y161280D01*
X185938Y160624D01*
X146938Y156282D02*
X146282Y155626D01*
Y154314D01*
X146938Y153658D01*
X147594D01*
X148250Y154314D01*
Y155626D01*
X148906Y156282D01*
X149562D01*
X150218Y155626D01*
Y154314D01*
X149562Y153658D01*
X146282Y157594D02*
X150218D01*
X148906Y158906D01*
X150218Y160218D01*
X146282D01*
X150218Y161530D02*
Y162842D01*
Y162186D01*
X146282D01*
X146938Y161530D01*
X245532Y159876D02*
X246188D01*
X247500Y161188D01*
X246188Y162500D01*
X245532D01*
X247500Y161188D02*
X249468D01*
Y163812D02*
Y165124D01*
Y164468D01*
X245532D01*
X246188Y163812D01*
X254532Y126376D02*
X257812D01*
X258468Y127032D01*
Y128344D01*
X257812Y129000D01*
X254532D01*
X258468Y130312D02*
Y131624D01*
Y130968D01*
X254532D01*
X255188Y130312D01*
X224032Y118317D02*
X227968D01*
Y120284D01*
X227312Y120940D01*
X224688D01*
X224032Y120284D01*
Y118317D01*
Y124876D02*
Y122252D01*
X227968D01*
Y124876D01*
X226000Y122252D02*
Y123564D01*
X224032Y126188D02*
X227968D01*
Y128156D01*
X227312Y128812D01*
X226656D01*
X226000Y128156D01*
Y126188D01*
Y128156D01*
X225344Y128812D01*
X224688D01*
X224032Y128156D01*
Y126188D01*
Y130124D02*
X227312D01*
X227968Y130780D01*
Y132092D01*
X227312Y132748D01*
X224032D01*
X224688Y136683D02*
X224032Y136027D01*
Y134715D01*
X224688Y134060D01*
X227312D01*
X227968Y134715D01*
Y136027D01*
X227312Y136683D01*
X226000D01*
Y135371D01*
D13*
X321832Y151020D02*
X321467Y151900D01*
X320587Y152265D01*
X319706Y151900D01*
X319342Y151020D01*
X319706Y150139D01*
X320587Y149775D01*
X321467Y150139D01*
X321832Y151020D01*
X321467D02*
X321027Y151782D01*
X320146D01*
X319706Y151020D01*
X320146Y150257D01*
X321027D01*
X321467Y151020D01*
X321143D02*
X320308Y151502D01*
Y150538D01*
X321143Y151020D01*
X320980D02*
X320193D01*
X320980D01*
Y151413D02*
X320193D01*
X320980D01*
X328554Y148264D02*
X328113Y149026D01*
X327233D01*
X326793Y148264D01*
X327233Y147501D01*
X328113D01*
X328554Y148264D01*
X327673D02*
X326886D01*
X327673D01*
X328067D02*
X327279D01*
X328067D01*
X254256Y137331D02*
Y139220D01*
X281815Y137331D02*
Y139220D01*
X254256Y163000D02*
Y164890D01*
X281815Y163000D02*
Y164890D01*
X254256Y137331D02*
X256146D01*
X279925D02*
X281815D01*
X254256Y164890D02*
X256146D01*
X279925D02*
X281815D01*
X290250Y117177D02*
Y121327D01*
X287250Y117177D02*
X290250D01*
X278750D02*
X281750D01*
X278750D02*
Y121327D01*
X331921Y88394D02*
X337236D01*
X331921Y123591D02*
X337236D01*
Y88394D02*
Y123591D01*
X316173Y88394D02*
X322079D01*
X316173Y123591D02*
X322079D01*
D14*
X305591Y167616D02*
Y165648D01*
X306246Y166304D01*
X306902Y165648D01*
Y167616D01*
X307558D02*
Y165648D01*
Y166632D01*
X307886Y166960D01*
X308542D01*
X308870Y166632D01*
Y165648D01*
X309854Y166960D02*
X310510D01*
X310838Y166632D01*
Y165648D01*
X309854D01*
X309526Y165976D01*
X309854Y166304D01*
X310838D01*
X311822Y167288D02*
Y166960D01*
X311494D01*
X312150D01*
X311822D01*
Y165976D01*
X312150Y165648D01*
X315102Y166960D02*
Y165648D01*
Y166304D01*
X315430Y166632D01*
X315758Y166960D01*
X316086D01*
X319038D02*
Y165976D01*
X319366Y165648D01*
X320350D01*
Y166960D01*
X306902Y163837D02*
Y161869D01*
X305919D01*
X305591Y162197D01*
Y162853D01*
X305919Y163181D01*
X306902D01*
X307886Y161869D02*
X308542D01*
X308870Y162197D01*
Y162853D01*
X308542Y163181D01*
X307886D01*
X307558Y162853D01*
Y162197D01*
X307886Y161869D01*
X309526D02*
X310182D01*
X309854D01*
Y163181D01*
X309526D01*
X311166Y161869D02*
Y163181D01*
X312150D01*
X312478Y162853D01*
Y161869D01*
X315102D02*
X315758D01*
X315430D01*
Y163181D01*
X315102D01*
X316742Y161869D02*
Y163181D01*
X317726D01*
X318054Y162853D01*
Y161869D01*
X305591Y160058D02*
Y158090D01*
Y159074D01*
X305919Y159402D01*
X306575D01*
X306902Y159074D01*
Y158090D01*
X308542D02*
X307886D01*
X307558Y158419D01*
Y159074D01*
X307886Y159402D01*
X308542D01*
X308870Y159074D01*
Y158747D01*
X307558D01*
X309526Y159402D02*
Y158090D01*
Y158747D01*
X309854Y159074D01*
X310182Y159402D01*
X310510D01*
X312478Y158090D02*
X311822D01*
X311494Y158419D01*
Y159074D01*
X311822Y159402D01*
X312478D01*
X312806Y159074D01*
Y158747D01*
X311494D01*
X313462Y159730D02*
X313790Y160058D01*
X314446D01*
X314774Y159730D01*
Y159402D01*
X314118Y158747D01*
Y158419D02*
Y158090D01*
M02*
