G04*
G04 #@! TF.GenerationSoftware,Altium Limited,Altium Designer,25.8.1 (18)*
G04*
G04 Layer_Color=16711935*
%FSLAX25Y25*%
%MOIN*%
G70*
G04*
G04 #@! TF.SameCoordinates,24556F7F-BEDA-4819-8607-D1A4BCCC43C2*
G04*
G04*
G04 #@! TF.FilePolarity,Positive*
G04*
G01*
G75*
%ADD13C,0.01000*%
%ADD69C,0.00100*%
G36*
X331780Y131177D02*
X331486D01*
X330943Y131402D01*
X330528Y131817D01*
X330303Y132360D01*
Y132947D01*
X330528Y133490D01*
X330943Y133905D01*
X331486Y134130D01*
X331780D01*
X332073D01*
X332616Y133905D01*
X333031Y133490D01*
X333256Y132947D01*
Y132360D01*
X333031Y131817D01*
X332616Y131402D01*
X332073Y131177D01*
X331780D01*
D01*
D01*
D02*
G37*
G36*
Y137869D02*
X331486D01*
X330943Y138094D01*
X330528Y138509D01*
X330303Y139052D01*
Y139639D01*
X330528Y140182D01*
X330943Y140597D01*
X331486Y140822D01*
X331780D01*
X332073D01*
X332616Y140597D01*
X333031Y140182D01*
X333256Y139639D01*
Y139052D01*
X333031Y138509D01*
X332616Y138094D01*
X332073Y137869D01*
X331780D01*
D01*
D01*
D02*
G37*
D13*
X25000Y133228D02*
X24923Y134206D01*
X24694Y135160D01*
X24319Y136066D01*
X23806Y136902D01*
X23169Y137648D01*
X22424Y138285D01*
X21587Y138797D01*
X20681Y139172D01*
X19728Y139401D01*
X18750Y139478D01*
Y73041D02*
X19728Y73118D01*
X20681Y73347D01*
X21587Y73723D01*
X22424Y74235D01*
X23169Y74872D01*
X23806Y75618D01*
X24319Y76454D01*
X24694Y77360D01*
X24923Y78314D01*
X25000Y79291D01*
X18750Y139478D02*
X17772Y139401D01*
X16819Y139172D01*
X15913Y138797D01*
X15076Y138285D01*
X14331Y137648D01*
X13694Y136902D01*
X13181Y136066D01*
X12806Y135160D01*
X12577Y134206D01*
X12500Y133228D01*
Y79291D02*
X12577Y78314D01*
X12806Y77360D01*
X13181Y76454D01*
X13694Y75618D01*
X14331Y74872D01*
X15076Y74235D01*
X15913Y73723D01*
X16819Y73347D01*
X17772Y73118D01*
X18750Y73041D01*
X25000Y79291D02*
Y133228D01*
X12500Y79291D02*
Y133228D01*
D69*
X333256Y139346D02*
X332910Y140295D01*
X332036Y140799D01*
X331041Y140624D01*
X330392Y139850D01*
Y138840D01*
X331041Y138067D01*
X332036Y137891D01*
X332910Y138397D01*
X333256Y139346D01*
Y132653D02*
X332910Y133602D01*
X332036Y134107D01*
X331041Y133932D01*
X330392Y133159D01*
Y132149D01*
X331041Y131375D01*
X332036Y131200D01*
X332910Y131704D01*
X333256Y132653D01*
M02*
