M48
;Layer_Color=9474304
;FILE_FORMAT=2:4
INCH,TZ
;TYPE=PLATED
T01F00S00C0.0118
T03F00S00C0.0354
;TYPE=NON_PLATED
T04F00S00C0.0276
%
T01
X965Y324
X14575Y8183
Y9406
Y10630
Y11854
Y13078
X15940
Y11854
Y10630
Y9406
Y8183
X17298
Y9406
Y10630
Y11854
Y13078
X18644
Y11854
Y10630
Y9406
Y8183
X19962
Y9406
Y10630
Y11854
Y13078
X22000Y12425
Y13829
X22642Y14700
X23500
X24950Y13600
X26369Y12411
X28076Y12033
X28450Y12050
X28900Y11350
X29642Y11544
X29643Y9894
X28908Y12900
X29000Y13350
X28650
X27827Y14087
Y14875
Y15393
X27555Y15396
X26804Y15111
X25800Y15500
X29514Y15402
X29447Y14998
X23900Y9776
X22000Y9584
Y8179
Y11004
X33216Y14524
X33400Y17300
X32200Y16600
X33350Y20300
X30000Y19000
X28600Y17200
Y16900
X28078Y17215
X27500Y15950
X26400Y17600
X22892Y17203
X23650Y16200
X19998Y15825
X19370
X20000Y17746
X15433Y15825
X965Y20928
T03
X25512Y9380
X26512
X27512
X28512
X23500Y11750
Y12750
Y13750
X32000Y19500
Y20500
X31000
Y19500
X29000
X28000
X27000
X26000
X25000
X24000
X23000
X22000
X21000
X20000
X19000
X18000
X17000
X16000
Y20500
X17000
X18000
X19000
X20000
X21000
X22000
X23000
X24000
X25000
X26000
X27000
X28000
X29000
X15000
X14000
Y19500
X15000
X12000
X11000
Y20500
X12000
T04
X31263Y9461
Y11737
M30
