G04*
G04 #@! TF.GenerationSoftware,Altium Limited,Altium Designer,25.8.1 (18)*
G04*
G04 Layer_Color=255*
%FSLAX25Y25*%
%MOIN*%
G70*
G04*
G04 #@! TF.SameCoordinates,24556F7F-BEDA-4819-8607-D1A4BCCC43C2*
G04*
G04*
G04 #@! TF.FilePolarity,Positive*
G04*
G01*
G75*
%ADD17R,0.04724X0.02559*%
%ADD18C,0.00827*%
%ADD19C,0.00827*%
%ADD20R,0.02230X0.02254*%
%ADD21R,0.03150X0.03150*%
%ADD22R,0.03543X0.02756*%
%ADD23R,0.02165X0.02165*%
%ADD24O,0.06299X0.02362*%
%ADD25R,0.02165X0.02165*%
%ADD26R,0.04528X0.02362*%
%ADD27R,0.04000X0.04724*%
%ADD28R,0.05512X0.04724*%
G04:AMPARAMS|DCode=30|XSize=7.87mil|YSize=33.07mil|CornerRadius=0.98mil|HoleSize=0mil|Usage=FLASHONLY|Rotation=270.000|XOffset=0mil|YOffset=0mil|HoleType=Round|Shape=RoundedRectangle|*
%AMROUNDEDRECTD30*
21,1,0.00787,0.03110,0,0,270.0*
21,1,0.00591,0.03307,0,0,270.0*
1,1,0.00197,-0.01555,-0.00295*
1,1,0.00197,-0.01555,0.00295*
1,1,0.00197,0.01555,0.00295*
1,1,0.00197,0.01555,-0.00295*
%
%ADD30ROUNDEDRECTD30*%
G04:AMPARAMS|DCode=31|XSize=33.07mil|YSize=7.87mil|CornerRadius=0.98mil|HoleSize=0mil|Usage=FLASHONLY|Rotation=270.000|XOffset=0mil|YOffset=0mil|HoleType=Round|Shape=RoundedRectangle|*
%AMROUNDEDRECTD31*
21,1,0.03307,0.00591,0,0,270.0*
21,1,0.03110,0.00787,0,0,270.0*
1,1,0.00197,-0.00295,-0.01555*
1,1,0.00197,-0.00295,0.01555*
1,1,0.00197,0.00295,0.01555*
1,1,0.00197,0.00295,-0.01555*
%
%ADD31ROUNDEDRECTD31*%
%ADD32R,0.04528X0.01181*%
%ADD57R,0.12205X0.12205*%
%ADD60O,0.07284X0.04134*%
%ADD61O,0.08465X0.04134*%
%ADD62O,0.07874X0.05906*%
%ADD63R,0.07874X0.05906*%
%ADD64C,0.05906*%
%ADD65R,0.05906X0.05906*%
%ADD66C,0.02756*%
%ADD67R,0.05906X0.05906*%
D17*
X326661Y129306D02*
D03*
Y142692D02*
D03*
D18*
X334338Y144366D02*
D03*
D19*
Y127635D02*
D03*
D20*
X318783Y145000D02*
D03*
X298716Y115500D02*
D03*
X299151Y99000D02*
D03*
X306933Y145000D02*
D03*
X315216D02*
D03*
X310500D02*
D03*
X298716Y110000D02*
D03*
X302284D02*
D03*
Y115500D02*
D03*
X298716Y104500D02*
D03*
X302284D02*
D03*
X237933Y153000D02*
D03*
X241500D02*
D03*
X302718Y99000D02*
D03*
D21*
X268528Y9336D02*
D03*
X274433D02*
D03*
X247278Y58351D02*
D03*
X241372D02*
D03*
X274433Y58284D02*
D03*
X268528D02*
D03*
X227747Y9403D02*
D03*
X233653D02*
D03*
X268528Y46047D02*
D03*
X274433D02*
D03*
X287558Y58284D02*
D03*
X281653D02*
D03*
X247278Y21640D02*
D03*
X241372D02*
D03*
X287558Y9336D02*
D03*
X281653D02*
D03*
X233653Y58351D02*
D03*
X227747D02*
D03*
X268528Y33810D02*
D03*
X274433D02*
D03*
X241372Y9403D02*
D03*
X247278D02*
D03*
X281653Y33810D02*
D03*
X287558D02*
D03*
X274433Y21573D02*
D03*
X268528D02*
D03*
X254997Y9403D02*
D03*
X260903D02*
D03*
Y21640D02*
D03*
X254997D02*
D03*
X227747Y46114D02*
D03*
X233653D02*
D03*
Y21640D02*
D03*
X227747D02*
D03*
Y33877D02*
D03*
X233653D02*
D03*
X241372Y46114D02*
D03*
X247278D02*
D03*
X241372Y33877D02*
D03*
X247278D02*
D03*
X260903Y58351D02*
D03*
X254997D02*
D03*
X287558Y21573D02*
D03*
X281653D02*
D03*
X254997Y46114D02*
D03*
X260903D02*
D03*
X281653Y46047D02*
D03*
X287558D02*
D03*
X254997Y33877D02*
D03*
X260903D02*
D03*
D22*
X273462Y64903D02*
D03*
X268344D02*
D03*
X260056Y64969D02*
D03*
X254938D02*
D03*
X286962Y64903D02*
D03*
X281844D02*
D03*
X246556Y64969D02*
D03*
X241438D02*
D03*
X233056D02*
D03*
X227938D02*
D03*
D23*
X237200Y145500D02*
D03*
X241800D02*
D03*
X237200Y148500D02*
D03*
X241800D02*
D03*
X293300Y154000D02*
D03*
X292270Y149879D02*
D03*
X289300Y110500D02*
D03*
X283300Y169000D02*
D03*
X232417Y172102D02*
D03*
X285800Y129000D02*
D03*
X226416Y153102D02*
D03*
X287670Y149879D02*
D03*
X278700Y169000D02*
D03*
X281200Y129000D02*
D03*
X288700Y154000D02*
D03*
X284700Y110500D02*
D03*
X237017Y172102D02*
D03*
X231016Y153102D02*
D03*
D24*
X327673Y166000D02*
D03*
X299327Y151000D02*
D03*
Y161000D02*
D03*
Y156000D02*
D03*
X327673D02*
D03*
Y161000D02*
D03*
X299327Y166000D02*
D03*
X327673Y151000D02*
D03*
D25*
X299500Y143300D02*
D03*
X290000Y136200D02*
D03*
X264098Y179953D02*
D03*
X286500Y136200D02*
D03*
X263500Y126200D02*
D03*
X249500Y138700D02*
D03*
X299500D02*
D03*
X286500Y140800D02*
D03*
X264098Y175353D02*
D03*
X263500Y130800D02*
D03*
X249500Y143300D02*
D03*
X290000Y140800D02*
D03*
D26*
X308398Y118591D02*
D03*
Y93394D02*
D03*
Y96543D02*
D03*
Y115441D02*
D03*
D27*
X288240Y124500D02*
D03*
X280760D02*
D03*
X284500Y116154D02*
D03*
D28*
X230886Y165949D02*
D03*
X239547Y159256D02*
D03*
X230886D02*
D03*
X239547Y165949D02*
D03*
D30*
X254512Y155047D02*
D03*
X281559Y150323D02*
D03*
Y148748D02*
D03*
Y142449D02*
D03*
Y140874D02*
D03*
X254512Y150323D02*
D03*
Y144024D02*
D03*
X281559Y151898D02*
D03*
Y144024D02*
D03*
X254512Y148748D02*
D03*
Y140874D02*
D03*
Y142449D02*
D03*
X281559Y161346D02*
D03*
Y145598D02*
D03*
X254512Y153472D02*
D03*
X281559Y147173D02*
D03*
X254512Y145598D02*
D03*
Y147173D02*
D03*
Y151898D02*
D03*
Y156622D02*
D03*
Y158197D02*
D03*
Y159772D02*
D03*
Y161346D02*
D03*
X281559Y156622D02*
D03*
Y158197D02*
D03*
Y159772D02*
D03*
Y153472D02*
D03*
Y155047D02*
D03*
D31*
X278272Y164634D02*
D03*
X264098D02*
D03*
X278272Y137587D02*
D03*
X264098D02*
D03*
X265673D02*
D03*
X260949D02*
D03*
X270398D02*
D03*
X268823D02*
D03*
X257799D02*
D03*
X262524D02*
D03*
X267248D02*
D03*
X259374D02*
D03*
X273547D02*
D03*
X275122D02*
D03*
X276697D02*
D03*
X271972D02*
D03*
X257799Y164634D02*
D03*
X259374D02*
D03*
X260949D02*
D03*
X265673D02*
D03*
X267248D02*
D03*
X270398D02*
D03*
X271972D02*
D03*
X273547D02*
D03*
X275122D02*
D03*
X276697D02*
D03*
X262524D02*
D03*
X268823D02*
D03*
D32*
X308398Y106976D02*
D03*
Y103039D02*
D03*
Y108945D02*
D03*
Y105008D02*
D03*
Y101071D02*
D03*
Y99102D02*
D03*
Y110913D02*
D03*
Y112882D02*
D03*
D57*
X268035Y151110D02*
D03*
D60*
X327000Y123000D02*
D03*
Y88984D02*
D03*
D61*
X310661Y123000D02*
D03*
Y88984D02*
D03*
D62*
X210000Y206500D02*
D03*
X320500D02*
D03*
D63*
X210000Y196500D02*
D03*
X320500D02*
D03*
D64*
X239500Y127500D02*
D03*
X320000Y77500D02*
D03*
Y67500D02*
D03*
Y57500D02*
D03*
X239500Y117500D02*
D03*
X302500Y196500D02*
D03*
X292500Y206500D02*
D03*
Y196500D02*
D03*
X282500Y206500D02*
D03*
Y196500D02*
D03*
X272500Y206500D02*
D03*
Y196500D02*
D03*
X262500Y206500D02*
D03*
Y196500D02*
D03*
X252500Y206500D02*
D03*
Y196500D02*
D03*
X242500Y206500D02*
D03*
Y196500D02*
D03*
X232500Y206500D02*
D03*
Y196500D02*
D03*
D65*
X320000Y47500D02*
D03*
X239500Y137500D02*
D03*
D66*
X312630Y94614D02*
D03*
Y117370D02*
D03*
D67*
X302500Y206500D02*
D03*
M02*
