G04*
G04 #@! TF.GenerationSoftware,Altium Limited,Altium Designer,25.8.1 (18)*
G04*
G04 Layer_Physical_Order=1*
G04 Layer_Color=1587153*
%FSLAX25Y25*%
%MOIN*%
G70*
G04*
G04 #@! TF.SameCoordinates,24556F7F-BEDA-4819-8607-D1A4BCCC43C2*
G04*
G04*
G04 #@! TF.FilePolarity,Positive*
G04*
G01*
G75*
%ADD10C,0.00984*%
%ADD12C,0.00787*%
%ADD13C,0.01000*%
%ADD17R,0.04724X0.02559*%
%ADD18C,0.00827*%
%ADD19C,0.00827*%
%ADD20R,0.02230X0.02254*%
%ADD21R,0.03150X0.03150*%
%ADD22R,0.03543X0.02756*%
%ADD23R,0.02165X0.02165*%
%ADD24O,0.06299X0.02362*%
%ADD25R,0.02165X0.02165*%
%ADD26R,0.04528X0.02362*%
%ADD27R,0.04000X0.04724*%
%ADD28R,0.05512X0.04724*%
G04:AMPARAMS|DCode=30|XSize=7.87mil|YSize=33.07mil|CornerRadius=0.98mil|HoleSize=0mil|Usage=FLASHONLY|Rotation=270.000|XOffset=0mil|YOffset=0mil|HoleType=Round|Shape=RoundedRectangle|*
%AMROUNDEDRECTD30*
21,1,0.00787,0.03110,0,0,270.0*
21,1,0.00591,0.03307,0,0,270.0*
1,1,0.00197,-0.01555,-0.00295*
1,1,0.00197,-0.01555,0.00295*
1,1,0.00197,0.01555,0.00295*
1,1,0.00197,0.01555,-0.00295*
%
%ADD30ROUNDEDRECTD30*%
G04:AMPARAMS|DCode=31|XSize=33.07mil|YSize=7.87mil|CornerRadius=0.98mil|HoleSize=0mil|Usage=FLASHONLY|Rotation=270.000|XOffset=0mil|YOffset=0mil|HoleType=Round|Shape=RoundedRectangle|*
%AMROUNDEDRECTD31*
21,1,0.03307,0.00591,0,0,270.0*
21,1,0.03110,0.00787,0,0,270.0*
1,1,0.00197,-0.00295,-0.01555*
1,1,0.00197,-0.00295,0.01555*
1,1,0.00197,0.00295,0.01555*
1,1,0.00197,0.00295,-0.01555*
%
%ADD31ROUNDEDRECTD31*%
%ADD32R,0.04528X0.01181*%
%ADD57R,0.12205X0.12205*%
%ADD58C,0.01575*%
%ADD59C,0.01181*%
%ADD60O,0.07284X0.04134*%
%ADD61O,0.08465X0.04134*%
%ADD62O,0.07874X0.05906*%
%ADD63R,0.07874X0.05906*%
%ADD64C,0.05906*%
%ADD65R,0.05906X0.05906*%
%ADD66C,0.02756*%
%ADD67R,0.05906X0.05906*%
%ADD68C,0.01575*%
G36*
X327208Y210821D02*
X329143Y210234D01*
X330925Y209282D01*
X332488Y207999D01*
X333770Y206437D01*
X334723Y204654D01*
X334875Y204153D01*
X334512Y204515D01*
X334000Y204728D01*
Y203000D01*
Y201272D01*
X334512Y201485D01*
X335015Y201988D01*
X335287Y202644D01*
Y202793D01*
X335309Y202720D01*
X335498Y200806D01*
X335478Y200709D01*
Y174049D01*
X335013Y174515D01*
X334500Y174728D01*
Y173000D01*
X334000D01*
Y172500D01*
X332272D01*
X332333Y172355D01*
X332000Y172421D01*
X293648D01*
X293105Y172313D01*
X292644Y172005D01*
X283406Y162768D01*
X281559D01*
X281530Y162762D01*
X281474D01*
X282013Y162985D01*
X282515Y163488D01*
X282728Y164000D01*
X281000D01*
Y164500D01*
X280500D01*
Y166228D01*
X279988Y166015D01*
X279693Y165720D01*
Y166917D01*
X280783D01*
Y171083D01*
X279693D01*
Y176183D01*
X289213Y185703D01*
Y185144D01*
X289485Y184487D01*
X289987Y183985D01*
X290500Y183772D01*
Y185500D01*
X291000D01*
Y186000D01*
X292728D01*
X292515Y186512D01*
X292449Y186579D01*
X304192D01*
X304736Y186687D01*
X305197Y186995D01*
X312781Y194579D01*
X315563D01*
Y192547D01*
X325437D01*
Y200453D01*
X321921D01*
Y202571D01*
X322516Y202649D01*
X323478Y203047D01*
X324303Y203681D01*
X324937Y204507D01*
X325335Y205468D01*
X325471Y206500D01*
X325335Y207532D01*
X324937Y208493D01*
X324303Y209319D01*
X323478Y209953D01*
X322516Y210351D01*
X321484Y210487D01*
X319516D01*
X318484Y210351D01*
X317522Y209953D01*
X316697Y209319D01*
X316063Y208493D01*
X315665Y207532D01*
X315529Y206500D01*
X315665Y205468D01*
X316063Y204507D01*
X316697Y203681D01*
X317522Y203047D01*
X318484Y202649D01*
X319079Y202571D01*
Y200453D01*
X315563D01*
Y197421D01*
X312192D01*
X311649Y197313D01*
X311187Y197005D01*
X303604Y189421D01*
X297431D01*
X300880Y192871D01*
X300974Y192817D01*
X301980Y192547D01*
X303020D01*
X304026Y192817D01*
X304927Y193337D01*
X305663Y194073D01*
X306183Y194974D01*
X306453Y195980D01*
Y197020D01*
X306183Y198026D01*
X305663Y198927D01*
X304927Y199663D01*
X304026Y200183D01*
X303020Y200453D01*
X301980D01*
X300974Y200183D01*
X300073Y199663D01*
X299337Y198927D01*
X298921Y198206D01*
Y200911D01*
X300557Y202547D01*
X306453D01*
Y210453D01*
X298575D01*
X298513Y210515D01*
X298000Y210728D01*
Y209000D01*
Y207272D01*
X298513Y207485D01*
X298547Y207520D01*
Y204557D01*
X296495Y202505D01*
X296187Y202044D01*
X296079Y201500D01*
Y198206D01*
X295663Y198927D01*
X294927Y199663D01*
X294026Y200183D01*
X293020Y200453D01*
X291980D01*
X290974Y200183D01*
X290073Y199663D01*
X289337Y198927D01*
X288921Y198206D01*
Y200911D01*
X290880Y202871D01*
X290974Y202817D01*
X291980Y202547D01*
X293020D01*
X294026Y202817D01*
X294927Y203337D01*
X295663Y204073D01*
X296183Y204974D01*
X296453Y205980D01*
Y207020D01*
X296270Y207702D01*
X296487Y207485D01*
X297000Y207272D01*
Y209000D01*
Y210728D01*
X296487Y210515D01*
X295985Y210013D01*
X295713Y209355D01*
Y208841D01*
X295663Y208927D01*
X294927Y209663D01*
X294026Y210183D01*
X293020Y210453D01*
X291980D01*
X290974Y210183D01*
X290073Y209663D01*
X289337Y208927D01*
X289287Y208841D01*
Y209355D01*
X289015Y210013D01*
X288512Y210515D01*
X288000Y210728D01*
Y209000D01*
Y207272D01*
X288512Y207485D01*
X288730Y207702D01*
X288547Y207020D01*
Y205980D01*
X288817Y204974D01*
X288871Y204880D01*
X286495Y202505D01*
X286187Y202044D01*
X286079Y201500D01*
Y198206D01*
X285663Y198927D01*
X284927Y199663D01*
X284026Y200183D01*
X283020Y200453D01*
X281980D01*
X280974Y200183D01*
X280073Y199663D01*
X279337Y198927D01*
X278921Y198206D01*
Y200911D01*
X280880Y202871D01*
X280974Y202817D01*
X281980Y202547D01*
X283020D01*
X284026Y202817D01*
X284927Y203337D01*
X285663Y204073D01*
X286183Y204974D01*
X286453Y205980D01*
Y207020D01*
X286270Y207702D01*
X286488Y207485D01*
X287000Y207272D01*
Y209000D01*
Y210728D01*
X286488Y210515D01*
X285985Y210013D01*
X285713Y209355D01*
Y208841D01*
X285663Y208927D01*
X284927Y209663D01*
X284026Y210183D01*
X283020Y210453D01*
X281980D01*
X280974Y210183D01*
X280073Y209663D01*
X279337Y208927D01*
X279287Y208841D01*
Y209355D01*
X279015Y210013D01*
X278513Y210515D01*
X278000Y210728D01*
Y209000D01*
Y207272D01*
X278513Y207485D01*
X278730Y207702D01*
X278547Y207020D01*
Y205980D01*
X278817Y204974D01*
X278871Y204880D01*
X276495Y202505D01*
X276187Y202044D01*
X276079Y201500D01*
Y198206D01*
X275663Y198927D01*
X274927Y199663D01*
X274026Y200183D01*
X273020Y200453D01*
X271980D01*
X270974Y200183D01*
X270073Y199663D01*
X269337Y198927D01*
X268817Y198026D01*
X268547Y197020D01*
Y195980D01*
X268817Y194974D01*
X268871Y194880D01*
X268370Y194379D01*
Y196500D01*
Y197106D01*
X268269Y197615D01*
X267926Y199917D01*
X270880Y202871D01*
X270974Y202817D01*
X271980Y202547D01*
X273020D01*
X274026Y202817D01*
X274927Y203337D01*
X275663Y204073D01*
X276183Y204974D01*
X276453Y205980D01*
Y207020D01*
X276270Y207702D01*
X276487Y207485D01*
X277000Y207272D01*
Y209000D01*
Y210728D01*
X276487Y210515D01*
X275985Y210013D01*
X275713Y209355D01*
Y208841D01*
X275663Y208927D01*
X274927Y209663D01*
X274026Y210183D01*
X273020Y210453D01*
X271980D01*
X270974Y210183D01*
X270073Y209663D01*
X269337Y208927D01*
X269287Y208841D01*
Y209355D01*
X269015Y210013D01*
X268513Y210515D01*
X268000Y210728D01*
Y209000D01*
Y207272D01*
X268513Y207485D01*
X268730Y207702D01*
X268547Y207020D01*
Y205980D01*
X268817Y204974D01*
X268871Y204880D01*
X265726Y201735D01*
X265726Y201735D01*
X265726Y201735D01*
X265495Y201505D01*
X265373Y201321D01*
X265187Y201044D01*
Y201044D01*
X265187Y201044D01*
X265144Y200824D01*
X265079Y200500D01*
Y199848D01*
X265100Y199744D01*
X265094Y199639D01*
X265120Y199471D01*
X264927Y199663D01*
X264026Y200183D01*
X263020Y200453D01*
X261980D01*
X260974Y200183D01*
X260073Y199663D01*
X259337Y198927D01*
X258921Y198207D01*
Y200911D01*
X260880Y202871D01*
X260974Y202817D01*
X261980Y202547D01*
X263020D01*
X264026Y202817D01*
X264927Y203337D01*
X265663Y204073D01*
X266183Y204974D01*
X266453Y205980D01*
Y207020D01*
X266270Y207702D01*
X266488Y207485D01*
X267000Y207272D01*
Y209000D01*
Y210728D01*
X266488Y210515D01*
X265985Y210013D01*
X265713Y209355D01*
Y208841D01*
X265663Y208927D01*
X264927Y209663D01*
X264026Y210183D01*
X263020Y210453D01*
X261980D01*
X260974Y210183D01*
X260073Y209663D01*
X259337Y208927D01*
X259287Y208841D01*
Y209355D01*
X259015Y210013D01*
X258512Y210515D01*
X258000Y210728D01*
Y209000D01*
Y207272D01*
X258512Y207485D01*
X258730Y207702D01*
X258547Y207020D01*
Y205980D01*
X258817Y204974D01*
X258871Y204880D01*
X256495Y202505D01*
X256187Y202044D01*
X256079Y201500D01*
Y198206D01*
X255663Y198927D01*
X254927Y199663D01*
X254026Y200183D01*
X253020Y200453D01*
X251980D01*
X250974Y200183D01*
X250073Y199663D01*
X249337Y198927D01*
X248921Y198206D01*
Y200911D01*
X250880Y202871D01*
X250974Y202817D01*
X251980Y202547D01*
X253020D01*
X254026Y202817D01*
X254927Y203337D01*
X255663Y204073D01*
X256183Y204974D01*
X256453Y205980D01*
Y207020D01*
X256270Y207702D01*
X256487Y207485D01*
X257000Y207272D01*
Y209000D01*
Y210728D01*
X256487Y210515D01*
X255985Y210013D01*
X255713Y209355D01*
Y208841D01*
X255663Y208927D01*
X254927Y209663D01*
X254026Y210183D01*
X253020Y210453D01*
X251980D01*
X250974Y210183D01*
X250073Y209663D01*
X249337Y208927D01*
X249287Y208841D01*
Y209355D01*
X249015Y210013D01*
X248513Y210515D01*
X248000Y210728D01*
Y209000D01*
Y207272D01*
X248513Y207485D01*
X248730Y207702D01*
X248547Y207020D01*
Y205980D01*
X248817Y204974D01*
X248871Y204880D01*
X246495Y202505D01*
X246187Y202044D01*
X246079Y201500D01*
Y198206D01*
X245663Y198927D01*
X244927Y199663D01*
X244026Y200183D01*
X243020Y200453D01*
X241980D01*
X240974Y200183D01*
X240073Y199663D01*
X239337Y198927D01*
X238817Y198026D01*
X238547Y197020D01*
Y195980D01*
X238817Y194974D01*
X239337Y194073D01*
X240073Y193337D01*
X240166Y193283D01*
X239774D01*
X238421Y194636D01*
Y200411D01*
X240880Y202871D01*
X240974Y202817D01*
X241980Y202547D01*
X243020D01*
X244026Y202817D01*
X244927Y203337D01*
X245663Y204073D01*
X246183Y204974D01*
X246453Y205980D01*
Y207020D01*
X246270Y207702D01*
X246487Y207485D01*
X247000Y207272D01*
Y209000D01*
Y210728D01*
X246487Y210515D01*
X245985Y210013D01*
X245713Y209355D01*
Y208841D01*
X245663Y208927D01*
X244927Y209663D01*
X244026Y210183D01*
X243020Y210453D01*
X241980D01*
X240974Y210183D01*
X240073Y209663D01*
X239337Y208927D01*
X239287Y208841D01*
Y209355D01*
X239015Y210013D01*
X238512Y210515D01*
X238000Y210728D01*
Y209000D01*
Y207272D01*
X238512Y207485D01*
X238730Y207702D01*
X238547Y207020D01*
Y205980D01*
X238817Y204974D01*
X238871Y204880D01*
X235995Y202005D01*
X235687Y201544D01*
X235579Y201000D01*
Y199011D01*
X234927Y199663D01*
X234026Y200183D01*
X233020Y200453D01*
X231980D01*
X230974Y200183D01*
X230073Y199663D01*
X229421Y199011D01*
Y201411D01*
X230880Y202871D01*
X230974Y202817D01*
X231980Y202547D01*
X233020D01*
X234026Y202817D01*
X234927Y203337D01*
X235663Y204073D01*
X236183Y204974D01*
X236453Y205980D01*
Y207020D01*
X236270Y207702D01*
X236488Y207485D01*
X237000Y207272D01*
Y209000D01*
Y210728D01*
X236488Y210515D01*
X235985Y210013D01*
X235713Y209355D01*
Y208841D01*
X235663Y208927D01*
X234927Y209663D01*
X234026Y210183D01*
X233020Y210453D01*
X231980D01*
X230974Y210183D01*
X230073Y209663D01*
X229337Y208927D01*
X228817Y208026D01*
X228547Y207020D01*
Y205980D01*
X228817Y204974D01*
X228871Y204880D01*
X226995Y203005D01*
X226687Y202544D01*
X226579Y202000D01*
Y194000D01*
X226687Y193456D01*
X226995Y192995D01*
X231495Y188495D01*
X231956Y188187D01*
X232500Y188079D01*
X232500Y188079D01*
X243911D01*
X250449Y181542D01*
X250000Y181728D01*
Y180000D01*
Y178272D01*
X250513Y178485D01*
X250579Y178551D01*
Y169589D01*
X247995Y167005D01*
X247687Y166544D01*
X247579Y166000D01*
Y159500D01*
X247687Y158956D01*
X247995Y158495D01*
X250873Y155617D01*
X251334Y155309D01*
X251837Y155209D01*
Y154893D01*
X246865D01*
X245166Y156592D01*
Y165004D01*
X245058Y165548D01*
X244750Y166008D01*
X244056Y166702D01*
X243595Y167010D01*
X243303Y167068D01*
Y169311D01*
X239430D01*
Y171701D01*
X239430Y171701D01*
X239291Y172398D01*
X239099Y172685D01*
Y174185D01*
X234934D01*
Y170020D01*
X235785D01*
Y167524D01*
X235785Y167524D01*
X235791Y167490D01*
Y163641D01*
X235488Y163515D01*
X234985Y163013D01*
X234772Y162500D01*
X236500D01*
Y161500D01*
X234772D01*
X234985Y160987D01*
X235488Y160485D01*
X235791Y160359D01*
Y159756D01*
X239547D01*
Y159256D01*
X240047D01*
Y155894D01*
X242346D01*
X242432Y155460D01*
X242655Y155127D01*
X235818D01*
Y154425D01*
X233099D01*
Y155185D01*
X232725D01*
Y155894D01*
X234642D01*
Y162587D01*
Y165449D01*
X230886D01*
X227130D01*
Y162587D01*
Y155894D01*
X229883D01*
Y155185D01*
X228934D01*
Y151020D01*
X233099D01*
Y151583D01*
X235818D01*
Y150873D01*
X241707D01*
X242139Y150585D01*
X242150Y150583D01*
X239717D01*
Y146417D01*
Y143417D01*
X243883D01*
Y144079D01*
X244000D01*
X244079Y144095D01*
Y140589D01*
X243453Y139962D01*
Y141453D01*
X235547D01*
Y133547D01*
X243453D01*
Y136307D01*
X243716Y136360D01*
X244177Y136668D01*
X245328Y137818D01*
Y125337D01*
X241120Y121129D01*
X241026Y121183D01*
X240020Y121453D01*
X238980D01*
X237974Y121183D01*
X237073Y120663D01*
X236337Y119927D01*
X235817Y119026D01*
X235547Y118020D01*
Y116980D01*
X235817Y115974D01*
X236337Y115073D01*
X237073Y114337D01*
X237974Y113817D01*
X238980Y113547D01*
X240020D01*
X241026Y113817D01*
X241927Y114337D01*
X242663Y115073D01*
X243183Y115974D01*
X243453Y116980D01*
Y118020D01*
X243183Y119026D01*
X243129Y119120D01*
X247754Y123744D01*
X248062Y124205D01*
X248170Y124749D01*
Y134802D01*
X248487Y134485D01*
X249000Y134272D01*
Y136000D01*
X249500D01*
Y136500D01*
X251228D01*
X251179Y136617D01*
X251583D01*
Y136908D01*
X254079Y134411D01*
Y120148D01*
X254187Y119605D01*
X254495Y119144D01*
X255079Y118560D01*
Y73449D01*
X255012Y73515D01*
X254500Y73728D01*
Y72000D01*
X254000D01*
Y71500D01*
X252272D01*
X252305Y71421D01*
X235500D01*
X234956Y71313D01*
X234495Y71005D01*
X232051Y68561D01*
X231743Y68100D01*
X231635Y67556D01*
Y67347D01*
X225167D01*
Y62591D01*
X225925D01*
Y60926D01*
X225172D01*
Y55776D01*
X225925D01*
Y48689D01*
X225172D01*
Y43539D01*
X225925D01*
Y36452D01*
X225172D01*
Y31302D01*
X225925D01*
Y24215D01*
X225172D01*
Y19065D01*
X225925D01*
Y11977D01*
X225172D01*
Y6828D01*
X230322D01*
Y11977D01*
X229570D01*
Y19065D01*
X230322D01*
Y24215D01*
X229570D01*
Y31302D01*
X230322D01*
Y36452D01*
X229570D01*
Y43539D01*
X230322D01*
Y48689D01*
X229570D01*
Y55776D01*
X230322D01*
Y60926D01*
X229570D01*
Y62591D01*
X235828D01*
Y67347D01*
X234857D01*
X236089Y68579D01*
X246069D01*
X245562Y68072D01*
X245254Y67611D01*
X245202Y67347D01*
X238667D01*
Y62591D01*
X239550D01*
Y60926D01*
X238797D01*
Y55776D01*
X239550D01*
Y48689D01*
X238797D01*
Y43539D01*
X239550D01*
Y36452D01*
X238797D01*
Y31302D01*
X239550D01*
Y24215D01*
X238797D01*
Y19065D01*
X239550D01*
Y11977D01*
X238797D01*
Y6828D01*
X243947D01*
Y11977D01*
X243195D01*
Y19065D01*
X243947D01*
Y24215D01*
X243195D01*
Y31302D01*
X243947D01*
Y36452D01*
X243195D01*
Y43539D01*
X243947D01*
Y48689D01*
X243195D01*
Y55776D01*
X243947D01*
Y60926D01*
X243195D01*
Y62591D01*
X249328D01*
Y67079D01*
X252167D01*
Y62591D01*
X253175D01*
Y60926D01*
X252422D01*
Y55776D01*
X253175D01*
Y48689D01*
X252422D01*
Y43539D01*
X253175D01*
Y36452D01*
X252422D01*
Y31302D01*
X253175D01*
Y24215D01*
X252422D01*
Y19065D01*
X253175D01*
Y11977D01*
X252422D01*
Y6828D01*
X257572D01*
Y11977D01*
X256820D01*
Y19065D01*
X257572D01*
Y24215D01*
X256820D01*
Y31302D01*
X257572D01*
Y36452D01*
X256820D01*
Y43539D01*
X257572D01*
Y48689D01*
X256820D01*
Y55776D01*
X257572D01*
Y60926D01*
X256820D01*
Y62591D01*
X262828D01*
Y66464D01*
X263229Y66063D01*
X263690Y65755D01*
X264234Y65647D01*
X265572D01*
Y62525D01*
X266705D01*
Y60859D01*
X265953D01*
Y55709D01*
X266705D01*
Y48622D01*
X265953D01*
Y43472D01*
X266705D01*
Y36385D01*
X265953D01*
Y31235D01*
X266705D01*
Y24148D01*
X265953D01*
Y18998D01*
X266705D01*
Y11911D01*
X265953D01*
Y6761D01*
X271102D01*
Y11911D01*
X270350D01*
Y18998D01*
X271102D01*
Y24148D01*
X270350D01*
Y31235D01*
X271102D01*
Y36385D01*
X270350D01*
Y43472D01*
X271102D01*
Y48622D01*
X270350D01*
Y55709D01*
X271102D01*
Y60859D01*
X270350D01*
Y62525D01*
X276233D01*
Y67173D01*
X279072D01*
Y62525D01*
X279830D01*
Y60859D01*
X279078D01*
Y55709D01*
X279830D01*
Y48622D01*
X279078D01*
Y43472D01*
X279830D01*
Y36385D01*
X279078D01*
Y31235D01*
X279830D01*
Y24148D01*
X279078D01*
Y18998D01*
X279830D01*
Y11911D01*
X279078D01*
Y6761D01*
X284227D01*
Y11911D01*
X283475D01*
Y18998D01*
X284227D01*
Y24148D01*
X283475D01*
Y31235D01*
X284227D01*
Y36385D01*
X283475D01*
Y43472D01*
X284227D01*
Y48622D01*
X283475D01*
Y55709D01*
X284227D01*
Y60859D01*
X283475D01*
Y62525D01*
X289733D01*
Y67281D01*
X288383D01*
Y68038D01*
X288320Y68355D01*
X289864D01*
Y60859D01*
X284983D01*
Y55709D01*
X290133D01*
Y56497D01*
X290204D01*
X290370Y56565D01*
X290546Y56600D01*
X290696Y56700D01*
X290861Y56769D01*
X290988Y56896D01*
X291045Y56934D01*
Y48160D01*
X290588Y47703D01*
X290546Y47731D01*
X290370Y47766D01*
X290204Y47835D01*
X290133D01*
Y48622D01*
X284983D01*
Y43472D01*
X290133D01*
Y44260D01*
X290204D01*
X290370Y44328D01*
X290546Y44363D01*
X290696Y44463D01*
X290861Y44532D01*
X290988Y44659D01*
X291138Y44759D01*
X291159Y44790D01*
X291636Y44885D01*
X292097Y45193D01*
X292226Y45322D01*
Y37235D01*
X291411Y36421D01*
X291252D01*
X290708Y36313D01*
X290247Y36005D01*
X290133Y35891D01*
Y36385D01*
X284983D01*
Y31235D01*
X290133D01*
Y32023D01*
X290204D01*
X290370Y32092D01*
X290546Y32127D01*
X290696Y32226D01*
X290861Y32295D01*
X290988Y32422D01*
X291138Y32522D01*
X291237Y32671D01*
X291364Y32798D01*
X291433Y32963D01*
X291532Y33113D01*
X291568Y33289D01*
X291580Y33318D01*
X291840Y33579D01*
X292000D01*
X292544Y33687D01*
X293005Y33995D01*
X293407Y34397D01*
Y24903D01*
X293388Y24885D01*
X293349Y24859D01*
X293349Y24858D01*
X291485Y22994D01*
X290956D01*
X290861Y23088D01*
X290696Y23157D01*
X290546Y23257D01*
X290370Y23292D01*
X290204Y23361D01*
X290133D01*
Y24148D01*
X284983D01*
Y18998D01*
X290133D01*
Y19786D01*
X290204D01*
X290370Y19854D01*
X290546Y19890D01*
X290696Y19989D01*
X290861Y20058D01*
X290956Y20152D01*
X292073D01*
X292617Y20260D01*
X293078Y20568D01*
X294982Y22472D01*
Y15491D01*
X290516Y11026D01*
X290370Y11055D01*
X290204Y11124D01*
X290133D01*
Y11911D01*
X284983D01*
Y6761D01*
X290133D01*
Y7549D01*
X290204D01*
X290370Y7617D01*
X290546Y7653D01*
X290696Y7752D01*
X290861Y7821D01*
X290985Y7945D01*
X291380Y8023D01*
X291841Y8331D01*
X297408Y13898D01*
X297715Y14359D01*
X297824Y14903D01*
Y70718D01*
X297715Y71261D01*
X297408Y71722D01*
X294551Y74579D01*
X304901D01*
X309579Y69901D01*
Y51500D01*
X309687Y50956D01*
X309995Y50495D01*
X313995Y46495D01*
X314456Y46187D01*
X315000Y46079D01*
X316047D01*
Y43547D01*
X323953D01*
Y51453D01*
X316047D01*
Y48921D01*
X315589D01*
X312421Y52089D01*
Y58069D01*
X313995Y56495D01*
X314456Y56187D01*
X315000Y56079D01*
X316289D01*
X316317Y55974D01*
X316837Y55073D01*
X317573Y54337D01*
X318474Y53817D01*
X319480Y53547D01*
X320520D01*
X321526Y53817D01*
X322427Y54337D01*
X323163Y55073D01*
X323683Y55974D01*
X323953Y56980D01*
Y58020D01*
X323683Y59026D01*
X323163Y59927D01*
X322427Y60663D01*
X321526Y61183D01*
X320520Y61453D01*
X319480D01*
X318474Y61183D01*
X317573Y60663D01*
X316837Y59927D01*
X316317Y59026D01*
X316289Y58921D01*
X315589D01*
X313602Y60908D01*
Y69218D01*
X315524Y67296D01*
X315985Y66988D01*
X316049Y66975D01*
X316317Y65974D01*
X316837Y65073D01*
X317573Y64337D01*
X318474Y63817D01*
X319480Y63547D01*
X320520D01*
X321526Y63817D01*
X322427Y64337D01*
X323163Y65073D01*
X323683Y65974D01*
X323953Y66980D01*
Y68020D01*
X323683Y69026D01*
X323163Y69927D01*
X322427Y70663D01*
X321526Y71183D01*
X320520Y71453D01*
X319480D01*
X318474Y71183D01*
X317573Y70663D01*
X316875Y69965D01*
X310760Y76079D01*
X316289D01*
X316317Y75974D01*
X316837Y75073D01*
X317573Y74337D01*
X318474Y73817D01*
X319480Y73547D01*
X320520D01*
X321526Y73817D01*
X322427Y74337D01*
X323163Y75073D01*
X323683Y75974D01*
X323953Y76980D01*
Y78020D01*
X323683Y79026D01*
X323163Y79927D01*
X322427Y80663D01*
X321526Y81183D01*
X320520Y81453D01*
X319480D01*
X318474Y81183D01*
X317573Y80663D01*
X316837Y79927D01*
X316317Y79026D01*
X316289Y78921D01*
X309589D01*
X307005Y81505D01*
X306544Y81813D01*
X306000Y81921D01*
X280695D01*
X280728Y82000D01*
X279000D01*
Y82500D01*
X278500D01*
Y84228D01*
X278118Y84069D01*
Y121138D01*
X282829D01*
X282772Y121000D01*
X284000D01*
Y122228D01*
X283760Y122128D01*
Y126917D01*
X285240D01*
Y125000D01*
X288240D01*
Y124500D01*
X288740D01*
Y121138D01*
X290579D01*
Y114359D01*
X290515Y114513D01*
X290013Y115015D01*
X289500Y115228D01*
Y113500D01*
X288500D01*
Y115228D01*
X287987Y115015D01*
X287500Y114528D01*
Y119516D01*
X286027D01*
X286228Y120000D01*
X282772D01*
X282973Y119516D01*
X281500D01*
Y112791D01*
X283078D01*
Y112583D01*
X282617D01*
Y108417D01*
X283078D01*
Y106800D01*
X283202Y106179D01*
X283553Y105653D01*
X293810Y95397D01*
X294336Y95045D01*
X294957Y94922D01*
X305134D01*
Y94362D01*
Y93894D01*
X308398D01*
Y92894D01*
X305134D01*
Y91213D01*
X306362D01*
X306309Y91172D01*
X305817Y90531D01*
X305508Y89785D01*
X305469Y89484D01*
X310661D01*
X315854D01*
X315815Y89785D01*
X315506Y90531D01*
X315014Y91172D01*
X314373Y91663D01*
X313627Y91972D01*
X312827Y92078D01*
X311661D01*
Y92441D01*
X312157Y92236D01*
X313103D01*
X313977Y92598D01*
X314646Y93267D01*
X315008Y94141D01*
Y95087D01*
X314646Y95961D01*
X313977Y96630D01*
X313103Y96992D01*
X312827D01*
X317242Y101407D01*
X317594Y101934D01*
X317717Y102554D01*
Y109562D01*
X317594Y110182D01*
X317242Y110708D01*
X312958Y114992D01*
X313103D01*
X313977Y115354D01*
X314646Y116023D01*
X315008Y116897D01*
Y117843D01*
X314646Y118717D01*
X313977Y119386D01*
X313103Y119748D01*
X312157D01*
X311661Y119543D01*
Y119907D01*
X312827D01*
X313627Y120012D01*
X314373Y120321D01*
X315014Y120813D01*
X315506Y121453D01*
X315815Y122199D01*
X315854Y122500D01*
X310661D01*
Y123000D01*
D01*
Y122500D01*
X305469D01*
X305508Y122199D01*
X305817Y121453D01*
X306309Y120813D01*
X306362Y120772D01*
X305134D01*
Y119091D01*
X308398D01*
Y118091D01*
X305134D01*
Y116410D01*
Y116013D01*
X304655Y116333D01*
X304399Y116384D01*
Y117627D01*
X299217D01*
Y115500D01*
Y113373D01*
X303475D01*
X304944Y111905D01*
X305134Y111778D01*
Y111291D01*
Y110938D01*
X304881Y111107D01*
X304399Y111203D01*
Y112127D01*
X296601D01*
Y111828D01*
X294602Y113828D01*
Y143489D01*
X294494Y144033D01*
X294186Y144494D01*
X290884Y147796D01*
X291770D01*
Y149379D01*
X290188D01*
Y148388D01*
X290041Y148486D01*
X289753Y148543D01*
Y150548D01*
X290188D01*
Y150379D01*
X292270D01*
Y149879D01*
X292770D01*
Y147796D01*
X294353D01*
Y148197D01*
X294826D01*
X295483Y148469D01*
X295986Y148972D01*
X296090Y149224D01*
X296507Y148945D01*
X297358Y148776D01*
X301159D01*
X304818Y145117D01*
Y142873D01*
X312615D01*
Y143579D01*
X313101D01*
Y142873D01*
X320899D01*
Y143092D01*
X321995Y141995D01*
X322456Y141687D01*
X323000Y141579D01*
X323299D01*
Y140413D01*
X329320D01*
X329190Y140100D01*
X329129Y139792D01*
X329099Y139639D01*
Y139052D01*
X329135Y138868D01*
X329190Y138591D01*
X329415Y138048D01*
X329545Y137854D01*
X329676Y137658D01*
X330092Y137242D01*
X330482Y136981D01*
X331025Y136757D01*
X331486Y136665D01*
X332073D01*
X332534Y136757D01*
X333077Y136981D01*
X333467Y137242D01*
X333883Y137658D01*
X334144Y138048D01*
X334368Y138591D01*
X334460Y139052D01*
Y139639D01*
X334368Y140100D01*
X334144Y140643D01*
X333883Y141033D01*
X333467Y141449D01*
X333271Y141580D01*
X333077Y141710D01*
X332534Y141935D01*
X332226Y141996D01*
X332073Y142026D01*
X331486D01*
X331302Y141990D01*
X331025Y141935D01*
X330482Y141710D01*
X330288Y141580D01*
X330092Y141449D01*
X330024Y141381D01*
Y144972D01*
X323299D01*
Y144710D01*
X322005Y146005D01*
X321544Y146313D01*
X321000Y146421D01*
X320899D01*
Y147127D01*
X319341D01*
X321793Y149579D01*
X324031D01*
X324132Y149427D01*
X324854Y148945D01*
X325705Y148776D01*
X329642D01*
X330493Y148945D01*
X331214Y149427D01*
X331696Y150149D01*
X331866Y151000D01*
X331830Y151179D01*
X335478Y154827D01*
Y146433D01*
X336898D01*
Y142299D01*
X335478D01*
Y129702D01*
X336898D01*
Y125568D01*
X335478D01*
Y11811D01*
X335498Y11713D01*
X335309Y9799D01*
X334723Y7865D01*
X333770Y6083D01*
X332488Y4520D01*
X330925Y3238D01*
X329143Y2285D01*
X327208Y1698D01*
X325294Y1510D01*
X325197Y1529D01*
X11811D01*
X11713Y1510D01*
X9799Y1698D01*
X7865Y2285D01*
X6083Y3238D01*
X4520Y4520D01*
X3238Y6083D01*
X2285Y7865D01*
X1698Y9799D01*
X1510Y11713D01*
X1529Y11811D01*
Y134662D01*
X1539Y134648D01*
X1539Y134647D01*
X1760Y134317D01*
X1771Y134309D01*
X1816Y134241D01*
X1828Y134234D01*
X1864Y134179D01*
X1873Y134167D01*
X1884Y134159D01*
X1929Y134091D01*
X1940Y134084D01*
X1948Y134073D01*
X1959Y134065D01*
X1966Y134054D01*
X1978Y134047D01*
X2023Y133979D01*
X2034Y133972D01*
X2042Y133960D01*
X2053Y133953D01*
X2060Y133941D01*
X2072Y133934D01*
X2079Y133923D01*
X2090Y133915D01*
X2098Y133904D01*
X2109Y133897D01*
X2117Y133885D01*
X2128Y133878D01*
X2173Y133810D01*
X2184Y133803D01*
X2191Y133791D01*
X2203Y133784D01*
X2210Y133773D01*
X2221Y133765D01*
X2229Y133754D01*
X2240Y133747D01*
X2248Y133735D01*
X2259Y133728D01*
X2266Y133716D01*
X2278Y133709D01*
X2285Y133698D01*
X2296Y133690D01*
X2304Y133679D01*
X2315Y133671D01*
X2323Y133660D01*
X2334Y133653D01*
X2341Y133642D01*
X2353Y133634D01*
X2360Y133623D01*
X2372Y133615D01*
X2379Y133604D01*
X2390Y133597D01*
X2398Y133585D01*
X2409Y133578D01*
X2417Y133566D01*
X2484Y133521D01*
X2492Y133510D01*
X2503Y133503D01*
X2510Y133492D01*
X2521Y133484D01*
X2529Y133473D01*
X2540Y133465D01*
X2548Y133454D01*
X2559Y133447D01*
X2567Y133435D01*
X2578Y133428D01*
X2585Y133416D01*
X2653Y133371D01*
X2660Y133360D01*
X2671Y133353D01*
X2679Y133342D01*
X2747Y133296D01*
X2754Y133285D01*
X2765Y133278D01*
X2773Y133266D01*
X2840Y133221D01*
X2848Y133210D01*
X2972Y133127D01*
X2979Y133116D01*
X3310Y132896D01*
X3310Y132896D01*
X3366Y132858D01*
X3366Y132858D01*
X3422Y132820D01*
X3436Y132818D01*
X3460Y132802D01*
X3460Y132802D01*
X3516Y132764D01*
X3516Y132764D01*
X3572Y132727D01*
X3586Y132724D01*
X3610Y132708D01*
X3623Y132705D01*
X3647Y132689D01*
X3647Y132689D01*
X3704Y132652D01*
X3717Y132649D01*
X3741Y132633D01*
X3754Y132630D01*
X3779Y132614D01*
X3792Y132612D01*
X3816Y132596D01*
X3830Y132593D01*
X3854Y132577D01*
X3867Y132574D01*
X3891Y132558D01*
X3904Y132555D01*
X3929Y132539D01*
X3942Y132537D01*
X3966Y132520D01*
X3980Y132518D01*
X4004Y132502D01*
X4017Y132499D01*
X4041Y132483D01*
X4055Y132480D01*
X4079Y132464D01*
X4119Y132456D01*
X4135Y132446D01*
X4148Y132443D01*
X4172Y132427D01*
X4186Y132424D01*
X4210Y132408D01*
X4250Y132400D01*
X4266Y132389D01*
X4279Y132387D01*
X4304Y132370D01*
X4344Y132362D01*
X4360Y132352D01*
X4373Y132349D01*
X4397Y132333D01*
X4437Y132325D01*
X4454Y132314D01*
X4494Y132306D01*
X4510Y132296D01*
X4550Y132288D01*
X4566Y132277D01*
X4606Y132269D01*
X4622Y132258D01*
X4662Y132250D01*
X4679Y132239D01*
X4745Y132226D01*
X4754Y132220D01*
X4794Y132212D01*
X4810Y132202D01*
X4877Y132188D01*
X4885Y132183D01*
X4952Y132170D01*
X4960Y132164D01*
X5053Y132146D01*
X5054Y132146D01*
X5147Y132127D01*
X5147Y132127D01*
X5241Y132108D01*
X5241Y132108D01*
X5631Y132030D01*
X5649D01*
X5744Y132012D01*
X5781D01*
X5875Y131993D01*
X5968D01*
X6063Y131974D01*
X6925D01*
X7019Y131993D01*
X7113D01*
X7207Y132012D01*
X7244D01*
X7338Y132030D01*
X7356D01*
X7746Y132108D01*
X7747Y132108D01*
X7840Y132127D01*
X7840Y132127D01*
X7934Y132146D01*
X7934Y132146D01*
X8028Y132164D01*
X8036Y132170D01*
X8103Y132183D01*
X8111Y132188D01*
X8178Y132202D01*
X8194Y132212D01*
X8234Y132220D01*
X8242Y132226D01*
X8309Y132239D01*
X8325Y132250D01*
X8365Y132258D01*
X8381Y132269D01*
X8421Y132277D01*
X8438Y132288D01*
X8478Y132296D01*
X8494Y132306D01*
X8534Y132314D01*
X8550Y132325D01*
X8590Y132333D01*
X8614Y132349D01*
X8628Y132352D01*
X8644Y132362D01*
X8684Y132370D01*
X8708Y132387D01*
X8721Y132389D01*
X8738Y132400D01*
X8778Y132408D01*
X8802Y132424D01*
X8815Y132427D01*
X8831Y132438D01*
X8871Y132446D01*
X8896Y132462D01*
X8909Y132464D01*
X8933Y132480D01*
X8946Y132483D01*
X8970Y132499D01*
X8984Y132502D01*
X9008Y132518D01*
X9021Y132520D01*
X9046Y132537D01*
X9059Y132539D01*
X9083Y132555D01*
X9096Y132558D01*
X9121Y132574D01*
X9134Y132577D01*
X9158Y132593D01*
X9171Y132596D01*
X9195Y132612D01*
X9209Y132614D01*
X9233Y132630D01*
X9246Y132633D01*
X9270Y132649D01*
X9284Y132652D01*
X9340Y132689D01*
X9340Y132689D01*
X9364Y132705D01*
X9378Y132708D01*
X9402Y132724D01*
X9415Y132727D01*
X9471Y132764D01*
X9471Y132764D01*
X9527Y132802D01*
X9528Y132802D01*
X9552Y132818D01*
X9565Y132820D01*
X9621Y132858D01*
X9621Y132858D01*
X9678Y132896D01*
X9678Y132896D01*
X10008Y133116D01*
X10016Y133127D01*
X10140Y133210D01*
X10147Y133221D01*
X10215Y133266D01*
X10222Y133278D01*
X10233Y133285D01*
X10241Y133296D01*
X10308Y133342D01*
X10316Y133353D01*
X10327Y133360D01*
X10335Y133371D01*
X10402Y133416D01*
X10410Y133428D01*
X10421Y133435D01*
X10429Y133447D01*
X10440Y133454D01*
X10447Y133465D01*
X10458Y133473D01*
X10466Y133484D01*
X10477Y133492D01*
X10485Y133503D01*
X10496Y133510D01*
X10503Y133521D01*
X10571Y133566D01*
X10578Y133578D01*
X10590Y133585D01*
X10597Y133597D01*
X10609Y133604D01*
X10616Y133615D01*
X10627Y133623D01*
X10635Y133634D01*
X10646Y133642D01*
X10654Y133653D01*
X10665Y133660D01*
X10667Y133664D01*
X10672Y133671D01*
X10684Y133679D01*
X10691Y133690D01*
X10702Y133698D01*
X10710Y133709D01*
X10721Y133716D01*
X10729Y133728D01*
X10740Y133735D01*
X10747Y133747D01*
X10758Y133754D01*
X10766Y133765D01*
X10777Y133773D01*
X10785Y133784D01*
X10796Y133791D01*
X10803Y133803D01*
X10815Y133810D01*
X10860Y133878D01*
X10871Y133885D01*
X10879Y133897D01*
X10890Y133904D01*
X10897Y133915D01*
X10909Y133923D01*
X10916Y133934D01*
X10927Y133941D01*
X10935Y133953D01*
X10946Y133960D01*
X10954Y133972D01*
X10965Y133979D01*
X11010Y134047D01*
X11021Y134054D01*
X11028Y134065D01*
X11040Y134073D01*
X11047Y134083D01*
X10962Y133228D01*
X10971D01*
Y79291D01*
X10962D01*
X11112Y77772D01*
X11555Y76311D01*
X12275Y74965D01*
X13243Y73785D01*
X14424Y72816D01*
X15770Y72097D01*
X17231Y71653D01*
X18750Y71504D01*
X20269Y71653D01*
X21730Y72097D01*
X23076Y72816D01*
X24257Y73785D01*
X25225Y74965D01*
X25945Y76311D01*
X26388Y77772D01*
X26537Y79291D01*
X26529D01*
Y133228D01*
X26537D01*
X26388Y134748D01*
X25945Y136208D01*
X25225Y137555D01*
X24257Y138735D01*
X23076Y139703D01*
X21730Y140423D01*
X20269Y140866D01*
X18750Y141016D01*
X17231Y140866D01*
X15770Y140423D01*
X14424Y139703D01*
X13243Y138735D01*
X12407Y137716D01*
Y138300D01*
X12388Y138394D01*
Y138488D01*
X12370Y138582D01*
Y138619D01*
X12351Y138713D01*
Y138731D01*
X12273Y139121D01*
X12273Y139122D01*
X12254Y139215D01*
X12254Y139215D01*
X12236Y139309D01*
X12230Y139317D01*
X12217Y139384D01*
X12212Y139392D01*
X12198Y139459D01*
X12193Y139467D01*
X12179Y139534D01*
X12174Y139542D01*
X12161Y139609D01*
X12150Y139625D01*
X12142Y139665D01*
X12141Y139667D01*
X12131Y139681D01*
X12123Y139721D01*
X12118Y139730D01*
X12105Y139796D01*
X12094Y139813D01*
X12086Y139853D01*
X12070Y139877D01*
X12067Y139890D01*
X12056Y139906D01*
X12048Y139946D01*
X12037Y139962D01*
X12030Y140003D01*
X12013Y140027D01*
X12011Y140040D01*
X12000Y140056D01*
X11992Y140096D01*
X11976Y140120D01*
X11973Y140134D01*
X11963Y140150D01*
X11954Y140190D01*
X11938Y140214D01*
X11936Y140228D01*
X11929Y140238D01*
X11920Y140252D01*
X11917Y140265D01*
X11912Y140272D01*
X11901Y140289D01*
X11898Y140303D01*
X11887Y140319D01*
X11880Y140359D01*
X11875Y140365D01*
X11863Y140383D01*
X11861Y140396D01*
X11845Y140420D01*
X11842Y140434D01*
X11826Y140458D01*
X11823Y140471D01*
X11818Y140479D01*
X11807Y140496D01*
X11805Y140509D01*
X11800Y140515D01*
X11767Y140565D01*
X11767Y140565D01*
X11751Y140589D01*
X11748Y140603D01*
X11732Y140627D01*
X11729Y140640D01*
X11713Y140664D01*
X11711Y140678D01*
X11673Y140734D01*
X11673Y140734D01*
X11666Y140745D01*
X11657Y140758D01*
X11654Y140771D01*
X11638Y140796D01*
X11636Y140809D01*
X11598Y140865D01*
X11598Y140865D01*
X11561Y140921D01*
X11561Y140921D01*
X11523Y140978D01*
X11523Y140978D01*
X11486Y141034D01*
X11486Y141034D01*
X11448Y141090D01*
X11448Y141090D01*
X11227Y141421D01*
X11216Y141428D01*
X11171Y141496D01*
X11160Y141503D01*
X11115Y141571D01*
X11104Y141578D01*
X11058Y141646D01*
X11047Y141654D01*
X11040Y141665D01*
X11028Y141672D01*
X11021Y141683D01*
X11016Y141687D01*
X11010Y141691D01*
X10965Y141759D01*
X10954Y141766D01*
X10946Y141777D01*
X10935Y141785D01*
X10927Y141796D01*
X10916Y141804D01*
X10909Y141815D01*
X10897Y141822D01*
X10890Y141833D01*
X10879Y141841D01*
X10834Y141909D01*
X10822Y141916D01*
X10815Y141927D01*
X10803Y141935D01*
X10796Y141946D01*
X10785Y141954D01*
X10777Y141965D01*
X10766Y141972D01*
X10758Y141983D01*
X10747Y141991D01*
X10740Y142002D01*
X10729Y142010D01*
X10721Y142021D01*
X10710Y142028D01*
X10702Y142040D01*
X10691Y142047D01*
X10684Y142059D01*
X10672Y142066D01*
X10665Y142077D01*
X10654Y142085D01*
X10646Y142096D01*
X10635Y142104D01*
X10627Y142115D01*
X10616Y142122D01*
X10609Y142133D01*
X10597Y142141D01*
X10590Y142152D01*
X10578Y142160D01*
X10571Y142171D01*
X10503Y142216D01*
X10496Y142227D01*
X10485Y142235D01*
X10477Y142246D01*
X10466Y142253D01*
X10458Y142265D01*
X10447Y142272D01*
X10440Y142283D01*
X10429Y142291D01*
X10421Y142302D01*
X10410Y142310D01*
X10402Y142321D01*
X10335Y142366D01*
X10327Y142377D01*
X10316Y142385D01*
X10308Y142396D01*
X10241Y142441D01*
X10233Y142452D01*
X10222Y142460D01*
X10215Y142471D01*
X10147Y142516D01*
X10140Y142527D01*
X10016Y142610D01*
X10008Y142621D01*
X9678Y142842D01*
X9678Y142842D01*
X9621Y142879D01*
X9621Y142879D01*
X9565Y142917D01*
X9565Y142917D01*
X9509Y142955D01*
X9495Y142957D01*
X9471Y142973D01*
X9471Y142973D01*
X9415Y143011D01*
X9402Y143013D01*
X9378Y143029D01*
X9364Y143032D01*
X9340Y143048D01*
X9340Y143048D01*
X9284Y143086D01*
X9270Y143088D01*
X9246Y143105D01*
X9233Y143107D01*
X9209Y143123D01*
X9195Y143126D01*
X9171Y143142D01*
X9158Y143145D01*
X9134Y143161D01*
X9121Y143163D01*
X9096Y143180D01*
X9083Y143182D01*
X9059Y143198D01*
X9046Y143201D01*
X9021Y143217D01*
X9008Y143220D01*
X8984Y143236D01*
X8970Y143238D01*
X8946Y143254D01*
X8933Y143257D01*
X8909Y143273D01*
X8896Y143276D01*
X8871Y143292D01*
X8831Y143300D01*
X8815Y143311D01*
X8802Y143313D01*
X8778Y143330D01*
X8738Y143338D01*
X8721Y143348D01*
X8708Y143351D01*
X8684Y143367D01*
X8644Y143375D01*
X8628Y143386D01*
X8614Y143388D01*
X8590Y143404D01*
X8550Y143412D01*
X8534Y143423D01*
X8494Y143431D01*
X8478Y143442D01*
X8438Y143450D01*
X8421Y143461D01*
X8381Y143469D01*
X8365Y143480D01*
X8325Y143488D01*
X8309Y143498D01*
X8242Y143511D01*
X8234Y143517D01*
X8194Y143525D01*
X8178Y143536D01*
X8111Y143549D01*
X8103Y143554D01*
X8036Y143568D01*
X8028Y143573D01*
X7934Y143592D01*
X7934Y143592D01*
X7840Y143611D01*
X7840Y143611D01*
X7747Y143629D01*
X7746Y143630D01*
X7356Y143707D01*
X7338D01*
X7244Y143726D01*
X7207D01*
X7113Y143745D01*
X7019D01*
X6925Y143763D01*
X6063D01*
X5968Y143745D01*
X5875D01*
X5781Y143726D01*
X5744D01*
X5649Y143707D01*
X5631D01*
X5241Y143630D01*
X5241Y143629D01*
X5147Y143611D01*
X5147Y143611D01*
X5054Y143592D01*
X5053Y143592D01*
X4960Y143573D01*
X4952Y143568D01*
X4885Y143554D01*
X4877Y143549D01*
X4810Y143536D01*
X4794Y143525D01*
X4754Y143517D01*
X4745Y143511D01*
X4679Y143498D01*
X4662Y143488D01*
X4622Y143480D01*
X4606Y143469D01*
X4566Y143461D01*
X4550Y143450D01*
X4510Y143442D01*
X4494Y143431D01*
X4454Y143423D01*
X4437Y143412D01*
X4397Y143404D01*
X4373Y143388D01*
X4360Y143386D01*
X4344Y143375D01*
X4304Y143367D01*
X4279Y143351D01*
X4266Y143348D01*
X4250Y143338D01*
X4210Y143330D01*
X4186Y143313D01*
X4172Y143311D01*
X4156Y143300D01*
X4116Y143292D01*
X4092Y143276D01*
X4079Y143273D01*
X4055Y143257D01*
X4041Y143254D01*
X4017Y143238D01*
X4004Y143236D01*
X3980Y143220D01*
X3966Y143217D01*
X3942Y143201D01*
X3929Y143198D01*
X3904Y143182D01*
X3891Y143180D01*
X3867Y143163D01*
X3854Y143161D01*
X3830Y143145D01*
X3816Y143142D01*
X3792Y143126D01*
X3779Y143123D01*
X3754Y143107D01*
X3741Y143105D01*
X3717Y143088D01*
X3704Y143086D01*
X3647Y143048D01*
X3647Y143048D01*
X3623Y143032D01*
X3610Y143029D01*
X3586Y143013D01*
X3572Y143011D01*
X3516Y142973D01*
X3516Y142973D01*
X3460Y142936D01*
X3460Y142936D01*
X3436Y142920D01*
X3422Y142917D01*
X3366Y142879D01*
X3366Y142879D01*
X3310Y142842D01*
X3310Y142842D01*
X2979Y142621D01*
X2972Y142610D01*
X2848Y142527D01*
X2840Y142516D01*
X2773Y142471D01*
X2765Y142460D01*
X2754Y142452D01*
X2747Y142441D01*
X2679Y142396D01*
X2671Y142385D01*
X2660Y142377D01*
X2653Y142366D01*
X2585Y142321D01*
X2578Y142310D01*
X2567Y142302D01*
X2559Y142291D01*
X2548Y142283D01*
X2540Y142272D01*
X2529Y142265D01*
X2521Y142253D01*
X2510Y142246D01*
X2503Y142235D01*
X2492Y142227D01*
X2484Y142216D01*
X2417Y142171D01*
X2409Y142160D01*
X2398Y142152D01*
X2390Y142141D01*
X2379Y142133D01*
X2372Y142122D01*
X2360Y142115D01*
X2353Y142104D01*
X2341Y142096D01*
X2334Y142085D01*
X2323Y142077D01*
X2315Y142066D01*
X2304Y142059D01*
X2296Y142047D01*
X2285Y142040D01*
X2278Y142028D01*
X2266Y142021D01*
X2259Y142010D01*
X2248Y142002D01*
X2240Y141991D01*
X2229Y141983D01*
X2221Y141972D01*
X2210Y141965D01*
X2203Y141954D01*
X2191Y141946D01*
X2184Y141935D01*
X2173Y141927D01*
X2128Y141860D01*
X2117Y141852D01*
X2109Y141841D01*
X2098Y141833D01*
X2090Y141822D01*
X2079Y141815D01*
X2072Y141804D01*
X2060Y141796D01*
X2053Y141785D01*
X2042Y141777D01*
X2034Y141766D01*
X2023Y141759D01*
X1978Y141691D01*
X1966Y141683D01*
X1959Y141672D01*
X1948Y141665D01*
X1940Y141654D01*
X1929Y141646D01*
X1884Y141578D01*
X1873Y141571D01*
X1828Y141503D01*
X1816Y141496D01*
X1771Y141428D01*
X1760Y141421D01*
X1539Y141090D01*
X1539Y141090D01*
X1529Y141075D01*
Y200709D01*
X1510Y200806D01*
X1698Y202720D01*
X2285Y204654D01*
X3238Y206437D01*
X4520Y207999D01*
X6083Y209282D01*
X7865Y210234D01*
X9799Y210821D01*
X11713Y211010D01*
X11811Y210990D01*
X325197D01*
X325294Y211010D01*
X327208Y210821D01*
D02*
G37*
G36*
X265528Y193208D02*
X264979Y192659D01*
X264671Y192198D01*
X264563Y191655D01*
Y186201D01*
X264500Y186228D01*
Y184500D01*
Y182772D01*
X264563Y182799D01*
Y182036D01*
X263437D01*
Y182799D01*
X263500Y182772D01*
Y184500D01*
Y186228D01*
X263428Y186198D01*
X263427Y186201D01*
X263329Y186698D01*
X263021Y187159D01*
X261421Y188759D01*
Y192697D01*
X261980Y192547D01*
X263020D01*
X264026Y192817D01*
X264927Y193337D01*
X265528Y193938D01*
Y193208D01*
D02*
G37*
G36*
X320485Y167013D02*
X320272Y166500D01*
X322000D01*
Y166000D01*
X322500D01*
Y164272D01*
X323012Y164485D01*
X323515Y164988D01*
X323628Y165260D01*
X323650Y165149D01*
X324132Y164427D01*
X324854Y163945D01*
X325705Y163776D01*
X327173D01*
Y166000D01*
X328173D01*
Y163776D01*
X329642D01*
X330422Y163931D01*
X329702Y163212D01*
X329642Y163224D01*
X325705D01*
X324854Y163055D01*
X324132Y162573D01*
X323650Y161851D01*
X323481Y161000D01*
X323650Y160149D01*
X324132Y159427D01*
X324854Y158946D01*
X325705Y158776D01*
X329642D01*
X330493Y158946D01*
X330748Y159116D01*
X329820Y158188D01*
X329642Y158224D01*
X325705D01*
X324854Y158054D01*
X324132Y157572D01*
X323650Y156851D01*
X323481Y156000D01*
X323650Y155149D01*
X324132Y154428D01*
X324854Y153946D01*
X325705Y153776D01*
X329642D01*
X330493Y153946D01*
X330748Y154116D01*
X329820Y153188D01*
X329642Y153224D01*
X325705D01*
X324854Y153054D01*
X324132Y152573D01*
X324031Y152421D01*
X321205D01*
X320661Y152313D01*
X320200Y152005D01*
X315322Y147127D01*
X313101D01*
Y146421D01*
X312615D01*
Y147127D01*
X306827D01*
X303425Y150529D01*
X303519Y151000D01*
X303350Y151851D01*
X302868Y152573D01*
X302146Y153054D01*
X301295Y153224D01*
X297358D01*
X296507Y153054D01*
X296332Y152938D01*
X296297Y152973D01*
X295836Y153281D01*
X295383Y153372D01*
Y153500D01*
X293300D01*
X291217D01*
Y153390D01*
X290783D01*
Y154579D01*
X291217D01*
Y154500D01*
X293300D01*
X295383D01*
Y154579D01*
X295685D01*
X295786Y154428D01*
X296507Y153946D01*
X297358Y153776D01*
X301295D01*
X302146Y153946D01*
X302868Y154428D01*
X303350Y155149D01*
X303519Y156000D01*
X303350Y156851D01*
X302868Y157572D01*
X302146Y158054D01*
X301295Y158224D01*
X297358D01*
X296507Y158054D01*
X295786Y157572D01*
X295685Y157421D01*
X288760D01*
X290918Y159579D01*
X295685D01*
X295786Y159427D01*
X296507Y158946D01*
X297358Y158776D01*
X301295D01*
X302146Y158946D01*
X302868Y159427D01*
X303350Y160149D01*
X303519Y161000D01*
X303350Y161851D01*
X302868Y162573D01*
X302146Y163055D01*
X301295Y163224D01*
X297358D01*
X296507Y163055D01*
X295786Y162573D01*
X295685Y162421D01*
X292090D01*
X294248Y164579D01*
X295685D01*
X295786Y164427D01*
X296507Y163945D01*
X297358Y163776D01*
X301295D01*
X302146Y163945D01*
X302868Y164427D01*
X303350Y165149D01*
X303519Y166000D01*
X303350Y166851D01*
X303198Y167079D01*
X320551D01*
X320485Y167013D01*
D02*
G37*
G36*
X260225Y162044D02*
X260653Y161959D01*
X261244D01*
X261673Y162044D01*
X261736Y162086D01*
X261800Y162044D01*
X262110Y161982D01*
X259495Y159368D01*
X259187Y158907D01*
X259079Y158363D01*
Y156449D01*
X259013Y156515D01*
X258500Y156728D01*
Y155000D01*
X257500D01*
Y156728D01*
X257187Y156598D01*
Y156917D01*
X257102Y157346D01*
X257059Y157409D01*
X257102Y157473D01*
X257187Y157902D01*
Y158492D01*
X257102Y158921D01*
X257059Y158984D01*
X257102Y159048D01*
X257187Y159476D01*
Y160067D01*
X257102Y160495D01*
X257059Y160559D01*
X257102Y160623D01*
X257187Y161051D01*
Y161642D01*
X257108Y162038D01*
X257504Y161959D01*
X258095D01*
X258523Y162044D01*
X258587Y162086D01*
X258650Y162044D01*
X259079Y161959D01*
X259669D01*
X260098Y162044D01*
X260161Y162086D01*
X260225Y162044D01*
D02*
G37*
G36*
X264560Y160079D02*
X273305D01*
X273272Y160000D01*
X276728D01*
X276695Y160079D01*
X276851D01*
Y155184D01*
X276563Y155472D01*
X275906Y155744D01*
X275195D01*
X275138Y155720D01*
Y157713D01*
X275356D01*
X276012Y157985D01*
X276515Y158487D01*
X276728Y159000D01*
X273272D01*
X273485Y158487D01*
X273760Y158213D01*
X268535D01*
Y151110D01*
X268035D01*
Y150610D01*
X260933D01*
Y146038D01*
X257923Y149048D01*
X258328Y149318D01*
X260933Y151924D01*
Y151610D01*
X267535D01*
Y158213D01*
X262359D01*
X264281Y160134D01*
X264560Y160079D01*
D02*
G37*
G36*
X250079Y140783D02*
X250000D01*
Y138700D01*
X249000D01*
Y140783D01*
X248170D01*
Y141217D01*
X250079D01*
Y140783D01*
D02*
G37*
G36*
X284417Y140873D02*
Y138717D01*
X290579D01*
Y138283D01*
X290500D01*
Y136200D01*
X289500D01*
Y138283D01*
X287000D01*
Y136200D01*
X286500D01*
Y135700D01*
X284417D01*
Y134117D01*
X284821D01*
X284772Y134000D01*
X286500D01*
Y133500D01*
X287000D01*
Y131772D01*
X287512Y131985D01*
X288015Y132487D01*
X288250Y133054D01*
X288485Y132487D01*
X288987Y131985D01*
X289500Y131772D01*
Y133500D01*
X290500D01*
Y131772D01*
X290579Y131805D01*
Y127862D01*
X287883D01*
Y128500D01*
X285800D01*
X283717D01*
Y127862D01*
X283283D01*
Y131083D01*
X282693D01*
Y134587D01*
X282585Y135130D01*
X282276Y135591D01*
X279693Y138175D01*
Y139453D01*
X281559D01*
X281588Y139459D01*
X283114D01*
X283543Y139544D01*
X283906Y139787D01*
X284149Y140150D01*
X284234Y140579D01*
Y141028D01*
X284263D01*
X284417Y140873D01*
D02*
G37*
G36*
X6925Y142725D02*
X7113D01*
Y142706D01*
X7244D01*
Y142687D01*
X7356D01*
Y142669D01*
X7450D01*
Y142650D01*
X7544D01*
Y142631D01*
X7638D01*
Y142613D01*
X7712D01*
Y142594D01*
X7788D01*
Y142575D01*
X7844D01*
Y142556D01*
X7919D01*
Y142537D01*
X7975D01*
Y142519D01*
X8031D01*
Y142500D01*
X8088D01*
Y142481D01*
X8144D01*
Y142463D01*
X8200D01*
Y142444D01*
X8237D01*
Y142425D01*
X8294D01*
Y142406D01*
X8331D01*
Y142387D01*
X8388D01*
Y142369D01*
X8425D01*
Y142350D01*
X8481D01*
Y142331D01*
X8519D01*
Y142313D01*
X8556D01*
Y142294D01*
X8594D01*
Y142275D01*
X8631D01*
Y142256D01*
X8669D01*
Y142237D01*
X8706D01*
Y142219D01*
X8744D01*
Y142200D01*
X8781D01*
Y142181D01*
X8819D01*
Y142163D01*
X8856D01*
Y142144D01*
X8894D01*
Y142125D01*
X8912D01*
Y142106D01*
X8950D01*
Y142087D01*
X8987D01*
Y142069D01*
X9025D01*
Y142050D01*
X9044D01*
Y142031D01*
X9081D01*
Y142013D01*
X9119D01*
Y141994D01*
X9138D01*
Y141975D01*
X9175D01*
Y141956D01*
X9194D01*
Y141937D01*
X9231D01*
Y141919D01*
X9250D01*
Y141900D01*
X9287D01*
Y141881D01*
X9306D01*
Y141862D01*
X9325D01*
Y141844D01*
X9363D01*
Y141825D01*
X9381D01*
Y141806D01*
X9419D01*
Y141788D01*
X9437D01*
Y141769D01*
X9456D01*
Y141750D01*
X9494D01*
Y141731D01*
X9512D01*
Y141712D01*
X9531D01*
Y141694D01*
X9550D01*
Y141675D01*
X9588D01*
Y141656D01*
X9606D01*
Y141638D01*
X9625D01*
Y141619D01*
X9644D01*
Y141600D01*
X9681D01*
Y141581D01*
X9700D01*
Y141562D01*
X9719D01*
Y141544D01*
X9737D01*
Y141525D01*
X9756D01*
Y141506D01*
X9775D01*
Y141488D01*
X9794D01*
Y141469D01*
X9813D01*
Y141450D01*
X9850D01*
Y141431D01*
X9869D01*
Y141412D01*
X9888D01*
Y141394D01*
X9906D01*
Y141375D01*
X9925D01*
Y141356D01*
X9944D01*
Y141338D01*
X9962D01*
Y141319D01*
X9981D01*
Y141300D01*
X10000D01*
Y141281D01*
X10019D01*
Y141262D01*
X10037D01*
Y141244D01*
X10056D01*
Y141225D01*
X10075D01*
Y141206D01*
X10094D01*
Y141188D01*
X10113D01*
Y141150D01*
X10131D01*
Y141131D01*
X10150D01*
Y141112D01*
X10169D01*
Y141094D01*
X10187D01*
Y141075D01*
X10206D01*
Y141056D01*
X10225D01*
Y141037D01*
X10244D01*
Y141000D01*
X10262D01*
Y140981D01*
X10281D01*
Y140963D01*
X10300D01*
Y140944D01*
X10319D01*
Y140925D01*
X10338D01*
Y140887D01*
X10356D01*
Y140869D01*
X10375D01*
Y140850D01*
X10394D01*
Y140813D01*
X10413D01*
Y140794D01*
X10431D01*
Y140775D01*
X10450D01*
Y140737D01*
X10469D01*
Y140719D01*
X10487D01*
Y140700D01*
X10506D01*
Y140663D01*
X10525D01*
Y140644D01*
X10544D01*
Y140606D01*
X10563D01*
Y140587D01*
X10581D01*
Y140550D01*
X10600D01*
Y140531D01*
X10619D01*
Y140494D01*
X10638D01*
Y140475D01*
X10656D01*
Y140437D01*
X10675D01*
Y140419D01*
X10694D01*
Y140381D01*
X10712D01*
Y140344D01*
X10731D01*
Y140306D01*
X10750D01*
Y140287D01*
X10769D01*
Y140250D01*
X10787D01*
Y140213D01*
X10806D01*
Y140175D01*
X10825D01*
Y140138D01*
X10844D01*
Y140119D01*
X10863D01*
Y140081D01*
X10881D01*
Y140044D01*
X10900D01*
Y140006D01*
X10919D01*
Y139969D01*
X10938D01*
Y139912D01*
X10956D01*
Y139875D01*
X10975D01*
Y139838D01*
X10994D01*
Y139800D01*
X11012D01*
Y139744D01*
X11031D01*
Y139706D01*
X11050D01*
Y139650D01*
X11069D01*
Y139612D01*
X11088D01*
Y139556D01*
X11106D01*
Y139500D01*
X11125D01*
Y139462D01*
X11144D01*
Y139406D01*
X11163D01*
Y139331D01*
X11181D01*
Y139275D01*
X11200D01*
Y139219D01*
X11219D01*
Y139144D01*
X11237D01*
Y139069D01*
X11256D01*
Y138994D01*
X11275D01*
Y138919D01*
X11294D01*
Y138825D01*
X11312D01*
Y138731D01*
X11331D01*
Y138619D01*
X11350D01*
Y138488D01*
X11369D01*
Y138300D01*
X11388D01*
Y137437D01*
X11369D01*
Y137250D01*
X11350D01*
Y137119D01*
X11331D01*
Y137006D01*
X11312D01*
Y136913D01*
X11294D01*
Y136819D01*
X11275D01*
Y136744D01*
X11256D01*
Y136669D01*
X11237D01*
Y136594D01*
X11219D01*
Y136519D01*
X11200D01*
Y136462D01*
X11181D01*
Y136406D01*
X11163D01*
Y136331D01*
X11144D01*
Y136275D01*
X11125D01*
Y136238D01*
X11106D01*
Y136181D01*
X11088D01*
Y136125D01*
X11069D01*
Y136088D01*
X11050D01*
Y136031D01*
X11031D01*
Y135994D01*
X11012D01*
Y135938D01*
X10994D01*
Y135900D01*
X10975D01*
Y135863D01*
X10956D01*
Y135825D01*
X10938D01*
Y135787D01*
X10919D01*
Y135731D01*
X10900D01*
Y135694D01*
X10881D01*
Y135656D01*
X10863D01*
Y135619D01*
X10844D01*
Y135600D01*
X10825D01*
Y135563D01*
X10806D01*
Y135525D01*
X10787D01*
Y135487D01*
X10769D01*
Y135450D01*
X10750D01*
Y135431D01*
X10731D01*
Y135394D01*
X10712D01*
Y135356D01*
X10694D01*
Y135319D01*
X10675D01*
Y135300D01*
X10656D01*
Y135263D01*
X10638D01*
Y135244D01*
X10619D01*
Y135206D01*
X10600D01*
Y135187D01*
X10581D01*
Y135150D01*
X10563D01*
Y135131D01*
X10544D01*
Y135094D01*
X10525D01*
Y135075D01*
X10506D01*
Y135038D01*
X10487D01*
Y135019D01*
X10469D01*
Y135000D01*
X10450D01*
Y134962D01*
X10431D01*
Y134944D01*
X10413D01*
Y134925D01*
X10394D01*
Y134888D01*
X10375D01*
Y134869D01*
X10356D01*
Y134850D01*
X10338D01*
Y134812D01*
X10319D01*
Y134794D01*
X10300D01*
Y134775D01*
X10281D01*
Y134756D01*
X10262D01*
Y134738D01*
X10244D01*
Y134700D01*
X10225D01*
Y134681D01*
X10206D01*
Y134662D01*
X10187D01*
Y134644D01*
X10169D01*
Y134625D01*
X10150D01*
Y134606D01*
X10131D01*
Y134588D01*
X10113D01*
Y134569D01*
X10094D01*
Y134531D01*
X10075D01*
Y134512D01*
X10056D01*
Y134494D01*
X10037D01*
Y134475D01*
X10019D01*
Y134456D01*
X10000D01*
Y134438D01*
X9981D01*
Y134419D01*
X9962D01*
Y134400D01*
X9944D01*
Y134381D01*
X9925D01*
Y134362D01*
X9906D01*
Y134344D01*
X9888D01*
Y134325D01*
X9869D01*
Y134306D01*
X9850D01*
Y134288D01*
X9813D01*
Y134269D01*
X9794D01*
Y134250D01*
X9775D01*
Y134231D01*
X9756D01*
Y134213D01*
X9737D01*
Y134194D01*
X9719D01*
Y134175D01*
X9700D01*
Y134156D01*
X9681D01*
Y134137D01*
X9644D01*
Y134119D01*
X9625D01*
Y134100D01*
X9606D01*
Y134081D01*
X9588D01*
Y134063D01*
X9550D01*
Y134044D01*
X9531D01*
Y134025D01*
X9512D01*
Y134006D01*
X9494D01*
Y133987D01*
X9456D01*
Y133969D01*
X9437D01*
Y133950D01*
X9419D01*
Y133931D01*
X9381D01*
Y133913D01*
X9363D01*
Y133894D01*
X9325D01*
Y133875D01*
X9306D01*
Y133856D01*
X9287D01*
Y133837D01*
X9250D01*
Y133819D01*
X9231D01*
Y133800D01*
X9194D01*
Y133781D01*
X9175D01*
Y133763D01*
X9138D01*
Y133744D01*
X9100D01*
Y133725D01*
X9081D01*
Y133706D01*
X9044D01*
Y133687D01*
X9025D01*
Y133669D01*
X8987D01*
Y133650D01*
X8950D01*
Y133631D01*
X8912D01*
Y133613D01*
X8894D01*
Y133594D01*
X8856D01*
Y133575D01*
X8819D01*
Y133556D01*
X8781D01*
Y133537D01*
X8744D01*
Y133519D01*
X8706D01*
Y133500D01*
X8669D01*
Y133481D01*
X8631D01*
Y133463D01*
X8594D01*
Y133444D01*
X8556D01*
Y133425D01*
X8519D01*
Y133406D01*
X8481D01*
Y133387D01*
X8425D01*
Y133369D01*
X8388D01*
Y133350D01*
X8331D01*
Y133331D01*
X8294D01*
Y133312D01*
X8237D01*
Y133294D01*
X8200D01*
Y133275D01*
X8144D01*
Y133256D01*
X8088D01*
Y133238D01*
X8031D01*
Y133219D01*
X7975D01*
Y133200D01*
X7919D01*
Y133181D01*
X7844D01*
Y133162D01*
X7788D01*
Y133144D01*
X7712D01*
Y133125D01*
X7638D01*
Y133106D01*
X7544D01*
Y133088D01*
X7450D01*
Y133069D01*
X7356D01*
Y133050D01*
X7244D01*
Y133031D01*
X7113D01*
Y133012D01*
X6925D01*
Y132994D01*
X6063D01*
Y133012D01*
X5875D01*
Y133031D01*
X5744D01*
Y133050D01*
X5631D01*
Y133069D01*
X5537D01*
Y133088D01*
X5444D01*
Y133106D01*
X5350D01*
Y133125D01*
X5275D01*
Y133144D01*
X5200D01*
Y133162D01*
X5144D01*
Y133181D01*
X5069D01*
Y133200D01*
X5012D01*
Y133219D01*
X4956D01*
Y133238D01*
X4900D01*
Y133256D01*
X4844D01*
Y133275D01*
X4787D01*
Y133294D01*
X4750D01*
Y133312D01*
X4694D01*
Y133331D01*
X4656D01*
Y133350D01*
X4600D01*
Y133369D01*
X4563D01*
Y133387D01*
X4525D01*
Y133406D01*
X4469D01*
Y133425D01*
X4431D01*
Y133444D01*
X4394D01*
Y133463D01*
X4356D01*
Y133481D01*
X4319D01*
Y133500D01*
X4281D01*
Y133519D01*
X4244D01*
Y133537D01*
X4206D01*
Y133556D01*
X4169D01*
Y133575D01*
X4131D01*
Y133594D01*
X4094D01*
Y133613D01*
X4075D01*
Y133631D01*
X4038D01*
Y133650D01*
X4000D01*
Y133669D01*
X3963D01*
Y133687D01*
X3944D01*
Y133706D01*
X3906D01*
Y133725D01*
X3887D01*
Y133744D01*
X3850D01*
Y133763D01*
X3813D01*
Y133781D01*
X3794D01*
Y133800D01*
X3756D01*
Y133819D01*
X3737D01*
Y133837D01*
X3700D01*
Y133856D01*
X3681D01*
Y133875D01*
X3663D01*
Y133894D01*
X3625D01*
Y133913D01*
X3606D01*
Y133931D01*
X3569D01*
Y133950D01*
X3550D01*
Y133969D01*
X3531D01*
Y133987D01*
X3494D01*
Y134006D01*
X3475D01*
Y134025D01*
X3456D01*
Y134044D01*
X3438D01*
Y134063D01*
X3400D01*
Y134081D01*
X3381D01*
Y134100D01*
X3362D01*
Y134119D01*
X3344D01*
Y134137D01*
X3306D01*
Y134156D01*
X3288D01*
Y134175D01*
X3269D01*
Y134194D01*
X3250D01*
Y134213D01*
X3231D01*
Y134231D01*
X3212D01*
Y134250D01*
X3194D01*
Y134269D01*
X3175D01*
Y134288D01*
X3137D01*
Y134306D01*
X3119D01*
Y134325D01*
X3100D01*
Y134344D01*
X3081D01*
Y134362D01*
X3063D01*
Y134381D01*
X3044D01*
Y134400D01*
X3025D01*
Y134419D01*
X3006D01*
Y134438D01*
X2987D01*
Y134456D01*
X2969D01*
Y134475D01*
X2950D01*
Y134494D01*
X2931D01*
Y134512D01*
X2912D01*
Y134531D01*
X2894D01*
Y134569D01*
X2875D01*
Y134588D01*
X2856D01*
Y134606D01*
X2837D01*
Y134625D01*
X2819D01*
Y134644D01*
X2800D01*
Y134662D01*
X2781D01*
Y134681D01*
X2763D01*
Y134700D01*
X2744D01*
Y134738D01*
X2725D01*
Y134756D01*
X2706D01*
Y134775D01*
X2688D01*
Y134794D01*
X2669D01*
Y134812D01*
X2650D01*
Y134850D01*
X2631D01*
Y134869D01*
X2613D01*
Y134888D01*
X2594D01*
Y134925D01*
X2575D01*
Y134944D01*
X2556D01*
Y134962D01*
X2537D01*
Y135000D01*
X2519D01*
Y135019D01*
X2500D01*
Y135038D01*
X2481D01*
Y135075D01*
X2462D01*
Y135094D01*
X2444D01*
Y135131D01*
X2425D01*
Y135150D01*
X2406D01*
Y135187D01*
X2387D01*
Y135206D01*
X2369D01*
Y135244D01*
X2350D01*
Y135263D01*
X2331D01*
Y135300D01*
X2313D01*
Y135337D01*
X2294D01*
Y135356D01*
X2275D01*
Y135394D01*
X2256D01*
Y135431D01*
X2238D01*
Y135450D01*
X2219D01*
Y135487D01*
X2200D01*
Y135525D01*
X2181D01*
Y135563D01*
X2162D01*
Y135600D01*
X2144D01*
Y135619D01*
X2125D01*
Y135656D01*
X2106D01*
Y135694D01*
X2087D01*
Y135731D01*
X2069D01*
Y135787D01*
X2050D01*
Y135825D01*
X2031D01*
Y135863D01*
X2012D01*
Y135900D01*
X1994D01*
Y135938D01*
X1975D01*
Y135994D01*
X1956D01*
Y136031D01*
X1938D01*
Y136088D01*
X1919D01*
Y136125D01*
X1900D01*
Y136181D01*
X1881D01*
Y136238D01*
X1863D01*
Y136294D01*
X1844D01*
Y136350D01*
X1825D01*
Y136406D01*
X1806D01*
Y136462D01*
X1788D01*
Y136519D01*
X1769D01*
Y136594D01*
X1750D01*
Y136669D01*
X1731D01*
Y136744D01*
X1712D01*
Y136819D01*
X1694D01*
Y136913D01*
X1675D01*
Y137006D01*
X1656D01*
Y137119D01*
X1637D01*
Y137269D01*
X1619D01*
Y137437D01*
X1600D01*
Y138300D01*
X1619D01*
Y138469D01*
X1637D01*
Y138619D01*
X1656D01*
Y138731D01*
X1675D01*
Y138825D01*
X1694D01*
Y138919D01*
X1712D01*
Y138994D01*
X1731D01*
Y139069D01*
X1750D01*
Y139144D01*
X1769D01*
Y139219D01*
X1788D01*
Y139275D01*
X1806D01*
Y139331D01*
X1825D01*
Y139388D01*
X1844D01*
Y139444D01*
X1863D01*
Y139500D01*
X1881D01*
Y139556D01*
X1900D01*
Y139612D01*
X1919D01*
Y139650D01*
X1938D01*
Y139706D01*
X1956D01*
Y139744D01*
X1975D01*
Y139800D01*
X1994D01*
Y139838D01*
X2012D01*
Y139875D01*
X2031D01*
Y139912D01*
X2050D01*
Y139950D01*
X2069D01*
Y140006D01*
X2087D01*
Y140044D01*
X2106D01*
Y140081D01*
X2125D01*
Y140119D01*
X2144D01*
Y140138D01*
X2162D01*
Y140175D01*
X2181D01*
Y140213D01*
X2200D01*
Y140250D01*
X2219D01*
Y140287D01*
X2238D01*
Y140306D01*
X2256D01*
Y140344D01*
X2275D01*
Y140381D01*
X2294D01*
Y140400D01*
X2313D01*
Y140437D01*
X2331D01*
Y140475D01*
X2350D01*
Y140494D01*
X2369D01*
Y140531D01*
X2387D01*
Y140550D01*
X2406D01*
Y140587D01*
X2425D01*
Y140606D01*
X2444D01*
Y140644D01*
X2462D01*
Y140663D01*
X2481D01*
Y140700D01*
X2500D01*
Y140719D01*
X2519D01*
Y140737D01*
X2537D01*
Y140775D01*
X2556D01*
Y140794D01*
X2575D01*
Y140813D01*
X2594D01*
Y140850D01*
X2613D01*
Y140869D01*
X2631D01*
Y140887D01*
X2650D01*
Y140925D01*
X2669D01*
Y140944D01*
X2688D01*
Y140963D01*
X2706D01*
Y140981D01*
X2725D01*
Y141000D01*
X2744D01*
Y141037D01*
X2763D01*
Y141056D01*
X2781D01*
Y141075D01*
X2800D01*
Y141094D01*
X2819D01*
Y141112D01*
X2837D01*
Y141131D01*
X2856D01*
Y141150D01*
X2875D01*
Y141169D01*
X2894D01*
Y141206D01*
X2912D01*
Y141225D01*
X2931D01*
Y141244D01*
X2950D01*
Y141262D01*
X2969D01*
Y141281D01*
X2987D01*
Y141300D01*
X3006D01*
Y141319D01*
X3025D01*
Y141338D01*
X3044D01*
Y141356D01*
X3063D01*
Y141375D01*
X3081D01*
Y141394D01*
X3100D01*
Y141412D01*
X3119D01*
Y141431D01*
X3137D01*
Y141450D01*
X3175D01*
Y141469D01*
X3194D01*
Y141488D01*
X3212D01*
Y141506D01*
X3231D01*
Y141525D01*
X3250D01*
Y141544D01*
X3269D01*
Y141562D01*
X3288D01*
Y141581D01*
X3306D01*
Y141600D01*
X3344D01*
Y141619D01*
X3362D01*
Y141638D01*
X3381D01*
Y141656D01*
X3400D01*
Y141675D01*
X3438D01*
Y141694D01*
X3456D01*
Y141712D01*
X3475D01*
Y141731D01*
X3494D01*
Y141750D01*
X3531D01*
Y141769D01*
X3550D01*
Y141788D01*
X3569D01*
Y141806D01*
X3606D01*
Y141825D01*
X3625D01*
Y141844D01*
X3663D01*
Y141862D01*
X3681D01*
Y141881D01*
X3700D01*
Y141900D01*
X3737D01*
Y141919D01*
X3756D01*
Y141937D01*
X3794D01*
Y141956D01*
X3813D01*
Y141975D01*
X3850D01*
Y141994D01*
X3887D01*
Y142013D01*
X3906D01*
Y142031D01*
X3944D01*
Y142050D01*
X3963D01*
Y142069D01*
X4000D01*
Y142087D01*
X4038D01*
Y142106D01*
X4075D01*
Y142125D01*
X4094D01*
Y142144D01*
X4131D01*
Y142163D01*
X4169D01*
Y142181D01*
X4206D01*
Y142200D01*
X4244D01*
Y142219D01*
X4281D01*
Y142237D01*
X4319D01*
Y142256D01*
X4356D01*
Y142275D01*
X4394D01*
Y142294D01*
X4431D01*
Y142313D01*
X4469D01*
Y142331D01*
X4506D01*
Y142350D01*
X4563D01*
Y142369D01*
X4600D01*
Y142387D01*
X4656D01*
Y142406D01*
X4694D01*
Y142425D01*
X4750D01*
Y142444D01*
X4787D01*
Y142463D01*
X4844D01*
Y142481D01*
X4900D01*
Y142500D01*
X4956D01*
Y142519D01*
X5012D01*
Y142537D01*
X5069D01*
Y142556D01*
X5144D01*
Y142575D01*
X5200D01*
Y142594D01*
X5275D01*
Y142613D01*
X5350D01*
Y142631D01*
X5444D01*
Y142650D01*
X5537D01*
Y142669D01*
X5631D01*
Y142687D01*
X5744D01*
Y142706D01*
X5875D01*
Y142725D01*
X6063D01*
Y142744D01*
X6925D01*
Y142725D01*
D02*
G37*
G36*
X287445Y112583D02*
X287217D01*
Y111000D01*
X289300D01*
Y110500D01*
X289800D01*
Y108417D01*
X290579D01*
Y104961D01*
X290687Y104418D01*
X290995Y103956D01*
X291456Y103495D01*
X291917Y103187D01*
X292461Y103079D01*
X296601D01*
Y102373D01*
X304054D01*
X304405Y102022D01*
X303510Y101127D01*
X299651D01*
Y99000D01*
X298651D01*
Y101127D01*
X297036D01*
Y100629D01*
X296935Y100671D01*
Y98944D01*
X295935D01*
Y100671D01*
X295422Y100459D01*
X294919Y99956D01*
X294647Y99299D01*
Y99146D01*
X286322Y107472D01*
Y108417D01*
X286783D01*
Y112583D01*
X286322D01*
Y112791D01*
X287359D01*
X287445Y112583D01*
D02*
G37*
%LPC*%
G36*
X23500Y210728D02*
Y209500D01*
X24728D01*
X24515Y210013D01*
X24013Y210515D01*
X23500Y210728D01*
D02*
G37*
G36*
X22500D02*
X21987Y210515D01*
X21485Y210013D01*
X21272Y209500D01*
X22500D01*
Y210728D01*
D02*
G37*
G36*
X24728Y208500D02*
X23500D01*
Y207272D01*
X24013Y207485D01*
X24515Y207987D01*
X24728Y208500D01*
D02*
G37*
G36*
X22500D02*
X21272D01*
X21485Y207987D01*
X21987Y207485D01*
X22500Y207272D01*
Y208500D01*
D02*
G37*
G36*
X210984Y210487D02*
X210500D01*
Y207000D01*
X214905D01*
X214835Y207532D01*
X214437Y208493D01*
X213803Y209319D01*
X212978Y209953D01*
X212016Y210351D01*
X210984Y210487D01*
D02*
G37*
G36*
X209500D02*
X209016D01*
X207984Y210351D01*
X207022Y209953D01*
X206197Y209319D01*
X205563Y208493D01*
X205165Y207532D01*
X205095Y207000D01*
X209500D01*
Y210487D01*
D02*
G37*
G36*
X333000Y204728D02*
X332488Y204515D01*
X331985Y204012D01*
X331772Y203500D01*
X333000D01*
Y204728D01*
D02*
G37*
G36*
X214905Y206000D02*
X210500D01*
Y202513D01*
X210984D01*
X212016Y202649D01*
X212978Y203047D01*
X213803Y203681D01*
X214437Y204507D01*
X214835Y205468D01*
X214905Y206000D01*
D02*
G37*
G36*
X209500D02*
X205095D01*
X205165Y205468D01*
X205563Y204507D01*
X206197Y203681D01*
X207022Y203047D01*
X207984Y202649D01*
X209016Y202513D01*
X209500D01*
Y206000D01*
D02*
G37*
G36*
X312000Y203228D02*
Y202000D01*
X313228D01*
X313015Y202513D01*
X312512Y203015D01*
X312000Y203228D01*
D02*
G37*
G36*
X311000D02*
X310488Y203015D01*
X309985Y202513D01*
X309772Y202000D01*
X311000D01*
Y203228D01*
D02*
G37*
G36*
X333000Y202500D02*
X331772D01*
X331985Y201988D01*
X332488Y201485D01*
X333000Y201272D01*
Y202500D01*
D02*
G37*
G36*
X313228Y201000D02*
X312000D01*
Y199772D01*
X312512Y199985D01*
X313015Y200487D01*
X313228Y201000D01*
D02*
G37*
G36*
X311000D02*
X309772D01*
X309985Y200487D01*
X310488Y199985D01*
X311000Y199772D01*
Y201000D01*
D02*
G37*
G36*
X214937Y200453D02*
X210500D01*
Y197000D01*
X214937D01*
Y200453D01*
D02*
G37*
G36*
X209500D02*
X205063D01*
Y197000D01*
X209500D01*
Y200453D01*
D02*
G37*
G36*
X214937Y196000D02*
X210500D01*
Y192547D01*
X214937D01*
Y196000D01*
D02*
G37*
G36*
X209500D02*
X205063D01*
Y192547D01*
X209500D01*
Y196000D01*
D02*
G37*
G36*
X292728Y185000D02*
X291500D01*
Y183772D01*
X292013Y183985D01*
X292515Y184487D01*
X292728Y185000D01*
D02*
G37*
G36*
X249000Y181728D02*
X248487Y181515D01*
X247985Y181012D01*
X247772Y180500D01*
X249000D01*
Y181728D01*
D02*
G37*
G36*
Y179500D02*
X247772D01*
X247985Y178988D01*
X248487Y178485D01*
X249000Y178272D01*
Y179500D01*
D02*
G37*
G36*
X333500Y174728D02*
X332987Y174515D01*
X332485Y174012D01*
X332272Y173500D01*
X333500D01*
Y174728D01*
D02*
G37*
G36*
X234499Y174185D02*
X232916D01*
Y172602D01*
X234499D01*
Y174185D01*
D02*
G37*
G36*
X231916D02*
X230334D01*
Y172602D01*
X231916D01*
Y174185D01*
D02*
G37*
G36*
X234499Y171602D02*
X232916D01*
Y170020D01*
X234499D01*
Y171602D01*
D02*
G37*
G36*
X231916D02*
X230334D01*
Y170020D01*
X231916D01*
Y171602D01*
D02*
G37*
G36*
X286500Y170728D02*
Y169500D01*
X287728D01*
X287515Y170012D01*
X287013Y170515D01*
X286500Y170728D01*
D02*
G37*
G36*
X282800Y171083D02*
X281217D01*
Y169500D01*
X282800D01*
Y171083D01*
D02*
G37*
G36*
X287728Y168500D02*
X286500D01*
Y167272D01*
X287013Y167485D01*
X287515Y167988D01*
X287728Y168500D01*
D02*
G37*
G36*
X285383Y171083D02*
X283800D01*
Y169000D01*
Y166917D01*
X285383D01*
Y167321D01*
X285500Y167272D01*
Y169000D01*
Y170728D01*
X285383Y170679D01*
Y171083D01*
D02*
G37*
G36*
X282800Y168500D02*
X281217D01*
Y166917D01*
X282800D01*
Y168500D01*
D02*
G37*
G36*
X234642Y169311D02*
X231386D01*
Y166449D01*
X234642D01*
Y169311D01*
D02*
G37*
G36*
X230386D02*
X227130D01*
Y166449D01*
X230386D01*
Y169311D01*
D02*
G37*
G36*
X281500Y166228D02*
Y165000D01*
X282728D01*
X282515Y165513D01*
X282013Y166015D01*
X281500Y166228D01*
D02*
G37*
G36*
X239047Y158756D02*
X235791D01*
Y155894D01*
X239047D01*
Y158756D01*
D02*
G37*
G36*
X228499Y155185D02*
X226917D01*
Y153602D01*
X228499D01*
Y155185D01*
D02*
G37*
G36*
X225917D02*
X224334D01*
Y153602D01*
X225917D01*
Y155185D01*
D02*
G37*
G36*
X228499Y152602D02*
X226917D01*
Y151020D01*
X228499D01*
Y152602D01*
D02*
G37*
G36*
X225917D02*
X224334D01*
Y151020D01*
X225917D01*
Y152602D01*
D02*
G37*
G36*
X239283Y150583D02*
X237700D01*
Y149000D01*
X239283D01*
Y150583D01*
D02*
G37*
G36*
X301583Y145383D02*
X300000D01*
Y143800D01*
X301583D01*
Y145383D01*
D02*
G37*
G36*
X299000D02*
X297417D01*
Y143800D01*
X299000D01*
Y145383D01*
D02*
G37*
G36*
X239283Y145000D02*
X237700D01*
Y143417D01*
X239283D01*
Y145000D01*
D02*
G37*
G36*
X236700Y150583D02*
X235117D01*
Y148787D01*
X234645D01*
X233987Y148515D01*
X233485Y148012D01*
X233272Y147500D01*
X235000D01*
Y146500D01*
X233272D01*
X233485Y145987D01*
X233987Y145485D01*
X234645Y145213D01*
X235117D01*
Y143417D01*
X236700D01*
Y145500D01*
X237200D01*
Y146000D01*
X239283D01*
Y146417D01*
Y148000D01*
X237200D01*
Y148500D01*
X236700D01*
Y150583D01*
D02*
G37*
G36*
X333839Y143866D02*
X333016D01*
X333140Y143565D01*
X333538Y143167D01*
X333839Y143043D01*
Y143866D01*
D02*
G37*
G36*
X301583Y142800D02*
X300000D01*
Y141217D01*
X301583D01*
Y142800D01*
D02*
G37*
G36*
X299000D02*
X297417D01*
Y141217D01*
X299000D01*
Y142800D01*
D02*
G37*
G36*
X301583Y140783D02*
X297417D01*
Y136617D01*
X301583D01*
Y140783D01*
D02*
G37*
G36*
X251228Y135500D02*
X250000D01*
Y134272D01*
X250513Y134485D01*
X251015Y134987D01*
X251228Y135500D01*
D02*
G37*
G36*
X7349Y131045D02*
X7069D01*
X6679Y130968D01*
X6574Y130898D01*
X6573Y130898D01*
X6243Y130676D01*
X6229Y130656D01*
X6208Y130641D01*
X6194Y130621D01*
X6173Y130606D01*
X6159Y130585D01*
X6157Y130585D01*
X6143Y130606D01*
X6122Y130621D01*
X6108Y130641D01*
X6087Y130656D01*
X6073Y130676D01*
X6052Y130691D01*
X6038Y130712D01*
X6017Y130726D01*
X6003Y130747D01*
X5672Y130968D01*
X5282Y131045D01*
X4931D01*
X4541Y130968D01*
X4436Y130898D01*
X4436Y130898D01*
X4105Y130676D01*
X3884Y130346D01*
X3884Y130345D01*
X3867Y130319D01*
X3615Y130151D01*
X3600Y130130D01*
X3579Y130116D01*
X3565Y130095D01*
X3544Y130081D01*
X3530Y130060D01*
X3509Y130046D01*
X3288Y129715D01*
X3211Y129325D01*
Y128974D01*
X3288Y128584D01*
X3509Y128253D01*
X3530Y128239D01*
X3544Y128218D01*
X3565Y128204D01*
X3579Y128183D01*
X3600Y128169D01*
X3615Y128148D01*
X3635Y128134D01*
X3650Y128113D01*
X3859Y127973D01*
X3957Y127827D01*
X3884Y127717D01*
X3879Y127692D01*
X3849Y127647D01*
X3844Y127622D01*
X3814Y127577D01*
X3809Y127552D01*
X3779Y127507D01*
X3701Y127117D01*
Y126790D01*
X3560Y126762D01*
X3515Y126732D01*
X3490Y126727D01*
X3445Y126697D01*
X3420Y126692D01*
X3089Y126471D01*
X3075Y126450D01*
X3054Y126436D01*
X3040Y126415D01*
X3019Y126401D01*
X2798Y126070D01*
X2793Y126045D01*
X2763Y126000D01*
X2748Y125925D01*
X2728Y125895D01*
X2650Y125505D01*
Y125400D01*
X2728Y125010D01*
X2748Y124979D01*
X2763Y124905D01*
X2793Y124859D01*
X2798Y124834D01*
X3019Y124504D01*
X3040Y124490D01*
X3054Y124469D01*
X3075Y124455D01*
X3089Y124434D01*
X3420Y124213D01*
X3445Y124207D01*
X3490Y124178D01*
X3515Y124172D01*
X3560Y124143D01*
X3701Y124114D01*
Y122701D01*
X3779Y122311D01*
X3809Y122266D01*
X3814Y122241D01*
X3884Y122136D01*
X3884Y122136D01*
X4105Y121805D01*
X4147Y121777D01*
X4165Y121750D01*
X4175Y121735D01*
X4301Y121651D01*
X4315Y121630D01*
X4336Y121616D01*
X4350Y121595D01*
X4371Y121581D01*
X4385Y121560D01*
X4406Y121546D01*
X4420Y121525D01*
X4442Y121511D01*
X4456Y121490D01*
X4471Y121479D01*
X4125Y121548D01*
X3950D01*
X3560Y121471D01*
X3515Y121441D01*
X3490Y121436D01*
X3445Y121406D01*
X3420Y121401D01*
X3089Y121180D01*
X3075Y121159D01*
X3054Y121144D01*
X3040Y121124D01*
X3019Y121109D01*
X2798Y120779D01*
X2793Y120754D01*
X2763Y120709D01*
X2748Y120634D01*
X2728Y120604D01*
X2650Y120213D01*
Y120108D01*
X2728Y119718D01*
X2748Y119688D01*
X2763Y119613D01*
X2793Y119568D01*
X2798Y119543D01*
X3019Y119212D01*
X3350Y118991D01*
X3350Y118991D01*
X3455Y118921D01*
X3480Y118916D01*
X3525Y118886D01*
X3915Y118808D01*
X3949D01*
X3884Y118711D01*
X3884Y118711D01*
X3814Y118606D01*
X3789Y118481D01*
X3779Y118466D01*
X3701Y118076D01*
Y117515D01*
X3779Y117125D01*
X3789Y117109D01*
X3810Y117007D01*
X3789Y116904D01*
X3779Y116889D01*
X3751Y116750D01*
X3525Y116705D01*
X3480Y116675D01*
X3455Y116670D01*
X3124Y116449D01*
X3110Y116428D01*
X3089Y116414D01*
X3075Y116393D01*
X3054Y116378D01*
X3040Y116358D01*
X3019Y116343D01*
X2798Y116013D01*
X2793Y115988D01*
X2763Y115943D01*
X2758Y115918D01*
X2728Y115873D01*
X2650Y115482D01*
Y115342D01*
X2728Y114952D01*
X2758Y114907D01*
X2763Y114882D01*
X2793Y114837D01*
X2798Y114812D01*
X3019Y114481D01*
X3040Y114467D01*
X3054Y114446D01*
X3075Y114432D01*
X3089Y114411D01*
X3110Y114397D01*
X3120Y114381D01*
X3124Y114376D01*
X3146Y114361D01*
X3124Y114346D01*
X3110Y114325D01*
X3089Y114311D01*
X3075Y114290D01*
X3054Y114276D01*
X3040Y114255D01*
X3019Y114241D01*
X2798Y113910D01*
X2793Y113885D01*
X2763Y113840D01*
X2748Y113765D01*
X2728Y113735D01*
X2650Y113345D01*
Y113240D01*
X2728Y112849D01*
X2748Y112819D01*
X2763Y112744D01*
X2984Y112413D01*
X3005Y112399D01*
X3019Y112378D01*
X3040Y112364D01*
X3054Y112343D01*
X3075Y112329D01*
X3089Y112308D01*
X3110Y112294D01*
X3124Y112273D01*
X3145Y112259D01*
X3159Y112238D01*
X3490Y112017D01*
X3880Y111940D01*
X7384D01*
X7774Y112017D01*
X8105Y112238D01*
X8119Y112259D01*
X8140Y112273D01*
X8154Y112294D01*
X8175Y112308D01*
X8189Y112329D01*
X8210Y112343D01*
X8224Y112364D01*
X8245Y112378D01*
X8466Y112709D01*
X8471Y112734D01*
X8501Y112779D01*
X8506Y112804D01*
X8536Y112849D01*
X8614Y113240D01*
Y113345D01*
X8536Y113735D01*
X8506Y113780D01*
X8501Y113805D01*
X8471Y113850D01*
X8466Y113875D01*
X8436Y113920D01*
X8431Y113945D01*
X8210Y114276D01*
X8189Y114290D01*
X8175Y114311D01*
X8154Y114325D01*
X8140Y114346D01*
X8100Y114373D01*
X8105Y114376D01*
X8119Y114397D01*
X8140Y114411D01*
X8154Y114432D01*
X8175Y114446D01*
X8189Y114467D01*
X8210Y114481D01*
X8224Y114502D01*
X8245Y114516D01*
X8466Y114847D01*
X8481Y114922D01*
X8501Y114952D01*
X8579Y115342D01*
Y115482D01*
X8501Y115873D01*
X8481Y115903D01*
X8481Y115903D01*
X8501Y115933D01*
X8579Y116323D01*
Y116534D01*
X8501Y116924D01*
X8481Y116954D01*
X8466Y117029D01*
X8436Y117074D01*
X8431Y117099D01*
X8210Y117430D01*
X8189Y117444D01*
X8175Y117465D01*
X7845Y117686D01*
X7844Y117686D01*
X7739Y117756D01*
X7349Y117834D01*
X6750D01*
X6739Y117850D01*
X6718Y117864D01*
X6703Y117885D01*
X6682Y117900D01*
X6668Y117920D01*
X6647Y117935D01*
X6633Y117956D01*
X6612Y117970D01*
X6598Y117991D01*
X6577Y118005D01*
X6563Y118026D01*
X6542Y118040D01*
X6528Y118061D01*
X6507Y118075D01*
X6493Y118096D01*
X6472Y118110D01*
X6469Y118115D01*
X6399Y118466D01*
X6389Y118481D01*
X6375Y118552D01*
X6609Y118395D01*
X6634Y118390D01*
X6679Y118360D01*
X6704Y118355D01*
X6749Y118325D01*
X7139Y118247D01*
X7279D01*
X7669Y118325D01*
X7714Y118355D01*
X7739Y118360D01*
X7784Y118390D01*
X7809Y118395D01*
X8140Y118616D01*
X8154Y118637D01*
X8175Y118651D01*
X8189Y118672D01*
X8210Y118686D01*
X8431Y119017D01*
X8436Y119042D01*
X8466Y119087D01*
X8471Y119112D01*
X8501Y119157D01*
X8579Y119547D01*
Y120037D01*
X8614Y120213D01*
Y120739D01*
X8536Y121129D01*
X8516Y121159D01*
X8501Y121234D01*
X8431Y121339D01*
X8431Y121339D01*
X8210Y121670D01*
X8168Y121698D01*
X8140Y121740D01*
X8100Y121767D01*
X8105Y121770D01*
X8119Y121791D01*
X8140Y121805D01*
X8154Y121826D01*
X8175Y121840D01*
X8189Y121861D01*
X8210Y121875D01*
X8224Y121896D01*
X8245Y121910D01*
X8280Y121962D01*
X8365D01*
X8756Y122040D01*
X8801Y122070D01*
X8826Y122075D01*
X9156Y122296D01*
X9171Y122317D01*
X9192Y122331D01*
X9206Y122352D01*
X9227Y122366D01*
X9241Y122387D01*
X9262Y122401D01*
X9276Y122422D01*
X9297Y122436D01*
X9518Y122767D01*
X9523Y122792D01*
X9553Y122837D01*
X9630Y123227D01*
Y123963D01*
X9553Y124353D01*
X9523Y124398D01*
X9518Y124423D01*
X9488Y124468D01*
X9483Y124493D01*
X9262Y124824D01*
X9241Y124838D01*
X9227Y124859D01*
X9206Y124873D01*
X9192Y124894D01*
X9171Y124908D01*
X9156Y124929D01*
X9136Y124943D01*
X9121Y124964D01*
X9100Y124978D01*
X9086Y124999D01*
X9065Y125013D01*
X9051Y125034D01*
X9030Y125048D01*
X9016Y125069D01*
X8995Y125083D01*
X8981Y125104D01*
X8960Y125119D01*
X8946Y125140D01*
X8925Y125154D01*
X8911Y125175D01*
X8890Y125189D01*
X8876Y125210D01*
X8855Y125224D01*
X8841Y125245D01*
X8820Y125259D01*
X8806Y125280D01*
X8785Y125294D01*
X8771Y125315D01*
X8750Y125329D01*
X8736Y125350D01*
X8715Y125364D01*
X8701Y125385D01*
X8680Y125399D01*
X8666Y125420D01*
X8645Y125434D01*
X8631Y125455D01*
X8614Y125466D01*
Y125470D01*
X8536Y125860D01*
X8506Y125905D01*
X8501Y125930D01*
X8481Y125960D01*
X8466Y126035D01*
X8245Y126366D01*
X8224Y126380D01*
X8210Y126401D01*
X8189Y126415D01*
X8175Y126436D01*
X8154Y126450D01*
X8140Y126471D01*
X8119Y126485D01*
X8105Y126506D01*
X8100Y126509D01*
X8140Y126536D01*
X8154Y126557D01*
X8175Y126571D01*
X8189Y126592D01*
X8210Y126606D01*
X8431Y126937D01*
X8436Y126962D01*
X8466Y127007D01*
X8471Y127032D01*
X8501Y127077D01*
X8579Y127467D01*
Y127643D01*
X8501Y128033D01*
X8481Y128063D01*
X8466Y128138D01*
X8245Y128469D01*
X8224Y128483D01*
X8210Y128504D01*
X8189Y128518D01*
X8175Y128539D01*
X8154Y128553D01*
X8140Y128574D01*
X8119Y128588D01*
X8105Y128609D01*
X8100Y128612D01*
X8140Y128639D01*
X8225Y128765D01*
X8245Y128779D01*
X8466Y129110D01*
X8481Y129185D01*
X8501Y129215D01*
X8579Y129605D01*
Y129745D01*
X8501Y130136D01*
X8481Y130166D01*
X8466Y130241D01*
X8245Y130571D01*
X8224Y130585D01*
X8210Y130606D01*
X8189Y130621D01*
X8175Y130641D01*
X8154Y130656D01*
X8140Y130676D01*
X8119Y130691D01*
X8105Y130712D01*
X8084Y130726D01*
X8070Y130747D01*
X7739Y130968D01*
X7349Y131045D01*
D02*
G37*
G36*
X332073Y135334D02*
X331486D01*
X331302Y135298D01*
X331025Y135242D01*
X330482Y135018D01*
X330288Y134888D01*
X330092Y134757D01*
X329676Y134341D01*
X329545Y134145D01*
X329415Y133951D01*
X329190Y133408D01*
X329129Y133100D01*
X329099Y132947D01*
Y132360D01*
X329135Y132176D01*
X329190Y131899D01*
X329320Y131586D01*
X327162D01*
Y129806D01*
X330024D01*
Y130618D01*
X330092Y130550D01*
X330482Y130289D01*
X331025Y130064D01*
X331486Y129973D01*
X332073D01*
X332534Y130064D01*
X333077Y130289D01*
X333467Y130550D01*
X333883Y130966D01*
X334144Y131356D01*
X334368Y131899D01*
X334460Y132360D01*
Y132947D01*
X334368Y133408D01*
X334144Y133951D01*
X333883Y134341D01*
X333467Y134757D01*
X333271Y134888D01*
X333077Y135018D01*
X332534Y135242D01*
X332226Y135304D01*
X332073Y135334D01*
D02*
G37*
G36*
X326162Y131586D02*
X323299D01*
Y129806D01*
X326162D01*
Y131586D01*
D02*
G37*
G36*
X333839Y128957D02*
X333538Y128833D01*
X333140Y128435D01*
X333016Y128135D01*
X333839D01*
Y128957D01*
D02*
G37*
G36*
X240020Y131453D02*
X240000D01*
Y128000D01*
X243453D01*
Y128020D01*
X243183Y129026D01*
X242663Y129927D01*
X241927Y130663D01*
X241026Y131183D01*
X240020Y131453D01*
D02*
G37*
G36*
X239000D02*
X238980D01*
X237974Y131183D01*
X237073Y130663D01*
X236337Y129927D01*
X235817Y129026D01*
X235547Y128020D01*
Y128000D01*
X239000D01*
Y131453D01*
D02*
G37*
G36*
X330024Y128806D02*
X327162D01*
Y127027D01*
X330024D01*
Y128806D01*
D02*
G37*
G36*
X326162D02*
X323299D01*
Y127027D01*
X326162D01*
Y128806D01*
D02*
G37*
G36*
X243453Y127000D02*
X240000D01*
Y123547D01*
X240020D01*
X241026Y123817D01*
X241927Y124337D01*
X242663Y125073D01*
X243183Y125974D01*
X243453Y126980D01*
Y127000D01*
D02*
G37*
G36*
X239000D02*
X235547D01*
Y126980D01*
X235817Y125974D01*
X236337Y125073D01*
X237073Y124337D01*
X237974Y123817D01*
X238980Y123547D01*
X239000D01*
Y127000D01*
D02*
G37*
G36*
X328575Y126093D02*
X327500D01*
Y123500D01*
X331602D01*
X331563Y123801D01*
X331254Y124547D01*
X330762Y125187D01*
X330121Y125679D01*
X329375Y125988D01*
X328575Y126093D01*
D02*
G37*
G36*
X312827D02*
X311161D01*
Y123500D01*
X315854D01*
X315815Y123801D01*
X315506Y124547D01*
X315014Y125187D01*
X314373Y125679D01*
X313627Y125988D01*
X312827Y126093D01*
D02*
G37*
G36*
X326500D02*
X325425D01*
X324625Y125988D01*
X323879Y125679D01*
X323238Y125187D01*
X322746Y124547D01*
X322437Y123801D01*
X322398Y123500D01*
X326500D01*
Y126093D01*
D02*
G37*
G36*
X310161D02*
X308496D01*
X307695Y125988D01*
X306949Y125679D01*
X306309Y125187D01*
X305817Y124547D01*
X305508Y123801D01*
X305469Y123500D01*
X310161D01*
Y126093D01*
D02*
G37*
G36*
X287740Y124000D02*
X285240D01*
Y122128D01*
X285000Y122228D01*
Y121000D01*
X286228D01*
X286171Y121138D01*
X287740D01*
Y124000D01*
D02*
G37*
G36*
X331602Y122500D02*
X327500D01*
Y119907D01*
X328575D01*
X329375Y120012D01*
X330121Y120321D01*
X330762Y120813D01*
X331254Y121453D01*
X331563Y122199D01*
X331602Y122500D01*
D02*
G37*
G36*
X326500D02*
X322398D01*
X322437Y122199D01*
X322746Y121453D01*
X323238Y120813D01*
X323879Y120321D01*
X324625Y120012D01*
X325425Y119907D01*
X326500D01*
Y122500D01*
D02*
G37*
G36*
X298217Y117627D02*
X296601D01*
Y116287D01*
X296145D01*
X295487Y116015D01*
X294985Y115513D01*
X294772Y115000D01*
X296500D01*
Y114500D01*
X297000D01*
Y112772D01*
X297513Y112985D01*
X297901Y113373D01*
X298217D01*
Y115500D01*
Y117627D01*
D02*
G37*
G36*
X296000Y114000D02*
X294772D01*
X294985Y113488D01*
X295487Y112985D01*
X296000Y112772D01*
Y114000D01*
D02*
G37*
G36*
X6824Y110439D02*
X6543D01*
X6153Y110362D01*
X6108Y110332D01*
X6083Y110327D01*
X5752Y110106D01*
X5738Y110085D01*
X5717Y110071D01*
X5703Y110050D01*
X5682Y110036D01*
X5668Y110014D01*
X5647Y110001D01*
X5633Y109979D01*
X5615Y109967D01*
X5596Y109979D01*
X5582Y110001D01*
X5561Y110014D01*
X5547Y110036D01*
X5526Y110050D01*
X5512Y110071D01*
X5491Y110085D01*
X5477Y110106D01*
X5456Y110120D01*
X5442Y110141D01*
X5111Y110362D01*
X4721Y110439D01*
X4405D01*
X4015Y110362D01*
X3684Y110141D01*
X3670Y110120D01*
X3650Y110106D01*
X3635Y110085D01*
X3615Y110071D01*
X3600Y110050D01*
X3579Y110036D01*
X3565Y110014D01*
X3544Y110001D01*
X3530Y109979D01*
X3512Y109967D01*
X3509Y109965D01*
X3495Y109944D01*
X3474Y109930D01*
X3460Y109909D01*
X3439Y109895D01*
X3425Y109874D01*
X3404Y109860D01*
X3390Y109839D01*
X3369Y109825D01*
X3355Y109804D01*
X3334Y109790D01*
X3320Y109769D01*
X3299Y109755D01*
X3285Y109734D01*
X3264Y109720D01*
X3250Y109699D01*
X3229Y109685D01*
X3215Y109664D01*
X3089Y109580D01*
X3075Y109559D01*
X3054Y109545D01*
X3040Y109524D01*
X3019Y109510D01*
X2798Y109179D01*
X2793Y109154D01*
X2763Y109109D01*
X2758Y109084D01*
X2728Y109039D01*
X2650Y108649D01*
Y107422D01*
X2728Y107032D01*
X2758Y106987D01*
X2763Y106962D01*
X2793Y106917D01*
X2798Y106892D01*
X2868Y106787D01*
X2868Y106787D01*
X3089Y106456D01*
X3110Y106442D01*
X3124Y106421D01*
X3250Y106336D01*
X3264Y106316D01*
X3285Y106302D01*
X3299Y106281D01*
X3320Y106267D01*
X3334Y106246D01*
X3355Y106232D01*
X3369Y106211D01*
X3390Y106197D01*
X3404Y106176D01*
X3425Y106161D01*
X3439Y106140D01*
X3460Y106126D01*
X3474Y106105D01*
X3495Y106091D01*
X3509Y106070D01*
X3530Y106056D01*
X3544Y106035D01*
X3565Y106021D01*
X3579Y106000D01*
X3600Y105986D01*
X3615Y105965D01*
X3635Y105951D01*
X3650Y105930D01*
X3980Y105709D01*
X4005Y105704D01*
X4050Y105674D01*
X4125Y105659D01*
X4155Y105639D01*
X4546Y105561D01*
X4686D01*
X4862Y105597D01*
X6472D01*
X6648Y105561D01*
X6753D01*
X7144Y105639D01*
X7189Y105669D01*
X7214Y105674D01*
X7259Y105704D01*
X7284Y105709D01*
X7615Y105930D01*
X7629Y105951D01*
X7650Y105965D01*
X7664Y105986D01*
X7685Y106000D01*
X7699Y106021D01*
X7720Y106035D01*
X7734Y106056D01*
X7755Y106070D01*
X7769Y106091D01*
X7790Y106105D01*
X7804Y106126D01*
X7825Y106140D01*
X7839Y106161D01*
X7860Y106176D01*
X7874Y106197D01*
X7895Y106211D01*
X7923Y106253D01*
X7965Y106281D01*
X7993Y106323D01*
X8035Y106351D01*
X8077Y106414D01*
X8140Y106456D01*
X8168Y106498D01*
X8210Y106526D01*
X8431Y106857D01*
X8436Y106882D01*
X8466Y106927D01*
X8481Y107002D01*
X8501Y107032D01*
X8506Y107057D01*
X8536Y107102D01*
X8614Y107492D01*
Y107597D01*
X8579Y107774D01*
Y108649D01*
X8501Y109039D01*
X8471Y109084D01*
X8466Y109109D01*
X8436Y109154D01*
X8431Y109179D01*
X8210Y109510D01*
X8189Y109524D01*
X8175Y109545D01*
X8154Y109559D01*
X8140Y109580D01*
X8119Y109594D01*
X8105Y109615D01*
X8084Y109629D01*
X8070Y109650D01*
X8049Y109664D01*
X8035Y109685D01*
X8014Y109699D01*
X8000Y109720D01*
X7979Y109734D01*
X7965Y109755D01*
X7944Y109769D01*
X7930Y109790D01*
X7909Y109804D01*
X7895Y109825D01*
X7874Y109839D01*
X7860Y109860D01*
X7839Y109874D01*
X7825Y109895D01*
X7804Y109909D01*
X7790Y109930D01*
X7769Y109944D01*
X7755Y109965D01*
X7734Y109979D01*
X7720Y110001D01*
X7699Y110014D01*
X7685Y110036D01*
X7664Y110050D01*
X7650Y110071D01*
X7319Y110292D01*
X7318Y110292D01*
X7214Y110362D01*
X6824Y110439D01*
D02*
G37*
G36*
X7875Y104131D02*
X5036D01*
X4646Y104054D01*
X4601Y104024D01*
X4576Y104019D01*
X4531Y103989D01*
X4506Y103984D01*
X4175Y103763D01*
X4161Y103742D01*
X4140Y103728D01*
X4126Y103707D01*
X4105Y103692D01*
X4091Y103672D01*
X4070Y103657D01*
X4056Y103637D01*
X4035Y103622D01*
X3814Y103292D01*
X3789Y103167D01*
X3779Y103152D01*
X3701Y102761D01*
Y102691D01*
X3779Y102301D01*
X3799Y102271D01*
X3814Y102196D01*
X3884Y102091D01*
X3884Y102091D01*
X4105Y101760D01*
X4126Y101746D01*
X4140Y101725D01*
X4206Y101681D01*
X4175Y101660D01*
X4161Y101639D01*
X4140Y101625D01*
X4126Y101604D01*
X4105Y101590D01*
X4091Y101569D01*
X4070Y101555D01*
X4056Y101534D01*
X4035Y101520D01*
X3814Y101189D01*
X3789Y101064D01*
X3779Y101049D01*
X3701Y100659D01*
Y100589D01*
X3779Y100198D01*
X3789Y100183D01*
X3814Y100058D01*
X3975Y99818D01*
X3884Y99682D01*
X3884Y99682D01*
X3814Y99577D01*
X3799Y99502D01*
X3779Y99472D01*
X3701Y99082D01*
Y98790D01*
X3560Y98762D01*
X3515Y98732D01*
X3490Y98727D01*
X3445Y98697D01*
X3420Y98692D01*
X3089Y98471D01*
X3075Y98450D01*
X3054Y98436D01*
X3040Y98415D01*
X3019Y98401D01*
X2798Y98070D01*
X2793Y98045D01*
X2763Y98000D01*
X2748Y97925D01*
X2728Y97895D01*
X2650Y97505D01*
Y97400D01*
X2728Y97009D01*
X2748Y96979D01*
X2763Y96904D01*
X2793Y96859D01*
X2798Y96834D01*
X3019Y96503D01*
X3040Y96489D01*
X3054Y96468D01*
X3075Y96454D01*
X3089Y96433D01*
X3420Y96212D01*
X3445Y96207D01*
X3490Y96177D01*
X3664Y96142D01*
X3665Y96142D01*
X4055Y96065D01*
X4090D01*
X4266Y96100D01*
X7033D01*
X7209Y96065D01*
X7314D01*
X7704Y96142D01*
X7749Y96172D01*
X7774Y96177D01*
X8105Y96398D01*
X8119Y96419D01*
X8140Y96433D01*
X8154Y96454D01*
X8175Y96468D01*
X8189Y96489D01*
X8210Y96503D01*
X8224Y96524D01*
X8245Y96538D01*
X8466Y96869D01*
X8471Y96894D01*
X8501Y96939D01*
X8506Y96964D01*
X8536Y97009D01*
X8614Y97400D01*
Y97540D01*
X8579Y97716D01*
Y98835D01*
X8614Y99012D01*
Y99117D01*
X8536Y99507D01*
X8467Y99612D01*
X8466Y99612D01*
X8436Y99657D01*
X8431Y99682D01*
X8210Y100013D01*
X8189Y100027D01*
X8175Y100048D01*
X8154Y100062D01*
X8140Y100083D01*
X8119Y100097D01*
X8118Y100098D01*
X8140Y100113D01*
X8225Y100239D01*
X8245Y100253D01*
X8280Y100305D01*
X8330D01*
X8721Y100382D01*
X8751Y100403D01*
X8826Y100418D01*
X9156Y100639D01*
X9171Y100660D01*
X9192Y100674D01*
X9206Y100695D01*
X9227Y100709D01*
X9241Y100730D01*
X9262Y100744D01*
X9276Y100765D01*
X9297Y100779D01*
X9518Y101110D01*
X9523Y101135D01*
X9553Y101180D01*
X9630Y101570D01*
Y102376D01*
X9553Y102766D01*
X9332Y103097D01*
X9311Y103111D01*
X9297Y103132D01*
X9276Y103146D01*
X9262Y103167D01*
X9241Y103181D01*
X9227Y103202D01*
X9206Y103216D01*
X9192Y103237D01*
X9171Y103251D01*
X9156Y103272D01*
X9136Y103286D01*
X9121Y103307D01*
X9100Y103321D01*
X9086Y103342D01*
X9065Y103356D01*
X9051Y103377D01*
X9035Y103388D01*
X9030Y103391D01*
X9016Y103412D01*
X8995Y103426D01*
X8981Y103447D01*
X8960Y103461D01*
X8946Y103482D01*
X8925Y103496D01*
X8911Y103517D01*
X8890Y103531D01*
X8876Y103552D01*
X8855Y103566D01*
X8841Y103587D01*
X8820Y103601D01*
X8736Y103728D01*
X8610Y103812D01*
X8596Y103833D01*
X8265Y104054D01*
X7875Y104131D01*
D02*
G37*
G36*
X328575Y92078D02*
X327500D01*
Y89484D01*
X331602D01*
X331563Y89785D01*
X331254Y90531D01*
X330762Y91172D01*
X330121Y91663D01*
X329375Y91972D01*
X328575Y92078D01*
D02*
G37*
G36*
X326500D02*
X325425D01*
X324625Y91972D01*
X323879Y91663D01*
X323238Y91172D01*
X322746Y90531D01*
X322437Y89785D01*
X322398Y89484D01*
X326500D01*
Y92078D01*
D02*
G37*
G36*
X331602Y88484D02*
X327500D01*
Y85891D01*
X328575D01*
X329375Y85996D01*
X330121Y86305D01*
X330762Y86797D01*
X331254Y87438D01*
X331563Y88184D01*
X331602Y88484D01*
D02*
G37*
G36*
X326500D02*
X322398D01*
X322437Y88184D01*
X322746Y87438D01*
X323238Y86797D01*
X323879Y86305D01*
X324625Y85996D01*
X325425Y85891D01*
X326500D01*
Y88484D01*
D02*
G37*
G36*
X315854D02*
X311161D01*
Y85891D01*
X312827D01*
X313627Y85996D01*
X314373Y86305D01*
X315014Y86797D01*
X315506Y87438D01*
X315815Y88184D01*
X315854Y88484D01*
D02*
G37*
G36*
X310161D02*
X305469D01*
X305508Y88184D01*
X305817Y87438D01*
X306309Y86797D01*
X306949Y86305D01*
X307695Y85996D01*
X308496Y85891D01*
X310161D01*
Y88484D01*
D02*
G37*
G36*
X279500Y84228D02*
Y83000D01*
X280728D01*
X280515Y83513D01*
X280012Y84015D01*
X279500Y84228D01*
D02*
G37*
G36*
X7314Y94599D02*
X3915D01*
X3525Y94522D01*
X3480Y94492D01*
X3455Y94487D01*
X3124Y94266D01*
X3110Y94245D01*
X3089Y94231D01*
X3075Y94210D01*
X3054Y94196D01*
X3040Y94175D01*
X3019Y94160D01*
X2798Y93830D01*
X2793Y93805D01*
X2786Y93794D01*
X2763Y93760D01*
X2758Y93735D01*
X2728Y93690D01*
X2650Y93299D01*
Y93159D01*
X2728Y92769D01*
X2758Y92724D01*
X2763Y92699D01*
X2793Y92654D01*
X2798Y92629D01*
X3019Y92298D01*
X3040Y92284D01*
X3054Y92263D01*
X3075Y92249D01*
X3089Y92228D01*
X3110Y92214D01*
X3124Y92193D01*
X3455Y91972D01*
X3480Y91967D01*
X3525Y91937D01*
X3701Y91902D01*
Y91617D01*
X3779Y91227D01*
X3779Y91227D01*
X3814Y91052D01*
X4035Y90721D01*
X4056Y90707D01*
X4070Y90686D01*
X4196Y90602D01*
X4197Y90601D01*
X4196Y90600D01*
X4175Y90586D01*
X4161Y90565D01*
X4140Y90551D01*
X4126Y90530D01*
X4105Y90516D01*
X4091Y90495D01*
X4070Y90481D01*
X4056Y90460D01*
X4035Y90446D01*
X3814Y90115D01*
X3799Y90040D01*
X3779Y90010D01*
X3701Y89620D01*
Y88463D01*
X3779Y88073D01*
X3789Y88058D01*
X3814Y87933D01*
X3844Y87888D01*
X3849Y87863D01*
X4070Y87532D01*
X4091Y87518D01*
X4105Y87497D01*
X4126Y87483D01*
X4140Y87462D01*
X4161Y87448D01*
X4173Y87429D01*
X4161Y87411D01*
X4140Y87397D01*
X4126Y87376D01*
X4105Y87362D01*
X4091Y87341D01*
X4070Y87327D01*
X3849Y86996D01*
X3844Y86971D01*
X3814Y86926D01*
X3809Y86901D01*
X3779Y86856D01*
X3701Y86466D01*
Y84679D01*
X3779Y84288D01*
X3799Y84258D01*
X3803Y84241D01*
X3799Y84223D01*
X3779Y84193D01*
X3701Y83802D01*
Y82050D01*
X3779Y81660D01*
X3799Y81630D01*
X3814Y81555D01*
X4035Y81224D01*
X4056Y81210D01*
X4070Y81189D01*
X4091Y81175D01*
X4105Y81154D01*
X4126Y81140D01*
X4140Y81119D01*
X4161Y81105D01*
X4175Y81084D01*
X4196Y81070D01*
X4210Y81049D01*
X4231Y81035D01*
X4245Y81014D01*
X4266Y81000D01*
X4280Y80979D01*
X4301Y80965D01*
X4315Y80944D01*
X4336Y80930D01*
X4350Y80909D01*
X4371Y80895D01*
X4385Y80874D01*
X4406Y80860D01*
X4420Y80839D01*
X4442Y80825D01*
X4456Y80804D01*
X4456Y80803D01*
X4160Y80862D01*
X3915D01*
X3525Y80784D01*
X3480Y80754D01*
X3455Y80749D01*
X3124Y80528D01*
X3110Y80507D01*
X3089Y80493D01*
X3075Y80472D01*
X3054Y80458D01*
X3040Y80437D01*
X3019Y80423D01*
X2798Y80092D01*
X2793Y80067D01*
X2763Y80022D01*
X2758Y79997D01*
X2728Y79952D01*
X2650Y79562D01*
Y79457D01*
X2728Y79067D01*
X2748Y79037D01*
X2763Y78962D01*
X2793Y78917D01*
X2798Y78891D01*
X3019Y78561D01*
X3040Y78547D01*
X3054Y78526D01*
X3075Y78512D01*
X3089Y78491D01*
X3110Y78477D01*
X3124Y78456D01*
X3455Y78235D01*
X3480Y78230D01*
X3525Y78200D01*
X3742Y78156D01*
X3701Y77950D01*
Y76303D01*
X3779Y75913D01*
X3789Y75898D01*
X3814Y75773D01*
X3884Y75668D01*
X3884Y75668D01*
X4105Y75337D01*
X4168Y75295D01*
X4181Y75275D01*
X4175Y75272D01*
X4161Y75251D01*
X4140Y75237D01*
X4126Y75216D01*
X4105Y75202D01*
X4091Y75181D01*
X4070Y75167D01*
X4056Y75146D01*
X4035Y75132D01*
X3814Y74801D01*
X3799Y74726D01*
X3779Y74696D01*
X3701Y74305D01*
Y73114D01*
X3779Y72724D01*
X3782Y72720D01*
X3615Y72608D01*
X3600Y72587D01*
X3579Y72573D01*
X3565Y72552D01*
X3544Y72538D01*
X3530Y72517D01*
X3509Y72503D01*
X3425Y72377D01*
X3404Y72363D01*
X3390Y72342D01*
X3369Y72328D01*
X3355Y72307D01*
X3334Y72293D01*
X3320Y72272D01*
X3299Y72258D01*
X3285Y72237D01*
X3264Y72223D01*
X3250Y72202D01*
X3229Y72188D01*
X3215Y72167D01*
X3194Y72153D01*
X3180Y72132D01*
X3054Y72048D01*
X3040Y72027D01*
X3019Y72013D01*
X2798Y71682D01*
X2793Y71657D01*
X2769Y71622D01*
X2763Y71612D01*
X2758Y71587D01*
X2728Y71542D01*
X2650Y71152D01*
Y69399D01*
X2728Y69009D01*
X2748Y68979D01*
X2763Y68904D01*
X2793Y68859D01*
X2798Y68834D01*
X3019Y68503D01*
X3040Y68489D01*
X3054Y68468D01*
X3075Y68454D01*
X3089Y68433D01*
X3110Y68419D01*
X3124Y68398D01*
X3455Y68177D01*
X3530Y68162D01*
X3560Y68142D01*
X3950Y68064D01*
X4090D01*
X4266Y68099D01*
X6998D01*
X7174Y68064D01*
X7279D01*
X7669Y68142D01*
X7699Y68162D01*
X7774Y68177D01*
X8105Y68398D01*
X8119Y68419D01*
X8140Y68433D01*
X8154Y68454D01*
X8175Y68468D01*
X8189Y68489D01*
X8210Y68503D01*
X8224Y68524D01*
X8245Y68538D01*
X8466Y68869D01*
X8471Y68894D01*
X8501Y68939D01*
X8506Y68964D01*
X8536Y69009D01*
X8614Y69399D01*
Y69539D01*
X8579Y69716D01*
Y71187D01*
X8501Y71577D01*
X8471Y71622D01*
X8466Y71647D01*
X8245Y71978D01*
X8224Y71992D01*
X8210Y72013D01*
X8189Y72027D01*
X8175Y72048D01*
X8154Y72062D01*
X8140Y72083D01*
X8119Y72097D01*
X8118Y72098D01*
X8140Y72113D01*
X8154Y72134D01*
X8175Y72148D01*
X8396Y72478D01*
X8396Y72479D01*
X8466Y72584D01*
X8467Y72584D01*
X8536Y72689D01*
X8614Y73079D01*
Y73149D01*
X8579Y73325D01*
Y74305D01*
X8501Y74696D01*
X8471Y74741D01*
X8466Y74766D01*
X8436Y74811D01*
X8431Y74836D01*
X8317Y75006D01*
X8431Y75177D01*
X8436Y75202D01*
X8466Y75247D01*
X8471Y75272D01*
X8501Y75317D01*
X8579Y75707D01*
Y77213D01*
X8614Y77389D01*
Y77459D01*
X8536Y77850D01*
X8506Y77895D01*
X8501Y77920D01*
X8431Y78025D01*
X8431Y78025D01*
X8323Y78187D01*
X8466Y78401D01*
X8481Y78476D01*
X8501Y78506D01*
X8579Y78896D01*
Y79316D01*
X8614Y79492D01*
Y80053D01*
X8536Y80443D01*
X8476Y80533D01*
X8466Y80583D01*
X8436Y80628D01*
X8431Y80653D01*
X8210Y80984D01*
X8189Y80998D01*
X8175Y81019D01*
X8154Y81033D01*
X8140Y81054D01*
X8100Y81081D01*
X8105Y81084D01*
X8119Y81105D01*
X8140Y81119D01*
X8154Y81140D01*
X8175Y81154D01*
X8189Y81175D01*
X8210Y81189D01*
X8292Y81311D01*
X8436D01*
X8826Y81389D01*
X9156Y81610D01*
X9171Y81631D01*
X9192Y81645D01*
X9206Y81666D01*
X9227Y81680D01*
X9241Y81701D01*
X9262Y81715D01*
X9276Y81736D01*
X9297Y81750D01*
X9518Y82081D01*
X9523Y82106D01*
X9553Y82151D01*
X9630Y82541D01*
Y83312D01*
X9553Y83702D01*
X9523Y83747D01*
X9518Y83772D01*
X9448Y83877D01*
X9448Y83877D01*
X9227Y84208D01*
X9206Y84222D01*
X9192Y84243D01*
X9065Y84327D01*
X9051Y84348D01*
X9030Y84362D01*
X9016Y84383D01*
X8995Y84397D01*
X8981Y84418D01*
X8960Y84432D01*
X8946Y84453D01*
X8925Y84467D01*
X8911Y84488D01*
X8890Y84502D01*
X8876Y84523D01*
X8855Y84537D01*
X8841Y84558D01*
X8820Y84572D01*
X8736Y84699D01*
X8715Y84713D01*
X8701Y84734D01*
X8579Y84815D01*
Y84854D01*
X8501Y85244D01*
X8481Y85274D01*
X8466Y85349D01*
X8245Y85680D01*
X8224Y85694D01*
X8210Y85715D01*
X8189Y85729D01*
X8175Y85750D01*
X8154Y85764D01*
X8140Y85785D01*
X8119Y85799D01*
X8105Y85820D01*
X8083Y85835D01*
X8105Y85850D01*
X8119Y85871D01*
X8140Y85885D01*
X8154Y85906D01*
X8175Y85920D01*
X8189Y85941D01*
X8210Y85955D01*
X8224Y85976D01*
X8245Y85990D01*
X8466Y86321D01*
X8481Y86396D01*
X8501Y86426D01*
X8579Y86816D01*
Y86956D01*
X8501Y87347D01*
X8481Y87377D01*
X8466Y87452D01*
X8436Y87497D01*
X8431Y87522D01*
X8329Y87675D01*
X8431Y87828D01*
X8436Y87853D01*
X8466Y87898D01*
X8467Y87898D01*
X8536Y88003D01*
X8614Y88393D01*
Y88428D01*
X8579Y88604D01*
Y89620D01*
X8501Y90010D01*
X8481Y90040D01*
X8466Y90115D01*
X8245Y90446D01*
X8224Y90460D01*
X8210Y90481D01*
X8189Y90495D01*
X8175Y90516D01*
X8154Y90530D01*
X8140Y90551D01*
X8100Y90578D01*
X8105Y90581D01*
X8119Y90602D01*
X8119Y90602D01*
X8140Y90616D01*
X8154Y90637D01*
X8175Y90651D01*
X8189Y90672D01*
X8210Y90686D01*
X8431Y91017D01*
X8431Y91017D01*
X8501Y91122D01*
X8506Y91147D01*
X8536Y91192D01*
X8614Y91582D01*
Y91652D01*
X8579Y91829D01*
Y92983D01*
X8614Y93159D01*
Y93299D01*
X8536Y93690D01*
X8467Y93794D01*
X8466Y93795D01*
X8396Y93900D01*
X8396Y93900D01*
X8175Y94231D01*
X8154Y94245D01*
X8140Y94266D01*
X7809Y94487D01*
X7734Y94502D01*
X7704Y94522D01*
X7314Y94599D01*
D02*
G37*
G36*
X253500Y73728D02*
X252988Y73515D01*
X252485Y73013D01*
X252272Y72500D01*
X253500D01*
Y73728D01*
D02*
G37*
G36*
X263477Y60926D02*
X258328D01*
Y55776D01*
X263477D01*
Y56497D01*
X263568D01*
X263734Y56565D01*
X263910Y56600D01*
X264059Y56700D01*
X264225Y56769D01*
X264352Y56896D01*
X264501Y56996D01*
X264601Y57145D01*
X264728Y57272D01*
X264797Y57437D01*
X264896Y57587D01*
X264931Y57763D01*
X265000Y57929D01*
Y58108D01*
X265035Y58284D01*
X265000Y58460D01*
Y58640D01*
X264931Y58806D01*
X264896Y58982D01*
X264797Y59131D01*
X264728Y59297D01*
X264601Y59424D01*
X264501Y59573D01*
X264352Y59673D01*
X264225Y59799D01*
X264059Y59868D01*
X263910Y59968D01*
X263734Y60003D01*
X263568Y60072D01*
X263477D01*
Y60926D01*
D02*
G37*
G36*
X249852D02*
X244703D01*
Y55776D01*
X249852D01*
Y56497D01*
X249986D01*
X250152Y56565D01*
X250328Y56600D01*
X250477Y56700D01*
X250643Y56769D01*
X250770Y56896D01*
X250919Y56996D01*
X251019Y57145D01*
X251146Y57272D01*
X251215Y57437D01*
X251314Y57587D01*
X251349Y57763D01*
X251418Y57929D01*
Y58108D01*
X251453Y58284D01*
X251418Y58460D01*
Y58640D01*
X251349Y58806D01*
X251314Y58982D01*
X251215Y59131D01*
X251146Y59297D01*
X251019Y59424D01*
X250919Y59573D01*
X250770Y59673D01*
X250643Y59799D01*
X250477Y59868D01*
X250328Y59968D01*
X250152Y60003D01*
X249986Y60072D01*
X249852D01*
Y60926D01*
D02*
G37*
G36*
X236227D02*
X231078D01*
Y55776D01*
X236227D01*
Y56497D01*
X236343D01*
X236508Y56565D01*
X236684Y56600D01*
X236834Y56700D01*
X237000Y56769D01*
X237126Y56896D01*
X237276Y56996D01*
X237375Y57145D01*
X237502Y57272D01*
X237571Y57437D01*
X237671Y57587D01*
X237706Y57763D01*
X237774Y57929D01*
Y58108D01*
X237809Y58284D01*
X237774Y58460D01*
Y58640D01*
X237706Y58806D01*
X237671Y58982D01*
X237571Y59131D01*
X237502Y59297D01*
X237375Y59424D01*
X237276Y59573D01*
X237126Y59673D01*
X237000Y59799D01*
X236834Y59868D01*
X236684Y59968D01*
X236508Y60003D01*
X236343Y60072D01*
X236227D01*
Y60926D01*
D02*
G37*
G36*
X277008Y60859D02*
X271858D01*
Y55709D01*
X277008D01*
Y56497D01*
X277034D01*
X277200Y56565D01*
X277376Y56600D01*
X277525Y56700D01*
X277691Y56769D01*
X277818Y56896D01*
X277967Y56996D01*
X278067Y57145D01*
X278194Y57272D01*
X278263Y57437D01*
X278362Y57587D01*
X278397Y57763D01*
X278466Y57929D01*
Y58108D01*
X278501Y58284D01*
X278466Y58460D01*
Y58640D01*
X278397Y58806D01*
X278362Y58982D01*
X278263Y59131D01*
X278194Y59297D01*
X278067Y59424D01*
X277967Y59573D01*
X277818Y59673D01*
X277691Y59799D01*
X277525Y59868D01*
X277376Y59968D01*
X277200Y60003D01*
X277034Y60072D01*
X277008D01*
Y60859D01*
D02*
G37*
G36*
X263477Y48689D02*
X258328D01*
Y43539D01*
X263477D01*
Y44260D01*
X263568D01*
X263734Y44328D01*
X263910Y44363D01*
X264059Y44463D01*
X264225Y44532D01*
X264352Y44659D01*
X264501Y44759D01*
X264601Y44908D01*
X264728Y45035D01*
X264797Y45200D01*
X264896Y45350D01*
X264931Y45526D01*
X265000Y45692D01*
Y45871D01*
X265035Y46047D01*
X265000Y46223D01*
Y46403D01*
X264931Y46569D01*
X264896Y46745D01*
X264797Y46894D01*
X264728Y47060D01*
X264601Y47187D01*
X264501Y47336D01*
X264352Y47436D01*
X264225Y47563D01*
X264059Y47631D01*
X263910Y47731D01*
X263734Y47766D01*
X263568Y47835D01*
X263477D01*
Y48689D01*
D02*
G37*
G36*
X249852D02*
X244703D01*
Y43539D01*
X249852D01*
Y44260D01*
X249986D01*
X250152Y44328D01*
X250328Y44363D01*
X250477Y44463D01*
X250643Y44532D01*
X250770Y44659D01*
X250919Y44759D01*
X251019Y44908D01*
X251146Y45035D01*
X251215Y45200D01*
X251314Y45350D01*
X251349Y45526D01*
X251418Y45692D01*
Y45871D01*
X251453Y46047D01*
X251418Y46223D01*
Y46403D01*
X251349Y46569D01*
X251314Y46745D01*
X251215Y46894D01*
X251146Y47060D01*
X251019Y47187D01*
X250919Y47336D01*
X250770Y47436D01*
X250643Y47563D01*
X250477Y47631D01*
X250328Y47731D01*
X250152Y47766D01*
X249986Y47835D01*
X249852D01*
Y48689D01*
D02*
G37*
G36*
X236227D02*
X231078D01*
Y43539D01*
X236227D01*
Y44260D01*
X236343D01*
X236508Y44328D01*
X236684Y44363D01*
X236834Y44463D01*
X237000Y44532D01*
X237126Y44659D01*
X237276Y44759D01*
X237375Y44908D01*
X237502Y45035D01*
X237571Y45200D01*
X237671Y45350D01*
X237706Y45526D01*
X237774Y45692D01*
Y45871D01*
X237809Y46047D01*
X237774Y46223D01*
Y46403D01*
X237706Y46569D01*
X237671Y46745D01*
X237571Y46894D01*
X237502Y47060D01*
X237375Y47187D01*
X237276Y47336D01*
X237126Y47436D01*
X237000Y47563D01*
X236834Y47631D01*
X236684Y47731D01*
X236508Y47766D01*
X236343Y47835D01*
X236227D01*
Y48689D01*
D02*
G37*
G36*
X277008Y48622D02*
X271858D01*
Y43472D01*
X277008D01*
Y44260D01*
X277034D01*
X277200Y44328D01*
X277376Y44363D01*
X277525Y44463D01*
X277691Y44532D01*
X277818Y44659D01*
X277967Y44759D01*
X278067Y44908D01*
X278194Y45035D01*
X278263Y45200D01*
X278362Y45350D01*
X278397Y45526D01*
X278466Y45692D01*
Y45871D01*
X278501Y46047D01*
X278466Y46223D01*
Y46403D01*
X278397Y46569D01*
X278362Y46745D01*
X278263Y46894D01*
X278194Y47060D01*
X278067Y47187D01*
X277967Y47336D01*
X277818Y47436D01*
X277691Y47563D01*
X277525Y47631D01*
X277376Y47731D01*
X277200Y47766D01*
X277034Y47835D01*
X277008D01*
Y48622D01*
D02*
G37*
G36*
X263477Y36452D02*
X258328D01*
Y31302D01*
X263477D01*
Y32023D01*
X263568D01*
X263734Y32092D01*
X263910Y32127D01*
X264059Y32226D01*
X264225Y32295D01*
X264352Y32422D01*
X264501Y32522D01*
X264601Y32671D01*
X264728Y32798D01*
X264797Y32963D01*
X264896Y33113D01*
X264931Y33289D01*
X265000Y33455D01*
Y33634D01*
X265035Y33810D01*
X265000Y33986D01*
Y34166D01*
X264931Y34332D01*
X264896Y34508D01*
X264797Y34657D01*
X264728Y34823D01*
X264601Y34950D01*
X264501Y35099D01*
X264352Y35199D01*
X264225Y35326D01*
X264059Y35394D01*
X263910Y35494D01*
X263734Y35529D01*
X263568Y35598D01*
X263477D01*
Y36452D01*
D02*
G37*
G36*
X249852D02*
X244703D01*
Y31302D01*
X249852D01*
Y32023D01*
X249986D01*
X250152Y32092D01*
X250328Y32127D01*
X250477Y32226D01*
X250643Y32295D01*
X250770Y32422D01*
X250919Y32522D01*
X251019Y32671D01*
X251146Y32798D01*
X251215Y32963D01*
X251314Y33113D01*
X251349Y33289D01*
X251418Y33455D01*
Y33634D01*
X251453Y33810D01*
X251418Y33986D01*
Y34166D01*
X251349Y34332D01*
X251314Y34508D01*
X251215Y34657D01*
X251146Y34823D01*
X251019Y34950D01*
X250919Y35099D01*
X250770Y35199D01*
X250643Y35326D01*
X250477Y35394D01*
X250328Y35494D01*
X250152Y35529D01*
X249986Y35598D01*
X249852D01*
Y36452D01*
D02*
G37*
G36*
X236227D02*
X231078D01*
Y31302D01*
X236227D01*
Y32023D01*
X236343D01*
X236508Y32092D01*
X236684Y32127D01*
X236834Y32226D01*
X237000Y32295D01*
X237126Y32422D01*
X237276Y32522D01*
X237375Y32671D01*
X237502Y32798D01*
X237571Y32963D01*
X237671Y33113D01*
X237706Y33289D01*
X237774Y33455D01*
Y33634D01*
X237809Y33810D01*
X237774Y33986D01*
Y34166D01*
X237706Y34332D01*
X237671Y34508D01*
X237571Y34657D01*
X237502Y34823D01*
X237375Y34950D01*
X237276Y35099D01*
X237126Y35199D01*
X237000Y35326D01*
X236834Y35394D01*
X236684Y35494D01*
X236508Y35529D01*
X236343Y35598D01*
X236227D01*
Y36452D01*
D02*
G37*
G36*
X277008Y36385D02*
X271858D01*
Y31235D01*
X277008D01*
Y32023D01*
X277034D01*
X277200Y32092D01*
X277376Y32127D01*
X277525Y32226D01*
X277691Y32295D01*
X277818Y32422D01*
X277967Y32522D01*
X278067Y32671D01*
X278194Y32798D01*
X278263Y32963D01*
X278362Y33113D01*
X278397Y33289D01*
X278466Y33455D01*
Y33634D01*
X278501Y33810D01*
X278466Y33986D01*
Y34166D01*
X278397Y34332D01*
X278362Y34508D01*
X278263Y34657D01*
X278194Y34823D01*
X278067Y34950D01*
X277967Y35099D01*
X277818Y35199D01*
X277691Y35326D01*
X277525Y35394D01*
X277376Y35494D01*
X277200Y35529D01*
X277034Y35598D01*
X277008D01*
Y36385D01*
D02*
G37*
G36*
X263477Y24215D02*
X258328D01*
Y19065D01*
X263477D01*
Y19786D01*
X263568D01*
X263734Y19854D01*
X263910Y19890D01*
X264059Y19989D01*
X264225Y20058D01*
X264352Y20185D01*
X264501Y20285D01*
X264601Y20434D01*
X264728Y20561D01*
X264797Y20727D01*
X264896Y20876D01*
X264931Y21052D01*
X265000Y21218D01*
Y21397D01*
X265035Y21573D01*
X265000Y21749D01*
Y21929D01*
X264931Y22095D01*
X264896Y22271D01*
X264797Y22420D01*
X264728Y22586D01*
X264601Y22713D01*
X264501Y22862D01*
X264352Y22962D01*
X264225Y23088D01*
X264059Y23157D01*
X263910Y23257D01*
X263734Y23292D01*
X263568Y23361D01*
X263477D01*
Y24215D01*
D02*
G37*
G36*
X249852D02*
X244703D01*
Y19065D01*
X249852D01*
Y19786D01*
X249986D01*
X250152Y19854D01*
X250328Y19890D01*
X250477Y19989D01*
X250643Y20058D01*
X250770Y20185D01*
X250919Y20285D01*
X251019Y20434D01*
X251146Y20561D01*
X251215Y20727D01*
X251314Y20876D01*
X251349Y21052D01*
X251418Y21218D01*
Y21397D01*
X251453Y21573D01*
X251418Y21749D01*
Y21929D01*
X251349Y22095D01*
X251314Y22271D01*
X251215Y22420D01*
X251146Y22586D01*
X251019Y22713D01*
X250919Y22862D01*
X250770Y22962D01*
X250643Y23088D01*
X250477Y23157D01*
X250328Y23257D01*
X250152Y23292D01*
X249986Y23361D01*
X249852D01*
Y24215D01*
D02*
G37*
G36*
X236227D02*
X231078D01*
Y19065D01*
X236227D01*
Y19786D01*
X236343D01*
X236508Y19854D01*
X236684Y19890D01*
X236834Y19989D01*
X237000Y20058D01*
X237126Y20185D01*
X237276Y20285D01*
X237375Y20434D01*
X237502Y20561D01*
X237571Y20727D01*
X237671Y20876D01*
X237706Y21052D01*
X237774Y21218D01*
Y21397D01*
X237809Y21573D01*
X237774Y21749D01*
Y21929D01*
X237706Y22095D01*
X237671Y22271D01*
X237571Y22420D01*
X237502Y22586D01*
X237375Y22713D01*
X237276Y22862D01*
X237126Y22962D01*
X237000Y23088D01*
X236834Y23157D01*
X236684Y23257D01*
X236508Y23292D01*
X236343Y23361D01*
X236227D01*
Y24215D01*
D02*
G37*
G36*
X277008Y24148D02*
X271858D01*
Y18998D01*
X277008D01*
Y19786D01*
X277034D01*
X277200Y19854D01*
X277376Y19890D01*
X277525Y19989D01*
X277691Y20058D01*
X277818Y20185D01*
X277967Y20285D01*
X278067Y20434D01*
X278194Y20561D01*
X278263Y20727D01*
X278362Y20876D01*
X278397Y21052D01*
X278466Y21218D01*
Y21397D01*
X278501Y21573D01*
X278466Y21749D01*
Y21929D01*
X278397Y22095D01*
X278362Y22271D01*
X278263Y22420D01*
X278194Y22586D01*
X278067Y22713D01*
X277967Y22862D01*
X277818Y22962D01*
X277691Y23088D01*
X277525Y23157D01*
X277376Y23257D01*
X277200Y23292D01*
X277034Y23361D01*
X277008D01*
Y24148D01*
D02*
G37*
G36*
X263477Y11977D02*
X258328D01*
Y6828D01*
X263477D01*
Y7549D01*
X263568D01*
X263734Y7617D01*
X263910Y7653D01*
X264059Y7752D01*
X264225Y7821D01*
X264352Y7948D01*
X264501Y8048D01*
X264601Y8197D01*
X264728Y8324D01*
X264797Y8489D01*
X264896Y8639D01*
X264931Y8815D01*
X265000Y8981D01*
Y9160D01*
X265035Y9336D01*
X265000Y9512D01*
Y9692D01*
X264931Y9858D01*
X264896Y10034D01*
X264797Y10183D01*
X264728Y10349D01*
X264601Y10476D01*
X264501Y10625D01*
X264352Y10725D01*
X264225Y10852D01*
X264059Y10920D01*
X263910Y11020D01*
X263734Y11055D01*
X263568Y11124D01*
X263477D01*
Y11977D01*
D02*
G37*
G36*
X249852D02*
X244703D01*
Y6828D01*
X249852D01*
Y7549D01*
X249986D01*
X250152Y7617D01*
X250328Y7653D01*
X250477Y7752D01*
X250643Y7821D01*
X250770Y7948D01*
X250919Y8048D01*
X251019Y8197D01*
X251146Y8324D01*
X251215Y8489D01*
X251314Y8639D01*
X251349Y8815D01*
X251418Y8981D01*
Y9160D01*
X251453Y9336D01*
X251418Y9512D01*
Y9692D01*
X251349Y9858D01*
X251314Y10034D01*
X251215Y10183D01*
X251146Y10349D01*
X251019Y10476D01*
X250919Y10625D01*
X250770Y10725D01*
X250643Y10852D01*
X250477Y10920D01*
X250328Y11020D01*
X250152Y11055D01*
X249986Y11124D01*
X249852D01*
Y11977D01*
D02*
G37*
G36*
X236227D02*
X231078D01*
Y6828D01*
X236227D01*
Y7549D01*
X236343D01*
X236508Y7617D01*
X236684Y7653D01*
X236834Y7752D01*
X237000Y7821D01*
X237126Y7948D01*
X237276Y8048D01*
X237375Y8197D01*
X237502Y8324D01*
X237571Y8489D01*
X237671Y8639D01*
X237706Y8815D01*
X237774Y8981D01*
Y9160D01*
X237809Y9336D01*
X237774Y9512D01*
Y9692D01*
X237706Y9858D01*
X237671Y10034D01*
X237571Y10183D01*
X237502Y10349D01*
X237375Y10476D01*
X237276Y10625D01*
X237126Y10725D01*
X237000Y10852D01*
X236834Y10920D01*
X236684Y11020D01*
X236508Y11055D01*
X236343Y11124D01*
X236227D01*
Y11977D01*
D02*
G37*
G36*
X277008Y11911D02*
X271858D01*
Y6761D01*
X277008D01*
Y7549D01*
X277034D01*
X277200Y7617D01*
X277376Y7653D01*
X277525Y7752D01*
X277691Y7821D01*
X277818Y7948D01*
X277967Y8048D01*
X278067Y8197D01*
X278194Y8324D01*
X278263Y8489D01*
X278362Y8639D01*
X278397Y8815D01*
X278466Y8981D01*
Y9160D01*
X278501Y9336D01*
X278466Y9512D01*
Y9692D01*
X278397Y9858D01*
X278362Y10034D01*
X278263Y10183D01*
X278194Y10349D01*
X278067Y10476D01*
X277967Y10625D01*
X277818Y10725D01*
X277691Y10852D01*
X277525Y10920D01*
X277376Y11020D01*
X277200Y11055D01*
X277034Y11124D01*
X277008D01*
Y11911D01*
D02*
G37*
G36*
X19000Y6228D02*
Y5000D01*
X20228D01*
X20015Y5513D01*
X19512Y6015D01*
X19000Y6228D01*
D02*
G37*
G36*
X18000D02*
X17488Y6015D01*
X16985Y5513D01*
X16772Y5000D01*
X18000D01*
Y6228D01*
D02*
G37*
G36*
X20228Y4000D02*
X19000D01*
Y2772D01*
X19512Y2985D01*
X20015Y3488D01*
X20228Y4000D01*
D02*
G37*
G36*
X18000D02*
X16772D01*
X16985Y3488D01*
X17488Y2985D01*
X18000Y2772D01*
Y4000D01*
D02*
G37*
%LPD*%
G36*
X7349Y129991D02*
X7384D01*
Y129956D01*
X7419D01*
Y129920D01*
X7454D01*
Y129885D01*
X7489D01*
Y129850D01*
X7524D01*
Y129745D01*
X7559D01*
Y129605D01*
X7524D01*
Y129500D01*
X7489D01*
Y129465D01*
X7454D01*
Y129430D01*
X7419D01*
Y129360D01*
X7349D01*
Y129290D01*
X7314D01*
Y129255D01*
X7244D01*
Y129185D01*
X7174D01*
Y129114D01*
X7104D01*
Y129044D01*
X7069D01*
Y129009D01*
X7034D01*
Y128974D01*
X6999D01*
Y128939D01*
X6964D01*
Y128904D01*
X6929D01*
Y128869D01*
X6859D01*
Y128834D01*
X6788D01*
Y128799D01*
X5527D01*
Y128764D01*
X5492D01*
Y128729D01*
X5457D01*
Y128519D01*
X5422D01*
Y128414D01*
X5387D01*
Y128379D01*
X5352D01*
Y128343D01*
X5317D01*
Y128308D01*
X5282D01*
Y128273D01*
X4931D01*
Y128308D01*
X4896D01*
Y128343D01*
X4826D01*
Y128379D01*
X4791D01*
Y128449D01*
X4756D01*
Y128519D01*
X4721D01*
Y128659D01*
X4756D01*
Y128729D01*
X4721D01*
Y128799D01*
X4440D01*
Y128834D01*
X4371D01*
Y128869D01*
X4335D01*
Y128904D01*
X4300D01*
Y128939D01*
X4265D01*
Y128974D01*
X4230D01*
Y129325D01*
X4265D01*
Y129360D01*
X4300D01*
Y129395D01*
X4335D01*
Y129430D01*
X4405D01*
Y129465D01*
X4440D01*
Y129500D01*
X4721D01*
Y129570D01*
X4756D01*
Y129640D01*
X4721D01*
Y129780D01*
X4756D01*
Y129850D01*
X4791D01*
Y129885D01*
X4826D01*
Y129956D01*
X4896D01*
Y129991D01*
X4931D01*
Y130026D01*
X5282D01*
Y129991D01*
X5317D01*
Y129956D01*
X5352D01*
Y129920D01*
X5387D01*
Y129885D01*
X5422D01*
Y129780D01*
X5457D01*
Y129535D01*
X5492D01*
Y129500D01*
X6508D01*
Y129535D01*
X6578D01*
Y129570D01*
X6613D01*
Y129605D01*
X6648D01*
Y129640D01*
X6683D01*
Y129675D01*
X6718D01*
Y129710D01*
X6753D01*
Y129745D01*
X6788D01*
Y129780D01*
X6824D01*
Y129815D01*
X6859D01*
Y129850D01*
X6894D01*
Y129885D01*
X6929D01*
Y129920D01*
X6964D01*
Y129956D01*
X7034D01*
Y129991D01*
X7069D01*
Y130026D01*
X7349D01*
Y129991D01*
D02*
G37*
G36*
X7314Y127888D02*
X7384D01*
Y127853D01*
X7419D01*
Y127818D01*
X7454D01*
Y127783D01*
X7489D01*
Y127748D01*
X7524D01*
Y127643D01*
X7559D01*
Y127467D01*
X7524D01*
Y127397D01*
X7489D01*
Y127327D01*
X7454D01*
Y127292D01*
X7419D01*
Y127257D01*
X7314D01*
Y127222D01*
X5842D01*
Y127187D01*
X5737D01*
Y127152D01*
X5702D01*
Y127117D01*
X5667D01*
Y127082D01*
X5632D01*
Y127047D01*
X5597D01*
Y127012D01*
X5562D01*
Y126977D01*
X5527D01*
Y126942D01*
X5492D01*
Y126907D01*
X5457D01*
Y126872D01*
X5422D01*
Y126802D01*
X5457D01*
Y126101D01*
X5492D01*
Y126066D01*
X5527D01*
Y126031D01*
X5562D01*
Y125996D01*
X5597D01*
Y125961D01*
X5632D01*
Y125926D01*
X5667D01*
Y125891D01*
X5702D01*
Y125855D01*
X5737D01*
Y125820D01*
X7314D01*
Y125785D01*
X7384D01*
Y125750D01*
X7419D01*
Y125715D01*
X7454D01*
Y125680D01*
X7489D01*
Y125645D01*
X7524D01*
Y125540D01*
X7559D01*
Y125470D01*
X7594D01*
Y125435D01*
X7559D01*
Y125365D01*
X7524D01*
Y125260D01*
X7489D01*
Y125225D01*
X7454D01*
Y125190D01*
X7419D01*
Y125154D01*
X7349D01*
Y125119D01*
X7279D01*
Y125084D01*
X5667D01*
Y125049D01*
X5597D01*
Y125084D01*
X3950D01*
Y125119D01*
X3880D01*
Y125154D01*
X3810D01*
Y125190D01*
X3775D01*
Y125225D01*
X3740D01*
Y125295D01*
X3705D01*
Y125400D01*
X3670D01*
Y125505D01*
X3705D01*
Y125610D01*
X3740D01*
Y125680D01*
X3775D01*
Y125715D01*
X3810D01*
Y125750D01*
X3880D01*
Y125785D01*
X3950D01*
Y125820D01*
X4756D01*
Y125961D01*
X4721D01*
Y127117D01*
X4756D01*
Y127187D01*
X4791D01*
Y127257D01*
X4826D01*
Y127327D01*
X4896D01*
Y127362D01*
X4931D01*
Y127397D01*
X4966D01*
Y127432D01*
X5001D01*
Y127467D01*
X5036D01*
Y127503D01*
X5071D01*
Y127538D01*
X5106D01*
Y127573D01*
X5141D01*
Y127608D01*
X5176D01*
Y127643D01*
X5212D01*
Y127678D01*
X5246D01*
Y127713D01*
X5282D01*
Y127748D01*
X5317D01*
Y127783D01*
X5352D01*
Y127818D01*
X5387D01*
Y127853D01*
X5422D01*
Y127888D01*
X5457D01*
Y127923D01*
X7314D01*
Y127888D01*
D02*
G37*
G36*
X7770Y124734D02*
X7910D01*
Y124699D01*
X7945D01*
Y124664D01*
X7980D01*
Y124629D01*
X8015D01*
Y124594D01*
X8050D01*
Y124559D01*
X8085D01*
Y124524D01*
X8120D01*
Y124489D01*
X8155D01*
Y124454D01*
X8190D01*
Y124419D01*
X8225D01*
Y124383D01*
X8260D01*
Y124348D01*
X8295D01*
Y124313D01*
X8330D01*
Y124278D01*
X8365D01*
Y124243D01*
X8400D01*
Y124208D01*
X8436D01*
Y124173D01*
X8471D01*
Y124138D01*
X8506D01*
Y124103D01*
X8541D01*
Y124033D01*
X8576D01*
Y123963D01*
X8611D01*
Y123227D01*
X8576D01*
Y123157D01*
X8541D01*
Y123122D01*
X8506D01*
Y123087D01*
X8471D01*
Y123052D01*
X8436D01*
Y123017D01*
X8365D01*
Y122982D01*
X8155D01*
Y123017D01*
X8085D01*
Y123052D01*
X8015D01*
Y123087D01*
X7980D01*
Y123122D01*
X7945D01*
Y123192D01*
X7910D01*
Y123718D01*
X7875D01*
Y123753D01*
X7840D01*
Y123788D01*
X7805D01*
Y123823D01*
X7770D01*
Y123858D01*
X7735D01*
Y123893D01*
X7700D01*
Y123963D01*
X7665D01*
Y123998D01*
X7559D01*
Y123858D01*
Y123823D01*
Y122912D01*
X7594D01*
Y122807D01*
X7559D01*
Y122737D01*
X7524D01*
Y122631D01*
X7489D01*
Y122596D01*
X7454D01*
Y122561D01*
X7419D01*
Y122526D01*
X7384D01*
Y122491D01*
X7349D01*
Y122456D01*
X7314D01*
Y122421D01*
X7279D01*
Y122386D01*
X7244D01*
Y122351D01*
X7209D01*
Y122316D01*
X7174D01*
Y122281D01*
X7139D01*
Y122246D01*
X7104D01*
Y122211D01*
X7069D01*
Y122141D01*
X7034D01*
Y122106D01*
X6999D01*
Y122071D01*
X6964D01*
Y122036D01*
X6894D01*
Y122001D01*
X6859D01*
Y121966D01*
X6788D01*
Y121931D01*
X5667D01*
Y121895D01*
X5562D01*
Y121931D01*
X5457D01*
Y121966D01*
X5387D01*
Y122001D01*
X5352D01*
Y122071D01*
X5317D01*
Y122106D01*
X5282D01*
Y122141D01*
X5246D01*
Y122176D01*
X5212D01*
Y122211D01*
X5176D01*
Y122246D01*
X5141D01*
Y122281D01*
X5106D01*
Y122316D01*
X5071D01*
Y122351D01*
X5036D01*
Y122386D01*
X5001D01*
Y122421D01*
X4966D01*
Y122456D01*
X4896D01*
Y122526D01*
X4826D01*
Y122596D01*
X4791D01*
Y122631D01*
X4756D01*
Y122701D01*
X4721D01*
Y124489D01*
X4756D01*
Y124594D01*
X4791D01*
Y124629D01*
X4826D01*
Y124664D01*
X4861D01*
Y124699D01*
X4896D01*
Y124734D01*
X7665D01*
Y124769D01*
X7770D01*
Y124734D01*
D02*
G37*
G36*
X4125Y120494D02*
X4195D01*
Y120459D01*
X4265D01*
Y120424D01*
X4300D01*
Y120388D01*
X4335D01*
Y120318D01*
X4371D01*
Y120248D01*
X4405D01*
Y120073D01*
X4371D01*
Y120003D01*
X4335D01*
Y119968D01*
X4300D01*
Y119898D01*
X4230D01*
Y119863D01*
X4160D01*
Y119828D01*
X3915D01*
Y119863D01*
X3845D01*
Y119898D01*
X3810D01*
Y119933D01*
X3740D01*
Y120003D01*
X3705D01*
Y120108D01*
X3670D01*
Y120213D01*
X3705D01*
Y120318D01*
X3740D01*
Y120388D01*
X3775D01*
Y120424D01*
X3810D01*
Y120459D01*
X3880D01*
Y120494D01*
X3950D01*
Y120529D01*
X4125D01*
Y120494D01*
D02*
G37*
G36*
X7314Y121019D02*
X7419D01*
Y120949D01*
X7489D01*
Y120879D01*
X7524D01*
Y120844D01*
X7559D01*
Y120739D01*
X7594D01*
Y120213D01*
X7559D01*
Y119547D01*
X7524D01*
Y119477D01*
X7489D01*
Y119407D01*
X7454D01*
Y119372D01*
X7419D01*
Y119337D01*
X7349D01*
Y119302D01*
X7279D01*
Y119267D01*
X7139D01*
Y119302D01*
X7069D01*
Y119337D01*
X6999D01*
Y119372D01*
X6964D01*
Y119407D01*
X6929D01*
Y119442D01*
X6894D01*
Y119512D01*
X6859D01*
Y119758D01*
X6824D01*
Y119828D01*
X5492D01*
Y119793D01*
X5457D01*
Y119758D01*
Y119723D01*
Y119618D01*
X5422D01*
Y119477D01*
X5387D01*
Y119407D01*
X5352D01*
Y119372D01*
X5317D01*
Y119337D01*
X5212D01*
Y119302D01*
X5141D01*
Y119267D01*
X5036D01*
Y119302D01*
X4966D01*
Y119337D01*
X4896D01*
Y119372D01*
X4826D01*
Y119442D01*
X4791D01*
Y119477D01*
X4756D01*
Y119618D01*
X4721D01*
Y120283D01*
X4756D01*
Y120353D01*
X4791D01*
Y120388D01*
X4826D01*
Y120424D01*
X4861D01*
Y120459D01*
X4896D01*
Y120494D01*
X4931D01*
Y120529D01*
X6824D01*
Y120809D01*
X6859D01*
Y120879D01*
X6894D01*
Y120914D01*
X6929D01*
Y120949D01*
X6964D01*
Y120984D01*
X6999D01*
Y121019D01*
X7104D01*
Y121054D01*
X7314D01*
Y121019D01*
D02*
G37*
G36*
X5141Y118391D02*
X5246D01*
Y118356D01*
X5317D01*
Y118321D01*
X5352D01*
Y118286D01*
X5387D01*
Y118216D01*
X5422D01*
Y118076D01*
X5457D01*
Y117655D01*
X5492D01*
Y117620D01*
X5527D01*
Y117585D01*
X5562D01*
Y117550D01*
X5597D01*
Y117515D01*
X5632D01*
Y117480D01*
X5667D01*
Y117445D01*
X5702D01*
Y117410D01*
X5737D01*
Y117375D01*
X5772D01*
Y117340D01*
X5807D01*
Y117305D01*
X5842D01*
Y117270D01*
X5877D01*
Y117235D01*
X5912D01*
Y117200D01*
X5947D01*
Y117165D01*
X5982D01*
Y117129D01*
X6018D01*
Y117094D01*
X6053D01*
Y117059D01*
X6088D01*
Y117024D01*
X6123D01*
Y116989D01*
X6158D01*
Y116954D01*
X6193D01*
Y116919D01*
X6228D01*
Y116884D01*
X6263D01*
Y116849D01*
X6298D01*
Y116814D01*
X7349D01*
Y116779D01*
X7384D01*
Y116744D01*
X7454D01*
Y116709D01*
X7489D01*
Y116639D01*
X7524D01*
Y116534D01*
X7559D01*
Y116323D01*
X7524D01*
Y116288D01*
X7489D01*
Y116253D01*
X7454D01*
Y116218D01*
X7419D01*
Y116183D01*
X7384D01*
Y116148D01*
X7314D01*
Y116113D01*
X7244D01*
Y116078D01*
X6193D01*
Y116113D01*
X5001D01*
Y116148D01*
X4896D01*
Y116183D01*
X4861D01*
Y116218D01*
X4826D01*
Y116253D01*
X4791D01*
Y116323D01*
X4756D01*
Y116428D01*
X4721D01*
Y116499D01*
X4756D01*
Y116639D01*
X4791D01*
Y116674D01*
X4826D01*
Y116709D01*
X4861D01*
Y116744D01*
X4896D01*
Y116779D01*
X4931D01*
Y116814D01*
X5246D01*
Y116884D01*
X5212D01*
Y116919D01*
X5176D01*
Y116954D01*
X5141D01*
Y116989D01*
X5106D01*
Y117024D01*
X5071D01*
Y117059D01*
X5036D01*
Y117094D01*
X5001D01*
Y117129D01*
X4966D01*
Y117165D01*
X4931D01*
Y117200D01*
X4896D01*
Y117235D01*
X4861D01*
Y117270D01*
X4826D01*
Y117340D01*
X4791D01*
Y117375D01*
X4756D01*
Y117515D01*
X4721D01*
Y118076D01*
X4756D01*
Y118216D01*
X4791D01*
Y118251D01*
X4826D01*
Y118321D01*
X4896D01*
Y118356D01*
X4931D01*
Y118391D01*
X5036D01*
Y118426D01*
X5141D01*
Y118391D01*
D02*
G37*
G36*
X7174Y115763D02*
X7314D01*
Y115728D01*
X7384D01*
Y115693D01*
X7419D01*
Y115658D01*
X7454D01*
Y115622D01*
X7489D01*
Y115587D01*
X7524D01*
Y115482D01*
X7559D01*
Y115342D01*
X7524D01*
Y115237D01*
X7489D01*
Y115202D01*
X7454D01*
Y115167D01*
X7419D01*
Y115132D01*
X7384D01*
Y115097D01*
X7349D01*
Y115062D01*
X7314D01*
Y115027D01*
X7279D01*
Y114992D01*
X7244D01*
Y114957D01*
X7209D01*
Y114922D01*
X7174D01*
Y114887D01*
X7139D01*
Y114816D01*
X7069D01*
Y114746D01*
X6999D01*
Y114676D01*
X6929D01*
Y114641D01*
X6894D01*
Y114571D01*
X6824D01*
Y114501D01*
X6788D01*
Y114466D01*
X6753D01*
Y114431D01*
X6683D01*
Y114361D01*
X6648D01*
Y114326D01*
X6683D01*
Y114291D01*
X6718D01*
Y114256D01*
X6753D01*
Y114221D01*
X6788D01*
Y114186D01*
X6824D01*
Y114151D01*
X6859D01*
Y114116D01*
X6894D01*
Y114081D01*
X6929D01*
Y114046D01*
X6964D01*
Y114011D01*
X6999D01*
Y113975D01*
X7034D01*
Y113940D01*
X7069D01*
Y113905D01*
X7104D01*
Y113870D01*
X7139D01*
Y113835D01*
X7174D01*
Y113800D01*
X7209D01*
Y113765D01*
X7244D01*
Y113730D01*
X7279D01*
Y113695D01*
X7314D01*
Y113660D01*
X7349D01*
Y113625D01*
X7419D01*
Y113590D01*
X7454D01*
Y113555D01*
X7489D01*
Y113485D01*
X7524D01*
Y113415D01*
X7559D01*
Y113345D01*
X7594D01*
Y113240D01*
X7559D01*
Y113169D01*
X7524D01*
Y113099D01*
X7489D01*
Y113064D01*
X7454D01*
Y113029D01*
X7419D01*
Y112994D01*
X7384D01*
Y112959D01*
X3880D01*
Y112994D01*
X3845D01*
Y113029D01*
X3810D01*
Y113064D01*
X3775D01*
Y113099D01*
X3740D01*
Y113134D01*
X3705D01*
Y113240D01*
X3670D01*
Y113345D01*
X3705D01*
Y113450D01*
X3740D01*
Y113520D01*
X3775D01*
Y113555D01*
X3810D01*
Y113590D01*
X3845D01*
Y113625D01*
X3985D01*
Y113660D01*
X6228D01*
Y113625D01*
X6298D01*
Y113660D01*
X6333D01*
Y113695D01*
X6298D01*
Y113730D01*
X6263D01*
Y113765D01*
X6228D01*
Y113800D01*
X6193D01*
Y113835D01*
X6158D01*
Y113870D01*
X6123D01*
Y113905D01*
X6088D01*
Y113940D01*
X6053D01*
Y113975D01*
X6018D01*
Y114011D01*
X5982D01*
Y114046D01*
X5947D01*
Y114081D01*
X5912D01*
Y114116D01*
X5877D01*
Y114151D01*
X5842D01*
Y114221D01*
X5807D01*
Y114361D01*
X5772D01*
Y114466D01*
X5807D01*
Y114501D01*
X5842D01*
Y114606D01*
X5877D01*
Y114641D01*
X5912D01*
Y114676D01*
X5947D01*
Y114711D01*
X6018D01*
Y114746D01*
X6053D01*
Y114781D01*
X6088D01*
Y114816D01*
X6123D01*
Y114851D01*
X6158D01*
Y114887D01*
X6193D01*
Y114922D01*
X6228D01*
Y114957D01*
X6263D01*
Y114992D01*
X6298D01*
Y115062D01*
X3915D01*
Y115097D01*
X3845D01*
Y115132D01*
X3810D01*
Y115167D01*
X3775D01*
Y115202D01*
X3740D01*
Y115272D01*
X3705D01*
Y115342D01*
X3670D01*
Y115482D01*
X3705D01*
Y115552D01*
X3740D01*
Y115622D01*
X3775D01*
Y115658D01*
X3810D01*
Y115693D01*
X3845D01*
Y115728D01*
X3915D01*
Y115763D01*
X7069D01*
Y115798D01*
X7174D01*
Y115763D01*
D02*
G37*
%LPC*%
G36*
X6824Y124033D02*
X5457D01*
Y123402D01*
Y123367D01*
Y123087D01*
X5422D01*
Y123017D01*
X5457D01*
Y122947D01*
X5492D01*
Y122877D01*
X5527D01*
Y122842D01*
X5562D01*
Y122807D01*
X5597D01*
Y122772D01*
X5632D01*
Y122737D01*
X5667D01*
Y122701D01*
X5702D01*
Y122666D01*
X5737D01*
Y122631D01*
X6543D01*
Y122666D01*
X6578D01*
Y122701D01*
X6613D01*
Y122737D01*
X6648D01*
Y122772D01*
X6683D01*
Y122807D01*
X6718D01*
Y122842D01*
X6753D01*
Y122877D01*
X6788D01*
Y122912D01*
X6824D01*
Y123017D01*
X6859D01*
Y123998D01*
X6824D01*
Y124033D01*
D02*
G37*
%LPD*%
G36*
Y109385D02*
X6859D01*
Y109350D01*
X6929D01*
Y109315D01*
X6964D01*
Y109280D01*
X6999D01*
Y109245D01*
X7034D01*
Y109209D01*
X7069D01*
Y109174D01*
X7104D01*
Y109139D01*
X7139D01*
Y109104D01*
X7174D01*
Y109069D01*
X7209D01*
Y109034D01*
X7244D01*
Y108999D01*
X7279D01*
Y108964D01*
X7314D01*
Y108929D01*
X7349D01*
Y108894D01*
X7384D01*
Y108859D01*
X7419D01*
Y108824D01*
X7454D01*
Y108789D01*
X7489D01*
Y108719D01*
X7524D01*
Y108649D01*
X7559D01*
Y107597D01*
X7594D01*
Y107492D01*
X7559D01*
Y107422D01*
X7524D01*
Y107317D01*
X7489D01*
Y107247D01*
X7419D01*
Y107177D01*
X7349D01*
Y107142D01*
X7314D01*
Y107072D01*
X7244D01*
Y107002D01*
X7174D01*
Y106932D01*
X7139D01*
Y106896D01*
X7104D01*
Y106861D01*
X7069D01*
Y106826D01*
X7034D01*
Y106791D01*
X6999D01*
Y106756D01*
X6964D01*
Y106721D01*
X6929D01*
Y106686D01*
X6894D01*
Y106651D01*
X6824D01*
Y106616D01*
X6753D01*
Y106581D01*
X6648D01*
Y106616D01*
X4686D01*
Y106581D01*
X4546D01*
Y106616D01*
X4440D01*
Y106651D01*
X4371D01*
Y106686D01*
X4335D01*
Y106721D01*
X4300D01*
Y106756D01*
X4265D01*
Y106791D01*
X4230D01*
Y106826D01*
X4195D01*
Y106861D01*
X4160D01*
Y106896D01*
X4125D01*
Y106932D01*
X4090D01*
Y106967D01*
X4055D01*
Y107002D01*
X4020D01*
Y107037D01*
X3985D01*
Y107072D01*
X3950D01*
Y107107D01*
X3915D01*
Y107142D01*
X3845D01*
Y107177D01*
X3810D01*
Y107247D01*
X3775D01*
Y107282D01*
X3740D01*
Y107352D01*
X3705D01*
Y107422D01*
X3670D01*
Y108649D01*
X3705D01*
Y108719D01*
X3740D01*
Y108789D01*
X3775D01*
Y108824D01*
X3810D01*
Y108859D01*
X3880D01*
Y108894D01*
X3915D01*
Y108929D01*
X3950D01*
Y108964D01*
X3985D01*
Y108999D01*
X4020D01*
Y109034D01*
X4055D01*
Y109069D01*
X4090D01*
Y109104D01*
X4125D01*
Y109139D01*
X4160D01*
Y109174D01*
X4195D01*
Y109209D01*
X4230D01*
Y109245D01*
X4265D01*
Y109280D01*
X4300D01*
Y109315D01*
X4335D01*
Y109350D01*
X4371D01*
Y109385D01*
X4405D01*
Y109420D01*
X4721D01*
Y109385D01*
X4756D01*
Y109350D01*
X4791D01*
Y109315D01*
X4826D01*
Y109280D01*
X4861D01*
Y109245D01*
X4896D01*
Y108894D01*
X4861D01*
Y108859D01*
X4826D01*
Y108824D01*
X4791D01*
Y108789D01*
X4756D01*
Y108754D01*
X4721D01*
Y108719D01*
X4686D01*
Y108684D01*
X4651D01*
Y108649D01*
X4616D01*
Y108614D01*
X4581D01*
Y108579D01*
X4546D01*
Y108544D01*
X4511D01*
Y108509D01*
X4476D01*
Y108474D01*
X4440D01*
Y108439D01*
X4405D01*
Y107597D01*
X4440D01*
Y107562D01*
X4476D01*
Y107527D01*
X4511D01*
Y107492D01*
X4546D01*
Y107457D01*
X4581D01*
Y107422D01*
X4616D01*
Y107387D01*
X4651D01*
Y107352D01*
X4686D01*
Y107317D01*
X6543D01*
Y107352D01*
X6578D01*
Y107387D01*
X6613D01*
Y107422D01*
X6648D01*
Y107457D01*
X6683D01*
Y107492D01*
X6718D01*
Y107527D01*
X6753D01*
Y107562D01*
X6788D01*
Y107597D01*
X6824D01*
Y107703D01*
X6859D01*
Y108368D01*
X6824D01*
Y108439D01*
X6788D01*
Y108474D01*
X6753D01*
Y108509D01*
X6718D01*
Y108544D01*
X6683D01*
Y108579D01*
X6648D01*
Y108614D01*
X6613D01*
Y108649D01*
X6578D01*
Y108684D01*
X6543D01*
Y108719D01*
X6508D01*
Y108754D01*
X6473D01*
Y108789D01*
X6438D01*
Y108824D01*
X6403D01*
Y108859D01*
X6368D01*
Y108929D01*
X6333D01*
Y109245D01*
X6368D01*
Y109280D01*
X6403D01*
Y109315D01*
X6438D01*
Y109350D01*
X6473D01*
Y109385D01*
X6543D01*
Y109420D01*
X6824D01*
Y109385D01*
D02*
G37*
G36*
X7875Y103077D02*
X7910D01*
Y103042D01*
X7945D01*
Y103007D01*
X8015D01*
Y102936D01*
X8050D01*
Y102901D01*
X8085D01*
Y102866D01*
X8120D01*
Y102831D01*
X8155D01*
Y102796D01*
X8190D01*
Y102761D01*
X8225D01*
Y102726D01*
X8260D01*
Y102691D01*
X8295D01*
Y102656D01*
X8330D01*
Y102621D01*
X8365D01*
Y102586D01*
X8400D01*
Y102551D01*
X8436D01*
Y102516D01*
X8471D01*
Y102481D01*
X8506D01*
Y102446D01*
X8541D01*
Y102411D01*
X8576D01*
Y102376D01*
X8611D01*
Y101570D01*
X8576D01*
Y101500D01*
X8541D01*
Y101465D01*
X8506D01*
Y101430D01*
X8471D01*
Y101395D01*
X8436D01*
Y101360D01*
X8330D01*
Y101324D01*
X8155D01*
Y101360D01*
X8085D01*
Y101395D01*
X8015D01*
Y101430D01*
X7980D01*
Y101465D01*
X7945D01*
Y101535D01*
X7910D01*
Y102060D01*
X7875D01*
Y102095D01*
X7840D01*
Y102130D01*
X7805D01*
Y102166D01*
X7770D01*
Y102201D01*
X7735D01*
Y102236D01*
X7700D01*
Y102271D01*
X7665D01*
Y102306D01*
X7630D01*
Y102341D01*
X7559D01*
Y101254D01*
X7594D01*
Y101219D01*
X7559D01*
Y101079D01*
X7524D01*
Y100974D01*
X7489D01*
Y100939D01*
X7454D01*
Y100904D01*
X7419D01*
Y100834D01*
X7349D01*
Y100764D01*
X7279D01*
Y100729D01*
X7244D01*
Y100659D01*
X7174D01*
Y100589D01*
X7104D01*
Y100519D01*
X7069D01*
Y100483D01*
X7034D01*
Y100448D01*
X6999D01*
Y100413D01*
X6964D01*
Y100378D01*
X6929D01*
Y100343D01*
X6859D01*
Y100308D01*
X6824D01*
Y100273D01*
X6753D01*
Y100238D01*
X6683D01*
Y100273D01*
X4966D01*
Y100308D01*
X4896D01*
Y100343D01*
X4861D01*
Y100378D01*
X4826D01*
Y100413D01*
X4791D01*
Y100448D01*
X4756D01*
Y100589D01*
X4721D01*
Y100659D01*
X4756D01*
Y100799D01*
X4791D01*
Y100834D01*
X4826D01*
Y100869D01*
X4861D01*
Y100904D01*
X4896D01*
Y100939D01*
X4966D01*
Y100974D01*
X6508D01*
Y101009D01*
X6578D01*
Y101044D01*
X6613D01*
Y101079D01*
X6648D01*
Y101114D01*
X6683D01*
Y101149D01*
X6718D01*
Y101184D01*
X6753D01*
Y101219D01*
X6788D01*
Y101254D01*
X6824D01*
Y101324D01*
X6859D01*
Y102306D01*
X6824D01*
Y102376D01*
X5001D01*
Y102411D01*
X4931D01*
Y102446D01*
X4861D01*
Y102481D01*
X4826D01*
Y102551D01*
X4791D01*
Y102586D01*
X4756D01*
Y102691D01*
X4721D01*
Y102761D01*
X4756D01*
Y102901D01*
X4791D01*
Y102936D01*
X4826D01*
Y102972D01*
X4861D01*
Y103007D01*
X4896D01*
Y103042D01*
X4966D01*
Y103077D01*
X5036D01*
Y103112D01*
X7875D01*
Y103077D01*
D02*
G37*
G36*
X6824Y99888D02*
X6894D01*
Y99853D01*
X6929D01*
Y99783D01*
X6964D01*
Y99748D01*
X6999D01*
Y99713D01*
X7034D01*
Y99677D01*
X7069D01*
Y99642D01*
X7104D01*
Y99607D01*
X7139D01*
Y99572D01*
X7174D01*
Y99537D01*
X7209D01*
Y99502D01*
X7244D01*
Y99467D01*
X7279D01*
Y99432D01*
X7349D01*
Y99397D01*
X7384D01*
Y99362D01*
X7419D01*
Y99327D01*
X7454D01*
Y99292D01*
X7489D01*
Y99222D01*
X7524D01*
Y99152D01*
X7559D01*
Y99117D01*
X7594D01*
Y99012D01*
X7559D01*
Y97540D01*
X7594D01*
Y97400D01*
X7559D01*
Y97329D01*
X7524D01*
Y97259D01*
X7489D01*
Y97224D01*
X7454D01*
Y97189D01*
X7419D01*
Y97154D01*
X7384D01*
Y97119D01*
X7314D01*
Y97084D01*
X7209D01*
Y97119D01*
X4090D01*
Y97084D01*
X4055D01*
Y97119D01*
X3880D01*
Y97154D01*
X3810D01*
Y97189D01*
X3775D01*
Y97224D01*
X3740D01*
Y97294D01*
X3705D01*
Y97400D01*
X3670D01*
Y97505D01*
X3705D01*
Y97610D01*
X3740D01*
Y97680D01*
X3775D01*
Y97715D01*
X3810D01*
Y97750D01*
X3880D01*
Y97785D01*
X3950D01*
Y97820D01*
X4721D01*
Y97855D01*
X4756D01*
Y97925D01*
X4721D01*
Y99082D01*
X4756D01*
Y99187D01*
X4791D01*
Y99222D01*
X4826D01*
Y99292D01*
X4861D01*
Y99327D01*
X4896D01*
Y99362D01*
X4931D01*
Y99397D01*
X4966D01*
Y99432D01*
X5001D01*
Y99467D01*
X5036D01*
Y99502D01*
X5071D01*
Y99537D01*
X5106D01*
Y99572D01*
X5141D01*
Y99607D01*
X5176D01*
Y99642D01*
X5212D01*
Y99677D01*
X5246D01*
Y99713D01*
X5282D01*
Y99748D01*
X5317D01*
Y99783D01*
X5352D01*
Y99818D01*
X5387D01*
Y99853D01*
X5457D01*
Y99888D01*
X5492D01*
Y99923D01*
X6824D01*
Y99888D01*
D02*
G37*
%LPC*%
G36*
X6543Y99222D02*
X6158D01*
Y99187D01*
X6053D01*
Y99222D01*
X5772D01*
Y99187D01*
X5737D01*
Y99152D01*
X5667D01*
Y99082D01*
X5632D01*
Y99047D01*
X5597D01*
Y99012D01*
X5562D01*
Y98976D01*
X5492D01*
Y98906D01*
X5457D01*
Y97925D01*
X5422D01*
Y97855D01*
X5457D01*
Y97820D01*
X6824D01*
Y97855D01*
X6859D01*
Y98871D01*
X6824D01*
Y98941D01*
X6788D01*
Y98976D01*
X6753D01*
Y99012D01*
X6718D01*
Y99047D01*
X6683D01*
Y99082D01*
X6648D01*
Y99117D01*
X6613D01*
Y99152D01*
X6578D01*
Y99187D01*
X6543D01*
Y99222D01*
D02*
G37*
%LPD*%
G36*
X7314Y93545D02*
X7419D01*
Y93510D01*
X7454D01*
Y93440D01*
X7489D01*
Y93405D01*
X7524D01*
Y93334D01*
X7559D01*
Y93299D01*
X7594D01*
Y93159D01*
X7559D01*
Y91652D01*
X7594D01*
Y91582D01*
X7559D01*
Y91512D01*
X7524D01*
Y91477D01*
X7489D01*
Y91407D01*
X7454D01*
Y91372D01*
X7419D01*
Y91337D01*
X7384D01*
Y91302D01*
X7349D01*
Y91267D01*
X7314D01*
Y91232D01*
X7279D01*
Y91197D01*
X7244D01*
Y91162D01*
X7209D01*
Y91127D01*
X7174D01*
Y91092D01*
X7139D01*
Y91057D01*
X7104D01*
Y91022D01*
X7069D01*
Y90987D01*
X7034D01*
Y90951D01*
X6999D01*
Y90916D01*
X6964D01*
Y90881D01*
X6929D01*
Y90846D01*
X6894D01*
Y90811D01*
X6824D01*
Y90776D01*
X6718D01*
Y90741D01*
X5527D01*
Y90776D01*
X5457D01*
Y90811D01*
X5422D01*
Y90846D01*
X5387D01*
Y90881D01*
X5352D01*
Y90916D01*
X5282D01*
Y90951D01*
X5246D01*
Y90987D01*
X5212D01*
Y91057D01*
X5176D01*
Y91092D01*
X5141D01*
Y91127D01*
X5106D01*
Y91162D01*
X5071D01*
Y91197D01*
X5036D01*
Y91232D01*
X5001D01*
Y91267D01*
X4966D01*
Y91302D01*
X4931D01*
Y91337D01*
X4896D01*
Y91372D01*
X4861D01*
Y91407D01*
X4791D01*
Y91442D01*
X4756D01*
Y91617D01*
X4721D01*
Y92739D01*
X4756D01*
Y92809D01*
X4721D01*
Y92879D01*
X3915D01*
Y92914D01*
X3845D01*
Y92949D01*
X3810D01*
Y92984D01*
X3775D01*
Y93019D01*
X3740D01*
Y93089D01*
X3705D01*
Y93159D01*
X3670D01*
Y93299D01*
X3705D01*
Y93370D01*
X3740D01*
Y93440D01*
X3775D01*
Y93475D01*
X3810D01*
Y93510D01*
X3845D01*
Y93545D01*
X3915D01*
Y93580D01*
X7314D01*
Y93545D01*
D02*
G37*
G36*
X6263Y90391D02*
X6333D01*
Y90356D01*
X6368D01*
Y90321D01*
X6403D01*
Y90286D01*
X6438D01*
Y90250D01*
X6473D01*
Y90215D01*
X6508D01*
Y88323D01*
X6578D01*
Y88358D01*
X6613D01*
Y88393D01*
X6648D01*
Y88463D01*
X6718D01*
Y88498D01*
X6753D01*
Y88568D01*
X6824D01*
Y88674D01*
X6859D01*
Y89690D01*
X6894D01*
Y89725D01*
X6929D01*
Y89795D01*
X6999D01*
Y89830D01*
X7034D01*
Y89865D01*
X7139D01*
Y89900D01*
X7279D01*
Y89865D01*
X7349D01*
Y89830D01*
X7419D01*
Y89795D01*
X7454D01*
Y89760D01*
X7489D01*
Y89725D01*
X7524D01*
Y89620D01*
X7559D01*
Y88428D01*
X7594D01*
Y88393D01*
X7559D01*
Y88358D01*
X7524D01*
Y88288D01*
X7489D01*
Y88218D01*
X7419D01*
Y88148D01*
X7349D01*
Y88113D01*
X7314D01*
Y88078D01*
X7279D01*
Y88043D01*
X7244D01*
Y88008D01*
X7209D01*
Y87973D01*
X7174D01*
Y87938D01*
X7139D01*
Y87903D01*
X7104D01*
Y87868D01*
X7069D01*
Y87832D01*
X7034D01*
Y87797D01*
X6999D01*
Y87762D01*
X6964D01*
Y87727D01*
X6929D01*
Y87657D01*
X6859D01*
Y87622D01*
X6788D01*
Y87587D01*
X6718D01*
Y87552D01*
X6613D01*
Y87587D01*
X5527D01*
Y87622D01*
X5457D01*
Y87657D01*
X5387D01*
Y87692D01*
X5352D01*
Y87727D01*
X5317D01*
Y87762D01*
X5282D01*
Y87797D01*
X5246D01*
Y87832D01*
X5212D01*
Y87868D01*
X5176D01*
Y87903D01*
X5141D01*
Y87938D01*
X5106D01*
Y87973D01*
X5071D01*
Y88008D01*
X5036D01*
Y88043D01*
X5001D01*
Y88078D01*
X4966D01*
Y88113D01*
X4931D01*
Y88148D01*
X4896D01*
Y88183D01*
X4861D01*
Y88218D01*
X4826D01*
Y88253D01*
X4791D01*
Y88323D01*
X4756D01*
Y88463D01*
X4721D01*
Y89620D01*
X4756D01*
Y89725D01*
X4791D01*
Y89760D01*
X4826D01*
Y89795D01*
X4861D01*
Y89830D01*
X4896D01*
Y89865D01*
X4931D01*
Y89900D01*
X4966D01*
Y89935D01*
X5001D01*
Y89970D01*
X5036D01*
Y90005D01*
X5071D01*
Y90040D01*
X5106D01*
Y90075D01*
X5141D01*
Y90110D01*
X5176D01*
Y90145D01*
X5212D01*
Y90180D01*
X5246D01*
Y90215D01*
X5282D01*
Y90250D01*
X5317D01*
Y90286D01*
X5352D01*
Y90321D01*
X5387D01*
Y90356D01*
X5422D01*
Y90391D01*
X5492D01*
Y90426D01*
X6263D01*
Y90391D01*
D02*
G37*
G36*
X5737Y87237D02*
X7314D01*
Y87202D01*
X7384D01*
Y87167D01*
X7419D01*
Y87132D01*
X7489D01*
Y87062D01*
X7524D01*
Y86956D01*
X7559D01*
Y86816D01*
X7524D01*
Y86711D01*
X7489D01*
Y86676D01*
X7454D01*
Y86641D01*
X7419D01*
Y86606D01*
X7384D01*
Y86571D01*
X7314D01*
Y86536D01*
X5737D01*
Y86501D01*
X5702D01*
Y86466D01*
X5667D01*
Y86431D01*
X5632D01*
Y86396D01*
X5597D01*
Y86361D01*
X5562D01*
Y86326D01*
X5527D01*
Y86291D01*
X5492D01*
Y86221D01*
X5457D01*
Y86150D01*
X5422D01*
Y86080D01*
X5457D01*
Y86045D01*
Y86010D01*
Y85134D01*
X7279D01*
Y85099D01*
X7384D01*
Y85064D01*
X7419D01*
Y85029D01*
X7454D01*
Y84994D01*
X7489D01*
Y84959D01*
X7524D01*
Y84854D01*
X7559D01*
Y84714D01*
X7524D01*
Y84608D01*
X7489D01*
Y84538D01*
X7419D01*
Y84503D01*
X7384D01*
Y84468D01*
X7349D01*
Y84433D01*
X4931D01*
Y84468D01*
X4861D01*
Y84503D01*
X4826D01*
Y84538D01*
X4791D01*
Y84573D01*
X4756D01*
Y84679D01*
X4721D01*
Y86466D01*
X4756D01*
Y86536D01*
X4791D01*
Y86606D01*
X4826D01*
Y86641D01*
X4861D01*
Y86676D01*
X4896D01*
Y86711D01*
X4966D01*
Y86746D01*
X5001D01*
Y86781D01*
X5036D01*
Y86816D01*
X5071D01*
Y86851D01*
X5106D01*
Y86886D01*
X5141D01*
Y86921D01*
X5176D01*
Y86956D01*
X5212D01*
Y86991D01*
X5246D01*
Y87027D01*
X5282D01*
Y87062D01*
X5317D01*
Y87132D01*
X5352D01*
Y87167D01*
X5387D01*
Y87202D01*
X5492D01*
Y87237D01*
X5667D01*
Y87272D01*
X5737D01*
Y87237D01*
D02*
G37*
G36*
X7875Y84048D02*
X7910D01*
Y84013D01*
X7980D01*
Y83978D01*
X8015D01*
Y83908D01*
X8050D01*
Y83872D01*
X8085D01*
Y83837D01*
X8120D01*
Y83802D01*
X8155D01*
Y83767D01*
X8190D01*
Y83732D01*
X8225D01*
Y83697D01*
X8260D01*
Y83662D01*
X8295D01*
Y83627D01*
X8330D01*
Y83592D01*
X8365D01*
Y83557D01*
X8400D01*
Y83522D01*
X8471D01*
Y83487D01*
X8506D01*
Y83417D01*
X8541D01*
Y83382D01*
X8576D01*
Y83312D01*
X8611D01*
Y82541D01*
X8576D01*
Y82471D01*
X8541D01*
Y82436D01*
X8506D01*
Y82401D01*
X8471D01*
Y82366D01*
X8436D01*
Y82331D01*
X8085D01*
Y82366D01*
X8050D01*
Y82401D01*
X8015D01*
Y82436D01*
X7980D01*
Y82471D01*
X7945D01*
Y82541D01*
X7910D01*
Y83031D01*
X7875D01*
Y83066D01*
X7840D01*
Y83137D01*
X7805D01*
Y83172D01*
X7770D01*
Y83207D01*
X7735D01*
Y83242D01*
X7700D01*
Y83277D01*
X7665D01*
Y83312D01*
X7559D01*
Y82050D01*
X7524D01*
Y81980D01*
X7489D01*
Y81910D01*
X7454D01*
Y81875D01*
X7419D01*
Y81840D01*
X7384D01*
Y81805D01*
X7349D01*
Y81770D01*
X7314D01*
Y81735D01*
X7279D01*
Y81700D01*
X7244D01*
Y81665D01*
X7209D01*
Y81630D01*
X7174D01*
Y81595D01*
X7139D01*
Y81560D01*
X7104D01*
Y81525D01*
X7069D01*
Y81489D01*
X7034D01*
Y81454D01*
X6999D01*
Y81384D01*
X6964D01*
Y81349D01*
X6894D01*
Y81314D01*
X6824D01*
Y81279D01*
X6753D01*
Y81244D01*
X5457D01*
Y81279D01*
X5422D01*
Y81314D01*
X5387D01*
Y81349D01*
X5352D01*
Y81384D01*
X5317D01*
Y81419D01*
X5282D01*
Y81454D01*
X5246D01*
Y81489D01*
X5212D01*
Y81525D01*
X5176D01*
Y81560D01*
X5141D01*
Y81595D01*
X5106D01*
Y81630D01*
X5071D01*
Y81665D01*
X5036D01*
Y81700D01*
X5001D01*
Y81735D01*
X4966D01*
Y81770D01*
X4931D01*
Y81805D01*
X4896D01*
Y81840D01*
X4861D01*
Y81875D01*
X4826D01*
Y81910D01*
X4791D01*
Y81945D01*
X4756D01*
Y82050D01*
X4721D01*
Y83802D01*
X4756D01*
Y83908D01*
X4791D01*
Y83943D01*
X4826D01*
Y84013D01*
X4896D01*
Y84048D01*
X4931D01*
Y84083D01*
X7875D01*
Y84048D01*
D02*
G37*
G36*
X7314Y80333D02*
X7419D01*
Y80298D01*
X7454D01*
Y80263D01*
X7489D01*
Y80193D01*
X7524D01*
Y80088D01*
X7559D01*
Y80053D01*
X7594D01*
Y79492D01*
X7559D01*
Y78896D01*
X7524D01*
Y78791D01*
X7489D01*
Y78756D01*
X7454D01*
Y78721D01*
X7419D01*
Y78686D01*
X7384D01*
Y78651D01*
X7314D01*
Y78616D01*
X7104D01*
Y78651D01*
X6999D01*
Y78686D01*
X6964D01*
Y78721D01*
X6929D01*
Y78756D01*
X6894D01*
Y78826D01*
X6859D01*
Y78966D01*
X6824D01*
Y79001D01*
X6859D01*
Y79106D01*
X6824D01*
Y79141D01*
X5457D01*
Y79106D01*
X5422D01*
Y79036D01*
X5457D01*
Y78931D01*
X5422D01*
Y78791D01*
X5387D01*
Y78756D01*
X5352D01*
Y78721D01*
X5317D01*
Y78686D01*
X5282D01*
Y78651D01*
X5212D01*
Y78616D01*
X5001D01*
Y78651D01*
X4896D01*
Y78686D01*
X4861D01*
Y78721D01*
X4826D01*
Y78756D01*
X4791D01*
Y78826D01*
X4756D01*
Y78931D01*
X4721D01*
Y79597D01*
X4756D01*
Y79702D01*
X4791D01*
Y79737D01*
X4826D01*
Y79772D01*
X4861D01*
Y79807D01*
X4966D01*
Y79842D01*
X5001D01*
Y79878D01*
X5071D01*
Y79842D01*
X6824D01*
Y80053D01*
X6859D01*
Y80158D01*
X6894D01*
Y80228D01*
X6929D01*
Y80263D01*
X6964D01*
Y80298D01*
X6999D01*
Y80333D01*
X7069D01*
Y80368D01*
X7314D01*
Y80333D01*
D02*
G37*
G36*
X4160Y79807D02*
X4230D01*
Y79772D01*
X4265D01*
Y79737D01*
X4300D01*
Y79702D01*
X4335D01*
Y79632D01*
X4371D01*
Y79562D01*
X4405D01*
Y79422D01*
X4371D01*
Y79352D01*
X4335D01*
Y79282D01*
X4300D01*
Y79247D01*
X4265D01*
Y79212D01*
X4230D01*
Y79177D01*
X4160D01*
Y79141D01*
X3915D01*
Y79177D01*
X3845D01*
Y79212D01*
X3810D01*
Y79247D01*
X3775D01*
Y79282D01*
X3740D01*
Y79352D01*
X3705D01*
Y79457D01*
X3670D01*
Y79562D01*
X3705D01*
Y79632D01*
X3740D01*
Y79702D01*
X3775D01*
Y79737D01*
X3810D01*
Y79772D01*
X3845D01*
Y79807D01*
X3915D01*
Y79842D01*
X4160D01*
Y79807D01*
D02*
G37*
G36*
X6683Y78265D02*
X6753D01*
Y78230D01*
X6859D01*
Y78195D01*
X6894D01*
Y78160D01*
X6929D01*
Y78125D01*
X6964D01*
Y78090D01*
X6999D01*
Y78055D01*
X7034D01*
Y78020D01*
X7069D01*
Y77985D01*
X7104D01*
Y77950D01*
X7139D01*
Y77915D01*
X7174D01*
Y77880D01*
X7209D01*
Y77845D01*
X7244D01*
Y77810D01*
X7279D01*
Y77775D01*
X7314D01*
Y77740D01*
X7349D01*
Y77705D01*
X7419D01*
Y77670D01*
X7454D01*
Y77635D01*
X7489D01*
Y77565D01*
X7524D01*
Y77530D01*
X7559D01*
Y77459D01*
X7594D01*
Y77389D01*
X7559D01*
Y75707D01*
X7524D01*
Y75637D01*
X7489D01*
Y75567D01*
X7454D01*
Y75532D01*
X7419D01*
Y75497D01*
X7349D01*
Y75462D01*
X7244D01*
Y75427D01*
X7139D01*
Y75462D01*
X7034D01*
Y75497D01*
X6999D01*
Y75532D01*
X6964D01*
Y75567D01*
X6929D01*
Y75602D01*
X6894D01*
Y75672D01*
X6859D01*
Y76163D01*
Y76198D01*
Y77179D01*
X6824D01*
Y77284D01*
X6788D01*
Y77319D01*
X6753D01*
Y77354D01*
X6718D01*
Y77389D01*
X6648D01*
Y77354D01*
X6613D01*
Y77319D01*
X6578D01*
Y77284D01*
X6543D01*
Y77249D01*
X6508D01*
Y76233D01*
X6473D01*
Y76163D01*
X6438D01*
Y76093D01*
X6403D01*
Y76058D01*
X6368D01*
Y76023D01*
X6333D01*
Y75988D01*
X6298D01*
Y75953D01*
X6263D01*
Y75918D01*
X6228D01*
Y75882D01*
X6193D01*
Y75847D01*
X6158D01*
Y75812D01*
X6123D01*
Y75777D01*
X6088D01*
Y75742D01*
X6053D01*
Y75707D01*
X6018D01*
Y75672D01*
X5982D01*
Y75637D01*
X5947D01*
Y75602D01*
X5912D01*
Y75567D01*
X5877D01*
Y75532D01*
X5807D01*
Y75497D01*
X5772D01*
Y75462D01*
X5667D01*
Y75427D01*
X5562D01*
Y75462D01*
X5457D01*
Y75497D01*
X5422D01*
Y75532D01*
X5352D01*
Y75567D01*
X5317D01*
Y75602D01*
X5282D01*
Y75637D01*
X5246D01*
Y75672D01*
X5212D01*
Y75707D01*
X5176D01*
Y75777D01*
X5106D01*
Y75812D01*
X5071D01*
Y75882D01*
X5001D01*
Y75953D01*
X4931D01*
Y76023D01*
X4896D01*
Y76058D01*
X4826D01*
Y76128D01*
X4791D01*
Y76163D01*
X4756D01*
Y76303D01*
X4721D01*
Y77950D01*
X4756D01*
Y78055D01*
X4791D01*
Y78125D01*
X4826D01*
Y78160D01*
X4861D01*
Y78195D01*
X4896D01*
Y78230D01*
X5001D01*
Y78265D01*
X5176D01*
Y78230D01*
X5282D01*
Y78195D01*
X5317D01*
Y78160D01*
X5352D01*
Y78125D01*
X5387D01*
Y78090D01*
X5422D01*
Y77950D01*
X5457D01*
Y76478D01*
X5492D01*
Y76408D01*
X5527D01*
Y76373D01*
X5562D01*
Y76338D01*
X5597D01*
Y76303D01*
X5667D01*
Y76373D01*
X5702D01*
Y76408D01*
X5737D01*
Y76443D01*
X5772D01*
Y76478D01*
X5807D01*
Y77214D01*
X5772D01*
Y77495D01*
X5807D01*
Y77565D01*
X5842D01*
Y77600D01*
X5877D01*
Y77635D01*
X5912D01*
Y77670D01*
X5947D01*
Y77705D01*
X5982D01*
Y77740D01*
X6018D01*
Y77775D01*
X6053D01*
Y77810D01*
X6088D01*
Y77845D01*
X6123D01*
Y77880D01*
X6158D01*
Y77915D01*
X6193D01*
Y77950D01*
X6228D01*
Y77985D01*
X6263D01*
Y78020D01*
X6298D01*
Y78055D01*
X6333D01*
Y78090D01*
X6368D01*
Y78125D01*
X6403D01*
Y78160D01*
X6438D01*
Y78195D01*
X6473D01*
Y78230D01*
X6543D01*
Y78265D01*
X6578D01*
Y78300D01*
X6683D01*
Y78265D01*
D02*
G37*
G36*
X6228Y75076D02*
X6298D01*
Y75041D01*
X6333D01*
Y75006D01*
X6403D01*
Y74971D01*
X6438D01*
Y74901D01*
X6473D01*
Y74831D01*
X6508D01*
Y73009D01*
X6578D01*
Y73044D01*
X6613D01*
Y73079D01*
X6648D01*
Y73114D01*
X6683D01*
Y73149D01*
X6718D01*
Y73184D01*
X6753D01*
Y73219D01*
X6788D01*
Y73254D01*
X6824D01*
Y73324D01*
X6859D01*
Y74340D01*
X6894D01*
Y74411D01*
X6929D01*
Y74446D01*
X6964D01*
Y74481D01*
X6999D01*
Y74516D01*
X7069D01*
Y74551D01*
X7139D01*
Y74586D01*
X7244D01*
Y74551D01*
X7349D01*
Y74516D01*
X7419D01*
Y74481D01*
X7454D01*
Y74446D01*
X7489D01*
Y74375D01*
X7524D01*
Y74305D01*
X7559D01*
Y73149D01*
X7594D01*
Y73079D01*
X7559D01*
Y73044D01*
X7524D01*
Y72974D01*
X7489D01*
Y72939D01*
X7454D01*
Y72869D01*
X7419D01*
Y72834D01*
X7349D01*
Y72799D01*
X7314D01*
Y72764D01*
X7279D01*
Y72729D01*
X7244D01*
Y72693D01*
X7209D01*
Y72658D01*
X7174D01*
Y72623D01*
X7139D01*
Y72588D01*
X7104D01*
Y72553D01*
X7069D01*
Y72518D01*
X7034D01*
Y72483D01*
X6999D01*
Y72448D01*
X6964D01*
Y72413D01*
X6929D01*
Y72378D01*
X6894D01*
Y72343D01*
X6859D01*
Y72308D01*
X6753D01*
Y72273D01*
X6648D01*
Y72238D01*
X6543D01*
Y72273D01*
X5632D01*
Y72238D01*
X5527D01*
Y72273D01*
X5492D01*
Y72308D01*
X5422D01*
Y72343D01*
X5387D01*
Y72378D01*
X5352D01*
Y72413D01*
X5317D01*
Y72448D01*
X5282D01*
Y72483D01*
X5246D01*
Y72518D01*
X5212D01*
Y72553D01*
X5176D01*
Y72588D01*
X5141D01*
Y72623D01*
X5106D01*
Y72658D01*
X5071D01*
Y72693D01*
X5036D01*
Y72729D01*
X5001D01*
Y72764D01*
X4966D01*
Y72799D01*
X4931D01*
Y72834D01*
X4896D01*
Y72869D01*
X4861D01*
Y72904D01*
X4826D01*
Y72939D01*
X4791D01*
Y73009D01*
X4756D01*
Y73114D01*
X4721D01*
Y74305D01*
X4756D01*
Y74411D01*
X4791D01*
Y74446D01*
X4826D01*
Y74481D01*
X4861D01*
Y74516D01*
X4896D01*
Y74551D01*
X4931D01*
Y74586D01*
X4966D01*
Y74621D01*
X5001D01*
Y74656D01*
X5036D01*
Y74691D01*
X5071D01*
Y74726D01*
X5106D01*
Y74761D01*
X5141D01*
Y74796D01*
X5176D01*
Y74831D01*
X5212D01*
Y74866D01*
X5246D01*
Y74901D01*
X5282D01*
Y74936D01*
X5317D01*
Y74971D01*
X5352D01*
Y75006D01*
X5387D01*
Y75041D01*
X5422D01*
Y75076D01*
X5492D01*
Y75112D01*
X6228D01*
Y75076D01*
D02*
G37*
G36*
X6788Y71887D02*
X6859D01*
Y71852D01*
X6894D01*
Y71817D01*
X6929D01*
Y71782D01*
X6964D01*
Y71747D01*
X6999D01*
Y71712D01*
X7034D01*
Y71677D01*
X7069D01*
Y71642D01*
X7104D01*
Y71607D01*
X7139D01*
Y71572D01*
X7174D01*
Y71537D01*
X7209D01*
Y71502D01*
X7244D01*
Y71467D01*
X7279D01*
Y71432D01*
X7349D01*
Y71397D01*
X7384D01*
Y71362D01*
X7419D01*
Y71327D01*
X7454D01*
Y71292D01*
X7489D01*
Y71257D01*
X7524D01*
Y71187D01*
X7559D01*
Y69539D01*
X7594D01*
Y69399D01*
X7559D01*
Y69329D01*
X7524D01*
Y69259D01*
X7489D01*
Y69224D01*
X7454D01*
Y69189D01*
X7419D01*
Y69154D01*
X7384D01*
Y69119D01*
X7279D01*
Y69084D01*
X7174D01*
Y69119D01*
X4090D01*
Y69084D01*
X3950D01*
Y69119D01*
X3845D01*
Y69154D01*
X3810D01*
Y69189D01*
X3775D01*
Y69224D01*
X3740D01*
Y69294D01*
X3705D01*
Y69399D01*
X3670D01*
Y71152D01*
X3705D01*
Y71222D01*
X3740D01*
Y71292D01*
X3775D01*
Y71327D01*
X3845D01*
Y71362D01*
X3880D01*
Y71397D01*
X3915D01*
Y71432D01*
X3950D01*
Y71467D01*
X3985D01*
Y71502D01*
X4020D01*
Y71537D01*
X4055D01*
Y71572D01*
X4090D01*
Y71607D01*
X4125D01*
Y71642D01*
X4160D01*
Y71677D01*
X4195D01*
Y71712D01*
X4230D01*
Y71782D01*
X4265D01*
Y71817D01*
X4300D01*
Y71852D01*
X4335D01*
Y71887D01*
X4405D01*
Y71922D01*
X6788D01*
Y71887D01*
D02*
G37*
%LPC*%
G36*
X6824Y92879D02*
X5457D01*
Y92809D01*
X5422D01*
Y92739D01*
X5457D01*
Y91933D01*
X5422D01*
Y91898D01*
X5457D01*
Y91793D01*
X5492D01*
Y91722D01*
X5527D01*
Y91687D01*
X5562D01*
Y91652D01*
X5597D01*
Y91617D01*
X5632D01*
Y91582D01*
X5667D01*
Y91547D01*
X5702D01*
Y91512D01*
X5737D01*
Y91477D01*
X6543D01*
Y91512D01*
X6578D01*
Y91547D01*
X6613D01*
Y91582D01*
X6648D01*
Y91617D01*
X6683D01*
Y91652D01*
X6718D01*
Y91687D01*
X6753D01*
Y91722D01*
X6788D01*
Y91757D01*
X6824D01*
Y91793D01*
X6859D01*
Y92669D01*
Y92704D01*
Y92809D01*
X6824D01*
Y92879D01*
D02*
G37*
G36*
X5772Y89655D02*
X5702D01*
Y89620D01*
X5667D01*
Y89585D01*
X5632D01*
Y89550D01*
X5597D01*
Y89515D01*
X5562D01*
Y89480D01*
X5527D01*
Y89445D01*
X5492D01*
Y89410D01*
X5457D01*
Y89375D01*
X5422D01*
Y89339D01*
Y89269D01*
X5457D01*
Y88604D01*
X5492D01*
Y88568D01*
X5527D01*
Y88533D01*
X5562D01*
Y88498D01*
X5597D01*
Y88463D01*
X5632D01*
Y88393D01*
X5702D01*
Y88358D01*
X5737D01*
Y88323D01*
X5807D01*
Y89620D01*
X5772D01*
Y89655D01*
D02*
G37*
G36*
X6788Y83382D02*
X6753D01*
Y83347D01*
X5457D01*
Y83312D01*
X5422D01*
Y83242D01*
X5457D01*
Y82366D01*
X5422D01*
Y82296D01*
X5457D01*
Y82261D01*
X5492D01*
Y82225D01*
X5527D01*
Y82190D01*
X5562D01*
Y82155D01*
X5597D01*
Y82120D01*
X5632D01*
Y82085D01*
X5667D01*
Y82050D01*
X5702D01*
Y82015D01*
X5737D01*
Y81980D01*
X6403D01*
Y81945D01*
X6438D01*
Y81980D01*
X6543D01*
Y82015D01*
X6613D01*
Y82050D01*
X6648D01*
Y82085D01*
X6683D01*
Y82155D01*
X6753D01*
Y82190D01*
X6788D01*
Y82225D01*
X6824D01*
Y82296D01*
X6859D01*
Y83312D01*
X6824D01*
Y83347D01*
X6788D01*
Y83382D01*
D02*
G37*
G36*
X5807Y74340D02*
X5702D01*
Y74305D01*
X5667D01*
Y74270D01*
X5632D01*
Y74235D01*
X5597D01*
Y74200D01*
X5562D01*
Y74165D01*
X5527D01*
Y74130D01*
X5492D01*
Y74095D01*
X5457D01*
Y74060D01*
X5422D01*
Y73990D01*
X5457D01*
Y73254D01*
X5527D01*
Y73219D01*
X5562D01*
Y73184D01*
X5597D01*
Y73149D01*
X5632D01*
Y73079D01*
X5667D01*
Y73044D01*
X5737D01*
Y73009D01*
X5807D01*
Y74340D01*
D02*
G37*
G36*
X6543Y71222D02*
X4721D01*
Y71187D01*
X4686D01*
Y71152D01*
X4616D01*
Y71116D01*
X4581D01*
Y71081D01*
X4546D01*
Y71046D01*
X4511D01*
Y71011D01*
X4476D01*
Y70976D01*
X4440D01*
Y70941D01*
X4405D01*
Y69820D01*
X6824D01*
Y69855D01*
X6859D01*
Y70871D01*
X6824D01*
Y70941D01*
X6788D01*
Y70976D01*
X6753D01*
Y71011D01*
X6718D01*
Y71046D01*
X6683D01*
Y71081D01*
X6648D01*
Y71116D01*
X6613D01*
Y71152D01*
X6578D01*
Y71187D01*
X6543D01*
Y71222D01*
D02*
G37*
G36*
X321500Y165500D02*
X320272D01*
X320485Y164988D01*
X320988Y164485D01*
X321500Y164272D01*
Y165500D01*
D02*
G37*
G36*
X286000Y138283D02*
X284417D01*
Y136700D01*
X286000D01*
Y138283D01*
D02*
G37*
G36*
Y133000D02*
X284772D01*
X284985Y132487D01*
X285488Y131985D01*
X286000Y131772D01*
Y133000D01*
D02*
G37*
G36*
X287883Y131083D02*
X286300D01*
Y129500D01*
X287883D01*
Y131083D01*
D02*
G37*
G36*
X285300D02*
X283717D01*
Y129500D01*
X285300D01*
Y131083D01*
D02*
G37*
G36*
X7319Y142331D02*
X7281D01*
Y142313D01*
X7244D01*
Y142294D01*
X7225D01*
Y142275D01*
X7206D01*
Y142256D01*
X7169D01*
Y142237D01*
X7150D01*
Y142219D01*
X7113D01*
Y142200D01*
X7094D01*
Y142181D01*
X7056D01*
Y142163D01*
X7038D01*
Y142144D01*
X7000D01*
Y142125D01*
X6981D01*
Y142106D01*
X6944D01*
Y142087D01*
X6925D01*
Y142069D01*
X6887D01*
Y142050D01*
X6869D01*
Y142031D01*
X6850D01*
Y142013D01*
X6813D01*
Y141994D01*
X6794D01*
Y141975D01*
X6756D01*
Y141956D01*
X6737D01*
Y141937D01*
X6700D01*
Y141919D01*
X6681D01*
Y141900D01*
X6662D01*
Y141881D01*
X6681D01*
Y141862D01*
X6700D01*
Y141825D01*
X6719D01*
Y141806D01*
X6737D01*
Y141788D01*
X6756D01*
Y141769D01*
X6775D01*
Y141750D01*
X6794D01*
Y141731D01*
X6813D01*
Y141712D01*
X6831D01*
Y141694D01*
X6850D01*
Y141675D01*
X6869D01*
Y141656D01*
X6887D01*
Y141638D01*
X6906D01*
Y141600D01*
X6925D01*
Y141581D01*
X6944D01*
Y141562D01*
X6962D01*
Y141544D01*
X6981D01*
Y141525D01*
X7000D01*
Y141506D01*
X7019D01*
Y141488D01*
X7038D01*
Y141469D01*
X7056D01*
Y141450D01*
X7075D01*
Y141431D01*
X7094D01*
Y141394D01*
X7113D01*
Y141375D01*
X7131D01*
Y141356D01*
X7150D01*
Y141338D01*
X7169D01*
Y141319D01*
X7187D01*
Y141300D01*
X7206D01*
Y141281D01*
X7225D01*
Y141262D01*
X7244D01*
Y141244D01*
X7262D01*
Y141225D01*
X7281D01*
Y141206D01*
X7300D01*
Y141169D01*
X7319D01*
Y141150D01*
X7338D01*
Y141131D01*
X7356D01*
Y141112D01*
X7375D01*
Y141094D01*
X7394D01*
Y141075D01*
X7412D01*
Y141056D01*
X7431D01*
Y141037D01*
X7450D01*
Y141019D01*
X7469D01*
Y141000D01*
X7487D01*
Y140981D01*
X7506D01*
Y140944D01*
X7525D01*
Y140925D01*
X7544D01*
Y140906D01*
X7563D01*
Y140887D01*
X7581D01*
Y140869D01*
X7600D01*
Y140850D01*
X7619D01*
Y140831D01*
X7638D01*
Y140813D01*
X7656D01*
Y140794D01*
X7675D01*
Y140775D01*
X7694D01*
Y140756D01*
X7712D01*
Y140719D01*
X7731D01*
Y140700D01*
X7750D01*
Y140681D01*
X7769D01*
Y140663D01*
X7788D01*
Y140644D01*
X7806D01*
Y140625D01*
X7825D01*
Y140606D01*
X7844D01*
Y140587D01*
X7863D01*
Y140569D01*
X7881D01*
Y140550D01*
X7900D01*
Y140513D01*
X7919D01*
Y140494D01*
X7937D01*
Y140475D01*
X7956D01*
Y140456D01*
X7975D01*
Y140437D01*
X7994D01*
Y140419D01*
X8012D01*
Y140400D01*
X8031D01*
Y140381D01*
X8050D01*
Y140363D01*
X8069D01*
Y140344D01*
X8088D01*
Y140325D01*
X8106D01*
Y140287D01*
X8125D01*
Y140269D01*
X8144D01*
Y140250D01*
X8162D01*
Y140231D01*
X8181D01*
Y140213D01*
X8200D01*
Y140194D01*
X8219D01*
Y140175D01*
X8237D01*
Y140156D01*
X8256D01*
Y140138D01*
X8275D01*
Y140119D01*
X8294D01*
Y140100D01*
X8313D01*
Y140062D01*
X8331D01*
Y140044D01*
X8350D01*
Y140025D01*
X8369D01*
Y140006D01*
X8388D01*
Y139988D01*
X8406D01*
Y139969D01*
X8425D01*
Y139950D01*
X8444D01*
Y139931D01*
X8462D01*
Y139875D01*
X8425D01*
Y139856D01*
X8406D01*
Y139838D01*
X8369D01*
Y139819D01*
X8350D01*
Y139800D01*
X8313D01*
Y139781D01*
X8294D01*
Y139762D01*
X8256D01*
Y139744D01*
X8219D01*
Y139725D01*
X8200D01*
Y139706D01*
X8162D01*
Y139688D01*
X8144D01*
Y139669D01*
X8106D01*
Y139650D01*
X8088D01*
Y139631D01*
X8050D01*
Y139612D01*
X8031D01*
Y139594D01*
X7994D01*
Y139575D01*
X7956D01*
Y139556D01*
X7937D01*
Y139538D01*
X7900D01*
Y139519D01*
X7881D01*
Y139500D01*
X7844D01*
Y139481D01*
X7825D01*
Y139462D01*
X7788D01*
Y139444D01*
X7750D01*
Y139425D01*
X7731D01*
Y139406D01*
X7694D01*
Y139388D01*
X7675D01*
Y139369D01*
X7638D01*
Y139350D01*
X7619D01*
Y139331D01*
X7581D01*
Y139313D01*
X7563D01*
Y139294D01*
X7525D01*
Y139275D01*
X7487D01*
Y139256D01*
X7469D01*
Y139237D01*
X7431D01*
Y139219D01*
X7412D01*
Y139200D01*
X7375D01*
Y139181D01*
X7356D01*
Y139163D01*
X7319D01*
Y139144D01*
X7300D01*
Y139125D01*
X7262D01*
Y139106D01*
X7225D01*
Y139087D01*
X7206D01*
Y139069D01*
X7169D01*
Y139050D01*
X7150D01*
Y139031D01*
X7113D01*
Y139013D01*
X7094D01*
Y138994D01*
X7056D01*
Y138975D01*
X7019D01*
Y138956D01*
X7000D01*
Y138937D01*
X6962D01*
Y138919D01*
X6944D01*
Y138900D01*
X6906D01*
Y138881D01*
X6887D01*
Y138863D01*
X6850D01*
Y138844D01*
X6831D01*
Y138825D01*
X6794D01*
Y138806D01*
X6756D01*
Y138787D01*
X6737D01*
Y138769D01*
X6700D01*
Y138750D01*
X6681D01*
Y138731D01*
X6644D01*
Y138713D01*
X6625D01*
Y138694D01*
X6588D01*
Y138675D01*
X6569D01*
Y138656D01*
X6531D01*
Y138637D01*
X6494D01*
Y138619D01*
X6475D01*
Y138600D01*
X6437D01*
Y138581D01*
X6419D01*
Y138563D01*
X6381D01*
Y138544D01*
X6363D01*
Y138525D01*
X6325D01*
Y138506D01*
X6306D01*
Y138488D01*
X6269D01*
Y138469D01*
X6231D01*
Y138450D01*
X6213D01*
Y138431D01*
X6175D01*
Y138412D01*
X6156D01*
Y138394D01*
X6119D01*
Y138375D01*
X6100D01*
Y138356D01*
X6063D01*
Y138338D01*
X6025D01*
Y138319D01*
X6006D01*
Y138300D01*
X5969D01*
Y138281D01*
X5950D01*
Y138262D01*
X5912D01*
Y138244D01*
X5894D01*
Y138225D01*
X5856D01*
Y138206D01*
X5838D01*
Y138188D01*
X5800D01*
Y138169D01*
X5762D01*
Y138150D01*
X5744D01*
Y138131D01*
X5706D01*
Y138112D01*
X5688D01*
Y138094D01*
X5650D01*
Y138075D01*
X5631D01*
Y138056D01*
X5594D01*
Y138038D01*
X5575D01*
Y138019D01*
X5537D01*
Y138000D01*
X5500D01*
Y137981D01*
X5481D01*
Y137962D01*
X5444D01*
Y137944D01*
X5425D01*
Y137925D01*
X5387D01*
Y137906D01*
X5369D01*
Y137888D01*
X5331D01*
Y137869D01*
X5294D01*
Y137850D01*
X5275D01*
Y137831D01*
X5237D01*
Y137812D01*
X5219D01*
Y137794D01*
X5181D01*
Y137775D01*
X5162D01*
Y137756D01*
X5125D01*
Y137738D01*
X5106D01*
Y137719D01*
X5069D01*
Y137700D01*
X5031D01*
Y137681D01*
X5012D01*
Y137662D01*
X4994D01*
Y136650D01*
X5012D01*
Y136669D01*
X5050D01*
Y136688D01*
X5069D01*
Y136706D01*
X5106D01*
Y136725D01*
X5144D01*
Y136744D01*
X5162D01*
Y136762D01*
X5200D01*
Y136781D01*
X5219D01*
Y136800D01*
X5256D01*
Y136819D01*
X5275D01*
Y136837D01*
X5313D01*
Y136856D01*
X5350D01*
Y136875D01*
X5369D01*
Y136894D01*
X5406D01*
Y136913D01*
X5425D01*
Y136931D01*
X5463D01*
Y136950D01*
X5481D01*
Y136969D01*
X5519D01*
Y136987D01*
X5556D01*
Y137006D01*
X5575D01*
Y137025D01*
X5613D01*
Y137044D01*
X5631D01*
Y137063D01*
X5669D01*
Y137081D01*
X5688D01*
Y137100D01*
X5725D01*
Y137119D01*
X5762D01*
Y137137D01*
X5781D01*
Y137156D01*
X5819D01*
Y137175D01*
X5838D01*
Y137194D01*
X5875D01*
Y137213D01*
X5894D01*
Y137231D01*
X5931D01*
Y137250D01*
X5969D01*
Y137269D01*
X5988D01*
Y137287D01*
X6025D01*
Y137306D01*
X6044D01*
Y137325D01*
X6081D01*
Y137344D01*
X6100D01*
Y137363D01*
X6137D01*
Y137381D01*
X6175D01*
Y137400D01*
X6194D01*
Y137419D01*
X6231D01*
Y137437D01*
X6250D01*
Y137456D01*
X6288D01*
Y137475D01*
X6306D01*
Y137494D01*
X6344D01*
Y137513D01*
X6381D01*
Y137531D01*
X6400D01*
Y137550D01*
X6437D01*
Y137569D01*
X6456D01*
Y137587D01*
X6494D01*
Y137606D01*
X6531D01*
Y137625D01*
X6550D01*
Y137644D01*
X6588D01*
Y137662D01*
X6606D01*
Y137681D01*
X6644D01*
Y137700D01*
X6662D01*
Y137719D01*
X6700D01*
Y137738D01*
X6737D01*
Y137756D01*
X6756D01*
Y137775D01*
X6794D01*
Y137794D01*
X6813D01*
Y137812D01*
X6850D01*
Y137831D01*
X6869D01*
Y137850D01*
X6906D01*
Y137869D01*
X6944D01*
Y137888D01*
X6962D01*
Y137906D01*
X7000D01*
Y137925D01*
X7019D01*
Y137944D01*
X7056D01*
Y137962D01*
X7075D01*
Y137981D01*
X7113D01*
Y138000D01*
X7150D01*
Y138019D01*
X7169D01*
Y138038D01*
X7206D01*
Y138056D01*
X7225D01*
Y138075D01*
X7262D01*
Y138094D01*
X7281D01*
Y138112D01*
X7319D01*
Y138131D01*
X7356D01*
Y138150D01*
X7375D01*
Y138169D01*
X7412D01*
Y138188D01*
X7431D01*
Y138206D01*
X7469D01*
Y138225D01*
X7487D01*
Y138244D01*
X7525D01*
Y138262D01*
X7563D01*
Y138281D01*
X7581D01*
Y138300D01*
X7619D01*
Y138319D01*
X7638D01*
Y138338D01*
X7675D01*
Y138356D01*
X7694D01*
Y138375D01*
X7731D01*
Y138394D01*
X7769D01*
Y138412D01*
X7788D01*
Y138431D01*
X7825D01*
Y138450D01*
X7844D01*
Y138469D01*
X7881D01*
Y138488D01*
X7900D01*
Y138506D01*
X7937D01*
Y138525D01*
X7975D01*
Y138544D01*
X7994D01*
Y138563D01*
X8031D01*
Y138581D01*
X8050D01*
Y138600D01*
X8088D01*
Y138619D01*
X8125D01*
Y138637D01*
X8144D01*
Y138656D01*
X8181D01*
Y138675D01*
X8200D01*
Y138694D01*
X8237D01*
Y138713D01*
X8256D01*
Y138731D01*
X8294D01*
Y138750D01*
X8331D01*
Y138769D01*
X8350D01*
Y138787D01*
X8388D01*
Y138806D01*
X8406D01*
Y138825D01*
X8444D01*
Y138844D01*
X8462D01*
Y138863D01*
X8500D01*
Y138881D01*
X8538D01*
Y138900D01*
X8556D01*
Y138919D01*
X8594D01*
Y138937D01*
X8613D01*
Y138956D01*
X8650D01*
Y138975D01*
X8669D01*
Y138994D01*
X8706D01*
Y139013D01*
X8744D01*
Y139031D01*
X8762D01*
Y139050D01*
X8800D01*
Y139069D01*
X8819D01*
Y139087D01*
X8856D01*
Y139106D01*
X8875D01*
Y139125D01*
X8912D01*
Y139144D01*
X8950D01*
Y139163D01*
X8969D01*
Y139181D01*
X9006D01*
Y139200D01*
X9025D01*
Y139219D01*
X9063D01*
Y139237D01*
X9081D01*
Y139256D01*
X9119D01*
Y139275D01*
X9156D01*
Y139294D01*
X9175D01*
Y139313D01*
X9212D01*
Y139331D01*
X9231D01*
Y139350D01*
X9269D01*
Y139369D01*
X9287D01*
Y139388D01*
X9325D01*
Y139406D01*
X9363D01*
Y139425D01*
X9381D01*
Y139444D01*
X9419D01*
Y139462D01*
X9437D01*
Y139481D01*
X9475D01*
Y139500D01*
X9494D01*
Y139519D01*
X9531D01*
Y139538D01*
X9569D01*
Y139556D01*
X9588D01*
Y139575D01*
X9625D01*
Y139594D01*
X9644D01*
Y139612D01*
X9681D01*
Y139631D01*
X9719D01*
Y139650D01*
X9700D01*
Y139688D01*
X9681D01*
Y139706D01*
X9663D01*
Y139725D01*
X9644D01*
Y139744D01*
X9625D01*
Y139762D01*
X9606D01*
Y139781D01*
X9588D01*
Y139800D01*
X9569D01*
Y139819D01*
X9550D01*
Y139838D01*
X9531D01*
Y139875D01*
X9512D01*
Y139894D01*
X9494D01*
Y139912D01*
X9475D01*
Y139931D01*
X9456D01*
Y139950D01*
X9437D01*
Y139969D01*
X9419D01*
Y139988D01*
X9400D01*
Y140006D01*
X9381D01*
Y140044D01*
X9363D01*
Y140062D01*
X9344D01*
Y140081D01*
X9325D01*
Y140100D01*
X9306D01*
Y140119D01*
X9287D01*
Y140138D01*
X9269D01*
Y140156D01*
X9250D01*
Y140175D01*
X9231D01*
Y140194D01*
X9212D01*
Y140231D01*
X9194D01*
Y140250D01*
X9175D01*
Y140269D01*
X9156D01*
Y140287D01*
X9138D01*
Y140306D01*
X9119D01*
Y140325D01*
X9100D01*
Y140344D01*
X9081D01*
Y140363D01*
X9063D01*
Y140381D01*
X9044D01*
Y140419D01*
X9025D01*
Y140437D01*
X9006D01*
Y140456D01*
X8987D01*
Y140475D01*
X8969D01*
Y140494D01*
X8950D01*
Y140513D01*
X8931D01*
Y140531D01*
X8912D01*
Y140550D01*
X8894D01*
Y140569D01*
X8875D01*
Y140606D01*
X8856D01*
Y140625D01*
X8838D01*
Y140644D01*
X8819D01*
Y140663D01*
X8800D01*
Y140681D01*
X8781D01*
Y140700D01*
X8762D01*
Y140719D01*
X8744D01*
Y140737D01*
X8725D01*
Y140775D01*
X8706D01*
Y140794D01*
X8687D01*
Y140813D01*
X8669D01*
Y140831D01*
X8650D01*
Y140850D01*
X8631D01*
Y140869D01*
X8613D01*
Y140887D01*
X8594D01*
Y140906D01*
X8575D01*
Y140925D01*
X8556D01*
Y140963D01*
X8538D01*
Y140981D01*
X8519D01*
Y141000D01*
X8500D01*
Y141019D01*
X8481D01*
Y141037D01*
X8462D01*
Y141056D01*
X8444D01*
Y141075D01*
X8425D01*
Y141094D01*
X8406D01*
Y141112D01*
X8388D01*
Y141150D01*
X8369D01*
Y141169D01*
X8350D01*
Y141188D01*
X8331D01*
Y141206D01*
X8313D01*
Y141225D01*
X8294D01*
Y141244D01*
X8275D01*
Y141262D01*
X8256D01*
Y141281D01*
X8237D01*
Y141300D01*
X8219D01*
Y141338D01*
X8200D01*
Y141356D01*
X8181D01*
Y141375D01*
X8162D01*
Y141394D01*
X8144D01*
Y141412D01*
X8125D01*
Y141431D01*
X8106D01*
Y141450D01*
X8088D01*
Y141469D01*
X8069D01*
Y141506D01*
X8050D01*
Y141525D01*
X8031D01*
Y141544D01*
X8012D01*
Y141562D01*
X7994D01*
Y141581D01*
X7975D01*
Y141600D01*
X7956D01*
Y141619D01*
X7937D01*
Y141638D01*
X7919D01*
Y141656D01*
X7900D01*
Y141694D01*
X7881D01*
Y141712D01*
X7863D01*
Y141731D01*
X7844D01*
Y141750D01*
X7825D01*
Y141769D01*
X7806D01*
Y141788D01*
X7788D01*
Y141806D01*
X7769D01*
Y141825D01*
X7750D01*
Y141844D01*
X7731D01*
Y141881D01*
X7712D01*
Y141900D01*
X7694D01*
Y141919D01*
X7675D01*
Y141937D01*
X7656D01*
Y141956D01*
X7638D01*
Y141975D01*
X7619D01*
Y141994D01*
X7600D01*
Y142013D01*
X7581D01*
Y142031D01*
X7563D01*
Y142069D01*
X7544D01*
Y142087D01*
X7525D01*
Y142106D01*
X7506D01*
Y142125D01*
X7487D01*
Y142144D01*
X7469D01*
Y142163D01*
X7450D01*
Y142181D01*
X7431D01*
Y142200D01*
X7412D01*
Y142237D01*
X7394D01*
Y142256D01*
X7375D01*
Y142275D01*
X7356D01*
Y142294D01*
X7338D01*
Y142313D01*
X7319D01*
Y142331D01*
D02*
G37*
G36*
X8162Y138188D02*
X8144D01*
Y138169D01*
X8106D01*
Y138150D01*
X8088D01*
Y138131D01*
X8050D01*
Y138112D01*
X8031D01*
Y138094D01*
X7994D01*
Y138075D01*
X7975D01*
Y138056D01*
X7937D01*
Y138038D01*
X7900D01*
Y138019D01*
X7881D01*
Y138000D01*
X7844D01*
Y137981D01*
X7825D01*
Y137962D01*
X7788D01*
Y137944D01*
X7769D01*
Y137925D01*
X7731D01*
Y137906D01*
X7712D01*
Y137888D01*
X7675D01*
Y137869D01*
X7656D01*
Y137850D01*
X7619D01*
Y137831D01*
X7600D01*
Y137812D01*
X7563D01*
Y137794D01*
X7525D01*
Y137775D01*
X7544D01*
Y137756D01*
X7563D01*
Y137738D01*
X7581D01*
Y137719D01*
X7600D01*
Y137681D01*
X7619D01*
Y137662D01*
X7638D01*
Y137644D01*
X7656D01*
Y137625D01*
X7675D01*
Y137606D01*
X7694D01*
Y137587D01*
X7712D01*
Y137569D01*
X7731D01*
Y137550D01*
X7750D01*
Y137531D01*
X7769D01*
Y137513D01*
X7788D01*
Y137494D01*
X7806D01*
Y137475D01*
X7825D01*
Y137456D01*
X7844D01*
Y137437D01*
X7863D01*
Y137419D01*
X7881D01*
Y137400D01*
X7900D01*
Y137381D01*
X7919D01*
Y137363D01*
X7937D01*
Y137325D01*
X7956D01*
Y137306D01*
X7975D01*
Y137287D01*
X7994D01*
Y137269D01*
X8012D01*
Y137250D01*
X8031D01*
Y137231D01*
X8050D01*
Y137213D01*
X8069D01*
Y137194D01*
X8088D01*
Y137175D01*
X8106D01*
Y137156D01*
X8125D01*
Y137137D01*
X8144D01*
Y137119D01*
X8162D01*
Y137100D01*
X8181D01*
Y137081D01*
X8200D01*
Y137063D01*
X8219D01*
Y137044D01*
X8237D01*
Y137025D01*
X8256D01*
Y136987D01*
X8275D01*
Y136969D01*
X8294D01*
Y136950D01*
X8313D01*
Y136931D01*
X8331D01*
Y136913D01*
X8350D01*
Y136894D01*
X8369D01*
Y136875D01*
X8388D01*
Y136856D01*
X8406D01*
Y136837D01*
X8425D01*
Y136819D01*
X8444D01*
Y136800D01*
X8462D01*
Y136781D01*
X8481D01*
Y136762D01*
X8500D01*
Y136706D01*
X8462D01*
Y136688D01*
X8444D01*
Y136669D01*
X8406D01*
Y136650D01*
X8388D01*
Y136631D01*
X8350D01*
Y136612D01*
X8313D01*
Y136594D01*
X8294D01*
Y136575D01*
X8256D01*
Y136556D01*
X8237D01*
Y136538D01*
X8200D01*
Y136519D01*
X8181D01*
Y136500D01*
X8144D01*
Y136481D01*
X8106D01*
Y136462D01*
X8088D01*
Y136444D01*
X8050D01*
Y136425D01*
X8031D01*
Y136406D01*
X7994D01*
Y136388D01*
X7975D01*
Y136369D01*
X7937D01*
Y136350D01*
X7900D01*
Y136331D01*
X7881D01*
Y136312D01*
X7844D01*
Y136294D01*
X7825D01*
Y136275D01*
X7788D01*
Y136256D01*
X7769D01*
Y136238D01*
X7731D01*
Y136219D01*
X7694D01*
Y136200D01*
X7675D01*
Y136181D01*
X7638D01*
Y136162D01*
X7619D01*
Y136144D01*
X7581D01*
Y136125D01*
X7563D01*
Y136106D01*
X7525D01*
Y136088D01*
X7487D01*
Y136069D01*
X7469D01*
Y136050D01*
X7431D01*
Y136031D01*
X7412D01*
Y136012D01*
X7375D01*
Y135994D01*
X7338D01*
Y135975D01*
X7319D01*
Y135956D01*
X7281D01*
Y135938D01*
X7262D01*
Y135919D01*
X7225D01*
Y135900D01*
X7206D01*
Y135881D01*
X7169D01*
Y135863D01*
X7131D01*
Y135844D01*
X7113D01*
Y135825D01*
X7075D01*
Y135806D01*
X7056D01*
Y135787D01*
X7019D01*
Y135769D01*
X7000D01*
Y135750D01*
X6962D01*
Y135731D01*
X6925D01*
Y135713D01*
X6906D01*
Y135694D01*
X6869D01*
Y135675D01*
X6850D01*
Y135656D01*
X6813D01*
Y135637D01*
X6794D01*
Y135619D01*
X6756D01*
Y135600D01*
X6719D01*
Y135581D01*
X6700D01*
Y135563D01*
X6662D01*
Y135544D01*
X6644D01*
Y135525D01*
X6606D01*
Y135506D01*
X6588D01*
Y135487D01*
X6550D01*
Y135469D01*
X6513D01*
Y135450D01*
X6494D01*
Y135431D01*
X6456D01*
Y135413D01*
X6437D01*
Y135394D01*
X6400D01*
Y135375D01*
X6381D01*
Y135356D01*
X6344D01*
Y135337D01*
X6306D01*
Y135319D01*
X6288D01*
Y135300D01*
X6250D01*
Y135281D01*
X6231D01*
Y135263D01*
X6194D01*
Y135244D01*
X6175D01*
Y135225D01*
X6137D01*
Y135206D01*
X6100D01*
Y135187D01*
X6081D01*
Y135169D01*
X6044D01*
Y135150D01*
X6025D01*
Y135131D01*
X5988D01*
Y135113D01*
X5950D01*
Y135094D01*
X5931D01*
Y135075D01*
X5894D01*
Y135094D01*
X5856D01*
Y136725D01*
X5838D01*
Y136706D01*
X5819D01*
Y136688D01*
X5781D01*
Y136669D01*
X5762D01*
Y136650D01*
X5725D01*
Y136631D01*
X5688D01*
Y136612D01*
X5669D01*
Y136594D01*
X5631D01*
Y136575D01*
X5594D01*
Y136556D01*
X5575D01*
Y136538D01*
X5537D01*
Y136519D01*
X5500D01*
Y136500D01*
X5481D01*
Y136481D01*
X5444D01*
Y136462D01*
X5406D01*
Y136444D01*
X5387D01*
Y136425D01*
X5350D01*
Y136406D01*
X5313D01*
Y136388D01*
X5294D01*
Y136369D01*
X5256D01*
Y136350D01*
X5237D01*
Y136331D01*
X5200D01*
Y136312D01*
X5162D01*
Y136294D01*
X5144D01*
Y136275D01*
X5106D01*
Y136256D01*
X5069D01*
Y136238D01*
X5050D01*
Y136219D01*
X5012D01*
Y133500D01*
X5050D01*
Y133519D01*
X5069D01*
Y133537D01*
X5106D01*
Y133556D01*
X5144D01*
Y133575D01*
X5162D01*
Y133594D01*
X5200D01*
Y133613D01*
X5219D01*
Y133631D01*
X5256D01*
Y133650D01*
X5275D01*
Y133669D01*
X5313D01*
Y133687D01*
X5350D01*
Y133706D01*
X5369D01*
Y133725D01*
X5406D01*
Y133744D01*
X5425D01*
Y133763D01*
X5463D01*
Y133781D01*
X5500D01*
Y133800D01*
X5519D01*
Y133819D01*
X5556D01*
Y133837D01*
X5575D01*
Y133856D01*
X5613D01*
Y133875D01*
X5631D01*
Y133894D01*
X5669D01*
Y133913D01*
X5706D01*
Y133931D01*
X5725D01*
Y133950D01*
X5762D01*
Y133969D01*
X5781D01*
Y133987D01*
X5819D01*
Y134006D01*
X5856D01*
Y134025D01*
X5875D01*
Y134044D01*
X5912D01*
Y134063D01*
X5931D01*
Y134081D01*
X5969D01*
Y134100D01*
X6006D01*
Y134119D01*
X6025D01*
Y134137D01*
X6063D01*
Y134156D01*
X6081D01*
Y134175D01*
X6119D01*
Y134194D01*
X6137D01*
Y134213D01*
X6175D01*
Y134231D01*
X6213D01*
Y134250D01*
X6231D01*
Y134269D01*
X6269D01*
Y134288D01*
X6288D01*
Y134306D01*
X6325D01*
Y134325D01*
X6363D01*
Y134344D01*
X6381D01*
Y134362D01*
X6419D01*
Y134381D01*
X6437D01*
Y134400D01*
X6475D01*
Y134419D01*
X6494D01*
Y134438D01*
X6531D01*
Y134456D01*
X6569D01*
Y134475D01*
X6588D01*
Y134494D01*
X6625D01*
Y134512D01*
X6644D01*
Y134531D01*
X6681D01*
Y134550D01*
X6719D01*
Y134569D01*
X6737D01*
Y134588D01*
X6775D01*
Y134606D01*
X6794D01*
Y134625D01*
X6831D01*
Y134644D01*
X6850D01*
Y134662D01*
X6887D01*
Y134681D01*
X6925D01*
Y134700D01*
X6944D01*
Y134719D01*
X6981D01*
Y134738D01*
X7000D01*
Y134756D01*
X7038D01*
Y134775D01*
X7075D01*
Y134794D01*
X7094D01*
Y134812D01*
X7131D01*
Y134831D01*
X7150D01*
Y134850D01*
X7187D01*
Y134869D01*
X7206D01*
Y134888D01*
X7244D01*
Y134906D01*
X7281D01*
Y134925D01*
X7300D01*
Y134944D01*
X7338D01*
Y134962D01*
X7356D01*
Y134981D01*
X7394D01*
Y135000D01*
X7431D01*
Y135019D01*
X7450D01*
Y135038D01*
X7487D01*
Y135056D01*
X7506D01*
Y135075D01*
X7544D01*
Y135094D01*
X7563D01*
Y135113D01*
X7600D01*
Y135131D01*
X7638D01*
Y135150D01*
X7656D01*
Y135169D01*
X7694D01*
Y135187D01*
X7712D01*
Y135206D01*
X7750D01*
Y135225D01*
X7788D01*
Y135244D01*
X7806D01*
Y135263D01*
X7844D01*
Y135281D01*
X7863D01*
Y135300D01*
X7900D01*
Y135319D01*
X7919D01*
Y135337D01*
X7956D01*
Y135356D01*
X7994D01*
Y135375D01*
X8012D01*
Y135394D01*
X8050D01*
Y135413D01*
X8069D01*
Y135431D01*
X8106D01*
Y135450D01*
X8144D01*
Y135469D01*
X8162D01*
Y135487D01*
X8200D01*
Y135506D01*
X8219D01*
Y135525D01*
X8256D01*
Y135544D01*
X8275D01*
Y135563D01*
X8313D01*
Y135581D01*
X8350D01*
Y135600D01*
X8369D01*
Y135619D01*
X8406D01*
Y135637D01*
X8425D01*
Y135656D01*
X8462D01*
Y135675D01*
X8500D01*
Y135694D01*
X8519D01*
Y135713D01*
X8556D01*
Y135731D01*
X8575D01*
Y135750D01*
X8613D01*
Y135769D01*
X8631D01*
Y135787D01*
X8669D01*
Y135806D01*
X8706D01*
Y135825D01*
X8725D01*
Y135844D01*
X8762D01*
Y135863D01*
X8781D01*
Y135881D01*
X8819D01*
Y135900D01*
X8856D01*
Y135919D01*
X8875D01*
Y135938D01*
X8912D01*
Y135956D01*
X8931D01*
Y135975D01*
X8969D01*
Y135994D01*
X8987D01*
Y136012D01*
X9025D01*
Y136031D01*
X9063D01*
Y136050D01*
X9081D01*
Y136069D01*
X9119D01*
Y136088D01*
X9138D01*
Y136106D01*
X9175D01*
Y136125D01*
X9212D01*
Y136144D01*
X9231D01*
Y136162D01*
X9269D01*
Y136181D01*
X9287D01*
Y136200D01*
X9325D01*
Y136219D01*
X9344D01*
Y136238D01*
X9381D01*
Y136256D01*
X9419D01*
Y136275D01*
X9437D01*
Y136294D01*
X9475D01*
Y136312D01*
X9494D01*
Y136331D01*
X9531D01*
Y136350D01*
X9569D01*
Y136369D01*
X9588D01*
Y136388D01*
X9625D01*
Y136406D01*
X9644D01*
Y136425D01*
X9681D01*
Y136444D01*
X9700D01*
Y136462D01*
X9719D01*
Y136481D01*
X9700D01*
Y136519D01*
X9681D01*
Y136538D01*
X9663D01*
Y136556D01*
X9644D01*
Y136575D01*
X9625D01*
Y136594D01*
X9606D01*
Y136612D01*
X9588D01*
Y136631D01*
X9569D01*
Y136650D01*
X9550D01*
Y136669D01*
X9531D01*
Y136688D01*
X9512D01*
Y136706D01*
X9494D01*
Y136744D01*
X9475D01*
Y136762D01*
X9456D01*
Y136781D01*
X9437D01*
Y136800D01*
X9419D01*
Y136819D01*
X9400D01*
Y136837D01*
X9381D01*
Y136856D01*
X9363D01*
Y136875D01*
X9344D01*
Y136894D01*
X9325D01*
Y136913D01*
X9306D01*
Y136931D01*
X9287D01*
Y136969D01*
X9269D01*
Y136987D01*
X9250D01*
Y137006D01*
X9231D01*
Y137025D01*
X9212D01*
Y137044D01*
X9194D01*
Y137063D01*
X9175D01*
Y137081D01*
X9156D01*
Y137100D01*
X9138D01*
Y137119D01*
X9119D01*
Y137137D01*
X9100D01*
Y137156D01*
X9081D01*
Y137194D01*
X9063D01*
Y137213D01*
X9044D01*
Y137231D01*
X9025D01*
Y137250D01*
X9006D01*
Y137269D01*
X8987D01*
Y137287D01*
X8969D01*
Y137306D01*
X8950D01*
Y137325D01*
X8931D01*
Y137344D01*
X8912D01*
Y137363D01*
X8894D01*
Y137400D01*
X8875D01*
Y137419D01*
X8856D01*
Y137437D01*
X8838D01*
Y137456D01*
X8819D01*
Y137475D01*
X8800D01*
Y137494D01*
X8781D01*
Y137513D01*
X8762D01*
Y137531D01*
X8744D01*
Y137550D01*
X8725D01*
Y137569D01*
X8706D01*
Y137587D01*
X8687D01*
Y137625D01*
X8669D01*
Y137644D01*
X8650D01*
Y137662D01*
X8631D01*
Y137681D01*
X8613D01*
Y137700D01*
X8594D01*
Y137719D01*
X8575D01*
Y137738D01*
X8556D01*
Y137756D01*
X8538D01*
Y137775D01*
X8519D01*
Y137794D01*
X8500D01*
Y137812D01*
X8481D01*
Y137850D01*
X8462D01*
Y137869D01*
X8444D01*
Y137888D01*
X8425D01*
Y137906D01*
X8406D01*
Y137925D01*
X8388D01*
Y137944D01*
X8369D01*
Y137962D01*
X8350D01*
Y137981D01*
X8331D01*
Y138000D01*
X8313D01*
Y138019D01*
X8294D01*
Y138038D01*
X8275D01*
Y138075D01*
X8256D01*
Y138094D01*
X8237D01*
Y138112D01*
X8219D01*
Y138131D01*
X8200D01*
Y138150D01*
X8181D01*
Y138169D01*
X8162D01*
Y138188D01*
D02*
G37*
G36*
X288800Y110000D02*
X287217D01*
Y108417D01*
X288800D01*
Y110000D01*
D02*
G37*
%LPD*%
D10*
X299123Y98972D02*
X299151Y99000D01*
X296500Y114500D02*
X299144D01*
X307709Y94083D02*
X308398Y93394D01*
X296463Y98972D02*
X299123D01*
X296435Y98944D02*
X296463Y98972D01*
X302856Y114928D02*
X304072D01*
X306020Y112980D02*
X308299D01*
X302284Y115500D02*
X302856Y114928D01*
X304072D02*
X306020Y112980D01*
X302284Y104500D02*
X302503Y104280D01*
X304298D01*
X305482Y103097D02*
X308340D01*
X308398Y103039D01*
X304298Y104280D02*
X305482Y103097D01*
X305055Y108945D02*
X312120D01*
X302284Y110000D02*
X302582Y109702D01*
X304298D01*
X305055Y108945D01*
X305507Y100972D02*
X308299D01*
X303535Y99000D02*
X305507Y100972D01*
X302718Y99000D02*
X303535D01*
X308299Y100972D02*
X308398Y101071D01*
X308299Y112980D02*
X308398Y112882D01*
X309972Y103138D02*
X310193Y102917D01*
X308398Y106976D02*
X308496Y107075D01*
X310193Y102917D02*
X313363D01*
X314583Y104137D01*
X308496Y107075D02*
X311629D01*
X311637Y107083D01*
X314583Y104137D02*
Y105863D01*
X311637Y107083D02*
X313363D01*
X314583Y105863D01*
X308398Y105008D02*
X308402Y105004D01*
X312120Y108945D02*
X312340Y109165D01*
X312500D01*
X312496Y105004D02*
X312500Y105000D01*
X308402Y105004D02*
X312496D01*
D12*
X326354Y143000D02*
X326661Y142692D01*
X323000Y143000D02*
X326354D01*
X321000Y145000D02*
X323000Y143000D01*
X318783Y145000D02*
X321000D01*
X290000Y46198D02*
X291092D01*
X289849Y46047D02*
X290000Y46198D01*
X291092D02*
X292466Y47571D01*
X289849Y9336D02*
X290836D01*
X289849Y21573D02*
X292073D01*
X289849Y33810D02*
X290062D01*
X292000Y35000D02*
X293647Y36647D01*
X291252Y35000D02*
X292000D01*
X290062Y33810D02*
X291252Y35000D01*
X290000Y58435D02*
X290739D01*
X291285Y58980D02*
Y69154D01*
X290739Y58435D02*
X291285Y58980D01*
X289849Y58284D02*
X290000Y58435D01*
X292131Y73319D02*
X294828Y70622D01*
X294367Y23854D02*
X294828Y24315D01*
X294354Y23854D02*
X294367D01*
X291153Y70957D02*
X292466Y69644D01*
X296403Y14903D02*
Y70718D01*
X292073Y21573D02*
X294354Y23854D01*
X292466Y47571D02*
Y69644D01*
X290836Y9336D02*
X296403Y14903D01*
X293647Y36647D02*
Y70133D01*
X291642Y72138D02*
X293647Y70133D01*
X294828Y24315D02*
Y70622D01*
X292620Y74500D02*
X296403Y70718D01*
X318545Y68300D02*
X319673Y67173D01*
X305830Y79000D02*
X316529Y68300D01*
X318545D01*
X265673Y71418D02*
X266135Y70957D01*
X265673Y71418D02*
Y137587D01*
X266135Y70957D02*
X291153D01*
X261630Y122370D02*
Y132209D01*
Y122370D02*
X264000Y120000D01*
X260287Y122042D02*
X262500Y119830D01*
X260287Y122042D02*
Y132537D01*
X259106Y121553D02*
Y133026D01*
X259374Y133294D01*
X260287Y132537D02*
X260949Y133198D01*
X259106Y121553D02*
X260043Y120616D01*
X257799Y136041D02*
X257862Y135978D01*
X256618Y135552D02*
X256681Y135489D01*
X256618Y135552D02*
Y138768D01*
X251500Y139000D02*
X255500Y135000D01*
Y120148D02*
X256500Y119148D01*
X255500Y120148D02*
Y135000D01*
X257799Y136041D02*
Y137587D01*
X257862Y121127D02*
Y135978D01*
X254512Y140874D02*
X256618Y138768D01*
X256681Y120638D02*
Y135489D01*
X257862Y121127D02*
X259500Y119489D01*
X256681Y120638D02*
X258000Y119319D01*
X261630Y132209D02*
X262524Y133103D01*
X251500Y139000D02*
Y141500D01*
X259500Y65526D02*
X260056Y64969D01*
X259500Y65526D02*
Y119489D01*
X276697Y80961D02*
Y137587D01*
Y80961D02*
X277158Y80500D01*
X306000D01*
X309000Y77500D01*
X275583Y79000D02*
X305830D01*
X275122Y79461D02*
X275583Y79000D01*
X273547Y77961D02*
X274008Y77500D01*
X305659D01*
X312181Y70978D01*
X271972Y76528D02*
X272500Y76000D01*
X305489D02*
X311000Y70489D01*
X272500Y76000D02*
X305489D01*
X275122Y79461D02*
Y137587D01*
X273547Y77961D02*
Y137587D01*
X267248Y72599D02*
X267709Y72138D01*
X267248Y72599D02*
Y137587D01*
X267709Y72138D02*
X291642D01*
X271972Y76528D02*
Y137587D01*
X257953Y155047D02*
X258000Y155000D01*
X254512Y155047D02*
X257953D01*
X251453D02*
X254512D01*
X322000Y166000D02*
X327673D01*
X251000Y155500D02*
X251453Y155047D01*
X249500Y155500D02*
X251000D01*
X243602Y148602D02*
X245323Y150323D01*
X254512D01*
X241276Y148602D02*
X243602D01*
X241173Y148500D02*
X241276Y148602D01*
X278272Y169000D02*
Y176772D01*
Y140874D02*
X281559D01*
X278272D02*
Y141772D01*
X278949Y142449D02*
X284851D01*
X278272Y141772D02*
X278949Y142449D01*
X320500Y196500D02*
Y206500D01*
X312192Y196000D02*
X322000D01*
X304192Y188000D02*
X312192Y196000D01*
X278272Y176772D02*
X289500Y188000D01*
X299026Y151301D02*
X299327Y151000D01*
X295959Y151301D02*
X299026D01*
X289500Y188000D02*
X304192D01*
X288763Y151969D02*
X295292D01*
X295959Y151301D01*
X288302Y151507D02*
X288763Y151969D01*
X288302Y150511D02*
Y151507D01*
X287670Y149879D02*
X288302Y150511D01*
X278272Y154076D02*
Y162233D01*
X281559Y150323D02*
X287226D01*
X280299D02*
X281559D01*
X278875Y148899D02*
X280299Y150323D01*
X278422Y148899D02*
X278875D01*
X278272Y148748D02*
X278422Y148899D01*
X278272Y148748D02*
X281559D01*
X306933Y145000D02*
Y145012D01*
X300945Y151000D02*
X306933Y145012D01*
X284851Y142449D02*
X286500Y140800D01*
X281559Y148748D02*
Y150323D01*
X281200Y129000D02*
X281272Y129072D01*
Y134587D01*
X281200Y124940D02*
Y129000D01*
X280760Y124500D02*
X281200Y124940D01*
X278272Y164634D02*
Y169000D01*
X277539Y161500D02*
X278272Y162233D01*
Y164634D01*
X264098Y161961D02*
X264560Y161500D01*
X278125Y153929D02*
X278272Y154076D01*
X264560Y161500D02*
X277539D01*
X264098Y164634D02*
Y175353D01*
Y177653D01*
Y161961D02*
Y164634D01*
X260500Y158363D02*
X264098Y161961D01*
X260500Y153500D02*
Y158363D01*
X257323Y150323D02*
X260500Y153500D01*
X254512Y150323D02*
X257323D01*
X278000Y141000D02*
X278126Y140874D01*
X265000Y141000D02*
X278000D01*
X264098Y140098D02*
X265000Y141000D01*
X278272Y137587D02*
Y140728D01*
Y137587D02*
X281272Y134587D01*
X263000Y130800D02*
X264098Y131898D01*
X254512Y144024D02*
X257566D01*
X260590Y141000D01*
X252353Y144024D02*
X254512D01*
X251630Y143300D02*
X252353Y144024D01*
X264098Y137587D02*
Y140098D01*
X263197Y141000D02*
X264098Y140098D01*
Y131898D02*
Y137587D01*
X260590Y141000D02*
X263197D01*
X249500Y143300D02*
X251630D01*
X244000Y145500D02*
X247248Y148748D01*
X254512D01*
X241800Y145500D02*
X244000D01*
X288597Y153898D02*
X288700Y154000D01*
X286897Y153898D02*
X288597D01*
X284898Y151898D02*
X286897Y153898D01*
X277591Y151898D02*
X281559D01*
X284898D01*
X289897Y141489D02*
Y142603D01*
X290146Y141240D02*
X290260D01*
X289897Y141489D02*
X290146Y141240D01*
X281559Y144024D02*
X288476D01*
X289897Y142603D01*
X276000Y150306D02*
X277591Y151898D01*
X254527Y148748D02*
X256213D01*
X276000Y144024D02*
Y150306D01*
X275287Y143500D02*
X275811Y144024D01*
X276000D02*
X281559D01*
X275811D02*
X276000D01*
X256213Y148748D02*
X261461Y143500D01*
X275287D01*
X245500Y144370D02*
X248303Y147173D01*
X254512D01*
X246749Y143949D02*
X248398Y145598D01*
X245500Y140000D02*
Y144370D01*
X248398Y145598D02*
X254512D01*
X246749Y124749D02*
Y143949D01*
X243745Y156004D02*
X246276Y153472D01*
X254512D01*
X241500Y152988D02*
X242221Y152267D01*
X242683Y151898D02*
X254512D01*
X241500Y152988D02*
Y153000D01*
X242221Y152267D02*
X242314D01*
X242683Y151898D01*
X243051Y165697D02*
X243745Y165004D01*
X239729Y165697D02*
X243051D01*
X239547Y165879D02*
X239729Y165697D01*
X230886Y159186D02*
X231304Y158767D01*
X243745Y156004D02*
Y165004D01*
X231304Y153131D02*
Y158767D01*
X231276Y153102D02*
X231374Y153004D01*
X237929D01*
X262500Y70472D02*
Y119830D01*
Y70472D02*
X264377Y68594D01*
X286405D02*
X286962Y68038D01*
X264377Y68594D02*
X286405D01*
X260949Y133198D02*
Y137587D01*
X286962Y64903D02*
Y68038D01*
X270859Y74500D02*
X292620D01*
X270398Y74961D02*
X270859Y74500D01*
X270398Y74961D02*
Y137587D01*
X258000Y70500D02*
Y119319D01*
X256000Y68500D02*
X258000Y70500D01*
X248000Y68500D02*
X256000D01*
X246567Y67067D02*
X248000Y68500D01*
X246567Y64980D02*
Y67067D01*
X246556Y64969D02*
X246567Y64980D01*
X269284Y73319D02*
X292131D01*
X268823Y73780D02*
Y137587D01*
Y73780D02*
X269284Y73319D01*
X264000Y70642D02*
Y120000D01*
Y70642D02*
X264867Y69776D01*
X290664D01*
X291285Y69154D01*
X262524Y133103D02*
Y137587D01*
X273068Y64903D02*
X273462D01*
X261000Y70302D02*
X264234Y67068D01*
X270903D01*
X273068Y64903D01*
X261000Y70302D02*
Y119659D01*
X259374Y133294D02*
Y137587D01*
X260043Y120616D02*
X261000Y119659D01*
X254995Y70000D02*
X256500Y71505D01*
X235500Y70000D02*
X254995D01*
X256500Y71505D02*
Y119148D01*
X233056Y67556D02*
X235500Y70000D01*
X252449Y142449D02*
X254512D01*
X251500Y141500D02*
X252449Y142449D01*
X233056Y64969D02*
Y67556D01*
X293181Y113239D02*
X296420Y110000D01*
X292000Y104961D02*
X292461Y104500D01*
X289497Y147173D02*
X293181Y143489D01*
Y113239D02*
Y143489D01*
X292461Y104500D02*
X298716D01*
X292000Y104961D02*
Y143000D01*
X289402Y145598D02*
X292000Y143000D01*
X282778Y147173D02*
X289497D01*
X284472Y153472D02*
X287000Y156000D01*
X296500D01*
X299327D01*
X281559Y145598D02*
X289402D01*
X311000Y51500D02*
Y70489D01*
X312181Y60319D02*
Y70978D01*
X309000Y77500D02*
X320000D01*
X319673Y67173D02*
X320000Y67500D01*
X296420Y110000D02*
X298716D01*
X243173Y137673D02*
X245500Y140000D01*
X239500Y137500D02*
X239673Y137673D01*
X243173D01*
X239500Y117500D02*
X246749Y124749D01*
X312181Y60319D02*
X315000Y57500D01*
X320000D01*
X311000Y51500D02*
X315000Y47500D01*
X320000D01*
X334500Y155858D02*
Y168500D01*
X332000Y171000D02*
X334500Y168500D01*
X330000Y151358D02*
X334500Y155858D01*
X321205Y151000D02*
X327673D01*
X330000D01*
Y151358D01*
X315205Y145000D02*
X321205Y151000D01*
X283995Y161346D02*
X293648Y171000D01*
X332000D01*
X281559Y161346D02*
X283995D01*
X310500Y145000D02*
X315205D01*
X287500Y194500D02*
Y201500D01*
X271972Y178972D02*
X287500Y194500D01*
X271972Y164634D02*
Y178972D01*
X262016Y173984D02*
Y186155D01*
Y173984D02*
X262524Y173476D01*
Y164634D02*
Y173476D01*
X260949Y164634D02*
Y173381D01*
X260835Y173495D02*
Y185336D01*
Y173495D02*
X260949Y173381D01*
X257500Y188670D02*
X260835Y185336D01*
X265984Y173960D02*
Y191655D01*
X265673Y173649D02*
X265984Y173960D01*
Y191655D02*
X266949Y192619D01*
X260000Y188170D02*
X262016Y186155D01*
X267248Y164634D02*
Y191248D01*
X268823Y185280D02*
X277500Y193957D01*
X268823Y164634D02*
Y185280D01*
X267248Y191248D02*
X272500Y196500D01*
X259374Y164634D02*
Y175510D01*
X259343Y175541D02*
X259374Y175510D01*
X259343Y175541D02*
Y185158D01*
X265673Y164634D02*
Y173649D01*
X252500Y192000D02*
X259343Y185158D01*
X270398Y164634D02*
Y184398D01*
X282500Y196500D01*
X266949Y192619D02*
Y196500D01*
X266900Y197154D02*
X266949Y197106D01*
Y196500D02*
Y197106D01*
X266500Y199848D02*
X266900Y197154D01*
X266731Y200731D02*
X272500Y206500D01*
X266500Y200500D02*
X266731Y200731D01*
X266500Y199848D02*
Y200500D01*
X257500Y188670D02*
Y201500D01*
X260000Y193806D02*
X262500Y196306D01*
Y196500D01*
X260000Y188170D02*
Y193806D01*
X273547Y177547D02*
X292500Y196500D01*
X275122Y177622D02*
X288665Y191165D01*
X275122Y164634D02*
Y177622D01*
X276697Y177197D02*
X289000Y189500D01*
X276697Y164634D02*
Y177197D01*
X273547Y164634D02*
Y177547D01*
X289000Y189500D02*
X295500D01*
X284090Y159772D02*
X294319Y170000D01*
X331330D01*
X294489Y168500D02*
X331159D01*
X284186Y158197D02*
X294489Y168500D01*
X284281Y156622D02*
X293659Y166000D01*
X299327D01*
X331330Y170000D02*
X333319Y168011D01*
X331159Y168500D02*
X332138Y167522D01*
X290330Y161000D02*
X299327D01*
X284377Y155047D02*
X290330Y161000D01*
X288830Y191000D02*
X294000D01*
X281559Y156622D02*
X284281D01*
X281559Y153472D02*
X284472D01*
X281559Y158197D02*
X284186D01*
X281559Y159772D02*
X284090D01*
X281559Y155047D02*
X284377D01*
X251362Y160478D02*
X252069Y159772D01*
X250181Y159989D02*
Y165076D01*
X251362Y164362D02*
X255051Y168051D01*
X250181Y159989D02*
X251974Y158197D01*
X252543Y162055D02*
X253252Y161346D01*
X249000Y159500D02*
Y166000D01*
X251362Y160478D02*
Y164362D01*
X253252Y161346D02*
X254512D01*
X249000Y166000D02*
X252000Y169000D01*
X252543Y163543D02*
X256500Y167500D01*
X249000Y159500D02*
X251878Y156622D01*
X250181Y165076D02*
X253571Y168466D01*
X252543Y162055D02*
Y163543D01*
X251878Y156622D02*
X253079D01*
X251974Y158197D02*
X254512D01*
X252069Y159772D02*
X254512D01*
X252000Y169000D02*
Y182000D01*
X232500Y189500D02*
X244500D01*
X252000Y182000D01*
X245319Y190681D02*
X253571Y182429D01*
X238489Y190681D02*
X245319D01*
X253571Y168466D02*
Y182429D01*
X246138Y191862D02*
X255051Y182949D01*
X239185Y191862D02*
X246138D01*
X255051Y168051D02*
Y182949D01*
X256500Y167500D02*
Y183500D01*
X242500Y196500D02*
X243500D01*
X256500Y183500D01*
X295500Y189500D02*
X302500Y196500D01*
X294000Y191000D02*
X297500Y194500D01*
Y201500D01*
X277500Y193957D02*
Y201500D01*
X282500Y206500D01*
X253079Y156622D02*
X253079Y156622D01*
X254512D01*
X228000Y194000D02*
X232500Y189500D01*
X232670Y196500D02*
X238489Y190681D01*
X237000Y194047D02*
X239185Y191862D01*
X237000Y194047D02*
Y201000D01*
X232500Y196500D02*
X232670D01*
X237000Y201000D02*
X242500Y206500D01*
X228000Y194000D02*
Y202000D01*
X247500Y194500D02*
Y201500D01*
X257799Y164634D02*
Y184201D01*
X247500Y194500D02*
X257799Y184201D01*
X252500Y192000D02*
Y196500D01*
X287500Y201500D02*
X292500Y206500D01*
X333319Y159677D02*
Y168011D01*
X297500Y201500D02*
X302500Y206500D01*
X257500Y201500D02*
X262500Y206500D01*
X247500Y201500D02*
X252500Y206500D01*
X228000Y202000D02*
X232500Y206500D01*
X329642Y156000D02*
X333319Y159677D01*
X327673Y156000D02*
X329642D01*
X327673Y161000D02*
X329500D01*
X332138Y163638D02*
Y167522D01*
X329500Y161000D02*
X332138Y163638D01*
D13*
X337008Y200709D02*
X336967Y201684D01*
X336847Y202653D01*
X336647Y203608D01*
X336368Y204544D01*
X336013Y205453D01*
X335584Y206330D01*
X335085Y207169D01*
X334517Y207963D01*
X333887Y208708D01*
X333196Y209398D01*
X332451Y210029D01*
X331657Y210596D01*
X330818Y211096D01*
X329941Y211525D01*
X329032Y211880D01*
X328096Y212158D01*
X327141Y212359D01*
X326172Y212479D01*
X325197Y212520D01*
Y0D02*
X326172Y40D01*
X327141Y161D01*
X328096Y361D01*
X329032Y640D01*
X329941Y995D01*
X330818Y1424D01*
X331657Y1923D01*
X332451Y2490D01*
X333196Y3121D01*
X333887Y3812D01*
X334517Y4557D01*
X335085Y5351D01*
X335584Y6190D01*
X336013Y7067D01*
X336368Y7976D01*
X336647Y8912D01*
X336847Y9867D01*
X336967Y10836D01*
X337008Y11811D01*
X11811Y212520D02*
X10836Y212479D01*
X9867Y212359D01*
X8912Y212158D01*
X7976Y211880D01*
X7067Y211525D01*
X6190Y211096D01*
X5351Y210596D01*
X4557Y210029D01*
X3812Y209398D01*
X3121Y208708D01*
X2490Y207963D01*
X1923Y207169D01*
X1424Y206330D01*
X995Y205453D01*
X640Y204544D01*
X361Y203608D01*
X161Y202653D01*
X40Y201684D01*
X0Y200709D01*
Y11811D02*
X40Y10836D01*
X161Y9867D01*
X361Y8912D01*
X640Y7976D01*
X995Y7067D01*
X1424Y6190D01*
X1923Y5351D01*
X2490Y4557D01*
X3121Y3812D01*
X3812Y3121D01*
X4557Y2490D01*
X5351Y1923D01*
X6190Y1424D01*
X7067Y995D01*
X7976Y640D01*
X8912Y361D01*
X9867Y161D01*
X10836Y40D01*
X11811Y0D01*
X325197D01*
X11811Y212520D02*
X325197D01*
X337008Y11811D02*
Y200709D01*
X0Y11811D02*
Y200709D01*
D17*
X326661Y129306D02*
D03*
Y142692D02*
D03*
D18*
X334338Y144366D02*
D03*
D19*
Y127635D02*
D03*
D20*
X318783Y145000D02*
D03*
X298716Y115500D02*
D03*
X299151Y99000D02*
D03*
X306933Y145000D02*
D03*
X315216D02*
D03*
X310500D02*
D03*
X298716Y110000D02*
D03*
X302284D02*
D03*
Y115500D02*
D03*
X298716Y104500D02*
D03*
X302284D02*
D03*
X237933Y153000D02*
D03*
X241500D02*
D03*
X302718Y99000D02*
D03*
D21*
X268528Y9336D02*
D03*
X274433D02*
D03*
X247278Y58351D02*
D03*
X241372D02*
D03*
X274433Y58284D02*
D03*
X268528D02*
D03*
X227747Y9403D02*
D03*
X233653D02*
D03*
X268528Y46047D02*
D03*
X274433D02*
D03*
X287558Y58284D02*
D03*
X281653D02*
D03*
X247278Y21640D02*
D03*
X241372D02*
D03*
X287558Y9336D02*
D03*
X281653D02*
D03*
X233653Y58351D02*
D03*
X227747D02*
D03*
X268528Y33810D02*
D03*
X274433D02*
D03*
X241372Y9403D02*
D03*
X247278D02*
D03*
X281653Y33810D02*
D03*
X287558D02*
D03*
X274433Y21573D02*
D03*
X268528D02*
D03*
X254997Y9403D02*
D03*
X260903D02*
D03*
Y21640D02*
D03*
X254997D02*
D03*
X227747Y46114D02*
D03*
X233653D02*
D03*
Y21640D02*
D03*
X227747D02*
D03*
Y33877D02*
D03*
X233653D02*
D03*
X241372Y46114D02*
D03*
X247278D02*
D03*
X241372Y33877D02*
D03*
X247278D02*
D03*
X260903Y58351D02*
D03*
X254997D02*
D03*
X287558Y21573D02*
D03*
X281653D02*
D03*
X254997Y46114D02*
D03*
X260903D02*
D03*
X281653Y46047D02*
D03*
X287558D02*
D03*
X254997Y33877D02*
D03*
X260903D02*
D03*
D22*
X273462Y64903D02*
D03*
X268344D02*
D03*
X260056Y64969D02*
D03*
X254938D02*
D03*
X286962Y64903D02*
D03*
X281844D02*
D03*
X246556Y64969D02*
D03*
X241438D02*
D03*
X233056D02*
D03*
X227938D02*
D03*
D23*
X237200Y145500D02*
D03*
X241800D02*
D03*
X237200Y148500D02*
D03*
X241800D02*
D03*
X293300Y154000D02*
D03*
X292270Y149879D02*
D03*
X289300Y110500D02*
D03*
X283300Y169000D02*
D03*
X232417Y172102D02*
D03*
X285800Y129000D02*
D03*
X226416Y153102D02*
D03*
X287670Y149879D02*
D03*
X278700Y169000D02*
D03*
X281200Y129000D02*
D03*
X288700Y154000D02*
D03*
X284700Y110500D02*
D03*
X237017Y172102D02*
D03*
X231016Y153102D02*
D03*
D24*
X327673Y166000D02*
D03*
X299327Y151000D02*
D03*
Y161000D02*
D03*
Y156000D02*
D03*
X327673D02*
D03*
Y161000D02*
D03*
X299327Y166000D02*
D03*
X327673Y151000D02*
D03*
D25*
X299500Y143300D02*
D03*
X290000Y136200D02*
D03*
X264098Y179953D02*
D03*
X286500Y136200D02*
D03*
X263500Y126200D02*
D03*
X249500Y138700D02*
D03*
X299500D02*
D03*
X286500Y140800D02*
D03*
X264098Y175353D02*
D03*
X263500Y130800D02*
D03*
X249500Y143300D02*
D03*
X290000Y140800D02*
D03*
D26*
X308398Y118591D02*
D03*
Y93394D02*
D03*
Y96543D02*
D03*
Y115441D02*
D03*
D27*
X288240Y124500D02*
D03*
X280760D02*
D03*
X284500Y116154D02*
D03*
D28*
X230886Y165949D02*
D03*
X239547Y159256D02*
D03*
X230886D02*
D03*
X239547Y165949D02*
D03*
D30*
X254512Y155047D02*
D03*
X281559Y150323D02*
D03*
Y148748D02*
D03*
Y142449D02*
D03*
Y140874D02*
D03*
X254512Y150323D02*
D03*
Y144024D02*
D03*
X281559Y151898D02*
D03*
Y144024D02*
D03*
X254512Y148748D02*
D03*
Y140874D02*
D03*
Y142449D02*
D03*
X281559Y161346D02*
D03*
Y145598D02*
D03*
X254512Y153472D02*
D03*
X281559Y147173D02*
D03*
X254512Y145598D02*
D03*
Y147173D02*
D03*
Y151898D02*
D03*
Y156622D02*
D03*
Y158197D02*
D03*
Y159772D02*
D03*
Y161346D02*
D03*
X281559Y156622D02*
D03*
Y158197D02*
D03*
Y159772D02*
D03*
Y153472D02*
D03*
Y155047D02*
D03*
D31*
X278272Y164634D02*
D03*
X264098D02*
D03*
X278272Y137587D02*
D03*
X264098D02*
D03*
X265673D02*
D03*
X260949D02*
D03*
X270398D02*
D03*
X268823D02*
D03*
X257799D02*
D03*
X262524D02*
D03*
X267248D02*
D03*
X259374D02*
D03*
X273547D02*
D03*
X275122D02*
D03*
X276697D02*
D03*
X271972D02*
D03*
X257799Y164634D02*
D03*
X259374D02*
D03*
X260949D02*
D03*
X265673D02*
D03*
X267248D02*
D03*
X270398D02*
D03*
X271972D02*
D03*
X273547D02*
D03*
X275122D02*
D03*
X276697D02*
D03*
X262524D02*
D03*
X268823D02*
D03*
D32*
X308398Y106976D02*
D03*
Y103039D02*
D03*
Y108945D02*
D03*
Y105008D02*
D03*
Y101071D02*
D03*
Y99102D02*
D03*
Y110913D02*
D03*
Y112882D02*
D03*
D57*
X268035Y151110D02*
D03*
D58*
X287558Y46047D02*
X289849D01*
X287558Y9336D02*
X289849D01*
X274696D02*
X276679D01*
X261099D02*
X263213D01*
X247474D02*
X249631D01*
X233849D02*
X235987D01*
X288058Y21573D02*
X289849D01*
X274433D02*
X276679D01*
X260903Y21640D02*
X260969Y21573D01*
X263213D01*
X247278Y21640D02*
X247344Y21573D01*
X249631D01*
X233653Y21640D02*
X233719Y21573D01*
X235987D01*
X233653Y33877D02*
X233719Y33810D01*
X235987D01*
X247278Y33877D02*
X247344Y33810D01*
X249631D01*
X260969D02*
X263213D01*
X260903Y33877D02*
X260969Y33810D01*
X274433D02*
X276679D01*
X288058D02*
X289849D01*
X274433Y46047D02*
X276679D01*
X260969D02*
X263213D01*
X260903Y46114D02*
X260969Y46047D01*
X247344D02*
X249631D01*
X247278Y46114D02*
X247344Y46047D01*
X233653Y46114D02*
X233719Y46047D01*
X235987D01*
X233653Y58351D02*
X233719Y58284D01*
X235987D01*
X247278Y58351D02*
X247344Y58284D01*
X249631D01*
X260969D02*
X263213D01*
X260903Y58351D02*
X260969Y58284D01*
X274433D02*
X276679D01*
X287558D02*
X289849D01*
X227747Y46114D02*
Y58351D01*
X281653Y9336D02*
Y65344D01*
X227747Y58351D02*
Y65410D01*
X268528Y9336D02*
Y65344D01*
X241372Y9403D02*
Y21640D01*
X227747Y33877D02*
Y46114D01*
Y21640D02*
Y33877D01*
X241372Y21640D02*
Y33877D01*
Y46114D02*
Y58351D01*
Y65410D01*
Y33877D02*
Y46114D01*
X227747Y9403D02*
Y21640D01*
X254997Y9403D02*
Y65410D01*
X263500Y125700D02*
X263689Y125511D01*
Y124106D02*
Y125511D01*
X292376Y149984D02*
X294470D01*
X292270Y149879D02*
X292376Y149984D01*
X290000Y133500D02*
Y136200D01*
X289077Y125337D02*
Y129000D01*
X286500Y136200D02*
Y136350D01*
X288240Y124500D02*
X289077Y125337D01*
X289000Y113500D02*
Y123740D01*
X288240Y124500D02*
X289000Y123740D01*
X289005Y110795D02*
X289300Y110500D01*
X289005Y110795D02*
Y113495D01*
X289000Y113500D02*
X289005Y113495D01*
X264000Y181059D02*
Y184500D01*
X283300Y169000D02*
X286000D01*
X286500Y133650D02*
Y136200D01*
X285800Y129000D02*
X289077D01*
X249500Y136000D02*
Y138700D01*
X237607Y167524D02*
X239182Y165949D01*
X237276Y172032D02*
X237607Y171701D01*
Y167524D02*
Y171701D01*
X239182Y165949D02*
X239547D01*
D59*
X284700Y110500D02*
Y115954D01*
X284500Y116154D02*
X284700Y115954D01*
Y106800D02*
Y110500D01*
X294957Y96543D02*
X308398D01*
X284700Y106800D02*
X294957Y96543D01*
X310675Y97134D02*
X316096Y102554D01*
X310807Y114850D02*
X316096Y109562D01*
Y102554D02*
Y109562D01*
X308988Y97134D02*
X310675D01*
X308988Y114850D02*
X310807D01*
X308398Y115441D02*
X308988Y114850D01*
X308398Y96543D02*
X308988Y97134D01*
D60*
X327000Y123000D02*
D03*
Y88984D02*
D03*
D61*
X310661Y123000D02*
D03*
Y88984D02*
D03*
D62*
X210000Y206500D02*
D03*
X320500D02*
D03*
D63*
X210000Y196500D02*
D03*
X320500D02*
D03*
D64*
X239500Y127500D02*
D03*
X320000Y77500D02*
D03*
Y67500D02*
D03*
Y57500D02*
D03*
X239500Y117500D02*
D03*
X302500Y196500D02*
D03*
X292500Y206500D02*
D03*
Y196500D02*
D03*
X282500Y206500D02*
D03*
Y196500D02*
D03*
X272500Y206500D02*
D03*
Y196500D02*
D03*
X262500Y206500D02*
D03*
Y196500D02*
D03*
X252500Y206500D02*
D03*
Y196500D02*
D03*
X242500Y206500D02*
D03*
Y196500D02*
D03*
X232500Y206500D02*
D03*
Y196500D02*
D03*
D65*
X320000Y47500D02*
D03*
X239500Y137500D02*
D03*
D66*
X312630Y94614D02*
D03*
Y117370D02*
D03*
D67*
X302500Y206500D02*
D03*
D68*
X289849Y46047D02*
D03*
Y9336D02*
D03*
X276679D02*
D03*
X263213D02*
D03*
X249631D02*
D03*
X235987D02*
D03*
X289849Y21573D02*
D03*
X276679D02*
D03*
X263213D02*
D03*
X249631D02*
D03*
X235987D02*
D03*
Y33810D02*
D03*
X249631D02*
D03*
X263213D02*
D03*
X276679D02*
D03*
X289849D02*
D03*
X276679Y46047D02*
D03*
X263213D02*
D03*
X249631D02*
D03*
X235987D02*
D03*
Y58284D02*
D03*
X249631D02*
D03*
X263213D02*
D03*
X276679D02*
D03*
X289849D02*
D03*
X263689Y124106D02*
D03*
X235000Y147000D02*
D03*
X258000Y155000D02*
D03*
X334000Y173000D02*
D03*
X333500Y203000D02*
D03*
X311500Y201500D02*
D03*
X297500Y209000D02*
D03*
X322000Y166000D02*
D03*
X294470Y149984D02*
D03*
X291000Y185500D02*
D03*
X287500Y209000D02*
D03*
X290000Y133500D02*
D03*
X279000Y82500D02*
D03*
X296500Y114500D02*
D03*
X289000Y113500D02*
D03*
X296435Y98944D02*
D03*
X277500Y209000D02*
D03*
X267500D02*
D03*
X264000Y184500D02*
D03*
X257500Y209000D02*
D03*
X286000Y169000D02*
D03*
X281000Y164500D02*
D03*
X275000Y159500D02*
D03*
X247500Y209000D02*
D03*
X237500D02*
D03*
X249500Y180000D02*
D03*
X23000Y209000D02*
D03*
X236500Y162000D02*
D03*
X286500Y133500D02*
D03*
X275550Y153956D02*
D03*
X268035Y151110D02*
D03*
X284500Y120500D02*
D03*
X249500Y136000D02*
D03*
X254000Y72000D02*
D03*
X18500Y4500D02*
D03*
X278272Y153929D02*
D03*
Y148748D02*
D03*
Y140874D02*
D03*
X312500Y109165D02*
D03*
Y105000D02*
D03*
M02*
