G04*
G04 #@! TF.GenerationSoftware,Altium Limited,Altium Designer,25.8.1 (18)*
G04*
G04 Layer_Color=8388736*
%FSLAX25Y25*%
%MOIN*%
G70*
G04*
G04 #@! TF.SameCoordinates,24556F7F-BEDA-4819-8607-D1A4BCCC43C2*
G04*
G04*
G04 #@! TF.FilePolarity,Negative*
G04*
G01*
G75*
%ADD20R,0.02230X0.02254*%
%ADD21R,0.03150X0.03150*%
%ADD33C,0.02362*%
%ADD34R,0.05524X0.03359*%
%ADD35C,0.01627*%
%ADD36C,0.01627*%
%ADD37R,0.04343X0.03556*%
%ADD38R,0.02965X0.02965*%
%ADD39O,0.07099X0.03162*%
%ADD40R,0.02965X0.02965*%
%ADD41R,0.05328X0.03162*%
%ADD42R,0.04800X0.05524*%
%ADD43R,0.06312X0.05524*%
%ADD44R,0.13005X0.13005*%
G04:AMPARAMS|DCode=45|XSize=15.87mil|YSize=41.07mil|CornerRadius=4.98mil|HoleSize=0mil|Usage=FLASHONLY|Rotation=270.000|XOffset=0mil|YOffset=0mil|HoleType=Round|Shape=RoundedRectangle|*
%AMROUNDEDRECTD45*
21,1,0.01587,0.03110,0,0,270.0*
21,1,0.00591,0.04107,0,0,270.0*
1,1,0.00997,-0.01555,-0.00295*
1,1,0.00997,-0.01555,0.00295*
1,1,0.00997,0.01555,0.00295*
1,1,0.00997,0.01555,-0.00295*
%
%ADD45ROUNDEDRECTD45*%
G04:AMPARAMS|DCode=46|XSize=41.07mil|YSize=15.87mil|CornerRadius=4.98mil|HoleSize=0mil|Usage=FLASHONLY|Rotation=270.000|XOffset=0mil|YOffset=0mil|HoleType=Round|Shape=RoundedRectangle|*
%AMROUNDEDRECTD46*
21,1,0.04107,0.00591,0,0,270.0*
21,1,0.03110,0.01587,0,0,270.0*
1,1,0.00997,-0.00295,-0.01555*
1,1,0.00997,-0.00295,0.01555*
1,1,0.00997,0.00295,0.01555*
1,1,0.00997,0.00295,-0.01555*
%
%ADD46ROUNDEDRECTD46*%
%ADD47R,0.05328X0.01981*%
%ADD48O,0.08083X0.04934*%
%ADD49O,0.09265X0.04934*%
%ADD50O,0.08674X0.06706*%
%ADD51R,0.08674X0.06706*%
%ADD52C,0.06706*%
%ADD53R,0.06706X0.06706*%
%ADD54C,0.03556*%
%ADD55R,0.06706X0.06706*%
%ADD56C,0.02375*%
G36*
X327518Y186420D02*
X328009D01*
Y186175D01*
X328500D01*
Y185929D01*
X328746D01*
Y185684D01*
X328991D01*
Y185438D01*
X329237D01*
Y185192D01*
X329728D01*
Y184947D01*
X330465D01*
Y184701D01*
X331201D01*
Y185192D01*
X331447D01*
Y184947D01*
X331692D01*
Y180772D01*
X331201D01*
Y181754D01*
X330956D01*
Y182000D01*
X330710D01*
Y182246D01*
X328991D01*
Y182000D01*
X328500D01*
Y181509D01*
X328254D01*
Y181018D01*
X328009D01*
Y180281D01*
X327763D01*
Y179053D01*
X328009D01*
Y178562D01*
X328254D01*
Y178316D01*
X328500D01*
Y178071D01*
X328746D01*
Y177825D01*
X328991D01*
Y177580D01*
X329482D01*
Y177334D01*
X329728D01*
Y177089D01*
X329973D01*
Y176843D01*
X329482D01*
Y177089D01*
X328991D01*
Y177334D01*
X328500D01*
Y177580D01*
X328009D01*
Y177825D01*
X327518D01*
Y178071D01*
X326044D01*
Y178316D01*
X325799D01*
Y178562D01*
X325553D01*
Y179544D01*
X325308D01*
Y180772D01*
X325062D01*
Y181263D01*
X324816D01*
Y181509D01*
X324571D01*
Y182000D01*
X324325D01*
Y182737D01*
X324080D01*
Y184701D01*
X324325D01*
Y185438D01*
X324571D01*
Y185684D01*
X324816D01*
Y185929D01*
X325062D01*
Y186175D01*
X325308D01*
Y186420D01*
X326044D01*
Y186666D01*
X327518D01*
Y186420D01*
D02*
G37*
G36*
X22000Y144500D02*
X1000D01*
Y211500D01*
X22000D01*
Y144500D01*
D02*
G37*
G36*
X336936Y146627D02*
X336973Y146615D01*
X337008Y146597D01*
X337038Y146572D01*
X337062Y146543D01*
X337080Y146508D01*
X337092Y146471D01*
X337095Y146433D01*
Y142299D01*
X337092Y142260D01*
X337080Y142223D01*
X337062Y142189D01*
X337038Y142159D01*
X337008Y142134D01*
X336973Y142116D01*
X336936Y142105D01*
X336898Y142101D01*
X334339D01*
X334300Y142105D01*
X334263Y142116D01*
X334229Y142134D01*
X334199Y142159D01*
X334174Y142189D01*
X334156Y142223D01*
X334145Y142260D01*
X334141Y142299D01*
Y143676D01*
X331780D01*
X331741Y143680D01*
X331704Y143691D01*
X331670Y143709D01*
X331640Y143734D01*
X331615Y143764D01*
X331597Y143798D01*
X331586Y143835D01*
X331582Y143874D01*
Y146433D01*
X331586Y146471D01*
X331597Y146508D01*
X331615Y146543D01*
X331640Y146572D01*
X331670Y146597D01*
X331704Y146615D01*
X331741Y146627D01*
X331780Y146630D01*
X336898D01*
X336936Y146627D01*
D02*
G37*
G36*
X336936Y129896D02*
X336973Y129885D01*
X337007Y129866D01*
X337037Y129842D01*
X337062Y129812D01*
X337080Y129778D01*
X337092Y129741D01*
X337095Y129702D01*
Y125568D01*
X337092Y125530D01*
X337080Y125493D01*
X337062Y125459D01*
X337037Y125428D01*
X337007Y125404D01*
X336973Y125386D01*
X336936Y125374D01*
X336898Y125371D01*
X331780D01*
X331741Y125374D01*
X331704Y125386D01*
X331670Y125404D01*
X331640Y125428D01*
X331615Y125459D01*
X331597Y125493D01*
X331586Y125530D01*
X331582Y125568D01*
Y128127D01*
X331586Y128165D01*
X331597Y128202D01*
X331615Y128236D01*
X331640Y128267D01*
X331670Y128291D01*
X331704Y128309D01*
X331741Y128321D01*
X331780Y128324D01*
X334141D01*
Y129702D01*
X334145Y129741D01*
X334156Y129778D01*
X334174Y129812D01*
X334199Y129842D01*
X334229Y129866D01*
X334263Y129885D01*
X334300Y129896D01*
X334339Y129900D01*
X336898D01*
X336936Y129896D01*
D02*
G37*
%LPC*%
G36*
X330956Y184210D02*
X329728D01*
Y183965D01*
X329482D01*
Y183228D01*
X329973D01*
Y182982D01*
X330465D01*
Y182737D01*
X331201D01*
Y183965D01*
X330956D01*
Y184210D01*
D02*
G37*
G36*
X16604Y193189D02*
D01*
Y191615D01*
X8443D01*
Y193189D01*
X16604D01*
X6396D01*
Y187390D01*
X8443D01*
Y188965D01*
X16604D01*
Y187390D01*
D01*
D01*
Y193189D01*
D02*
G37*
G36*
Y186774D02*
X6396D01*
Y184556D01*
X11001D01*
X6396Y183074D01*
Y180843D01*
X16604D01*
Y186774D01*
D02*
G37*
G36*
Y180082D02*
X14557D01*
Y178128D01*
X12313D01*
Y179794D01*
X10372D01*
Y178128D01*
X8443D01*
Y179912D01*
X6396D01*
Y175477D01*
X16604D01*
Y180082D01*
D02*
G37*
G36*
Y174493D02*
D01*
Y172027D01*
X16591Y172315D01*
X16577Y172565D01*
X16551Y172761D01*
X16538Y172919D01*
X16525Y173024D01*
X16512Y173090D01*
Y173116D01*
X16459Y173286D01*
X16407Y173444D01*
X16354Y173575D01*
X16289Y173693D01*
X16236Y173785D01*
X16184Y173851D01*
X16158Y173890D01*
X16145Y173903D01*
X16039Y174021D01*
X15921Y174113D01*
X15803Y174192D01*
X15685Y174257D01*
X15580Y174310D01*
X15502Y174336D01*
X15449Y174362D01*
X15423D01*
X15318Y174388D01*
X15213Y174401D01*
X15082Y174428D01*
X14937Y174441D01*
X14636Y174467D01*
X14321Y174480D01*
X14032Y174493D01*
X16604D01*
X6396D01*
X9506D01*
X9283Y174480D01*
X9086D01*
X8902Y174467D01*
X8745D01*
X8614Y174454D01*
X8482D01*
X8377Y174441D01*
X8299Y174428D01*
X8220D01*
X8154Y174415D01*
X8115D01*
X8089Y174401D01*
X8063D01*
X7879Y174362D01*
X7708Y174296D01*
X7551Y174218D01*
X7420Y174139D01*
X7315Y174074D01*
X7223Y174008D01*
X7170Y173969D01*
X7157Y173955D01*
X7013Y173811D01*
X6895Y173641D01*
X6790Y173470D01*
X6711Y173299D01*
X6659Y173155D01*
X6606Y173037D01*
X6593Y172945D01*
X6580Y172932D01*
Y172919D01*
X6554Y172775D01*
X6514Y172617D01*
X6488Y172433D01*
X6475Y172237D01*
X6436Y171804D01*
X6423Y171371D01*
X6409Y171161D01*
Y170964D01*
X6396Y170793D01*
Y168340D01*
X16604D01*
Y174493D01*
D02*
G37*
G36*
X16814Y167317D02*
D01*
Y164365D01*
X16801Y164666D01*
X16774Y164942D01*
X16735Y165178D01*
X16682Y165388D01*
X16643Y165559D01*
X16604Y165690D01*
X16577Y165769D01*
X16564Y165782D01*
Y165795D01*
X16459Y166018D01*
X16341Y166215D01*
X16223Y166372D01*
X16092Y166516D01*
X15987Y166634D01*
X15895Y166713D01*
X15843Y166766D01*
X15816Y166779D01*
X15633Y166910D01*
X15462Y167015D01*
X15292Y167094D01*
X15147Y167146D01*
X15029Y167199D01*
X14937Y167225D01*
X14885Y167238D01*
X14859D01*
X14767Y167251D01*
X14649Y167264D01*
X14400Y167290D01*
X14137Y167304D01*
X13862D01*
X13612Y167317D01*
X6396D01*
Y164666D01*
X13914D01*
X14176D01*
X14386Y164653D01*
X14557Y164640D01*
X14688Y164627D01*
X14780Y164614D01*
X14846Y164601D01*
X14872Y164588D01*
X14885D01*
X14951Y164548D01*
X15003Y164509D01*
X15029Y164443D01*
X15055Y164391D01*
X15069Y164338D01*
X15082Y164299D01*
Y164260D01*
X15069Y164181D01*
X15055Y164115D01*
X14990Y164024D01*
X14924Y163971D01*
X14911Y163958D01*
X14898D01*
X14806Y163932D01*
X14688Y163919D01*
X14544Y163906D01*
X14400D01*
X14268Y163892D01*
X14150D01*
X14072D01*
X14058D01*
X14045D01*
X6396D01*
Y161242D01*
X16814D01*
Y167317D01*
D02*
G37*
G36*
X16604Y160678D02*
D01*
Y159104D01*
X8443D01*
Y160678D01*
X6396D01*
Y154879D01*
X16604D01*
Y160678D01*
D02*
G37*
G36*
X16814Y154499D02*
D01*
Y151547D01*
X16801Y151901D01*
X16761Y152229D01*
X16709Y152517D01*
X16643Y152767D01*
X16577Y152963D01*
X16551Y153055D01*
X16525Y153121D01*
X16499Y153173D01*
X16486Y153213D01*
X16473Y153239D01*
Y153252D01*
X16328Y153501D01*
X16184Y153711D01*
X16039Y153882D01*
X15908Y154026D01*
X15790Y154118D01*
X15685Y154184D01*
X15633Y154223D01*
X15607Y154236D01*
X15502Y154288D01*
X15397Y154328D01*
X15134Y154393D01*
X14872Y154433D01*
X14609Y154472D01*
X14373Y154485D01*
X14268D01*
X14190Y154499D01*
X16814D01*
X14190D01*
D01*
X13730D01*
X13481Y154472D01*
X13245Y154459D01*
X13035Y154420D01*
X12838Y154393D01*
X12655Y154354D01*
X12497Y154302D01*
X12353Y154262D01*
X12222Y154223D01*
X12117Y154171D01*
X12025Y154131D01*
X11959Y154105D01*
X11894Y154066D01*
X11854Y154052D01*
X11841Y154026D01*
X11828D01*
X11697Y153921D01*
X11566Y153803D01*
X11421Y153646D01*
X11277Y153488D01*
X10988Y153121D01*
X10713Y152740D01*
X10582Y152557D01*
X10464Y152386D01*
X10359Y152229D01*
X10267Y152097D01*
X10201Y151979D01*
X10149Y151888D01*
X10109Y151835D01*
X10096Y151809D01*
X9965Y151599D01*
X9847Y151428D01*
X9729Y151297D01*
X9637Y151192D01*
X9571Y151127D01*
X9519Y151074D01*
X9480Y151061D01*
X9466Y151048D01*
X9361Y151008D01*
X9243Y150969D01*
X8994Y150930D01*
X8876D01*
X8784Y150917D01*
X8732D01*
X8705D01*
X8561D01*
X8443Y150930D01*
X8351Y150956D01*
X8259Y150982D01*
X8194Y150995D01*
X8154Y151022D01*
X8128Y151035D01*
X8115D01*
X8049Y151087D01*
X7997Y151140D01*
X7971Y151205D01*
X7944Y151258D01*
X7931Y151310D01*
X7918Y151350D01*
Y151468D01*
X7944Y151533D01*
X7984Y151625D01*
X8036Y151691D01*
X8049Y151704D01*
X8063D01*
X8128Y151743D01*
X8233Y151769D01*
X8338Y151783D01*
X8456Y151796D01*
X8561Y151809D01*
X8653D01*
X8705D01*
X8732D01*
X9480D01*
Y154275D01*
X9086D01*
X8863D01*
X8666Y154262D01*
X8469Y154249D01*
X8299Y154236D01*
X8141Y154223D01*
X8010Y154197D01*
X7879Y154184D01*
X7774Y154157D01*
X7669Y154131D01*
X7590Y154118D01*
X7525Y154092D01*
X7459Y154079D01*
X7393Y154052D01*
X7367Y154039D01*
X7183Y153934D01*
X7026Y153790D01*
X6882Y153632D01*
X6751Y153462D01*
X6659Y153318D01*
X6580Y153186D01*
X6567Y153134D01*
X6541Y153095D01*
X6527Y153082D01*
Y153068D01*
X6409Y152780D01*
X6331Y152491D01*
X6265Y152189D01*
X6226Y151914D01*
X6199Y151678D01*
Y151573D01*
X6186Y151481D01*
Y151310D01*
X6199Y150969D01*
X6239Y150654D01*
X6291Y150379D01*
X6344Y150156D01*
X6396Y149959D01*
X6423Y149880D01*
X6449Y149815D01*
X6475Y149762D01*
X6488Y149723D01*
X6501Y149710D01*
Y149697D01*
X6619Y149460D01*
X6764Y149264D01*
X6908Y149093D01*
X7039Y148962D01*
X7157Y148857D01*
X7262Y148778D01*
X7328Y148739D01*
X7354Y148726D01*
X7459Y148673D01*
X7577Y148634D01*
X7853Y148555D01*
X8128Y148503D01*
X8404Y148476D01*
X8666Y148450D01*
X8771D01*
X8863Y148437D01*
X6186D01*
D01*
X16814D01*
Y154499D01*
D02*
G37*
%LPD*%
G36*
X16604Y183061D02*
X11972D01*
X16604Y184438D01*
Y183061D01*
D02*
G37*
G36*
X13875Y171830D02*
X14006Y171817D01*
X14124Y171804D01*
X14229D01*
X14321Y171791D01*
X14386Y171777D01*
X14504Y171751D01*
X14583Y171725D01*
X14623Y171712D01*
X14636Y171699D01*
X14714Y171633D01*
X14767Y171528D01*
X14806Y171423D01*
X14832Y171292D01*
X14846Y171174D01*
X14859Y171082D01*
Y170990D01*
X8141D01*
Y171135D01*
X8154Y171266D01*
X8168Y171371D01*
X8181Y171449D01*
X8207Y171502D01*
X8220Y171554D01*
X8233Y171568D01*
Y171581D01*
X8312Y171686D01*
X8417Y171751D01*
X8495Y171777D01*
X8509Y171791D01*
X8522D01*
X8614Y171804D01*
X8745Y171817D01*
X8889Y171830D01*
X9047Y171843D01*
X9178D01*
X9296D01*
X9388D01*
X9401D01*
X9414D01*
X13389D01*
X13573D01*
X13730D01*
X13875Y171830D01*
D02*
G37*
G36*
X16814Y161242D02*
X13284D01*
X13521Y161255D01*
X13730D01*
X13914D01*
X14072Y161268D01*
X14216D01*
X14334D01*
X14439Y161282D01*
X14518D01*
X14596D01*
X14636Y161295D01*
X14675D01*
X14688D01*
X14701D01*
X14898Y161334D01*
X15082Y161386D01*
X15265Y161452D01*
X15410Y161518D01*
X15541Y161596D01*
X15646Y161649D01*
X15698Y161688D01*
X15725Y161701D01*
X15895Y161846D01*
X16053Y162016D01*
X16184Y162187D01*
X16302Y162357D01*
X16394Y162515D01*
X16459Y162633D01*
X16486Y162685D01*
X16499Y162725D01*
X16512Y162738D01*
Y162751D01*
X16617Y163026D01*
X16682Y163302D01*
X16735Y163577D01*
X16774Y163827D01*
X16801Y164037D01*
Y164128D01*
X16814Y164207D01*
Y161242D01*
D02*
G37*
G36*
X16604Y154879D02*
X8443D01*
Y156453D01*
X16604D01*
Y154879D01*
D02*
G37*
G36*
X14531Y151953D02*
X14636Y151940D01*
X14728Y151914D01*
X14793Y151888D01*
X14846Y151874D01*
X14872Y151848D01*
X14885D01*
X14951Y151796D01*
X15003Y151730D01*
X15029Y151664D01*
X15055Y151599D01*
X15069Y151547D01*
X15082Y151494D01*
Y151455D01*
X15069Y151363D01*
X15055Y151284D01*
X15029Y151218D01*
X15003Y151166D01*
X14951Y151100D01*
X14924Y151074D01*
X14846Y151048D01*
X14741Y151022D01*
X14623Y151008D01*
X14491Y150995D01*
X14386Y150982D01*
X14281D01*
X14216D01*
X14190D01*
X12943D01*
Y148516D01*
X13612D01*
X14019Y148529D01*
X14373Y148555D01*
X14544Y148568D01*
X14688Y148581D01*
X14819Y148608D01*
X14937Y148634D01*
X15042Y148647D01*
X15134Y148673D01*
X15213Y148686D01*
X15279Y148699D01*
X15331Y148713D01*
X15370Y148726D01*
X15383Y148739D01*
X15397D01*
X15620Y148844D01*
X15816Y148988D01*
X15987Y149159D01*
X16145Y149316D01*
X16263Y149474D01*
X16341Y149605D01*
X16381Y149657D01*
X16407Y149697D01*
X16420Y149710D01*
Y149723D01*
X16551Y150024D01*
X16643Y150326D01*
X16722Y150641D01*
X16761Y150917D01*
X16787Y151166D01*
X16801Y151271D01*
Y151363D01*
X16814Y151442D01*
Y148437D01*
X9060D01*
X9348Y148450D01*
X9611Y148476D01*
X9834Y148503D01*
X10031Y148542D01*
X10188Y148581D01*
X10306Y148621D01*
X10372Y148634D01*
X10398Y148647D01*
X10582Y148726D01*
X10739Y148818D01*
X10883Y148909D01*
X11001Y148988D01*
X11093Y149067D01*
X11159Y149119D01*
X11198Y149159D01*
X11211Y149172D01*
X11264Y149237D01*
X11329Y149329D01*
X11487Y149513D01*
X11644Y149736D01*
X11802Y149946D01*
X11946Y150156D01*
X11999Y150248D01*
X12064Y150326D01*
X12104Y150392D01*
X12143Y150444D01*
X12156Y150471D01*
X12169Y150484D01*
X12287Y150654D01*
X12392Y150825D01*
X12497Y150969D01*
X12589Y151100D01*
X12668Y151205D01*
X12746Y151310D01*
X12865Y151481D01*
X12969Y151599D01*
X13035Y151678D01*
X13074Y151717D01*
X13088Y151730D01*
X13153Y151769D01*
X13219Y151809D01*
X13389Y151874D01*
X13586Y151914D01*
X13783Y151953D01*
X13967Y151966D01*
X14124Y151979D01*
X14190D01*
X14229D01*
X14255D01*
X14268D01*
X14413D01*
X14531Y151953D01*
D02*
G37*
D20*
X318783Y145000D02*
D03*
X298716Y115500D02*
D03*
X299151Y99000D02*
D03*
X306933Y145000D02*
D03*
X315216D02*
D03*
X310500D02*
D03*
X298716Y110000D02*
D03*
X302284D02*
D03*
Y115500D02*
D03*
X298716Y104500D02*
D03*
X302284D02*
D03*
X237933Y153000D02*
D03*
X241500D02*
D03*
X302718Y99000D02*
D03*
D21*
X268528Y9336D02*
D03*
X274433D02*
D03*
X247278Y58351D02*
D03*
X241372D02*
D03*
X274433Y58284D02*
D03*
X268528D02*
D03*
X227747Y9403D02*
D03*
X233653D02*
D03*
X268528Y46047D02*
D03*
X274433D02*
D03*
X287558Y58284D02*
D03*
X281653D02*
D03*
X247278Y21640D02*
D03*
X241372D02*
D03*
X287558Y9336D02*
D03*
X281653D02*
D03*
X233653Y58351D02*
D03*
X227747D02*
D03*
X268528Y33810D02*
D03*
X274433D02*
D03*
X241372Y9403D02*
D03*
X247278D02*
D03*
X281653Y33810D02*
D03*
X287558D02*
D03*
X274433Y21573D02*
D03*
X268528D02*
D03*
X254997Y9403D02*
D03*
X260903D02*
D03*
Y21640D02*
D03*
X254997D02*
D03*
X227747Y46114D02*
D03*
X233653D02*
D03*
Y21640D02*
D03*
X227747D02*
D03*
Y33877D02*
D03*
X233653D02*
D03*
X241372Y46114D02*
D03*
X247278D02*
D03*
X241372Y33877D02*
D03*
X247278D02*
D03*
X260903Y58351D02*
D03*
X254997D02*
D03*
X287558Y21573D02*
D03*
X281653D02*
D03*
X254997Y46114D02*
D03*
X260903D02*
D03*
X281653Y46047D02*
D03*
X287558D02*
D03*
X254997Y33877D02*
D03*
X260903D02*
D03*
D33*
X30452Y78060D02*
Y70188D01*
X42259D01*
Y78060D01*
X36355Y70188D02*
Y74124D01*
X32419Y89867D02*
X30452Y87899D01*
Y83963D01*
X32419Y81995D01*
X40291D01*
X42259Y83963D01*
Y87899D01*
X40291Y89867D01*
X32419Y101674D02*
X30452Y99706D01*
Y95770D01*
X32419Y93802D01*
X34387D01*
X36355Y95770D01*
Y99706D01*
X38323Y101674D01*
X40291D01*
X42259Y99706D01*
Y95770D01*
X40291Y93802D01*
X30452Y113481D02*
Y105610D01*
X42259D01*
Y113481D01*
X36355Y105610D02*
Y109545D01*
X30452Y129224D02*
X42259D01*
Y137096D01*
Y146935D02*
Y142999D01*
X40291Y141031D01*
X36355D01*
X34387Y142999D01*
Y146935D01*
X36355Y148903D01*
X38323D01*
Y141031D01*
X34387Y154806D02*
Y158742D01*
X36355Y160710D01*
X42259D01*
Y154806D01*
X40291Y152839D01*
X38323Y154806D01*
Y160710D01*
X34387Y164646D02*
X42259Y168581D01*
X34387Y172517D01*
X42259Y182357D02*
Y178421D01*
X40291Y176453D01*
X36355D01*
X34387Y178421D01*
Y182357D01*
X36355Y184324D01*
X38323D01*
Y176453D01*
X34387Y188260D02*
X42259D01*
X38323D01*
X36355Y190228D01*
X34387Y192196D01*
Y194164D01*
X42259Y200067D02*
Y205971D01*
X40291Y207939D01*
X38323Y205971D01*
Y202035D01*
X36355Y200067D01*
X34387Y202035D01*
Y207939D01*
X50289Y83963D02*
X62097D01*
Y89867D01*
X60129Y91835D01*
X52257D01*
X50289Y89867D01*
Y83963D01*
X62097Y95770D02*
Y99706D01*
Y97738D01*
X54225D01*
Y95770D01*
X62097Y105610D02*
X54225D01*
Y111513D01*
X56193Y113481D01*
X62097D01*
Y117417D02*
X54225D01*
Y123320D01*
X56193Y125288D01*
X62097D01*
Y135128D02*
Y131192D01*
X60129Y129224D01*
X56193D01*
X54225Y131192D01*
Y135128D01*
X56193Y137096D01*
X58161D01*
Y129224D01*
X54225Y141031D02*
X62097D01*
X58161D01*
X56193Y142999D01*
X54225Y144967D01*
Y146935D01*
X62097Y172517D02*
Y164646D01*
X54225Y172517D01*
X52257D01*
X50289Y170549D01*
Y166614D01*
X52257Y164646D01*
Y176453D02*
X50289Y178421D01*
Y182357D01*
X52257Y184324D01*
X60129D01*
X62097Y182357D01*
Y178421D01*
X60129Y176453D01*
X52257D01*
X62097Y196132D02*
Y188260D01*
X54225Y196132D01*
X52257D01*
X50289Y194164D01*
Y190228D01*
X52257Y188260D01*
X50289Y207939D02*
Y200067D01*
X56193D01*
X54225Y204003D01*
Y205971D01*
X56193Y207939D01*
X60129D01*
X62097Y205971D01*
Y202035D01*
X60129Y200067D01*
D34*
X326661Y129306D02*
D03*
Y142692D02*
D03*
D35*
X334338Y144366D02*
D03*
D36*
Y127635D02*
D03*
D37*
X273462Y64903D02*
D03*
X268344D02*
D03*
X260056Y64969D02*
D03*
X254938D02*
D03*
X286962Y64903D02*
D03*
X281844D02*
D03*
X246556Y64969D02*
D03*
X241438D02*
D03*
X233056D02*
D03*
X227938D02*
D03*
D38*
X237200Y145500D02*
D03*
X241800D02*
D03*
X237200Y148500D02*
D03*
X241800D02*
D03*
X293300Y154000D02*
D03*
X292270Y149879D02*
D03*
X289300Y110500D02*
D03*
X283300Y169000D02*
D03*
X232417Y172102D02*
D03*
X285800Y129000D02*
D03*
X226416Y153102D02*
D03*
X287670Y149879D02*
D03*
X278700Y169000D02*
D03*
X281200Y129000D02*
D03*
X288700Y154000D02*
D03*
X284700Y110500D02*
D03*
X237017Y172102D02*
D03*
X231016Y153102D02*
D03*
D39*
X327673Y166000D02*
D03*
X299327Y151000D02*
D03*
Y161000D02*
D03*
Y156000D02*
D03*
X327673D02*
D03*
Y161000D02*
D03*
X299327Y166000D02*
D03*
X327673Y151000D02*
D03*
D40*
X299500Y143300D02*
D03*
X290000Y136200D02*
D03*
X264098Y179953D02*
D03*
X286500Y136200D02*
D03*
X263500Y126200D02*
D03*
X249500Y138700D02*
D03*
X299500D02*
D03*
X286500Y140800D02*
D03*
X264098Y175353D02*
D03*
X263500Y130800D02*
D03*
X249500Y143300D02*
D03*
X290000Y140800D02*
D03*
D41*
X308398Y118591D02*
D03*
Y93394D02*
D03*
Y96543D02*
D03*
Y115441D02*
D03*
D42*
X288240Y124500D02*
D03*
X280760D02*
D03*
X284500Y116154D02*
D03*
D43*
X230886Y165949D02*
D03*
X239547Y159256D02*
D03*
X230886D02*
D03*
X239547Y165949D02*
D03*
D44*
X268035Y151110D02*
D03*
D45*
X254512Y155047D02*
D03*
X281559Y150323D02*
D03*
Y148748D02*
D03*
Y142449D02*
D03*
Y140874D02*
D03*
X254512Y150323D02*
D03*
Y144024D02*
D03*
X281559Y151898D02*
D03*
Y144024D02*
D03*
X254512Y148748D02*
D03*
Y140874D02*
D03*
Y142449D02*
D03*
X281559Y161346D02*
D03*
Y145598D02*
D03*
X254512Y153472D02*
D03*
X281559Y147173D02*
D03*
X254512Y145598D02*
D03*
Y147173D02*
D03*
Y151898D02*
D03*
Y156622D02*
D03*
Y158197D02*
D03*
Y159772D02*
D03*
Y161346D02*
D03*
X281559Y156622D02*
D03*
Y158197D02*
D03*
Y159772D02*
D03*
Y153472D02*
D03*
Y155047D02*
D03*
D46*
X278272Y164634D02*
D03*
X264098D02*
D03*
X278272Y137587D02*
D03*
X264098D02*
D03*
X265673D02*
D03*
X260949D02*
D03*
X270398D02*
D03*
X268823D02*
D03*
X257799D02*
D03*
X262524D02*
D03*
X267248D02*
D03*
X259374D02*
D03*
X273547D02*
D03*
X275122D02*
D03*
X276697D02*
D03*
X271972D02*
D03*
X257799Y164634D02*
D03*
X259374D02*
D03*
X260949D02*
D03*
X265673D02*
D03*
X267248D02*
D03*
X270398D02*
D03*
X271972D02*
D03*
X273547D02*
D03*
X275122D02*
D03*
X276697D02*
D03*
X262524D02*
D03*
X268823D02*
D03*
D47*
X308398Y106976D02*
D03*
Y103039D02*
D03*
Y108945D02*
D03*
Y105008D02*
D03*
Y101071D02*
D03*
Y99102D02*
D03*
Y110913D02*
D03*
Y112882D02*
D03*
D48*
X327000Y123000D02*
D03*
Y88984D02*
D03*
D49*
X310661Y123000D02*
D03*
Y88984D02*
D03*
D50*
X210000Y206500D02*
D03*
X320500D02*
D03*
D51*
X210000Y196500D02*
D03*
X320500D02*
D03*
D52*
X239500Y127500D02*
D03*
X320000Y77500D02*
D03*
Y67500D02*
D03*
Y57500D02*
D03*
X239500Y117500D02*
D03*
X302500Y196500D02*
D03*
X292500Y206500D02*
D03*
Y196500D02*
D03*
X282500Y206500D02*
D03*
Y196500D02*
D03*
X272500Y206500D02*
D03*
Y196500D02*
D03*
X262500Y206500D02*
D03*
Y196500D02*
D03*
X252500Y206500D02*
D03*
Y196500D02*
D03*
X242500Y206500D02*
D03*
Y196500D02*
D03*
X232500Y206500D02*
D03*
Y196500D02*
D03*
D53*
X320000Y47500D02*
D03*
X239500Y137500D02*
D03*
D54*
X312630Y94614D02*
D03*
Y117370D02*
D03*
D55*
X302500Y206500D02*
D03*
D56*
X289849Y46047D02*
D03*
Y9336D02*
D03*
X276679D02*
D03*
X263213D02*
D03*
X249631D02*
D03*
X235987D02*
D03*
X289849Y21573D02*
D03*
X276679D02*
D03*
X263213D02*
D03*
X249631D02*
D03*
X235987D02*
D03*
Y33810D02*
D03*
X249631D02*
D03*
X263213D02*
D03*
X276679D02*
D03*
X289849D02*
D03*
X276679Y46047D02*
D03*
X263213D02*
D03*
X249631D02*
D03*
X235987D02*
D03*
Y58284D02*
D03*
X249631D02*
D03*
X263213D02*
D03*
X276679D02*
D03*
X289849D02*
D03*
X263689Y124106D02*
D03*
X235000Y147000D02*
D03*
X258000Y155000D02*
D03*
X334000Y173000D02*
D03*
X333500Y203000D02*
D03*
X311500Y201500D02*
D03*
X297500Y209000D02*
D03*
X322000Y166000D02*
D03*
X294470Y149984D02*
D03*
X291000Y185500D02*
D03*
X287500Y209000D02*
D03*
X290000Y133500D02*
D03*
X279000Y82500D02*
D03*
X296500Y114500D02*
D03*
X289000Y113500D02*
D03*
X296435Y98944D02*
D03*
X277500Y209000D02*
D03*
X267500D02*
D03*
X264000Y184500D02*
D03*
X257500Y209000D02*
D03*
X286000Y169000D02*
D03*
X281000Y164500D02*
D03*
X275000Y159500D02*
D03*
X247500Y209000D02*
D03*
X237500D02*
D03*
X249500Y180000D02*
D03*
X23000Y209000D02*
D03*
X236500Y162000D02*
D03*
X286500Y133500D02*
D03*
X275550Y153956D02*
D03*
X268035Y151110D02*
D03*
X284500Y120500D02*
D03*
X249500Y136000D02*
D03*
X254000Y72000D02*
D03*
X18500Y4500D02*
D03*
X278272Y153929D02*
D03*
Y148748D02*
D03*
Y140874D02*
D03*
X312500Y109165D02*
D03*
Y105000D02*
D03*
M02*
